<?xml version="1.0" encoding="UTF-8"?>
<svg id="Layer_1" xmlns="http://www.w3.org/2000/svg" version="1.1" viewBox="0 0 576 216">
  <!-- Generator: Adobe Illustrator 29.5.1, SVG Export Plug-In . SVG Version: 2.1.0 Build 141)  -->
  <defs>
    <style>
      .st0 {
        fill: none;
        stroke: #000;
        stroke-linecap: square;
        stroke-linejoin: round;
        stroke-width: .6px;
      }
    </style>
  </defs>
  <g id="figure_1">
    <g id="axes_1">
      <g id="line2d_68">
        <g>
          <path class="st0" d="M521.07,132.1l.02-3.46c0,1.16.01,2.32.02,3.47"/>
          <path class="st0" d="M520.76,136.15c.02-2.26.04-4.53.06-6.79v6.83"/>
          <path class="st0" d="M520.59,136.26l.03-7.58v4.58c0-.87.01-1.74.01-2.61l.04,5.47"/>
          <path class="st0" d="M520.45,140.99l.03-9.68c.01,3.23.02,6.46.03,9.7"/>
          <path class="st0" d="M520.22,145.93c.01-5.98.02-11.95.11-17.93l.05,13.06"/>
          <path class="st0" d="M520.11,145.77c.02-6.02.05-12.04.06-18.05.01,6.06.03,12.11.04,18.17"/>
          <path class="st0" d="M519.78,150.44c-.02-5.2-.04-10.39-.05-15.59l.1,3.69v-7.81c.03,4.61.05,9.22.08,13.83.02-6.14.05-12.27.14-18.4-.01,4.93-.03,9.86-.04,14.79l.06-10.18c.01,5,.03,10.01.04,15.01"/>
          <path class="st0" d="M74.87,98c.61,5.09.28,10.22.38,15.34.11-6.09-.17-12.22.62-18.28l.21,5.38c.02-.63.08-1.25.1-1.88.22,2.17.17,4.36.21,6.54.2-1.6.18-3.21.21-4.82.02.46.06.91.1,1.37.31,3.35.31,6.35.41,9.8l.1-5.17.2,5.14c.62-2.99.32-6.07.41-9.09.07.33.14.66.2.99.03-.63.1-1.26.1-1.89l.2,9.85c.03-.3.07-.59.1-.89.07,1.37.12,2.74.3,4.1l.1-5.57c.03.31.07.63.1.94l.3-4.92c.32,1.92.25,3.86.3,5.8l.2-8.63.1,4.38.1-4.45c.12,1.11.16,2.23.2,3.34.27-2.28-.44-4.79.5-6.95l.2,4.97.2-7.15c.07.41.42,1.03.2.55.18,1.24.18,2.5.2,3.75l.1-4.96c.06.1.07.45.1.57.02-.24-.02-.53.1-.75.24,5.1.36,10.21.5,15.31l.3-9.07c.03.34.07.68.1,1.02l.1-3.91c.14,4.54.21,9.08.3,13.62.01-.66.07-1.32.1-1.97l.3,2.36c.13-1.54.16-3.08.2-4.63l.1,4.87c.09-2.06.18-4.12.29-6.17l.1,2.75.2-7.82.2,6.05.2-3.99c.18,2.12.21,4.25.29,6.37.02-.61.07-1.21.1-1.82.02.66.08,1.31.1,1.97l.19-3.55c.02.49.08.98.1,1.48l.19-3.14.19,3.56c.16-1.94.21-3.88.29-5.82.02.58.07,1.15.1,1.73.03-.32.06-.64.1-.96.12,2.83.2,5.65.39,8.47.03-.29.07-.58.1-.87l.1,2.73c.09-5.98.11-11.96.48-17.93l.57,12.59.1-4.05c.48,2.76.25,5.56.29,8.35l.19-2.81c.02.57.08,1.15.1,1.72l.19-3.79c.03.56.08,1.12.1,1.68l.1-6.5c.02.66.07,1.31.09,1.97.28-3.18.21-6.37.28-9.55.46,3.73.43,7.49.47,11.23.14-2.9.23-5.81.28-8.71l.19,6.33.19-4.85.09,8.51.09-2.94.19,3.79.28-4.85c.12,4.02.3,8.04.37,12.06.37-1.99.32-4.03.37-6.05l.09,3.87.09-2.46.09,6.32c-.24-.5.14.32.19.85.16-5.78.31-11.57.46-17.35l.09,2.08.19-6.69c.11,4.47.27,8.95.37,13.42.08-3.65.26-7.29.37-10.94.05.17.08.35.09.53.03-.41.06-.83.09-1.24l.28,10.03.09-4.2c.03.31.07.62.09.93.16-.81.25-1.63.28-2.45l.09,6.74c.06-2.35.03-4.7.27-7.03l.18,3.59c.03-.33.06-.66.09-.98l.09,2.22.18-8.24c-.27.5.03.12.18-.41l.27,6.12.09-4.68c.06.58.14,1.15.18,1.73l.09-4.33c.24,2.1.21,4.21.27,6.31.09-3.31-.07-6.64.36-9.93.22,3.45.23,6.91.27,10.37l.09-2.25.09,2.86.18-3.2c.97,4.36.35,8.91.45,13.33.01-.5.07-.99.09-1.49.14.49.39.73.18.38l.18,7.52c.1-5.84.38-11.67.45-17.51l.18,2.38c.11-1.12.14-2.24.18-3.36l.27,5.18.09-4.3c.07.81.16,1.62.27,2.43l.18-3.67.09,3.99.18-7.63.09,2.7.09-6.46c1.27,9.17.33,18.46.44,27.67.17-7.26-.66-14.65.79-21.83.21.83.3,1.7.26,2.56.21-1.51-.04-3.08.44-4.55.64,6.55.31,12.82.52,18.84l.09-6.66.09,2.01c.08-2.36.16-4.72.35-7.08l.09,3.66.09-6.14.09,7.95c.17-1.26.32-2.43.35-4.1l.09,4.16c.13-1.02.24-2.04.34-3.05.25.14.24-3.41.26-4.49l.09,2.79.09-5.5.09,2.36.09-4.89.09,3.26c.02-.48.06-.96.09-1.44l.09,2.52c.03-.44.05-.89.09-1.33.03.34.06.67.09,1.01.05-1.3.14-1.28.26-2.45l.17,7.39c.08-.27.14-.54.17-.82.03.15.01.45.09.59.29-1.96.16-3.94.17-5.91.24,1.38.16,2.8.17,4.2l.25-8.28.08,2.67c.06-.39.11-.78.17-1.16l.08,4.6c.21-2.57.29-5.14.42-7.72.19,2.19.19,4.39.25,6.59l.17-2.59.08,5.78.08-4.81c.01.66.06,1.32.08,1.97l.17-2.27c.04.28.06.56.08.84.04-.26.07-.52.08-.79,0,.23.03.46.08.68l.08-3.47.17,4.13c.03-.41.05-.81.08-1.22.03.38.06.76.08,1.14l.08-2.06c.27,3.82.36,7.66.42,11.49.08-1.48.12-2.95.17-4.43.02.51.06,1.02.08,1.53l.25-4.84.25,14.55c.07-4.65.2-9.3.33-13.95.06.72.09,3.63.33,2.33l.08,6.97.25-16.53c-.31.81.19-.64.25-1.03l.16,9.3c.16-1.55.14-3.11.16-4.67.03.41.05.81.08,1.21l.25-4.67c.2,1.61.15,3.24.16,4.86l.16-3.87c0,.64.06,1.27.08,1.91.22-1.31.16-2.65.16-3.97l.49,13.59.08-3.27.08,5.01c0-.63.05-1.26.08-1.89.41,2.37.21,4.8.24,7.19-.04-2.86-.04-4.86.24-7.72.04-2.35.15-4.7.24-7.04l.24,17.8.4-18c.03.26.05.53.08.79.16-2.04.13-4.09.16-6.13.05.24.1.47.16.71.02-.55.08-1.09.08-1.64.35,6.91.4,13.82.48,20.73l.16-6.93c.52,3.21.32,6.48.4,9.71l.08-6.51c.11.71.16,1.42.16,2.14.03-.45.05-.89.08-1.34.22,1.42.15,2.87.16,4.3.09-7.27.19-14.54.48-21.81.04,2.43-.09,4.87.24,7.28.03-.11.06-.22.08-.33l.16,6.32.08-12.93c.49,3.09.44,6.23.47,9.35l.08-2.51c.02.59.06,1.19.08,1.78l.16-4.21c.12,6.82.22,13.64.39,20.46.05-.17.07-.35.08-.53.05.4.1.8.16,1.2.16-3.01.2-6.02.23-9.03.01.5.06,1,.08,1.49.07-.25.09-.5.08-.76,0,.23.03.45.08.67l.08-4.93c.04.56.11,1.11.16,1.67.11-3.54.24-7.08.47-10.61.21,2.69.21,6.69.23,9.55l.08,10.93c.4-5.13.28-10.28.39-15.41.19,1.59.14,3.19.15,4.79l.15-9.5.08,2.74c.15-2.1.17-4.2.23-6.3l.15,6.12c.05-.32.1-.63.15-.95.08,2.9.21,5.8.31,8.71.52-3.27-.07-6.61.54-9.87l.31,11.46c.03-.33.05-.66.08-1l.08,5.68.15-9.53c.13-1.73.13-2.73.23-5.18-.18.67.19-.88.23-1.12.02.55.07,1.09.08,1.64l.08-2.23c.62,3.49.29,7.06.38,10.58.3-8.32-.27-16.68.53-24.98,1.64,5.69.62,11.71.45,17.52l.23-5.94.08,4.4c.03-.58.11-1.16.15-1.74l.08,7.78c.02-.43.05-.85.08-1.28.02.6.06,1.19.08,1.79.08-3.5.22-6.99.3-10.49.3,2.13.23,4.28.3,6.42.03-.26.05-.52.07-.78l.07,7.04c.33-2.64.14-5.31.15-7.96.05.99.14,1.97.22,2.96-.14-.34.11.27.15.45.18-2.66.13-5.32.15-7.98.04.42.09.83.15,1.24.05-.36.1-.71.15-1.06.28,3,.13,6.01.15,9.02l.07-6.4c.56,2.92.38,5.93.52,8.89l.15-11.36c.38,6.01.34,12.03.37,18.05,1.03-5.29.44-10.71.59-16.06l.15,4.23.15-6.62c.03,1.21.04,2.42.22,3.62.02-.44.05-.88.07-1.33l.15,11.67c.19-1.4.18-2.83.22-4.24l.29,14.75c.17-5.31.21-10.62.29-15.93.12,1.79.18,3.59.22,5.38l.07-8.56c.03.48.11.97.14,1.45.36-2.24.19-4.53.22-6.79.02.43.05.86.07,1.29.03-.55.11-1.1.14-1.66.45,5.45.12,10.91.14,16.37l.07-6.2.07,2.68.36-8.81.07,3.63.29-8.08c.15,2.94.16,5.89.22,8.84l.07-7.41.07,4c.12-1.55.23-3.1.29-4.65.13,4.54.23,9.08.29,13.62.13-3.38.11-6.76.43-10.12l.14,3.24c.05-.3.1-.6.14-.9.01.64.07,1.29.07,1.93.02-.42.05-.85.07-1.27l.07,4.31.14-5.98.21,5.29c.02-.28.05-.56.07-.84l.07,8.43c.11-6.4.25-12.8.42-19.2.07.26.09.53.07.8.05-.16.07-.32.07-.48l.21,10.58c.02-.44.05-.88.07-1.31.02.41.05.83.07,1.24l.07-4.68c.02.67.07,1.35.14,2.01.03-.35.05-.7.07-1.05-.24.84.18-.74.21-1.04.03.42.05.84.07,1.26l.07-6.35c.05,2.08.12,4.16.21,6.23l.35-12.82c.21,3.19.22,6.38.28,9.58l.21-5.07c.02.62.06,1.23.07,1.85.03-1.2.04-2.39.21-3.58l.28,4.93c.34-3.17.17-6.36.21-9.54l.07,6.31c.02-1.06.07-2.13.21-3.18.09.92.12,1.85.14,2.78l.07-2.29c.69,2.94.34,6.01.41,9,.29-2.74.16-5.49.21-8.24l.07,4.01.07-3.11.21,8.46c.02-.26.05-.53.07-.79,0,.53.06,1.05.07,1.58.16-1.24.14-2.5.14-3.75l.07,4.38.14-4.49.21,9.12c.02-.33.05-.66.07-.98l.07,7.81c.13-8.55-.2-17.13.55-25.66.17,8.62.15,17.25.54,25.87l.07-2.73c.34,1.85-.18-.42.2.57l.14-10.72.14,3.08.07-2.12c.22,1.81.13,3.64.14,5.46l.13-6.11c.37,2.77.12,5.56.13,8.35.04-.54.1-1.08.13-1.62l.07,5.64c.23-1.91.13-3.83.13-5.74.09.99.12,1.98.13,2.97l.13-6.4c.04,1.63.09,3.25.13,4.88l.13-5.71.07,5.41c.1-.67.15-1.34.13-2.02l.07,3.46c.3-3.97.26-7.96.33-11.94.39.6.14-.93.13-1.47.23,3.69.27,7.38.33,11.07l.13-7.8c.16,4.95.34,9.9.4,14.85.06-5.67-.56-11.4.27-17.04.14,2.65.17,5.3.2,7.96.13-3.39.18-6.78.26-10.17.07.19.12.39.13.6.01-.36.04-.71.07-1.07.92,4.52.29,9.19.4,13.77l.26-6.41.2,7.91.07-10.72.07,2.02c.06-2.36,0-4.73.26-7.09l.13,8.35c.06-3.01.21-6.03.26-9.04l.07,2.35c0-.66.05-1.32.07-1.98.22,2.63.18,5.27.2,7.91.02-.31.04-.61.07-.92.02.4.05.8.07,1.2.22-.94.25-1.92.26-2.88l.13,3.61c0-.6.05-1.2.06-1.8.3,1.01.25-1.87.26-2.44.2,1.57.17,3.15.19,4.73.04-.24.06-.49.06-.74,0,.3.03.59.06.88l.19-3.76c.04.35.09.71.13,1.06.05-.41.09-.81.13-1.22l.26,11.25c.22-1.88.28-3.78.39-5.67.02.61.05,1.23.06,1.84l.06-3.83c.01.54-.11,2.79.13,1.89l.06,2.54c.18-3.12-.4-7.06.38-9.97l.19,6.4c.24-1.32.29-2.66.38-4,.22,3.13.39,6.26.45,9.39.32-6.54.36-13.09.44-19.63.06,1.91.12,3.82.19,5.73l.06-2.32.19,10.11c.05-2.12.09-4.24.13-6.36l.06,3.51c.04-1.34.07-2.67.13-4.01.02.38.04.76.06,1.13.02-.36.04-.72.06-1.08l.13,7.51.06-4.34.06,2.57c.02-.41.04-.81.06-1.21.04.43.08.86.13,1.28.07-3.16-.04-6.33.31-9.48l.19,9.03.13-2.94.19,6.47c.07-4.01.19-8.01.31-12.02.18,2.31.18,3.31.19,5.63l.06,5.65c.07-4.1-.11-8.22.31-12.3.43,4.35.19,8.72.25,13.08.01-.06.43-1.48.25-.9l.12-9.01c.02.4.04.8.06,1.2l.19-5.46c.3,4.26.26,8.53.37,12.8.27-2.79.15-5.58.18-8.38,0,.4-.24,2.47.18,1.23.08,4.29.14,8.58.18,12.87.03-2.87-.16-5.75.18-8.61l.25,7.65.06-6.87c0,.95.06,1.9.18,2.84.01-.63.06-1.26.06-1.89l.06,2.18c.07-.86.13-1.73.18-2.59l.18,10.58.06-7.26.06,2.89c.06-1.03.12-2.07.18-3.1.04.29.08.57.12.86l.18-5.93.18,4.13c.04-.23.08-.46.12-.69l.12,5.2c.04-6.51-.75-14.76.3-20.49.59,6.59.29,13.22.36,19.83l.12-12.53c.29,1.41.22-1.05.24-1.43l.06,4.07c.01-1.04.07-2.08.18-3.11.22,2.14.11,4.29.12,6.43l.06-2.58c.1,1.34.2,2.67.3,4.01l.06-3.97.06,2.34c.03-.95.08-1.9.24-2.85.1,1.99.18,3.98.24,5.97l.06-3.4c.03,1.26.09,2.51.18,3.77.11-2.49.24-4.97.3-7.46l.12,3.24.18-3.57c.02.29.04.59.06.88l.06-4.48c.06,1.2.12,2.4.18,3.61l.24-2.87c.89,4.38.29,8.89.35,13.32,0-.65.04-1.3.06-1.95.15,1.35.11,2.7.12,4.06l.18-10.52c.02.42.04.83.06,1.25.03-.52.09-1.04.12-1.57.02.57.05,1.14.06,1.71.1-5.39-.25-10.8.35-16.17l.35,18.9c.08-6.06.16-12.12.23-18.17.27,2.84.25,5.7.35,8.54l.06-5.48c.01.82.05,1.64.12,2.45l.12-2.02c.7,5.55.33,10.32.35,15.78.1-1.22.14-2.45.17-3.68l.12,3.72c.15-2.49.19-4.99.35-7.48.06,4.49.12,8.97.17,13.46l.12-5.73c.14,1.77.11,3.54.12,5.31.04-1.7.07-3.4.12-5.1l.06,5.51c.04-3.39-.33-6.83.29-10.19.06,3.73.11,7.45.17,11.18l.17-11.13c.31,1.66.22,3.35.23,5.03.07-3.94.12-7.88.23-11.82.26,4.89.24,9.79.34,14.69.04-3.29-.4-6.64.29-9.9l.11,5.43.17-5.36.34,8.53.17-5.78.11,2.62.17-4.07.06,5.11.17-9.91c.31,8.24.25,16.48.34,24.73.1-3.22.25-6.44.28-9.66.04.96.08,1.92.11,2.88l.28-14.65.17,5.19c.02-.35.04-.69.06-1.04l.17,8.74c.76-7.83.17-15.7.28-23.54.06,1.66.09,3.32.11,4.98.02-.33.04-.65.06-.98.08,2.37.13,4.73.17,7.1.03-.28.07-.55.11-.82l.06,4.3.06-5.9c0,.84.04,1.67.11,2.5l.11-5.92.11,8.17c.06-.75.1-1.5.11-2.25l.11,8.65c.1-7.03.2-14.06.28-21.09.13,5.7.51,11.4.61,17.11-.03-.74-.14-1.51.17-1.39l.33-8.73.11,2.34.28-10.58c.21,12.67.22,25.34.44,38,.14-7.95.22-15.91.27-23.86.02.28.04.56.05.84l.11-3.3c.05.97.08,1.93.11,2.9l.11-3.49c.65,4.32.19,8.7.22,13.05.3-3.85.27-7.71.38-11.57.83,5.77.22,11.64.27,17.44.09-4.99.17-9.98.27-14.97.13,1.75.1,3.5.11,5.25.05-4.17.13-8.34.22-12.5.22,4.29.2,8.58.27,12.87l.05-5.4c.25,1.54.16,3.11.16,4.66l.05-8.31.05,3.63c.01-.55.04-1.11.05-1.66l.16,6.67c.11-3.52.22-7.04.32-10.57.1,1.4.09,2.8.11,4.2.03-1.41.07-2.81.11-4.21.11,4.97.21,9.93.32,14.9.52-6.25.27-12.52.37-18.79l.16,9.14.05-3.25c.26,3.74.26,7.49.37,11.24l.21-13.15c.49,2.47.16,5.01.16,7.5.05-2.41.18-4.82.32-7.22l.11,5.88c.17-.88.28-.59.11-.38l.16-6.34c.11,7.12.21,14.24.32,21.35.06-6.43-.78-14.72.42-20.56l.16,15.61c.45-5.68-.46-11.4.37-17.05.08,3.24.08,6.49.1,9.74.1-1.13.1-2.26.1-3.39l.05,4.87c.03-2.44.12-4.88.21-7.31l.05,4.22.05-2.01c.1,1.49.19,2.98.26,4.47.07-6.4.14-12.8.21-19.21.15,2.55.12,5.1.16,7.66.56.15.15,7.82.16,9.42.5-4.41.35-8.85.42-13.28.05,1.92.08,3.84.1,5.77.01-1.18.03-2.36.1-3.54l.05,4.12c.05-.53.12-1.05.16-1.58l.16,13.23.1-3.37.05,2.91.1-10.21c.02.45.03.9.05,1.35.02-.4.03-.8.05-1.2l.15,8.8c.13-4.38.25-8.77.31-13.15.14,4.41.24,8.77.26,13.18.02-2.4.02-4.8.15-7.2.02.44.04.88.05,1.33l.1-3.56c.2,2.44.18,4.88.2,7.33l.05-7.9.05,3.24.1-2.42c.11,3.19.11,6.38.15,9.57.01-1.43,0-2.87.1-4.3l.05,3.71.05-6.29c.66,3.17.35,6.45.46,9.66l.05-2.87c.15,1.32.13,2.66.15,3.99l.2-14.55.05,2.21.1-2.83.1,3.51.05-4.45c.46,4.13.19,8.28.25,12.43.16-3.79-.01-7.59.25-11.37.27,2.77.17,5.56.2,8.34.08-2.07.08-4.15.1-6.22.02,1.23.03,2.45.1,3.67l.1-4.11c.3,1.01.14-1.01.15-1.35-.12,1.75-.12,3.75.3,5.79l.05,6.1.2-8.95c.36,2.16.2,4.35.2,6.52.05-5.08-.27-10.18.25-15.24.2,3.07.12,6.14.15,9.22.02-.43.03-.85.05-1.28.02.44.03.88.05,1.32,0-.2.2-1.91.1-1.09.03-.65.09-1.31.1-1.96l.25,13.78c.32-4.03.09-8.07.1-12.11.75,3.15.28,6.43.3,9.63.04-.6.11-1.21.15-1.81l.15,6.12c.13-4.64.12-9.28.3-13.92.36,4.92.24,9.86.35,14.79.26-4.05.09-8.12.1-12.17.1,2.29.22,4.22.3,6.8.05-4.08.1-8.16.15-12.24.37,3.5.22,7.02.29,10.53.11-2.7.14-5.41.2-8.12.47,5.52.37,10.19.44,15.73.13-4.86.27-9.72.39-14.58l.15,7.48.05-4.88.05,5.33.19-7.37c.06.79.11,1.58.15,2.37.02-.31.03-.62.05-.93.06,4.63.13,9.26.19,13.89.04-3.2.14-6.4.24-9.6l.05,3.55c.1-4.45.17-8.91.24-13.36.15,1.87.18,3.74.24,5.61.03-.28.06-.56.1-.84l.1,8.21c.69-9.28.2-18.59.24-27.89-.06,12.48-.06,24.97.24,37.44.03-6.85.06-13.7.19-20.55l.1,2.42.1-6.43c.18,3.77.23,7.55.34,11.33.05-.36.1-.72.14-1.08,0,.22,0,.44.05.66.01-.65.05-1.29.05-1.94.03,1.49.09,2.98.19,4.47l.24-9.55c.01.27.03.54.05.81.03-.38.06-.76.1-1.13l.05,9.63c.28-3.42.11-6.85.14-10.28l.05,3.68c.02-.53.07-1.06.09-1.59.24,4.07.2,8.15.28,12.23.02-.31.04-.62.05-.93,0,.25.02.5.05.75.08-4.86.2-9.72.33-14.58l.09,4.12.05-2.6.05,8.39c.06-1.38.13-2.77.19-4.15l.14,3.83c.11-2.78.25-5.56.38-8.34.01.54.04,1.08.05,1.62.04-1.5.07-2.99.09-4.49.14,2.24.2,4.49.28,6.74.06-.75.09-1.5.09-2.25.08,2.76.14,5.52.23,8.27.49-2.18.49-4.18.33-5.69l.05-3.45c.04.32.07.63.09.95.04-.17.05-.34.05-.51.13,1.62.12,3.24.14,4.87l.05-7.96c.08,1.13.12,2.25.14,3.38.03-.24.06-.49.09-.73.49,9.07.33,18.15.42,27.22.08-7.96.15-15.93.23-23.89.15.02.04.78.09-.76l.09,7.46c.14-1.99.11-3.98.14-5.97.3,2.61.24,6.04.28,9.12.01-.66.03-1.31.05-1.97.03,1.93.06,3.86.09,5.79l.05-3.36c.02.28.03.56.05.84l.09-5.35c.01,1.65.01,3.31.09,4.96l.23-10.2c0,.49.03.98.05,1.47.24-2.58.23-5.18.32-7.77l.14,9.48.05-6.62c.29,2.97.17,5.97.23,8.95l.09-6.1.05,2.42c.2-1.59.14-3.2.14-4.8,0,1.98-.12,3.97.14,5.94l.09-5.17c1.2,3.47.29,7.42.32,11,.04-3.65.08-7.3.14-10.95.03,1.28.11,2.55.18,3.83.05-4.21-.11-8.43.23-12.63l.09,7.31c.02-.77.07-1.53.14-2.3l.05,3.36c.03-.34.06-.68.09-1.02l.05,2.5c.03-1.92.07-3.84.14-5.76.51,5.72.25,11.47.32,17.2l.09-10.22c.12,1.75.12,3.51.14,5.27.12-2.01.16-4.02.22-6.03.23,5.39.2,10.79.27,16.19.06-3.94-.08-7.88.27-11.81l.04,5.04c.03-.33.06-.66.09-.99l.04,2.93c.08-6.23.2-12.46.31-18.69.22,4.95.23,9.9.27,14.85.03-2.23.08-4.45.13-6.67l.22,11.95.09-6.12c.02.54.07,1.07.09,1.61l.09-3.01c.18,2.73.08,5.46.09,8.19l.04-5.04c.19,1.87.13,3.74.13,5.62l.13-9.91.13,2.3c0-.62.04-1.25.04-1.87.41,5.43.15,10.88.18,16.32.14-10.1.28-19.8.4-29.28.13,12.84.14,25.68.26,38.52.03-1.44.06-2.88.07-4.32-.04,1.44-.07,2.88-.07,4.32-.13-10.12-.14-20.24.26-30.36l.04,3.27c.04-.38.07-.33.09.15.01-.27.03-.55.04-.82.14,5.35.16,10.7.18,16.05.13-7.85-.75-15.75.35-23.56l.17,4.06.04-4.09c0,1.28.01,2.57.09,3.85.02-.57.07-1.15.09-1.72l.13,6.36.09-6.04c.06.21.09.43.09.65,0-.29.02-.58.04-.87.04.95-.24,1.05.09.7l.04,4.44c.03-3.59.22-7.21.22-10.79.18,3.39.1,6.79.13,10.18.06-1.72.07-3.43.09-5.15.05,4.32.24,8.67.26,13.48.25-4.79.26-9.6.35-14.4.39,4.64.13,9.3.17,13.95.14-4.35.15-8.7.22-13.04.18,2.42.11,4.85.13,7.27.23-1.35.16-2.73.17-4.09.05.38.09.75.13,1.13l.04-5.12c.03.39.05.78.09,1.16.04-.56.1-1.12.13-1.69l.09,10.77c.02-2.39,0-4.79.09-7.18.03,1.76.12,3.52.21,5.28l.04-3.9c.17,1.59.16,3.18.17,4.77,0-.16.04-.32.09-.47,0,.17.01.35.04.52l.13-7.73c.04,4.27.21,8.53.26,12.8.04-2.6.06-5.21.09-7.81.09,1.44.08,2.88.09,4.31.07-5.2.14-10.4.21-15.59.15,6.74.14,13.47.17,20.21.03-3.44.05-6.89.08-10.33.4,4.76.14,9.54.17,14.3.02-4.89.08-9.79.17-14.68.09,1.12.1,2.24.13,3.36,0-.58.03-1.17.04-1.75l.08,2.38c.01-.42.03-.85.04-1.27.28,3.91.08,7.84.08,11.76.05-3.56.09-7.13.13-10.69.07,3.39.15,6.78.21,10.17.07-7.21-.34-14.44.25-21.64.19,5.45.16,10.9.21,16.36.72-4.35.29-8.79.38-13.18l.17,9.66c.06-3.84.14-7.68.21-11.52.17,2.28.13,4.57.17,6.85.11-3.39.14-6.79.21-10.18l.04,6.95.08-4.39c.13,5.35.18,10.7.25,16.04.08-5.03.16-10.06.25-15.09l.21,11.99.17-11.63c.19,6.5.23,13,.33,19.5l.29-19.09c.08,1.63.16,3.25.25,4.88.15-2.96.1-5.93.12-8.89.01.42.03.84.04,1.25.03-.6.07-1.2.08-1.8.18,4.14.21,8.28.41,12.42l.04-8.32.08,2.56.04-2.03c.18,2.29.11,4.59.12,6.89.13-2.52.07-5.05.08-7.57.09,3.36.21,6.71.33,10.07l.2-7.05c.16,6.77.18,13.54.2,20.32.02-5.22.02-10.45.2-15.67l.04,2.75c.04-2.22,0-4.44.16-6.65.01.65.04,1.3.04,1.96l.04-2.97c.15,1.14.11-1.73.12-2.21l.16,11.78c.04-1.38.07-2.77.12-4.15.07,1.47.09,2.95.12,4.42.18-1.73.17-3.47.2-5.21l.16,7.2c.07-5.17.1-10.34.24-15.5l.08,10.64c.02-2.31.03-4.61.08-6.92.05,2.86.15,5.72.24,8.58,0-.93.05-1.86.16-2.78l.04,6.16c.02-.82.06-1.64.12-2.45.01.6.04,1.19.04,1.79.07-4.6.24-9.2.36-13.8.29,3.68.15,7.38.16,11.07.24-2.39.14-4.8.16-7.19l.08,2.35.12-3.36c.08,6.75.16,13.5.24,20.25.08-6.73-.28-14.37.4-20.55l.12,12.1c.06-4.57.15-9.15.24-13.72.04.4.09.8.16,1.2,0-.61.04-1.22.04-1.82.4,4.63.2,9.27.28,13.91l.08-10.49c.05.64.11,1.24.12,1.89l.08-4.85.04,6.59.08-4.09c.13,3,.07,6.01.08,9.01l.08-5.67.04,3.84c.07-3.51.2-7.02.32-10.53l.12,10.3c.14-3.9.18-7.81.24-11.72.03.63.12,1.26.16,1.89.08-.8.12-1.61.12-2.41l.08,5.1.04-3.49c.82,5.13.25,10.34.31,15.51.08-4.66.16-9.32.23-13.99.06,3.19.11,6.38.16,9.57l.16-10.31c.01.27.03.54.04.81.01-.64.03-1.28.04-1.92l.04,5.26.08-2.04c0,.49.03.97.04,1.46l.16-7.98.12,8.61.16-6.61c.12,6.45.23,12.89.35,19.34.06-.24.09-.48.08-.73,0,.28,0,.56.04.85l.23-10.9.23,9.56c.03-4.02.03-8.02.27-11.77l.15-6.83.12,2.32c.02-.55.06-1.1.08-1.65,0,.52.03,1.03.04,1.55.01-.35.03-.7.04-1.05.1,4.21.11,8.43.15,12.64l.12-5.21.04,4.19c.15-1.69.19-3.4.27-5.1l.04,4.65.11-15.13c.01,9.62.18,19.23.23,28.85.24-5.81-.04-11.63.23-17.44l.27,12.69.04-13.23c.02.64.06,1.27.08,1.91l.11-4.13.04,3.99c.04-.43.07-.85.11-1.28.01.57.04,1.14.04,1.71,0-3.26.12-6.53.15-9.79.01.08.21,1.14.08.46.03,2.15.06,4.3.11,6.45.02-1.2.03-2.4.08-3.61.33,4.25-.1,8.53.3,12.78.14-1.86.1-3.73.11-5.6l.04,2.85.15-13.8c.1,7.27.16,14.55.23,21.82l.04-7.72.11,2.48c.07-2.04.07-3.04.19-5.48l.11-8.03c.05.17.07.35.08.53-.13-.74.07.98.08,1.18l.04-2.26c.29,5.54.17,11.09.23,16.64.07-6.44.26-12.88.41-19.31.42,6.34.14,12.69.19,19.04.08-5.45-.03-10.9.22-16.35.07,2.38.1,4.76.15,7.14l.15-4.89.22,13.84c.22-3.99.05-7.99.22-11.99.13,5.38.17,10.76.22,16.14.05-4.42,0-8.85.22-13.27.35,4.41.19,8.83.26,13.24.08-3.01.01-6.03.26-9.03.01.57.04,1.14.04,1.71.06-3.43.12-6.86.18-10.29.01,1.07.04,2.15.11,3.22l.07-3.57c0,.68.03,1.36.07,2.04l.07-3.75c.1,3.43.08,6.86.11,10.29.29-3.44.15-6.89.18-10.33l.04,4.36c.01-.29.02-.58.04-.86.03.75.07,1.51.11,2.26l.04-5.78c.18,4.3.16,8.61.18,12.92.06-1.95.14-3.89.18-5.84.04.85.08,1.69.11,2.54l.15-4.26c.07,3.57.14,7.13.22,10.7.06-5.73-.24-11.47.22-17.19.15,4.7.28,9.4.36,14.11l.15-12.44c.32,5.35.18,10.71.25,16.07.06-4.54-.06-9.09.29-13.61l.11,6.2c.05-2.58.05-5.16.18-7.73l.04,4.38c.01-2.76.01-5.52.07-8.28l.04,2.37c.02-.25.03-.51.04-.76.32,5.57.09,11.16.11,16.73.08-4.08.14-8.16.18-12.25l.07,2.2c.04-.45.07-.9.11-1.35l.07,2.38c.1-2.27.06-4.54.07-6.81l.07,3.44c.02-.25.05-.5.07-.74l.04,6.91.07-2.68c.01.32.02.64.04.96.06-1.5.11-3.01.18-4.51.82,5.09.29,10.26.39,15.39.06-5.34.14-10.69.21-16.03.06,1.6.11,3.21.18,4.81l.07-4.54.04,6.57c.18-3.86.08-7.72.11-11.58l.07,3.78c.01-.41.02-.82.04-1.23.04,2.4.21,4.79.28,7.19.07-2.37.13-4.74.21-7.11l.11,11.57c.06-3.31.06-6.61.07-9.92l.07,2.92c.02-.38.05-.76.07-1.14l.04,3.59c.02-1.36.03-2.73.14-4.09l.21,12.22.11-14.76c.1,1.43.06-1.48.07-1.94.14,3.6.15,7.2.21,10.8l.04-2.3c.02.51.05,1.02.07,1.54l.07-3.04c.07,1.76.08,3.51.11,5.27l.04-4.45c.12,3,.06,6,.07,9l.07-3.73c.25,3.38.13,6.78.18,10.17.1-7.88-.19-15.77.39-23.64l.07,12.11.1-2.27.14,10.27c.98-7.11.24-14.31.31-21.46,0,.52.02,1.03.03,1.55.03-.27.05-.54.07-.81.62,9.19.25,18.41.28,27.61.05-7.08.16-14.16.24-21.24.04.25.07.5.1.75l.07-2.82c.04.81.06,1.62.07,2.42.03-2.38.05-4.75.07-7.13.02.98-.04,3.46.17,3.38l.03,3.88.1-10.23c.1,4.06.1,8.13.14,12.2.02-2.5.06-5,.14-7.49l.03,2.65c.01-.45.02-.9.03-1.35l.14,6.57.07-5.55c.01.64.05,1.27.07,1.91.01-.3.02-.6.03-.9-.02,2.53.09,5.5.1,8.5.03-3.09.07-6.17.1-9.26.16,2.61.1,5.24.1,7.85.03-2.68.05-5.35.21-8.03l.07,8.53.03-3.51c.02.47.05.93.07,1.4,0-.56.03-1.12.03-1.68.05,1.42.06,2.84.07,4.26.14-2.42.06-4.84.07-7.27.05,2.52.08,5.03.1,7.55.23-3.42.27-6.86.44-10.28l.03,8.39.07-8.2.17,7.25.17-16.04c.14,7.3.11,14.6.14,21.91l.1-2.81c-.23-4.86-.23-8.86.2-13.53.34,3.81.16,7.64.2,11.45.02-2.17.04-4.33.07-6.5.11,5.58.17,11.17.24,16.75.06-5.53.09-11.06.27-16.59.02.13.05.14.1.04l.17,6.44.03-5.64c.06,2.83.12,5.66.17,8.48.03-2.31.12-4.62.17-6.93.33,4.83.19,9.67.24,14.5.05-5.28-.48-10.59.23-15.85,0,.5.04,1.01.03,1.51,0-1.21,0-2.43.1-3.64l.17,11.87.13-14.23c.01.33.02.66.03,1,0-.28.02-.57.03-.85l.1,11.2c.01-.42.02-.83.03-1.25.29,4.74.17,9.48.23,14.22.19-2.65.13-5.31.17-7.96l.03,3.21.07-13.4c.33,5.03.15,10.08.17,15.12l.07-5.92c.02.41.04.83.07,1.24.19-3.32.17-6.65.23-9.98l.07,4.35c.08-2.21.1-4.42.13-6.63l.13,6.51.1-8.86c0,.63.03,1.26.03,1.9l.07-6.78c.91,4.43.17,9.02.17,13.5.04-.6.1-1.19.13-1.79.02,1.5.08,3,.13,4.5.03-1.04.09-2.08.1-3.13l.03,5.44c.02-.67.07-1.33.1-1.99.01.29.02.58.03.87.1-5.49.15-10.97.23-16.46.04,5.29.15,10.57.16,15.86.04-2.23.07-4.45.1-6.68.12,3.83.29,7.67.36,11.5l.16-9.04.16,13.51c0-.19.28-1.92.07-.89.04-4.93-.18-9.87.16-14.79.16,2.42.13,4.85.16,7.28l.1-5.28c.53,3.29.2,6.64.23,9.96l.03-7.2c.03,1.02.06,2.05.13,3.07l.03-4.87.03,7.16c.02-2.23.06-4.46.1-6.69.03,1.13.05,2.26.06,3.39l.06-2.52.03,2.27c.01-.33.02-.67.03-1,.17,2.43.11,4.86.13,7.3.17-4.34.12-8.68.16-13.02.1,1.47.1,2.94.13,4.42l.1-14.15c.35,3.04.26,5.28.36,8.34.07-1.92.06-3.84.06-5.77.28,9.06.41,18.12.55,27.18.06-9.6.13-19.2.19-28.8l.19,15.18.06-10.48c.49,5.98.2,11.98.26,17.96.13-4.88.08-9.77.1-14.65l.1,3.05.06-2.79.03,4.57c.03-4.47.12-8.94.19-13.41.04,4.68.1,9.36.16,14.03.07-3.94.17-7.47.22-11.86.68,6.24.27,12.53.29,18.79l.03-12.41c0,.35.02.7.03,1.05.02-.62.05-1.25.06-1.87.03,2.23.11,4.47.16,6.7l.06-10.22c.16,2.21.13,4.42.16,6.63l-.03-5.99.09,4.83.03-2.54c.14,1.92.09,3.84.09,5.77l.03-5.21c.09,1.23.09,2.47.09,3.7.03-1.65.05-3.3.06-4.95l.06,2.03c0-.07,0-.14.03-.2l.09,6.35c.03-3.13.09-6.26.13-9.39l.03,7.18c.02-.54.05-1.07.06-1.61l.16,11.52c.1-4.99.14-9.98.19-14.98.2,3.46.14,6.93.19,10.39.02-3.22.08-6.44.16-9.67l.19,12.85.03-3.12c.02.53.05,1.06.06,1.59l.13-18.58.19,11.08.06-6.04c.21,4.3.07,8.6.09,12.9.02-1.32.04-2.65.09-3.97l.09,2.96.16-6.79.03,5.64c.03-4.26-.11-8.53.19-12.79l.12,13.08c.03-2.7.05-5.4.06-8.11.09,2.93.12,5.87.16,8.8.03-2.09.06-4.18.09-6.27.15,3.27.07,6.55.09,9.82l.06-4.53c0,.57.02,1.15.03,1.72.02-1.78.05-3.57.09-5.35l.03,9.89c.03-3.68.11-7.42.15-10.6l.09,15.34c.02-8.15.09-16.3.19-24.44l.19,14.14c.1-3.64.17-7.27.25-10.91l-.15,9.82.18-8.45c.17,4.72.09,9.43.12,14.15.06-5.15-.39-10.35.34-15.48.02.63.08,1.26.09,1.88,0-.61.03-1.23.03-1.84,0,1.01.01,3.45.09,3.62l.15,15.87.12-15.09c.03.23.06.46.09.69l.15-5.25.06,3.99c0-1.05.02-2.1.06-3.15l.15,6.04.24-8.22-.18,8.92.21-8.08c.05,4.62.1,9.23.15,13.85.06-1.33.1-2.66.12-3.99.09,1.61.06,3.22.06,4.83.04-3.78.09-7.56.15-11.34.35,3.23.13,6.48.15,9.72.02-3.23.04-6.46.06-9.68.07.25.1.5.09.76,0-.27,0-.53.03-.79l.03,7.69c.02-.54.07-1.07.09-1.61.02.49.07.97.09,1.46l.15-13.9c.21,6.12.09,12.24.12,18.36.01-.96.03-1.93.06-2.89l.06,9.44c.13-9.18.32-18.35.48-27.53.1,6.29.2,12.58.3,18.87l.18-12.49c.11,5.15.14,10.29.18,15.44.13-3.7.09-7.41.12-11.11.1,1.33.12,2.66.15,3.99l-.03-3.91.09,2.43.12-13.3c.36,5.46.14,10.93.21,16.4l.06-4.53c.08,2,.12,4,.18,6,.19-4.53.05-9.06.06-13.59.02.66.06,1.31.09,1.96,0-.26.02-.52.03-.78.06,7.1.12,14.21.18,21.31.05-5.72.1-11.44.15-17.16l.12,6.24c.05-4.52-.05-9.05.18-13.56.06,3.34.06,6.68.21,10.01l.12-9.92.09,6.24.06-2.33c.38,4.81.13,9.65.15,14.47.04-5.53.08-11.05.15-16.58.52,7.31.14,14.64.18,21.95.05-8.69-.32-17.38.18-26.06.1,5.78.2,11.56.29,17.34.2-1.93.14-3.88.15-5.82.28,6.53.11,13.07.15,19.6.05-5.88.08-11.76.12-17.64.18,3.1.08,6.2.09,9.3.03-5.3.07-10.61.12-15.91.22,7.93.09,15.86.12,23.79.03-7.68.06-15.35.18-23.03.13,6.65.12,13.31.18,19.97.03-5.31.07-10.62.2-15.93,0,.57.02,1.13.03,1.7.02-3.47.05-6.93.09-10.4.08,1.62.14,3.24.17,4.86,0-1.41,0-2.81.06-4.22l.15,12.77c0-1.68-.01-3.36.09-5.04l.12,12.6c.09-6.22.16-12.44.23-18.65l.12,7.13.12-6.51.06,6.89c.01-2.11.01-4.22.06-6.34.13,6.38.13,12.76.17,19.13l.06-6.25c0,.54.02,1.09.03,1.63.05-4.4.1-8.79.14-13.19-.29,2.86-.33,5.78.14,8.62.47-.18.31,6.73.09,7.96.03-3,.06-6.01.09-9.01.05,1.21.07,2.41.09,3.62.67-5.52.18-11.09.23-16.63.05,6.84.1,13.67.14,20.51.05-5,.1-10,.14-14.99.18,2.39.12,4.8.14,7.2.02-4.16.05-8.31.09-12.47.24,7.99.29,15.99.37,23.99.18-8.89.14-17.78.2-26.68l.03,2.97c.03-1.45.06-2.9.09-4.35.04,5.08.08,10.16.11,15.24.06-4.56.11-9.11.14-13.67.19,2.42.13,4.84.14,7.26.05-1.64.09-3.28.11-4.93l.03,3.93c0-.34.02-.68.03-1.02l.14,4.46.06-2.53.03,3.99.17-7c.13,4.96.16,9.92.23,14.88.08-2.99.07-5.99.08-8.98.05,2.25.1,4.51.17,6.76l.17-10.34.17,8.9.17-9.24c.21,1.84.13,3.69.14,5.54.14-2.69.07-5.39.08-8.09.12,5.79.13,11.58.17,17.36l.06-13.66.06,2.7c0-.32.02-.65.03-.97l.03,13.83c.02-5.64.05-11.28.08-16.92.32,8.05.16,16.12.2,24.17.27-7.06.12-14.13.17-21.19-.08.73.09-.97.08-.95,0,.67.03,1.33.03,2,.13-2.54.13-5.09.17-7.64.18,6.28.15,12.57.2,18.86.04-5.24.09-10.48.14-15.72.15,2.62.11,5.25.14,7.88.01-.32.02-.63.03-.95.07,1.33.05,2.67.06,4.01.02-3.46.05-6.91.08-10.37.26,2.19.17,4.39.19,6.59l.03-2.31c.1,1.24.11,2.49.11,3.74.14-1.86.1-3.72.11-5.59.05,3.58.07,7.17.08,10.75l.08-3.52c.02.26.04.53.06.79l.08-6.21.11,14.3c.15-4.09.17-8.18.22-12.27,0,.41-.26,2,.08,1.33.01,2.03.04,4.06.08,6.09l.06-7.18c.06,2.59.09,5.18.11,7.77.02-.71.01-3.78.11-2.58l.08-8.25c.35,3.31.13,6.65.14,9.97.05-3.92.09-7.84.14-11.76.07,5.36.13,10.73.19,16.09.05-6.69.11-13.38.16-20.06.08,7.13.14,14.26.16,21.39.05-7.4.14-14.8.22-22.2.03,3.32.12,6.65.22,9.97l.19-9.04c.2,7.84.27,15.69.35,23.53l.03-5.08.03,2.3c.02-5.6.05-11.2.08-16.79.08,3.23.1,6.46.11,9.69.04-2.95.09-5.9.16-8.85l.03,5.09c.03-4.64.05-9.28.14-13.92.14,4.41.12,8.82.16,13.23.11-1.79.12-3.59.16-5.39.33,5.62.12,11.26.16,16.89.04-3.61.09-7.21.14-10.82l.05,4.84c.06-4.36.11-8.72.16-13.08.12,3.32.11,6.64.16,9.96,0-2.64,0-5.28.05-7.92.03,1.86.06,3.72.08,5.57.02-3.85.08-7.7.13-11.55.12,4.68.11,9.36.16,14.03.07-3.33.06-6.66.08-9.99.07,1.17.12,2.33.16,3.5.03-1.15.06-2.29.08-3.44.02,2.31.04,4.61.05,6.92.06-1.66.1-3.32.13-4.97.06,5.29.06,10.58.08,15.87.11-3.61.14-7.22.19-10.83l.03,4.1c.06-3.16.1-6.31.13-9.47.25,4.33.1,8.66.11,13,.03-3.24.05-6.48.13-9.71.16,6.45.1,12.9.13,19.35.03-6.83.1-13.66.16-20.49l.03,7.62c.03-1.56.03-3.11.11-4.67l.08,10.56.05-6.71c.22,1.06.1-1.28.11-1.71l.03,7.05c.05-3.75.11-7.51.13-11.26.09,1.85.15,3.7.21,5.55,0-.55.02-1.09.03-1.64l.03,2.64c.02-.4.03-.8.05-1.2.09,2.76.05,5.52.05,8.27.02-4.34.04-8.68.13-13.02.04,3.43.04,6.86.05,10.3.06-2.29.11-5.17.13-7.1.33-3.42.12-8.31.16-12.26.13,8.68.2,17.37.26,26.05l.11-13.06c.06,1.62.05,3.24.05,4.85l.03-7.63c.01.92.06,1.85.13,2.77.04-3.07.09-6.13.13-9.2.08,5.94.16,11.87.24,17.81.02-2.19-.03-4.38.13-6.57l.08,12.34c.05-6.92.11-13.84.13-20.75.11,3.84.14,7.69.16,11.53.04-2.98.07-5.97.13-8.95.02,2.11.04,4.21.05,6.32l.03-6.38.05,3.1c.01-.31.02-.62.03-.93.22,3.98.07,7.97.08,11.96.04-3.9.07-7.8.1-11.7-.17,1.29-.17,2.29.1,3.2.03,2.94.04,5.88.05,8.82.01-3.78-.1-7.56.08-11.33.13,2.89.1,5.78.13,8.67l-.05-8.83.08,5.1.13-10.73.03,3.82c.01-2.49-.09-4.99.1-7.47.07,5.26.11,10.52.16,15.78.03-2.94.08-5.88.13-8.82.1,2.12.11,4.25.16,6.37l.03-4.93c.11,3.19.11,6.38.13,9.57.04-5.54.13-11.09.23-16.63l.15,7.24c.01-1,.02-2,.05-3l.05,8.11c.03-5.59.07-11.18.1-16.77.25,8.45.21,16.9.28,25.35.2-5.84.22-11.69.26-17.53.35,6.57.14,13.14.18,19.71.01-5.24,0-10.47.15-15.7l.1,10.78c.11-5.86.14-11.72.2-17.59l.15,10.13c.1-1.5.1-3,.1-4.5.07,2.17.09,4.34.1,6.51.03-4.82.06-9.64.13-14.45.08,9.77.21,19.54.31,29.3l-.13-18.93.18,11.62c.03-4.03.07-8.06.1-12.09.19,2.61.09,5.22.1,7.84.02-3.55.08-7.1.15-10.65l.08,5.01c.02-2.65.05-5.31.1-7.96.01,1.23.04,2.46.08,3.69.03-.67.07-1.32.08-1.98.1,3.62.08,7.25.1,10.87.04-2.02.06-4.04.08-6.06.09,2.52.08,5.04.1,7.56.01-1.86,0-3.73.08-5.59.03.68.04,1.35.05,2.03.04-2.72.1-5.44.15-8.17.02,2.95.03,5.9.05,8.86l.08-2.16.1,4.15.13-12.29.15,11.94.03-3.79c.43,7.57.23,15.16.28,22.74-.08-10.44-.07-20.87.3-31.3l.08,5.65.08-11.18c.63,9.18.12,18.39.15,27.59.03-6.84.07-13.68.18-20.51l.02,2.22c.06-2.55.12-5.11.17-7.66.25,5.45.11,10.92.15,16.37.07-3.62.15-7.24.2-10.87.1,7.9.13,15.81.15,23.71.07-6.63.13-13.27.2-19.9.53,4.33.23,9.41.25,14.26.03-4.3.06-8.61.1-12.91.12,1.53.13,3.07.17,4.61.07-5.38.15-10.77.22-16.15.08,4.25.12,8.51.15,12.76.08-4.38.12-8.76.17-13.13.1,1.75.08,3.5.1,5.26,0-.52.02-1.05.02-1.57l.15,14.28.02-7.8.1,3.55.02-2.09c.15,2.87.08,5.74.1,8.61.02-4.52.01-9.04.15-13.55l.07,9.31.05-5.13.02,2.72c.15-1.88.08-3.77.07-5.66.15,4.33.1,8.66.12,13l.05-10.89c0,.61.02,1.23.02,1.84l.05-2.03c.09,3.55.09,7.1.12,10.65,0-2.65.01-5.29.12-7.93l-.02,3.1c.01-.66.03-1.33.05-1.99,0,.55.02,1.09.02,1.64.03-3.64.06-7.27.1-10.91.01.59.04,1.18.05,1.76,0-.63.02-1.27.02-1.9l.02,3.36c.02-.47.03-.93.05-1.4l.24,18.26.02-4.9c.24-2.65.24-6.65.17-9.76.01.6.04,1.2.05,1.81l.05-2.32c.1,1.78.06,3.57.07,5.35.2-1.93.17-3.87.22-5.81l.07,2.53.07-5.3c.04,7.69.11,15.38.15,23.07.02-7.97.08-15.95.17-23.92.08,4.82.16,9.64.24,14.46.06-4.71.11-9.43.24-14.14l.02,5.37c.03-2.71.07-5.42.1-8.14.11,3.48.08,6.96.1,10.44.04-2.63.07-5.25.1-7.88.03.31.06.63.1.94,0-.48.03-.96.02-1.44.3,1.08.3,2.08.07,3.36l.02,2.47.05-3.97c.01.45.32,1.31.05.57.09,5.53-.32,11.09.29,16.61.05-4.65.1-9.3.14-13.95,0,.49.02.98.02,1.47.01-.56.04-1.12.05-1.67,0,.31.02.63.02.94,0-.41.02-.82.02-1.22l.1,8.19c.01-2.32.03-4.64.1-6.95.02,2.56.05,5.11.1,7.67.14-3.86.1-7.73.14-11.59.03,1.66.04,3.32.05,4.97.04-1.52.08-3.03.1-4.55.05,1.99.04,3.99.05,5.98.04-3.19.09-6.38.14-9.57-.21,11.22-.21,22.44.17,33.66,0-1.3,0-2.61,0-3.91,0,1.3-.01,2.61,0,3.91-.36-9.94-.34-19.87.21-29.8l.12,6.5c.04-2.58.04-5.16.19-7.74l.05,5.67c0-.28.02-.57.02-.85l.05,18.78c.04-8.51-.26-17.04.36-25.54l.07,7.42.09-5.12c.11,2.06.08,4.13.09,6.19l.02-5.43c.08,4.46.16,8.92.24,13.38.05-5.45.09-10.91.14-16.36.05,3.63.09,7.26.14,10.89.09-2.14.09-4.27.12-6.41.16,3.62.09,7.24.12,10.86.03-1.34.05-2.68.07-4.02l.02,3.78c0-.63.02-1.25.02-1.88l.05,5.77c.02-6.61.05-13.21.07-19.82.25,2.57.12,5.15.14,7.72.2-2.57.13-5.15.16-7.72l.02,4.27c.05-1.16.09-2.31.12-3.47l.12,9.47c.02-.29.03-.58.05-.88l.09,14.02c.04-8.17.08-16.34.12-24.52l.02,2.16c.01-.28.03-.56.05-.84l.09,4.29.07-9.53c.57,6.18.11,12.39.12,18.59.04-2.84.07-5.68.14-8.52l.12,5.84c.01-.29.02-.58.02-.86.24,4.63.12,9.27.16,13.91.02-4.56.07-9.12.12-13.68,0,2.33-.02,4.67.05,7l.19-16.55c.4,12.04.39,24.08.39,36.12.02-1.44.05-2.89.06-4.33-.04,1.44-.06,2.89-.06,4.33,0-10.3-.03-20.61.28-30.91.04,2.13.06,4.26.07,6.4l.05-9.12.12,4.67-.05-5.3c.06,4.18.11,8.37.16,12.55l.02-3.9.14,9.21-.07-10.09.09,7.05.05-6.6c.04,1.81.08,3.62.12,5.43.04-6.13-.71-12.32.23-18.41.03,2.74.06,5.74.11,8.07.07-1.95.08-3.9.09-5.84.09.28.35.71.11.27.05,6.81.11,13.63.16,20.44.07-5.67.14-11.34.21-17.01.05,5.08.11,10.17.16,15.25.04-5.51.07-11.02.09-16.53.08,4.82.13,9.64.18,14.46.18-3.91.1-7.82.14-11.73.02,1.99.06,3.99.11,5.98.06-3.01.05-6.03.07-9.04.05,4.2.09,8.4.11,12.6.06-4.07.08-8.13.09-12.2.19,6.36.12,12.73.14,19.1.04-4.04.09-8.09.16-12.13,0,.72.03,1.44.09,2.16l.14-10.7.09,7.7c.1-1.88.08-3.77.09-5.65.16,1.85.09,3.71.09,5.56.04-2.69.06-5.39.07-8.08.16,4.86.12,9.73.14,14.6.04-2.69.08-5.38.18-8.08.04,4.3.1,8.59.11,12.89.04-5.98.08-11.96.11-17.94.09,4.02.13,8.04.18,12.07.03-3.47.08-6.94.14-10.41.01.6-.32,1.84.07.54.06,3.66.07,7.31.09,10.97l.04-8.05.02,2.65c0-.66.02-1.32.02-1.98.02,2.65.04,5.3.07,7.95l.04-6.76c0,.45.01.9.02,1.34.02-2.52.04-5.04.07-7.57.07,6.24.17,12.48.27,18.72.04-7.52.1-15.04.16-22.56.03,3.15.07,6.3.11,9.44.05-3.08.11-6.16.16-9.24l.07,5.14c.01-1.15.02-2.29.07-3.44.07,5.6.08,11.2.09,16.8.02-5.21-.07-10.43.11-15.64.05,3.06.06,6.11.09,9.17.05-2.87.09-5.74.13-8.61.09,5.2.1,10.4.13,15.6l.07-8.83c1.53-1.84-.47-3.84.16-6.31l.02,3.77.09-2.8c.05,3.81.1,7.61.16,11.42.03-3.41.07-6.81.11-10.22.17,5.54.11,11.08.16,16.62.47-7.61.12-15.24.15-22.86.09,4.54.11,9.09.15,13.63.07-2.26.04-4.53.04-6.79l.02,6.29c.02-.25.04-.5.07-.75l.02,2.51c.04-6.49.09-12.98.13-19.47.04,4.43.09,8.86.13,13.29.02-2.07.08-4.13.13-6.2.09,1.81.06,3.61.07,5.42l.07-3.74c.22,4.67.13,9.35.18,14.02l.02-4.6.07,2.63-.02-2.89.04,2.36.11-12.08c.09,6.97.15,13.95.18,20.92.03-6.76.08-13.51.15-20.27.08,3.95.13,7.9.2,11.85l-.11-9.74c.06,4.28.11,8.55.2,12.83,0-1.06.02-2.13.07-3.19l.07,3.97.13-13.96c.04,2.54,0,5.08.2,7.61l.07-3.73.02,6.67c.3-4.7.16-9.42.2-14.12.04,2.05.06,4.11.09,6.16,0-.24.01-.48.02-.72l.09,8.22c.03-2,.07-4.01.11-6.01.02,2.46.07,4.92.11,7.38.09-6.38.16-12.76.24-19.13l.09,2.43c.01-.65.04-1.3.04-1.95.13,6.18.17,12.37.24,18.56.01-2.8.03-5.59.04-8.39.08,6.18.11,12.36.13,18.54.03-5.83.07-11.66.09-17.49.03,1.04.06,2.08.11,3.13l.15-9.76.02,2.96.06-5.37.02,4.37c0-.36.01-.71.02-1.07.07,4.08.09,8.17.13,12.25.04-3.73.08-7.46.13-11.19.04,4.72.06,9.44.09,14.16.03-5.7.07-11.39.13-17.09.02,4.53.06,9.06.11,13.59l.04-5.9c.05,1.76.09,3.53.11,5.29.01-.51-.02-3.03.09-2.03l.06-4.44c.03,1.05.07,2.09.13,3.14l.04-11.55c.35,5.06.16,10.13.21,15.2l.06-3.18c.03.06.04.12.02.19.01-.57.03-1.14.04-1.7.08,5.04.09,10.08.13,15.12.05-7.04.15-14.07.26-21.1,1.07,5.86.24,11.86.28,17.77.07-6.21.1-12.41.15-18.62.09,3.47.1,6.94.13,10.41,0-2.21-.09-4.43.08-6.63.12,4,.12,8,.17,12l.08-13.52.06,5.01.06-5.16c.14,4.11.08,8.22.11,12.33.01-3.19-.05-6.38.06-9.57.24,5.03.08,10.06.11,15.09.03-5.5.06-11.01.08-16.51.06,5.55.07,11.09.08,16.64l.06-15.46c.06,1.39.04-1.32.04-1.74.09,4.26.05,8.52.06,12.78.03-4.15.05-8.3.11-12.45.02,2.5.04,4.99.06,7.49.04-2.54.07-5.07.08-7.61.15,6.11.11,12.21.13,18.32.03-6.24.06-12.48.08-18.72.09,5.01.14,10.01.19,15.02.01-4.15.03-8.31.04-12.46.36,5.02.16,10.05.21,15.07.05-5.97.1-11.93.15-17.9.11,5.86.09,11.73.1,17.59.12-5.03.27-8.9.31-14.34l.19,7.8.1-9.42c.02,3.78.06,7.57.12,11.35l.02-5.01c.11-3.08.11-5.08.21-8.15.1,2.12.08,4.24.1,6.36.01-3.98.05-7.96.1-11.95.05,2.2.06,4.4.08,6.59.02-.62.07-1.23.08-1.85.4,5.75.14,11.52.19,17.28.03-5.65.07-11.3.1-16.95.04,2.76.07,5.52.08,8.29l.04-5.57.04,2.83.08-12.61c.18,5.78.11,11.57.12,17.35.02-3.82-.09-7.64.08-11.45.03,4.84.05,9.68.08,14.52.02-4.74.05-9.49.1-14.23.06,2.39.07,4.77.08,7.16l.04-5.27.02,3.93.02-9.47c.24,6.34.21,12.68.29,19.03l.14-10.7c-.03,4.53-.07,9.06-.1,13.59l.18-10.18.08,2.62c.08-1.12.07-2.25.06-3.37l.04,7.39.02-2.5.04,9.24c.02-6.18.05-12.36.1-18.53.02,3.01.06,6.02.12,9.03.02-2.86.04-5.72.06-8.57.25,3.98.1,7.97.12,11.96.02-5.6.07-11.2.12-16.8.14,2.95.14,6.95.18,10l.02,8.56c.03-1.51.04-3.03.1-4.54l.02,2.68.02-7.48.04,2.99.06-3.09.12,19.21.14-15.32c0,.59.02,1.19.02,1.78.04-3.02.04-6.04.06-9.05.12,3.16.09,6.32.1,9.48l.08-5.06.06,6.87c.03-2.64.05-5.28.08-7.91.01,3.03.03,6.05.04,9.08l.02-2.8.02,7.31.06-4.33c.11,3.91.05,7.82.06,11.72.03-7.03.07-14.05.12-21.08.15,2.3.07,4.61.08,6.91.04-3.46.05-6.91.06-10.37.08,4.57.13,9.14.16,13.72.02-5.95.05-11.91.1-17.86.05,4.26.1,8.52.16,12.78.05-4.65.07-9.3.1-13.95.1,4.8.1,9.6.12,14.4.03-3.06.06-6.11.1-9.17l.02,2.82c0-.26.01-.52.02-.77l.02,2.15.04-4.66c0,.35.01.71.02,1.06l.12-8.06c.03,4.89.07,9.79.1,14.68.08-2.43.12-4.87.14-7.3.03,4.54.11,9.09.16,13.63.04-6.3.08-12.6.12-18.9.04,6.82.07,13.64.08,20.45.03-2.59.04-5.18.1-7.78.01,1.37.02,2.73.04,4.1.08-9.08.08-18.16.12-27.23.18,9.16.18,18.33.3,27.49l.02-6.83c.39-2.38.39-3.38.06-5.66.03,4.08.06,8.16.1,12.24l.1-10.91c.06,5.3.01,10.59.2,15.89l.14-18.97c.04,3.16.08,6.31.12,9.47l.06-5.75c.03,3.45.06,6.91.08,10.36l.02-6,.06,5.33c.04-3.46.08-6.91.12-10.37.03,2.28.05,4.57.06,6.85.01-3.7.03-7.4.04-11.11-.16.27.03-1.59.04-2.32.06,8.06.07,16.12.1,24.18.02-4.23-.03-8.46.08-12.69.13,3.08.08,6.16.1,9.23.07-6.35.09-12.7.12-19.05.07,7.59.09,15.18.12,22.76l.08-5.15.06,5.56c0-2.72-.02-5.45.04-8.17.07,5.41.08,11.3.1,17.1.02-9.11.05-18.22.1-27.34l.06,7.2c.07-1.83.07-3.67.1-5.5.02,5.95.06,11.91.1,17.86.04-8.27.15-16.54.28-24.82.19,6.94.15,13.89.2,20.84.04-5.09.08-10.17.12-15.26.08,6.62.04,13.25.06,19.87.11-9.14.11-18.28.27-27.41.06,3.22.07,6.43.1,9.65.01-1.19.02-2.38.06-3.58l.04,4.88c.06-2.78.1-5.56.12-8.34l.04,5.24c.06-2.96.08-5.91.12-8.87l-.04,8.19.12-4.68c-.42,9.9-.42,19.83.06,29.73.03-9.77.11-19.53.14-29.3.05,3.24.09,6.48.12,9.72l.04-5.68c0,.3.01.6.02.9,0-.27.01-.54.02-.8l.04,2.91c0-.56.02-1.12.02-1.69l.02,3.95.06-5.42c.07,5.81.07,11.62.1,17.43.02-5.06.02-10.11.1-15.17l.04,3.02c0-.46.01-.92.02-1.38l.1,6.01-.06-7.11.1,4.5.06-10.03.06,5.39c0-.29.01-.58.02-.87.01,2.19.02,4.38.04,6.57l.02-10.4.02,2.54.06-4.33c.12,7.81.15,15.63.19,23.44,0-1.36.01-6.39.14-6.37.04-6.04.05-12.09.15-18.13l.04,8.32.02-6.45c.3,4.74.09,9.48.1,14.22l.1-4.21.04,11.93c.08-5.55.1-11.1.12-16.65.05,3.98.09,7.95.12,11.93l.06-6.16.02,2.45c.03-3.67.06-7.35.1-11.02,0,4.97-.01,9.93-.02,14.9.03-4.52.05-9.05.08-13.57l.06,6.11c.02-2.04.03-4.08.06-6.12l.04,4.77.02-2.7.06,6.46c0-.48.01-.95.02-1.43.01,6.01.03,12.01.04,18.02.05-7.77.09-15.54.11-23.32.11,2.94.21,5.87.29,8.81l.11-7.02.02,3.61.06-3.98c0,.34.01.68.02,1.02.01-.28.02-.57.04-.85,0,.88.01,1.76.04,2.64l.11-4.29.08,5.99c.01-2.94.02-5.89.04-8.83.05,2.49.09,4.98.11,7.48.02-3.77.04-6.32.06-10.27.07,6.34.1,12.68.13,19.01.03-4.98.07-9.96.11-14.95.03,2.9.06,5.8.08,8.7l.04-6.5c0,.69.03,1.38.06,2.07.14-3.16.08-6.31.11-9.47l-.06,10.3.11-7.59.02,8.47c.03-.46.06-.91.09-1.37.26,6.19.13,12.39.19,18.58.08-8.21-.14-17.27.26-24.98.36,9.26.17,18.52.19,27.78.02-6.37.02-12.73.09-19.1.13,2.29.05,4.59.06,6.88.03-4.47.03-8.93.11-13.4.72,9.8.2,19.62.26,29.43-.08-11.2-.08-22.4.13-33.6.02,1.54.04,3.08.05,4.62-.03-1.54-.05-3.08-.05-4.62-.21,11.18-.21,22.38.21,33.55,0-1.49.02-2.97.02-4.46-.01,0-.01,0,0,.03-.01,1.48-.02,2.95-.02,4.43-.42-10.53,1.59-21.09.19-31.59l.06,7.44.02-8.98c0,.61.01,1.22.02,1.83.3,4.1.3,9.1.15,13.31.14-4.45.1-8.9.13-13.35.08,4.59.09,9.17.11,13.76.03-3.05.05-6.11.11-9.16l.04,2.53c0-.77.04-1.54.11-2.3l.04,6.89.02-9.63c.04,3.11.08,6.22.09,9.33.03-3.98.06-7.96.09-11.94.01,3.19.02,6.38.04,9.56,0-.41.01-.83.02-1.24.02,4.74.04,9.48.06,14.22.02-3.84-.09-7.68.13-11.51l.02,2.74.07-10.28c.15,1.62.09,3.26.09,4.88.02-1.04.04-2.08.09-3.12l.06,4.85c.01-2.1,0-4.19.06-6.29,0,.64.02,1.29.02,1.93,0-.52.01-1.04.02-1.56.02,3.19.04,6.38.06,9.56.03-3.5.05-7.01.09-10.51.01,1.97,0,3.93.06,5.9.05-2.07.03-4.14.04-6.21.04,4.53.07,9.07.09,13.6.02-4.2.02-8.39.07-12.59.03,1.96.06,3.91.07,5.87l.06-3.42c0,.31.01.63.02.94,0-.47.03-.95.04-1.42.02,1.47.03,2.93.04,4.4l.06-6.24c.19,3.58.17,7.16.24,10.74.02-3.14.07-6.27.13-9.41.08,4.42.1,8.84.11,13.27l.04-12.1c.01.33.02.66.04.99,0-.64.02-1.28.02-1.92.07,2.65.03,5.3.04,7.94l.06-8.01c0,1.59,0,3.18.06,4.78.03-3.26.06-6.52.09-9.77.35.76.05-.3.06-.83l.02,6.4.04-3.07.11,14.13c.02-3.9.07-7.81.11-11.71.02,2.85.05,5.69.07,8.54.03-2.85.07-5.7.11-8.56l.02,7.98c.04-5.98.09-11.96.15-17.93.09,6.18.08,12.36.11,18.55.02-3.22.06-6.44.11-9.65.03,6.31.1,12.62.16,18.93.36-7.27.19-14.55.27-21.82.04,5.11.09,10.22.13,15.33l.04-10.96c0,1.7.03,3.39.09,5.09l.05-6.64.18,18.81c.06-7.07.1-14.14.15-21.21.1,7.41.08,14.81.09,22.22.03-8.33.07-16.66.13-24.99.12,2.91.11,5.82.14,8.73.06-1.97.11-3.95.13-5.92.1,2.53.13,5.06.16,7.6l-.02-5.76c0,.12.02.25.04.37,0-.52.01-1.04.02-1.56.03,2.61.06,5.23.11,7.84.2-2.63.09-5.27.11-7.9.12,2.21.05,4.41.05,6.62.09-3.43.11-6.85.13-10.28.11,5.29.08,10.59.09,15.88l.09-10.15c.32.52.04-1.1.04-1.65.04,8.77.06,17.54.09,26.31.02-9.54.03-19.09.11-28.63.04,8.43.05,16.86.07,25.29.03-7.25-.02-14.5.16-21.75l-.02,5.11.04-3.48.07,6.25c.05-3.77.06-7.55.07-11.32.03,1.81.06,3.61.11,5.42l.09-6.27c.14,3.98.06,7.96.07,11.94.02-.32.05-.64.07-.96l.05,4.87c.03-4.18.06-8.36.09-12.54.06,3.37.15,6.75.2,10.12l.14-7.98c.01,2.33.02,4.65.04,6.98.2-1.05.15-2.13.12-3.19.07,2.95.13,5.91.18,8.87.02-2.62.03-5.25.04-7.87l.07,5.76c.04-4.89.07-9.78.11-14.67.05,5.85.13,11.25.18,17.31.21-4.48.08-8.96.11-13.44.43,5.64.1,11.3.12,16.95.66-7.1.12-14.22.14-21.33.03,3.79.1,7.58.12,11.37l.05-4.3c.01.39.02.77.04,1.16l.07-3.36c.19,3.77.12,7.56.16,11.33l.02-4.28.02,2.39.04-4.88c0,.66.03,1.32.04,1.98.05-3.77.09-7.53.14-11.3.06,5.06.12,10.12.18,15.17.05-1.55.03-3.09.04-4.64l.04,4.5.07-3.33c0,.3.01.6.02.9,0-1.53,0-3.06.04-4.6.01.57.04,1.13.05,1.7,0-.48.02-.96.02-1.45,0,.64.01,1.28.02,1.92.03-1.88.06-3.77.09-5.65.03,5.6.06,11.2.09,16.8.01-3.66.02-7.33.04-10.99l.02,3.2c.02-3.04.04-6.09.05-9.13.17,4.33.18,8.66.25,12.99l-.11-13.1.12,11.94c.05-6.37.11-12.74.16-19.11l.12,14.98.03-4.17c.09,1.75.07,3.51.07,5.26.02-2.86.05-5.73.07-8.59.1,5.26.2,10.53.3,15.79-.08-5.77-.16-11.54-.24-17.3l.26,14.31.02-4.16.07,8.84.1-15.7c.07,3.69.06,7.38.07,11.08l.03-8.91c.01.42.42,2.05.1.95.06,2.46.07,4.92.09,7.38.02-3.32.01-6.64.09-9.96.23,3.74.13,7.5.17,11.24.01-5.03.04-10.06.07-15.09.06,9.24.09,18.47.1,27.71.07-10.22.06-20.45.14-30.67-.07.73-.07,2.73.07,3.27.02,4.65.08,9.31.12,13.96.06-5.83.1-11.66.16-17.49l.07,4.74c0-.24.01-.47.02-.71.28,6.43.09,12.86.1,19.29.02-6.78-.16-13.56.07-20.34.35,7.03.07,14.07.09,21.1.17-7.92.17-15.85.22-23.78.03,4.65.06,9.3.09,13.95.2-3.39.08-6.78.1-10.17.01,4.59,0,9.17.07,13.76l.05-2.76c.01.4.02.79.03,1.19l.1-13.34c.03,6.67.06,13.34.09,20.01,0-4.25-.08-8.49.05-12.74,0,.35.01.71.02,1.06,0-.24.01-.48.02-.71l.03,11.14.05-12.18.03,2.79c.05-5.2.1-10.4.15-15.6.08,4.19.06,8.38.09,12.57.18-2.57.15-5.14.19-7.71.05,4.51.09,9.01.1,13.52l.07-7.35c.02,2.61.06,5.22.09,7.83.02-6.09-.03-12.19.1-18.28.07,7.17.08,14.33.1,21.5.05-6.03.11-12.05.19-18.08l-.03,9.42.09-7.26c.05,4.15.1,8.3.15,12.45.18-4.24.12-8.49.17-12.73.02,3,.03,5.99.05,8.99.04-3.16.07-6.32.08-9.49l.03,10.99c.01-.26.02-.52.03-.77l.02,2.21c.02-3.68.05-7.37.12-11.05.03,2.77,0,5.54.1,8.3.04-1.74.03-3.47.03-5.21l.08,6,.14-3.82.05,5.47c.22-1.64.14-3.29.14-4.94.04,4.16.09,8.33.1,12.49.02-4.4.05-8.81.07-13.21l.03,3.7c.03-3.26.04-6.51.05-9.77.06,3.45.1,6.89.12,10.34.05-1.33.09-2.67.1-4,0,1.79,0,3.58.05,5.37.06-3.66.13-7.33.15-10.99l.03,5.34c.02-.36.03-.71.05-1.07.07,4.3.06,8.59.07,12.89l.1-2.57.03,2.02.03-3.58.02,2.49.03-8.35c.08,5.04.11,10.08.15,15.11.01-6.46.05-12.92.1-19.38.03.76.06,1.52.08,2.28.04-1.62.05-3.24.07-4.86.02,2.83.03,5.67.03,8.5.02-3.09.04-6.18.07-9.26.27.7.03-1.17.03-1.55l.03,4.36.05-2.56c.02,2.93.04,5.86.07,8.8.09-2.77.09-5.55.1-8.32.04,2.74.07,5.49.08,8.23.03-4.2.05-8.41.07-12.61.08,5.92.1,11.83.12,17.75.02-4.52.04-9.04.07-13.55.07,5.13.1,10.27.13,15.4.01-3.7.02-7.39.03-11.09.06,1.95.06,3.9.08,5.85.01-4.16.04-8.33.07-12.49.06,4.41.12,8.83.17,13.24.03-4.37.08-8.73.12-13.1l.02,3.51c0-.5.03-1,.03-1.5.05,3.88.11,7.77.18,11.65l-.07-8.55.1,7.01.05-10.53.08,4.47.07-3.44.03,9.34.07-8.68.08,13.08-.03-13.58.1,7.21.03-5.15c.05,3.85.11,7.7.17,11.55l.02-5.2.03,2.32.02-5.89c.02.54.05,1.09.07,1.63l.08-6.49c.05,6.99.1,13.99.15,20.98.03-4.06.06-8.12.08-12.18-.18,2.3-.18,3.3.07,5.77l.02,8.87.02-16.27c.47,7.81.09,15.63.1,23.45l.07-25.78c.37,6.82.14,13.64.2,20.46.03-6.84.05-13.68.08-20.52.02,5.03.05,10.06.08,15.09.02-4.87.05-9.74.08-14.6.09,3.07.11,6.15.13,9.22l.02-6.97c-.03-4.43-.03-7.43.15-11.91.08,3.98.09,7.97.11,11.96.16-5.45.15-10.9.2-16.35.16,6.17.07,12.35.1,18.53.04-2.38.06-4.76.07-7.14.06,4.65.13,9.3.18,13.95l-.05-8.45.07,5.31.05-9.77c.04,3.35.07,6.71.08,10.06.03-4.77.06-9.53.11-14.3.03,6.3.06,12.6.08,18.9l.07-5.15c.03.29.05.58.08.87.02-3.72-.03-7.45.08-11.17l.03,4.13c.12-1.81.1-3.63.11-5.44l.02,4.48c.01-.42.02-.84.03-1.26l.15,14.78c.02-4.54.11-9.08.18-13.62,0,3.11.01,6.21.02,9.32l.08-11.98.06,5.58c.32-5.75.15-11.52.19-17.27.12,7.76.07,15.52.08,23.28.05-5.56.1-11.13.15-16.69.02,4.13.04,8.26.05,12.38l.03-7.86.05,4.46.1-9.29c.04,6.28.07,12.55.1,18.83.02-7.41.03-14.83.08-22.24.11,6.08.09,12.15.11,18.23.03-3,.05-5.99.1-8.99-.11,10.51-.12,21.03.08,31.54,0-1.57,0-3.14,0-4.71,0,1.57,0,3.14,0,4.71-.19-12.7-.19-25.4.1-38.1.02,5.47.03,10.94.06,16.41.07-8.98.08-17.96.11-26.94.01,6.78-.03,13.56.1,20.34l-.03-4.23c.01.29.06,3.15.1,1.47l.03,6.59c.02-4.07-.06-8.15.08-12.22l.02,9.75c.03-3.68.07-7.35.1-11.03.02,4.15.05,8.3.1,12.46.03-3.7.05-7.4.06-11.09.03,2.46.06,4.91.1,7.37.03-3.78.05-7.57.08-11.35.09,5.49.12,10.97.16,16.46.01-2.74.02-5.49.06-8.23.09,5.47.12,10.95.18,16.42.03-6.5.05-13,.08-19.51.17,3.34.06,6.68.06,10.01l.08-9.11c.03,4.01.1,8.02.16,12.03l.08-11.02.03,7.33c0-.6.01-1.2.02-1.8.01,4.37.02,8.74.03,13.1.03-4.02.02-8.03.16-12.05l.02,4.48.05-8.89.06,3.36.09-8.44c.06,5.9.09,11.8.13,17.71.03-5.52.04-11.04.06-16.56.07,5.26.13,10.51.14,15.77.04-4.42.07-8.84.13-13.26.02,3.75.04,7.5.05,11.25.05-5.51.11-11.01.19-16.52.06,7.36.07,14.73.09,22.1.04-6.8.11-13.59.22-20.39.26,8.41.11,16.82.16,25.22l.02-16c.09,3.41.12,6.83.16,10.24.1-6.82.1-13.65.14-20.47.02,3.13.04,6.26.06,9.39.01-3.87.02-7.74.09-11.61.04,6.19.06,12.37.09,18.56.02-3.8.06-7.6.09-11.4.03.48.08.96.11,1.44l-.02-2.33c.01.32.02.65.03.97l.06-6.53c.08,6.92.1,13.84.14,20.76.04-2.57.07-5.13.09-7.7.01,2.94,0,5.88.05,8.82.02-3.95.05-7.9.09-11.86.1,3.91.09,7.82.11,11.73,0-6.51.02-13.02.06-19.53.04,4.4.07,8.8.09,13.2.01-5.23-.06-10.46.06-15.68.05,4.33.06,8.67.08,13,.03-3.52.04-7.05.09-10.57l.08,19.78c.02-5.23.03-10.45.05-15.68.03,5.76.06,11.52.14,17.28.01-7.92.05-15.85.09-23.77.04,5.1.13,10.19.22,15.29l.05-3.24-.02,3.33.08-2.05.02,3.7c.02-5.23.03-10.45.09-15.68.01,1.71,0,3.42.06,5.13l.02-3.28.05,8.76.05-7.94c.31,5.19.13,10.38.17,15.57.02-6.36.07-12.72.11-19.08.08,7.79.14,15.58.2,23.37-.03-6.55-.06-13.09-.09-19.64.05,5.01.07,10.02.2,15.03,0-5.05-.1-10.1.08-15.14.09,3.22.03,6.44.03,9.66.04-1.38.09-2.76.11-4.14.07,2.68.1,5.35.14,8.03l.03-11.83c.05,3.88.08,7.76.09,11.64.03-3.2.05-6.4.08-9.59l.03,4.91c1.19,4.77.44,12.7.03,18.28.03-5.79-.02-11.58.11-17.37,0,.42,0,.84.02,1.26.01-.41.02-.82.03-1.24l.02,7.48c.02-3.73.04-7.46.06-11.19.02,2.39.03,4.77.05,7.16.11-3.85.16-7.71.21-11.56.13,6.34.08,12.67.11,19.01l.05-10.49.05,6.14c.03-5.05.06-10.09.09-15.14l.09,19.7c.02-5.17.04-10.35.09-15.52.02,2.45.03,4.91.05,7.36.02-4.36.04-8.73.09-13.09.05,4.03.04,8.05.05,12.08.03-3.01.06-6.02.09-9.03l.02,2.13.08-4.29.08,7.2c.04-4.33.08-8.67.14-13,.04,7.22.08,14.43.12,21.65.26-5.22.16-10.45.23-15.67l.02,8.6.09-8.33c.04,7.56.08,15.12.12,22.68.02-7.83.07-15.67.14-23.5.07,3.51.13,7.02.2,10.54l.02-4.15c.07,2.36.09,4.72.11,7.08.02-5.26.04-10.51.08-15.77.02,5.38.03,10.77.05,16.15l.06-11.18c.14,5.18.05,10.37.06,15.55.03-6.03.05-12.07.09-18.1l.03,5.28c.08-1.55.1,1.41.12,1.89l-.03-4.32c.02.81.05,1.63.09,2.44.04-1.85.05-3.7.08-5.55.06,5.15.09,10.29.12,15.44.02-5.32.04-10.64.08-15.96.08,4.17.06,8.33.07,12.5l.09-5.29c0,.57.01,1.15.01,1.72.01-2.71.01-5.43.04-8.14.08,4.48.09,8.97.12,13.45.04-4.77.08-9.54.12-14.31.03,4.78.1,9.56.16,14.34.08-2.79.07-5.57.09-8.36.04,5.17.06,10.35.09,15.52.02-8.27.05-16.54.09-24.82.18,10.23.18,20.47.13,30.71.04-6.71.09-13.43.15-20.14.01,3.19.03,6.38.04,9.58.05-3.02.1-6.05.13-9.07v5.11c0-.54.02-1.09.03-1.63v2.97c.03-2.2.05-4.39.07-6.59-.39-2.07-.39-3.07.1-5.37l-.03,6.82c.04-2.71.07-5.43.09-8.14l.03,8.11c.04-3.07.07-6.13.09-9.2.74,4.98.19,10.03.22,15.04.29-4.25.13-8.5.16-12.75.02,4.89.08,9.77.13,14.66-.03-5.1-.06-10.19-.09-15.29.03,3.29.07,6.59.1,9.88l.13-12.21c.1,6.99.09,13.99.12,20.98.03-4.6.06-9.2.07-13.8.03,3.09.04,6.18.1,9.27,0-1.69,0-3.39.04-5.08v4.85c.04-2.82.06-5.65.09-8.47.01.28.03.56.04.85.04-1.47.06-2.94.09-4.41,0,1.06.02,2.12.02,3.17.02-.08.03-.17.02-.25l.1,7.21-.04-7.28c.05,1.56.1,3.13.15,4.69.02-4.76.06-9.52.09-14.28.02,7.85.07,15.7.12,23.55.01-4.88-.02-9.75.07-14.63,0,.62,0,3.55.04,2.21.01,4.64.03,9.27.04,13.91.05-6.33.13-12.66.26-18.99l.09,3.94c0-1.58-.06-3.17.09-4.75l.09,22.18c.03-9.49.06-18.98.09-28.47.16,4.93.06,9.86.07,14.78.02-3.36-.01-6.72.09-10.08.08,2.9.04,5.79.04,8.69.16-4.49.11-8.99.13-13.48.04,6.1.07,12.19.1,18.29l.04-9.62c0,.45,0,.91.01,1.36l.07-5.36-.03,9.21.09-8.21c.04,7.97.08,15.94.12,23.91.02-7.61.04-15.22.07-22.83.03,1.33.07,2.67.1,4v-7.73c.06,6.61.09,13.22.1,19.82l.09-13.06.07,10.7-.03-12.83c.05,2.3.11,4.61.19,6.91.02-2.25.05-4.49.09-6.74v7.29c.02-1.25.03-2.51.04-3.76,0-.04.1,1.59.06.98v9.76c.06-2.5.11-4.99.13-7.49.03,3.17.06,6.33.09,9.5v-9.02c.12-3.01.12-7.01.13-10.29,0,4.39-.02,8.78-.03,13.17.03-3.65.07-7.29.1-10.94l.12,11.99c-.02-4.31-.04-8.61-.06-12.92l.07,12.79.12-13.22-.09,14.73.1-12.01.13,9.03.14-14.13.11,13.4c0-.58.02-1.15.03-1.73v3.89c.04-3.31.06-6.61.09-9.92l.1,11.98c0-2.18-.09-4.37.07-6.54.02,2.61.08,5.21.13,7.82-.02-2.85-.04-5.7-.06-8.56-.09,2.46-.09,4.46.1,6.15.04,3.48.05,6.97.07,10.45l.07-18.51c.04,4.98.06,9.97.09,14.95l.04-10.2c.54-3.38,1.54-7.38.14-10.03.4,15.9.4,31.81.09,47.72,0-2.05,0-4.11,0-6.16,0,2.05,0,4.11,0,6.16.31-14.9.32-29.81.09-44.71.02,4.19.03,8.37.04,12.56.02-5.55-.02-11.1.09-16.65.02,6.93.04,13.85.06,20.78.08-5.82.16-11.64.21-17.46,0,.68,0,1.37.02,2.05,0,.3-.06,2.28.03.82v8.9c.04-3.41.06-6.82.09-10.22l.03,4.64.06-5.58c.01,2.52.01,5.05.04,7.57.02-3.06.04-6.13.07-9.19.5,1.42.5,2.42.04,3.48.02,4.58.05,9.17.07,13.75,0-4.48.02-8.95.03-13.43.03.92.04,1.84.04,2.75l.03-8.49.03,2.36.03-3.98c.03,2.23.07,4.46.09,6.69l.06-4.76c0,.4,0,.79.01,1.19,0-.59.01-1.17.01-1.76.1,5.49.15,10.98.21,16.48.06-5.06.05-10.12.07-15.18.03,5.2.07,9.83.08,14.56l.04-9.56.03,3.51v-11.05c.04,6.29.07,12.58.1,18.87l.11-10.15c-.03,4.54-.06,9.08-.08,13.61l.11-11.11c0,.54.01,1.07.01,1.61l.04-4.93.04,2.48.14-12.45c.07,4.86.09,9.73.13,14.59l.04-5.27c.05,4.15.09,8.3.14,12.44.06-4.56.08-9.12.11-13.68.02.29.03.58.04.87.07-2.34.09-4.68.13-7.02l-.07,7.1c.03-2.87,0-5.75.14-8.62l.07,10.98.03-7.2c.03,4.17.06,8.33.08,12.5l.03-5.55c.05.78.08,1.57.07,2.35v-3.92c.02.88.03,1.75.04,2.63l.03-4.61.06,8.5.03-7.79c.02,5.8.05,11.6.07,17.4.04-5.12.08-10.23.11-15.35.03,4.49.06,8.97.08,13.46.12-8.77.18-17.54.25-26.31.04,7.75.06,15.5.08,23.25.08-6.45.13-12.91.18-19.36.06,6.95.06,13.91.07,20.86l.08-13.98c.07,5.47.15,10.94.18,16.41.02-6.16.04-12.33.06-18.49-.12,1.75-.12,3.75.08,5.75v10.17c.08-3.44.12-6.87.15-10.31v7.1c.01-.99.04-1.98.07-2.98l.08,6.99c.17-7.11.17-14.21.24-21.32-.02,2.14.1,5.17.14,8.02l.06-4.38c.04,1.91.07,3.82.11,5.74l-.03-4.72c.02.92.03,1.84.07,2.76l.04-4.27.03,4.28c-.02-.72,0-1.43.07-2.15.03,5.48.06,10.95.1,16.43.08-2.6.06-5.21.07-7.81.03,2.37.06,4.74.07,7.11.02-3.69.02-7.37.07-11.06.03,1.61.06,3.21.07,4.82l.03-5.96.03,2.93.07-7.81.03,8.59c0-1.62.02-3.24.03-4.86v6.99c.02-.72.03-1.45.04-2.17l.04,12.15c.05-8.08.09-16.16.12-24.25.08,4.99.12,9.98.16,14.96.05-3.21.06-6.41.08-9.62l.03,9.6.03-6.09.07,7.26.04-6.45c-.4-.69-.4-2.69.05-3.81l.04,6,.04-5.37.07,6.67v-7.88c0,.24.01.48.03.72l.05-6.03c.08,7.9.12,15.81.16,23.71.09-6.73.11-13.45.16-20.18.02,6.44.05,12.87.07,19.31.02-4.55.04-9.1.05-13.65.02.59.05,1.19.07,1.78l.04-3.53v3.79c.04-2.43.07-4.86.1-7.3l.04,8.74c.03-2.87.07-5.75.08-8.62l.03,7.53c0-.61.02-1.22.03-1.83l.04,12.5c.02-4.2-.05-8.39.08-12.59l.12,10.65c.03-5.92.05-11.84.08-17.75l.04,6.54.09-12.6c.04,5.88.08,11.75.12,17.63l.05-8.87c.03,5.69.05,11.38.07,17.06.02-4.32.04-8.63.05-12.95-.04.54.04-.51.04-.51.07,6.15.05,12.29.07,18.44.06-7.32.09-14.63.12-21.95l.05,5.67.05-6.74.04,7.54v-3.06c.06,5.22.1,10.44.15,15.66.05-6.57.07-13.14.08-19.71l.09,2.45.07-4.06v4.99c.01-.1.02-.2.03-.3l.03,8.24c.03-5.76.07-11.52.12-17.28.01,8.47.04,16.94.07,25.4.05-5.86.1-11.72.15-17.58.02.36.04.71.05,1.07l.07-6.89c.02,5.43.04,10.85.07,16.28l.11-15.82c.18,7.09.13,14.18.17,21.26.01-6.08.04-12.17.07-18.25.04,5.17.06,10.33.07,15.5l.05-9.4c0,.48.03.97.04,1.45l.05-5.52c.01,4.88.03,9.76.04,14.63.04-5.22.09-10.44.16-15.66l-.05,6.7.11-4.03.03,6.43c.03-3.81.06-7.63.08-11.44l.08,4.78c-.03-.65.04,1.14.04,1.33,0-2.7-.06-6.27.05-8.31.03,4.32.05,8.64.05,12.96.1-2.93.12-5.85.15-8.78.05,3.73.05,7.47.05,11.2l.09-6.21.05,4.36c.07-3.09.08-6.19.09-9.28.1,3.95.12,7.91.15,11.86.02-4.09.04-8.18.08-12.27l.05,5.67c0-.29,0-.59.01-.88l.07,13.39c.03-7.21.08-14.41.17-21.62l.09,23c.02-4.85-.04-9.71.07-14.56.02,2.76.06,5.52.09,8.27l.03-7.63.13,8.51-.08-11.18.09,10.31.08-14.12c.07,6.68.09,13.37.12,20.05.02-3.21-.02-6.42.07-9.63,0,.5.01,1.01.01,1.51.03-2.16.02-4.33.03-6.49.03,4.06.05,8.11.08,12.17.09-5.4.16-10.8.17-16.2.02,6.96.04,13.91.07,20.87.04-6.9.07-13.81.11-20.71.31,5.79.2,11.58.24,17.37l.07-6.79c0,.09.01.19.01.29l.09-10.23c.16,3.99.09,7.98.12,11.97.02-5.08.05-10.16.08-15.25.03,4.55.05,9.09.08,13.64l.08-5.04v3.18c.03-2.38.04-4.75.05-7.13l.05,10.03c.07-1.1.06,1.4.07,1.79.02-3.88-.17-7.77.13-11.64l.09,7.58v-4.4c.03,3.23.06,6.46.08,9.69l.03-4.53.05,5.71c.04-4.1.05-8.19.07-12.29.14,1.11.15,2.23.17,3.35l-.04-5.45.05,3.41v-4.89c.04,4.78.07,9.56.09,14.34l.05-9.81c0,.42.02.84.03,1.26,0-.99,0-1.98.03-2.96.02,6.12.03,12.24.05,18.37.05-8.32.11-16.64.17-24.96.05,4.41.06,8.81.08,13.22.92-4.28.18-8.71.19-13.03.04,3.69.06,7.39.08,11.08.04-2.01.08-4.02.09-6.03l.03,7.02.05-5.81.08,10.65c.3-6.36.13-12.74.18-19.1.05,4.62-.37,9.3.27,13.89.02-3.56.03-7.12.08-10.68.03,4,.06,8,.1,12,.02-1.06.04-2.12.06-3.19v8.05c.03-4.05.05-8.11.06-12.16.17,3.95.07,7.91.09,11.86.02-4.05.04-8.11.08-12.16l.03,4.45c.05-.66.11-1.3.12-1.96l.06,4.34.05-13.83c.08,6.35.07,12.69.08,19.04l.09-4.67c.01.56.04,1.12.05,1.68l.08-11.48c.05,6.87.09,13.74.14,20.61-.02-7.34-.04-14.68-.06-22.03.03,4.87.07,9.73.1,14.6.01-4.17.03-8.34.04-12.5.08,5.27.13,10.55.18,15.82.02-3.02.03-6.03.05-9.05l.04,5.53c0-.32,0-.63.01-.95v2.96c.04-3.45.08-6.62.1-9.48l.05,6.87c.11-5.15.1-10.31.14-15.46.02,4.85.07,9.71.09,14.56l.06-7.11c.02,2.53.04,5.07.05,7.61l.04-4.84c.02.08.02.16.01.24l.1-11.91c.07,6.52.07,13.05.08,19.58l.09-8.95c0,6.55.02,13.09.03,19.64.02-8.4-.22-16.8.15-25.19l-.05,5.84.06-5.78c.04,5.9.08,11.81.11,17.71.02-5.75.04-11.5.06-17.24.04,4.85.07,9.7.08,14.54l.06-11.36.04,8.53.03-2.29c.06,2.65.02,5.29.03,7.94l.05-18.49c.03,3.51.05,7.02.08,10.53.02-6.61.04-13.21.06-19.82.06,7.87.08,15.74.1,23.6l.08-6.92c.01.3.02.27.03-.11.03,4.33.06,8.65.09,12.98,0-4.96.02-9.91.05-14.87.02,6.14.03,12.28.05,18.42.08-7.76.13-15.52.18-23.28.04,5.16.06,10.33.08,15.49l.06-14.56c.06,5.63.09,11.27.14,16.9-.03-6.72-.06-13.44-.09-20.15.05,4.69.11,9.38.16,14.07l.03-5.01c.03,4.07.06,8.15.08,12.22l.06-14.04v2.61c.03-1.91.04-3.82.05-5.73l.05,8.49v-2.38c.04,1.09.06,2.18.09,3.27l-.03-4.09.04,3.36.04-6.94.06,8.12v-2.06c.02,2.13.03,4.25.04,6.38l.03-14.81c0,.63.02,1.25.03,1.87v-3.96c.03,3.68.05,7.36.08,11.04.15-5.39.08-10.77.11-16.16.01,5.3.02,10.59.04,15.89l.06-12.02c.03,4.2.04,8.4.06,12.59.02-.64.06-1.27.09-1.91.16,6.26.05,12.52.06,18.79,0-9.46-.11-18.91.04-28.37.03,4.53.05,9.06.06,13.59l.06-11.46c.15,6.43.11,12.87.16,19.3.02-7.85.07-15.69.11-23.54.05,8.37.08,16.73.09,25.1.02-5.98.04-11.95.06-17.93.03,3.18.05,6.36.06,9.54l.09-6.93v2.72c.02-2.95.04-5.91.05-8.86l.04,3.66c.01-.1.02-.19.03-.29,0,.55,0,1.11,0,1.66.02-1.31.03-2.62.05-3.93l.06,5.43.06-9.32c.03,1.23.06,2.46.09,3.69.01-1.56.02-3.12.02-4.68.07,7.99.09,15.97.11,23.96.02-4.88.03-9.76.07-14.63.02,2.01.05,4.02.07,6.03.02-3.5.05-6.99.07-10.49.01,2.89.02,5.79.04,8.68,0-.55,0-1.1.01-1.65l.06,6.91v-7.74c0,1.15.02,2.3.04,3.45v-7.7c.04,4.72.06,9.45.09,14.17,0-4.84-.02-9.69.06-14.53v6.56c.02-.99.03-1.98.04-2.97l.02,7.51c.02-3.35.04-6.69.06-10.04l.02,5.02.05-6.78c.08,6.31.1,12.61.14,18.92.02-5.08.04-10.16.09-15.25.02,4.92.04,9.84.06,14.76.02-4.75.03-9.49.05-14.24,0,.52,0,1.04.01,1.56.03-5.01.07-10.02.1-15.02-.02,5.9-.05,11.79-.07,17.69l.12-9.61c0,6.11.02,12.23.02,18.34.02-7.17.05-14.34.07-21.51.03,6.36.05,12.73.07,19.09l.09-10.2.02,3.04c0-2.61.01-5.23.02-7.84.02,4.35.02,8.69.07,13.04v-8.94c.02.39.02.78.02,1.17l.07-11c.04,5.95.1,11.91.16,17.86l-.04-11.34c.04,3.43.08,6.86.12,10.29.01-3.16.02-6.32.04-9.49.05,1.58.11,3.16.13,4.74.03-1.59.04-3.17.05-4.76.02,4.66.04,9.33.06,13.99l.05-11.51.02,11.16c.05-6.18.11-12.37.16-18.55.01,3.79.05,7.58.11,11.37.07-.98.09-1.96.11-2.94l-.04,3.35c.07-2.15.1-4.3.12-6.45l.06,7.99c.02-6.48.04-12.96.06-19.44.11,8.19.13,16.38.15,24.58.03-6.35.07-12.69.09-19.04.09,8.49.12,16.97.13,25.46l.07-12.19c.43-1.07.43-2.07.04-3.02,0,.26,0,.51.01.77l.05-7.77.07,5.75.05-12.63c.06,7.37.1,14.73.15,22.1,0-5.38,0-10.77.05-16.15.1,7.09.12,14.18.17,21.28.07-6.78.07-13.56.1-20.34.16,6,.05,12,.06,18.01.02-8.13-.11-16.26.07-24.39.03,7.24.06,14.48.08,21.72l.05-9.51c.03,3.58.06,7.15.08,10.73l.02-7.75.02,2.21.06-9.98c.03,6.1.05,12.19.06,18.29l.07-22.34.11,12.71c-.02-4.38-.05-8.75-.07-13.13l.12,5.26v-2.55c.03,2.3.04,4.6.06,6.89.13-3.72-.1-7.43.16-11.15-.02,4.9-.05,9.81-.07,14.71.03-3.82.06-7.64.1-11.46.08,3.87.04,7.74.06,11.61l.06-5.07c.07,2.42.07,4.85.1,7.27l-.06-8c.61,10.86.62,21.75.18,32.62,0-1.35,0-2.71,0-4.06,0,1.35,0,2.71,0,4.06.45-10.11.45-20.24.13-30.35.04,2.08.02,4.15.02,6.23l.06-6.88s.04.23.04.26v-3.38c.06,3.58.11,7.17.13,10.75.02-4.08.03-8.16.05-12.24,0,.67,0,1.33.01,2,0-.48,0-.95.01-1.43.04,3.72.06,7.43.07,11.15.02-5.77-.04-11.53.08-17.3.03,7.77.06,15.54.08,23.3.03-5.15.06-10.31.11-15.46l.02,6.09v-3.41c.02,2.96.04,5.91.05,8.87.02-4.37-.02-8.75.07-13.12.02,3.5.03,7,.05,10.51.05-4.41.09-8.82.13-13.24.03,6.65.05,12.65.06,19.47.02-5.49.05-10.98.07-16.47.03,2.38.06,4.76.08,7.13,0-4.43.03-8.86.12-13.3.13,6.92.11,13.84.15,20.77.07-7.37.13-14.73.21-22.1.03,5.9.06,11.79.09,17.69l.08-14.56c.07,9.94.07,19.88.08,29.82l.09-16.09.04,5.58c0-4.51.04-9.02.12-13.52l-.05,6.45.06-5.57v8.79c.03-3.22.05-6.45.07-9.67l.05,6.36.08-10.03-.06,12.14.12-4.49.11,10.11-.08-10.58.09,2.2.05-3.82c0,3.29,0,6.58.02,9.88.03-4.34.07-8.67.11-13.01.04,7.93.05,15.86.06,23.79.49-10.28.49-20.58.12-30.86l.06,14.48c0-2.01.01-4.03.02-6.04.05,6.73.07,13.46.09,20.19.02-6.45.06-12.9.11-19.35.03,1.73.05,3.47.06,5.2.02-4.5.03-8.99.05-13.49.05,4.36.09,8.71.11,13.07l.06-12.85.04,9.03c0-.36,0-.72.01-1.08.02,4.35.04,8.69.07,13.04l-.02-7.72.08,4.25c.04-5.53.08-11.06.12-16.59l-.08,16.94.12-14.32.13,13.5c.01-4.99.03-9.99.07-14.98.02,5.79.04,11.57.05,17.36l.07-11.72.04,8.83.07-5.56c.03,3.98.04,7.96.05,11.93l.06-20.66c.03,5.07.05,10.15.08,15.22.02-4.8.03-9.61.06-14.41l.06,5.62c.02-1.91.06-3.83.12-5.74l-.03,3.36c.01-.66.03-1.32.05-1.98l.06,13.49c.02-4.68.04-9.36.07-14.04l.03,7.55c.22-3.1.1-6.21.12-9.32l-.06,9.47.09-3.82.02,5.97c.02-5.21.05-10.42.06-15.63l.08,10.03v-7.18c.03,4.27.06,8.55.08,12.82.01-4.21,0-8.42.05-12.63l.05,8.27.1-8.99-.08,9.64.12-2.62.06,5.31c.33-4.14.15-8.29.18-12.44.02,4.39.04,8.78.06,13.17.05-4.05.08-8.09.09-12.14l.06,9.81.03-5.58c.03,3.28.04,6.56.06,9.84.01-4.6.02-9.19.03-13.79.16,3.83.11,7.67.15,11.5.05-3.99.04-7.98.06-11.97.04,5.67.09,11.34.15,17.01.03-7.54.06-15.08.13-22.62l-.05,10.87.08-10.02c.05,9.89.09,19.78.14,29.67.01-7.62.07-15.25.13-22.87.02,5.67.06,11.33.07,17,.02-5.37.03-10.74.05-16.12.03,1.03.06,2.05.1,3.08l.06-11.86c.07,6.31.14,12.62.21,18.94l.07-7.84-.05,8.25.08-6.15v5.31c.03-1.93.05-3.86.07-5.79l.03,2.69c0-.35,0-.71.01-1.06.04,3.72.05,7.44.06,11.17.04-3.2.09-6.41.11-9.61.02,2.03.04,4.05.06,6.08v-6.23c.02,1.73.02,3.46.02,5.19,0-4.49,0-8.99.01-13.48.02,9.35.05,18.69.07,28.04.02-9.28.03-18.56.06-27.84.05,4.41.09,8.81.1,13.22l.06-13.42.03,6.96v-2.75c.02,1.41.02,2.82.02,4.23.01-.48.03-.95.05-1.43,0,3.52,0,7.03.01,10.55.02-6.87.05-13.74.07-20.61.15,7.2.07,14.4.08,21.6l.11-4.65v3.74c.03-7.22.04-14.44.07-21.66.04,4.5.08,9,.12,13.5l.02-7.52c0,.65.02,1.31.02,1.96l.02-2.18.02,3.53c0-.26.02-.52.02-.78l.05,5.31c.01-4.95.02-9.9.03-14.85.02,5.71.05,11.41.07,17.12.04-3.74.08-7.49.12-11.23l-.09,12.48c.04-3.8.05-7.6.12-11.4,0,6.94.02,13.88.02,20.82.02-8.74.04-17.48.06-26.22.02,6.07.05,11.53.12,17.37-.02-4.06-.03-8.12-.05-12.18l.09,8.75.05-8.61c.02,5.37.02,10.73.07,16.1l.02-4.47v4.02c.03-4.26.05-8.52.07-12.79l.06,7.03.16-11.07.09,12.21-.07-12.71.08,12.06c.02-5.46.03-10.91.05-16.37.03,4.72.08,8.69.12,13,.08-3.18.04-6.37.04-9.55.06,8.29.09,16.58.1,24.87l.09-11.09v4.08c.03-2.94.06-5.89.08-8.83l.02,3.63c-.02,3.05-.02,6.05.09,8.71.1-8.99.13-17.99.18-26.98l-.09,24.16c.04-7.08-.05-14.16.12-21.24l.13,15.39.02-5.24c2.52-2.75-1.48-6.75.12-10.27-.02,3.65-.04,7.3-.07,10.94l.09-6.37c.05,5.21.1,10.43.16,15.64.02-5.13.04-10.27.07-15.4l.06,3.1c.01-.4.02-.8.03-1.21.08,7.77.13,15.55.16,23.32.01-7.5.03-15,.06-22.5.03,2.69.05,5.38.08,8.07l.06-16.62c.02,3.34.04,6.69.06,10.03.02-.59.05-1.18.07-1.77.02,5.05,0,10.1.09,15.15.03-6.51.07-13.02.1-19.53.04,6.69.07,13.38.09,20.07,0-5.24-.03-10.47.06-15.71l.02,7.47c.06-4.23.06-8.47.09-12.7.09,3.14.12,6.28.17,9.42l.04-4.11.06,7.34v-4.1c.02,2.17.03,4.34.04,6.51l.06-9.03c.06,6.48.16,12.96.2,19.44l.03-10.84c.09.14.1-2.85.11-3.87l.08,20.98c0-8.92-.09-17.83.07-26.75.07,4.48.05,8.96.07,13.44l.03-13.52c.02,3.82.04,7.63.06,11.45.04-3.47.08-6.95.12-10.42.02,3.01.05,6.01.08,9.02l.03-8.91c.06,1,.03-2.15.03-2.69.01,4.15.02,8.29.03,12.44l.05-13.56c.01,4.37.03,8.75.07,13.12l.02-6.37c-.3-4.46-.3-9.46.14-13.84.05,9.14.1,18.28.14,27.42.02-6.69.08-13.38.16-20.08v2.8c.04-1.84.06-3.69.09-5.53.19,8.15.06,16.3.08,24.45.03-6.46.06-12.93.09-19.39l.08,7.77c.01-4.17.04-8.34.13-12.51l-.05,9.59c.02-2.86.01-5.73.09-8.59l.12,23.92c.08-7.72.11-15.44.15-23.15,0,.36.01.71.02,1.07,0-.4,0-.8.01-1.2.03,6.23.08,12.46.13,18.69.03-6.45.08-12.9.13-19.35,0,3.46.02,6.93.05,10.39v-7.54c0,.65,0,1.29.01,1.94,0-.28,0-.56.01-.84.11,1.54.11,2.54.03,4.35l.03,10.6c.02-5.53-.01-11.06.07-16.59.03,8.52.04,17.03.05,25.55l.07-21.8c0,2.77-.03,5.55.03,8.32v-3.48c.02,2.35.03,4.7.03,7.05.33-.22.11.85.09,1.63.05-3.67.09-7.33.14-11l.08,4.7v-10.29c.06,6.52.13,13.04.19,19.56-.04-6.89-.09-13.78-.13-20.67l.15,16.02c.04-7.02.07-14.04.11-21.06.43,6.61.1,13.23.13,19.84.03-5.24.06-10.48.09-15.72.02,4.2.05,8.39.05,12.59.02-4.02.04-8.05.06-12.07,0,.02.13,1.39.05.62.01,6.1.03,12.2.04,18.3.02-8.42.05-16.59.08-24.66.02,6.42-.06,12.85.06,19.27l.05-14.66c.04,6.81.07,13.62.09,20.43l.05-15.21.02,6.62.06-8c.01,3.53.02,7.06.03,10.59.02-4.34.09-8.68.17-13.02l-.11,14.55.12-13.84.03,12.36c.04-4.96.07-9.93.15-14.89.03,6.48.06,12.97.1,19.45.02-4.31.02-8.61.06-12.92l.02,6.28.06-4.13c.08,3.2.06,6.4.09,9.6.07-6.84.09-13.69.12-20.53.09,6.8.13,13.61.17,20.41-.02-7.35-.04-14.69-.05-22.04l.09,12.15v-2.02c.02,2.78.04,5.56.05,8.34,0-.02.12-1.6.04-.75l.05-15.49c.03,6.21.05,12.42.1,18.63.01-4.18-.18-8.37.12-12.54.04,4.17.05,8.34.05,12.51l.02-10.49.07,3.81.13-10.16.1,6.16-.05-7.94.06,3.04v-3.01c.03,4.77.05,9.53.06,14.3.01-.3.02-.6.03-.9v3.34c0-.55,0-1.1.01-1.65l.07,3.33c.01-5.34.04-10.68.06-16.02l.06,4.77c.02-.64.06-1.29.07-1.93.02,6.52.04,13.04.06,19.56.02-9.81.04-19.61.05-29.42.02,4.03,0,8.06.07,12.09v-5.2c.03,5.37.05,10.75.07,16.12l.02-4.32.04,2.29c.02-7.48.04-14.97.05-22.45.02,8.28.04,16.57.06,24.85.02-4.27.1-8.54.18-12.82-.04,3.53-.08,7.07-.13,10.6.05-2.45.11-4.91.16-7.36.07,4.16.02,8.31.02,12.47.03-8.44.06-16.88.12-25.32.07,7.86.1,15.72.13,23.57l.06-10.75.12,5.84-.05-6.09.06,4.61.03-12.41.07,13.07c0-2.17-.06-4.34.04-6.51,0,.34,0,.69.01,1.03v-4.17c.02,2.36.03,4.72.04,7.08.01-.56.04-1.12.05-1.68l.05,7.45.04-9.78c0,.07.01.14.01.22,0-1.23.02-2.45.03-3.68.01.47,0,2.84.06,1.93l.04,11.13c.02-4.54.01-9.08.09-13.62.01,5.46.02,10.91.03,16.37.02-5.92.04-11.83.06-17.75.13,4.03.06,8.06.06,12.09l.04-12.66.05,6.77c0-.59.02-1.18.02-1.77.03,3.77.04,7.53.05,11.3l.05-11.31c.02,3.75.04,7.5.05,11.25l.06-11.83.02,7.62.02-4.55.02,9.39.05-4.23.05,4.1c.12-6.19.09-12.38.14-18.57-.34,11.85-.34,23.7.08,35.54l.05-25.31c.16,3.86.05,7.73.05,11.6l.06-12.87c.04,1.56.05,3.13.07,4.69,0-4.25.05-8.5.13-12.75-.01,3.08-.03,6.15-.04,9.23l.05-6.63c.01.5.03,1.01.04,1.51l.02-7.78.06,17.74c.01-1.74.04-3.48.06-5.22l.03,9.38.07-17.14c.02,3.82.04,7.65.05,11.47l.07-7.47.02,4,.09-11.32-.05,24.01c.02-7.7.04-15.41.06-23.11.02,7.02.03,14.05.05,21.07.07-8.08.1-16.17.12-24.25.04,6.13.08,12.27.09,18.4.38-2.37.38-3.37.1-5.66.02-1.95.02-3.9.02-5.85.05,9.44.06,18.88.07,28.33.02-7.82.04-15.64.06-23.45l.02,6.9c.03-4.02.06-8.05.08-12.07.07,5.46.06,10.91.07,16.37.02-4.75.05-9.5.07-14.25.18,4.82.1,11.5.13,17.05.01-5.49.03-10.98.07-16.48.03,4.02.06,8.03.08,12.05.02-5.19.03-10.38.05-15.58l.07,9.32c0-2.36.01-4.72.03-7.09.01,3.21.02,6.42.03,9.64.02-4.42.04-8.83.06-13.25l.08,12.57c.02-4.54.05-9.08.07-13.63.07,7.71.11,15.42.16,23.13v-2.76c.01.37.02.74.02,1.11.02-4.47.07-8.93.13-13.4.21,6.09.04,12.17.04,18.26l.09-12.23c.07,2.05.03,4.1.03,6.15l.03-16c.13,1.18.06-1.84.06-2.33-.39,11.5-.39,23.01.05,34.5,0-1.48,0-2.96,0-4.44,0,1.48,0,2.96,0,4.44-.47-10.19-.46-20.43.05-30.62.02,2.21.05,4.42.07,6.63.02-3.1.07-6.03.08-8.6l.04,7.68.03-6.21c.02,6.42.03,12.84.05,19.26.03-8.52.06-17.04.09-25.56.02,6.54.06,13.07.08,19.61l.03-7.83.02,2.32.03-5.9c-.03,2.5-.03,5.5.07,7.85l.02,5.18c.05-6.07.11-12.13.16-18.2l.09,12.82.02-7.34.06,2.04-.02-4.59.03,4.02v-2.78c.08,6.96.11,13.91.13,20.87l.04-13.52c0,.38,0,.76.01,1.14l.12-12.97c.08,5.76.14,11.52.2,17.28.06-5.52.04-11.04.06-16.56.82,6.16.17,12.38.19,18.57l.02-4.71v3.87c.03-4.22.04-8.45.06-12.67l.04,5.24.03-10.2.06,12.72c0-.5,0-1,.01-1.5l.03,4.07c.06-4.92.11-9.85.16-14.77l-.04,12.38c.02-2.86.02-5.71.07-8.57.07,4.69.06,9.39.07,14.08l.04-12.01.04,3.69.06-2.11-.02,3.31c0-.66.02-1.33.03-1.99v6.94c.03-4.93.06-9.87.08-14.8l.02,7.44.02-7.55c.02,4.65.03,9.3.05,13.95-.07,5.89-.07,10.89.13,16.45,0-9.84.03-19.68.05-29.52l.05,12.8.05-7.56.02,8.15.03-10.79c.05,2.94.08,5.88.11,8.82,0-4.01-.03-8.03.04-12.04.28,7.86.06,15.72.08,23.58.36-9.94.37-19.89.17-29.84-.02,7.66-.04,15.33-.06,22.99l.11-13.47c.03,3.59.05,7.19.08,10.78.02-4.21.03-8.42.05-12.63.04,6.11.04,12.23.04,18.34l.08-18.87c0,.25,0,.5.01.74,0-.43,0-.86.01-1.28.02,4.47.04,8.93.05,13.4l.04-12.97.05,5.06.08-5.42-.03,6.62.05-2.85.11,10.43c.06-3.6.03-7.2.04-10.8.56,5.82.13,11.68.15,17.51.01-6.36-.07-12.72.05-19.07.07,4.92.03,9.85.04,14.77l.08-13.83c.06,6.93.12,13.86.18,20.79.17-7.78.08-15.57.12-23.35.11,3.78.09,7.57.13,11.35l-.07-11.95.11,5.54.03-3.37.05,4.65c0-.52,0-1.04,0-1.57l.05,8.63.02-9.24.07,7.21.07-13.07c.4,2.79.4,4.79.15,7.82,0,3.59.02,7.18.04,10.77.02-5.62.04-11.24.06-16.86l.04,11.57c.01-2.69,0-5.39.05-8.08.03,7.51.06,15.01.09,22.52l.04-17.9c-.06-3.06-.06-5.06.03-7.56l.06,11.61.04-9.12c.1,4.31.05,8.63.07,12.94.04-4.22.08-8.43.11-12.65,0,4.09.01,8.18.02,12.27,0-.44,0-.88,0-1.32l.05,12.83c.01-9.36-.05-18.71.07-28.07v3.48c0-.09.02-.19.04-.28l.07,5.69-.03-8.24c.04,3.75.08,7.5.15,11.25l.05-11.36c.07,3.32.04,6.65.06,9.97.07-3.09.07-6.19.08-9.28l.05,13.62.03-10.32.13,11.39.04-8.78c.02,5.2.06,10.4.08,15.6,0-3.83.02-7.66.03-11.5l.05,3.87.08-13.7.04,12.27c.04-3.82.04-7.63.05-11.45l.05,11.95c.01-3.92.01-7.84.05-11.75l.03,9.17c0-.27.01-.55.02-.82l.1,9.25c-.02-4.29-.04-8.59-.06-12.88.03,3.43.05,6.86.11,10.29l.02-3.24c.02,4.4.02,8.79.02,13.19.02-7.23.04-14.46.06-21.69l.03,3.43.05-7.2v9.97c.02-1.2.03-2.39.04-3.59l.04,11.5.06-13.91c0,.51,0,1.02,0,1.54.01-3.01.03-6.01.04-9.02.02,5.82.03,11.63.05,17.45l.12-14.42.04,3.37.06-3.26c.04,7.34.07,14.69.1,22.03l.02-10.92c.46-6.65.46-12.65.09-19.66.05,7.35.08,14.7.12,22.05.01-3.33-.02-6.67.05-10,.02,2.76.05,5.53.08,8.29,0-3-.02-5.99-.03-8.99l.06,3.03.02-2.96c.01,4.06.03,8.13.04,12.19l.02-3.13.04,5.72.03-12.9c.03,4.13.04,8.25.05,12.38l.04-9.49.08,8.71.05-10.05c.05,2.35.07,4.71.08,7.06l.05-9.24.04,5.58.06-11.11.04,14.95c.01-4.33.06-9.15.1-14,.83,8.86.16,17.76.16,26.64.02-5.37.03-10.75.05-16.12l.04,4.56.12-10.31.04,7.21c0-4.98.01-9.96.03-14.95l.05,13.08c0-.49.01-.98.02-1.47.03,5.46.06,10.92.09,16.38l-.05-16.83.08,6.63.05-19.79.07,14.16.13-14.47c-.02,7.36-.04,14.73-.06,22.09.02-7.07.04-14.14.07-21.21.23,8.06.03,16.13.04,24.2.04-5.43.08-10.87.15-16.3l-.02,4.62c.02-1.42.03-2.83.12-4.25.04,3.92.08,7.85.1,11.78.02-5.5.02-11.01.06-16.51l.04,13.53v-2.34c.03,1.51.05,3.02.08,4.53l.03-7.91c-.08-2.04-.08-4.04.1-5.91l-.06,10.22.09-6.87.13,7.55.04-7.28.05,12.6.02-3.2c0,.54,0,1.09,0,1.63l.05-9.86.02,3.13c0-4.51.02-9.02.04-13.54.01,6.78.03,13.57.04,20.35,0-2.78.01-5.56.02-8.33l.1,5.56c-.02-5.11-.04-10.22-.06-15.32.02,4.97.04,9.93.07,14.9l.03-9.83.07,9.9.03-6.82c.1,4.06.09,8.13.12,12.2-.02-5.47-.04-10.95-.06-16.42.03,3.04.05,6.08.08,9.12.04-2.73.08-5.46.12-8.19.03,3.18.05,6.36.07,9.53l.04-4.79c.02,3.26.04,6.53.06,9.79l.06-16.88.06,4.37.1-4.85-.06,8.16.08-5.33.11,10.72c.04-5.7.06-11.39.09-17.09.03,4.93.06,9.86.08,14.79.02-5.25.04-10.51.06-15.76l.02,3.63c.15,7.08.15,15.08.04,22.25.03-5.73.08-11.46.09-17.19l.06,16.61v-2.96c.01.91.02,1.82.02,2.74.02-5.25-.02-10.51.06-15.76l.02,6.44c.02-3.62.04-7.23.06-10.85.03,7.85.07,15.69.1,23.54.03-8.64.07-17.28.1-25.92l.03,5.36c.02-1.2.02-2.4.02-3.59l.07,15.46v-3.17c.02,1.05.03,2.1.05,3.15l.02-9.21c0,.24,0,.47,0,.71l.02-3.24c.02,4.76.04,9.53.06,14.29.02-4.03.04-8.06.07-12.09l.02,7.04.09-3.61-.05,8.67.07-5.91c.06,3.58.03,7.16.04,10.74.02-6.7.04-13.39.06-20.09v4.07c.01-.38.02-.76.02-1.14l.04,8.78.02-2.35c.02,2.58.03,5.16.05,7.73,0-3.5-.01-7-.02-10.5l.07,4.08c.03-4.26.06-8.53.08-12.79l.04,3.52c.02-.47.06-.93.08-1.4.02,4.93.03,9.86.05,14.79.03-6.71.06-13.43.09-20.14.15,6.9.04,13.8.05,20.69.09-7.51.15-15.03.21-22.54.11,6.98.05,13.96.07,20.95.04-3.85.07-7.7.08-11.54l.05,14.98c.02-4.1.03-8.2.05-12.3l.02,2.94.04-7.05c0,.25.01.5.02.75l.07-2.17.07,16.91c.02-5.02.03-10.04.05-15.06.05,4.76.1,9.52.14,14.27v-11.85c0,.93.02,1.85.03,2.78l.02-6.22c.07,4.67.07,9.35.08,14.02.02-4.96.04-9.92.06-14.88l.05,13.96.1-5.56.05,5.63c.01-4.2.02-8.41.03-12.61l.06,10.61c.02-2.85.03-5.7.06-8.55v5.01c.02-.38.02-.76.03-1.15l.04,11.03c.02-4.28.04-8.55.06-12.83,0,.44,0,.87,0,1.31l.03-4.24.03,13.77c.03-4.52.07-9.05.1-13.57l-.04,9.57c.03-2.16.02-4.33.12-6.49,0,.37.01.73.02,1.1.03-3.15.06-6.3.09-9.45,0,.49.03.98.04,1.46,0-.53,0-1.05,0-1.58-.4,1.93-.4,3.93.07,5.95l.06,12.63c.04-4.42.07-8.83.09-13.25.02,3.93.03,7.87.05,11.8l.05-9.01v7.91c.04-6.96.06-13.92.09-20.88.05,7.89.1,15.77.16,23.66,0-4.38.02-8.76.03-13.15l.05,14.74c0-5.33-.01-10.66-.02-15.99l.09,2.77.05-9.9c.02,3.58.03,7.17.05,10.75,0-.6.01-1.21.02-1.81v5.91c.02-4.25.03-8.49.04-12.74.04,3.59.07,7.17.1,10.76v-3.85c.1,5,.07,10,.07,15,.02-6.16.04-12.33.06-18.49l.03,8.19.06-6.12c-.01,4.87-.02,9.74-.04,14.62l.07-7.6.02,13.43.07-21.97c.02,4.19.05,8.39.08,12.58-.02-6.21-.03-12.42-.05-18.63l.09,12.02c0-.44,0-.88,0-1.33l.05,9.19c0-.44,0-.88,0-1.32l.02,5.97c.01-4.53-.03-9.06.06-13.58l.02,7.13.05-8.23.04,2.16.07-4.23-.03,5.83.05-5.38.03,16.81c.02-5.76.04-11.52.05-17.28l.04,8.02c0-.38.02-.76.03-1.14v7.62c.11-4.87.15-9.75.18-14.62.04,3.28.05,6.56.05,9.84.04-6.26.08-12.53.1-18.79.03,8.15.07,16.31.13,24.46-.02-4.59-.03-9.18-.05-13.76l.07,9.44.05-17.29c.02,7.75.05,15.51.06,23.26.04-7.77.1-13.6.15-21.21l-.03,10.04.08-2.51c0,.46.01.92.02,1.37,0-2.5-.04-5,.05-7.5.03,3.4.06,6.79.09,10.19.01-2.04.02-4.07.04-6.11.02,3.82.03,7.63.05,11.45l.05-8.94c.04,4.44.09,8.88.12,13.31.02-6.3.07-12.6.15-18.9.05,1.5.03,3,.03,4.49l.08-10.31c.01,4.54.04,9.07.05,13.61l.06-12.99.03,4.61c0-.26,0-.52,0-.77l.02,7.91.05-7.25c.05,8.73.09,17.47.17,26.2.02-5.75.04-11.49.05-17.24,0,.43,0,.86,0,1.29.02-4.39.03-8.77.05-13.16.04,6.62.04,13.23.05,19.85.03-5.34.07-10.68.1-16.02.05,3.14.09,6.28.13,9.41l.02-8.01c.41-2.02.41-5.02.07-7.46.02,6.79.03,13.59.05,20.38.02-4.1.03-8.21.05-12.31.02,3.4.05,6.8.06,10.2.02-3.66.04-7.31.06-10.97v4.24c.03-2.63.05-5.25.06-7.88l.02,9.87.04-4.02c.11,5.35.04,10.7.05,16.05.03-5.07.03-10.13.08-15.2l.04,4.69c.04-2.63.07-5.26.1-7.89.02,4.95.04,9.91.05,14.86.01-4.59.03-9.19.04-13.78.04,3.5.07,7,.09,10.5l.06-9.16c0,.55.01,1.1.02,1.65,0-.09.02-.17.02-.26,0,.69,0,1.41,0,2.11.03-5.87.06-11.75.09-17.62.02,7.36.06,14.71.14,22.07l-.07-11.1.08,10.26.13-8.89c-.02,3.7-.04,7.4-.06,11.09l.07-8.08v4.93c.03-3.12.04-6.24.06-9.36l.04,5.96.02-4.01.08,6.6.03-3.54.02,5.68c0-.58,0-1.17,0-1.75v5.84c.04-2.76.07-5.52.1-8.29v3.12c.04-3.83.07-7.66.11-11.5l.02,7.98.06-6.07.05,9.09.08-5.58-.05,7.9.09-5.96c.02,5.12.04,10.24.05,15.35.01-7.57-.09-15.15.04-22.72.12,4.78.1,9.57.14,14.35-.02-5.17-.05-10.34-.07-15.51l.09,12.97c0-.09,0-.19,0-.28v6.63c.02-4.78.03-9.56.04-14.33l.06,5.24c0-.33.02-.65.03-.98l.02,3.06.03-13.32c.02,5.34.05,10.68.07,16.02-.01-4.15.04-8.31.06-12.46l.02,3.68.02-7.33c.01,5.52.02,11.04.04,16.56.05-6.24.07-12.47.08-18.71l.05,15.44.02-2.13c0,4.84,0,9.67,0,14.51.02-7.26.05-14.52.07-21.77.07,4.1.06,8.21.07,12.31.01-5.63.03-11.26.04-16.88.02,5.4.04,10.8.05,16.2,0-.51.01-1.02.02-1.54l.02,7.4.06-14.45c.01,1.51.02,3.02.04,4.53v-2.3c.01,3.35.02,6.7.03,10.05.02-6.43.04-12.86.05-19.28,0,1.06.02,2.12.04,3.19v-3.26c.02,2.79.03,5.57.04,8.36l.05-3.96c.01,4.96.03,9.93.04,14.89.02-5.76.04-11.53.05-17.29.02,6.03.04,12.05.05,18.08.01-5.95-.01-11.9.04-17.85.03,5.42.06,10.85.07,16.27.03-4.89.03-9.78.1-14.66l.03,3.07.04-2.5.07,11.74c.04-5.13.08-10.26.11-15.39-.02,6.28-.04,12.55-.05,18.83.02-6.07.05-12.14.07-18.21,0,6.4.02,12.79.03,19.19.02-8.45.04-16.89.06-25.34.25,3.09.25,6.09.04,9.31.01,6.9.07,13.79.11,20.69.02-7.82.06-15.63.12-23.45.04,5.11.09,10.23.14,15.34l-.05-14.44.07,10.51.07-5.33c-.02,2.66-.04,5.32-.05,7.98.02-.51.06-1.02.08-1.53l.11,6.65-.04-13.23.06,9.53.02-2.14c0,.53,0,1.06,0,1.6l.04-16.16.07,6.51c0-.51,0-1.01,0-1.52l.03,8.25.06-4.27.06,11.09c.02-6.79.07-13.57.12-20.36.1,7.46.04,14.92.06,22.37.05-6.35.1-12.7.15-19.06.04,6.55.11,13.1.17,19.64-.01-5.73-.03-11.46-.04-17.19l.06,10.23.09-10.76-.07,11.18c.37-4.55.14-9.12.16-13.68.01,5.66.02,11.32.03,16.97v-3.55c.01,1.05.01,2.11.02,3.16l.06-14.66.04,4.52.03-5.57.07,14.14c.34-6.72.35-13.46.11-20.19l-.04,12.58.08-11.53c.03,5.69.06,11.37.09,17.06.03-4.3.05-8.6.06-12.9.01,5.3.03,10.59.04,15.89.02-5.44,0-10.88.11-16.32l-.03,5.9c.02-.63.05-1.26.07-1.9.03,5.86.05,11.72.08,17.58.02-6.2.04-12.41.14-18.61l-.06,13.26c.03-3.96-.22-7.93.16-11.88.02,4.01.04,8.02.06,12.03.03-5.24.05-10.48.08-15.72.04,6.05.04,12.11.04,18.16l.07-14.21c0,.49.02.99.03,1.48l.12-7.43-.1,15.93.11-13.2c.01,5.97.02,11.94.03,17.91,1.16-6.3.15-12.75.16-19.09l.06,9.74c.01-.44.03-.89.04-1.33l.02,4.75c.03-4.54.07-9.08.1-13.62l.02,2.8c0-.46,0-.92,0-1.37.01,3.02.02,6.04.03,9.06,0-.47,0-.93,0-1.4.03,5.86.07,11.72.1,17.58-.01-7.44-.02-14.87-.03-22.31.02,5.56.03,11.13.05,16.69.02-5.56.03-11.12.05-16.68.68,8.27.14,16.56.16,24.84.01-6.88,0-13.77.09-20.65l-.02,5.86c.12-4.18.13-8.36.17-12.54l-.08,11.13.14-4.87.04,4.63.03-9.12v2.61c.02-2.54.04-5.07.05-7.61l.03,11.33c0-.92.02-1.85.03-2.77l.02,10.06.05-6.57.03,6.82c.01-5.57.03-11.14.04-16.71,0,2.87.02,5.74.03,8.62l.04-4.65c-.4,1.23-.4,3.23.05,4.08,0,5.74.02,11.48.03,17.22.02-6.25.05-12.51.07-18.76.03,3.78.03,7.57.04,11.35l.05-14.21c0,.31,0,.62,0,.93v-2.73c.03,5.25.04,10.5.06,15.74v-2.84c.01,1.72.01,3.44.02,5.16l.04-19.27.04,7.29.04-8.33.05,14.35c.06-5.2.11-10.4.17-15.6.01,3.93.05,7.85.08,11.78l-.05-10.24c.16,6.84.13,13.68.16,20.52.01-6.07.01-12.15.05-18.22,0,3.34.03,6.68.1,10.01l-.04-5.15.07,4.2c.06-4.65.08-9.3.11-13.95.18,6.25.05,12.5.06,18.75.03-3.54.05-7.07.08-10.61,0,.56.01,1.12.02,1.68,0-.44.02-.88.03-1.32.01,4.01.02,8.03.03,12.04.04-3.32.08-6.64.11-9.96v5.95c.03-3.49.04-6.98.06-10.47.39,5.27.09,10.56.09,15.84.02-7.46.05-14.91.08-22.37l.04,20.57.03-8.95c.02,5.05.05,10.11.07,15.16-.01-5.53-.03-11.07-.04-16.6l.08,6.55.04-11.86.04,13.09c.03-2.88.08-5.75.13-8.63.08,2.82.08,5.64.12,8.45-.02-4.37-.03-8.75-.05-13.12l.06,11.44.05-11.63c.06,6.9.1,13.81.14,20.71l-.04-21.64c.03,3.91.07,7.82.12,11.73.02-3.27.04-6.53.06-9.8.22,6.64.1,13.29.14,19.94-.02-7.79-.04-15.57-.06-23.36l.07,10.05.03-3.35c.09,5.36.04,10.72.06,16.08.02-5.75.03-11.51.05-17.26.02,8.97.04,17.94.05,26.91.03-6.75.05-13.51.08-20.26-.39-3.86-.39-8.86.07-12.73-.01,7.1-.02,14.2-.03,21.3.03-4.36.06-8.72.09-13.08l.04,6.68.04-10.41v2.16c.01-.92.01-1.84.02-2.76.04,7.37.06,14.74.07,22.12l.08-15.06c0,.37.01.74.02,1.11l.08-7,.04,2,.08-6.35c-.01,5.26-.03,10.53-.04,15.79l.06-8.11.1,12.3-.04-13.77.08,11.76.1-11.94c-.01,6.01-.03,12.01-.04,18.02.02-5.98.03-11.95.05-17.93.04,4.24.08,8.49.12,12.73l.12-14.29c.03,5.82.04,11.64.04,17.45.02-7.1.04-14.19.06-21.29l.03,6.08.02-3.93c.03,3.69.04,7.37.04,11.06l.05-11.25.05,9.52.05-13c.2,11.45.2,22.89.17,34.34,0-1.33.01-2.65.01-3.98-.01,1.33-.02,2.65-.01,3.98.02-10.47.02-20.93.14-31.4l.07,11.94.07-13.25c.03,6.12.05,12.25.06,18.37.04-4.11.08-8.23.1-12.34l.04,11.44.02-6.33v6.14c.04-6.06.07-12.11.1-18.17.02,3.21.03,6.42.05,9.63l.02-2.09v10.23c.03-4,.05-8.01.07-12.01l.03,4.62c0-.46,0-.92,0-1.37.24,2.19.24,3.19.06,5.38v2.69c.02-3.57.03-7.15.04-10.72l.05,7.24c.03-3.12.07-6.23.1-9.35.02,4,.03,8.01.04,12.01.02-5.76.04-11.51.07-17.27.05,8.54.09,17.09.13,25.63-.02-8.01-.04-16.02-.07-24.03l.08,7.72.02-5.05.07,6.32.02-2.57.02,12.67c.02-7.17.04-14.34.07-21.51.11,5.76.07,11.53.1,17.29.02-3.93.04-7.87.05-11.8.39,11.49.38,23,.22,34.5-.02-9.77-.03-19.54-.05-29.3.02,5.39.04,10.77.06,16.16.04-8.46.08-16.91.11-25.37.04,7.11.03,14.22.04,21.33.01-7.45.03-14.9.04-22.35.02,4.98.04,9.97.06,14.95.03-4.85.06-9.7.09-14.54.09,6.55.06,13.1.07,19.65.03-5.17.07-10.34.09-15.51.02,7.51.04,15.03.06,22.54.05-6.53.1-13.05.12-19.58.01,7,.03,14,.04,21,.02-8.1.05-15.67.09-23.39.2,7.28.08,14.56.08,21.84.03-7,.06-14,.09-21,.08,4.42.04,8.84.05,13.25l.06-15.41.03,8.17c.02-5.2.03-10.41.05-15.61.03,7.7.06,15.39.07,23.09.03-5.6.05-11.21.08-16.81.08,3.47.08,6.94.11,10.41.05-2.01.03-4.02.03-6.03l.07,5.65.02-3.92.02,7.89c.03-3.48.07-6.95.09-10.43,0,5.97.05,10.5.06,16.17.02-6.39.03-12.77.05-19.16,0,3.54.02,7.07.02,10.61l.02-8.05.09,8.88c0-3.41.01-6.81.02-10.22.02,5.37.03,10.74.05,16.11.02-4.95.03-9.91.05-14.86l.11,11.63c.28-5.14.1-10.28.13-15.43.09,5.55.08,11.11.1,16.66-.02-5.16-.03-10.32-.05-15.48l.09,4.25.03-6.44-.02,9.63.1-5.6c.03,5.15.06,10.3.09,15.46.02-4.8.05-9.61.09-14.41l.02,8.46c.02-3,.04-5.99.07-8.99,0,2.97.02,5.94.02,8.91,0-.58,0-1.16,0-1.74l.1,15.84c-.01-8.8-.02-17.6-.03-26.4.02,7.55,0,15.1.06,22.65,0-6.44.02-12.87.06-19.31v10.2c.02-.65.03-1.31.04-1.96l.06,8.35c.02-6.96.05-13.92.06-20.88.02,7.99.03,15.98.05,23.96.02-5.2.03-10.4.05-15.6l.04,7.74.05-11.88v2.06c.02-1.81.03-3.62.05-5.43.01,5.09.02,10.17.03,15.26.01-4.05.03-8.11.04-12.16.01.57.02.62.02.16.03,5.84.05,11.67.08,17.51.02-6.06.06-12.11.1-18.17l.04,10.72.11-13-.09,14.74c.04-3.43.07-6.85.11-10.28.04,5.82.07,11.64.11,17.45.11-5.19.04-10.38.06-15.58l.07,11.81c.02-5.32.04-10.63.06-15.95.02,6.69.05,13.39.06,20.08l.04-13.72.06,12.31.09-13.39c.01,3.91.02,7.81.03,11.72l.03-10.82.06,5.85.1-7.6-.06,8.37.1-7.02.05,3.55.02-5.25.04,3.52.03-4.35.06,5.96.02-4.96c.04,5.13.08,10.26.12,15.39-.01-6.49-.03-12.99-.04-19.48l.06,11.01.08-8.25c0,3.22,0,6.43,0,9.65l.02-4v5.53c.03-4.82.06-9.64.09-14.46,0,.68,0,1.37,0,2.05,0,.31-.06,2.28.02.81.01,3.84.07,7.67.12,11.51.02-5.86.04-11.72.06-17.57l.03,15.29c0-2.02,0-4.03.03-6.05.01,8.63.02,17.26.03,25.89-.4-10.29-.4-20.6.05-30.89l.02,2.72c0-.3,0-.61,0-.91,0,2.88-.21,7.27.04,9.31l.05,9.81c.01-7.19.03-14.37.04-21.56v5.78c.01-.25.01-.5.02-.75.04,4.94.03,9.87.04,14.81.18-6.55.16-13.11.21-19.67-.03,7.74-.07,15.47-.1,23.21l.17-13.75c0,.35,0,.71,0,1.06l.02-6.99.06,3.6c.01-4.49.03-8.97.04-13.46.01,7.06.02,14.12.03,21.19l.04-10.91.03,4.51.02-9.54c0,.32,0,.65,0,.97v-3.11c-.2,2.16-.2,5.16.09,7.32.02,7.25.04,14.5.06,21.74.03-8.24.05-16.48.13-24.72-.01,4.81-.02,9.62-.03,14.43.03-4.75.04-9.5.09-14.24.02,5.42.03,10.84.05,16.26.03-6.28.05-12.56.09-18.84l.03,11.67c0-.36,0-.71.02-1.07.01.41.02.81.03,1.22l.02-4.3.02,12.61c.02-5.73.04-11.46.05-17.2.04,7.63.07,15.25.1,22.88l-.04-15.53c.03,2.95.07,5.91.1,8.86.04-7.06.07-14.13.11-21.19.03,1.74.04,3.49.05,5.23.02-3.33.04-6.65.07-9.98.04,7.7.03,15.4.05,23.1l.09-10.42.02,5.81.04-9.35.07,5.81.03-2.27c0,2.88.05,4.87.12,7.43l-.02-11.97.05,7.21c0-.61.02-1.21.02-1.82v3.27c.01-.26.02-.52.02-.78v3.57c.02-4.19.03-8.37.05-12.56.02,3.71.04,7.42.06,11.13l.09-10.59c-.03,4.69-.05,9.38-.08,14.07l.1-7.15v8.83c.04-5.23,0-10.46.11-15.69.02,7.18.03,14.36.05,21.54.02-7.69.04-15.38.05-23.07v5.32c.04-2.47.07-4.94.1-7.41-.01,6.92-.03,13.84-.04,20.76.02-5.49.04-10.98.06-16.47.04,5.34.08,10.68.12,16.02l.12-20.33c.04,9.45.03,18.9.04,28.36.03-8.6.05-17.2.08-25.8.06,3.33.09,6.66.13,9.99l-.05-9.14.09,6.54.05-7.7.04,10.26c.07-3.68.03-7.35.05-11.03.04,6.51.07,13.01.09,19.52l.06-15.2.02,4.55.05-4.19-.02,8.16c.01-1.64,0-3.28.12-4.92l.04,14.41c.01-4.83.02-9.66.03-14.5l.08,16.71c.04-7.63.07-15.25.11-22.88.02,7.77.03,15.54.04,23.32.03-6.54.06-13.07.08-19.61,0,4.67.01,9.35.02,14.02.05-6.47.09-12.94.11-19.41.02,4.91.05,9.83.07,14.74,0-.87,0-1.74.02-2.6,0,3.48.02,6.96.04,10.43l.04-14.07c0,.52.01,1.03.02,1.55l.07-4.21-.02,7.52.05-6.85.02,11.77.05-16.04c.04,6.54.08,13.08.12,19.62.02-7.02.06-14.04.12-21.05.21,4.74.06,9.49.08,14.23.02-3.7,0-7.39.08-11.09.09,7.55.07,15.09.1,22.64-.03-7.4-.05-14.79-.08-22.19l.09,2.91.03-2.33c0,4.15,0,8.31.05,12.46,0-3.9-.03-7.8.04-11.71l.07,23.68c.04-7.07.09-14.14.15-21.21.05,7.9.07,15.8.09,23.69.03-9.1.06-18.21.08-27.31.08,1.22.04-1.79.05-2.26.02,5,.06,10.01.1,15.01l-.04-14.41.06,10.63.02-4.43.03,11.8c.02-2.9.04-5.8.05-8.7l.08,2.93c-.02-4.42-.04-8.84-.05-13.26l.07,6.76c.02-3.17.05-6.34.07-9.51-.02,3.18-.03,6.37-.05,9.55.02-.48.05-.95.08-1.43.03,4.89.06,9.77.08,14.66-.02-5.72-.03-11.44-.05-17.16.07,4.34.09,8.68.1,13.02l.07-11.15.04,7.81c.02-3.48.05-6.96.07-10.44.21,8.03.1,16.06.11,24.09.02-9.03.04-18.06.06-27.09l.05,10.52.05-5.9.12,15.27.07-12.76c.02,7.46.05,14.92.1,22.38.5-10.54-1.46-21.12.04-31.62l.06,13.96.02-7.37.08,12.02c-.02-4.1-.04-8.19-.06-12.29.08,4.94.1,9.88.11,14.83l.13-19.18c.04,6.27.09,12.53.13,18.8.03-4.54.06-9.08.09-13.62-.01,4.77-.02,9.53-.03,14.3.04-4.4.09-8.79.17-13.18-.01,5.66-.03,11.31-.04,16.97l.05-16.73.06,12.47c.09-5.33.07-10.65.08-15.98.01,6.78.02,13.55.03,20.33.02-3.73.03-7.47.05-11.2l.02,12.06c.01-7.25.03-14.49.04-21.74l.05,10.94c.02-3.68.04-7.37.06-11.05l.04,9.75c.03-2.71.05-5.42.08-8.13.01,8.58.03,17.16.04,25.74.23-10.12.23-20.23.05-30.35.02,5.79.04,11.58.06,17.38.05-6.23.11-12.46.16-18.69l-.13,24.8c.05-6.48.11-12.96.16-19.44l.04,15.07.07-10.66.03,2.71v-3.54c-.22-2.39-.22-4.39.04-6.17l.04,14.15.02-3.8.03,11.38.02-14.77c.06,2.53.1,5.07.14,7.6l-.06-9.21.07,7.71.07-8.89.04,7.35.08-11.08-.04,18.13.07-7.74v14.47c.03-7.67.05-15.34.07-23l.04,5.9.13-8.31-.1,8.59.1-5.76.06,14.11c.02-4.41-.08-8.82.08-13.22.05,8.92.07,18.64.1,28,.01-7.3.03-14.6.04-21.91.03.88.05,1.76.07,2.65.02-4.28.04-8.57.07-12.85l.11,19.02c.02-6.19.07-12.38.11-18.57-.03,4.86-.05,9.71-.08,14.57l.1-2.61v6.83c.03-5.59.06-11.19.09-16.78v4.64c.03-1.75.05-3.51.07-5.26l.03,9.37v-2.56c.04,2.07.08,4.15.12,6.22l.07-13.75c-.01,4.82-.02,9.64-.04,14.45l.1-11.44c.01,6.24.03,12.49.04,18.73.04-6.74.08-13.47.1-20.21l.08,8.39.04-7.28.06,9.63v-2.96c.02,2.37.02,4.73.03,7.1l.04-14.22c.05,4.1.09,8.2.13,12.31.01-4.15.03-8.31.06-12.46l.04,8.4.03-3c.02,5.75.05,11.49.07,17.24l.04-12.34c.01.35.03.69.04,1.04l.09-10.7.03,10.43.04-12.57c.02,1.56.01-.57.01-.85l.02,9.8c.01-.33.03-.67.04-1v12.74c.03-5.55.04-11.1.05-16.64l.06,6.14.04-11.08.04,18.61.04-11.96.06,4.75.04-9.3c.04,6.34.09,12.67.13,19.01.01-8.38.02-16.75.04-25.13.07,8.8.12,17.59.16,26.39.04-6.06.06-12.13.07-18.19.04,7.81.04,15.61.05,23.42.03-6.55-.02-13.11.1-19.66v2.23c0-.7.01-1.4.01-2.1l.07,14.32.03-14.99c.04,3.08.05,6.17.07,9.25.02-5.39.04-10.79.07-16.18.11,8.5.08,17,.11,25.49.02-7.02.05-14.03.1-21.05l.04,14.36c.04-5.42.07-10.83.11-16.25v5.4c.02-1.07.04-2.14.05-3.21,0,5.73,0,11.45,0,17.18l.05-9.75.02,6.29c0-5.19-.12-10.38.04-15.57.04,5.97.03,11.94.04,17.92.06-6.78.12-13.56.19-20.33-.01,5.04-.03,10.08-.04,15.12l.06-10.66c.14,5,.02,11.55.02,17.15l.09-21.84c.04,4.03.05,8.07.07,12.1.05-2.22.09-4.45.12-6.67.02,2.82.05,5.63.09,8.45l-.02-9.72c-.38-2.34-.38-4.34.09-6.64.02,7.64.03,15.27.04,22.91.05-4.53.09-9.07.17-13.6l-.02,7.14.04-3.54.03,6.41c.02-5.96.05-11.91.07-17.87.02,5.45.04,10.89.07,16.34,0-.27,0-.54.01-.81l.09,6.47.04-16.95.06,3.39-.02-4.61c.03,4.39.06,8.78.09,13.16.01-4.62,0-9.24.05-13.86v4.9c.02-.53.03-1.07.03-1.6.01,7.06.02,14.12.04,21.19.03-6.36.06-12.72.08-19.08l.05,8.1.04-5.67v4.96c.04-2.12.06-4.25.09-6.37l.02,4.66c.04-5.54.07-11.07.11-16.61.05,8.48.07,16.95.09,25.43,0-8.11-.01-16.22-.02-24.33.02,4.53.05,9.05.07,13.58l.02-10.41c.02,5.74.04,11.48.06,17.22.02-5.7-.03-11.4.09-17.1.07,10.36.06,20.73.05,31.09.03-8.29.05-16.59.08-24.88,0,2.08,0,4.15.02,6.23.01-4.23.03-8.46.04-12.69-.13,9.94-.13,19.88.12,29.82.01-8.87.02-17.74.04-26.6.03,1.64.01-.19.01-.41.05,4.21.04,8.42.04,12.63.02-3.97.04-7.93.06-11.9l.04,9.46.1-17.04c.03,7.52.09,15.04.14,22.56-.02-6.46-.05-12.92-.07-19.38.05,6.27.1,12.54.12,18.82l.06-12.19.04,7.28.06-9.13.03,7,.04-8.81.04,5,.11-11.31c-.12,10.64-.13,21.27-.05,31.91.02-9.41.04-18.82.06-28.23,0,.53,0,1.07.01,1.6.03-.41.06-.81.09-1.22.02,8.16.04,16.32.1,24.48.02-7.2.04-14.39.06-21.59l.06,18.35c.02-2.84.03-5.67.09-8.51,0,4.17.01,8.34.02,12.51.02-7.27.03-14.53.05-21.8.01,3.59.02,7.18.04,10.77l.04-5.95c.01,3.3.02,6.61.04,9.91,0-6.54,0-13.08.07-19.63.02,5.93.08,11.85.15,17.78-.03-4.09-.05-8.18-.08-12.27.03,4.01.06,8.01.09,12.02,0-3.46.02-6.93.03-10.39,0,4.19.02,8.37.03,12.56l.06-11.79c.01,5.76.02,11.52.04,17.28.02-6.36.04-12.72.06-19.09v4.26c.03-2.76.05-5.52.07-8.28.01,5.8.02,11.61.04,17.41,0-3.93.03-7.85.05-11.78l.08,8.95c0-2.63-.01-5.26.03-7.89l.1,9.12c-.01-6.47-.02-12.94-.04-19.41l.05,11.94.03-6.57c.02,5.2.04,10.41.06,15.61.01-5.91.03-11.82.05-17.73.64,6.53.09,13.09.1,19.64.1-7.03.12-14.05.13-21.08,0,4.92.02,9.85.03,14.77l.06-8.54c.01,2.58.05,5.17.08,7.75v-9.09c0,.35.02.71.04,1.06l.03-6.01c.02,6.92.04,13.84.06,20.75l.04-15.06.04,4.71c0-.42,0-.83.01-1.25l.04,7.79c.02-3.26.04-6.51.06-9.77l.04,14.01c.01-5.89.02-11.79.04-17.68.03,5.3.06,10.59.09,15.89.02-5.75.06-11.5.11-17.26l-.04,10.83c.05-2.89.08-5.79.11-8.68l.07,16.54.09-18.4c.04,5.74.03,11.47.04,17.21.04-4.23.08-8.47.19-12.7v4.75c0-1.06.01-2.12.03-3.19l.06,5.78c0-3.01-.02-6.01-.03-9.02l.08,3.45.07-6.24c.04,6.1.03,12.19.04,18.29,0-5.34.02-10.68.03-16.02l.07,10.51c.03-3.56.06-7.12.09-10.68-.01,6.06-.02,12.13-.03,18.19l.06-11.08c.04,5.09.08,10.18.13,15.27-.04-5.99-.07-11.99-.11-17.98l.12,10.5c.03-5.63.07-11.25.1-16.88.03,7.33.1,14.67.18,22-.04-5.39-.07-10.77-.11-16.16.04,4.1.08,8.19.12,12.29.03-4.1.05-8.19.08-12.29.02,4.34.03,8.68.05,13.02,0-6.65.05-13.29.11-19.94l-.04,15.17c.04-6,.08-11.99.12-17.99-.02,6.61-.03,13.23-.05,19.84l.08-14.31.02,17.27c.03-3.39.37-8.68.1-11.04l.07-9.87c.01,4.56.02,9.13.03,13.69l.17-14.79-.12,18.26c.04-5.91.09-11.82.13-17.73l.13,13.78v-4.62c.02,3.06.03,6.12.04,9.17l.06-6.9c0,4.94,0,9.89,0,14.83.01-9.28.03-18.56.04-27.84.05,7.34.09,14.69.12,22.03-.02-6.47-.03-12.95-.05-19.42l.09,8.63v-5.51c.04,3.1.07,6.2.1,9.29,0-.28,0-.56,0-.84.05,4.51.02,9.03.02,13.54.02-7.16.05-14.33.07-21.49.08,2.93.09,5.86.13,8.79-.03-5.06-.06-10.11-.09-15.17.03,4.59.07,9.17.1,13.76l.06-9.91-.04,10.61.12-7.3.03,10.8c.03-4.36.05-8.73.08-13.09.06,6.49.09,12.98.14,19.47,0-.55-.04-3.12.02-2.29.01-5.82.03-11.64.04-17.46.01,6.14.03,12.29.04,18.43.01-5.7.03-11.39.04-17.09.04,2.52.07,5.04.11,7.57v-2.68c.03,4.44.06,8.88.08,13.32.02-5.91.05-10.98.08-16.65l.04,12.01.02-2.28.02,5.49c.02-5.45.04-10.91.06-16.36v7.49c.04-3.17.06-6.34.09-9.51,0,5.95-.02,11.9-.03,17.85.08-5.52.1-11.03.14-16.55-.02,6.26-.04,12.52-.06,18.78l.09-7.97v6.61c.03-5.99.02-11.98.05-17.97v8.83c.03-2.39.05-4.79.06-7.18,0,4.22,0,8.45,0,12.67l.04-13.94c.05,3.97.07,7.94.08,11.92.01-3.47.02-6.94.03-10.41.02,7.72.06,15.45.1,23.17-.01-7.99-.02-15.98-.03-23.97l.07,8.65.06-10.74c-.01,6.02-.03,12.03-.04,18.05.07-5.08.14-10.17.19-15.25-.02,4.87-.05,9.74-.07,14.62.02-3.72.05-7.44.07-11.16l.07,9.05-.03-14.67c.02,4.47.05,8.95.07,13.42l.1-12.76c-.01,4.49-.03,8.98-.04,13.48l.07-10.59c.02,4.16.05,8.33.07,12.49l-.03-14.58c.02,2.06.03,4.11.07,6.17,0-2.89.02-5.78.03-8.67.05,5.78.08,11.56.1,17.35l.07-16.43c.1,4.64.03,9.29.04,13.93.02-5.39.03-10.78.05-16.17.02,4.6-.07,9.19.08,13.79.02-3.74.04-7.48.05-11.22l.06,11.52.03-10.63.04,14.2c.02-5.65.04-11.3.07-16.95.04,6.09.07,12.17.11,18.26l.03-12.83.07,8.45c.03-4.86.05-9.71.07-14.57.02,3.65.04,7.3.05,10.94.03-3.28.05-6.57.07-9.85l.03,8.3c0-.25,0-.51.01-.76.03,3.82.07,7.65.1,11.47-.02-5.65-.05-11.3-.07-16.95.03,5.04.03,10.09.13,15.13.03-5.93.05-11.85.08-17.78.02,7.32.05,14.64.07,21.96.02-6.52.03-13.03.15-19.55l-.03,6.9.03-3.92v8.94c.02-4.11.04-8.22.05-12.32.02,1.45.04,2.9.07,4.35,0-.25,0-.51,0-.76l.03,9.57.04-13.49v3.33c.02-2.83.04-5.66.05-8.49l.05,14.54c0-3.44.02-6.87.03-10.31.15,9.61.03,19.22.04,28.83.03-7.87.06-15.73.09-23.6.02,8.02.04,16.04.05,24.06.01-8.67.03-17.34.04-26.01l.02,4.69c0-.65.02-1.3.03-1.95v5.28c0-.61.01-1.21.02-1.82l.05,9.54c.02-5.02-.02-10.04.05-15.06.05,7.3.09,14.59.13,21.89.02-9.57.03-19.13.05-28.7.03,5.39.05,10.78.08,16.17l.02-2.64c.02,4.9.03,9.81.05,14.71l.03-17.43.05,2.32.09-3.48-.03,11.43.04-6.33.03,6.85-.02-8.21c.02,4.56.03,9.13.03,13.69.03-6.67.06-13.34.09-20.01l.08,13.68c0-6.96.02-13.92.04-20.87.02,7.47.05,14.93.07,22.4v-5.11c.01,2.93.02,5.86.02,8.79.03-6.56.06-13.11.09-19.67l.04,9.27.08-2.65.03,2.86c.03-5.19.05-10.37.06-15.56l.06,25.47v-3.81c0,.43.01.86.01,1.29,0-4.75.02-9.5.03-14.25v4.77c.02-1.1.02-2.2.02-3.29l.07,14.33c.01-4.51.03-9.02.04-13.53l.03,9.86c0-4.9.01-9.79.02-14.69l.06,13.58.02-15.53c.04,5.06.07,10.13.11,15.19l.04-8.13c0,.56.02,1.13.02,1.69.01-3.11.02-6.23.03-9.34.02,7.33.03,14.67.05,22,.02-7.3.02-14.6.13-21.89-.01,6.99-.03,13.99-.04,20.98l.05-16.88v12.21c.03-4.53.06-9.05.08-13.58l.03,4.28c.04-.06-.03-.23,0-.28.03,4.28.03,8.55.04,12.83.03-6.33.05-12.66.08-18.99l.13,18.27c-.04-6.49-.07-12.99-.11-19.48.04,5.33.08,10.65.12,15.98l.03-14.36c.04,6.05.08,12.1.15,18.16.02-5.96.04-11.91.07-17.87l.03,11.68c.02-4.41.04-8.82.07-13.23l.02,5.21c.02-3.69.04-7.39.06-11.08l.02,13.09c.01-2.98.01-5.96.04-8.94.01,4.2.01,8.4.08,12.6,0-3.32-.01-6.64-.02-9.97.01.55.04,1.1.05,1.64l.07-3.93-.05,9.56.09-7.38.05,13.12-.04-13.95.12,5.83.03-6.13c.02,9.5.03,19,.05,28.51.01-7.58.02-15.16.03-22.73l.06,9.27-.04-10.01.07,3.6v-5.86c.03,3.57.06,7.13.09,10.7.02-2.27.04-4.54.07-6.81.02,5.1.04,10.2.06,15.3l.07-16.08c.03,5.23.05,10.46.06,15.68.05-6.99.11-13.97.18-20.96-.01,3.96-.03,7.92-.04,11.87l.06-8.03c0,6.96,0,13.92.01,20.88.03-7.14.06-14.28.1-21.42.03,7.07.04,14.13.05,21.2.03-6.44.05-12.88.08-19.33v4.81c.02-.29.02-.58.03-.88.02,7.04.01,14.08.02,21.12.03-9.52.06-19.04.09-28.55l.06,10.34c.02-1.54.02-3.08.07-4.62l.07,11.11c.03-6.28.05-12.57.08-18.85.02,6.37.04,12.75.05,19.12.03-4.7.05-9.39.08-14.09v3.87c.02-.73.02-1.46.03-2.19,0,3.17,0,6.34.01,9.51.02-4.23.05-8.45.07-12.68l.03,9.59c.26,1.66.26,3.66.03,6.04l.07-11.44c0,.31.01.25.01-.17l.02,3.91c0-.46,0-.93,0-1.39.03,2.6.07,5.2.1,7.8l-.06-13.8c.03,4.18.06,8.35.08,12.53,0-5.22,0-10.45.01-15.67.03,5.66.08,11.31.1,16.97.03-5.12.03-10.24.12-15.37l-.03,8.15c.2-2.83.08-5.67.08-8.5.03,6.67.07,13.34.09,20.02.01-7.84.02-15.68.03-23.52.04,9.68.07,19.36.09,29.04.03-7.5.07-14.99.1-22.49l.12,8.08c-.01-3.5-.03-7-.04-10.5l.05,9.01.06-10.69c.01,5.32.02,10.64.03,15.96.01-5.88.02-11.76.03-17.64.7,7.3.11,14.66.12,21.97.22-8.05.14-16.11.17-24.16.02,6.8.05,13.61.08,20.41,0-5.58-.02-11.17-.03-16.75l.08,8.24.11-8.95c-.02,3.35-.04,6.7-.06,10.04l.07-6.94c.04,4.52.07,9.03.11,13.55-.02-4.56-.05-9.11-.07-13.67l.1,9.8.08-11.98.03,5.46c.01-.27.02-.54.03-.81-.02,7.49.02,14.98.03,22.47.28-10.27.28-20.55.19-30.83l-.05,16.49c.02-4.95.04-9.91.06-14.86.03,6.72.07,13.44.1,20.17.03-6.53.09-13.05.13-19.58.03,8.11.04,16.22.05,24.33.04-7.83.09-15.67.16-23.5.04,5.74.05,11.48.07,17.22l.03-12.75c.01.45.02.89.03,1.34v-2.29c.02,4.67.03,9.34.04,14.02.02-2.87.03-5.74.12-8.6.02,4.89.02,9.78.06,14.67,0-6.56.01-13.12.03-19.68.04,7.18.07,14.35.08,21.53.02-6.89.04-13.78.06-20.67.01,4.05.02,8.11.04,12.16.02-5.35,0-10.7.15-16.05,0,3.58-.02,7.16-.03,10.73.01-3.4.03-6.8.04-10.2l.09,14.21c.01-2.27.01-4.54.04-6.81.04,2.91.04,5.82.04,8.73.01-6.18.03-12.36.04-18.54l.04,2.84.02-4.63c.02,6.78.06,13.55.12,20.32-.01-6.08-.03-12.16-.04-18.24l.05,8.17.06-5.56c.04,4.33.06,8.66.08,13l-.03-10.99.09,5.14v-3.94c.01,4.51.02,9.01.03,13.52l.07-5.26.02,2.29c.01-5,.05-9.99.08-14.99.02,9.25.06,18.51.11,27.76-.01-7.07-.03-14.15-.04-21.22.02,3.18.05,6.36.07,9.55l.03-9.34c.02,4.87.03,9.74.03,14.61.02-3.68.04-7.35.06-11.03.04,1.69.05,3.39.06,5.08l.07-11.41c0,2.16,0,4.32.03,6.49l.02-5.35.08,14c0-4.05,0-8.09.06-12.14.02,4.39.03,8.77.03,13.16.02-5.84.04-11.68.06-17.52l.04,8.57.09-5.5-.05,13.07c.02-4.32.04-8.65.06-12.97.02,5.12.04,10.23.07,15.35"/>
        </g>
      </g>
    </g>
  </g>
</svg>