<?xml version="1.0" encoding="UTF-8"?>
<svg id="Layer_1" xmlns="http://www.w3.org/2000/svg" version="1.1" viewBox="0 0 576 216">
  <!-- Generator: Adobe Illustrator 29.5.1, SVG Export Plug-In . SVG Version: 2.1.0 Build 141)  -->
  <defs>
    <style>
      .st0 {
        fill: none;
        stroke-linecap: square;
        stroke-width: .7px;
      }

      .st0, .st1 {
        stroke: #000;
        stroke-linejoin: round;
      }

      .st1 {
        stroke-width: .8px;
      }
    </style>
  </defs>
  <g id="figure_1">
    <g id="axes_1">
      <g id="matplotlib.axis_1">
        <g id="xtick_5">
          <g id="line2d_5">
            <path id="m44fbee7416" class="st1" d="M429.12,192.24"/>
          </g>
        </g>
      </g>
      <g id="line2d_11">
        <path class="st0" d="M71.97,97.39l.03-.79.03-5.51.09.03.03.8.03,5.53.09-3.12.09,4.77-.03-7.11.06,3.18.15-10.94.09,15.04.03-7.08.06,7.13.06-3.92.06-7.85.06,1.61.21,11.87.09-7.89.03,2.37.03,3.15.03-1.58.03-3.95.06,6.29.06,4.7.03-4.75.03,1.56.03-3.96.03,5.5.03-1.6.03,4.7.03-4.76.03,3.12.15-4.9.03,1.54.06-1.65.06-4.01.03,5.48.03-3.98.09-4.84.15,9.25.06-15.07.06,7.81.15-8.09.06,2.29.03,1.54.03-4.77.06,4.66.03-.04.03-3.98.06,4.66.03-3.98.03-.82.18,17.12.06-10.33.06,4.66.06-1.64.03,1.55.09,3.07.06,6.24.03-.03.12-17.42.06,4.72.03-.79.15,7.89.03-3.15.06,2.39h.03s.03,1.6.03,1.6l.03-3.14.15-7.74.18,11.3.09,8.81.06-3.85.03.05.15-13.06.12,6.65.03-1.49.03-1.49.09,8.15.03-1.49.12-11.43.03.11.06,4.96.09-1.23.03-1.46.03.12.03,4.85.03-7.77.03,2.49.09,4.31.06,8.9.06-3.72.15-13.62-.09,14.63.15-11.23.15,6.91.03-5.41.06,7.32.09-7.56.03,2.48.15,10.73.06-3.77.09-8.4.06,3.34.03.09.06-6.92.03,7.97.06-2.99.09,7.31.06-14.84.06,8.03.18-9.07.03-.72.12,15.96.03-5.48.03-6.27.06.09.03,6.35.09-4.63.03-1.54.03,5.55.03-6.28.03-6.28.06,7.16.03-1.55.03,3.18.03,6.33.09-.75.03.8.21-10.18.15,12.64.03,3.93.06-4.75.15-7.11.03-.79.09-7.86.06,15.78.09-3.17.09-6.3.03,1.58.15,16.52.03-.8.15-17.34.03-.78.09,7.91.03-4.73.03-3.93.06,2.39.06,7.12.03-1.57.15-13.32.12,17.4.03-7.88.03-.77.09,15,.06-7.88.12-7.06.06,10.26.03-9.46.03-2.35.06,2.39.15,14.18.12-18.14.03,3.16.06,7.09.03-2.37.12-9.47.03,2.37.03-2.37.03,3.94.06,4.71.03-3.96.09-3.2.09,10.17.03-3.19.03-4.76.03,7.07.06-4.02.03,10.21.09-6.45.12-8.08.03,7.05.03-7.15.03,5.47.06-7.21.06,2.25.09-3.35.06,12.48.09,3.69.03-1.67.03.7.15-8.34.12-3.51.18,11.24.12-9.08.09.49.03,2.27.06-9.66.03,7.79.18,13.57.03,1.46.03,7.77.06-9.7.18-14.79.06,8.49.06-2.55.09,2.11-.03-2.28.06,2.19.09-4.18.03,3.87.06-4.09.03-6.37.06,7.77.12,10.78.03-1.64.12-10.47.03.75.03,4.69.06-6.39.03-4.76.06,7.83.03,6.28.06-3.22.15-10.33.06,1.57.03-1.58.03-2.36.03,7.89.09-.78.03-6.3.06,6.33.03-.78.03-5.51.06,3.19.03,2.38.03-9.44.06,11.86.03-5.5.03-2.34.06,3.2.06,2.41.03-5.5.03,6.33.06,10.28.03-9.45.03.02.15-14.07.03,2.4.06,14.24.03,12.62.06-5.52.15-29.87.03,4.76.18,26.87.03,1.56.21-33.88.06,5.54.06,11.82.09-.82.09-7.15.06,3.91.18,10.83.15-12.82.12,8.5.12-12.02-.06,14.29.09-12.75.09,7.74.03-2.42.06,7.78.06-4.07.09,9.28.18-14.56.06,3.06.18,17.8-.12-17.9.15,13.9.12-15.17.06.72.06-.06.09,6.23.06,7.82.03-10.28.03-2.38.03,3.93.06-.03.03,2.36.06-8.68.06,2.38.06,1.6.12,41.76.03-13.43.12-47.99.03,3.22.12-6.8.03,1.66.09,8.13.03-3.07.06,8.85.06,5.68.06-4.56.06-3.75.03.89.03,5.62.06-3.74.03-6.99.06,8.9.06.22.03,6.42.06-1.36.03-9.35.06,13.63.15-7.31.03,5.64.03-9.34.06,6.56.03,1.7.03-2.25.12-10.53.03.92.18,14.93.09-10.7.12,2.04.03.11.03-.68.03,5.63.06-7.67.12,7.51.03-3.85.09-9.94.03,3.26.12,5.09.03.08.03-.71.03,7.96.09-2.94.24-12.08.33,19.38.03-1.56.06-7.85.03.02.06,7.91.03-3.15.03-3.93.03,5.53.03-5.51.06,7.11.06-4.73.03-10.24.06,11.84.09-3.16.18,20.42.03-3.97.21-17.44.09,13.36.03-11.05.09,2.34.12-10.25.09,15.77.06-2.37.09-10.25.03-3.93.06,6.33.03.8.03-7.08.06,3.97.09,9.5.09-2.34h.03s.06-3.91.06-3.91l.09,7.14.03-5.51.12-7.01.15,17.42.15-7.83.03,1.59.03-.77.15-10.94.12,14.26.09-12.58.03,2.38.03,8.69.09-6.28.03-1.57.06,12.62.06-5.53.03,1.57.03-3.16.09-10.25.03,3.15.03-.79.21,9.35.06-7.16.06,6.24.06-.87.06,3.85.15-11.28.06,7.78.06-.12.12-8.92.03,3.09.03-6.38.06,6.17.03.71.03,5.44.06-6.48.03,3.86.09-4.21-.03,4.82.06-1.76.03,3.06.06-2.56.03-3.25.03,7,.03,5.41.06-1.8.06-7.31.06.57.03-.11.03,2.26.03-2.48.06-5.73.03,2.26.06,6.09.06-3.37.03,3.05.03-2.48.03-8.78.09,6,.03-4.83.06,1.39.18,15.94.03-2.47.03-4.04.09,1.29.15-5.96.06-.16.09,8.45.09-7.31.09,2.18.06,3.04.06-.11.12-4.12.06,7.02.06-4.81.06-4.78.03,5.5.03,1.55.03-.02.03-4.75.03,5.51.03-3.17.09,6.27.03-1.59.03-5.53.06,4.73.03,3.15.03-2.37.03-3.94.03,1.58.03,8.68.06-10.24.03-2.35.03,3.96.03-.77.09,7.13.15-10.95.03.82.03-4.7.03,7.92.03-1.55.09,3.23.03,3.18.03-6.29.03.03.15,10.34.03-.78.06-7.06.06.82.03,6.32.06-7.86.03,5.53.09-18.88.09,10.32.15,6.33.15-8.69h.03s.03,4.72.03,4.72l.06-7.9.12,16.5.03,4.7.03-7.92.03.76.12-14.3.03,1.55.03.76.03-3.97.03,7.86.03.75.03,11.78.06-4.05.15-12.06.03-1.62.06,8.58.09-.16.09-5.68.03,2.32.06-.11.06,6.2.18-14.49.12,8.51.03-.05.12-7.24.03-.03.03,5.49.06-4.8.03-.81.03,1.55.06-.04.06,7.84.03-3.18.03-4.75.06,5.49.03-.8.09-6.32.03,2.37.03-.78.03,3.95.06-3.92.03.02.18,16.67.03-.77.03.02.15-19.51.15,8.18.06-5.38.03,7.17.03-.72.03,4.8.06-1.43.03-3.08.06,1.74.03,1.66.03-7.8.06,4.13.06,7.28.09,60.86.06-17.29.24-76.58.09-21.56.03,6.49.06-2.01.42,41.62.06-6.84.03,8.01.03-2.25.12,8.33.12-14.55.06,2.59.06,1,.03-.69.03-2.27.03,2.46.06-2.18.18,17.81.03.06.06-2.26.18-20.14.03,4.79.06-2.26.03-2.31.03,4.78.03-1.53.12,5.66.15-10.91.03,3.97.09,11.08.03-4.73.06-5.5.06.8.18,15.72.15-11.11.06,6.28.03-3.17.09-7.13.12,16.49.03-.82.12-9.56.06-13.42.06,11.03h.03s.15-3.99.15-3.99l.03,3.15.03-1.58.09-10.24.03,3.17.15,8.7.12-3.92.12,3.99.03-2.35.06,3.97.12,18.95-.06-22.88.12,20.5.12-10.24.06.81.03,4.74.03-7.09.06,4.76.03-3.14.06,3.18.03,3.16.15-17.25.03-1.55.03,1.61.06,11.08.06-2.34.09-9.4.03,2.39.03,4.75.09-2.32.03-1.56h.03s.03,7.91.03,7.91l.09-5.51.03,3.16.03-3.94.03-4.73.03,3.16.09,9.43.03-3.17.03-.8.09-7.13.06,8.63.06-5.57.12-12.71.12.68.06,9.38.06-1.67.03-3.99.03,6.26.03-.06.03,1.52.06-2.5.03-4.01.06.65.06,5.37.06-1.74.03-4.81.09,1.33.06,2.98.12,8.27.06-1.8.06-8.89.09,2.83.03,6.2.09-4.3.06,3.71.03-.91.03,9.34.09-6.69.06,12.35.06-5.79.06-18.38.06,10.81.06-1.03.06,5.28.03-.91.15-9.22.15,8.17.06-.99.03-5.61.06,6.13.03,8.58.06-2.56.15-11.43.03-.06.06-4.05.03,8.62.09-.95.18,5.27-.09-5.4.12,4.58.15-8.8.12,9.41.03-1.59.09-5.53.03,3.95.12-6.27.03,3.17.03.8.03-3.92.03,6.33.06-5.47.03-.76.09,3.24.03-3.12.06,4,.15,4.08.03.03.12-4.62-.06,5.46.09-5.43.09-6.21-.03,8.64.06-5.45.09-3.05.06.86.15,15.88.03-1.57.21-18.83.15,9.52.06-5.51.03,1.58h.09s.03,6.28.03,6.28l.03-.8.03-5.53.06,4.7.12,10.92.09-2.49.03-5.56.03,6.27.03-3.2.03,1.53.03-3.2.03-.84.03,3.89.06-4.83.15-3.41.12,8.44.15-12.13.12,7.66.09-10.41.09.65.03-.04.18,6.84.03-.04.09-7.2.03,3.91.03-.03.12,6.2-.03-6.28.06,6.26.03-1.6.03,2.34.03,3.13.03-.02.12-6.35.09-5.51.06.03.03,4.75.09-3.08.03-1.54.06,6.38.06-2.29.06,4.03.09,7.23.03-1.53.09-9.28.06,1.72.03-1.5.03,4.02.03.08.06-5.35.06,2.55.06,2.56.06-1.38.06-1.37.03.11.03-7.77.06,5.76.03,6.43.03-7.77.03,3.28.03-1.45.03,4.07.03-5.39.06,3.42.12-13.65.03.94.09,10.68.09-2.73.09-6.66.03.15.03.15.06-3.65.03,6.46.09-1.94.03-1.44.06,9.73.09-1.98.03-5.4.03,6.43.06-6.07.03.91.03-7.76.06,8.91.03,8.78.06-8.48.03.89.15-5.83.03-2.27.03,4.82.03-3.07.09,3.39.03-1.51.03.07.09-6.89.03,1.64.12,15.18.12-2.25.03-5.49.06,9.5.15-10.18.06,2.38.12,7.88.03-1.59.06,3.91.06-2.41.15-12.69.03.78.03,5.5.09-3.21.15,11.71.03-3.19.09-10.32.03,3.14.06,5.47.03-10.27.06,13.36.15-10.37.03,3.93.03,3.92.06-.83.03-3.96.06,4.71.03.77.03-.02.03-6.32.06,7.87.06-8.69h.12s.15,7.92.15,7.92l.15-5.48.03,3.17.06,7.9.03-5.51.03-8.66.09,4.8.03-3.13.03,7.12.03-6.29.12,8.77.15-12.49-.09,14.11.15-10.09.06-3.09.03,7.92.09-1.5.06-3.89.06,1.63.06,9.5.06-5.49.09-10.19.03,6.33.03,3.17.03-8.66.03-3.92.03,8.69.03-3.14.06-.77.03,1.59.12-8.65.03,3.16.18,14.88.03-.03.15-16.71.09,18.02.12-6.55.09-5.71.03,3.88.06,5.37.03-6.39.09-2.6.15,7.43.09-9.76.03,1.48.12,10.6.03,3.82.06-6.56.03,3.82.03-9.59.06,13.15.03-8.81.03-3.28.09,1.99.03-.92.09,11.43.03-8.02.03-2.5.03,6.97.06-8.15.03-2.49.03,2.24.12,6.59.03-1.71.03.66.09-5.09.03,1.46.03-.9.03,3.83.06-5.74.06-5.72.03,3.85.06,8.48.03-2.47.06-6.49.03,7.01.03-3.24.03-2.45.03,4.65.03-.08.03-11.11.06,7.75.06,10.11.06-4.87.03-.06.03-1.63.03,1.52.06,4.63.03-2.42.12-15.12.03,5.5.06,11.79.09-5.59.03-3.17.03,3.93.03,2.36.03-3.95.12-4.72.03,2.38.03-6.29.3,17.57.09-14.12.06,3.22.03,1.61.03-2.33.18-6.86-.12,7.72.15-3.74.09,12.71.06-.74.03.02.06-1.53.03.02.12,4.8.15-14.09.03,1.6.15,15.8h.03s.03-.81.03-.81l.03,5.51.03-5.54.03,2.35.18-17.44.03,4.72.06-3.19.12-4.02.03-10.27.06,2.34.09,24.34.03-9.51.12-11.19.12,6.93.09-8.8.03,5.48.06,3.85.03-4.78.03,6.26.03-2.42.03-.05.09-.95.03-7.15.06,3.85.03,1.53.03-5.57.06,3.85.09,3.8.03-1.63.03-1.62.03,1.53.15,13.17.09,6.93.03-1.63.06-4.83.06,2.28.03.75.03-.83.24-22.99.18,17.45h.03s.03-3.91.03-3.91l.09,2.45.06,5.58.03-4.7.09-9.31.06,4.07.15,5.08.03.08.03,5.6.09-3.69.06-6.12.06,2.57.03.89.03-.68.12-5.83.09,4.32.03-4.6.06,1.85.06,4.21.03-6.17.03,1.72.03-1.43.03-5.37.06,8.18.09,9.09.09-12.19.03.94.12,12.39.06-2.1.12-7.33.15,7.76.03-.66.12-6.6.09,16.9.03-6.21.03-5.42.09.31.03.1.09-14.68.09,4.24.03.88.03-3.06.06,4.11.09,8.1.03-6.25.09,4.91.03-1.53.12-13.98.03,5.57.03.04.12,10.38.03-6.29.06-3.89.03,3.18.09,3.98.06-6.29.03,5.53h.03s.09,1.57.09,1.57l.06-7.9.03,1.57.03-2.37.03.78.06-3.17.06.77.18,10.92.03-3.18.03,1.55.03-1.6.06-5.57.03,6.29.03-2.39.03-.03.09-5.59.15,13.28.09-11.11.09,1.53.12,5.46.06,2.34.09-11.07.09,11.81.06-.02.09-11.83.09,2.4.03-1.56.03,1.59.12,8.73.03-3.14.06-3.91.06.04.03.02.09-5.44.06,1.64.06,4.01.03-8.64.06,14.27.03-4.71.06,3.21.03,1.6.06-5.46.03,5.55.06-1.53.03,4.75.09-8.61.06,3.99.03-.77.03-4.71.06.83.03,7.12.09-3.11.03-4.72.09.82.06-.77.06,5.53.03-3.95.03,3.15.03,5.51.06-8.7.03,4.72.09,3.09-.03-3.13.09,1.49.03-7.13.09,3.84.03,2.33.03-8.72.06,3.86.03,5.47.06-6.42.03,3.89.03-.06.03-.85.03,1.51.06,2.22.03-2.44.03.71.15-13.78.15,10.6.03-2.47.03,3.84.06,5.3.06-2.6.12-8.34.06.56.03-.12.18,11.06.18-8.68.03,3.82.03,5.39.09-1.19.03,2.23.03-5.65.03-4.86.06,6.85.03-4.07.03,3.82.09-1.94.09-3.49.06,11.61.09-4.28.12-11.42.03,3.86.03,7.8.09-.27.18-16.94.03,6.26.06-2.45.06-7.17.03,7.07.18,9.28.12-9.54.03-7.89.03,8.68.03,7.88.06-11.83.03,1.59.09,8.7.03-.78.03-4.72.06,3.19.12,7.16.06-2.33.06-5.47.03.82.03,4.76.03-8.65.03,6.34.06,1.64.09-6.99.09,4.84.03-6.27.03,3.19.03,9.5.09-3.07.03,1.6.03-3.13.03-1.55.03,2.39.03-1.55.03.81.12-7.78.21,11.14.12-11,.09,9.47.03-2.37.06-7.1.09,2.35h.03s.03-6.33.03-6.33l.06,10.23.03-3.96.06,3.9.03-.03.03,1.55.03-1.61.15-3.33.03.75.09-8,.09,12.48.03-7.15.09-.15.03-7.93.09,5.38.03.74.03-5.57.03,11.78.12,8.42.03-.07.15-10.58.03,1.52.03-4,.03,1.52.06-9.56.03,8.63.03,12.56.06-8.79.03-5.57.06,4.65.03-.04.03,1.54.03-3.98.03.75.06,7.81.06-4.8.09,4.65.03-3.18.03-.81.03.77.03,1.56.06-2.38h.09s.06-11.78.06-11.78l.06-1.52.12,22.18.09-12.52.03,5.57.09,69.43.12-33.18.33-84.15.03.96.15,16.6.03-6.14.03,14.36.03.16.18,11.96.18,12.7.03-6.95.06,6.6.12,10.79.03-2.24.06.26.09-6.7.03,2.5.03-2.23.06-13.92.09,1.22.15,7.76.03.12.03,7.22.09-5.19.03.11.03-5.41.09.32.06,4.14.03-2.27.03-1.48.06.18.06-3.78.06,8.83.03-7.81.03,4.8.03,10.31.09-3,.15-12.39.03,7.14.06-7.03.03.04.12,15.08.12-17.29.15,14.99.09-7.91.06,2.35.03,3.14.09-.84.03-.02.03-2.39.03,4.71.03,2.34.06-1.64.09-10.33.06,3.9.09,3.87-.03-4.71.09,3.86.12-8.76.03,5.5.06-5.56h.03s.12,6.23.12,6.23l.03-1.59.03.77.03,6.29.06-8.71h.03s.06,3.13.06,3.13l.06-5.53.03,3.94.15,2.36.03-5.52.06,7.11.09.8.06-7.87.09,9.5.03-7.08.03.02.03-3.13.03.03.15,11.15.09-6.24.18,33.96.03-1.59.21-33.79.03.03.09,7.18.15-21.1.03-2.32.06.09.03,1.62.03-6.27.06,10.32.03-.76.03,4.76.03-7.07.09-5.44.03,3.18.03-.77.06,11.07h.12s.03-1.59.03-1.59l.06,2.34.03-.81.06,6.26.06-3.22.03-1.61.09-.13.06,9.36.03.72.03-.07.03,7.02.06-11.98.15-9.82.09,9.99.03-.88.03-7.19.06,9.27.09-3.47.03.68.18,2.45.03,8.54.06-7.37.18-12.58.09,13.81.09-4.35.06-6.57.06,4.48.09,1.98.09-14.56.12,2.71.18,14.33.06-6.53.06,4.52.03-1.68.03,6.99.06-8.87.03-7.97.06,4.58.09,10.01.03-4.02.09-.21.06,2.24.03-.85.09,1.42.03-7.14.06,6.23.06-4.01.03-.82.03,2.34.03-1.6.03-3.96.03,2.35.09,8.62.03-9.47.09,1.57.03-.78.06,6.32.06-1.56.03-.78.03-4.72.03,5.54.06-3.9.03,3.18.03-4.71.03,1.61.03-3.12.09.89.03.04.03-.75.03,2.4.06-3.08.03-3.9.06,4.82.06,7.17.06-4.65.06-3.07.03,4.77.06,7.95.06-3.89.03.82.03-.76.12-8.55.03.82.15,11.12.03-.78.09-7.07.06.8.09,7.88.03-3.16.06-12.62.03,4.73.03,6.3.06-3.19.06,3.91.12-17.42.12,18.83.03-1.62.03.75.03,5.47.06-.11.21-16.91.09,5.36.06-13.51.09,1.44.03-.83.12,11.62.06-.91.06,14.06.06-1.72.09-16.75.03,3.1.06,9.34.06-.91.21-15.3.06,7.82.03-7.13.03-.02.03-.81.03.77.03.77.06,7.85.09-.83.09-2.38.15,6.32.06-5.49.06,3.99.15,4.88.03-3.12.09,1.71.03,3.99.09-2.2.03.06.03-.72.15,10.59.03.86.03-.71.09-11.57.09-7.55.03.12.06,3.39.03-3.03.03.13.03-.66.09-8.25.03,3.3.18,11.11.03-.65.03.14.03,4.08.03-4.59.03-6.16.06,6.6.03,1.72.03-3.8.03-5.37.06,3.45.03,4.09.06-5.24.03,3.3.03-.65.03,2.5.03-5.38.03,3.29.03-3.02.03,4.87.09,8.25.03-3.83.12-12.14.03,4.85.15,11.57.06-7.7.06,3.33.03.87.03-1.5.03-5.44.06,6.47.09,10.43.06-3.06.15-8.47.06,3.23.03-.76.06-10.18.06,3.22.12,7.96.03-1.57.09-8.64.03,7.1.06-8.67.03,1.58.09,15.73.03-5.54.03-7.9.06,2.34.03,9.44.09-6.38.15-9.55.15,7.79.03-5.54.09,1.52.15,10.11.15-12.74.03,3.93.12,4.67.09-10.27.03,8.67.06-11.05.03,1.58.03-7.88.06,7.91.06,11.84.12-1.57.18-11.72.03,1.61.06-1.52.03-.75.15,7.27.03-.76.06-3.08.03,1.62.18,16.73.18-14.82.12,5.66.03-1.55.03-7.85.09,4.85.03-.76.12,12.71.03-.78.06-3.92.03-7.87.09,3.99.09-8.63.06,2.39.12,7.9.06-1.6.03.78.06,10.99.03-1.61.15-10.41.03.75.03,3.9.03-11.87.06,13.32.03-4.79.03,1.52.03-1.64.15-14.47.12,10.77.15-9.07.03,1.5.12,13.04.06-6.52.03-4.83.03,8.57.03-2.48.09,4.39-.03-4.61.06,2.13.03,4.61.06-6.56.03-4.85.06,4.49.03.66.06-.25.06,9.2.06-7.37.09-.39.03,2.24.09-1.97.03,4.6.06-1.84.15-7.69.12,13.73.06-2.6.12-6.74.03,5.42.09-.3.09-12.08.03,7.02.06,5.36.03-1.66.09-6.51.06,13.28.06-5.64.12-4.92.03,1.54.03-6.34.03,7.07.03-2.39.06,1.53.09-4.77.06,6.29.06-2.38.03-5.52.06,7.11.03.79.15,7.92.21-14.84.03.04.03,6.34.09-3.84.03.04.06-2.28.03,3.2.03-3.11.03.83.03-.74.03-7.84.06,13.5.03.04.03,3.19.03-.75.12-9.3.03.04.21,17.58-.15-18.29.18,11.99.18-17.98.15,9.57.03,2.37.03-4.73.03-3.15.06,18.92.06-4.77.18-19.01.03,2.36.15,6.98.09-11.92.03,8.65.03,3.91.03-4.77.06,4.65.12-4.91.03.74.06,3.05.03-2.42.06-5.62.03.74.09,5.36.09-11.19.03,2.32.03-.84.03,9.41.09-.95.03-.84.12,31.23.03-5.61.09-31.73.09,1.46.12,11.67.03-4.77.09,6.2.06-5.58.03,3.92.18,14.01.21-18.16.03-1.56.03,3.97.06,7.92.06-3.89.03-4.7.06,4.81.06,1.66.03-1.53.03-.74.12,18.33.03-11.78.09-16.32.06,2.56.09,2.66.15-8.11.09,12.19.06-3.7.03-.66.06,1.05.03.13.03-6.96.09,2.01.03-2.22.12,9.24.03-.65.09-10.61.06,4.25.03.15.03-.64.03.15.09,5.95.15-9.55.18,17.32.03-3.04.12-7.44.03,3.26.03,3.26.03-7,.03,6.41.06-7.69.06,14.37.06-5.36.03-3.08.09.22.06-3.02.03.07.06-.67.09,10.39.09.11.06-10.19.12,13.48.03-7.88.06-4.7.03,3.96.03,3.16.09-17.32.03,6.32.06,3.16.06,11.81.06-6.35.12-8.72.09,9.41.15-16.65.03,1.57.12,15.68.03-8.7.03,10.23.03-1.61.03,1.55.06-10.3.06,2.33.18-7.19.03.78.03,3.15.06-2.38.03-1.58.03,2.36.15,17.31.12-4.79.18-11.02.06-1.54.12,4.81.03-.77.03-.77.03,3.97.06-3.1.06-5.46.06,2.44.06,7.16.06-3.88.09-4.61.06.09.12,13.56.06-7.82.03-4.69.03,3.2.09,13.49.03-4.71.06-3.89.09.08.03,4.76.06-.75.03-3.92.03,3.96.03-.77.03,4.74.03-7.87.21-15.62.06,18.15.06-2.37.03-3.95.06,4.72.03-1.59.09.73.03-.03.03-7.12.06,7.83.03.75.18-14.43.18,13.06.06-4.09.03,2.29.09,9.2.03-7.98.06-4.92.15-11.48.03.7.06,7.69.06-1,.03-1.69.03,3.04.03-2.48.15,13.57.03-.14.12-15.5.03,2.24.03,6.18.09-1.17.03-2.5.03,3.81.03,6.17.03-11.96.03,1.45.03-2.49.03,5.39.18,9.45.09-10.63.03,1.46.03-.12.03,6.19.03-7.21.03-4.84.06,5.31.09-5.03.03-2.46.15,13.73.06,2.19.06-4.11.03,1.5.03-4.8.06,2.23.09,10.07.09-17.5.03.76.06,10.18.06-7.94.09,3.88.06-11.84.03,7.89.06,8.66h.09s.03,1.56.03,1.56l.03-2.36.06,1.59.15-18.82.06,8.75.06-.71.03.83.03-6.27.06,6.4.06.09.03,1.62.03-1.53.03-4.68.06,5.62.03-1.53.06,15.06.06-10.96.12-16.35.03,4.79.18,24.68.09-2.3.12-10.16.03.03.06,3.98.06-1.54.03-3.14.03.02.06,6.32.06-1.57.12-7.89.06,2.36.06,3.14.12,26.68.03-4,.12-25.38.03,2.33.12-8.02.03,1.54.06,8.59.03-8.72.03,2.32.15,7.62.12-9.69.06-.11.12,17.87.12-4.24.06,7.73.06-.16.12-23.11.03,3.11.06-7.18.03,6.27.09,12.48.06-4.04.03-.04.09-11.13.15,14.86.15-12.67.03,1.58.03-1.57.06-6.28.03,6.33.12,9.54.15-10.85.06,18.22.09-3.03.12-20.25.03.88.15,11.47.03.09.09,5.8.03-1.48.15-9.7.03,2.49.09,5.88.03-.67.03,4.06.06-2.12.12-9.74.15,10.13.03,3.28.03-2.24.03-6.18.06,5.79.03.92.06-7.62.09.41.18,18.08.03-2.26.09-31.17.06,9.73.03.13.06-.54.12,6.77.15-15.24.03,1.69.24,15.69.03-4.67.03-.72.15,15.2.15-15.6.06-.72.03,3.18.09-8.6.12,20.53.09-7.9.03.78.06,3.14.03-3.17.06,1.55.03-7.9.09,1.53.03,9.44.09-4.02.06-1.63.06,6.25.06-3.22.09-10.32.03,3.14.03,6.28.09-2.45.09-7.94.06,2.34.12-4.78.03,1.57.09-.02.06,9.44.12-11.83.18,10.29.06-7.87.06,3.18.09,9.49.03-3.15.06-8.64.06.84.03.03.12-3.82.15,19.07.15-17.99.03,1.62.03.83.09-4.6.03,1.62.12,12.77.03-7.85.06,8.74.18,6.43.06-7.85.06.04.06,7.91.09-4.71.06-13.38.09,3.97.03,6.31.06-8.67.03-1.57.03,1.58.12,15.72.18-15.91.06,1.52.03,7.06.06-8.75.03-.83.03.75.06,8.58.12-.26.09-14.39.03,7.03.12,12.27.03-3.25.03.69.03-2.47.06,3.74.15-7.64.03.68.09,7.53.03-3.28.09-12.19.09,2.01.03-.12.03.67.06,13.94.06-2.63.03.65.06-1.06.03-3.29.03,3.81.03-1.71.03,1.44.06-1.05.12-4.45.09,9.09.03-5.65.03-1.7.03,2.25.15,4.15.09-7.42.03,4.63.03.69.03-.89.03-.88.03-7.97.06,8.51.09-7.33.03,6.24.21-7.5.03,7.84.06-2.46.09-13.49.03,5.5.24,7.01.06-1.58.03-3.15.03,7.1.03.79.03-.78.06-7.86.09,1.64.03.03.03.82.03-3.13.03,4.76.03,3.18.03-8.64.03,7.92.12-6.95.09,7.99.03-2.33.03-5.48.06,8.75.03-.75.18-12.36.06-.7.09,6.44.15-6.91.12,6.45.06-1.53.12,4.81.03-4.72.03,2.38.03,9.47.09-4.74.03-2.37.03,2.36.12,9.38.06-4,.06-17.39.06,7.07.12,8.54.06-.87.03-2.41.06,2.27.03,1.52.03-7.15.09,3.78.03-.85.03-7.94.09,4.57.03-6.36.06,3.05.21,11.38.03-.07.09-12.02.03,5.46.03-.06.09-8.05.03,2.32.03,7.04.09-.95.03-.05.03,3.1.06-3.26.03,1.53.03.74.06,12.51.03-4.79.06-11.12.06,4.67.12-5.61.03,1.56.06,8.64.06-4.76.03-1.58.03,5.52.06-6.31h.03s.12,7.17.12,7.17l.06-.75.15-7.7.12,4.96.03,3.21.03-4.67.03,2.43.03-2.3.03,4.8.03.07.18,8.34.09-9.97.03,2.47.03.1.06-5.3.03.12.03,4.85.06-1.34.03-4.61.03,6.43.06-6.06.06-3.67.06,2.64.03.14.12-12.81.06-.48.03,8.04.03-6.95.03,7.25.03-.64.03.94.06,7.38.06-4.45.06-9.96.06,6.6.06,8.95.12-1.08.03-1.46.18,23.48.03-4.65.12-13.85.03.09.03.87.24-20.57.06,3.32.03-3.86.06-3.78.18,18.5.03-.75.03.82.12,3.26.03-.77.03-.77.03,1.59h.03s.03-.77.03-.77l.03.79.12-9.43.15,5.51h.03s.06,9.42.06,9.42l.03-3.18.06-11.07.09,3.89.06,7.84.09-3.24.09-13.47.03,3.93.03,7.08.06-7.92.03,7.08.03-.81.12-6.37.15,11.74.09-5.57.12-8.7.03.79.03,9.46.06-6.31.03-4.73.06,3.97.06,11.84.09-4.73h.03s.03,1.59.03,1.59l.03-3.15.12-10.94.15,12.74.06-3.9.03.82.06-7.03.06,1.65.09,12.71.06-5.46.12-8.52.03.04.12,8.03.03-3.91.03,7.13.03.03.06-7.04.06,3.22.06,2.41.09-10.96.06.85.15,26.85.06-11.85.15-12.62.09,8.66.03-5.54.12-11.09.03,1.57.03-.02.12,17.23.06-4.83.15-8.93.03-1.63.06,10.91.06-4.88.12,7.55.09-12.09.06.6.06,2.97.06-2.56.03.69.12-7.51.03,2.26.18,8,.03-2.49.06-8.9.06,5.29.03,1.46.03-1.7.03-1.7.09,9.09.03-5.65.12,15.25.03-7.23.06-.26.12,6.58-.06-7.63.09,5.92.03-1.71.06-16,.06,3.74.03-2.47.03.69.12,14.58.03-.89.03-.1.03-5.62.06,3.76.03.7.03-1.66.03-.08.06.64.06-10.39.09,11.65.03-2.43.09.64.06-7.18.12,6.98-.03-7.07.06,6.25.18-12.69.18,14.21h.03s.03,1.59.03,1.59l.21-15.6.12,18.25.06-2.31.03,1.6.12-10.12.18,8.89.12-13.24.03.05.06-1.48.09,6.44.03-3.9.03-3.9.03,2.41.15,22.98.09-14.94.06,1.61.06.02.03-3.14.06-5.49.03,6.32.06,4.73.06-.8.09-2.4.06,7.06.06-.84.03-3.97.09,2.26.03-1.61.06,21.97.06-9.6.06-24.54.06,8.59.03.74.09-.16.18,27.94.3-38.58.15,20.19.03-4.02.12-8.92.03.73.03-2.42.03,2.31.03,5.46.03-5.58.03,4.68.12-13.57.03,1.55.06,3.88.06-10.29.03,10.23.03,1.55.12,34.54.06-10.34.3-38.56.18,12.91.09-7.71.06,9.59.06-1.44.09,3.37.03-3.86.03,4.81.03,4.81.09-.54.12-5.92.09,7.41.06-2.15.09-10.69.03,8.01.12,6.78.09-6.73.03,4.07.09,5.89.03-3.03.18-14.17.18,15.77.03-6.18.03-6.96.09,4.34.18-7.89.03-.66.12,11.51.03-1.47.03.11.03,1.68.09-6.01.03.89.06,5.7.03-6.22.09,8.13.03,5.59.03-11.76.03,4.8.03,1.64.03-1.52.03-6.25.03,7.95.06-4.62.06,10.34.06-7.02.06-8.59.03,7.14.12,6.41.03-14.96.06,8.73.09,4.76.03-3.15.06-3.14.03-2.36.03,4.74h.03s.03,1.57.03,1.57l.03-7.1.06,5.51.03,1.57.03-6.32.09,3.92.09,10.2.06,6.25.03-3.19.21-19.88.03,1.57.03-.8.03-4.74.06,6.3.03-3.16.09-.8.12,17.29.03-.02.09-7.14.06.77.03.78.12-15.76.09,4,.03.81.06,10.28.06-7.08.03-4.71.06,5.56.18-6.92.03.04.06-1.5.06,4.81.06-4.65.03,2.41.12,10.39.18-14.72.03.84.09,6.44.03-4.69.03-1.53.03,3.2.09,16.65.09-3.09.15-17.22.15,10.37.09-3.11.03.8.06,2.38.03-6.3.03,10.25.06-6.32.06-5.53.03,7.88.09-4.78.15,5.39.03-1.61.03-1.61.06,2.28.03-.05.12-5.72.03.73.06,4.61.06-1.71.15-6.68.09,15.51.03-7.99.03-2.46.03,8.58.06-7.31.03-.89.06,7.67.03-3.27.15-6.08.03.68.18,11.87.03-5.65.09,2.76.03-.13.06-4.2.15.15.03,6.97.06-1.05.09-5.89.03,6.19.06-8.12.03-.9.15,8.9.03,1.46.03,6.98.09-2.71.12-16.15.06.64.06,7.74.12-.28.03-4.01.06,6.19.12-6.52-.06,7.2.09-4.87.06,5.44.03-4.77.03-1.61.03,4.7.06-6.36.03-.02.09,11.77.03-8.69.03,3.14.03-3.16.12-6.29.03,3.17.06-2.34.03-5.5.06,4.78.03.03.12,5.63.03-3.13.03-7.85.06,8.75.03-3.91.24,12.86.03-5.49.06,5.58.03.02.09-9.38.06.06.18,8.82.06-7.85.06,3.19.15,2.42.15-7.86h.03s.09,14.18.09,14.18l.03-5.54.09-11.07.03.78.12,25.13.06-4.83.03-.05.03,3.1.03-7.15.24-23.99.12,14.81.03-.05.03,2.31.03-4.79.06-5.62.15-15.17.24,18.58.12-10.43.03,5.48.03-6.35.06-6.37.03,8.64.06,3.87.09,3.82.03-3.19.09-7.98.18,24.27.06-11.1.06,3.11.03,9.44.06-1.63.06-15.8.06,5.52.12,8.68.06-11.02.06,7.92.06.04.03-1.55.03,5.55.06-5.46.06-6.22.06,4.05.09,2.54.03-3.88.03,6.37.06-6.17.09,4.96.03-3.86.03-1.49.06,6.48.03-4.64.12-10.62.06-.56.06,10.49.09-4.38.03.91.12,13.86.03-2.26.18-18.16.09,29.54.06-12.4.15-19.05.03,1.72.03.14.03-4.59.03,4.87.3,24,.15-20.04.09,5.82.06,7.26.03-3.08.09-13.95.12,3.47.03.07.06.14.03-3.88.03,4.8.06-6.97.03-6.24.03,4.8.03,9.52.09-3.02.03.04.09,9.56.03-7.07.03,1.6.09,22.89.03-5.53.09-25.21.06,6.34.09,13.39.03-6.32.03-2.37.12,36.97.06-12.71.15-40.26.15,10.28-.09-11.05.18,8.68h.03s.03-3.15.03-3.15h.03s.09,13.4.09,13.4l.03-6.32.06,7.88.12-.81.03-2.37.03,3.94.03,6.3.03-7.11.12-9.43h.03s.03.82.03.82l.06,15,.06-7.09.06.82.06-7.85.03.02.15,15.08-.09-18.98.12,13.47.15-16.42-.09,16.46.15-9.28.03-.75.12,14.32.03-6.28.03-8.64.06,8.76.03-3.91.12,10.38.06-2.31.03-6.28.06,7.94.12-6.98.06,3.21.03-2.34.12-7.77.03,1.61.12,9.54.03-6.3.03,3.96.03,7.1.06-8.67.12-11,.03,2.38.06-3.94.12,14.16.03-2.39.03,3.13.03,1.55.03-3.19.03,1.54.03-7.92.06,8.6.03-7.14.06-.08.06,6.21.03-6.37.03,4.67.03-8.73.09,5.33.03-4.01.06,6.17.21-10.03.21,10.34.15,8.06.03-2.5.03-4.86.09.4.15,9.56.03-.15.12-5.3.06,5.24.06-9.74.03,10.12.09,5.87.18-26.79.03,3.05.15,7.34.03-.11.03.68.21-16.38.24,18.39.06-2.49.03-.85.12-6.5.03-.82.06,10.18.06-3.23.06-3.99.03,2.35.18,19.57.06-3.99.15-29.15.03,2.4.03,5.55.09-2.27.12,9.59.06-4.67.03-10.21.06,1.67.06,8.76.06-4.64.09,8.8.06-1.5.06,4.81.06-9.39.03.04.06-8.58.03,11.09.06-7.02.03-1.53.03,1.62.03,7.92.06-3.09.03-8.64.06,13.47.06,8.71.06-3.92.18-7.84.15-3.13.09,7.08.03-2.38.06-2.39.03.77.18,15.57.12-15.94.03,6.27.09,11.66.03-2.43.03-9.52.06,3.83.03,3.88.03-9.53.06,7.76.03-5.59.06,3.03.03,2.3.06,36.87.06-25.45.18-46.07.03-.81.03-6.33.06,8.64.15,17.18.03-.83.06-.08.03-3.98.03,7.06.15,12.39.03,1.53.03-2.41.03-5.56.06,6.24.03-.03.03-.82.09-4.79.03,2.35.06-7.9.06,7.1.03,1.58.03-3.94.03,1.59h.03s.06.04.06.04l.06-2.32.09,12.68.03-5.5.06,4.01.06-1.5.15-13.93.03,8.75.06-1.44.09-7.64.03.09.09,13.68.06,15.92.03-6.24.18-31.67.03-1.44.09,15.37.03-4.61.03-1.45.12,14.7.03-3.82.12-20.76.09,4.38.12,13.94.06-12.35.06,4.22.06,14.44.06-6.07.06-10.79.03,8.8.03,6.42.09-3.62.09-18.58.06,4.19.12-5.06.06,2.59.15,6.78.06-4.56.06.16.15,5.08.03-2.31.06-2.25.03,1.63.03,2.41.03-1.53.03-3.9.06,6.39.03.03.03.82.03-.76.06-3.89.03,3.97.03,7.11.06-4.71.15-10.99.15,18.91.03-2.38.03,2.35.06-3.98.03-.02.06-5.55.03,4.72.09,7.02.15-11.95.06-1.61.03,1.56.03-10.26.06,10.24.03,4.71.03-7.9.03,2.35.15,9.39.06-.04.03-7.9.06,7.86.03,7.87.06-11.07.03-8.68.09.81.03,3.16.06-1.56.03-.78.03,5.53.09-2.32.12-5.44.03,3.97.09,7.16.03-6.29.09,4.03.06-3.89.03-1.54.03,4.77.03-5.49.03,1.62.03-3.9.06,3.24.15,10.43.03-4.7.09-9.34.03.83.18,11.26.09-3.86.03,3.18.12,11.88.03-3.94.06-12.59.06,7.13.09-11.8.03,3.17.09,6.32.15-11.05.09,11.01.09-2.44.06.73.09-6.41.03-.04.03.75.03,7.05.06-7.2.09-6.46.03,3.1.21,15.23.03-.88.18-13.98.03,5.42.03.68.03-4.05.03,6.2.06,5.29.03-.91.06-8.13.03,6.19.03,3.82.03-2.5.03-8.01.09,1.99.03,3.82.06-1.05.03-8.8.03,9.34.03-.13.15,11.14.15-21.16.06,3.71.03,10.13.06-8.14.03-2.48.09.46.06,3.73.03-.9.03-2.47.09,7.58.03-1.68.03-.89.03,4.63.06-2.56.12-5.06.03,3.08.06-4.08.03-4,.09,2.21.09,10.09.03-.84.03-.84.03-7.14.09.69.03,3.92.09-.85.06-7.91.06,2.36.03,9.46.06-8.68.09.82.06-7.06.03,4.76.03,2.39.06-3.89.03-5.49.03,7.13.12,7.22.03-.76.12-14.04.03,7.15.03.04.15,12.81.09-2.27.03-6.27.06,4.02.03,2.4.03-2.34.03-2.33.03,3.97.03-1.55.03,2.39.06-.74.15-8.55.06,2.42.03.02.15,7.15.15-11.82.06,8.67.09-1.6.03,3.14.06-2.41.09-8.73.03,3.92.06,7.04.06-2.44.03-.04.03.75.03-6.35.06,3.07.06,7.78.03-11.09.03-.05.03,2.32.06-3.25.03,3.1.09,3.77.06,7.75.03-4.02.15-8.21.03,2.3.06-9.58.03,3.1.09,18.72.03-4.02.12-8.94.09,14.78.06-3.29.15-8.96.03-3.2.06,2.28.03,3.11.06-4.02.03-.03.06,16.49.06-5.59.03-.03.12-5.6.09,11.79.03-1.59.12-30.7.09,11.95.12,14.32.15-19.42.03,4.02.09,8.11.06-14.02.06,4.92.03-.69.03.89.03,1.68.03-2.26.03-6.98.06,9.7.03-6.19.03-1.45.06,12.86.06-.54.03,1.7.09,19.25.03-8.57.03.9.06-10,.06.26.03.13.18-17.27.09-1.11.09,12.29.06-5.23.06.29.06,8.95.06-4.47.03-.65.06-6.03.03.14.03,8.02.06-9.21.03,4.07.06.25.12-2.68.03,1.69.03-5.41.03,6.42.03-1.47.03-.69.03.89.09,15.23.06-3.01.03-.72.06-3.03.03,7.15.15-13.14.03,4.78.03-7.05.06-5.42.03,7.14.09,18.2.03-.78.12-32.23.03,3.98.03-.76.12,11.88.03-.78.03.79.03-.79.03,2.36.03-2.37.03-7.1.06,9.46.03.78.12-7.92.06,7.86.06-2.4.03-.81.12,13.32-.06-13.36.09,7.81.06-11.08.03,4.71.12,13.28.03-3.19.06-12.66.06,8.63.03-1.6.03-7.9.09,2.34.03,4.72.06-7.11.03,3.94.09-2.39.03,11.04.18-18.9.12,16.62.06-10.22.03.81.06-5.47.03,16.58.09-10.2.09,3.23.06-8.61.03,9.5.06-2.31.06-6.24.03,4.77.12,9.58.03-6.28.06,8.73.03-1.55.06,1.62.03-1.55.03-12.59.09,6.41.03-1.55.09,11.89.03-6.29.06.04.12-9.38.06,3.98.09,4.76.03-6.3.09.02.03-1.57.06.79.09,2.35-.03-2.36.06,1.56.12-8.72.12,13.3.03-2.41.09-7.21.03,3.11.09,6.93.03-4,.06-.13.03,3.09.06-9.6.03,10.18.03-4.02.06-2.53.09,13.13.12-7.51.06,7.66.06-4.96.03-.12.09-9.03.06,2.13.09,13.03.03-4.08.09-8.27.06.54.12,8.93.03-4.87.06.52.03,3.81.06-4.21.03-2.49.03,5.39.09,9.06.03-7.23.06-.26.03,2.24.09-9.03.03.68.03,1.47.03-4.84.03,7.78.06,2.15.12-7.48.06,5.34.03-1.66.06-4.1.06,3.01.03,2.29.06-2.5.03-.06.06,5.4.03-2.42.09-11.17.03,3.91.12,8.54.21-14.28.09,13.42.06-1.57.12-10.19.03,2.39.03.81.03-7.07.06,5.59.06,6.37.06-1.52.12-10.88.03,5.57.03,5.56.09-1.45.21,5.78.15-6.14.06-2.29.03,2.4.03-2.33.09,10.33.06-4.69.09-10.17.03,6.33.03-2.35.03.81.03,4.75.09-1.55.09,5.52.03-2.37.06-6.32.06,4.72.15,5.4.03-4.76.06.72.12,7.71.03-2.42.03,3.1.06-4.06.03,3.09.21-13.83.15,13.86.12-14.48.06,1.44.06-4.07.06,3.03.06,6.96.03-2.44.06-9.59.06,2.25.09,5.34.06-.12.06-4.84.03,4.68.03-.05.09,5.36.03-3.99.12,5.34.03-6.35.06,3.88.09,5.42.03-3.97.06,7.05.09-2.42h.03s.09,7.06.09,7.06l.06-3.16.03-1.57.03,7.1.06-6.29.03.81.03-1.55.03-1.55.06-11.74.06.11.09,4.93.03-.72.09-16.29.03,6.41.12,8.28.06-5.31.09,9.79.03-3.04.03.12.03-.67.09,13.76.03-2.25.09-9.88.06,1.06.09-8.24.03,3.3.09,6.75.03-1.43.15-11.06.03-2.2.03,5.68.03-1.42.03,8.04.06-3.64.15-8.69.15,18.86.03-.66.03-6.97.09,4.32.12-10.55.12,11.48.03-6.21.03-5.42.06,5.72.03,2.46.03-2.28.12-13.83.06,4.91.12-5.99.06,9.6.09-2.19.09,8.02.06-3.09.09-5.43.03,3.97.09,4.78.06-3.14.03-.78.06,5.52.03-6.31.03.79.06,7.08.03-7.11.06-3.96.03.78.03,3.93.09-.83.09-3.2.03.77.09-6.34.12,16.48.03-4.76.09-7.96.03.77.03,3.14.06-1.62.15-4.01.09,6.27.06-3.18h.03s.09-6.32.09-6.32l.03,7.89.06-3.16.06-5.51.03,4.74.18,13.42.09-10.23.03,4.74.03-2.35.03.8.06-1.55.06,7.13.06.82.09-3.89.03.02.03,3.17.09-1.51.03-5.5.03,9.49.03,1.59.03-3.14.03,1.6.09-3.88.06,10.29.06-4.7.12,4,.06-6.28.03,2.38.06,20.51.06,59.03.06-19.88.12-42.74.03,7.86.03-2.39.21-75.51.03.06.51,42.66.12-3.34.03,2.31.03-4,.06,3.04.03-.85.03,1.51.03-.07.12,12.26.09-12.9.06,4.54.03-.1.03-7.99.03,8.57.03-.9.06-6.52.09,1.25.12,6.62.03-8.01.06,13.15.03-.14.09,5.1.03,7.74.06-4.25.15-15.68.06,3.68.06-14.44.06,9.23.09,11.44.06-4.2.09,1.99.03-4.06.06,2.92.03,1.46.03-2.48.03-.11.06,2.94.12,68.01.06-20.05.33-100.91.03,3.17.03,1.59.03-3.92.03-.76.18,42.69.12-7.87.24-9.2.03,7.93.06-8.59.06-5.4.15,19.17.03-.74.03.84.03.83.03-.74.12-12.41-.06,14.09.09-8.51.06,7.99.09-.65.03-3.11.03,5.57.06,5.59.03-11.79.06,14.27.03.02.06-2.32.12-8.57.03,1.6.03,2.39.03-10.23.06,14.23.06,12.61.06-4.76.18-7.19.03-.02.03,3.92.06-5.58.12-11.14.18,35.95.06-5.68.12-14.5.09,2.92.06-1.74.03,3.07.06-4.9.06-5.68.03.71.21,17.5.06-4.94.21-11.64.03-.08.06,13.24.06-8.05.06-3.3.03,4.66.03-3.23.03,2.3.03-.07.15-7.38.03-.83.12,7.72.06-6.37.06,3.1.12,5.45.06,4.71.06-3.17.27-18.67.03,3.21.18,9.86-.12-10.52.15,9.02.09-6.84.09.29.27,13.63.09-9.07.03.93.03,4.87.06-4.45.03-5.37.06,5.82.15-11.83.03,4.9.15,6.34.03.16.09-11.33.15,13.43.03.94.15-12.62.03,4.89.15,10.98.03-2.23.06.26.06,4.19.12-16.85.03,2.49.03-2.24.12,18.53.12-16.2.03,6.4.12,9.75.03-3.88.09-8.5.15,10.48.06,2.42.12-16.46.03,6.34.06,7.13.09-1.55.06-5.51.03,3.16.03,3.15.03-.8.03-4.74.03,7.09.03,3.14.03-.02.09-16.61.06.77h.03s.12-9.49.12-9.49l.03,5.52.03-7.89.06,7.87h.03s.03-3.96.03-3.96l.03,4.72.06-3.18.06,9.43.03-9.48.03-1.58.03,3.15.18,12.53.12-11.09.15,11,.06-10.26.06,7.09.06-5.52.06.79.03-.78.12-7.83.06,7.13.06-2.33.09,8.72.06-5.49.06-7.05.06,5.57.03.03.09,7.96.06-5.48.03.03.03-3.13.06,2.43.06,8.72.06-1.54.06.04.03-1.56.03,2.38.06-2.33.03-.77.09,9.5.03-5.51.09-9.42.03,7.9h.03s.09,3.96.09,3.96l.15-11.81.03-1.57.03,1.58.03-1.58.09,5.51.03-7.11.06,8.66.03-4.75.03.77.06,5.47.03-5.55.06-1.63.03,1.55.03,5.48.03-9.5.06-4.8.03,3.12.06,3.86.03,7.83.06-5.64.12-7.33.06,6.97.06-.94.03-4.02.09,1.34.03-.08.03-1.66.15,15.27.06-4.96.03-2.48.03,5.41.03,1.46.03-.12.03-7.22.03,9.35.06-5.77.06,3.7.03-2.49.09-10.6.03,6.19.18,18.15.03-.14.12-34.39.09,8.38.06,8.46.09-1.11.09-2.66.03.69.03-.09.03-6.4.06,4.56.12,2.83.03-8.75.09,1.38.06,9.33.06-4.85.03-.84.06-6.4.03,5.48.21,19.39.03-1.62.03-.83.15-16.67.12-11.03.03,3.96.06-.76.09,4,.03-4.71.09,2.45.15,5.67.03-3.13.03-1.54.12,14.31.06-2.32.12-6.99.09,4.03.03-3.92.03,8.7.03-.77.03,4.75.09-.75.09-10.99.03,7.11.09-11.78.06,4.76.03,2.38.06-1.56.06-6.29.03,1.58.03,7.89.06-3.17.09-7.9.15,10.94.06,3.88.06-7.96.03,11,.09-4.09.03-1.63.03.74.03,2.31.03-4.79.03,1.52.03,1.52.06-7.22.06,1.45.03-.06.12,6.02.03-.08.09-7.33.03,2.29.06,4.57.03-4.03.03-.87.03,5.44.06-5.69.03-1.66.03,1.5.15,4.31.18-12.32-.12,14.51.15-9.06.06,12.46.09-4.18.15,4.37.12-4.99-.06,8.8.09-8.07.09,4.58.03-.84.12-6.44.06-.04.06,8.64.03-7.9.06,10.23h.03s.03-.81.03-.81l.03,7.09.06-3.16.18-15.61.03,1.63.06-6.98.03,5.59.12,5.78.03-4.66.03,6.39.06,5.67.06-4.57.15-12.87.03,1.7.03-.66.03,1.7.03-1.45.18,15.75.12-2.62.09,5.93.03-3.8.06-9.16.06,1.89.06,4.25.06-2.06.09-13.71.09,4.44.09,6.79.09-1.89.06-7.57.03,8.04.03.15.15-6.35.15,10.14.18-12.66.03,1.7.03-10.13.09,4.3.06,8.89.09-.5.03-5.43.03,4.82.09,8.89.03-2.3.03-1.51.06,1.69.03.05.06-10.14.06,4.05.03-1.53.03,4.77.06-3.08.03-3.12.03,1.61.09,8.73.03-7.08.09.82.15,7.89.12-9.49.06,7.87.06-3.97.03,2.35.03-3.96.03-.8.03,3.14.03-8.69.09,2.33.06-.03.15,9.37.03-1.6.09-4.79.03.77.03-1.59.06,11.79.06-5.57.18-13.46.09,18.1.03-1.59h.03s.03,1.55.03,1.55h.03s.03-6.33.03-6.33l.09,3.93.06,2.36.15-12.57.03,1.59.03-3.92.03.81.03-.77.03-3.13.06.06.15,13.54.03-2.35.09-7.01.03,1.61.06,2.42.06-9.39.03,7.92.09,8.74.03-2.35.15-5.41.09,11.87.03-7.88.03-6.29.06,8.7.03.8.06-1.57.06,6.31h.03s.09-7.11.09-7.11l.03.78.12,3.9-.03-3.93.06,3.91.18-11.93.03-.81.18,10.83.03-.05.06-3.26.06,6.98.03-3.22.12-13.65.12.53.15,10.66.06-.97.06-12,.03,3.86.09,7.6.03-9.56.09.5.15,11.31.03,3.82.03-8.79.09-5.85.03,5.41.06-8.1.12,9.03.03-4.84.03,11.72.03,2.24.03-4.85.09-6.65.03,2.26.03,3.83.03-6.42.03,4.63.06-3.36.03,5.42.03-2.47.03,3.05.09,12.3.06-4.95.12-14.55.03,2.29.09,6.86.03-.08.09-6.51.06,14.07.06-7.23.03-.06.06-8.77.06.72.12,7.76.09-4.02.06,1.54.03-.8.06-1.6.12,9.43.18-14.15.12,9.54.03-.77.03.81.06-7.05.06,4.79.03.03.15,7.22.03-3.13.09-10.17.06,6.37.06,7.93.03-2.35.15-13.28.09,13.48.06-5.49.21-7,.06,2.38.03,10.25.06-10.27.03,3.94.09-16.57.06,9.45h.03s.12,10.94.12,10.94l.03-2.4.09-7.2.03,4.69.03,3.9.03-3.2.06-7.98.06,5.42.03-.06.06-5.63.03,7.04.03-.07.03-.86.03,2.29.03-1.65.03,2.29.06-2.52.03-1.66.03,2.29.12,4.38.21-21.09.03-.86.03-5.59.03,4.67.09,10.81.03-1.66.03-.08.09,6.06.09-12.05.03,6.24.03-.86.03,7.81.06-9.61.03,1.51.03-7.95.06,7.77.12,13.93.06-8.79.06,2.27.06-.88.03-5.56.09,2.28.09-.05.12,11.01.09-9.46.03,11.84.09-5.48.03,7.12.09-4.65.03-2.33.06.88.06,2.47.03-2.31.06-6.96.06.16.18,5.29.15-8.1.03.13.06,8.93.03-3.03.09,12.99.03-5.39.15-14.26.03,4.1.03,4.1.06-5.21.06.33.03-7.72.03,10.42.06-7.55.12,11.7.03-.63.15-14.16.06,3.5.03-1.41.12,10.09.12-5.71.12,10.02.03-3.02.09-3.55.09,10.6.03-5.41.09-3.62.03,1.68.09-4.44.09,5.79.03-6.23.06,3.32.03,1.65.03-7.81.06,3.29.18,22.31.21-26.6.03,4.76.03-4.71.09-7.8.03,2.39.18,17.39.15-13.43.06,4.72h.03s.12,31.44.12,31.44l.09,33.66.03-7.19.33-102.85.06,3.24.24,21.52.03,1.6.03-4.71.03,7.91.03-.77.03-.77.03.81.06-2.33.12,14.26.06,1.6.06-9.43.15,21.35.03-3.15.21-12.51.15,11.94.03-5.5.09.85.03-.77.06-3.91.06,10.29.06-5.49.03,5.53.03,3.16.03-7.88.03,5.53h.03s.03-.78.03-.78l.03,2.37.06-10.23.03,1.59.09,11.83.03-3.16.12-11.05.18,7.84.06-7.91.03,3.14.03,3.92.06-3.2.03-.03.03-1.6.12,13.25.03-1.63.06-9.56.06,3.84.03-4,.06,2.25.03,1.51.06-1.71.06-6.44.03,8.61.06-10.4.03.72.03-.86.09,10.79.03-3.25.03,1.49.03-.09.06-6.49.03,4.64.03,3.05.03-.1.15-13.12.06,11.62.06-6.53.03,4.62.06-.23.09-7.43.03,3.05.12,9.78.12-17.01.06,6.88.03,14.08.09-3.52.06,1.34.06-4.96.03,8.56.06-4.17.18-16.32.09,6.07.03-5.6.06,6.95.03-1.65.03,1.51.03,2.29.03-4.8.03,2.3.03-5.58.03,10.19.12,5.27-.06-5.4.09,3.76.06-5.62.03,5.47.03,2.32.06-3.24.03-6.34.09,3.07.06-2.41.03.77.03,4.71.03-7.9.03,2.36.06-1.59.03.79.09,6.31.03-4.73.03-1.57.09.04.12,7.17-.06-9.5.09,5.57.09-5.44.03.03.03.03.03,6.34.09-2.28.12,2.48.09-4.64.06.85.12,7.98.12-10.17.03,7.12.03,2.38.06-3.13.03-2.35.03,3.96.03,3.95.06-5.51.06,3.95.03-1.58.09,1.57.06-6.32.06,6.29.03-2.38.03-3.96.06,4.69.09-4.81.12,6.96.12-8.05.15,12.36.03-5.58.06,8.54.03,1.5.03-.08.15-17.7.09,5.31.03-3.23.03-.07.12-6.6.03,1.51.06,3.01.03-2.44.03-7.95.06,6.96.09,7.67-.03-8.6.06,2.21.09-3.36.03,2.3.12,9.19.03-1.65.06-.93.03-5.58.06,3.03.12,3.72.03-.05.09-8.8.06,4.67.06-2.43.09,13.33.21-27.65.03,11.85.09-2.3.15,11.97.03-.76.15,4.15.18-11.44-.09,12.4.15-9.07.03.09.06,6.49.09-.51.15-8.92.03-1.45.03,2.49.09,4.32.03-.66.03-3.81.06,5.01.03,4.87.06-8.4.03,5.66.03-11.68.09,8.35.09.45.09-12.94.09,10.73.03-.63.03.94.03-4.58.06,3.47.09,3.61.03-3.01.09-5.85.06-.49.06,8.18.03.93.06-9.18.03,9.6.03-1.45.03,2.49.09,2.73-.03-3.27.06,1.81.06-13.17.03,10.37.12,6.71.03-7.79.06,8.86.03-3.86.06-8.5.06,6.47.09-7.66.03-4.65.06,8.03.03-3.88.06,2.49.18,8.95.06,3.22.09-9.39.09-3.86.15,17.39.21-19.71.06,1.59.15,8.67.03-7.11.06,6.29.06,2.34.03-.02.15-11.07.09,4.71.06-2.38h.03s.12-7.89.12-7.89l.21,18.11.09-15.78.03,3.16.06,7.1.06-4.73.09-7.85.03,5.54.06-7.86.03,2.39.06,7.13.03-7.87.06-.74.03,3.18.06-5.48.12,18.2.03-.78.03,2.37.06-8.65.06,3.18.03,2.38.03-5.51.03.02.09,1.62.03-1.56.03,2.38.06,7.89.03-1.58.15-10.22.03.8.03-2.36.03,1.58.09,9.46.03-4.74.06-3.16.03,3.94h.03s.03,1.55.03,1.55l.09-7.93.03,2.35.15,8.55.06-10.32.06,2.3.03,2.33.03-4.77.03,1.54.06-.09.06,3.06.03,6.25.06-6.43.03.73.09-9.65.03,6.25.09,10.03.06-4.11.09-4.99.03,1.49.3,22.57.18-19.66.18-15.61.09-4.22.03,2.27.03.69.06-.98.09,16.26.06-.22.06-7.31.03.69.03,13.3.09-4.28.09-1.1.06,6.89.06-4.15.03-6.4.06,8.49.12,9.07.03-1.68.03-6.4.06,6.92.03-6.39.27-8.48-.18,9.04.24-8.34.03,6.26.06-9.54.03-1.61.03,7.86.06-12.66.03.78.03-2.37.12,11,.03-.8.03-2.37.06,2.36.03.79.03-7.88.06,10.26h.03s.03-.78.03-.78l.03.8.03,2.37.03-1.57.03-3.93.03,6.32.03-1.57.12-5.45.09,6.36.03-3.14.03-1.55.03,4.75.03-9.44.03-3.91.03,4.77.15,15.09.03-.78.09-10.98.03,2.39.03,1.6.03-6.29.09.85.09,12.65.03-5.52.09-3.14.03,3.95.06-3.15.03-3.94.03,3.94.06-3.16.03.78.09-4.75.03.78.15,14.08.06-5.59.06,3.08.12,5.33.15-16.8.03-.04.03,7.05.09-.95.03-.85.06-10.36.03,9.41.03-.06.03-2.43.03,3.09.03,1.51.03-1.65.03-6.37.09,1.38.12,6.82.12-8.95.03.72.03-1.64.03,3.88.09,5.31.03-.07.03-7.16.09,4.53.03,3.88.06-4.86.03,3.88.03-.85.03-4.79.03,8.62.03-5.58.03.74.03-2.41.09.66.03-.04.03-.82.03-3.97.03,4.7.06-3.21.03-.02.09.75.03-3.16h.03s.09,6.31.09,6.31l.15,13.42.18-18,.06-2.27.03.85.21,13.83.03-6.24.03,6.38.06-4.58.18-5.74.06,2.58.09,1.92.03-5.4.06,7.34.03,1.7.06-1.33.09-12.22.03,4.88.15,8.58.03-1.44.03,3.29.03-2.23.09-15.31.03,1.74.27,17.13.09-12.97.03,4.88.03,2.51.06-3.66.09,1.99.06-9.97.06,5.01.06,4.21.15,9.25.09-16.23.06,1.02.03,4.05.03-3.84.03-4.62.03,4.84.15,9.91.03-3.08.06,1.72.06,4.07.03-1.52.06-11.71.12,3.39.09,11.96.03-1.55.09-8.57.06.07.03,7.12.06-7.05.03.02.09,11.86.03-1.57.03-6.3.09,1.6.09-4.72.12,4.73h.03s.06-.8.06-.8l.09,7.07.09-15.8.06,4.73.12,9.42.18-7.94.06,6.3.09-.81h.03s.15-7.91.15-7.91l.09-.77.06,7.9.06,1.58.15-13.35.09,5.58.03-4.71.06.04.24,7.26.09,4.77.03-3.14.03.8.09-7.83.06,7.91.06-1.55.06.81.03-3.93.03,7.11.03-.78.06,3.16.03-3.16.09-1.58.06,8.66.06-3.97.06.77.06-8.7.12,6.24.12-9.54.06,1.54.06,5.46.03-5.55.03-3.97.09,2.27.15,6.09.06.67.15-6.62.09,5.31.03-.87.03-5.6.06,8.52.18-9.98.03-1.66.03,9.37.09-5.81.03,7,.09-3.47.03-4.84.06,7.67.03-4.84.09,7.55.03-8,.06,10.02.03-.91.09-12.96.03,6.99.06,10.01.06-4.98.03-4.06.09,13.81.03-.92.03-9.59.09,2.8.03-.12.24-19.75-.18,20.31.24-16.52.12,13.86.03-4.03.06-7.24.06,2.23.15,12.29.03-.07.12-10.46.06,5.43.03-7.14.03-.03.03-2.39.03,3.13.03-.81.06,1.53.03-1.6.03.77.03-.8.03,3.14.06-3.96.09,7.09.06-4.74.09-3.13.03-3.14.06,3.19.03.02.09-7.02.03.82.15,11.17.06-15.71.06,4.81.03-2.33.12,14.31.18-20.31.15,9.65.03-3.13.03,7.91.03-.77.06,12.64.06-8.67.03-2.36.09.8.06,7.88.03-6.32.03-1.58.03,4.72.09-2.41.09-1.63.18,5.34.06-5.6.03,7.06.03.74.03,4.68.03-4,.03-7.94.06,9.35.03,4.66.03-4.8.09-7.29.06.66.03,1.51.03-5.59.03,7.03.03-3.23.06,5.37.06-1.74.06-3.31.03,4.65.3-12.59.24,13.61.12-7.38.06,2.24.15,7.57.15-8.14.03,4.69.03-4.77.06,3.09.03-.82.03,5.49.06-4.79.03-2.38.03,4.72.03,2.35.03-7.11.06,7.09.03-.79.03,1.58.03,2.37.06-3.14.06-4.69.06,4,.03-.76.06-11.74.09,4.91.06-3.03.03,6.38.06-4.59.03-6.22.06,3.33.06-.6.06,2.57.03-2.26.03,2.47.06,8.88.03-5.41.03-2.25.09.36.03.91.03,4.86.03-5.39.06,4.2.06-9.19.03,3.3.18,18.94.06.26.09-9.85.03,5.66.06-6.82.18-18,.03.16.21,8.99.03-3.01.06,9.74.06-6.82.03-2.23.03,5.66.06.26.03-9.33.06,2.63.03,4.86.03-.67.15-12.79.15,10.79.03-.69.03,1.67.06,9.62.03-10.18.03.08.03,7.17.09-2.17.21-5.92-.15,6.04.21-5.15.12,9.6.09,10.28.03-5.51.06-13.38.06,8.7.24-14.12.12,4.77.03-8.67.09,4.76h.06s.03-3.14.03-3.14l.09,11.83.06-5.54.12,8.64.06-.82.06-7.11.06,4.72.06-4.74.06.78h.06s.06,5.5.06,5.5l.06-4.74.03,1.58.09,9.45.03-1.59.03-3.95.09.78.06-3.15.06,11.04.06-8.68.09-10.22.03,7.9h.03s.09-9.4.09-9.4l.03,3.97.15,11.89.06-10.22.06,3.97.12-8.6-.06,9.42.09-6.24.15,9.52.15-9.41.03,1.59.15-6.25.03-3.14.09,11.84.03-3.95.03,2.36.03-2.37.03,2.36.03-3.16.03.78.03,5.51.06-7.92.06,2.33.03,3.92.06-4,.03-.03.09-3.24.03,1.54.06-.87.12,6.9.03,2.31.03-5.58.03,5.46.18-12.24.03.72.15,9.86-.09-10.8.15,5.88.06-4.12.15,11.33.24-16.58.03,2.27.03-.89.03.69.18,10.38.12-11.48.03,3.84.03-.9.03,2.26.06,10.81.09-.35.03,2.25.03-5.64.03-2.48.03.68.06,5.3.03-5.63.03-.1.03.69.03,6.21.09-2.67.06-6.49.06.62.03,1.5.03-2.44.03-4.02.06,5.38.06-1.71.06,1.45.12,6.08-.06-6.2.09,6.14.03-5.57.06,4.64.03-.04.06-1.66.03.75.15,3.01.03-.81.06-9.49.03,3.94.03,7.88.09-3.18.03-3.94.06,2.37.09.81.03-3.14.06,4.76.03,5.53.06-6.29.03-2.35.06,3.98.03-2.35.03,3.96.03-7.87.06,7.14.09-9.38.03,4.76.12,11.9.12-23.58.06,1.65.09,10.33.03-3.13.03-1.55.03,4.75.06-6.27.06,2.4.12,7.12.15-13.41.03,5.52.03,2.36.03-3.16.03,1.57.03-5.53.03,9.45.03-1.6.03,7.86.09-2.47.03-7.13.06,6.24.03.75.03-5.56.06,3.85.03,2.31.03-7.15.06,6.99.12,6.04.15-9.83.06-3.3.06-3.29.03,3.08.03,5.44.06-5.68.12-8.97.15,10.67.03,1.49.03-8.75.06,3,.03,3.86.03-4.81.03-6.38.06,5.38.15,10.66.18-9.09.03.73.12,5.3.15-6.52.06-.85.09,9.39.03-.81.09-.05.03,4.72.09-14.97.03,6.33.12,18.15.06-14.95.06,11.89.12-14.04.09,4.12.12,21.51.03-6.25.15-17.71.06,4.15.06,10.46.06-6.89.15-28.48.06,2.69.03,3.32.09-1.08.03-.62.03,4.9.09-.28.03-.62.03.17.03-3.77.03,5.7.09,12.32.06-5.2.09,8.36.09-1.12.15-10.26.03.16.03,4.89.06-6.01.03,5.67.03-3.8.03,4.09.03,2.5.03-3.02.03-4.59.06,1.07.15,11.63.03-.68.03,3.26.03-5.42.03.1.09-4.43.06,9.64.06-8.52.06-6.14.06,2.52.06-.64.03,3.22.03,8.73.06-7,.03-3.89.03,4,.06-3.85.06-3.85.09,2.49.03,3.98.03-5.49.06-4.67.03,6.34.03.02.15,4.8.06-7.08.03,8.68.03.79.03-1.58.03-6.31.06,8.66.03-1.59.03,3.93.06-2.4.03,7.08.03-13.42.09,3.89.06,3.12.03,4.71.06-7.93.12-8.71.09,11.01.03-1.59.03-9.47.09,3.15h.03s.03,1.57.03,1.57h.03s.06,2.36.06,2.36l.06-6.31.12,10.24.03-2.37.18-9.42.03,3.17.03,1.59.03-.77.06,2.4.06-7.06.18,17.45.03-2.36.12-9.39.03.03.15,11.13h.03s.12-13.29.12-13.29l.03.03.12,3.27-.06-4.79.09,4.02.03.81.15,7.96.06-7.86.06.81.03,6.32.06-7.09h.03s.09-8.64.09-8.64l.03,6.32.03,4.73.03-11.04.03,3.16.09,9.44.09-1.63.06-7.14.03,4.71.09,5.42-.03-5.48.06,3.08.06.7.06-8.76.03,5.48.06-4.04.06-1.68.03,4.67.06-8.01.03-2.42.03,1.52.18,13.74.03-.09.06-6.5.03,8.58.03-4.83.03,1.48.03-2.47.12-8.29.09,9.14.06-.23.03-4.85.06.56.03,3.83.03-7.21.03-.9.06,11.59.09-.38.06-8.14.06,6.85.03,1.45.03-.13.18-11.76.06,12.39.09-.34.03-11.15.06,7.68.06,4.52.03-3.26.06-5.72.03,3.06.09,6.02.03-1.67.03,2.28.06-2.54.06-7.25.03.72.09,10.83.03-2.43.15-13.65.15,12.44.12,3.81.03-.82.03-8.7.06,11.79.03-6.33.06-1.6.06,11.02.06-3.18.03-2.37.06,3.15.03,2.36.03-4.73.12-20.4.12,15.89.03-1.55.06-3.1.18-8.46.03.04.03,7.93.06-8.6.09.92.03-.75.06,14.26.09-.72.15-9.35.09,11.88.06-3.15.09-7.08.03,1.58.03,1.58.03-4.73.06,4.72.06,9.43.06-3.99.09-7.17.03,3.13.03-.03.03,3.91.06-5.6.03,3.9.03-5.56.06,2.27.15,13.11.06-4.88.03-7.96.06,10.89.03-7.18.03,1.5.03-1.66.06-10.4.06,2.22.09,3.71-.03-3.86.06,2.99.03-4.81.06,2.21.09,19.43.06-5.72.03-.1.03,1.48.12-15.34.03,1.5.03.71.06-8.03.06,3.8.06-4.86.03,6.24.06-2.5.06,10.12.09-8.07.03,6.25.03,2.31.03-2.42.09-11.95.12,12.48.12-11.12.12,13.38.03-.79.12-8.64.09-12.51.03,4.78.06,9.56.03-7.05.03-3.09.03,3.22.09,9.65.03-3.09.03-.71.03.08.03,1.66.03-7.01.06,6.5.15,9.94.12-2.74.03,2.48.03-4.62.03,4.06.15-18.25.03-3.79.03,6.47.12,38.42.06,49.84.06-11.71.15-50.69.03,11.17.03-3.82.21-70.46.54,49.71.03.13.06,4.18.06-.56.06,1,.15-11.32.18,11.54.15-6.78.03-.73.06,13.49.06-7.02.03.04.03-2.33.06.06.15,8.76.03,1.58.03-2.36.12-11.02.03,3.95.03,5.52.09-3.96.06,7.86.06-5.56.18-11.91.06,3.14.03,3.93.03-7.11.03-2.37.03,2.36.15,10.97.03.77.15-6.4.03,3.93.03-2.38.09-13.41.03,3.95.06,5.52h.03s.03-5.52.03-5.52l.06,3.96.03,7.1.06-5.52.03-1.57.03-7.87.09,5.57.09,9.5.06-2.34h.03s.09,7.15.09,7.15l.03-5.51.09,5.57.03-3.93.06-3.11.03-3.92.03.03.03,7.91.06-7.05.03-1.54.03,3.98.03,3.18.03-4.7.03-3.12.03,2.4.06,7.16.03-8.65.03,3.98.06-2.31.06,5.58.03-4.7.06,2.42.03,2.39.03-1.55.03-8.65.06,4.79.06,6.35.03-5.5.06-3.9.06.04.12,4,.03-2.36.03,4.74.03,2.36.03-6.31.03-2.36.03,3.94.12,3.89.09-4.79.03,5.49.06-5.58.03.76.03,3.91.09-.92.06,3.84.03-4,.03-.06.06-4.85.03,3.09.03,3.88.06-3.3.03-3.23.03,7.02.03-1.66.03-2.45.06.62.09-.28.06,4.53.15-6.05.09,3.61.09-9.8.03,6.2.03,3.04.06-3.39.03-5.64.06,5.29.03.67.12-7.57.03-.9.12,11.35.18-13.33.03,2.26.09,13.06.06-1.81.06-4.16.06,1.36.03-.1.12-12.99.03,4.65.09-2.61.06,9.31.03.71.03-.86.03-.86.12,10.75.03-4.8.06.67.09-7.24.09,12.49.03-3.99.03-6.35.09,3.07.03-.03.03-4.75.06,1.55.15,5.47h.09s.06-8.68.06-8.68l.06,4.76.09,6.34.09-2.32.03.02.03-.77.03.81.09,7.15.06-2.33.12-6.22.03.81.06-2.31.12,4.83.06-7.83.03,4.76.03,3.18.09-1.52.06,8.7.03,3.94h.09s.21-21.3.21-21.3l.03,1.58.03-6.3.06,3.96.06,7.88.06-4.75.15-11.08.06,2.34.03-.02.12,7.78.03-3.19.06,4.65.03-.05.06,5.42.06-1.69.06.67.06-8.01.15,13.06.03-2.45.03-4.81.09,2.12.09-5.76.03,3.86.09,1.33-.03-1.49.06.62.03-4.81.06,7.72.12-5.85.03.71.03-.08.09-4.94.06,9.32.06-3.29.09-8.07.03,8.62.06-3.26.03-8.72.06,9.38.15-9.64.03,4.71.09,4.67.06-7.12.03,7.88.03-3.95h.03s.06-2.35.06-2.35l.24,20.59.03-7.07.09,3.26.03.04.03-10.2.09.18.06,8.02.06-4.58.06-3.77.12-5.9.12,8.34.03-7.77.06,3.4.12,7.61.03-6.96.09,3.57.12-6.5.03-7.73.03,10.41.06-6.78.03,6.47.06-.47.12-6.43.15,13.41.06,1.88.03-2.22.03-6.16.09,3.6.06-6.8.03,6.46.03.14.12,9.99.03-2.24.15-12,.09,13.75.09-3.63.03,1.67.03-3.85.03.09.12,16.85.03-7.04.18-25.58.09-2.93-.03,3.08.06-1.43.24,10.66.03-.76.03,7.91.06-.75.03-7.08.06,4.77.03.8.03-2.36.06,3.95.03-2.37.03,3.94.03-3.16.03-5.52.09,1.57.09,12.56.03-1.6.03-.02.06-3.99.09-10.29.03.78.12,7.82.12-7.94.03.78.03,4.72.06-5.55.03-3.95.06,3.93.03,5.51.06-6.32h.03s.09,11.01.09,11.01l.03-3.17.09-5.54.03,4.73.03-8.67.03-7.87.06,8.71.09,10.27.09-4.71.09-7.83.03,3.97.03-1.56.03,3.18.03-1.56.09,10.31.06-1.54.03-.77.03.02.06-7.04.03,5.55.06,2.41.03-1.55.06-2.31.03,2.39.03,5.54.03-7.08.06,3.99.09,2.42.09-9.39.03,6.33.03,3.96.03-7.87.03,1.6.06,3.2.03-8.66.06,11.08.06-5.49.06-7.06.09.05.15,7.91.06-.8.12-11.06.03,4.73.03-4.74.03,4.72.03-4.75.03,6.29.03-1.6.06,5.46.12,7.7.09-19.85.06,3.85.03-2.42.06,3.84.03,2.3.03-3.22.03-3.22.03,5.45.03,1.5.03-2.44.06,2.21.03-.87.12,5.94-.06-6.12.09,6.02.03-.89.12-9.87.03.69.06,6.88.06-4.17.12-5.18.15,10.45.03-1.7.03,3.82.03-3.28.06,6.05.03-5.65.03-7.22.09.43.15,7.28.03.67.03,3.82.06-5.77.03.67.06-3.38.06.57.03,6.2.09-3.47.03,2.26.03-3.25.03,2.27.12-6.67.06,1.42.03,3.08.06-1.73.06-3.28.06,1.46.03,3.1.06-4.05.03-.05.15,11.61.03-1.62.03-6.34.06,2.31.03,4.7.09-2.44.03.77.03-3.17.06.77.03,1.57.09-14.17.09.85.12,8.75.03-.77.15,9.54.06,3.18.03-4.72.03-.77.21-15.55.18,19.89.03,5.53.09-2.33.03-4.72.03,7.11.03-.79.33-21.21.12.02.06,14.19.09-3.99.09-6.36.03,4.71.03,1.55.09-.1.03-4.77.06,4.66.03,7.84.09-3.31.03,2.31.09-13.57.03,2.31.18,13.02.06-17.49.06,7.75.03,1.5.03-6.38.09,2.94.03,1.5.03-5.59.09,1.36.09-1.79.06,6.95.03-.86.12,6,.15-16.11.03,4.68.12,13.94.18-9,.03.75.03-.04.09-7.17.03,3.14.12-6.34.12,7.11.06-3.13.09,4.79.03-.76.06.06.03-3.9.03,4.77.09-1.43.09-6.12.12,15.26.03-3.08.03.08.06,9.61.06-5.36.15-10.53.09,2.72.03-1.46.03.91.03-6.18.03,5.65.03,6.44.09-3.55.06-5.24.03,3.3.15,16.45.21-32.1.09,2.88.03,2.54.06-4.39.03,4.11.03-5.35.06,5.86.03-2.2.03.16.06,5.05.06-2.06.06-11.51.06,5.84.21,15.14.12-9.77.06,1.81.24,14.92.12-13.13.03,1.65.12,8.89.03-1.54.06.08.03-3.12.06-7.81.06,5.59.03-2.34.06,1.63.09,11.86.06-3.95.06-7.88.06,5.52.09-4.75.12,10.19.03-.81.03-.02.06-1.63.03,5.49.06-4.01.03-1.61.06-9.51.06,3.11.09,8.6.06-.06.09-6.39.03,5.5.03-2.39.12-11.1.09,16.52.06-7.13.03-.8.03,4.72.06-4.75h.03s.03-9.47.03-9.47l.03,7.89.03,10.25.06-2.39.12-15.74.09,15.8.06-4.72.03,1.59.03-.78.09-11.76.12,1.71.03.04.12,8.03.12-6.96.21,10.52.06-9.39.06.07.12,11.95.03-3.13.03.03.03,3.97.06-4.69.03.81.06-9.41.03,10.28.03,4.75.03-7.09.03-2.35.09,1.62h.03s.03.81.03.81l.03-3.15.06,1.58.03.79.03-8.67.06,7.1.06,6.28.03-5.54.18-6.43.12,8.53.06.69.06-7.99.15,8.37.09-9.67.03,7.02.03-3.23.03,5.44.06-4.12.03-.09.03-4.82.06,2.19.03,3.06.06-3.35.03-.1.15,8.91.03-1.7.03,2.24.03,1.45.03-2.49.03-.13.21,17.18-.12-17.57.15,10.32.09-16.96.09.41.21-18.12.06,5.33.06-.2.06,7.69.03-8.77.06,10.06.03-.89.12,12.99.03-1.68.03,1.48.03-2.46.03,1.48.06-3.34.06,1.41.03-8.75.06,14.04.06-.95.06-14.32.06,9.36.06-1.69.03,2.32.03-.05.18-11.23.03-.02.12,7.04.03-3.17.03,3.94.03,3.14.06-3.17.06.79.06,7.09.03-1.58.09-7.08.03,4.74.03.8.15-10.17.09,6.38.03-5.49.03,6.34.06-3.1.09-6.22.03,6.34.06-7.04.03,4.77.03-3.12.03,3.19.15,14.28.03-2.36.09-7.06.03.8.06,5.54.06-3.15.03.79.06-8.66h.09s.12-9.45.12-9.45l-.06,9.46.09-9.45.15,11,.06,4.68.06-4,.03-.03.03,4.7.06-3.24.03-.83.06,7,.06-2.47.06-5.62.06.68.03,3.88.09-1.77.03,1.51.03-3.22.15-10.56.03,3.09.15,9.13.09-8.89.06,2.23.03,3.87.03-1.65.03-5.59.03,4.67.15,8.31.18-13,.03,8.62.09-3.32.06,1.48.09-8.79.03,5.49.06-9.51.03,5.5.06,3.91.15,18.03.03.76.03,7.07.03-6.33.18-22,.15,7.29.03-.74.06-3.05.03,3.21.03-2.3.03,7.16.06-10.91.03-2.28.03,6.39.06-3.77.03-1.48.03,2.47.06,8.08.06-1.38.09-7.55.03,3.28.03,2.49.03-3.82.03-.66.09,9.85.06-2.11.09-5.89.03,3.3.09,9.88.03-3.81.12-5.72.03,4.88.06-5.22.03.15.12-4.9.03,2.52.03,8.04.09-3.5.03,4.88.09-1.15.12-8.9.03,5.66.09-1.95.09,2.75.03-10.91.09,5.89.03.91.06,8.1.03-7.78.06-6.88.03.9.12,5.91.03-4.64.03.88.03,7.18.09-2.15.03.85.03-2.3.03,1.64.03-8.61.06,8.79.03.05.06,4.81.03-4.7.09-4.63.09,7.96.03-3.93.03-5.5.06,5.55.03-3.93.18,10.26.06-7.11.06,2.35.03-.8.15-14.23.03,14.19.09-8.72.03.78.03-3.17.03,4.72.03-.02.06,9.42.06-5.57.06,3.9.03-8.7.06,9.42.03-.81.09-7.15.03,6.29.09-1.63.03-.02.06-7.12.03,7.88.12,3.1.03-.8.12,8.63.03-2.38.12-10.26h.03s.06-10.21.06-10.21l.06,3.2.15,11.13.03-1.56.09-9.38.03.82.03.03.06,3.22.12,4.85.03-3.13.03,5.55.12,4.83-.06-5.57.09,4.01.06-13.34.06,7.95.12,5.61.03-3.13.03-1.55.03,3.96.03,1.59.09-12.55.03,4.76.03.02.03-3.92.06,6.35.03-3.93.12,8.71.18-16.55.12,11.03.03-.02.03-.02.12-5.61.06,5.46.03-5.56.06,5.44.06-3.25.06-6.4.03,7.84.03-3.21.06-3.27.03,3.09.06-1.72.06,10.89.09-6.56.03,2.28.03,1.48.03-8.77.06,5.33.06,6.1.03-2.47.15-13.14.06,2.16.03-.11.12-6.73.15,11.26.06-9.69.06,4.5.03-.12.03,11.71.09-1.18.03-.13.12-10.72.03,6.98.09-3.5.03,3.83.03-.11.03-8,.06,7.67.06-.21.06,4.52.03-.89.09-9.75.09,2.11.24,10.41-.18-12.94.21,10.5.03-5.58.06,6.97.03-3.21.03,3.1.03-1.63.03-5.57.06,7.8.06,1.49.06-6.38.06,10.98.06-8.73.06-.83.03,2.35.03-1.59.03-5.53.06,5.51.06,1.57.06-9.45.06,7.12h.03s.03,3.96.03,3.96l.06-5.5.15-11.7.15,15.13.06,1.62.09-5.45.03.82.09.87.03-6.28.03,3.19.09-2.27.12,9.55.03-3.14.03-4.71.06,3.19.03,1.59.06-6.28.06,3.96h.03s.09,9.46.09,9.46l.06-.02.09-13.43.03,5.51.09-.05.03,3.13.12-7.21.03,5.49.03-7.92.03,3.12.03-3.98.03,2.33.03,5.48.09-2.5.12,9.24.09-8.07.03.73.03,6.24.09-3.37.27-10.86.06,2.24.03-2.43.06,2.24.03-.85.03,5.45.09-.21.06-7.22.06,2.24.12-2.58.03.74.03-.05.06,5.42.03,7.04.03-7.94.06,3.85.06,4.64.03-5.56.03-2.4.03,3.12.03,2.33.03-3.97.09,1.53.06-14.99.12,18.93.03-2.37.03.79.03-.78.03-5.5.06,3.99.03,1.6.09-6.2.03,2.41.12,6.5.15-8.35.03-4.65.03,7.97.03.87.06-6.91.09.31.03,3.26.03-4.62.06,3.39.03-8.55.06,12.87.03-6.97.09,6.71.03-4.6.06-.51.12,5.3.06-10.74.03,4.1.06,12.12.06-2.87.18-14.83.03,4.11.06-2.83.12-5.65.06,12.93.06-6,.03,1.73.03-5.37.06,3.45.09,7.52.03-3.02.12-6.57.12,6.79.03-1.47.03-6.98.09,4.26.18,5.27.03-3.08.03.86.03,8.74.06-6.98.06-1.46.03,10.3.09-2.25.03.82.03-6.28.03,7.91.03-1.56.03.02.03,8.69.06-4.73.09-13.38.03,2.38.15,15.74.03-1.6.24-15.93.03,3.14.03-.81.03-5.54.06,4.69.03,4.71.06-5.57.03,4.71.15,9.29.03-1.62.06-8.74.03,8.64.06.71.06-1.65.06,8.6.06-6.38.06-13.46.12,1.51.03,6.29.06-7.91.03.78.03,5.51.06-3.17.03-4.73.06,2.37.03,3.95.03-3.15.09-10.98.03,5.54.06.84.06-3.89.15,10.39.06-7.04.03,1.61.12,11.95.15-13.22.09,13.52.06-.73.03-3.91.03,3.98.15,19.82.06-7.87.24-28.95.06,4.02.15-10.86.03,8.71.09-2.28.18,8.74.03-.79.03-.79.18,7.79.18-8.09.15,6.85.12-8.13.03,2.3.03-1.65.03-5.59.03,7.03.03-.87.03-1.66.03,3.07.06,9.27.06-4.93.03,3.05.09-1.12.09-10.58.06,2.94.06,11.59.09-2.75.03-6.44.06,3.69.06-.27.12,9.7.03-.14.21-11.99.03-.13.12-6.79.03,8.56.09-1.93.03.67.03-.11.03,4.62.03-7.21.06-6.51.06,2.18.15,9.78.03-.88.03.7.09-8.91.03,4.66.15,9.89.09-6.49.12,6.1.03-.05.03,2.32.03-5.56.09,1.48.03-.03.03-.81.06-6.34.03,1.57.12,17.3.06-4.77.06-9.47.03,3.16.03,5.52.06-6.3.03,1.59.18-17.2.03,3.98.03-4.69.03.83.03.04.12,16.7.06-6.26.03-5.49.06,7.16.03-.76.03,3.18.09-2.29.06-6.25.06,1.64.03.82.15-7.75.09,15.04.03-.78.03-6.3.06,7.89.09,21.24.06-4.01.03-.82.06-11.88.06,3.89.21-26.99.03,1.56.39,15.21.03-.06.06-.13.03,2.3.24-18.62.03,5.46.03,3.09.03-7.16.03,3.1.06.67.09-4.11.06,9.35.06-6.43.06,3.04.06-2.48.03-2.42.09,12.45.03-7.15.03-2.41.03,5.48.03-.05.12,10.06.03-3.99.03-.83.03,3.12.03-2.4.09-18.21.03,8.67.03,7.87.09-3.97.15-9.4.03.03.18,8.1.09-3.79.03.85.15,8.99.03-3.87.06.94.06,4.89.03-3.07.06-7.69.06,2.58.12,9.11.15-8.87.09,7.48.03-3.81.06,3.42.03,3.29.03-1.44.12-10.46.03.94.06-9.94.06,9,.09,6.77.09-1.12.06-8.37.06,5.82.03,6.45.06-5.24.03-8.53.06,7.39.18,4.75.06-5.27.03,4.86.06-2.13.06,8.89.03-9.36.12,4.35.06-10.05.06,1.77.09,5.77.03-1.5.06-1.43.06-1.45.09,8.06.03,2.41.09-.67.06-7.03.03,7.92.03-.77.09-10.18.03.02.03-1.56.03,1.6.03,5.53.06-6.29.06-3.92.03,3.95.03-.78.06.79.03-1.58.06,2.36.03.78.12-3.98.18,10.92.03-3.18.03-.82.06-6.35.03,6.29.03.76.03-7.91.09.72.03-.81.03,1.56.03,6.29.06-4.78.03-3.17.03,5.5.03,5.5.09-4.02.03,2.34.03-7.12.06,7.06.03-.02.15-9.5h.06s.12,1.6.12,1.6l.03-7.87.09,3.21.09,4.79.03-1.56.03-3.13.03,4.76.06.83.03-5.49.06,6.37.09-4.64.06,2.43.06-3.87.03-4.69.06,7.97.15-4.52.12,11.98.03-3.12.03-.75.09,12.7.03-3.92.03-5.49.09,3.23.03-2.34.06.84.12,5.58.24-18.81.03.81.12,5.55.06-5.52.03,5.52.03,8.66.06-8.71.03-.02.18,10.07.03-.84.09-9.59.03,1.53.12-2.58.06,6.97.06-4.09.03-.07.03,5.44.06-8.84.06-1.74.09,6.83.03-.1.06,10.04.06-1.02.18-13.32.12,8.18.03-1.71.03,8.54.06-8.94.03-.13.15-3.8.03,2.24.03-4.86.09-7.46.06,3.71.06-1.02.09,3.59.03-1.69.03,1.46.12,9.78.06-8.9.06,2.94.09-9.76.03,1.49.09,15.48.03-3.25.03-2.46.03,4.64.03,2.27.03-2.46.03.7.03-3.24.03,1.5.15,19.29.24-23.38.21-14.32.03,9.46.09-5.52.06.81.06,7.9.06-2.35.12,10.3.03-3.93.09-8.62-.03,8.65.12-6.21.03,11.06.09-5.46.09,1.65.09-5.44.03,3.97.12-5.4.03,2.4.18,10.4.06-1.55.09-7.05.06.03.03,3.96.03-3.93.03-3.93.03,6.32.03-2.36.06,5.52.06-2.37.06,2.36.12-15,.06,12.6.09-.84.03-2.39.03,3.13.03-.03.09,3.84.03-3.2.12-8.04.15,9.22.12-6.53.12,7.65.15-9.76.06,6.98.03-.85.15-14.48.09,12.46.03-3.21.03-7.15.06,7.79.03,1.52.03-3.21.03-.05.03,5.47.09-2.51.03-1.62.03,7.05.03-10.3.03,2.33.06,2.3.09-4.82.03,3.13.15,8.57.09-10.28.06,3.95.06,7.89.06-4.72.09.84.06-3.89.03,3.98.03.03.06-3.86.09,11.96.03-1.53.06-10.13.06,6.44.12-6.79.09,1.85.03.88.03-7,.09,1.12.03.12.15,10.06.03-.67.12-5.79.03.14.06-2.88.03,3.3.03-2.22.03.93.09,5.16.09-7.45.03,4.09.03-3.01.03,6.46.03-4.59.09,2.8.03-1.43.03-6.95.06,10.54.09,2.78.15-21.38.06,6.6.15,10.11.03,2.48.06-3.72.06-13.17.06,11.27.15,19.35.12-9.19.03,4.01.06-3.04.12-15.53.06.12.18,9.72.03,1.6.03-2.34.03-1.55.03-8.65.06,12.67.03-.78.06,7.11.03-3.16.09-14.19.12.81.15,7.08.12-6.34.09,10.22-.03-11.03.06,2.33.06-3.97.09,9.41.03-5.54.06-.03.03-.8.12,13.32.03-1.61.12-12.7.03,6.3.03-.8.03-3.96.03,4.72.03,2.35.06-2.39.09-2.39.03,3.15.03-1.58.06-6.3.06,3.17.03,6.31.06-3.15.03-5.51.06,7.12.03-6.3.03-.77.03-6.29.03,7.12.03-1.55.09,8.73.03-.77.06-4.69.09,1.65.06,6.36.03-3.13.03-6.28.06,6.37.03-.76.03-6.28.06,6.38.03,10.28.06-4.69.12-13.27.09,8.77.03-6.28.03-7.06.03,10.29.03-1.54.12,9.57.15-16.43.15,6.43.06-7.85.03,5.54.03,5.53.06-4.72h.03s.03,2.37.03,2.37l.03-1.58.03-4.73.03,4.73.03,6.3.06-8.71.06,3.12.03-3.18.03-1.6.03,2.34.03,2.33.06-.07.18-8.93.09,8.51.06-.92.15-4.31.09-1.82.06,10.86.06-7.3.03-2.46.03,3.84.03,6.99.09-4.28.03,5.4.03-8.8.03,1.46.03-.12.15-2.97.06,6.05.03-1.71.06,1.32.03-6.44.09,12.22.06-1.07.06,6.02.03-2.51.03-8.03.09,4.33.09-7.48.03,4.61.03,1.45.03-3.28.06-6.54.03,5.41.09,4.39.09-5.84.03.69.03-.89.03,1.48.06,4.54.03-3.25.12-6.64.15,10.68.12-4.98.06,5.41.03-2.42.03-5.56.06,6.23.03-5.56.03,4.7.06-4,.06-7.13.06,1.56.03,9.45.06-4.75.03-3.16.03,4.73.03-.79.06-7.87.03,10.26.06-11.02.03.02.15,11.92.03,1.59.03-7.86.09,5.6.06,1.62.03-.76.03-.76.09,4.02.03-.77.03-2.34.03,7.91.09-3.89.09,4,.15-11.72.03,3.18.06-3.11.03-8.65.09,4.03.18,10.33.03-4.73.06.79.03,6.3.03-7.89.06,5.5.03-1.59.03,3.14.03.77.03,3.92.06-5.58.03,3.91.12-10.37.03,13.37.09-.14.18-20.77.03-.04.06-2.45.06,7.8.03-.84.03,1.53.03-.84.03,2.31.03-7.15.06,6.99.15,11.51-.06-12.49.09,9.26.15-6.63.03,1.52.03-.06.15-7.37.12,8.48-.06-8.58.09,6.95.15-8.09.09.7.03,3.92.03-4.76.03,4.71.06-9.49.09,1.56.03,7.89h.09s.03-.78.03-.78l.12,19.71.03-.79.18-17.99.03,3.99.03-1.53.06-8.56.06,5.65.03,3.22.06-3.02.03-2.29.15,8.3.03-6.22.09,4.24.03.1.03-.69.03.89.03-5.41.03,9.58.03-3.05.09,7.43.03-6.2.03.12.09-1.99.09-9.05.03,4.87.03,2.5.06-2.08.03-1.43.09,9.88.03-6.17.03-1.43.03,5.66.06-6.81.03-3.01.03,7.24.09-7.46.06,13.68.03-6.97.15-11.91.21,15.87.03-6.19.09,3.49.03,3.26.03-3.84.09-4.42.03,4.04.03-6.21.03,2.46.03.09.03,6.39.06-8.51.09,2.6.09,8.87.03-5.47.03-3.89.03,7.15.03-5.47.03,4.78.06-4.64.03-3.11.06,1.66.03,7.92.09-.72.09-9.41.03-3.13.09.84.15,9.49.09-7.11.09,8.65.03-.02.09-8.71.03,2.35.12,9.37.03-9.49.09,3.87.06,4.68.12-11.12.03,7.08.06-.04.12-12.66.09,13.38.06-6.33.03-2.37.06,3.15.03-.79.03-6.31.06,6.31h.03s.09.02.09.02l.06-2.35.06,6.33.03-4.72.03-.77.15,6.4.06-5.48.03,7.91.06-7.05.09.09.03-3.12.03,4.77.06-1.51.03-3.12.03,4.77.03-3.91.03,3.98.06-1.5.03-1.54.03,2.41.09,9.56.03-1.55.12-8.54.03,6.34.06-7.03.03,1.61.03-4.69.03,4.77.06,8.73.06-2.32.12-10.93.03,3.97.06-6.26.12,10.33.03-7.88.09,4.76.06,6.3.03-7.89.03-5.52.06,3.15.12,13.32.03-3.19.03.75.03-3.98.09,2.24.06-.1.03,3.89.15-18.39.06,5.41.03-7.16.03-.06.03,8.61.09-4.16.15,14.55.15-12.35.03,2.26.03-.9.03-7.2.09.46.06,10.02.06-4.97.03-.12.03.67.03-.91.03-3.27.03,9.34.06-4.99.03-7.22.09,3.58.09,9.07.03-6.44.03.66.03,7.76.06-.27.12-13.11.15,16.74.06-4.2.03-4.85.06,1.35.06,10.81.06-4.18.03-.9.12-12.99.03,5.44.03,3.86.03-8.76.06-2.51.06.66.09,5.34.03-3.21.03-1.63.03,3.89.03-.84.03-4.78.03,2.33.03,7.06.03-7.14.03,5.49.03-11.07.06,10.99.12,23.5.06-9.55.03-.03.09-15.04.03,7.88.03,2.35.18-21.21.03.82.03-2.34.03,8.7.03-3.13"/>
      </g>
    </g>
  </g>
</svg>