<?xml version="1.0" encoding="UTF-8"?>
<svg id="Layer_1" xmlns="http://www.w3.org/2000/svg" version="1.1" viewBox="0 0 460.8 345.6">
  <!-- Generator: Adobe Illustrator 29.5.1, SVG Export Plug-In . SVG Version: 2.1.0 Build 141)  -->
  <defs>
    <style>
      .st0 {
        fill: none;
        stroke-linecap: square;
        stroke-width: 1.5px;
      }

      .st0, .st1 {
        stroke: #000;
        stroke-linejoin: round;
      }

      .st1 {
        stroke-width: .8px;
      }
    </style>
  </defs>
  <g id="figure_1">
    <g id="axes_1">
      <g id="matplotlib.axis_2">
        <g id="ytick_5">
          <g id="line2d_12">
            <path id="ma259bdf5b9" class="st1" d="M57.6,148.68h-3.5"/>
          </g>
        </g>
      </g>
      <g id="line2d_16">
        <path class="st0" d="M57.6,149.17l5.76-.72,5.76.15,5.76.06,5.76.1,5.76.41,5.76.52,5.76-.3,5.76-.03,5.76-.57,5.76.73,5.76-.04,5.76.29,5.76-.19,5.76.26,5.76.75,5.76,5.18,5.76,24.12,5.76,53.73,5.76,45.88,5.76,16.01,5.76-6.84,5.76-16.25,5.76-13.63,5.76-5.61,5.76-17.73,5.76-34.17,5.76-36.92,5.76-35.58,5.76-29.7,5.76-21.17,5.76-12.76,5.76-7.05,5.76-3.65,5.76-.86,5.76,2.73,5.76,4.64,5.76,6.38,5.76,7.69,5.76,7.01,5.76,6.75,5.76,6.31,5.76,5.81,5.76,5.21,5.76,5,5.76,4.53,5.76,3.81,5.76,3.54,5.76,3.34,5.76,2.73,5.76,2.45,5.76,2.63,5.76,1.69,5.76,2.02,5.76,1.54,5.76,1.87,5.76,1.63,5.76,1.14,5.76,1.34,5.76,1.24,5.76,1.02,5.76,1.04h11.52"/>
      </g>
    </g>
  </g>
</svg>