<?xml version="1.0" encoding="utf-8" standalone="no"?>
<!DOCTYPE svg PUBLIC "-//W3C//DTD SVG 1.1//EN"
  "http://www.w3.org/Graphics/SVG/1.1/DTD/svg11.dtd">
<svg xmlns:xlink="http://www.w3.org/1999/xlink" width="576pt" height="144pt" viewBox="0 0 576 144" xmlns="http://www.w3.org/2000/svg" version="1.1">
 <metadata>
  <rdf:RDF xmlns:dc="http://purl.org/dc/elements/1.1/" xmlns:cc="http://creativecommons.org/ns#" xmlns:rdf="http://www.w3.org/1999/02/22-rdf-syntax-ns#">
   <cc:Work>
    <dc:type rdf:resource="http://purl.org/dc/dcmitype/StillImage"/>
    <dc:date>2025-05-30T14:55:18.541586</dc:date>
    <dc:format>image/svg+xml</dc:format>
    <dc:creator>
     <cc:Agent>
      <dc:title>Matplotlib v3.9.4, https://matplotlib.org/</dc:title>
     </cc:Agent>
    </dc:creator>
   </cc:Work>
  </rdf:RDF>
 </metadata>
 <defs>
  <style type="text/css">*{stroke-linejoin: round; stroke-linecap: butt}</style>
 </defs>
 <g id="figure_1">
  <g id="patch_1">
   <path d="M 0 144 
L 576 144 
L 576 0 
L 0 0 
z
" style="fill: #ffffff"/>
  </g>
  <g id="axes_1">
   <g id="patch_2">
    <path d="M 72 128.16 
L 518.4 128.16 
L 518.4 17.28 
L 72 17.28 
z
" style="fill: #ffffff"/>
   </g>
   <g id="matplotlib.axis_1">
    <g id="xtick_1">
     <g id="line2d_1">
      <defs>
       <path id="mf90fa32d75" d="M 0 0 
L 0 3.5 
" style="stroke: #000000; stroke-width: 0.8"/>
      </defs>
      <g>
       <use xlink:href="#mf90fa32d75" x="72" y="128.16" style="stroke: #000000; stroke-width: 0.8"/>
      </g>
     </g>
     <g id="text_1">
      <!-- 111.0 -->
      <g transform="translate(60.226562 142.317813) scale(0.1 -0.1)">
       <defs>
        <path id="ArialMT-31" d="M 2384 0 
L 1822 0 
L 1822 3584 
Q 1619 3391 1289 3197 
Q 959 3003 697 2906 
L 697 3450 
Q 1169 3672 1522 3987 
Q 1875 4303 2022 4600 
L 2384 4600 
L 2384 0 
z
" transform="scale(0.015625)"/>
        <path id="ArialMT-2e" d="M 581 0 
L 581 641 
L 1222 641 
L 1222 0 
L 581 0 
z
" transform="scale(0.015625)"/>
        <path id="ArialMT-30" d="M 266 2259 
Q 266 3072 433 3567 
Q 600 4063 929 4331 
Q 1259 4600 1759 4600 
Q 2128 4600 2406 4451 
Q 2684 4303 2865 4023 
Q 3047 3744 3150 3342 
Q 3253 2941 3253 2259 
Q 3253 1453 3087 958 
Q 2922 463 2592 192 
Q 2263 -78 1759 -78 
Q 1097 -78 719 397 
Q 266 969 266 2259 
z
M 844 2259 
Q 844 1131 1108 757 
Q 1372 384 1759 384 
Q 2147 384 2411 759 
Q 2675 1134 2675 2259 
Q 2675 3391 2411 3762 
Q 2147 4134 1753 4134 
Q 1366 4134 1134 3806 
Q 844 3388 844 2259 
z
" transform="scale(0.015625)"/>
       </defs>
       <use xlink:href="#ArialMT-31"/>
       <use xlink:href="#ArialMT-31" x="48.240234"/>
       <use xlink:href="#ArialMT-31" x="96.480469"/>
       <use xlink:href="#ArialMT-2e" x="152.095703"/>
       <use xlink:href="#ArialMT-30" x="179.878906"/>
      </g>
     </g>
    </g>
    <g id="xtick_2">
     <g id="line2d_2">
      <g>
       <use xlink:href="#mf90fa32d75" x="131.52" y="128.16" style="stroke: #000000; stroke-width: 0.8"/>
      </g>
     </g>
     <g id="text_2">
      <!-- 111.2 -->
      <g transform="translate(119.746563 142.317813) scale(0.1 -0.1)">
       <defs>
        <path id="ArialMT-32" d="M 3222 541 
L 3222 0 
L 194 0 
Q 188 203 259 391 
Q 375 700 629 1000 
Q 884 1300 1366 1694 
Q 2113 2306 2375 2664 
Q 2638 3022 2638 3341 
Q 2638 3675 2398 3904 
Q 2159 4134 1775 4134 
Q 1369 4134 1125 3890 
Q 881 3647 878 3216 
L 300 3275 
Q 359 3922 746 4261 
Q 1134 4600 1788 4600 
Q 2447 4600 2831 4234 
Q 3216 3869 3216 3328 
Q 3216 3053 3103 2787 
Q 2991 2522 2730 2228 
Q 2469 1934 1863 1422 
Q 1356 997 1212 845 
Q 1069 694 975 541 
L 3222 541 
z
" transform="scale(0.015625)"/>
       </defs>
       <use xlink:href="#ArialMT-31"/>
       <use xlink:href="#ArialMT-31" x="48.240234"/>
       <use xlink:href="#ArialMT-31" x="96.480469"/>
       <use xlink:href="#ArialMT-2e" x="152.095703"/>
       <use xlink:href="#ArialMT-32" x="179.878906"/>
      </g>
     </g>
    </g>
    <g id="xtick_3">
     <g id="line2d_3">
      <g>
       <use xlink:href="#mf90fa32d75" x="191.04" y="128.16" style="stroke: #000000; stroke-width: 0.8"/>
      </g>
     </g>
     <g id="text_3">
      <!-- 111.4 -->
      <g transform="translate(179.266563 142.317813) scale(0.1 -0.1)">
       <defs>
        <path id="ArialMT-34" d="M 2069 0 
L 2069 1097 
L 81 1097 
L 81 1613 
L 2172 4581 
L 2631 4581 
L 2631 1613 
L 3250 1613 
L 3250 1097 
L 2631 1097 
L 2631 0 
L 2069 0 
z
M 2069 1613 
L 2069 3678 
L 634 1613 
L 2069 1613 
z
" transform="scale(0.015625)"/>
       </defs>
       <use xlink:href="#ArialMT-31"/>
       <use xlink:href="#ArialMT-31" x="48.240234"/>
       <use xlink:href="#ArialMT-31" x="96.480469"/>
       <use xlink:href="#ArialMT-2e" x="152.095703"/>
       <use xlink:href="#ArialMT-34" x="179.878906"/>
      </g>
     </g>
    </g>
    <g id="xtick_4">
     <g id="line2d_4">
      <g>
       <use xlink:href="#mf90fa32d75" x="250.56" y="128.16" style="stroke: #000000; stroke-width: 0.8"/>
      </g>
     </g>
     <g id="text_4">
      <!-- 111.6 -->
      <g transform="translate(238.786562 142.317813) scale(0.1 -0.1)">
       <defs>
        <path id="ArialMT-36" d="M 3184 3459 
L 2625 3416 
Q 2550 3747 2413 3897 
Q 2184 4138 1850 4138 
Q 1581 4138 1378 3988 
Q 1113 3794 959 3422 
Q 806 3050 800 2363 
Q 1003 2672 1297 2822 
Q 1591 2972 1913 2972 
Q 2475 2972 2870 2558 
Q 3266 2144 3266 1488 
Q 3266 1056 3080 686 
Q 2894 316 2569 119 
Q 2244 -78 1831 -78 
Q 1128 -78 684 439 
Q 241 956 241 2144 
Q 241 3472 731 4075 
Q 1159 4600 1884 4600 
Q 2425 4600 2770 4297 
Q 3116 3994 3184 3459 
z
M 888 1484 
Q 888 1194 1011 928 
Q 1134 663 1356 523 
Q 1578 384 1822 384 
Q 2178 384 2434 671 
Q 2691 959 2691 1453 
Q 2691 1928 2437 2201 
Q 2184 2475 1800 2475 
Q 1419 2475 1153 2201 
Q 888 1928 888 1484 
z
" transform="scale(0.015625)"/>
       </defs>
       <use xlink:href="#ArialMT-31"/>
       <use xlink:href="#ArialMT-31" x="48.240234"/>
       <use xlink:href="#ArialMT-31" x="96.480469"/>
       <use xlink:href="#ArialMT-2e" x="152.095703"/>
       <use xlink:href="#ArialMT-36" x="179.878906"/>
      </g>
     </g>
    </g>
    <g id="xtick_5">
     <g id="line2d_5">
      <g>
       <use xlink:href="#mf90fa32d75" x="310.08" y="128.16" style="stroke: #000000; stroke-width: 0.8"/>
      </g>
     </g>
     <g id="text_5">
      <!-- 111.8 -->
      <g transform="translate(298.306563 142.317813) scale(0.1 -0.1)">
       <defs>
        <path id="ArialMT-38" d="M 1131 2484 
Q 781 2613 612 2850 
Q 444 3088 444 3419 
Q 444 3919 803 4259 
Q 1163 4600 1759 4600 
Q 2359 4600 2725 4251 
Q 3091 3903 3091 3403 
Q 3091 3084 2923 2848 
Q 2756 2613 2416 2484 
Q 2838 2347 3058 2040 
Q 3278 1734 3278 1309 
Q 3278 722 2862 322 
Q 2447 -78 1769 -78 
Q 1091 -78 675 323 
Q 259 725 259 1325 
Q 259 1772 486 2073 
Q 713 2375 1131 2484 
z
M 1019 3438 
Q 1019 3113 1228 2906 
Q 1438 2700 1772 2700 
Q 2097 2700 2305 2904 
Q 2513 3109 2513 3406 
Q 2513 3716 2298 3927 
Q 2084 4138 1766 4138 
Q 1444 4138 1231 3931 
Q 1019 3725 1019 3438 
z
M 838 1322 
Q 838 1081 952 856 
Q 1066 631 1291 507 
Q 1516 384 1775 384 
Q 2178 384 2440 643 
Q 2703 903 2703 1303 
Q 2703 1709 2433 1975 
Q 2163 2241 1756 2241 
Q 1359 2241 1098 1978 
Q 838 1716 838 1322 
z
" transform="scale(0.015625)"/>
       </defs>
       <use xlink:href="#ArialMT-31"/>
       <use xlink:href="#ArialMT-31" x="48.240234"/>
       <use xlink:href="#ArialMT-31" x="96.480469"/>
       <use xlink:href="#ArialMT-2e" x="152.095703"/>
       <use xlink:href="#ArialMT-38" x="179.878906"/>
      </g>
     </g>
    </g>
    <g id="xtick_6">
     <g id="line2d_6">
      <g>
       <use xlink:href="#mf90fa32d75" x="369.6" y="128.16" style="stroke: #000000; stroke-width: 0.8"/>
      </g>
     </g>
     <g id="text_6">
      <!-- 112.0 -->
      <g transform="translate(357.457812 142.317813) scale(0.1 -0.1)">
       <use xlink:href="#ArialMT-31"/>
       <use xlink:href="#ArialMT-31" x="48.240234"/>
       <use xlink:href="#ArialMT-32" x="103.855469"/>
       <use xlink:href="#ArialMT-2e" x="159.470703"/>
       <use xlink:href="#ArialMT-30" x="187.253906"/>
      </g>
     </g>
    </g>
    <g id="xtick_7">
     <g id="line2d_7">
      <g>
       <use xlink:href="#mf90fa32d75" x="429.12" y="128.16" style="stroke: #000000; stroke-width: 0.8"/>
      </g>
     </g>
     <g id="text_7">
      <!-- 112.2 -->
      <g transform="translate(416.977813 142.317813) scale(0.1 -0.1)">
       <use xlink:href="#ArialMT-31"/>
       <use xlink:href="#ArialMT-31" x="48.240234"/>
       <use xlink:href="#ArialMT-32" x="103.855469"/>
       <use xlink:href="#ArialMT-2e" x="159.470703"/>
       <use xlink:href="#ArialMT-32" x="187.253906"/>
      </g>
     </g>
    </g>
    <g id="xtick_8">
     <g id="line2d_8">
      <g>
       <use xlink:href="#mf90fa32d75" x="488.64" y="128.16" style="stroke: #000000; stroke-width: 0.8"/>
      </g>
     </g>
     <g id="text_8">
      <!-- 112.4 -->
      <g transform="translate(476.497812 142.317813) scale(0.1 -0.1)">
       <use xlink:href="#ArialMT-31"/>
       <use xlink:href="#ArialMT-31" x="48.240234"/>
       <use xlink:href="#ArialMT-32" x="103.855469"/>
       <use xlink:href="#ArialMT-2e" x="159.470703"/>
       <use xlink:href="#ArialMT-34" x="187.253906"/>
      </g>
     </g>
    </g>
   </g>
   <g id="matplotlib.axis_2">
    <g id="ytick_1">
     <g id="line2d_9">
      <defs>
       <path id="m395ef2109c" d="M 0 0 
L -3.5 0 
" style="stroke: #000000; stroke-width: 0.8"/>
      </defs>
      <g>
       <use xlink:href="#m395ef2109c" x="72" y="115.448472" style="stroke: #000000; stroke-width: 0.8"/>
      </g>
     </g>
     <g id="text_9">
      <!-- −40 -->
      <g transform="translate(48.0375 119.027378) scale(0.1 -0.1)">
       <defs>
        <path id="ArialMT-2212" d="M 3381 1997 
L 356 1997 
L 356 2522 
L 3381 2522 
L 3381 1997 
z
" transform="scale(0.015625)"/>
       </defs>
       <use xlink:href="#ArialMT-2212"/>
       <use xlink:href="#ArialMT-34" x="58.398438"/>
       <use xlink:href="#ArialMT-30" x="114.013672"/>
      </g>
     </g>
    </g>
    <g id="ytick_2">
     <g id="line2d_10">
      <g>
       <use xlink:href="#m395ef2109c" x="72" y="84.62891" style="stroke: #000000; stroke-width: 0.8"/>
      </g>
     </g>
     <g id="text_10">
      <!-- −20 -->
      <g transform="translate(48.0375 88.207816) scale(0.1 -0.1)">
       <use xlink:href="#ArialMT-2212"/>
       <use xlink:href="#ArialMT-32" x="58.398438"/>
       <use xlink:href="#ArialMT-30" x="114.013672"/>
      </g>
     </g>
    </g>
    <g id="ytick_3">
     <g id="line2d_11">
      <g>
       <use xlink:href="#m395ef2109c" x="72" y="53.809348" style="stroke: #000000; stroke-width: 0.8"/>
      </g>
     </g>
     <g id="text_11">
      <!-- 0 -->
      <g transform="translate(59.439062 57.388254) scale(0.1 -0.1)">
       <use xlink:href="#ArialMT-30"/>
      </g>
     </g>
    </g>
    <g id="ytick_4">
     <g id="line2d_12">
      <g>
       <use xlink:href="#m395ef2109c" x="72" y="22.989786" style="stroke: #000000; stroke-width: 0.8"/>
      </g>
     </g>
     <g id="text_12">
      <!-- 20 -->
      <g transform="translate(53.878125 26.568692) scale(0.1 -0.1)">
       <use xlink:href="#ArialMT-32"/>
       <use xlink:href="#ArialMT-30" x="55.615234"/>
      </g>
     </g>
    </g>
   </g>
   <g id="line2d_13">
    <path d="M 71.994824 53.809348 
L 123.777299 53.809348 
L 123.89634 58.021868 
L 123.91618 58.201033 
L 123.95586 68.14743 
L 123.99554 91.618581 
L 124.05506 68.597704 
L 124.20386 41.943919 
L 124.2237 42.068636 
L 124.35266 51.583456 
L 124.49154 53.809348 
L 157.713669 53.809348 
L 157.832709 58.021868 
L 157.852549 58.201033 
L 157.892229 68.14743 
L 157.931909 91.618581 
L 157.991429 68.597704 
L 158.140229 41.943919 
L 158.160069 42.068636 
L 158.289029 51.583456 
L 158.42791 53.809348 
L 176.829536 53.809348 
L 176.948576 58.021868 
L 176.968416 58.201033 
L 177.008097 68.14743 
L 177.047777 91.618581 
L 177.107297 68.597704 
L 177.256097 41.943919 
L 177.275937 42.068636 
L 177.404897 51.583456 
L 177.543777 53.809348 
L 268.192869 53.809348 
L 268.311909 58.021868 
L 268.331749 58.201033 
L 268.371429 68.14743 
L 268.411109 91.618581 
L 268.470629 68.597704 
L 268.619429 41.943919 
L 268.639269 42.068636 
L 268.76823 51.583456 
L 268.90711 53.809348 
L 303.250199 53.809348 
L 303.36924 58.021868 
L 303.38908 58.201033 
L 303.42876 68.14743 
L 303.46844 91.618581 
L 303.52796 68.597704 
L 303.67676 41.943919 
L 303.6966 42.068636 
L 303.82556 51.583456 
L 303.964441 53.809348 
L 419.354048 53.809348 
L 419.473088 58.021868 
L 419.492928 58.201033 
L 419.532608 68.14743 
L 419.572288 91.618581 
L 419.631808 68.597704 
L 419.780608 41.943919 
L 419.800448 42.068636 
L 419.929409 51.583456 
L 420.068289 53.809348 
L 466.394756 53.809348 
L 466.513796 58.021868 
L 466.533636 58.201033 
L 466.573316 68.14743 
L 466.612996 91.618581 
L 466.672516 68.597704 
L 466.821317 41.943919 
L 466.841157 42.068636 
L 466.970117 51.583456 
L 467.108997 53.809348 
L 518.405391 53.809348 
L 518.405391 53.809348 
" clip-path="url(#pfe0d7c69e9)" style="fill: none; stroke: #7bdff2; stroke-width: 2; stroke-linecap: square"/>
   </g>
   <g id="line2d_14">
    <path d="M 71.994824 53.809348 
L 92.757414 53.809348 
L 92.876455 55.348015 
L 92.906215 54.578065 
L 92.916135 55.829339 
L 92.975655 123.12 
L 93.025255 61.879142 
L 93.104615 22.32 
L 93.164135 31.137785 
L 93.372455 53.809348 
L 101.715187 53.809348 
L 101.834228 55.348015 
L 101.863988 54.578065 
L 101.873908 55.829339 
L 101.933428 123.12 
L 101.983028 61.879142 
L 102.062388 22.32 
L 102.121908 31.137785 
L 102.330228 53.809348 
L 120.007694 53.809348 
L 120.126734 55.348015 
L 120.156494 54.578065 
L 120.166414 55.829339 
L 120.225934 123.12 
L 120.275534 61.879142 
L 120.354894 22.32 
L 120.414415 31.137785 
L 120.622735 53.809348 
L 143.161007 53.809348 
L 143.280048 55.348015 
L 143.309808 54.578065 
L 143.319728 55.829339 
L 143.379248 123.12 
L 143.428848 61.879142 
L 143.508208 22.32 
L 143.567728 31.137785 
L 143.776048 53.809348 
L 164.568399 53.809348 
L 164.687439 55.348015 
L 164.717199 54.578065 
L 164.727119 55.829339 
L 164.786639 123.12 
L 164.836239 61.879142 
L 164.915599 22.32 
L 164.975119 31.137785 
L 165.183439 53.809348 
L 269.710631 53.809348 
L 269.829671 55.348015 
L 269.859431 54.578065 
L 269.869351 55.829339 
L 269.928871 123.12 
L 269.978471 61.879142 
L 270.057831 22.32 
L 270.117351 31.137785 
L 270.325672 53.809348 
L 325.401592 53.809348 
L 325.520632 55.348015 
L 325.550392 54.578065 
L 325.560312 55.829339 
L 325.619832 123.12 
L 325.669432 61.879142 
L 325.748792 22.32 
L 325.808312 31.137785 
L 326.016632 53.809348 
L 328.863677 53.809348 
L 328.982717 55.348015 
L 329.012477 54.578065 
L 329.022397 55.829339 
L 329.081917 123.12 
L 329.131517 61.879142 
L 329.210877 22.32 
L 329.270397 31.137785 
L 329.478718 53.809348 
L 364.793969 53.809348 
L 364.913009 55.348015 
L 364.942769 54.578065 
L 364.952689 55.829339 
L 365.012209 123.12 
L 365.061809 61.879142 
L 365.141169 22.32 
L 365.200689 31.137785 
L 365.40901 53.809348 
L 373.444221 53.809348 
L 373.563261 55.348015 
L 373.593021 54.578065 
L 373.602941 55.829339 
L 373.662462 123.12 
L 373.712062 61.879142 
L 373.791422 22.32 
L 373.850942 31.137785 
L 374.059262 53.809348 
L 385.457359 53.809348 
L 385.576399 55.348015 
L 385.606159 54.578065 
L 385.616079 55.829339 
L 385.675599 123.12 
L 385.725199 61.879142 
L 385.804559 22.32 
L 385.864079 31.137785 
L 386.0724 53.809348 
L 394.772252 53.809348 
L 394.891292 55.348015 
L 394.921052 54.578065 
L 394.930972 55.829339 
L 394.990492 123.12 
L 395.040093 61.879142 
L 395.119453 22.32 
L 395.178973 31.137785 
L 395.387293 53.809348 
L 417.637885 53.809348 
L 417.756925 55.348015 
L 417.786685 54.578065 
L 417.796606 55.829339 
L 417.856126 123.12 
L 417.905726 61.879142 
L 417.985086 22.32 
L 418.044606 31.137785 
L 418.252926 53.809348 
L 462.744191 53.809348 
L 462.863231 55.348015 
L 462.892991 54.578065 
L 462.902911 55.829339 
L 462.962431 123.12 
L 463.012031 61.879142 
L 463.091391 22.32 
L 463.150911 31.137785 
L 463.359232 53.809348 
L 486.512545 53.809348 
L 486.631585 55.348015 
L 486.661345 54.578065 
L 486.671265 55.829339 
L 486.730785 123.12 
L 486.780385 61.879142 
L 486.859746 22.32 
L 486.919266 31.137785 
L 487.127586 53.809348 
L 516.332108 53.809348 
L 516.451148 55.348015 
L 516.480909 54.578065 
L 516.490829 55.829339 
L 516.550349 123.12 
L 516.599949 61.879142 
L 516.679309 22.32 
L 516.738829 31.137785 
L 516.947149 53.809348 
L 518.405391 53.809348 
L 518.405391 53.809348 
" clip-path="url(#pfe0d7c69e9)" style="fill: none; stroke: #00c49a; stroke-width: 2; stroke-linecap: square"/>
   </g>
   <g id="line2d_15">
    <path d="M 71.994824 53.809348 
L 518.405391 53.809348 
L 518.405391 53.809348 
" clip-path="url(#pfe0d7c69e9)" style="fill: none; stroke: #000000; stroke-width: 2; stroke-linecap: square"/>
   </g>
   <g id="patch_3">
    <path d="M 72 128.16 
L 72 17.28 
" style="fill: none; stroke: #000000; stroke-width: 0.8; stroke-linejoin: miter; stroke-linecap: square"/>
   </g>
   <g id="patch_4">
    <path d="M 72 128.16 
L 518.4 128.16 
" style="fill: none; stroke: #000000; stroke-width: 0.8; stroke-linejoin: miter; stroke-linecap: square"/>
   </g>
  </g>
 </g>
 <defs>
  <clipPath id="pfe0d7c69e9">
   <rect x="72" y="17.28" width="446.4" height="110.88"/>
  </clipPath>
 </defs>
</svg>
