<?xml version="1.0" encoding="UTF-8"?>
<svg id="Layer_1" xmlns="http://www.w3.org/2000/svg" version="1.1" viewBox="0 0 460.8 345.6">
  <!-- Generator: Adobe Illustrator 29.5.1, SVG Export Plug-In . SVG Version: 2.1.0 Build 141)  -->
  <defs>
    <style>
      .st0 {
        fill: #00c49a;
      }

      .st1 {
        fill: #7bdff2;
      }

      .st2 {
        fill: #0496ff;
      }

      .st3 {
        fill: #ffca3a;
      }

      .st4 {
        fill: #fff;
      }

      .st5 {
        fill: #d81159;
      }

      .st6 {
        fill: #5e60ce;
      }

      .st7 {
        fill: none;
        stroke: #fff;
        stroke-linecap: square;
        stroke-linejoin: round;
        stroke-width: 5px;
      }

      .st8 {
        fill: #fe7f2d;
      }
    </style>
  </defs>
  <g id="figure_1">
    <g id="axes_1">
      <g id="patch_2">
        <path class="st6" d="M342.6,174.53c0-22.81-7.33-45.02-20.9-63.35s-32.68-31.82-54.5-38.47l-31.04,101.82h106.44Z"/>
      </g>
      <g id="patch_3">
        <path class="st1" d="M267.2,72.71c-11.62-3.54-23.76-5.07-35.89-4.52s-24.08,3.18-35.33,7.76l40.17,98.57,31.04-101.82Z"/>
      </g>
      <g id="patch_4">
        <path class="st8" d="M195.99,75.96c-14.27,5.81-27.1,14.66-37.62,25.92s-18.46,24.67-23.29,39.3l101.08,33.35-40.17-98.57Z"/>
      </g>
      <g id="patch_5">
        <path class="st0" d="M135.08,141.17c-5.08,15.41-6.58,31.77-4.37,47.85,2.21,16.07,8.06,31.43,17.12,44.89l88.34-59.39-101.08-33.35Z"/>
      </g>
      <g id="patch_6">
        <path class="st2" d="M147.82,233.92c10.42,15.51,24.75,28,41.53,36.21,16.78,8.22,35.43,11.87,54.07,10.6l-7.26-106.2-88.34,59.39Z"/>
      </g>
      <g id="patch_7">
        <path class="st3" d="M243.42,280.72c16.19-1.11,31.91-5.9,45.96-14.01,14.05-8.11,26.06-19.33,35.11-32.79l-88.34-59.39,7.26,106.2Z"/>
      </g>
      <g id="patch_8">
        <path class="st5" d="M324.5,233.92c5.87-8.73,10.41-18.28,13.48-28.34,3.07-10.06,4.63-20.52,4.63-31.04h-106.44s88.34,59.39,88.34,59.39Z"/>
      </g>
      <g id="patch_9">
        <path class="st4" d="M310.67,174.53c0-9.78-1.93-19.47-5.67-28.51-3.74-9.04-9.23-17.25-16.15-24.17-6.92-6.92-15.13-12.41-24.17-16.15-9.04-3.74-18.73-5.67-28.51-5.67s-19.47,1.93-28.51,5.67c-9.04,3.74-17.25,9.23-24.17,16.15-6.92,6.92-12.41,15.13-16.15,24.17-3.74,9.04-5.67,18.73-5.67,28.51s1.93,19.47,5.67,28.51c3.74,9.04,9.23,17.25,16.15,24.17,6.92,6.92,15.13,12.41,24.17,16.15s18.73,5.67,28.51,5.67,19.47-1.93,28.51-5.67,17.25-9.23,24.17-16.15c6.92-6.92,12.41-15.13,16.15-24.17,3.74-9.04,5.67-18.73,5.67-28.51Z"/>
      </g>
      <g id="line2d_1">
        <path class="st7" d="M236.16,174.53l-40.17-98.57"/>
      </g>
      <g id="line2d_2">
        <path class="st7" d="M236.16,174.53l-88.34,59.39"/>
      </g>
      <g id="line2d_3">
        <path class="st7" d="M236.16,174.53l88.34,59.39"/>
      </g>
      <g id="line2d_4">
        <path class="st7" d="M236.16,174.53h106.44"/>
      </g>
      <g id="text_1">
        <g>
          <path id="ArialMT-32" class="st4" d="M303.9,122.42v.85h-4.73c0-.21.03-.42.1-.61.12-.32.31-.64.58-.95.27-.31.65-.67,1.15-1.08.78-.64,1.3-1.14,1.58-1.52.27-.37.41-.73.41-1.06s-.13-.64-.38-.88c-.25-.24-.57-.36-.97-.36-.42,0-.76.13-1.02.38-.25.25-.38.6-.39,1.05l-.9-.09c.06-.67.29-1.19.7-1.54.4-.35.95-.53,1.63-.53s1.23.19,1.63.57c.4.38.6.85.6,1.42,0,.29-.06.57-.18.85-.12.28-.31.57-.58.87s-.72.73-1.35,1.26c-.53.44-.87.74-1.02.9-.15.16-.27.32-.37.48h3.51Z"/>
          <path id="ArialMT-30" class="st4" d="M304.84,119.74c0-.85.09-1.53.26-2.04.17-.52.43-.91.78-1.19.34-.28.78-.42,1.3-.42.38,0,.72.08,1.01.23.29.15.53.38.72.67.19.29.34.65.45,1.06.11.42.16.98.16,1.69,0,.84-.09,1.52-.26,2.03-.17.52-.43.91-.77,1.2-.34.28-.78.42-1.3.42-.69,0-1.23-.25-1.63-.74-.47-.6-.71-1.57-.71-2.91ZM305.74,119.74c0,1.18.14,1.96.41,2.35.28.39.61.58,1.02.58s.74-.2,1.02-.59.41-1.17.41-2.34-.14-1.96-.41-2.35c-.28-.39-.62-.58-1.03-.58s-.73.17-.97.51c-.3.44-.45,1.24-.45,2.42Z"/>
          <path id="ArialMT-25" class="st4" d="M310.57,117.83c0-.51.13-.95.39-1.3.26-.36.63-.54,1.12-.54.45,0,.82.16,1.12.48.29.32.44.79.44,1.41s-.15,1.07-.45,1.4c-.3.33-.66.49-1.1.49s-.79-.16-1.08-.48c-.29-.32-.43-.81-.43-1.46ZM312.1,116.59c-.22,0-.4.09-.54.28-.14.19-.22.53-.22,1.04,0,.46.07.78.22.97.15.19.33.28.54.28s.41-.09.55-.28c.14-.19.22-.53.22-1.04,0-.46-.07-.79-.22-.97-.15-.19-.33-.28-.55-.28ZM312.1,123.53l3.92-7.54h.71l-3.9,7.54h-.73ZM315.2,121.59c0-.51.13-.95.39-1.31s.63-.53,1.12-.53c.45,0,.82.16,1.12.48.29.32.44.79.44,1.41s-.15,1.07-.45,1.4c-.3.33-.67.49-1.11.49s-.79-.16-1.08-.49c-.29-.32-.43-.81-.43-1.46ZM316.73,120.35c-.22,0-.41.09-.55.28-.14.19-.22.53-.22,1.04,0,.46.07.78.22.97.15.19.33.28.54.28s.41-.09.55-.28c.14-.19.22-.53.22-1.04,0-.46-.07-.79-.22-.97-.15-.19-.33-.28-.55-.28Z"/>
        </g>
      </g>
      <g id="text_2">
        <g>
          <path id="ArialMT-31" class="st4" d="M226.13,86.73h-.88v-5.6c-.21.2-.49.4-.83.6s-.65.35-.93.45v-.85c.49-.23.92-.51,1.29-.84.37-.33.63-.65.78-.96h.57v7.19Z"/>
          <path id="ArialMT-311" data-name="ArialMT-31" class="st4" d="M230.95,86.73h-.88v-5.6c-.21.2-.49.4-.83.6s-.65.35-.93.45v-.85c.49-.23.92-.51,1.29-.84.37-.33.63-.65.78-.96h.57v7.19Z"/>
          <path id="ArialMT-251" data-name="ArialMT-25" class="st4" d="M233.37,81.29c0-.51.13-.95.39-1.3.26-.36.63-.54,1.12-.54.45,0,.82.16,1.12.48.29.32.44.79.44,1.41s-.15,1.07-.45,1.4c-.3.33-.66.49-1.1.49s-.79-.16-1.08-.48c-.29-.32-.43-.81-.43-1.46ZM234.9,80.05c-.22,0-.4.09-.54.28-.14.19-.22.53-.22,1.04,0,.46.07.78.22.97.15.19.33.28.54.28s.41-.09.55-.28c.14-.19.22-.53.22-1.04,0-.46-.07-.79-.22-.97-.15-.19-.33-.28-.55-.28ZM234.9,86.99l3.92-7.54h.71l-3.9,7.54h-.73ZM238,85.05c0-.51.13-.95.39-1.31s.63-.53,1.12-.53c.45,0,.82.16,1.12.48.29.32.44.79.44,1.41s-.15,1.07-.45,1.4c-.3.33-.67.49-1.11.49s-.79-.16-1.08-.49c-.29-.32-.43-.81-.43-1.46ZM239.53,83.81c-.22,0-.41.09-.55.28-.14.19-.22.53-.22,1.04,0,.46.07.78.22.97.15.19.33.28.54.28s.41-.09.55-.28c.14-.19.22-.53.22-1.04,0-.46-.07-.79-.22-.97-.15-.19-.33-.28-.55-.28Z"/>
        </g>
      </g>
      <g id="text_3">
        <g>
          <path id="ArialMT-312" data-name="ArialMT-31" class="st4" d="M163.75,115.36h-.88v-5.6c-.21.2-.49.4-.83.6s-.65.35-.93.45v-.85c.49-.23.92-.51,1.29-.84.37-.33.63-.65.78-.96h.57v7.19Z"/>
          <path id="ArialMT-34" class="st4" d="M168.82,115.36v-1.71h-3.11v-.81l3.27-4.64h.72v4.64h.97v.81h-.97v1.71h-.88ZM168.82,112.84v-3.23l-2.24,3.23h2.24Z"/>
          <path id="ArialMT-252" data-name="ArialMT-25" class="st4" d="M171.73,109.92c0-.51.13-.95.39-1.3.26-.36.63-.54,1.12-.54.45,0,.82.16,1.12.48.29.32.44.79.44,1.41s-.15,1.07-.45,1.4c-.3.33-.66.49-1.1.49s-.79-.16-1.08-.48c-.29-.32-.43-.81-.43-1.46ZM173.26,108.68c-.22,0-.4.09-.54.28-.14.19-.22.53-.22,1.04,0,.46.07.78.22.97.15.19.33.28.54.28s.41-.09.55-.28c.14-.19.22-.53.22-1.04,0-.46-.07-.79-.22-.97-.15-.19-.33-.28-.55-.28ZM173.27,115.62l3.92-7.54h.71l-3.9,7.54h-.73ZM176.36,113.68c0-.51.13-.95.39-1.31s.63-.53,1.12-.53c.45,0,.82.16,1.12.48.29.32.44.79.44,1.41s-.15,1.07-.45,1.4c-.3.33-.67.49-1.11.49s-.79-.16-1.08-.49c-.29-.32-.43-.81-.43-1.46ZM177.9,112.44c-.22,0-.41.09-.55.28-.14.19-.22.53-.22,1.04,0,.46.07.78.22.97.15.19.33.28.54.28s.41-.09.55-.28c.14-.19.22-.53.22-1.04,0-.46-.07-.79-.22-.97-.15-.19-.33-.28-.55-.28Z"/>
        </g>
      </g>
      <g id="text_4">
        <g>
          <path id="ArialMT-313" data-name="ArialMT-31" class="st4" d="M140.24,189.43h-.88v-5.6c-.21.2-.49.4-.83.6s-.65.35-.93.45v-.85c.49-.23.92-.51,1.29-.84.37-.33.63-.65.78-.96h.57v7.19Z"/>
          <path id="ArialMT-341" data-name="ArialMT-34" class="st4" d="M145.31,189.43v-1.71h-3.11v-.81l3.27-4.64h.72v4.64h.97v.81h-.97v1.71h-.88ZM145.31,186.91v-3.23l-2.24,3.23h2.24Z"/>
          <path id="ArialMT-253" data-name="ArialMT-25" class="st4" d="M148.22,183.99c0-.51.13-.95.39-1.3.26-.36.63-.54,1.12-.54.45,0,.82.16,1.12.48.29.32.44.79.44,1.41s-.15,1.07-.45,1.4c-.3.33-.66.49-1.1.49s-.79-.16-1.08-.48c-.29-.32-.43-.81-.43-1.46ZM149.75,182.76c-.22,0-.4.09-.54.28-.14.19-.22.53-.22,1.04,0,.46.07.78.22.97.15.19.33.28.54.28s.41-.09.55-.28c.14-.19.22-.53.22-1.04,0-.46-.07-.79-.22-.97-.15-.19-.33-.28-.55-.28ZM149.75,189.7l3.92-7.54h.71l-3.9,7.54h-.73ZM152.85,187.75c0-.51.13-.95.39-1.31s.63-.53,1.12-.53c.45,0,.82.16,1.12.48.29.32.44.79.44,1.41s-.15,1.07-.45,1.4c-.3.33-.67.49-1.11.49s-.79-.16-1.08-.49c-.29-.32-.43-.81-.43-1.46ZM154.38,186.52c-.22,0-.41.09-.55.28-.14.19-.22.53-.22,1.04,0,.46.07.78.22.97.15.19.33.28.54.28s.41-.09.55-.28c.14-.19.22-.53.22-1.04,0-.46-.07-.79-.22-.97-.15-.19-.33-.28-.55-.28Z"/>
        </g>
      </g>
      <g id="text_5">
        <g>
          <path id="ArialMT-314" data-name="ArialMT-31" class="st4" d="M190.09,258.37h-.88v-5.6c-.21.2-.49.4-.83.6s-.65.35-.93.45v-.85c.49-.23.92-.51,1.29-.84.37-.33.63-.65.78-.96h.57v7.19Z"/>
          <path id="ArialMT-37" class="st4" d="M192.4,252.15v-.85h4.63v.68c-.46.48-.91,1.13-1.36,1.93-.45.8-.79,1.63-1.04,2.48-.18.6-.29,1.25-.34,1.97h-.9c0-.56.12-1.24.33-2.04.21-.8.52-1.57.91-2.31s.82-1.36,1.26-1.87h-3.51Z"/>
          <path id="ArialMT-254" data-name="ArialMT-25" class="st4" d="M198.07,252.93c0-.51.13-.95.39-1.3.26-.36.63-.54,1.12-.54.45,0,.82.16,1.12.48.29.32.44.79.44,1.41s-.15,1.07-.45,1.4c-.3.33-.66.49-1.1.49s-.79-.16-1.08-.48c-.29-.32-.43-.81-.43-1.46ZM199.6,251.7c-.22,0-.4.09-.54.28-.14.19-.22.53-.22,1.04,0,.46.07.78.22.97.15.19.33.28.54.28s.41-.09.55-.28c.14-.19.22-.53.22-1.04,0-.46-.07-.79-.22-.97-.15-.19-.33-.28-.55-.28ZM199.6,258.64l3.92-7.54h.71l-3.9,7.54h-.73ZM202.7,256.69c0-.51.13-.95.39-1.31s.63-.53,1.12-.53c.45,0,.82.16,1.12.48.29.32.44.79.44,1.41s-.15,1.07-.45,1.4c-.3.33-.67.49-1.11.49s-.79-.16-1.08-.49c-.29-.32-.43-.81-.43-1.46ZM204.23,255.46c-.22,0-.41.09-.55.28-.14.19-.22.53-.22,1.04,0,.46.07.78.22.97.15.19.33.28.54.28s.41-.09.55-.28c.14-.19.22-.53.22-1.04,0-.46-.07-.79-.22-.97-.15-.19-.33-.28-.55-.28Z"/>
        </g>
      </g>
      <g id="text_6">
        <g>
          <path id="ArialMT-315" data-name="ArialMT-31" class="st4" d="M275.12,255.47h-.88v-5.6c-.21.2-.49.4-.83.6s-.65.35-.93.45v-.85c.49-.23.92-.51,1.29-.84.37-.33.63-.65.78-.96h.57v7.19Z"/>
          <path id="ArialMT-342" data-name="ArialMT-34" class="st4" d="M280.19,255.47v-1.71h-3.11v-.81l3.27-4.64h.72v4.64h.97v.81h-.97v1.71h-.88ZM280.19,252.95v-3.23l-2.24,3.23h2.24Z"/>
          <path id="ArialMT-255" data-name="ArialMT-25" class="st4" d="M283.1,250.03c0-.51.13-.95.39-1.3.26-.36.63-.54,1.12-.54.45,0,.82.16,1.12.48.29.32.44.79.44,1.41s-.15,1.07-.45,1.4c-.3.33-.66.49-1.1.49s-.79-.16-1.08-.48c-.29-.32-.43-.81-.43-1.46ZM284.62,248.79c-.22,0-.4.09-.54.28-.14.19-.22.53-.22,1.04,0,.46.07.78.22.97.15.19.33.28.54.28s.41-.09.55-.28c.14-.19.22-.53.22-1.04,0-.46-.07-.79-.22-.97-.15-.19-.33-.28-.55-.28ZM284.63,255.73l3.92-7.54h.71l-3.9,7.54h-.73ZM287.72,253.79c0-.51.13-.95.39-1.31s.63-.53,1.12-.53c.45,0,.82.16,1.12.48.29.32.44.79.44,1.41s-.15,1.07-.45,1.4c-.3.33-.67.49-1.11.49s-.79-.16-1.08-.49c-.29-.32-.43-.81-.43-1.46ZM289.26,252.55c-.22,0-.41.09-.55.28-.14.19-.22.53-.22,1.04,0,.46.07.78.22.97.15.19.33.28.54.28s.41-.09.55-.28c.14-.19.22-.53.22-1.04,0-.46-.07-.79-.22-.97-.15-.19-.33-.28-.55-.28Z"/>
        </g>
      </g>
      <g id="text_7">
        <g>
          <path id="ArialMT-39" class="st4" d="M316.02,201.85l.85-.08c.07.4.21.68.41.86.2.18.46.27.78.27.27,0,.51-.06.71-.19.2-.12.37-.29.5-.5.13-.21.24-.49.33-.84.09-.35.13-.71.13-1.08,0-.04,0-.1,0-.18-.18.28-.42.51-.72.68-.3.17-.63.26-.99.26-.59,0-1.09-.21-1.5-.64-.41-.43-.61-1-.61-1.7s.21-1.31.64-1.75c.43-.44.96-.66,1.61-.66.47,0,.89.13,1.28.38.39.25.68.61.88,1.07.2.46.3,1.13.3,2.01s-.1,1.64-.3,2.18c-.2.54-.49.95-.89,1.24-.39.28-.85.43-1.38.43-.56,0-1.02-.16-1.37-.47-.35-.31-.57-.75-.64-1.31ZM319.62,198.69c0-.51-.13-.91-.4-1.2-.27-.3-.59-.44-.97-.44s-.73.16-1.02.48c-.29.32-.43.73-.43,1.24,0,.46.14.83.41,1.11.28.28.61.43,1.02.43s.74-.14,1-.43c.26-.29.39-.68.39-1.18Z"/>
          <path id="ArialMT-256" data-name="ArialMT-25" class="st4" d="M321.62,198.06c0-.51.13-.95.39-1.3.26-.36.63-.54,1.12-.54.45,0,.82.16,1.12.48.29.32.44.79.44,1.41s-.15,1.07-.45,1.4c-.3.33-.66.49-1.1.49s-.79-.16-1.08-.48c-.29-.32-.43-.81-.43-1.46ZM323.15,196.83c-.22,0-.4.09-.54.28-.14.19-.22.53-.22,1.04,0,.46.07.78.22.97.15.19.33.28.54.28s.41-.09.55-.28c.14-.19.22-.53.22-1.04,0-.46-.07-.79-.22-.97-.15-.19-.33-.28-.55-.28ZM323.15,203.76l3.92-7.54h.71l-3.9,7.54h-.73ZM326.25,201.82c0-.51.13-.95.39-1.31s.63-.53,1.12-.53c.45,0,.82.16,1.12.48.29.32.44.79.44,1.41s-.15,1.07-.45,1.4c-.3.33-.67.49-1.11.49s-.79-.16-1.08-.49c-.29-.32-.43-.81-.43-1.46ZM327.78,200.59c-.22,0-.41.09-.55.28-.14.19-.22.53-.22,1.04,0,.46.07.78.22.97.15.19.33.28.54.28s.41-.09.55-.28c.14-.19.22-.53.22-1.04,0-.46-.07-.79-.22-.97-.15-.19-.33-.28-.55-.28Z"/>
        </g>
      </g>
    </g>
  </g>
</svg>