<?xml version="1.0" encoding="UTF-8"?>
<svg id="Layer_1" xmlns="http://www.w3.org/2000/svg" xmlns:xlink="http://www.w3.org/1999/xlink" version="1.1" viewBox="0 0 576 216">
  <!-- Generator: Adobe Illustrator 29.5.1, SVG Export Plug-In . SVG Version: 2.1.0 Build 141)  -->
  <defs>
    <style>
      .st0, .st1, .st2, .st3, .st4, .st5, .st6, .st7, .st8 {
        fill: none;
      }

      .st9 {
        isolation: isolate;
        opacity: .8;
        stroke: #ccc;
      }

      .st9, .st10 {
        fill: #fff;
      }

      .st1 {
        stroke: #d94e72;
      }

      .st1, .st2, .st3, .st4, .st5, .st6, .st7 {
        stroke-width: 1.5px;
      }

      .st1, .st2, .st3, .st4, .st5, .st6, .st7, .st11, .st12 {
        stroke-linejoin: round;
      }

      .st1, .st2, .st3, .st4, .st5, .st6, .st7, .st8 {
        stroke-linecap: square;
      }

      .st2 {
        stroke: #d94ec5;
      }

      .st3 {
        stroke: #55c9d9;
      }

      .st4 {
        stroke: #559fd9;
      }

      .st5 {
        stroke: #8dda62;
      }

      .st13 {
        clip-path: url(#clippath-1);
      }

      .st14 {
        clip-path: url(#clippath-3);
      }

      .st15 {
        clip-path: url(#clippath-4);
      }

      .st16 {
        clip-path: url(#clippath-2);
      }

      .st17 {
        clip-path: url(#clippath-6);
      }

      .st18 {
        clip-path: url(#clippath-5);
      }

      .st6 {
        stroke: #62d98f;
      }

      .st7 {
        stroke: #6d8891;
      }

      .st11 {
        stroke-width: .6px;
      }

      .st11, .st12, .st8 {
        stroke: #000;
      }

      .st12, .st8 {
        stroke-width: .8px;
      }

      .st19 {
        clip-path: url(#clippath);
      }
    </style>
    <clipPath id="clippath">
      <rect class="st0" x="324.75" y="14.4" width="231.4" height="161.08"/>
    </clipPath>
    <clipPath id="clippath-1">
      <rect class="st0" x="324.75" y="14.4" width="231.4" height="161.08"/>
    </clipPath>
    <clipPath id="clippath-2">
      <rect class="st0" x="324.75" y="14.4" width="231.4" height="161.08"/>
    </clipPath>
    <clipPath id="clippath-3">
      <rect class="st0" x="324.75" y="14.4" width="231.4" height="161.08"/>
    </clipPath>
    <clipPath id="clippath-4">
      <rect class="st0" x="324.75" y="14.4" width="231.4" height="161.08"/>
    </clipPath>
    <clipPath id="clippath-5">
      <rect class="st0" x="324.75" y="14.4" width="231.4" height="161.08"/>
    </clipPath>
    <clipPath id="clippath-6">
      <rect class="st0" x="324.75" y="14.4" width="231.4" height="161.08"/>
    </clipPath>
  </defs>
  <g id="figure_1">
    <g id="axes_2">
      <g id="patch_5">
        <path class="st10" d="M324.75,175.48h231.4V14.4h-231.4v161.08Z"/>
      </g>
      <g id="matplotlib.axis_3">
        <g id="xtick_7">
          <g id="line2d_13">
            <path id="m631e4b4503" class="st12" d="M327.16,175.48v3.5"/>
          </g>
          <g id="text_13">
            <g>
              <path id="ArialMT-33" d="M319.24,187.75l.88-.12c.1.5.27.86.52,1.08.24.22.54.33.89.33.41,0,.76-.14,1.05-.43.29-.29.43-.64.43-1.07s-.13-.74-.4-1c-.26-.26-.6-.39-1.01-.39-.17,0-.37.03-.62.1l.1-.77c.06,0,.11.01.14.01.38,0,.71-.1,1.01-.29.3-.2.45-.5.45-.9,0-.32-.11-.59-.33-.8-.22-.21-.5-.32-.84-.32s-.63.11-.85.32c-.23.21-.37.54-.44.97l-.88-.16c.11-.59.35-1.04.73-1.37.38-.32.86-.49,1.42-.49.39,0,.75.08,1.08.25.33.17.58.4.75.69.18.29.26.6.26.92,0,.31-.08.59-.25.84-.17.25-.41.46-.74.61.42.1.75.3.99.61.23.31.35.69.35,1.15,0,.63-.23,1.15-.68,1.59-.46.43-1.03.65-1.73.65-.63,0-1.15-.19-1.57-.56-.41-.38-.65-.86-.71-1.45Z"/>
              <path id="ArialMT-30" d="M324.8,186.11c0-.85.09-1.53.26-2.04.17-.52.43-.91.78-1.19.34-.28.78-.42,1.3-.42.38,0,.72.08,1.01.23.29.15.53.38.72.67.19.29.34.65.45,1.06.11.42.16.98.16,1.69,0,.84-.09,1.52-.26,2.03-.17.52-.43.91-.77,1.2-.34.28-.78.42-1.3.42-.69,0-1.23-.25-1.63-.74-.47-.6-.71-1.57-.71-2.91ZM325.7,186.11c0,1.18.14,1.96.41,2.35.28.39.61.58,1.02.58s.74-.2,1.02-.59.41-1.17.41-2.34-.14-1.96-.41-2.35c-.28-.39-.62-.58-1.03-.58s-.73.17-.97.51c-.3.44-.45,1.24-.45,2.42Z"/>
              <path id="ArialMT-301" data-name="ArialMT-30" d="M330.36,186.11c0-.85.09-1.53.26-2.04.17-.52.43-.91.78-1.19.34-.28.78-.42,1.3-.42.38,0,.72.08,1.01.23.29.15.53.38.72.67.19.29.34.65.45,1.06.11.42.16.98.16,1.69,0,.84-.09,1.52-.26,2.03-.17.52-.43.91-.77,1.2-.34.28-.78.42-1.3.42-.69,0-1.23-.25-1.63-.74-.47-.6-.71-1.57-.71-2.91ZM331.26,186.11c0,1.18.14,1.96.41,2.35.28.39.61.58,1.02.58s.74-.2,1.02-.59.41-1.17.41-2.34-.14-1.96-.41-2.35c-.28-.39-.62-.58-1.03-.58s-.73.17-.97.51c-.3.44-.45,1.24-.45,2.42Z"/>
            </g>
          </g>
        </g>
        <g id="xtick_8">
          <g id="line2d_14">
            <path id="m631e4b45031" data-name="m631e4b4503" class="st12" d="M360.91,175.48v3.5"/>
          </g>
          <g id="text_14">
            <g>
              <path id="ArialMT-31" d="M353.51,189.64h-.88v-5.6c-.21.2-.49.4-.83.6s-.65.35-.93.45v-.85c.49-.23.92-.51,1.29-.84.37-.33.63-.65.78-.96h.57v7.19Z"/>
              <path id="ArialMT-302" data-name="ArialMT-30" d="M355.76,186.11c0-.85.09-1.53.26-2.04.17-.52.43-.91.78-1.19.34-.28.78-.42,1.3-.42.38,0,.72.08,1.01.23.29.15.53.38.72.67.19.29.34.65.45,1.06.11.42.16.98.16,1.69,0,.84-.09,1.52-.26,2.03-.17.52-.43.91-.77,1.2-.34.28-.78.42-1.3.42-.69,0-1.23-.25-1.63-.74-.47-.6-.71-1.57-.71-2.91ZM356.67,186.11c0,1.18.14,1.96.41,2.35.28.39.61.58,1.02.58s.74-.2,1.02-.59.41-1.17.41-2.34-.14-1.96-.41-2.35c-.28-.39-.62-.58-1.03-.58s-.73.17-.97.51c-.3.44-.45,1.24-.45,2.42Z"/>
              <path id="ArialMT-303" data-name="ArialMT-30" d="M361.33,186.11c0-.85.09-1.53.26-2.04.17-.52.43-.91.78-1.19.34-.28.78-.42,1.3-.42.38,0,.72.08,1.01.23.29.15.53.38.72.67.19.29.34.65.45,1.06.11.42.16.98.16,1.69,0,.84-.09,1.52-.26,2.03-.17.52-.43.91-.77,1.2-.34.28-.78.42-1.3.42-.69,0-1.23-.25-1.63-.74-.47-.6-.71-1.57-.71-2.91ZM362.23,186.11c0,1.18.14,1.96.41,2.35.28.39.61.58,1.02.58s.74-.2,1.02-.59.41-1.17.41-2.34-.14-1.96-.41-2.35c-.28-.39-.62-.58-1.03-.58s-.73.17-.97.51c-.3.44-.45,1.24-.45,2.42Z"/>
              <path id="ArialMT-304" data-name="ArialMT-30" d="M366.89,186.11c0-.85.09-1.53.26-2.04.17-.52.43-.91.78-1.19.34-.28.78-.42,1.3-.42.38,0,.72.08,1.01.23.29.15.53.38.72.67.19.29.34.65.45,1.06.11.42.16.98.16,1.69,0,.84-.09,1.52-.26,2.03-.17.52-.43.91-.77,1.2-.34.28-.78.42-1.3.42-.69,0-1.23-.25-1.63-.74-.47-.6-.71-1.57-.71-2.91ZM367.79,186.11c0,1.18.14,1.96.41,2.35.28.39.61.58,1.02.58s.74-.2,1.02-.59.41-1.17.41-2.34-.14-1.96-.41-2.35c-.28-.39-.62-.58-1.03-.58s-.73.17-.97.51c-.3.44-.45,1.24-.45,2.42Z"/>
            </g>
          </g>
        </g>
        <g id="xtick_9">
          <g id="line2d_15">
            <path id="m631e4b45032" data-name="m631e4b4503" class="st12" d="M433.22,175.48v3.5"/>
          </g>
          <g id="text_15">
            <g>
              <path id="ArialMT-32" d="M427.13,188.79v.85h-4.73c0-.21.03-.42.1-.61.12-.32.31-.64.58-.95.27-.31.65-.67,1.15-1.08.78-.64,1.3-1.14,1.58-1.52.27-.37.41-.73.41-1.06s-.13-.64-.38-.88c-.25-.24-.57-.36-.97-.36-.42,0-.76.13-1.02.38-.25.25-.38.6-.39,1.05l-.9-.09c.06-.67.29-1.19.7-1.54.4-.35.95-.53,1.63-.53s1.23.19,1.63.57c.4.38.6.85.6,1.42,0,.29-.06.57-.18.85-.12.28-.31.57-.58.87s-.72.73-1.35,1.26c-.53.44-.87.74-1.02.9-.15.16-.27.32-.37.48h3.51Z"/>
              <path id="ArialMT-35" d="M428.08,187.76l.92-.08c.07.45.23.79.48,1.01.25.23.55.34.9.34.42,0,.78-.16,1.07-.48.29-.32.44-.74.44-1.27s-.14-.9-.42-1.19c-.28-.29-.65-.44-1.11-.44-.28,0-.54.06-.77.19-.23.13-.41.29-.54.5l-.83-.11.69-3.68h3.56v.84h-2.86l-.38,1.92c.43-.3.88-.45,1.35-.45.63,0,1.15.22,1.58.65.43.43.65.99.65,1.67s-.19,1.21-.57,1.68c-.46.58-1.09.87-1.88.87-.65,0-1.18-.18-1.6-.55-.41-.36-.65-.85-.7-1.45Z"/>
              <path id="ArialMT-305" data-name="ArialMT-30" d="M433.64,186.11c0-.85.09-1.53.26-2.04.17-.52.43-.91.78-1.19.34-.28.78-.42,1.3-.42.38,0,.72.08,1.01.23.29.15.53.38.72.67.19.29.34.65.45,1.06.11.42.16.98.16,1.69,0,.84-.09,1.52-.26,2.03-.17.52-.43.91-.77,1.2-.34.28-.78.42-1.3.42-.69,0-1.23-.25-1.63-.74-.47-.6-.71-1.57-.71-2.91ZM434.54,186.11c0,1.18.14,1.96.41,2.35.28.39.61.58,1.02.58s.74-.2,1.02-.59.41-1.17.41-2.34-.14-1.96-.41-2.35c-.28-.39-.62-.58-1.03-.58s-.73.17-.97.51c-.3.44-.45,1.24-.45,2.42Z"/>
              <path id="ArialMT-306" data-name="ArialMT-30" d="M439.2,186.11c0-.85.09-1.53.26-2.04.17-.52.43-.91.78-1.19.34-.28.78-.42,1.3-.42.38,0,.72.08,1.01.23.29.15.53.38.72.67.19.29.34.65.45,1.06.11.42.16.98.16,1.69,0,.84-.09,1.52-.26,2.03-.17.52-.43.91-.77,1.2-.34.28-.78.42-1.3.42-.69,0-1.23-.25-1.63-.74-.47-.6-.71-1.57-.71-2.91ZM440.1,186.11c0,1.18.14,1.96.41,2.35.28.39.61.58,1.02.58s.74-.2,1.02-.59.41-1.17.41-2.34-.14-1.96-.41-2.35c-.28-.39-.62-.58-1.03-.58s-.73.17-.97.51c-.3.44-.45,1.24-.45,2.42Z"/>
            </g>
          </g>
        </g>
        <g id="xtick_10">
          <g id="line2d_16">
            <path id="m631e4b45033" data-name="m631e4b4503" class="st12" d="M553.74,175.48v3.5"/>
          </g>
          <g id="text_16">
            <g>
              <path id="ArialMT-351" data-name="ArialMT-35" d="M543.04,187.76l.92-.08c.07.45.23.79.48,1.01.25.23.55.34.9.34.42,0,.78-.16,1.07-.48.29-.32.44-.74.44-1.27s-.14-.9-.42-1.19c-.28-.29-.65-.44-1.11-.44-.28,0-.54.06-.77.19-.23.13-.41.29-.54.5l-.83-.11.69-3.68h3.56v.84h-2.86l-.38,1.92c.43-.3.88-.45,1.35-.45.63,0,1.15.22,1.58.65.43.43.65.99.65,1.67s-.19,1.21-.57,1.68c-.46.58-1.09.87-1.88.87-.65,0-1.18-.18-1.6-.55-.41-.36-.65-.85-.7-1.45Z"/>
              <path id="ArialMT-307" data-name="ArialMT-30" d="M548.6,186.11c0-.85.09-1.53.26-2.04.17-.52.43-.91.78-1.19.34-.28.78-.42,1.3-.42.38,0,.72.08,1.01.23.29.15.53.38.72.67.19.29.34.65.45,1.06.11.42.16.98.16,1.69,0,.84-.09,1.52-.26,2.03-.17.52-.43.91-.77,1.2-.34.28-.78.42-1.3.42-.69,0-1.23-.25-1.63-.74-.47-.6-.71-1.57-.71-2.91ZM549.5,186.11c0,1.18.14,1.96.41,2.35.28.39.61.58,1.02.58s.74-.2,1.02-.59.41-1.17.41-2.34-.14-1.96-.41-2.35c-.28-.39-.62-.58-1.03-.58s-.73.17-.97.51c-.3.44-.45,1.24-.45,2.42Z"/>
              <path id="ArialMT-308" data-name="ArialMT-30" d="M554.16,186.11c0-.85.09-1.53.26-2.04.17-.52.43-.91.78-1.19.34-.28.78-.42,1.3-.42.38,0,.72.08,1.01.23.29.15.53.38.72.67.19.29.34.65.45,1.06.11.42.16.98.16,1.69,0,.84-.09,1.52-.26,2.03-.17.52-.43.91-.77,1.2-.34.28-.78.42-1.3.42-.69,0-1.23-.25-1.63-.74-.47-.6-.71-1.57-.71-2.91ZM555.06,186.11c0,1.18.14,1.96.41,2.35.28.39.61.58,1.02.58s.74-.2,1.02-.59.41-1.17.41-2.34-.14-1.96-.41-2.35c-.28-.39-.62-.58-1.03-.58s-.73.17-.97.51c-.3.44-.45,1.24-.45,2.42Z"/>
              <path id="ArialMT-309" data-name="ArialMT-30" d="M559.72,186.11c0-.85.09-1.53.26-2.04.17-.52.43-.91.78-1.19.34-.28.78-.42,1.3-.42.38,0,.72.08,1.01.23.29.15.53.38.72.67.19.29.34.65.45,1.06.11.42.16.98.16,1.69,0,.84-.09,1.52-.26,2.03-.17.52-.43.91-.77,1.2-.34.28-.78.42-1.3.42-.69,0-1.23-.25-1.63-.74-.47-.6-.71-1.57-.71-2.91ZM560.62,186.11c0,1.18.14,1.96.41,2.35.28.39.61.58,1.02.58s.74-.2,1.02-.59.41-1.17.41-2.34-.14-1.96-.41-2.35c-.28-.39-.62-.58-1.03-.58s-.73.17-.97.51c-.3.44-.45,1.24-.45,2.42Z"/>
            </g>
          </g>
        </g>
        <g id="text_17">
          <g>
            <path id="ArialMT-46" d="M406.82,202.91v-7.16h4.83v.84h-3.88v2.22h3.36v.85h-3.36v3.25h-.95Z"/>
            <path id="ArialMT-72" d="M412.76,202.91v-5.19h.79v.79c.2-.37.39-.61.56-.73.17-.12.36-.18.56-.18.3,0,.6.09.9.28l-.3.82c-.21-.13-.43-.19-.64-.19-.19,0-.37.06-.52.17s-.26.28-.33.48c-.1.31-.15.65-.15,1.03v2.72h-.88Z"/>
            <path id="ArialMT-65" d="M419.65,201.23l.91.11c-.14.53-.41.94-.8,1.24-.39.29-.88.44-1.48.44-.76,0-1.36-.23-1.8-.7-.44-.47-.67-1.12-.67-1.97s.22-1.55.67-2.03c.45-.48,1.03-.72,1.75-.72s1.26.24,1.7.71.66,1.14.66,1.99c0,.05,0,.13,0,.23h-3.87c.03.57.19,1.01.48,1.31.29.3.65.45,1.08.45.32,0,.6-.08.83-.25.23-.17.41-.44.54-.81ZM416.76,199.81h2.9c-.04-.44-.15-.76-.33-.98-.28-.34-.64-.51-1.09-.51-.4,0-.74.13-1.02.4s-.43.63-.46,1.08Z"/>
            <path id="ArialMT-71" d="M424.97,204.89v-2.54c-.14.19-.33.35-.58.48-.25.13-.51.19-.78.19-.62,0-1.15-.25-1.59-.74-.44-.49-.67-1.17-.67-2.02,0-.52.09-.99.27-1.4.18-.41.44-.73.79-.94.34-.21.72-.32,1.13-.32.64,0,1.15.27,1.51.81v-.69h.79v7.17h-.88ZM422.26,200.3c0,.67.14,1.17.42,1.5.28.33.62.5,1.01.5s.7-.16.97-.48c.27-.32.41-.8.41-1.45,0-.69-.14-1.21-.43-1.56-.28-.35-.62-.52-1-.52s-.7.16-.97.49-.4.83-.4,1.52Z"/>
            <path id="ArialMT-75" d="M430.62,202.91v-.76c-.4.59-.95.88-1.65.88-.31,0-.59-.06-.86-.18-.26-.12-.46-.27-.59-.44-.13-.18-.22-.4-.27-.65-.04-.17-.05-.45-.05-.82v-3.21h.88v2.88c0,.46.02.77.05.93.06.23.17.41.35.54.18.13.4.2.66.2s.51-.07.74-.2c.23-.14.39-.32.49-.55.1-.23.15-.57.15-1.01v-2.78h.88v5.19h-.79Z"/>
            <path id="ArialMT-651" data-name="ArialMT-65" d="M436.33,201.23l.91.11c-.14.53-.41.94-.8,1.24-.39.29-.88.44-1.48.44-.76,0-1.36-.23-1.8-.7-.44-.47-.67-1.12-.67-1.97s.22-1.55.67-2.03c.45-.48,1.03-.72,1.75-.72s1.26.24,1.7.71.66,1.14.66,1.99c0,.05,0,.13,0,.23h-3.87c.03.57.19,1.01.48,1.31.29.3.65.45,1.08.45.32,0,.6-.08.83-.25.23-.17.41-.44.54-.81ZM433.45,199.81h2.9c-.04-.44-.15-.76-.33-.98-.28-.34-.64-.51-1.09-.51-.4,0-.74.13-1.02.4s-.43.63-.46,1.08Z"/>
            <path id="ArialMT-6e" d="M438.35,202.91v-5.19h.79v.74c.38-.57.93-.85,1.65-.85.31,0,.6.06.86.17s.46.26.59.44.22.4.27.65c.03.16.05.45.05.85v3.19h-.88v-3.15c0-.36-.03-.63-.1-.8-.07-.18-.19-.32-.36-.42-.17-.11-.38-.16-.61-.16-.38,0-.7.12-.97.36s-.41.69-.41,1.35v2.83h-.88Z"/>
            <path id="ArialMT-63" d="M447.29,201.01l.86.11c-.09.6-.34,1.06-.73,1.4-.39.34-.87.5-1.43.5-.71,0-1.28-.23-1.71-.7-.43-.46-.65-1.13-.65-2,0-.56.09-1.05.28-1.47.19-.42.47-.74.85-.95.38-.21.79-.32,1.24-.32.56,0,1.02.14,1.38.43.36.28.59.69.69,1.21l-.85.13c-.08-.35-.23-.61-.43-.79-.21-.18-.46-.26-.75-.26-.44,0-.8.16-1.08.48-.28.32-.41.82-.41,1.5s.13,1.2.4,1.52c.27.32.62.47,1.05.47.34,0,.63-.11.86-.32.23-.21.38-.54.44-.98Z"/>
            <path id="ArialMT-79" d="M448.87,204.9l-.1-.83c.19.05.36.08.5.08.2,0,.35-.03.47-.1.12-.06.21-.16.29-.27.06-.09.14-.31.27-.65.02-.05.04-.12.08-.22l-1.97-5.2h.95l1.08,3c.14.38.27.78.38,1.2.1-.4.22-.8.36-1.18l1.11-3.02h.88l-1.97,5.27c-.21.57-.38.96-.49,1.18-.16.29-.34.5-.54.64-.2.14-.44.2-.72.2-.17,0-.36-.04-.57-.11Z"/>
            <path id="ArialMT-20" d="M453.25,202.91"/>
            <path id="ArialMT-28" d="M458.37,205.01c-.49-.61-.9-1.33-1.23-2.15-.33-.82-.5-1.67-.5-2.55,0-.78.13-1.52.38-2.23.29-.82.75-1.64,1.36-2.46h.63c-.39.68-.65,1.16-.78,1.45-.2.45-.36.92-.47,1.41-.14.61-.21,1.22-.21,1.84,0,1.57.49,3.13,1.46,4.69h-.63Z"/>
            <path id="ArialMT-48" d="M460.16,202.91v-7.16h.95v2.94h3.72v-2.94h.95v7.16h-.95v-3.37h-3.72v3.37h-.95Z"/>
            <path id="ArialMT-7a" d="M466.77,202.91v-.71l3.3-3.79c-.38.02-.71.03-.99.03h-2.11v-.71h4.24v.58l-2.81,3.29-.54.6c.39-.03.76-.04,1.11-.04h2.4v.76h-4.59Z"/>
            <path id="ArialMT-29" d="M472.81,205.01h-.63c.97-1.56,1.46-3.13,1.46-4.69,0-.61-.07-1.22-.21-1.82-.11-.49-.27-.96-.46-1.41-.13-.29-.39-.78-.79-1.46h.63c.61.82,1.06,1.64,1.36,2.46.25.71.38,1.45.38,2.23,0,.88-.17,1.73-.51,2.55-.34.82-.75,1.54-1.23,2.15Z"/>
          </g>
        </g>
      </g>
      <g id="matplotlib.axis_4">
        <g id="ytick_7">
          <g id="line2d_17">
            <path id="m43dcb27f96" class="st12" d="M324.75,148.52h-3.5"/>
          </g>
          <g id="text_18">
            <g>
              <path id="ArialMT-311" data-name="ArialMT-31" d="M297.78,153.58h-.88v-5.6c-.21.2-.49.4-.83.6s-.65.35-.93.45v-.85c.49-.23.92-.51,1.29-.84.37-.33.63-.65.78-.96h.57v7.19Z"/>
              <path id="ArialMT-3010" data-name="ArialMT-30" d="M300.03,150.05c0-.85.09-1.53.26-2.04.17-.52.43-.91.78-1.19.34-.28.78-.42,1.3-.42.38,0,.72.08,1.01.23.29.15.53.38.72.67.19.29.34.65.45,1.06.11.42.16.98.16,1.69,0,.84-.09,1.52-.26,2.03-.17.52-.43.91-.77,1.2-.34.28-.78.42-1.3.42-.69,0-1.23-.25-1.63-.74-.47-.6-.71-1.57-.71-2.91ZM300.93,150.05c0,1.18.14,1.96.41,2.35.28.39.61.58,1.02.58s.74-.2,1.02-.59.41-1.17.41-2.34-.14-1.96-.41-2.35c-.28-.39-.62-.58-1.03-.58s-.73.17-.97.51c-.3.44-.45,1.24-.45,2.42Z"/>
              <path id="ArialMT-2212" d="M309.05,144.42h-3.31v-.57h3.31v.57Z"/>
              <path id="ArialMT-312" data-name="ArialMT-31" d="M312.05,146.61h-.61v-3.92c-.15.14-.34.28-.58.42s-.46.25-.65.32v-.6c.34-.16.64-.36.9-.59.26-.23.44-.45.55-.67h.4v5.03Z"/>
              <path id="ArialMT-3011" data-name="ArialMT-30" d="M313.62,144.14c0-.59.06-1.07.18-1.43.12-.36.3-.64.54-.84.24-.2.54-.29.91-.29.27,0,.5.05.71.16.2.11.37.26.5.47.13.2.24.45.31.74.08.29.11.69.11,1.18,0,.59-.06,1.06-.18,1.42-.12.36-.3.64-.54.84-.24.2-.54.3-.91.3-.48,0-.86-.17-1.14-.52-.33-.42-.5-1.1-.5-2.04ZM314.25,144.14c0,.82.1,1.37.29,1.64.19.27.43.41.71.41s.52-.14.71-.41.29-.82.29-1.64-.1-1.37-.29-1.64c-.19-.27-.43-.41-.72-.41s-.51.12-.68.36c-.21.3-.32.87-.32,1.69Z"/>
            </g>
          </g>
        </g>
        <g id="ytick_8">
          <g id="line2d_18">
            <path id="m43dcb27f961" data-name="m43dcb27f96" class="st12" d="M324.75,109.95h-3.5"/>
          </g>
          <g id="text_19">
            <g>
              <path id="ArialMT-313" data-name="ArialMT-31" d="M301.68,115h-.88v-5.6c-.21.2-.49.4-.83.6s-.65.35-.93.45v-.85c.49-.23.92-.51,1.29-.84.37-.33.63-.65.78-.96h.57v7.19Z"/>
              <path id="ArialMT-3012" data-name="ArialMT-30" d="M303.93,111.47c0-.85.09-1.53.26-2.04.17-.52.43-.91.78-1.19.34-.28.78-.42,1.3-.42.38,0,.72.08,1.01.23.29.15.53.38.72.67.19.29.34.65.45,1.06.11.42.16.98.16,1.69,0,.84-.09,1.52-.26,2.03-.17.52-.43.91-.77,1.2-.34.28-.78.42-1.3.42-.69,0-1.23-.25-1.63-.74-.47-.6-.71-1.57-.71-2.91ZM304.83,111.47c0,1.18.14,1.96.41,2.35.28.39.61.58,1.02.58s.74-.2,1.02-.59.41-1.17.41-2.34-.14-1.96-.41-2.35c-.28-.39-.62-.58-1.03-.58s-.73.17-.97.51c-.3.44-.45,1.24-.45,2.42Z"/>
              <path id="ArialMT-22121" data-name="ArialMT-2212" d="M312.95,105.85h-3.31v-.57h3.31v.57Z"/>
              <path id="ArialMT-39" d="M313.72,106.88l.59-.05c.05.28.15.48.29.6.14.13.32.19.54.19.19,0,.35-.04.5-.13.14-.09.26-.2.35-.35.09-.15.17-.34.23-.59.06-.25.09-.5.09-.75,0-.03,0-.07,0-.12-.12.2-.29.35-.5.48-.21.12-.44.18-.69.18-.41,0-.77-.15-1.05-.45-.29-.3-.43-.7-.43-1.19s.15-.92.45-1.23c.3-.31.67-.46,1.13-.46.33,0,.62.09.89.26.27.18.48.43.62.75.14.32.21.79.21,1.41s-.07,1.15-.21,1.53c-.14.38-.35.67-.62.87-.27.2-.6.3-.96.3-.39,0-.71-.11-.96-.33-.25-.22-.4-.52-.45-.92ZM316.24,104.67c0-.35-.09-.63-.28-.84-.19-.21-.41-.31-.68-.31s-.51.11-.71.33c-.2.22-.3.51-.3.87,0,.32.1.58.29.78.19.2.43.3.71.3s.52-.1.7-.3c.18-.2.28-.48.28-.83Z"/>
            </g>
          </g>
        </g>
        <g id="ytick_9">
          <g id="line2d_19">
            <path id="m43dcb27f962" data-name="m43dcb27f96" class="st12" d="M324.75,71.38h-3.5"/>
          </g>
          <g id="text_20">
            <g>
              <path id="ArialMT-314" data-name="ArialMT-31" d="M301.68,76.43h-.88v-5.6c-.21.2-.49.4-.83.6s-.65.35-.93.45v-.85c.49-.23.92-.51,1.29-.84.37-.33.63-.65.78-.96h.57v7.19Z"/>
              <path id="ArialMT-3013" data-name="ArialMT-30" d="M303.93,72.9c0-.85.09-1.53.26-2.04.17-.52.43-.91.78-1.19.34-.28.78-.42,1.3-.42.38,0,.72.08,1.01.23.29.15.53.38.72.67.19.29.34.65.45,1.06.11.42.16.98.16,1.69,0,.84-.09,1.52-.26,2.03-.17.52-.43.91-.77,1.2-.34.28-.78.42-1.3.42-.69,0-1.23-.25-1.63-.74-.47-.6-.71-1.57-.71-2.91ZM304.83,72.9c0,1.18.14,1.96.41,2.35.28.39.61.58,1.02.58s.74-.2,1.02-.59.41-1.17.41-2.34-.14-1.96-.41-2.35c-.28-.39-.62-.58-1.03-.58s-.73.17-.97.51c-.3.44-.45,1.24-.45,2.42Z"/>
              <path id="ArialMT-22122" data-name="ArialMT-2212" d="M312.95,67.28h-3.31v-.57h3.31v.57Z"/>
              <path id="ArialMT-38" d="M314.57,66.75c-.26-.09-.44-.23-.57-.4-.12-.17-.18-.38-.18-.62,0-.36.13-.67.39-.92.26-.25.61-.37,1.05-.37s.79.13,1.06.38c.27.25.4.56.4.93,0,.23-.06.43-.18.61-.12.17-.31.3-.55.4.31.1.54.26.7.49.16.22.24.49.24.8,0,.43-.15.79-.46,1.08-.3.29-.7.44-1.2.44s-.89-.15-1.2-.44c-.3-.29-.46-.66-.46-1.1,0-.33.08-.6.25-.82.17-.22.4-.37.71-.45ZM314.45,65.7c0,.24.08.43.23.58.15.15.35.23.6.23s.43-.07.58-.22c.15-.15.23-.33.23-.55s-.08-.42-.24-.57c-.16-.15-.35-.23-.58-.23s-.43.08-.59.23c-.15.15-.23.33-.23.54ZM314.25,68.02c0,.18.04.35.12.51s.21.29.37.38c.16.09.34.13.53.13.29,0,.54-.09.73-.28.19-.19.29-.43.29-.72s-.1-.54-.3-.74c-.2-.19-.44-.29-.74-.29s-.53.1-.72.29c-.19.19-.28.43-.28.72Z"/>
            </g>
          </g>
        </g>
        <g id="ytick_10">
          <g id="line2d_20">
            <path id="m43dcb27f963" data-name="m43dcb27f96" class="st12" d="M324.75,32.8h-3.5"/>
          </g>
          <g id="text_21">
            <g>
              <path id="ArialMT-315" data-name="ArialMT-31" d="M301.68,37.82h-.88v-5.6c-.21.2-.49.4-.83.6s-.65.35-.93.45v-.85c.49-.23.92-.51,1.29-.84.37-.33.63-.65.78-.96h.57v7.19Z"/>
              <path id="ArialMT-3014" data-name="ArialMT-30" d="M303.93,34.3c0-.85.09-1.53.26-2.04.17-.52.43-.91.78-1.19.34-.28.78-.42,1.3-.42.38,0,.72.08,1.01.23.29.15.53.38.72.67.19.29.34.65.45,1.06.11.42.16.98.16,1.69,0,.84-.09,1.52-.26,2.03-.17.52-.43.91-.77,1.2-.34.28-.78.42-1.3.42-.69,0-1.23-.25-1.63-.74-.47-.6-.71-1.57-.71-2.91ZM304.83,34.3c0,1.18.14,1.96.41,2.35.28.39.61.58,1.02.58s.74-.2,1.02-.59.41-1.17.41-2.34-.14-1.96-.41-2.35c-.28-.39-.62-.58-1.03-.58s-.73.17-.97.51c-.3.44-.45,1.24-.45,2.42Z"/>
              <path id="ArialMT-22123" data-name="ArialMT-2212" d="M312.95,28.67h-3.31v-.57h3.31v.57Z"/>
              <path id="ArialMT-37" d="M313.67,26.5v-.59h3.24v.48c-.32.34-.64.79-.95,1.35-.31.56-.55,1.14-.73,1.74-.12.42-.2.88-.24,1.38h-.63c0-.39.08-.87.23-1.43.15-.56.36-1.1.64-1.62s.57-.96.88-1.31h-2.45Z"/>
            </g>
          </g>
        </g>
        <g id="ytick_11">
          <g id="line2d_21">
            <path id="md2c7f7ac2c" class="st11" d="M324.75,175.48h-2"/>
          </g>
        </g>
        <g id="ytick_12">
          <g id="line2d_22">
            <path id="md2c7f7ac2c1" data-name="md2c7f7ac2c" class="st11" d="M324.75,168.69h-2"/>
          </g>
        </g>
        <g id="ytick_13">
          <g id="line2d_23">
            <path id="md2c7f7ac2c2" data-name="md2c7f7ac2c" class="st11" d="M324.75,163.87h-2"/>
          </g>
        </g>
        <g id="ytick_14">
          <g id="line2d_24">
            <path id="md2c7f7ac2c3" data-name="md2c7f7ac2c" class="st11" d="M324.75,160.13h-2"/>
          </g>
        </g>
        <g id="ytick_15">
          <g id="line2d_25">
            <path id="md2c7f7ac2c4" data-name="md2c7f7ac2c" class="st11" d="M324.75,157.08h-2"/>
          </g>
        </g>
        <g id="ytick_16">
          <g id="line2d_26">
            <path id="md2c7f7ac2c5" data-name="md2c7f7ac2c" class="st11" d="M324.75,154.49h-2"/>
          </g>
        </g>
        <g id="ytick_17">
          <g id="line2d_27">
            <path id="md2c7f7ac2c6" data-name="md2c7f7ac2c" class="st11" d="M324.75,152.26h-2"/>
          </g>
        </g>
        <g id="ytick_18">
          <g id="line2d_28">
            <path id="md2c7f7ac2c7" data-name="md2c7f7ac2c" class="st11" d="M324.75,150.28h-2"/>
          </g>
        </g>
        <g id="ytick_19">
          <g id="line2d_29">
            <path id="md2c7f7ac2c8" data-name="md2c7f7ac2c" class="st11" d="M324.75,136.91h-2"/>
          </g>
        </g>
        <g id="ytick_20">
          <g id="line2d_30">
            <path id="md2c7f7ac2c9" data-name="md2c7f7ac2c" class="st11" d="M324.75,130.12h-2"/>
          </g>
        </g>
        <g id="ytick_21">
          <g id="line2d_31">
            <path id="md2c7f7ac2c10" data-name="md2c7f7ac2c" class="st11" d="M324.75,125.3h-2"/>
          </g>
        </g>
        <g id="ytick_22">
          <g id="line2d_32">
            <path id="md2c7f7ac2c11" data-name="md2c7f7ac2c" class="st11" d="M324.75,121.56h-2"/>
          </g>
        </g>
        <g id="ytick_23">
          <g id="line2d_33">
            <path id="md2c7f7ac2c12" data-name="md2c7f7ac2c" class="st11" d="M324.75,118.5h-2"/>
          </g>
        </g>
        <g id="ytick_24">
          <g id="line2d_34">
            <path id="md2c7f7ac2c13" data-name="md2c7f7ac2c" class="st11" d="M324.75,115.92h-2"/>
          </g>
        </g>
        <g id="ytick_25">
          <g id="line2d_35">
            <path id="md2c7f7ac2c14" data-name="md2c7f7ac2c" class="st11" d="M324.75,113.69h-2"/>
          </g>
        </g>
        <g id="ytick_26">
          <g id="line2d_36">
            <path id="md2c7f7ac2c15" data-name="md2c7f7ac2c" class="st11" d="M324.75,111.71h-2"/>
          </g>
        </g>
        <g id="ytick_27">
          <g id="line2d_37">
            <path id="md2c7f7ac2c16" data-name="md2c7f7ac2c" class="st11" d="M324.75,98.34h-2"/>
          </g>
        </g>
        <g id="ytick_28">
          <g id="line2d_38">
            <path id="md2c7f7ac2c17" data-name="md2c7f7ac2c" class="st11" d="M324.75,91.54h-2"/>
          </g>
        </g>
        <g id="ytick_29">
          <g id="line2d_39">
            <path id="md2c7f7ac2c18" data-name="md2c7f7ac2c" class="st11" d="M324.75,86.72h-2"/>
          </g>
        </g>
        <g id="ytick_30">
          <g id="line2d_40">
            <path id="md2c7f7ac2c19" data-name="md2c7f7ac2c" class="st11" d="M324.75,82.99h-2"/>
          </g>
        </g>
        <g id="ytick_31">
          <g id="line2d_41">
            <path id="md2c7f7ac2c20" data-name="md2c7f7ac2c" class="st11" d="M324.75,79.93h-2"/>
          </g>
        </g>
        <g id="ytick_32">
          <g id="line2d_42">
            <path id="md2c7f7ac2c21" data-name="md2c7f7ac2c" class="st11" d="M324.75,77.35h-2"/>
          </g>
        </g>
        <g id="ytick_33">
          <g id="line2d_43">
            <path id="md2c7f7ac2c22" data-name="md2c7f7ac2c" class="st11" d="M324.75,75.11h-2"/>
          </g>
        </g>
        <g id="ytick_34">
          <g id="line2d_44">
            <path id="md2c7f7ac2c23" data-name="md2c7f7ac2c" class="st11" d="M324.75,73.14h-2"/>
          </g>
        </g>
        <g id="ytick_35">
          <g id="line2d_45">
            <path id="md2c7f7ac2c24" data-name="md2c7f7ac2c" class="st11" d="M324.75,59.76h-2"/>
          </g>
        </g>
        <g id="ytick_36">
          <g id="line2d_46">
            <path id="md2c7f7ac2c25" data-name="md2c7f7ac2c" class="st11" d="M324.75,52.97h-2"/>
          </g>
        </g>
        <g id="ytick_37">
          <g id="line2d_47">
            <path id="md2c7f7ac2c26" data-name="md2c7f7ac2c" class="st11" d="M324.75,48.15h-2"/>
          </g>
        </g>
        <g id="ytick_38">
          <g id="line2d_48">
            <path id="md2c7f7ac2c27" data-name="md2c7f7ac2c" class="st11" d="M324.75,44.41h-2"/>
          </g>
        </g>
        <g id="ytick_39">
          <g id="line2d_49">
            <path id="md2c7f7ac2c28" data-name="md2c7f7ac2c" class="st11" d="M324.75,41.36h-2"/>
          </g>
        </g>
        <g id="ytick_40">
          <g id="line2d_50">
            <path id="md2c7f7ac2c29" data-name="md2c7f7ac2c" class="st11" d="M324.75,38.78h-2"/>
          </g>
        </g>
        <g id="ytick_41">
          <g id="line2d_51">
            <path id="md2c7f7ac2c30" data-name="md2c7f7ac2c" class="st11" d="M324.75,36.54h-2"/>
          </g>
        </g>
        <g id="ytick_42">
          <g id="line2d_52">
            <path id="md2c7f7ac2c31" data-name="md2c7f7ac2c" class="st11" d="M324.75,34.57h-2"/>
          </g>
        </g>
        <g id="ytick_43">
          <g id="line2d_53">
            <path id="md2c7f7ac2c32" data-name="md2c7f7ac2c" class="st11" d="M324.75,21.19h-2"/>
          </g>
        </g>
        <g id="ytick_44">
          <g id="line2d_54">
            <path id="md2c7f7ac2c33" data-name="md2c7f7ac2c" class="st11" d="M324.75,14.4h-2"/>
          </g>
        </g>
        <g id="text_22">
          <g>
            <path id="ArialMT-4c" d="M287.95,118.11h-7.16v-.95h6.31v-3.53h.85v4.47Z"/>
            <path id="ArialMT-6f" d="M285.36,112.95c-.96,0-1.67-.27-2.13-.8-.38-.45-.58-.99-.58-1.63,0-.71.23-1.29.7-1.75.47-.45,1.11-.68,1.94-.68.67,0,1.19.1,1.58.3.38.2.68.49.89.88.21.38.32.8.32,1.25,0,.73-.23,1.31-.7,1.76-.47.45-1.14.67-2.01.67ZM285.36,112.04c.66,0,1.16-.14,1.49-.43.33-.29.5-.65.5-1.09s-.17-.8-.5-1.09c-.33-.29-.84-.43-1.52-.43-.64,0-1.13.15-1.46.44s-.5.65-.5,1.09.16.8.49,1.09c.33.29.82.43,1.49.43Z"/>
            <path id="ArialMT-67" d="M288.38,107.22l.13-.85c.26-.04.46-.13.58-.3.16-.22.24-.52.24-.89,0-.41-.08-.72-.24-.94-.16-.22-.39-.37-.68-.45-.18-.05-.56-.07-1.13-.06.45.38.68.86.68,1.43,0,.71-.26,1.27-.77,1.66-.51.39-1.13.59-1.85.59-.49,0-.95-.09-1.37-.27-.42-.18-.74-.44-.97-.78-.23-.34-.34-.74-.34-1.2,0-.61.25-1.12.74-1.51h-.63v-.81h4.48c.81,0,1.38.08,1.72.25.34.16.6.42.8.78.2.36.29.79.29,1.32,0,.62-.14,1.12-.42,1.5s-.7.57-1.26.55ZM285.26,106.49c.68,0,1.18-.13,1.49-.4.31-.27.47-.61.47-1.02s-.16-.74-.47-1.01c-.31-.27-.8-.41-1.46-.41s-1.11.14-1.43.42c-.32.28-.48.62-.48,1.02s.16.72.48,1c.32.27.79.41,1.41.41Z"/>
            <path id="ArialMT-201" data-name="ArialMT-20" d="M287.95,102.16"/>
            <path id="ArialMT-50" d="M287.95,98.61h-7.16v-2.7c0-.48.02-.84.07-1.09.06-.35.17-.65.34-.88.16-.24.39-.43.69-.58.3-.14.62-.22.98-.22.61,0,1.12.19,1.55.58.42.39.63,1.09.63,2.1v1.84h2.91v.95ZM284.19,97.66v-1.85c0-.61-.11-1.05-.34-1.3s-.55-.39-.96-.39c-.3,0-.55.08-.77.23-.21.15-.35.35-.42.6-.04.16-.06.46-.06.88v1.83h2.56Z"/>
            <path id="ArialMT-6f1" data-name="ArialMT-6f" d="M285.36,92.38c-.96,0-1.67-.27-2.13-.8-.38-.45-.58-.99-.58-1.63,0-.71.23-1.29.7-1.75.47-.45,1.11-.68,1.94-.68.67,0,1.19.1,1.58.3.38.2.68.49.89.88.21.38.32.8.32,1.25,0,.73-.23,1.31-.7,1.76-.47.45-1.14.67-2.01.67ZM285.36,91.47c.66,0,1.16-.14,1.49-.43.33-.29.5-.65.5-1.09s-.17-.8-.5-1.09c-.33-.29-.84-.43-1.52-.43-.64,0-1.13.15-1.46.44s-.5.65-.5,1.09.16.8.49,1.09c.33.29.82.43,1.49.43Z"/>
            <path id="ArialMT-77" d="M287.95,85.53l-5.19,1.59v-.91l2.99-.83,1.11-.31c-.06-.01-.41-.1-1.07-.27l-3.04-.83v-.9l3.01-.78.99-.26-1-.3-3-.89v-.85l5.19,1.62v.91l-3.11.83-.88.2,3.99,1.05v.92Z"/>
            <path id="ArialMT-652" data-name="ArialMT-65" d="M286.28,75.72l.11-.91c.53.14.94.41,1.24.8.29.39.44.88.44,1.48,0,.76-.23,1.36-.7,1.8-.47.44-1.12.67-1.97.67s-1.55-.22-2.03-.67c-.48-.45-.72-1.03-.72-1.75s.24-1.26.71-1.7,1.14-.66,1.99-.66c.05,0,.13,0,.23,0v3.87c.57-.03,1.01-.19,1.31-.48.3-.29.45-.65.45-1.08,0-.32-.08-.6-.25-.83-.17-.23-.44-.41-.81-.54ZM284.86,78.6v-2.9c-.44.04-.76.15-.98.33-.34.28-.51.64-.51,1.09,0,.4.13.74.4,1.02s.63.43,1.08.46Z"/>
            <path id="ArialMT-721" data-name="ArialMT-72" d="M287.95,73.71h-5.19v-.79h.79c-.37-.2-.61-.39-.73-.56-.12-.17-.18-.36-.18-.56,0-.3.09-.6.28-.9l.82.3c-.13.21-.19.43-.19.64,0,.19.06.37.17.52s.28.26.48.33c.31.1.65.15,1.03.15h2.72v.88Z"/>
          </g>
        </g>
      </g>
      <g id="line2d_55">
        <g class="st19">
          <path class="st1" d="M324.73,39.77l1.54-2.75,1.54-2.31,1.54-1.91,1.54-1.57,1.54-1.26,1.54-.98,1.54-.72,1.59-.5,1.64-.28,1.69-.06,1.74.16,1.83.4,1.98.66,2.12.95,2.31,1.28,2.6,1.71,2.99,2.23,3.86,3.18,9.98,8.38,3.33,2.41,3.28,2.09,3.95,2.25,9.06,5.06,4.15,2.65,5.83,4.03,5.79,3.91,4.1,2.49,4.63,2.54,23.72,12.39,3.37,1.35,3.52,1.16,6.07,1.72,3.91,1.24,2.99,1.18,2.8,1.34,2.84,1.62,3.09,2.02,4,2.91,9.35,6.89,5.25,3.5,16.44,10.5,3.52,1.94,2.94,1.38,2.7,1.02,2.65.76,2.75.56,3.33.44,7.86.94,2.75.61,2.6.81,2.65,1.07,2.84,1.39,3.42,1.93,4.77,2.98,5.88,3.92,4.19,3.03h0"/>
        </g>
      </g>
      <g id="line2d_56">
        <g class="st13">
          <path class="st2" d="M324.73,49.58l1.59-3.15,1.64-2.75,1.64-2.32,1.64-1.95,1.69-1.67,1.69-1.36,1.74-1.11,1.74-.85,1.78-.63,1.83-.41,1.88-.19,1.98.02,2.12.24,2.27.49,2.51.77,2.8,1.1,3.33,1.56,4.44,2.34,12.87,7.18,7.76,4.46,5.35,3.34,6.46,4.32,8.1,5.38,4.63,2.79,4.77,2.61,6.65,3.36,10.61,5.11,5.3,2.32,4.77,1.84,6.03,2.06,8.05,2.78,4.97,1.97,5.79,2.56,21.84,10.12,5.01,2.66,15.19,8.3,3.86,1.68,4.77,1.81,8.05,3.03,4.1,1.82,4.39,2.2,11.18,5.75,3.76,1.58,4.44,1.61,4.48,1.53h0"/>
        </g>
      </g>
      <g id="line2d_57">
        <g class="st16">
          <path class="st4" d="M324.73,57.64l1.69-3.08,1.69-2.62,1.69-2.21,1.69-1.86,1.74-1.58,1.74-1.29,1.78-1.05,1.83-.82,1.88-.6,1.98-.39,2.07-.18,2.22.03,2.36.26,2.6.51,2.94.81,3.57,1.23,5.3,2.09,8.44,3.31,6.36,2.22,9.74,3.39,6.8,2.66,7.81,3.01,4.53,1.5,4.72,1.32,7.57,1.83,8.15,2.06,20.25,5.33,8.44,2.13,5.01,1.51,5.11,1.78,7.18,2.76,24.49,9.76,11.62,4.79,5.69,2.06,9.16,3.02,6.12,2.16,5.3,2.11,6.41,2.81,11.76,5.45,2.02.96h0"/>
        </g>
      </g>
      <g id="line2d_58">
        <g class="st14">
          <path class="st3" d="M324.73,53.95l4.92-1.26,3.95-.78,4.72-.69,9.45-1.1,6.36-.57,4.34-.17,3.95.07,3.95.29,4.19.53,4.48.8,4.68,1.06,4.97,1.36,6.22,1.95,11.96,3.79,6.85,1.88,24.59,6.52,6.22,2.06,10.27,3.69,7.95,2.73,6.36,1.95,6.8,1.84,14.8,3.91,5.79,1.84,6.46,2.29,17.79,6.47,5.16,1.53,5.64,1.43,10.75,2.43,7.42,1.82,6.36,1.79,4.1,1.26h0"/>
        </g>
      </g>
      <g id="line2d_59">
        <g class="st15">
          <path class="st5" d="M324.73,55.21l3.71-4.12,2.65-2.62,2.41-2.07,2.27-1.66,2.22-1.35,2.17-1.06,2.17-.82,2.22-.59,2.27-.38,2.41-.17,2.6.04,2.89.27,3.42.55,4.24.92,5.3,1.39,5.54,1.68,5.11,1.78,5.16,2.03,6.03,2.63,22.51,10.06,11.86,5.02,6.22,2.93,16.83,8.09,12.82,5.64,19.96,8.68,7.57,2.95,11.28,4.39,5.98,2.61,9.35,4.37,9.21,4.2,7.91,3.36,7.71,3.03,9.06,3.31,8.39,2.96h0"/>
        </g>
      </g>
      <g id="line2d_60">
        <g class="st18">
          <path class="st6" d="M324.73,29.56l1.59-2.16,1.54-1.73,1.49-1.35,1.45-1.02,1.45-.75,1.45-.5,1.45-.27,1.49-.05,1.54.18,1.59.41,1.69.68,1.78.96,1.93,1.3,2.07,1.67,2.31,2.16,2.6,2.74,3.09,3.59,4.44,5.54,5.06,6.25,2.56,2.81,2.12,2.01,1.88,1.48,1.78,1.13,1.83.9,2.02.74,2.56.68,6.17,1.55,2.41.9,2.31,1.1,2.41,1.4,2.65,1.81,3.52,2.69,8,6.21,4.39,3.03,7.67,5.25,3.86,2.96,4.97,4.13,5.3,4.34,2.8,2,2.31,1.39,2.12,1.02,2.07.75,2.12.53,2.41.36,3.91.32,3.62.39,2.46.49,2.22.67,2.17.89,2.27,1.17,2.46,1.53,2.89,2.07,4.15,3.28,8.2,6.81,3.76,3.4,3.18,3.18,3.42,3.75,7.47,8.31,2.12,1.95,1.83,1.39,1.64.98,1.54.67,1.49.42,1.49.19,1.54-.02,1.69-.26,1.93-.53,2.56-.96,5.3-2.04,2.12-.54,1.93-.27,1.83-.03,1.88.2,2.02.44,2.41.77,8.82,3.05,3.86.86,3.18.79,2.07.74,1.88.91,1.83,1.14.05.03h0"/>
        </g>
      </g>
      <g id="line2d_61">
        <g class="st17">
          <path class="st7" d="M324.73,73.37l1.64.59,1.35.26,1.25.02,1.25-.2,1.3-.43,1.49-.74,1.83-1.18,2.94-2.2,3.91-2.86,2.56-1.59,2.46-1.27,2.6-1.09,3.09-1.04,4.19-1.16,5.83-1.38,4.24-.8,3.42-.42,3.18-.17,3.28.05,3.66.29,5.06.64,12.58,1.66,7.09.66,9.45.63,8.48.65,7.91.86,14.8,1.86,6.51,1.04,6.12,1.21,6.75,1.56,7.28,1.92,7.62,2.24,7.86,2.54,7.81,2.76,12.29,4.63,16.83,6.22,13.55,4.85,16.25,5.51,1.74.59h0"/>
        </g>
      </g>
      <g id="patch_6">
        <path class="st8" d="M324.75,168.69V14.4"/>
      </g>
      <g id="patch_7">
        <path class="st8" d="M327.16,175.48h226.58"/>
      </g>
      <g id="legend_1">
        <g id="patch_8">
          <path class="st9" d="M329.61,172.01h38.02c.93,0,1.39-.46,1.39-1.39v-68.02c0-.93-.46-1.39-1.39-1.39h-38.02c-.93,0-1.39.46-1.39,1.39v68.02c0,.93.46,1.39,1.39,1.39Z"/>
        </g>
        <g id="line2d_62">
          <path class="st1" d="M331,106.52h13.88"/>
        </g>
        <g id="text_23">
          <g>
            <path id="ArialMT-42" d="M350.94,108.95v-4.97h1.86c.38,0,.68.05.91.15s.41.26.54.46c.13.21.2.43.2.66,0,.21-.06.41-.17.6-.11.19-.29.34-.52.45.3.09.53.24.69.45.16.21.24.46.24.75,0,.23-.05.45-.15.65-.1.2-.22.35-.36.46s-.33.19-.54.25c-.22.05-.48.08-.8.08h-1.89ZM351.6,106.07h1.07c.29,0,.5-.02.63-.06.17-.05.29-.13.38-.25.08-.12.13-.26.13-.43,0-.16-.04-.31-.12-.43-.08-.13-.19-.21-.34-.26-.15-.05-.4-.07-.75-.07h-.99v1.5ZM351.6,108.37h1.24c.21,0,.36,0,.45-.02.15-.03.28-.07.38-.13.1-.06.19-.16.25-.28.07-.12.1-.26.1-.42,0-.19-.05-.35-.14-.48-.09-.14-.23-.23-.39-.29-.17-.06-.41-.08-.73-.08h-1.15v1.71Z"/>
            <path id="ArialMT-53" d="M355.37,107.36l.62-.05c.03.25.1.45.2.61.11.16.27.29.5.39.23.1.48.15.76.15.25,0,.47-.04.66-.11.19-.07.34-.18.43-.31.09-.13.14-.27.14-.43s-.05-.29-.14-.41-.24-.21-.45-.29c-.13-.05-.43-.13-.88-.24-.46-.11-.78-.21-.96-.31-.24-.12-.41-.28-.53-.46-.12-.18-.17-.39-.17-.62,0-.25.07-.49.21-.7.14-.22.35-.38.62-.5.27-.11.58-.17.91-.17.37,0,.69.06.97.18.28.12.5.29.65.52.15.23.23.49.24.78l-.63.05c-.03-.31-.15-.55-.34-.71-.2-.16-.48-.24-.87-.24s-.69.07-.87.22c-.18.15-.27.32-.27.53,0,.18.06.33.19.44.13.11.46.23.99.35.53.12.9.23,1.1.32.29.13.5.3.64.51.14.2.21.44.21.71s-.08.51-.23.75c-.15.23-.37.42-.65.55-.28.13-.6.19-.96.19-.45,0-.83-.07-1.13-.2-.3-.13-.54-.33-.71-.59-.17-.26-.26-.56-.27-.89Z"/>
            <path id="ArialMT-2d" d="M359.91,107.46v-.61h1.87v.61h-1.87Z"/>
            <path id="ArialMT-316" data-name="ArialMT-31" d="M364.58,108.95h-.61v-3.89c-.15.14-.34.28-.58.42s-.45.25-.64.32v-.59c.34-.16.64-.35.89-.58.26-.23.44-.45.54-.66h.39v4.99Z"/>
          </g>
        </g>
        <g id="line2d_63">
          <path class="st2" d="M331,116.34h13.88"/>
        </g>
        <g id="text_24">
          <g>
            <path id="ArialMT-421" data-name="ArialMT-42" d="M350.94,118.77v-4.97h1.86c.38,0,.68.05.91.15s.41.26.54.46c.13.21.2.43.2.66,0,.21-.06.41-.17.6-.11.19-.29.34-.52.45.3.09.53.24.69.45.16.21.24.46.24.75,0,.23-.05.45-.15.65-.1.2-.22.35-.36.46s-.33.19-.54.25c-.22.05-.48.08-.8.08h-1.89ZM351.6,115.89h1.07c.29,0,.5-.02.63-.06.17-.05.29-.13.38-.25.08-.12.13-.26.13-.43,0-.16-.04-.31-.12-.43-.08-.13-.19-.21-.34-.26-.15-.05-.4-.07-.75-.07h-.99v1.5ZM351.6,118.18h1.24c.21,0,.36,0,.45-.02.15-.03.28-.07.38-.13.1-.06.19-.16.25-.28.07-.12.1-.26.1-.42,0-.19-.05-.35-.14-.48-.09-.14-.23-.23-.39-.29-.17-.06-.41-.08-.73-.08h-1.15v1.71Z"/>
            <path id="ArialMT-531" data-name="ArialMT-53" d="M355.37,117.17l.62-.05c.03.25.1.45.2.61.11.16.27.29.5.39.23.1.48.15.76.15.25,0,.47-.04.66-.11.19-.07.34-.18.43-.31.09-.13.14-.27.14-.43s-.05-.29-.14-.41-.24-.21-.45-.29c-.13-.05-.43-.13-.88-.24-.46-.11-.78-.21-.96-.31-.24-.12-.41-.28-.53-.46-.12-.18-.17-.39-.17-.62,0-.25.07-.49.21-.7.14-.22.35-.38.62-.5.27-.11.58-.17.91-.17.37,0,.69.06.97.18.28.12.5.29.65.52.15.23.23.49.24.78l-.63.05c-.03-.31-.15-.55-.34-.71-.2-.16-.48-.24-.87-.24s-.69.07-.87.22c-.18.15-.27.32-.27.53,0,.18.06.33.19.44.13.11.46.23.99.35.53.12.9.23,1.1.32.29.13.5.3.64.51.14.2.21.44.21.71s-.08.51-.23.75c-.15.23-.37.42-.65.55-.28.13-.6.19-.96.19-.45,0-.83-.07-1.13-.2-.3-.13-.54-.33-.71-.59-.17-.26-.26-.56-.27-.89Z"/>
            <path id="ArialMT-2d1" data-name="ArialMT-2d" d="M359.91,117.28v-.61h1.87v.61h-1.87Z"/>
            <path id="ArialMT-321" data-name="ArialMT-32" d="M365.49,118.18v.59h-3.28c0-.15.02-.29.07-.42.08-.22.22-.44.4-.66.18-.22.45-.47.8-.75.54-.44.9-.79,1.09-1.05.19-.26.29-.5.29-.73s-.09-.44-.26-.61c-.17-.17-.4-.25-.68-.25-.29,0-.53.09-.7.26-.18.18-.27.42-.27.73l-.63-.06c.04-.47.2-.82.48-1.07.28-.25.66-.37,1.13-.37s.85.13,1.13.4c.28.26.42.59.42.98,0,.2-.04.39-.12.59-.08.19-.22.39-.4.61s-.5.5-.94.87c-.37.31-.6.52-.71.63-.1.11-.19.22-.26.33h2.44Z"/>
          </g>
        </g>
        <g id="line2d_64">
          <path class="st4" d="M331,126.16h13.88"/>
        </g>
        <g id="text_25">
          <g>
            <path id="ArialMT-4e" d="M350.96,128.59v-4.97h.67l2.61,3.9v-3.9h.63v4.97h-.67l-2.61-3.9v3.9h-.63Z"/>
            <path id="ArialMT-532" data-name="ArialMT-53" d="M355.75,126.99l.62-.05c.03.25.1.45.2.61.11.16.27.29.5.39.23.1.48.15.76.15.25,0,.47-.04.66-.11.19-.07.34-.18.43-.31.09-.13.14-.27.14-.43s-.05-.29-.14-.41-.24-.21-.45-.29c-.13-.05-.43-.13-.88-.24-.46-.11-.78-.21-.96-.31-.24-.12-.41-.28-.53-.46-.12-.18-.17-.39-.17-.62,0-.25.07-.49.21-.7.14-.22.35-.38.62-.5.27-.11.58-.17.91-.17.37,0,.69.06.97.18.28.12.5.29.65.52.15.23.23.49.24.78l-.63.05c-.03-.31-.15-.55-.34-.71-.2-.16-.48-.24-.87-.24s-.69.07-.87.22c-.18.15-.27.32-.27.53,0,.18.06.33.19.44.13.11.46.23.99.35.53.12.9.23,1.1.32.29.13.5.3.64.51.14.2.21.44.21.71s-.08.51-.23.75c-.15.23-.37.42-.65.55-.28.13-.6.19-.96.19-.45,0-.83-.07-1.13-.2-.3-.13-.54-.33-.71-.59-.17-.26-.26-.56-.27-.89Z"/>
            <path id="ArialMT-2d2" data-name="ArialMT-2d" d="M360.29,127.1v-.61h1.87v.61h-1.87Z"/>
            <path id="ArialMT-317" data-name="ArialMT-31" d="M364.97,128.59h-.61v-3.89c-.15.14-.34.28-.58.42s-.45.25-.64.32v-.59c.34-.16.64-.35.89-.58.26-.23.44-.45.54-.66h.39v4.99Z"/>
          </g>
        </g>
        <g id="line2d_65">
          <path class="st3" d="M331,135.98h13.88"/>
        </g>
        <g id="text_26">
          <g>
            <path id="ArialMT-4e1" data-name="ArialMT-4e" d="M350.96,138.4v-4.97h.67l2.61,3.9v-3.9h.63v4.97h-.67l-2.61-3.9v3.9h-.63Z"/>
            <path id="ArialMT-533" data-name="ArialMT-53" d="M355.75,136.81l.62-.05c.03.25.1.45.2.61.11.16.27.29.5.39.23.1.48.15.76.15.25,0,.47-.04.66-.11.19-.07.34-.18.43-.31.09-.13.14-.27.14-.43s-.05-.29-.14-.41-.24-.21-.45-.29c-.13-.05-.43-.13-.88-.24-.46-.11-.78-.21-.96-.31-.24-.12-.41-.28-.53-.46-.12-.18-.17-.39-.17-.62,0-.25.07-.49.21-.7.14-.22.35-.38.62-.5.27-.11.58-.17.91-.17.37,0,.69.06.97.18.28.12.5.29.65.52.15.23.23.49.24.78l-.63.05c-.03-.31-.15-.55-.34-.71-.2-.16-.48-.24-.87-.24s-.69.07-.87.22c-.18.15-.27.32-.27.53,0,.18.06.33.19.44.13.11.46.23.99.35.53.12.9.23,1.1.32.29.13.5.3.64.51.14.2.21.44.21.71s-.08.51-.23.75c-.15.23-.37.42-.65.55-.28.13-.6.19-.96.19-.45,0-.83-.07-1.13-.2-.3-.13-.54-.33-.71-.59-.17-.26-.26-.56-.27-.89Z"/>
            <path id="ArialMT-2d3" data-name="ArialMT-2d" d="M360.29,136.91v-.61h1.87v.61h-1.87Z"/>
            <path id="ArialMT-322" data-name="ArialMT-32" d="M365.88,137.82v.59h-3.28c0-.15.02-.29.07-.42.08-.22.22-.44.4-.66.18-.22.45-.47.8-.75.54-.44.9-.79,1.09-1.05.19-.26.29-.5.29-.73s-.09-.44-.26-.61c-.17-.17-.4-.25-.68-.25-.29,0-.53.09-.7.26-.18.18-.27.42-.27.73l-.63-.06c.04-.47.2-.82.48-1.07.28-.25.66-.37,1.13-.37s.85.13,1.13.4c.28.26.42.59.42.98,0,.2-.04.39-.12.59-.08.19-.22.39-.4.61s-.5.5-.94.87c-.37.31-.6.52-.71.63-.1.11-.19.22-.26.33h2.44Z"/>
          </g>
        </g>
        <g id="line2d_66">
          <path class="st5" d="M331,145.79h13.88"/>
        </g>
        <g id="text_27">
          <g>
            <path id="ArialMT-54" d="M352.23,148.22v-4.38h-1.64v-.59h3.94v.59h-1.64v4.38h-.66Z"/>
            <path id="ArialMT-501" data-name="ArialMT-50" d="M355.21,148.22v-4.97h1.87c.33,0,.58.02.76.05.24.04.45.12.61.23.17.11.3.27.4.48.1.21.15.43.15.68,0,.42-.13.78-.4,1.07-.27.29-.75.44-1.46.44h-1.27v2.02h-.66ZM355.86,145.62h1.28c.43,0,.73-.08.91-.24s.27-.38.27-.67c0-.21-.05-.38-.16-.53-.1-.15-.24-.25-.41-.29-.11-.03-.32-.04-.61-.04h-1.27v1.78Z"/>
            <path id="ArialMT-2d4" data-name="ArialMT-2d" d="M359.52,146.73v-.61h1.87v.61h-1.87Z"/>
            <path id="ArialMT-318" data-name="ArialMT-31" d="M364.2,148.22h-.61v-3.89c-.15.14-.34.28-.58.42s-.45.25-.64.32v-.59c.34-.16.64-.35.89-.58.26-.23.44-.45.54-.66h.39v4.99Z"/>
          </g>
        </g>
        <g id="line2d_67">
          <path class="st6" d="M331,155.61h13.88"/>
        </g>
        <g id="text_28">
          <g>
            <path id="ArialMT-541" data-name="ArialMT-54" d="M352.23,158.04v-4.38h-1.64v-.59h3.94v.59h-1.64v4.38h-.66Z"/>
            <path id="ArialMT-502" data-name="ArialMT-50" d="M355.21,158.04v-4.97h1.87c.33,0,.58.02.76.05.24.04.45.12.61.23.17.11.3.27.4.48.1.21.15.43.15.68,0,.42-.13.78-.4,1.07-.27.29-.75.44-1.46.44h-1.27v2.02h-.66ZM355.86,155.43h1.28c.43,0,.73-.08.91-.24s.27-.38.27-.67c0-.21-.05-.38-.16-.53-.1-.15-.24-.25-.41-.29-.11-.03-.32-.04-.61-.04h-1.27v1.78Z"/>
            <path id="ArialMT-2d5" data-name="ArialMT-2d" d="M359.52,156.55v-.61h1.87v.61h-1.87Z"/>
            <path id="ArialMT-323" data-name="ArialMT-32" d="M365.1,157.45v.59h-3.28c0-.15.02-.29.07-.42.08-.22.22-.44.4-.66.18-.22.45-.47.8-.75.54-.44.9-.79,1.09-1.05.19-.26.29-.5.29-.73s-.09-.44-.26-.61c-.17-.17-.4-.25-.68-.25-.29,0-.53.09-.7.26-.18.18-.27.42-.27.73l-.63-.06c.04-.47.2-.82.48-1.07.28-.25.66-.37,1.13-.37s.85.13,1.13.4c.28.26.42.59.42.98,0,.2-.04.39-.12.59-.08.19-.22.39-.4.61s-.5.5-.94.87c-.37.31-.6.52-.71.63-.1.11-.19.22-.26.33h2.44Z"/>
          </g>
        </g>
        <g id="line2d_68">
          <path class="st7" d="M331,165.43h13.88"/>
        </g>
        <g id="text_29">
          <g>
            <path id="ArialMT-503" data-name="ArialMT-50" d="M350.97,167.85v-4.97h1.87c.33,0,.58.02.76.05.24.04.45.12.61.23.17.11.3.27.4.48.1.21.15.43.15.68,0,.42-.13.78-.4,1.07-.27.29-.75.44-1.46.44h-1.27v2.02h-.66ZM351.62,165.25h1.28c.43,0,.73-.08.91-.24s.27-.38.27-.67c0-.21-.05-.38-.16-.53-.1-.15-.24-.25-.41-.29-.11-.03-.32-.04-.61-.04h-1.27v1.78Z"/>
            <path id="ArialMT-534" data-name="ArialMT-53" d="M355.37,166.26l.62-.05c.03.25.1.45.2.61.11.16.27.29.5.39.23.1.48.15.76.15.25,0,.47-.04.66-.11.19-.07.34-.18.43-.31.09-.13.14-.27.14-.43s-.05-.29-.14-.41-.24-.21-.45-.29c-.13-.05-.43-.13-.88-.24-.46-.11-.78-.21-.96-.31-.24-.12-.41-.28-.53-.46-.12-.18-.17-.39-.17-.62,0-.25.07-.49.21-.7.14-.22.35-.38.62-.5.27-.11.58-.17.91-.17.37,0,.69.06.97.18.28.12.5.29.65.52.15.23.23.49.24.78l-.63.05c-.03-.31-.15-.55-.34-.71-.2-.16-.48-.24-.87-.24s-.69.07-.87.22c-.18.15-.27.32-.27.53,0,.18.06.33.19.44.13.11.46.23.99.35.53.12.9.23,1.1.32.29.13.5.3.64.51.14.2.21.44.21.71s-.08.51-.23.75c-.15.23-.37.42-.65.55-.28.13-.6.19-.96.19-.45,0-.83-.07-1.13-.2-.3-.13-.54-.33-.71-.59-.17-.26-.26-.56-.27-.89Z"/>
            <path id="ArialMT-2d6" data-name="ArialMT-2d" d="M359.91,166.36v-.61h1.87v.61h-1.87Z"/>
            <path id="ArialMT-319" data-name="ArialMT-31" d="M364.58,167.85h-.61v-3.89c-.15.14-.34.28-.58.42s-.45.25-.64.32v-.59c.34-.16.64-.35.89-.58.26-.23.44-.45.54-.66h.39v4.99Z"/>
          </g>
        </g>
      </g>
    </g>
  </g>
</svg>