<?xml version="1.0" encoding="utf-8" standalone="no"?>
<!DOCTYPE svg PUBLIC "-//W3C//DTD SVG 1.1//EN"
  "http://www.w3.org/Graphics/SVG/1.1/DTD/svg11.dtd">
<svg xmlns:xlink="http://www.w3.org/1999/xlink" width="576pt" height="216pt" viewBox="0 0 576 216" xmlns="http://www.w3.org/2000/svg" version="1.1">
 <metadata>
  <rdf:RDF xmlns:dc="http://purl.org/dc/elements/1.1/" xmlns:cc="http://creativecommons.org/ns#" xmlns:rdf="http://www.w3.org/1999/02/22-rdf-syntax-ns#">
   <cc:Work>
    <dc:type rdf:resource="http://purl.org/dc/dcmitype/StillImage"/>
    <dc:date>2025-05-21T13:00:53.964179</dc:date>
    <dc:format>image/svg+xml</dc:format>
    <dc:creator>
     <cc:Agent>
      <dc:title>Matplotlib v3.9.4, https://matplotlib.org/</dc:title>
     </cc:Agent>
    </dc:creator>
   </cc:Work>
  </rdf:RDF>
 </metadata>
 <defs>
  <style type="text/css">*{stroke-linejoin: round; stroke-linecap: butt}</style>
 </defs>
 <g id="figure_1">
  <g id="patch_1">
   <path d="M 0 216 
L 576 216 
L 576 0 
L 0 0 
z
" style="fill: #ffffff"/>
  </g>
  <g id="axes_1">
   <g id="patch_2">
    <path d="M 50.96 171.390625 
L 280.732933 171.390625 
L 280.732933 25.44 
L 50.96 25.44 
z
" style="fill: #ffffff"/>
   </g>
   <g id="matplotlib.axis_1">
    <g id="xtick_1">
     <g id="line2d_1">
      <defs>
       <path id="mfd60bba2af" d="M 0 0 
L 0 3.5 
" style="stroke: #000000; stroke-width: 0.8"/>
      </defs>
      <g>
       <use xlink:href="#mfd60bba2af" x="61.404224" y="171.390625" style="stroke: #000000; stroke-width: 0.8"/>
      </g>
     </g>
     <g id="text_1">
      <!-- 0.0 -->
      <g transform="translate(54.454224 185.548438) scale(0.1 -0.1)">
       <defs>
        <path id="ArialMT-30" d="M 266 2259 
Q 266 3072 433 3567 
Q 600 4063 929 4331 
Q 1259 4600 1759 4600 
Q 2128 4600 2406 4451 
Q 2684 4303 2865 4023 
Q 3047 3744 3150 3342 
Q 3253 2941 3253 2259 
Q 3253 1453 3087 958 
Q 2922 463 2592 192 
Q 2263 -78 1759 -78 
Q 1097 -78 719 397 
Q 266 969 266 2259 
z
M 844 2259 
Q 844 1131 1108 757 
Q 1372 384 1759 384 
Q 2147 384 2411 759 
Q 2675 1134 2675 2259 
Q 2675 3391 2411 3762 
Q 2147 4134 1753 4134 
Q 1366 4134 1134 3806 
Q 844 3388 844 2259 
z
" transform="scale(0.015625)"/>
        <path id="ArialMT-2e" d="M 581 0 
L 581 641 
L 1222 641 
L 1222 0 
L 581 0 
z
" transform="scale(0.015625)"/>
       </defs>
       <use xlink:href="#ArialMT-30"/>
       <use xlink:href="#ArialMT-2e" x="55.615234"/>
       <use xlink:href="#ArialMT-30" x="83.398438"/>
      </g>
     </g>
    </g>
    <g id="xtick_2">
     <g id="line2d_2">
      <g>
       <use xlink:href="#mfd60bba2af" x="113.625345" y="171.390625" style="stroke: #000000; stroke-width: 0.8"/>
      </g>
     </g>
     <g id="text_2">
      <!-- 0.5 -->
      <g transform="translate(106.675345 185.548438) scale(0.1 -0.1)">
       <defs>
        <path id="ArialMT-35" d="M 266 1200 
L 856 1250 
Q 922 819 1161 601 
Q 1400 384 1738 384 
Q 2144 384 2425 690 
Q 2706 997 2706 1503 
Q 2706 1984 2436 2262 
Q 2166 2541 1728 2541 
Q 1456 2541 1237 2417 
Q 1019 2294 894 2097 
L 366 2166 
L 809 4519 
L 3088 4519 
L 3088 3981 
L 1259 3981 
L 1013 2750 
Q 1425 3038 1878 3038 
Q 2478 3038 2890 2622 
Q 3303 2206 3303 1553 
Q 3303 931 2941 478 
Q 2500 -78 1738 -78 
Q 1113 -78 717 272 
Q 322 622 266 1200 
z
" transform="scale(0.015625)"/>
       </defs>
       <use xlink:href="#ArialMT-30"/>
       <use xlink:href="#ArialMT-2e" x="55.615234"/>
       <use xlink:href="#ArialMT-35" x="83.398438"/>
      </g>
     </g>
    </g>
    <g id="xtick_3">
     <g id="line2d_3">
      <g>
       <use xlink:href="#mfd60bba2af" x="165.846466" y="171.390625" style="stroke: #000000; stroke-width: 0.8"/>
      </g>
     </g>
     <g id="text_3">
      <!-- 1.0 -->
      <g transform="translate(158.896466 185.548438) scale(0.1 -0.1)">
       <defs>
        <path id="ArialMT-31" d="M 2384 0 
L 1822 0 
L 1822 3584 
Q 1619 3391 1289 3197 
Q 959 3003 697 2906 
L 697 3450 
Q 1169 3672 1522 3987 
Q 1875 4303 2022 4600 
L 2384 4600 
L 2384 0 
z
" transform="scale(0.015625)"/>
       </defs>
       <use xlink:href="#ArialMT-31"/>
       <use xlink:href="#ArialMT-2e" x="55.615234"/>
       <use xlink:href="#ArialMT-30" x="83.398438"/>
      </g>
     </g>
    </g>
    <g id="xtick_4">
     <g id="line2d_4">
      <g>
       <use xlink:href="#mfd60bba2af" x="218.067588" y="171.390625" style="stroke: #000000; stroke-width: 0.8"/>
      </g>
     </g>
     <g id="text_4">
      <!-- 1.5 -->
      <g transform="translate(211.117588 185.548438) scale(0.1 -0.1)">
       <use xlink:href="#ArialMT-31"/>
       <use xlink:href="#ArialMT-2e" x="55.615234"/>
       <use xlink:href="#ArialMT-35" x="83.398438"/>
      </g>
     </g>
    </g>
    <g id="xtick_5">
     <g id="line2d_5">
      <g>
       <use xlink:href="#mfd60bba2af" x="270.288709" y="171.390625" style="stroke: #000000; stroke-width: 0.8"/>
      </g>
     </g>
     <g id="text_5">
      <!-- 2.0 -->
      <g transform="translate(263.338709 185.548438) scale(0.1 -0.1)">
       <defs>
        <path id="ArialMT-32" d="M 3222 541 
L 3222 0 
L 194 0 
Q 188 203 259 391 
Q 375 700 629 1000 
Q 884 1300 1366 1694 
Q 2113 2306 2375 2664 
Q 2638 3022 2638 3341 
Q 2638 3675 2398 3904 
Q 2159 4134 1775 4134 
Q 1369 4134 1125 3890 
Q 881 3647 878 3216 
L 300 3275 
Q 359 3922 746 4261 
Q 1134 4600 1788 4600 
Q 2447 4600 2831 4234 
Q 3216 3869 3216 3328 
Q 3216 3053 3103 2787 
Q 2991 2522 2730 2228 
Q 2469 1934 1863 1422 
Q 1356 997 1212 845 
Q 1069 694 975 541 
L 3222 541 
z
" transform="scale(0.015625)"/>
       </defs>
       <use xlink:href="#ArialMT-32"/>
       <use xlink:href="#ArialMT-2e" x="55.615234"/>
       <use xlink:href="#ArialMT-30" x="83.398438"/>
      </g>
     </g>
    </g>
    <g id="text_6">
     <!-- Time (ms) -->
     <g transform="translate(143.540216 198.815625) scale(0.1 -0.1)">
      <defs>
       <path id="ArialMT-54" d="M 1659 0 
L 1659 4041 
L 150 4041 
L 150 4581 
L 3781 4581 
L 3781 4041 
L 2266 4041 
L 2266 0 
L 1659 0 
z
" transform="scale(0.015625)"/>
       <path id="ArialMT-69" d="M 425 3934 
L 425 4581 
L 988 4581 
L 988 3934 
L 425 3934 
z
M 425 0 
L 425 3319 
L 988 3319 
L 988 0 
L 425 0 
z
" transform="scale(0.015625)"/>
       <path id="ArialMT-6d" d="M 422 0 
L 422 3319 
L 925 3319 
L 925 2853 
Q 1081 3097 1340 3245 
Q 1600 3394 1931 3394 
Q 2300 3394 2536 3241 
Q 2772 3088 2869 2813 
Q 3263 3394 3894 3394 
Q 4388 3394 4653 3120 
Q 4919 2847 4919 2278 
L 4919 0 
L 4359 0 
L 4359 2091 
Q 4359 2428 4304 2576 
Q 4250 2725 4106 2815 
Q 3963 2906 3769 2906 
Q 3419 2906 3187 2673 
Q 2956 2441 2956 1928 
L 2956 0 
L 2394 0 
L 2394 2156 
Q 2394 2531 2256 2718 
Q 2119 2906 1806 2906 
Q 1569 2906 1367 2781 
Q 1166 2656 1075 2415 
Q 984 2175 984 1722 
L 984 0 
L 422 0 
z
" transform="scale(0.015625)"/>
       <path id="ArialMT-65" d="M 2694 1069 
L 3275 997 
Q 3138 488 2766 206 
Q 2394 -75 1816 -75 
Q 1088 -75 661 373 
Q 234 822 234 1631 
Q 234 2469 665 2931 
Q 1097 3394 1784 3394 
Q 2450 3394 2872 2941 
Q 3294 2488 3294 1666 
Q 3294 1616 3291 1516 
L 816 1516 
Q 847 969 1125 678 
Q 1403 388 1819 388 
Q 2128 388 2347 550 
Q 2566 713 2694 1069 
z
M 847 1978 
L 2700 1978 
Q 2663 2397 2488 2606 
Q 2219 2931 1791 2931 
Q 1403 2931 1139 2672 
Q 875 2413 847 1978 
z
" transform="scale(0.015625)"/>
       <path id="ArialMT-20" transform="scale(0.015625)"/>
       <path id="ArialMT-28" d="M 1497 -1347 
Q 1031 -759 709 28 
Q 388 816 388 1659 
Q 388 2403 628 3084 
Q 909 3875 1497 4659 
L 1900 4659 
Q 1522 4009 1400 3731 
Q 1209 3300 1100 2831 
Q 966 2247 966 1656 
Q 966 153 1900 -1347 
L 1497 -1347 
z
" transform="scale(0.015625)"/>
       <path id="ArialMT-73" d="M 197 991 
L 753 1078 
Q 800 744 1014 566 
Q 1228 388 1613 388 
Q 2000 388 2187 545 
Q 2375 703 2375 916 
Q 2375 1106 2209 1216 
Q 2094 1291 1634 1406 
Q 1016 1563 777 1677 
Q 538 1791 414 1992 
Q 291 2194 291 2438 
Q 291 2659 392 2848 
Q 494 3038 669 3163 
Q 800 3259 1026 3326 
Q 1253 3394 1513 3394 
Q 1903 3394 2198 3281 
Q 2494 3169 2634 2976 
Q 2775 2784 2828 2463 
L 2278 2388 
Q 2241 2644 2061 2787 
Q 1881 2931 1553 2931 
Q 1166 2931 1000 2803 
Q 834 2675 834 2503 
Q 834 2394 903 2306 
Q 972 2216 1119 2156 
Q 1203 2125 1616 2013 
Q 2213 1853 2448 1751 
Q 2684 1650 2818 1456 
Q 2953 1263 2953 975 
Q 2953 694 2789 445 
Q 2625 197 2315 61 
Q 2006 -75 1616 -75 
Q 969 -75 630 194 
Q 291 463 197 991 
z
" transform="scale(0.015625)"/>
       <path id="ArialMT-29" d="M 791 -1347 
L 388 -1347 
Q 1322 153 1322 1656 
Q 1322 2244 1188 2822 
Q 1081 3291 891 3722 
Q 769 4003 388 4659 
L 791 4659 
Q 1378 3875 1659 3084 
Q 1900 2403 1900 1659 
Q 1900 816 1576 28 
Q 1253 -759 791 -1347 
z
" transform="scale(0.015625)"/>
      </defs>
      <use xlink:href="#ArialMT-54"/>
      <use xlink:href="#ArialMT-69" x="57.333984"/>
      <use xlink:href="#ArialMT-6d" x="79.550781"/>
      <use xlink:href="#ArialMT-65" x="162.851562"/>
      <use xlink:href="#ArialMT-20" x="218.466797"/>
      <use xlink:href="#ArialMT-28" x="246.25"/>
      <use xlink:href="#ArialMT-6d" x="279.550781"/>
      <use xlink:href="#ArialMT-73" x="362.851562"/>
      <use xlink:href="#ArialMT-29" x="412.851562"/>
     </g>
    </g>
   </g>
   <g id="matplotlib.axis_2">
    <g id="ytick_1">
     <g id="line2d_6">
      <defs>
       <path id="ma9353d33e6" d="M 0 0 
L -3.5 0 
" style="stroke: #000000; stroke-width: 0.8"/>
      </defs>
      <g>
       <use xlink:href="#ma9353d33e6" x="50.96" y="164.756506" style="stroke: #000000; stroke-width: 0.8"/>
      </g>
     </g>
     <g id="text_7">
      <!-- −1.0 -->
      <g transform="translate(24.219375 168.335412) scale(0.1 -0.1)">
       <defs>
        <path id="ArialMT-2212" d="M 3381 1997 
L 356 1997 
L 356 2522 
L 3381 2522 
L 3381 1997 
z
" transform="scale(0.015625)"/>
       </defs>
       <use xlink:href="#ArialMT-2212"/>
       <use xlink:href="#ArialMT-31" x="58.398438"/>
       <use xlink:href="#ArialMT-2e" x="114.013672"/>
       <use xlink:href="#ArialMT-30" x="141.796875"/>
      </g>
     </g>
    </g>
    <g id="ytick_2">
     <g id="line2d_7">
      <g>
       <use xlink:href="#ma9353d33e6" x="50.96" y="131.585909" style="stroke: #000000; stroke-width: 0.8"/>
      </g>
     </g>
     <g id="text_8">
      <!-- −0.5 -->
      <g transform="translate(24.219375 135.164815) scale(0.1 -0.1)">
       <use xlink:href="#ArialMT-2212"/>
       <use xlink:href="#ArialMT-30" x="58.398438"/>
       <use xlink:href="#ArialMT-2e" x="114.013672"/>
       <use xlink:href="#ArialMT-35" x="141.796875"/>
      </g>
     </g>
    </g>
    <g id="ytick_3">
     <g id="line2d_8">
      <g>
       <use xlink:href="#ma9353d33e6" x="50.96" y="98.415312" style="stroke: #000000; stroke-width: 0.8"/>
      </g>
     </g>
     <g id="text_9">
      <!-- 0.0 -->
      <g transform="translate(30.06 101.994219) scale(0.1 -0.1)">
       <use xlink:href="#ArialMT-30"/>
       <use xlink:href="#ArialMT-2e" x="55.615234"/>
       <use xlink:href="#ArialMT-30" x="83.398438"/>
      </g>
     </g>
    </g>
    <g id="ytick_4">
     <g id="line2d_9">
      <g>
       <use xlink:href="#ma9353d33e6" x="50.96" y="65.244716" style="stroke: #000000; stroke-width: 0.8"/>
      </g>
     </g>
     <g id="text_10">
      <!-- 0.5 -->
      <g transform="translate(30.06 68.823622) scale(0.1 -0.1)">
       <use xlink:href="#ArialMT-30"/>
       <use xlink:href="#ArialMT-2e" x="55.615234"/>
       <use xlink:href="#ArialMT-35" x="83.398438"/>
      </g>
     </g>
    </g>
    <g id="ytick_5">
     <g id="line2d_10">
      <g>
       <use xlink:href="#ma9353d33e6" x="50.96" y="32.074119" style="stroke: #000000; stroke-width: 0.8"/>
      </g>
     </g>
     <g id="text_11">
      <!-- 1.0 -->
      <g transform="translate(30.06 35.653026) scale(0.1 -0.1)">
       <use xlink:href="#ArialMT-31"/>
       <use xlink:href="#ArialMT-2e" x="55.615234"/>
       <use xlink:href="#ArialMT-30" x="83.398438"/>
      </g>
     </g>
    </g>
    <g id="text_12">
     <!-- Normalized Amplitude -->
     <g transform="translate(18.231875 147.046562) rotate(-90) scale(0.1 -0.1)">
      <defs>
       <path id="ArialMT-4e" d="M 488 0 
L 488 4581 
L 1109 4581 
L 3516 984 
L 3516 4581 
L 4097 4581 
L 4097 0 
L 3475 0 
L 1069 3600 
L 1069 0 
L 488 0 
z
" transform="scale(0.015625)"/>
       <path id="ArialMT-6f" d="M 213 1659 
Q 213 2581 725 3025 
Q 1153 3394 1769 3394 
Q 2453 3394 2887 2945 
Q 3322 2497 3322 1706 
Q 3322 1066 3130 698 
Q 2938 331 2570 128 
Q 2203 -75 1769 -75 
Q 1072 -75 642 372 
Q 213 819 213 1659 
z
M 791 1659 
Q 791 1022 1069 705 
Q 1347 388 1769 388 
Q 2188 388 2466 706 
Q 2744 1025 2744 1678 
Q 2744 2294 2464 2611 
Q 2184 2928 1769 2928 
Q 1347 2928 1069 2612 
Q 791 2297 791 1659 
z
" transform="scale(0.015625)"/>
       <path id="ArialMT-72" d="M 416 0 
L 416 3319 
L 922 3319 
L 922 2816 
Q 1116 3169 1280 3281 
Q 1444 3394 1641 3394 
Q 1925 3394 2219 3213 
L 2025 2691 
Q 1819 2813 1613 2813 
Q 1428 2813 1281 2702 
Q 1134 2591 1072 2394 
Q 978 2094 978 1738 
L 978 0 
L 416 0 
z
" transform="scale(0.015625)"/>
       <path id="ArialMT-61" d="M 2588 409 
Q 2275 144 1986 34 
Q 1697 -75 1366 -75 
Q 819 -75 525 192 
Q 231 459 231 875 
Q 231 1119 342 1320 
Q 453 1522 633 1644 
Q 813 1766 1038 1828 
Q 1203 1872 1538 1913 
Q 2219 1994 2541 2106 
Q 2544 2222 2544 2253 
Q 2544 2597 2384 2738 
Q 2169 2928 1744 2928 
Q 1347 2928 1158 2789 
Q 969 2650 878 2297 
L 328 2372 
Q 403 2725 575 2942 
Q 747 3159 1072 3276 
Q 1397 3394 1825 3394 
Q 2250 3394 2515 3294 
Q 2781 3194 2906 3042 
Q 3031 2891 3081 2659 
Q 3109 2516 3109 2141 
L 3109 1391 
Q 3109 606 3145 398 
Q 3181 191 3288 0 
L 2700 0 
Q 2613 175 2588 409 
z
M 2541 1666 
Q 2234 1541 1622 1453 
Q 1275 1403 1131 1340 
Q 988 1278 909 1158 
Q 831 1038 831 891 
Q 831 666 1001 516 
Q 1172 366 1500 366 
Q 1825 366 2078 508 
Q 2331 650 2450 897 
Q 2541 1088 2541 1459 
L 2541 1666 
z
" transform="scale(0.015625)"/>
       <path id="ArialMT-6c" d="M 409 0 
L 409 4581 
L 972 4581 
L 972 0 
L 409 0 
z
" transform="scale(0.015625)"/>
       <path id="ArialMT-7a" d="M 125 0 
L 125 456 
L 2238 2881 
Q 1878 2863 1603 2863 
L 250 2863 
L 250 3319 
L 2963 3319 
L 2963 2947 
L 1166 841 
L 819 456 
Q 1197 484 1528 484 
L 3063 484 
L 3063 0 
L 125 0 
z
" transform="scale(0.015625)"/>
       <path id="ArialMT-64" d="M 2575 0 
L 2575 419 
Q 2259 -75 1647 -75 
Q 1250 -75 917 144 
Q 584 363 401 755 
Q 219 1147 219 1656 
Q 219 2153 384 2558 
Q 550 2963 881 3178 
Q 1213 3394 1622 3394 
Q 1922 3394 2156 3267 
Q 2391 3141 2538 2938 
L 2538 4581 
L 3097 4581 
L 3097 0 
L 2575 0 
z
M 797 1656 
Q 797 1019 1065 703 
Q 1334 388 1700 388 
Q 2069 388 2326 689 
Q 2584 991 2584 1609 
Q 2584 2291 2321 2609 
Q 2059 2928 1675 2928 
Q 1300 2928 1048 2622 
Q 797 2316 797 1656 
z
" transform="scale(0.015625)"/>
       <path id="ArialMT-41" d="M -9 0 
L 1750 4581 
L 2403 4581 
L 4278 0 
L 3588 0 
L 3053 1388 
L 1138 1388 
L 634 0 
L -9 0 
z
M 1313 1881 
L 2866 1881 
L 2388 3150 
Q 2169 3728 2063 4100 
Q 1975 3659 1816 3225 
L 1313 1881 
z
" transform="scale(0.015625)"/>
       <path id="ArialMT-70" d="M 422 -1272 
L 422 3319 
L 934 3319 
L 934 2888 
Q 1116 3141 1344 3267 
Q 1572 3394 1897 3394 
Q 2322 3394 2647 3175 
Q 2972 2956 3137 2557 
Q 3303 2159 3303 1684 
Q 3303 1175 3120 767 
Q 2938 359 2589 142 
Q 2241 -75 1856 -75 
Q 1575 -75 1351 44 
Q 1128 163 984 344 
L 984 -1272 
L 422 -1272 
z
M 931 1641 
Q 931 1000 1190 694 
Q 1450 388 1819 388 
Q 2194 388 2461 705 
Q 2728 1022 2728 1688 
Q 2728 2322 2467 2637 
Q 2206 2953 1844 2953 
Q 1484 2953 1207 2617 
Q 931 2281 931 1641 
z
" transform="scale(0.015625)"/>
       <path id="ArialMT-74" d="M 1650 503 
L 1731 6 
Q 1494 -44 1306 -44 
Q 1000 -44 831 53 
Q 663 150 594 308 
Q 525 466 525 972 
L 525 2881 
L 113 2881 
L 113 3319 
L 525 3319 
L 525 4141 
L 1084 4478 
L 1084 3319 
L 1650 3319 
L 1650 2881 
L 1084 2881 
L 1084 941 
Q 1084 700 1114 631 
Q 1144 563 1211 522 
Q 1278 481 1403 481 
Q 1497 481 1650 503 
z
" transform="scale(0.015625)"/>
       <path id="ArialMT-75" d="M 2597 0 
L 2597 488 
Q 2209 -75 1544 -75 
Q 1250 -75 995 37 
Q 741 150 617 320 
Q 494 491 444 738 
Q 409 903 409 1263 
L 409 3319 
L 972 3319 
L 972 1478 
Q 972 1038 1006 884 
Q 1059 663 1231 536 
Q 1403 409 1656 409 
Q 1909 409 2131 539 
Q 2353 669 2445 892 
Q 2538 1116 2538 1541 
L 2538 3319 
L 3100 3319 
L 3100 0 
L 2597 0 
z
" transform="scale(0.015625)"/>
      </defs>
      <use xlink:href="#ArialMT-4e"/>
      <use xlink:href="#ArialMT-6f" x="72.216797"/>
      <use xlink:href="#ArialMT-72" x="127.832031"/>
      <use xlink:href="#ArialMT-6d" x="161.132812"/>
      <use xlink:href="#ArialMT-61" x="244.433594"/>
      <use xlink:href="#ArialMT-6c" x="300.048828"/>
      <use xlink:href="#ArialMT-69" x="322.265625"/>
      <use xlink:href="#ArialMT-7a" x="344.482422"/>
      <use xlink:href="#ArialMT-65" x="394.482422"/>
      <use xlink:href="#ArialMT-64" x="450.097656"/>
      <use xlink:href="#ArialMT-20" x="505.712891"/>
      <use xlink:href="#ArialMT-41" x="527.996094"/>
      <use xlink:href="#ArialMT-6d" x="594.695312"/>
      <use xlink:href="#ArialMT-70" x="677.996094"/>
      <use xlink:href="#ArialMT-6c" x="733.611328"/>
      <use xlink:href="#ArialMT-69" x="755.828125"/>
      <use xlink:href="#ArialMT-74" x="778.044922"/>
      <use xlink:href="#ArialMT-75" x="805.828125"/>
      <use xlink:href="#ArialMT-64" x="861.443359"/>
      <use xlink:href="#ArialMT-65" x="917.058594"/>
     </g>
    </g>
   </g>
   <g id="line2d_11">
    <path d="M 61.404224 102.120914 
L 64.885748 101.687657 
L 68.367272 101.691424 
L 71.848797 101.764363 
L 75.330321 101.876251 
L 78.811845 101.849993 
L 82.293369 101.849684 
L 85.774893 101.87551 
L 89.256417 101.981303 
L 92.737941 102.051953 
L 96.219465 102.069717 
L 99.70099 101.999617 
L 103.182514 101.856121 
L 106.664038 101.641432 
L 110.145562 101.575463 
L 113.627086 102.753049 
L 117.10861 106.898716 
L 120.590134 115.295622 
L 124.071658 129.619104 
L 127.553183 146.879803 
L 131.034707 160.276078 
L 134.516231 166.309814 
L 137.997755 163.443404 
L 141.479279 155.720071 
L 144.960803 145.830276 
L 148.442327 135.627242 
L 151.923851 125.949795 
L 155.405376 117.057697 
L 158.8869 109.359523 
L 162.368424 102.462612 
L 165.849948 96.560231 
L 169.331472 91.515076 
L 172.812996 87.197134 
L 176.29452 83.35259 
L 179.776044 80.158135 
L 183.257569 77.661122 
L 186.739093 75.804368 
L 190.220617 74.557118 
L 193.702141 74.036217 
L 197.183665 73.975251 
L 200.665189 74.256129 
L 204.146713 74.934937 
L 207.628237 75.722221 
L 211.109762 76.931911 
L 214.591286 78.285856 
L 218.07281 79.842412 
L 221.554334 81.434839 
L 225.035858 82.897935 
L 228.517382 84.559202 
L 231.998906 86.213078 
L 235.48043 87.675143 
L 238.961955 89.293292 
L 242.443479 90.522338 
L 245.925003 91.695289 
L 249.406527 92.814477 
L 252.888051 93.821279 
L 256.369575 94.713036 
L 259.851099 95.658426 
L 263.332623 96.488623 
L 266.814148 97.208005 
L 270.295672 97.844747 
L 273.777196 98.415312 
" clip-path="url(#pedd379011f)" style="fill: none; stroke: #5e60ce; stroke-width: 1.5; stroke-linecap: square"/>
   </g>
   <g id="line2d_12">
    <path d="M 61.404224 99.048678 
L 64.885748 98.986122 
L 68.367272 99.054337 
L 71.848797 99.087571 
L 75.330321 99.146597 
L 78.811845 99.252838 
L 82.293369 99.443573 
L 85.774893 99.621088 
L 89.256417 99.585808 
L 92.737941 99.619404 
L 96.219465 99.671503 
L 99.70099 99.736039 
L 103.182514 99.590228 
L 106.664038 99.208853 
L 110.145562 98.947823 
L 113.627086 100.339602 
L 117.10861 104.749457 
L 120.590134 114.373172 
L 124.071658 130.180968 
L 127.553183 147.176342 
L 131.034707 159.773634 
L 134.516231 162.746467 
L 137.997755 154.552567 
L 141.479279 141.348449 
L 144.960803 128.447704 
L 148.442327 116.52433 
L 151.923851 105.947281 
L 155.405376 97.092276 
L 158.8869 89.937035 
L 162.368424 83.889749 
L 165.849948 79.045899 
L 169.331472 74.991502 
L 172.812996 71.777076 
L 176.29452 69.693563 
L 179.776044 68.769678 
L 183.257569 68.758485 
L 186.739093 69.584632 
L 190.220617 70.986077 
L 193.702141 72.834187 
L 197.183665 74.626559 
L 200.665189 76.623401 
L 204.146713 78.611193 
L 207.628237 80.515957 
L 211.109762 82.265345 
L 214.591286 84.041772 
L 218.07281 85.6898 
L 221.554334 87.119243 
L 225.035858 88.578938 
L 228.517382 89.94063 
L 231.998906 91.032596 
L 235.48043 92.01585 
L 238.961955 92.971273 
L 242.443479 93.774147 
L 245.925003 94.581347 
L 249.406527 95.349679 
L 252.888051 95.880144 
L 256.369575 96.497161 
L 259.851099 96.881159 
L 263.332623 97.261963 
L 266.814148 97.647835 
L 270.295672 98.064984 
L 273.777196 98.415312 
" clip-path="url(#pedd379011f)" style="fill: none; stroke: #00c49a; stroke-width: 1.5; stroke-linecap: square"/>
   </g>
   <g id="line2d_13">
    <path d="M 61.404224 99.769674 
L 64.885748 99.727295 
L 68.367272 99.756632 
L 71.848797 99.6032 
L 75.330321 99.60964 
L 78.811845 99.57771 
L 82.293369 99.696271 
L 85.774893 99.77219 
L 89.256417 99.815633 
L 92.737941 99.780107 
L 96.219465 99.669636 
L 99.70099 99.501261 
L 103.182514 99.16944 
L 106.664038 98.446975 
L 110.145562 95.835189 
L 113.627086 90.351279 
L 117.10861 86.240008 
L 120.590134 88.64301 
L 124.071658 102.126729 
L 127.553183 128.529429 
L 131.034707 154.434317 
L 134.516231 164.20482 
L 137.997755 158.203301 
L 141.479279 145.331284 
L 144.960803 132.189657 
L 148.442327 120.865199 
L 151.923851 111.574806 
L 155.405376 104.462813 
L 158.8869 98.900831 
L 162.368424 94.228572 
L 165.849948 90.109585 
L 169.331472 86.625852 
L 172.812996 83.806711 
L 176.29452 81.535948 
L 179.776044 79.927522 
L 183.257569 79.014667 
L 186.739093 78.6644 
L 190.220617 78.834797 
L 193.702141 79.55533 
L 197.183665 80.433687 
L 200.665189 81.476334 
L 204.146713 82.721282 
L 207.628237 84.067054 
L 211.109762 85.437694 
L 214.591286 86.710621 
L 218.07281 87.986247 
L 221.554334 89.236573 
L 225.035858 90.229443 
L 228.517382 91.241947 
L 231.998906 92.166311 
L 235.48043 92.875894 
L 238.961955 93.629048 
L 242.443479 94.423309 
L 245.925003 94.972475 
L 249.406527 95.588464 
L 252.888051 96.09264 
L 256.369575 96.563284 
L 259.851099 97.065965 
L 263.332623 97.423005 
L 266.814148 97.819123 
L 270.295672 98.165094 
L 273.777196 98.415312 
" clip-path="url(#pedd379011f)" style="fill: none; stroke: #ffca3a; stroke-width: 1.5; stroke-linecap: square"/>
   </g>
   <g id="line2d_14">
    <path d="M 61.404224 99.657816 
L 64.885748 99.878525 
L 68.367272 99.904573 
L 71.848797 99.85577 
L 75.330321 99.754477 
L 78.811845 99.885008 
L 82.293369 100.040266 
L 85.774893 99.899115 
L 89.256417 99.835631 
L 92.737941 99.441994 
L 96.219465 99.646895 
L 99.70099 99.503845 
L 103.182514 99.558126 
L 106.664038 99.217493 
L 110.145562 98.79225 
L 113.627086 97.913704 
L 117.10861 93.855067 
L 120.590134 90.571311 
L 124.071658 86.51953 
L 127.553183 74.539876 
L 131.034707 51.569932 
L 134.516231 40.580192 
L 137.997755 51.943643 
L 141.479279 76.592419 
L 144.960803 101.522765 
L 148.442327 117.318745 
L 151.923851 125.500251 
L 155.405376 127.605135 
L 158.8869 125.581476 
L 162.368424 122.706947 
L 165.849948 119.795139 
L 169.331472 117.351288 
L 172.812996 114.95501 
L 176.29452 112.712483 
L 179.776044 110.824262 
L 183.257569 108.979623 
L 186.739093 107.587191 
L 190.220617 106.451971 
L 193.702141 105.087983 
L 197.183665 103.936517 
L 200.665189 103.269577 
L 204.146713 102.484507 
L 207.628237 101.960238 
L 211.109762 101.523475 
L 214.591286 101.069548 
L 218.07281 100.488414 
L 221.554334 100.094027 
L 225.035858 99.779955 
L 228.517382 99.478712 
L 231.998906 99.535518 
L 235.48043 99.254446 
L 238.961955 98.993047 
L 242.443479 98.813212 
L 245.925003 98.608558 
L 249.406527 98.617213 
L 252.888051 98.47721 
L 256.369575 98.474321 
L 259.851099 98.566976 
L 263.332623 98.434875 
L 266.814148 98.559006 
L 270.295672 98.465281 
L 273.777196 98.415312 
" clip-path="url(#pedd379011f)" style="fill: none; stroke: #d81159; stroke-width: 1.5; stroke-linecap: square"/>
   </g>
   <g id="line2d_15">
    <path d="M 61.404224 97.613671 
L 64.885748 97.73228 
L 68.367272 97.750952 
L 71.848797 97.778147 
L 75.330321 97.846367 
L 78.811845 97.972352 
L 82.293369 98.080617 
L 85.774893 98.219661 
L 89.256417 98.235123 
L 92.737941 98.329465 
L 96.219465 98.455033 
L 99.70099 98.509709 
L 103.182514 98.612107 
L 106.664038 98.683585 
L 110.145562 98.559473 
L 113.627086 98.622933 
L 117.10861 99.909725 
L 120.590134 103.833291 
L 124.071658 114.033856 
L 127.553183 132.050639 
L 131.034707 152.548399 
L 134.516231 161.832632 
L 137.997755 155.022434 
L 141.479279 138.879992 
L 144.960803 120.293876 
L 148.442327 103.573799 
L 151.923851 89.981025 
L 155.405376 79.904752 
L 158.8869 72.850251 
L 162.368424 68.508248 
L 165.849948 66.391701 
L 169.331472 65.871858 
L 172.812996 66.54773 
L 176.29452 67.938792 
L 179.776044 69.830415 
L 183.257569 72.072907 
L 186.739093 74.390417 
L 190.220617 76.821229 
L 193.702141 79.139736 
L 197.183665 81.386642 
L 200.665189 83.500855 
L 204.146713 85.314173 
L 207.628237 86.968818 
L 211.109762 88.560924 
L 214.591286 89.803829 
L 218.07281 90.871145 
L 221.554334 91.786929 
L 225.035858 92.641206 
L 228.517382 93.421518 
L 231.998906 94.157593 
L 235.48043 94.69126 
L 238.961955 95.21844 
L 242.443479 95.690558 
L 245.925003 96.066677 
L 249.406527 96.407411 
L 252.888051 96.697821 
L 256.369575 97.123688 
L 259.851099 97.384868 
L 263.332623 97.773307 
L 266.814148 97.953747 
L 270.295672 98.194555 
L 273.777196 98.415312 
" clip-path="url(#pedd379011f)" style="fill: none; stroke: #fe7f2d; stroke-width: 1.5; stroke-linecap: square"/>
   </g>
   <g id="line2d_16">
    <path d="M 61.404224 105.479805 
L 64.885748 104.954129 
L 68.367272 105.166119 
L 71.848797 105.103632 
L 75.330321 105.135419 
L 78.811845 105.230771 
L 82.293369 105.473277 
L 85.774893 105.540175 
L 89.256417 105.623607 
L 92.737941 105.778576 
L 96.219465 105.788186 
L 99.70099 105.752162 
L 103.182514 105.791256 
L 106.664038 106.131667 
L 110.145562 107.70057 
L 113.627086 110.714949 
L 117.10861 116.713729 
L 120.590134 126.607854 
L 124.071658 140.995074 
L 127.553183 155.26762 
L 131.034707 165.210417 
L 134.516231 169.620344 
L 137.997755 165.361836 
L 141.479279 158.403454 
L 144.960803 150.46539 
L 148.442327 142.189265 
L 151.923851 133.303721 
L 155.405376 125.195283 
L 158.8869 118.085946 
L 162.368424 111.988588 
L 165.849948 106.008589 
L 169.331472 100.969887 
L 172.812996 96.628645 
L 176.29452 92.578584 
L 179.776044 88.929957 
L 183.257569 85.74841 
L 186.739093 83.086741 
L 190.220617 81.089093 
L 193.702141 79.298724 
L 197.183665 77.594301 
L 200.665189 76.376109 
L 204.146713 75.470976 
L 207.628237 75.188293 
L 211.109762 75.343666 
L 214.591286 75.686775 
L 218.07281 76.444465 
L 221.554334 77.537701 
L 225.035858 78.893224 
L 228.517382 80.39349 
L 231.998906 81.892669 
L 235.48043 83.332942 
L 238.961955 84.830529 
L 242.443479 86.401278 
L 245.925003 87.949841 
L 249.406527 89.761178 
L 252.888051 91.137085 
L 256.369575 92.540671 
L 259.851099 94.075313 
L 263.332623 95.44602 
L 266.814148 96.34679 
L 270.295672 97.513644 
L 273.777196 98.415312 
" clip-path="url(#pedd379011f)" style="fill: none; stroke: #7bdff2; stroke-width: 1.5; stroke-linecap: square"/>
   </g>
   <g id="line2d_17">
    <path d="M 61.404224 97.805502 
L 64.885748 97.767042 
L 68.367272 97.770796 
L 71.848797 97.716886 
L 75.330321 97.534451 
L 78.811845 97.073475 
L 82.293369 96.383472 
L 85.774893 96.125102 
L 89.256417 96.398142 
L 92.737941 97.064379 
L 96.219465 97.600599 
L 99.70099 97.872222 
L 103.182514 97.893044 
L 106.664038 97.460895 
L 110.145562 96.468937 
L 113.627086 94.301123 
L 117.10861 92.1694 
L 120.590134 90.236928 
L 124.071658 94.667963 
L 127.553183 112.672186 
L 131.034707 146.744024 
L 134.516231 163.526322 
L 137.997755 149.372621 
L 141.479279 122.525837 
L 144.960803 97.18465 
L 148.442327 80.505201 
L 151.923851 73.514193 
L 155.405376 72.932689 
L 158.8869 75.15177 
L 162.368424 78.070256 
L 165.849948 81.045501 
L 169.331472 83.567786 
L 172.812996 85.647447 
L 176.29452 87.474661 
L 179.776044 89.038728 
L 183.257569 90.335278 
L 186.739093 91.482029 
L 190.220617 92.371123 
L 193.702141 93.180869 
L 197.183665 94.022388 
L 200.665189 94.703278 
L 204.146713 95.247629 
L 207.628237 95.661299 
L 211.109762 95.967136 
L 214.591286 96.301862 
L 218.07281 96.458594 
L 221.554334 96.688293 
L 225.035858 96.829234 
L 228.517382 97.019494 
L 231.998906 97.094882 
L 235.48043 97.288085 
L 238.961955 97.361732 
L 242.443479 97.323425 
L 245.925003 97.365539 
L 249.406527 97.639446 
L 252.888051 97.671314 
L 256.369575 97.674779 
L 259.851099 97.879235 
L 263.332623 97.994574 
L 266.814148 98.027277 
L 270.295672 98.189656 
L 273.777196 98.415312 
" clip-path="url(#pedd379011f)" style="fill: none; stroke: #0496ff; stroke-width: 1.5; stroke-linecap: square"/>
   </g>
   <g id="patch_3">
    <path d="M 50.96 164.756506 
L 50.96 32.074119 
" style="fill: none; stroke: #000000; stroke-width: 0.8; stroke-linejoin: miter; stroke-linecap: square"/>
   </g>
   <g id="patch_4">
    <path d="M 61.404224 171.390625 
L 270.288709 171.390625 
" style="fill: none; stroke: #000000; stroke-width: 0.8; stroke-linejoin: miter; stroke-linecap: square"/>
   </g>
   <g id="text_13">
    <!-- Mean Cluster Waveforms -->
    <g transform="translate(98.390529 19.44) scale(0.12 -0.12)">
     <defs>
      <path id="ArialMT-4d" d="M 475 0 
L 475 4581 
L 1388 4581 
L 2472 1338 
Q 2622 884 2691 659 
Q 2769 909 2934 1394 
L 4031 4581 
L 4847 4581 
L 4847 0 
L 4263 0 
L 4263 3834 
L 2931 0 
L 2384 0 
L 1059 3900 
L 1059 0 
L 475 0 
z
" transform="scale(0.015625)"/>
      <path id="ArialMT-6e" d="M 422 0 
L 422 3319 
L 928 3319 
L 928 2847 
Q 1294 3394 1984 3394 
Q 2284 3394 2536 3286 
Q 2788 3178 2913 3003 
Q 3038 2828 3088 2588 
Q 3119 2431 3119 2041 
L 3119 0 
L 2556 0 
L 2556 2019 
Q 2556 2363 2490 2533 
Q 2425 2703 2258 2804 
Q 2091 2906 1866 2906 
Q 1506 2906 1245 2678 
Q 984 2450 984 1813 
L 984 0 
L 422 0 
z
" transform="scale(0.015625)"/>
      <path id="ArialMT-43" d="M 3763 1606 
L 4369 1453 
Q 4178 706 3683 314 
Q 3188 -78 2472 -78 
Q 1731 -78 1267 223 
Q 803 525 561 1097 
Q 319 1669 319 2325 
Q 319 3041 592 3573 
Q 866 4106 1370 4382 
Q 1875 4659 2481 4659 
Q 3169 4659 3637 4309 
Q 4106 3959 4291 3325 
L 3694 3184 
Q 3534 3684 3231 3912 
Q 2928 4141 2469 4141 
Q 1941 4141 1586 3887 
Q 1231 3634 1087 3207 
Q 944 2781 944 2328 
Q 944 1744 1114 1308 
Q 1284 872 1643 656 
Q 2003 441 2422 441 
Q 2931 441 3284 734 
Q 3638 1028 3763 1606 
z
" transform="scale(0.015625)"/>
      <path id="ArialMT-57" d="M 1294 0 
L 78 4581 
L 700 4581 
L 1397 1578 
Q 1509 1106 1591 641 
Q 1766 1375 1797 1488 
L 2669 4581 
L 3400 4581 
L 4056 2263 
Q 4303 1400 4413 641 
Q 4500 1075 4641 1638 
L 5359 4581 
L 5969 4581 
L 4713 0 
L 4128 0 
L 3163 3491 
Q 3041 3928 3019 4028 
Q 2947 3713 2884 3491 
L 1913 0 
L 1294 0 
z
" transform="scale(0.015625)"/>
      <path id="ArialMT-76" d="M 1344 0 
L 81 3319 
L 675 3319 
L 1388 1331 
Q 1503 1009 1600 663 
Q 1675 925 1809 1294 
L 2547 3319 
L 3125 3319 
L 1869 0 
L 1344 0 
z
" transform="scale(0.015625)"/>
      <path id="ArialMT-66" d="M 556 0 
L 556 2881 
L 59 2881 
L 59 3319 
L 556 3319 
L 556 3672 
Q 556 4006 616 4169 
Q 697 4388 901 4523 
Q 1106 4659 1475 4659 
Q 1713 4659 2000 4603 
L 1916 4113 
Q 1741 4144 1584 4144 
Q 1328 4144 1222 4034 
Q 1116 3925 1116 3625 
L 1116 3319 
L 1763 3319 
L 1763 2881 
L 1116 2881 
L 1116 0 
L 556 0 
z
" transform="scale(0.015625)"/>
     </defs>
     <use xlink:href="#ArialMT-4d"/>
     <use xlink:href="#ArialMT-65" x="83.300781"/>
     <use xlink:href="#ArialMT-61" x="138.916016"/>
     <use xlink:href="#ArialMT-6e" x="194.53125"/>
     <use xlink:href="#ArialMT-20" x="250.146484"/>
     <use xlink:href="#ArialMT-43" x="277.929688"/>
     <use xlink:href="#ArialMT-6c" x="350.146484"/>
     <use xlink:href="#ArialMT-75" x="372.363281"/>
     <use xlink:href="#ArialMT-73" x="427.978516"/>
     <use xlink:href="#ArialMT-74" x="477.978516"/>
     <use xlink:href="#ArialMT-65" x="505.761719"/>
     <use xlink:href="#ArialMT-72" x="561.376953"/>
     <use xlink:href="#ArialMT-20" x="594.677734"/>
     <use xlink:href="#ArialMT-57" x="622.460938"/>
     <use xlink:href="#ArialMT-61" x="713.095703"/>
     <use xlink:href="#ArialMT-76" x="768.710938"/>
     <use xlink:href="#ArialMT-65" x="818.710938"/>
     <use xlink:href="#ArialMT-66" x="874.326172"/>
     <use xlink:href="#ArialMT-6f" x="902.109375"/>
     <use xlink:href="#ArialMT-72" x="957.724609"/>
     <use xlink:href="#ArialMT-6d" x="991.025391"/>
     <use xlink:href="#ArialMT-73" x="1074.326172"/>
    </g>
   </g>
  </g>
  <g id="axes_2">
   <g id="patch_5">
    <path d="M 335.427067 171.390625 
L 565.2 171.390625 
L 565.2 25.44 
L 335.427067 25.44 
z
" style="fill: #ffffff"/>
   </g>
   <g id="matplotlib.axis_3">
    <g id="xtick_6">
     <g id="line2d_18">
      <g>
       <use xlink:href="#mfd60bba2af" x="359.915511" y="171.390625" style="stroke: #000000; stroke-width: 0.8"/>
      </g>
     </g>
     <g id="text_14">
      <!-- $\mathdefault{10^{0}}$ -->
      <g transform="translate(352.065511 188.703125) scale(0.1 -0.1)">
       <use xlink:href="#ArialMT-31" transform="translate(0 0.99375)"/>
       <use xlink:href="#ArialMT-30" transform="translate(55.615234 0.99375)"/>
       <use xlink:href="#ArialMT-30" transform="translate(112.972813 70.6875) scale(0.7)"/>
      </g>
     </g>
    </g>
    <g id="xtick_7">
     <g id="line2d_19">
      <g>
       <use xlink:href="#mfd60bba2af" x="406.571643" y="171.390625" style="stroke: #000000; stroke-width: 0.8"/>
      </g>
     </g>
     <g id="text_15">
      <!-- $\mathdefault{10^{1}}$ -->
      <g transform="translate(398.721643 188.703125) scale(0.1 -0.1)">
       <use xlink:href="#ArialMT-31" transform="translate(0 0.99375)"/>
       <use xlink:href="#ArialMT-30" transform="translate(55.615234 0.99375)"/>
       <use xlink:href="#ArialMT-31" transform="translate(112.972813 70.6875) scale(0.7)"/>
      </g>
     </g>
    </g>
    <g id="xtick_8">
     <g id="line2d_20">
      <g>
       <use xlink:href="#mfd60bba2af" x="453.227775" y="171.390625" style="stroke: #000000; stroke-width: 0.8"/>
      </g>
     </g>
     <g id="text_16">
      <!-- $\mathdefault{10^{2}}$ -->
      <g transform="translate(445.377775 188.703125) scale(0.1 -0.1)">
       <use xlink:href="#ArialMT-31" transform="translate(0 0.99375)"/>
       <use xlink:href="#ArialMT-30" transform="translate(55.615234 0.99375)"/>
       <use xlink:href="#ArialMT-32" transform="translate(112.972813 70.6875) scale(0.7)"/>
      </g>
     </g>
    </g>
    <g id="xtick_9">
     <g id="line2d_21">
      <g>
       <use xlink:href="#mfd60bba2af" x="499.883907" y="171.390625" style="stroke: #000000; stroke-width: 0.8"/>
      </g>
     </g>
     <g id="text_17">
      <!-- $\mathdefault{10^{3}}$ -->
      <g transform="translate(492.033907 188.703125) scale(0.1 -0.1)">
       <defs>
        <path id="ArialMT-33" d="M 269 1209 
L 831 1284 
Q 928 806 1161 595 
Q 1394 384 1728 384 
Q 2125 384 2398 659 
Q 2672 934 2672 1341 
Q 2672 1728 2419 1979 
Q 2166 2231 1775 2231 
Q 1616 2231 1378 2169 
L 1441 2663 
Q 1497 2656 1531 2656 
Q 1891 2656 2178 2843 
Q 2466 3031 2466 3422 
Q 2466 3731 2256 3934 
Q 2047 4138 1716 4138 
Q 1388 4138 1169 3931 
Q 950 3725 888 3313 
L 325 3413 
Q 428 3978 793 4289 
Q 1159 4600 1703 4600 
Q 2078 4600 2393 4439 
Q 2709 4278 2876 4000 
Q 3044 3722 3044 3409 
Q 3044 3113 2884 2869 
Q 2725 2625 2413 2481 
Q 2819 2388 3044 2092 
Q 3269 1797 3269 1353 
Q 3269 753 2831 336 
Q 2394 -81 1725 -81 
Q 1122 -81 723 278 
Q 325 638 269 1209 
z
" transform="scale(0.015625)"/>
       </defs>
       <use xlink:href="#ArialMT-31" transform="translate(0 0.99375)"/>
       <use xlink:href="#ArialMT-30" transform="translate(55.615234 0.99375)"/>
       <use xlink:href="#ArialMT-33" transform="translate(112.972813 70.6875) scale(0.7)"/>
      </g>
     </g>
    </g>
    <g id="xtick_10">
     <g id="line2d_22">
      <g>
       <use xlink:href="#mfd60bba2af" x="546.540039" y="171.390625" style="stroke: #000000; stroke-width: 0.8"/>
      </g>
     </g>
     <g id="text_18">
      <!-- $\mathdefault{10^{4}}$ -->
      <g transform="translate(538.690039 188.603125) scale(0.1 -0.1)">
       <defs>
        <path id="ArialMT-34" d="M 2069 0 
L 2069 1097 
L 81 1097 
L 81 1613 
L 2172 4581 
L 2631 4581 
L 2631 1613 
L 3250 1613 
L 3250 1097 
L 2631 1097 
L 2631 0 
L 2069 0 
z
M 2069 1613 
L 2069 3678 
L 634 1613 
L 2069 1613 
z
" transform="scale(0.015625)"/>
       </defs>
       <use xlink:href="#ArialMT-31" transform="translate(0 0.201563)"/>
       <use xlink:href="#ArialMT-30" transform="translate(55.615234 0.201563)"/>
       <use xlink:href="#ArialMT-34" transform="translate(112.972813 69.895313) scale(0.7)"/>
      </g>
     </g>
    </g>
    <g id="xtick_11">
     <g id="line2d_23">
      <defs>
       <path id="m90958b6052" d="M 0 0 
L 0 2 
" style="stroke: #000000; stroke-width: 0.6"/>
      </defs>
      <g>
       <use xlink:href="#m90958b6052" x="335.520011" y="171.390625" style="stroke: #000000; stroke-width: 0.6"/>
      </g>
     </g>
    </g>
    <g id="xtick_12">
     <g id="line2d_24">
      <g>
       <use xlink:href="#m90958b6052" x="341.34917" y="171.390625" style="stroke: #000000; stroke-width: 0.6"/>
      </g>
     </g>
    </g>
    <g id="xtick_13">
     <g id="line2d_25">
      <g>
       <use xlink:href="#m90958b6052" x="345.870616" y="171.390625" style="stroke: #000000; stroke-width: 0.6"/>
      </g>
     </g>
    </g>
    <g id="xtick_14">
     <g id="line2d_26">
      <g>
       <use xlink:href="#m90958b6052" x="349.564907" y="171.390625" style="stroke: #000000; stroke-width: 0.6"/>
      </g>
     </g>
    </g>
    <g id="xtick_15">
     <g id="line2d_27">
      <g>
       <use xlink:href="#m90958b6052" x="352.688385" y="171.390625" style="stroke: #000000; stroke-width: 0.6"/>
      </g>
     </g>
    </g>
    <g id="xtick_16">
     <g id="line2d_28">
      <g>
       <use xlink:href="#m90958b6052" x="355.394065" y="171.390625" style="stroke: #000000; stroke-width: 0.6"/>
      </g>
     </g>
    </g>
    <g id="xtick_17">
     <g id="line2d_29">
      <g>
       <use xlink:href="#m90958b6052" x="357.780644" y="171.390625" style="stroke: #000000; stroke-width: 0.6"/>
      </g>
     </g>
    </g>
    <g id="xtick_18">
     <g id="line2d_30">
      <g>
       <use xlink:href="#m90958b6052" x="373.960406" y="171.390625" style="stroke: #000000; stroke-width: 0.6"/>
      </g>
     </g>
    </g>
    <g id="xtick_19">
     <g id="line2d_31">
      <g>
       <use xlink:href="#m90958b6052" x="382.176143" y="171.390625" style="stroke: #000000; stroke-width: 0.6"/>
      </g>
     </g>
    </g>
    <g id="xtick_20">
     <g id="line2d_32">
      <g>
       <use xlink:href="#m90958b6052" x="388.005301" y="171.390625" style="stroke: #000000; stroke-width: 0.6"/>
      </g>
     </g>
    </g>
    <g id="xtick_21">
     <g id="line2d_33">
      <g>
       <use xlink:href="#m90958b6052" x="392.526748" y="171.390625" style="stroke: #000000; stroke-width: 0.6"/>
      </g>
     </g>
    </g>
    <g id="xtick_22">
     <g id="line2d_34">
      <g>
       <use xlink:href="#m90958b6052" x="396.221039" y="171.390625" style="stroke: #000000; stroke-width: 0.6"/>
      </g>
     </g>
    </g>
    <g id="xtick_23">
     <g id="line2d_35">
      <g>
       <use xlink:href="#m90958b6052" x="399.344517" y="171.390625" style="stroke: #000000; stroke-width: 0.6"/>
      </g>
     </g>
    </g>
    <g id="xtick_24">
     <g id="line2d_36">
      <g>
       <use xlink:href="#m90958b6052" x="402.050197" y="171.390625" style="stroke: #000000; stroke-width: 0.6"/>
      </g>
     </g>
    </g>
    <g id="xtick_25">
     <g id="line2d_37">
      <g>
       <use xlink:href="#m90958b6052" x="404.436776" y="171.390625" style="stroke: #000000; stroke-width: 0.6"/>
      </g>
     </g>
    </g>
    <g id="xtick_26">
     <g id="line2d_38">
      <g>
       <use xlink:href="#m90958b6052" x="420.616538" y="171.390625" style="stroke: #000000; stroke-width: 0.6"/>
      </g>
     </g>
    </g>
    <g id="xtick_27">
     <g id="line2d_39">
      <g>
       <use xlink:href="#m90958b6052" x="428.832275" y="171.390625" style="stroke: #000000; stroke-width: 0.6"/>
      </g>
     </g>
    </g>
    <g id="xtick_28">
     <g id="line2d_40">
      <g>
       <use xlink:href="#m90958b6052" x="434.661433" y="171.390625" style="stroke: #000000; stroke-width: 0.6"/>
      </g>
     </g>
    </g>
    <g id="xtick_29">
     <g id="line2d_41">
      <g>
       <use xlink:href="#m90958b6052" x="439.18288" y="171.390625" style="stroke: #000000; stroke-width: 0.6"/>
      </g>
     </g>
    </g>
    <g id="xtick_30">
     <g id="line2d_42">
      <g>
       <use xlink:href="#m90958b6052" x="442.87717" y="171.390625" style="stroke: #000000; stroke-width: 0.6"/>
      </g>
     </g>
    </g>
    <g id="xtick_31">
     <g id="line2d_43">
      <g>
       <use xlink:href="#m90958b6052" x="446.000649" y="171.390625" style="stroke: #000000; stroke-width: 0.6"/>
      </g>
     </g>
    </g>
    <g id="xtick_32">
     <g id="line2d_44">
      <g>
       <use xlink:href="#m90958b6052" x="448.706329" y="171.390625" style="stroke: #000000; stroke-width: 0.6"/>
      </g>
     </g>
    </g>
    <g id="xtick_33">
     <g id="line2d_45">
      <g>
       <use xlink:href="#m90958b6052" x="451.092907" y="171.390625" style="stroke: #000000; stroke-width: 0.6"/>
      </g>
     </g>
    </g>
    <g id="xtick_34">
     <g id="line2d_46">
      <g>
       <use xlink:href="#m90958b6052" x="467.27267" y="171.390625" style="stroke: #000000; stroke-width: 0.6"/>
      </g>
     </g>
    </g>
    <g id="xtick_35">
     <g id="line2d_47">
      <g>
       <use xlink:href="#m90958b6052" x="475.488407" y="171.390625" style="stroke: #000000; stroke-width: 0.6"/>
      </g>
     </g>
    </g>
    <g id="xtick_36">
     <g id="line2d_48">
      <g>
       <use xlink:href="#m90958b6052" x="481.317565" y="171.390625" style="stroke: #000000; stroke-width: 0.6"/>
      </g>
     </g>
    </g>
    <g id="xtick_37">
     <g id="line2d_49">
      <g>
       <use xlink:href="#m90958b6052" x="485.839012" y="171.390625" style="stroke: #000000; stroke-width: 0.6"/>
      </g>
     </g>
    </g>
    <g id="xtick_38">
     <g id="line2d_50">
      <g>
       <use xlink:href="#m90958b6052" x="489.533302" y="171.390625" style="stroke: #000000; stroke-width: 0.6"/>
      </g>
     </g>
    </g>
    <g id="xtick_39">
     <g id="line2d_51">
      <g>
       <use xlink:href="#m90958b6052" x="492.656781" y="171.390625" style="stroke: #000000; stroke-width: 0.6"/>
      </g>
     </g>
    </g>
    <g id="xtick_40">
     <g id="line2d_52">
      <g>
       <use xlink:href="#m90958b6052" x="495.362461" y="171.390625" style="stroke: #000000; stroke-width: 0.6"/>
      </g>
     </g>
    </g>
    <g id="xtick_41">
     <g id="line2d_53">
      <g>
       <use xlink:href="#m90958b6052" x="497.749039" y="171.390625" style="stroke: #000000; stroke-width: 0.6"/>
      </g>
     </g>
    </g>
    <g id="xtick_42">
     <g id="line2d_54">
      <g>
       <use xlink:href="#m90958b6052" x="513.928802" y="171.390625" style="stroke: #000000; stroke-width: 0.6"/>
      </g>
     </g>
    </g>
    <g id="xtick_43">
     <g id="line2d_55">
      <g>
       <use xlink:href="#m90958b6052" x="522.144539" y="171.390625" style="stroke: #000000; stroke-width: 0.6"/>
      </g>
     </g>
    </g>
    <g id="xtick_44">
     <g id="line2d_56">
      <g>
       <use xlink:href="#m90958b6052" x="527.973697" y="171.390625" style="stroke: #000000; stroke-width: 0.6"/>
      </g>
     </g>
    </g>
    <g id="xtick_45">
     <g id="line2d_57">
      <g>
       <use xlink:href="#m90958b6052" x="532.495144" y="171.390625" style="stroke: #000000; stroke-width: 0.6"/>
      </g>
     </g>
    </g>
    <g id="xtick_46">
     <g id="line2d_58">
      <g>
       <use xlink:href="#m90958b6052" x="536.189434" y="171.390625" style="stroke: #000000; stroke-width: 0.6"/>
      </g>
     </g>
    </g>
    <g id="xtick_47">
     <g id="line2d_59">
      <g>
       <use xlink:href="#m90958b6052" x="539.312912" y="171.390625" style="stroke: #000000; stroke-width: 0.6"/>
      </g>
     </g>
    </g>
    <g id="xtick_48">
     <g id="line2d_60">
      <g>
       <use xlink:href="#m90958b6052" x="542.018592" y="171.390625" style="stroke: #000000; stroke-width: 0.6"/>
      </g>
     </g>
    </g>
    <g id="xtick_49">
     <g id="line2d_61">
      <g>
       <use xlink:href="#m90958b6052" x="544.405171" y="171.390625" style="stroke: #000000; stroke-width: 0.6"/>
      </g>
     </g>
    </g>
    <g id="xtick_50">
     <g id="line2d_62">
      <g>
       <use xlink:href="#m90958b6052" x="560.584934" y="171.390625" style="stroke: #000000; stroke-width: 0.6"/>
      </g>
     </g>
    </g>
    <g id="text_19">
     <!-- Frequency (Hz) -->
     <g transform="translate(415.862752 201.970313) scale(0.1 -0.1)">
      <defs>
       <path id="ArialMT-46" d="M 525 0 
L 525 4581 
L 3616 4581 
L 3616 4041 
L 1131 4041 
L 1131 2622 
L 3281 2622 
L 3281 2081 
L 1131 2081 
L 1131 0 
L 525 0 
z
" transform="scale(0.015625)"/>
       <path id="ArialMT-71" d="M 2538 -1272 
L 2538 353 
Q 2406 169 2170 47 
Q 1934 -75 1669 -75 
Q 1078 -75 651 397 
Q 225 869 225 1691 
Q 225 2191 398 2587 
Q 572 2984 901 3189 
Q 1231 3394 1625 3394 
Q 2241 3394 2594 2875 
L 2594 3319 
L 3100 3319 
L 3100 -1272 
L 2538 -1272 
z
M 803 1669 
Q 803 1028 1072 708 
Q 1341 388 1716 388 
Q 2075 388 2334 692 
Q 2594 997 2594 1619 
Q 2594 2281 2320 2615 
Q 2047 2950 1678 2950 
Q 1313 2950 1058 2639 
Q 803 2328 803 1669 
z
" transform="scale(0.015625)"/>
       <path id="ArialMT-63" d="M 2588 1216 
L 3141 1144 
Q 3050 572 2676 248 
Q 2303 -75 1759 -75 
Q 1078 -75 664 370 
Q 250 816 250 1647 
Q 250 2184 428 2587 
Q 606 2991 970 3192 
Q 1334 3394 1763 3394 
Q 2303 3394 2647 3120 
Q 2991 2847 3088 2344 
L 2541 2259 
Q 2463 2594 2264 2762 
Q 2066 2931 1784 2931 
Q 1359 2931 1093 2626 
Q 828 2322 828 1663 
Q 828 994 1084 691 
Q 1341 388 1753 388 
Q 2084 388 2306 591 
Q 2528 794 2588 1216 
z
" transform="scale(0.015625)"/>
       <path id="ArialMT-79" d="M 397 -1278 
L 334 -750 
Q 519 -800 656 -800 
Q 844 -800 956 -737 
Q 1069 -675 1141 -563 
Q 1194 -478 1313 -144 
Q 1328 -97 1363 -6 
L 103 3319 
L 709 3319 
L 1400 1397 
Q 1534 1031 1641 628 
Q 1738 1016 1872 1384 
L 2581 3319 
L 3144 3319 
L 1881 -56 
Q 1678 -603 1566 -809 
Q 1416 -1088 1222 -1217 
Q 1028 -1347 759 -1347 
Q 597 -1347 397 -1278 
z
" transform="scale(0.015625)"/>
       <path id="ArialMT-48" d="M 513 0 
L 513 4581 
L 1119 4581 
L 1119 2700 
L 3500 2700 
L 3500 4581 
L 4106 4581 
L 4106 0 
L 3500 0 
L 3500 2159 
L 1119 2159 
L 1119 0 
L 513 0 
z
" transform="scale(0.015625)"/>
      </defs>
      <use xlink:href="#ArialMT-46"/>
      <use xlink:href="#ArialMT-72" x="61.083984"/>
      <use xlink:href="#ArialMT-65" x="94.384766"/>
      <use xlink:href="#ArialMT-71" x="150"/>
      <use xlink:href="#ArialMT-75" x="205.615234"/>
      <use xlink:href="#ArialMT-65" x="261.230469"/>
      <use xlink:href="#ArialMT-6e" x="316.845703"/>
      <use xlink:href="#ArialMT-63" x="372.460938"/>
      <use xlink:href="#ArialMT-79" x="422.460938"/>
      <use xlink:href="#ArialMT-20" x="472.460938"/>
      <use xlink:href="#ArialMT-28" x="500.244141"/>
      <use xlink:href="#ArialMT-48" x="533.544922"/>
      <use xlink:href="#ArialMT-7a" x="605.761719"/>
      <use xlink:href="#ArialMT-29" x="655.761719"/>
     </g>
    </g>
   </g>
   <g id="matplotlib.axis_4">
    <g id="ytick_6">
     <g id="line2d_63">
      <g>
       <use xlink:href="#ma9353d33e6" x="335.427067" y="154.872879" style="stroke: #000000; stroke-width: 0.8"/>
      </g>
     </g>
     <g id="text_20">
      <!-- $\mathdefault{10^{-12}}$ -->
      <g transform="translate(304.727067 160.029129) scale(0.1 -0.1)">
       <use xlink:href="#ArialMT-31" transform="translate(0 0.99375)"/>
       <use xlink:href="#ArialMT-30" transform="translate(55.615234 0.99375)"/>
       <use xlink:href="#ArialMT-2212" transform="translate(112.972813 70.6875) scale(0.7)"/>
       <use xlink:href="#ArialMT-31" transform="translate(153.851719 70.6875) scale(0.7)"/>
       <use xlink:href="#ArialMT-32" transform="translate(192.782383 70.6875) scale(0.7)"/>
      </g>
     </g>
    </g>
    <g id="ytick_7">
     <g id="line2d_64">
      <g>
       <use xlink:href="#ma9353d33e6" x="335.427067" y="131.241326" style="stroke: #000000; stroke-width: 0.8"/>
      </g>
     </g>
     <g id="text_21">
      <!-- $\mathdefault{10^{-11}}$ -->
      <g transform="translate(304.727067 136.397576) scale(0.1 -0.1)">
       <use xlink:href="#ArialMT-31" transform="translate(0 0.99375)"/>
       <use xlink:href="#ArialMT-30" transform="translate(55.615234 0.99375)"/>
       <use xlink:href="#ArialMT-2212" transform="translate(112.972813 70.6875) scale(0.7)"/>
       <use xlink:href="#ArialMT-31" transform="translate(153.851719 70.6875) scale(0.7)"/>
       <use xlink:href="#ArialMT-31" transform="translate(192.782383 70.6875) scale(0.7)"/>
      </g>
     </g>
    </g>
    <g id="ytick_8">
     <g id="line2d_65">
      <g>
       <use xlink:href="#ma9353d33e6" x="335.427067" y="107.609774" style="stroke: #000000; stroke-width: 0.8"/>
      </g>
     </g>
     <g id="text_22">
      <!-- $\mathdefault{10^{-10}}$ -->
      <g transform="translate(304.727067 112.766024) scale(0.1 -0.1)">
       <use xlink:href="#ArialMT-31" transform="translate(0 0.99375)"/>
       <use xlink:href="#ArialMT-30" transform="translate(55.615234 0.99375)"/>
       <use xlink:href="#ArialMT-2212" transform="translate(112.972813 70.6875) scale(0.7)"/>
       <use xlink:href="#ArialMT-31" transform="translate(153.851719 70.6875) scale(0.7)"/>
       <use xlink:href="#ArialMT-30" transform="translate(192.782383 70.6875) scale(0.7)"/>
      </g>
     </g>
    </g>
    <g id="ytick_9">
     <g id="line2d_66">
      <g>
       <use xlink:href="#ma9353d33e6" x="335.427067" y="83.978221" style="stroke: #000000; stroke-width: 0.8"/>
      </g>
     </g>
     <g id="text_23">
      <!-- $\mathdefault{10^{-9}}$ -->
      <g transform="translate(308.627067 89.134471) scale(0.1 -0.1)">
       <defs>
        <path id="ArialMT-39" d="M 350 1059 
L 891 1109 
Q 959 728 1153 556 
Q 1347 384 1650 384 
Q 1909 384 2104 503 
Q 2300 622 2425 820 
Q 2550 1019 2634 1356 
Q 2719 1694 2719 2044 
Q 2719 2081 2716 2156 
Q 2547 1888 2255 1720 
Q 1963 1553 1622 1553 
Q 1053 1553 659 1965 
Q 266 2378 266 3053 
Q 266 3750 677 4175 
Q 1088 4600 1706 4600 
Q 2153 4600 2523 4359 
Q 2894 4119 3086 3673 
Q 3278 3228 3278 2384 
Q 3278 1506 3087 986 
Q 2897 466 2520 194 
Q 2144 -78 1638 -78 
Q 1100 -78 759 220 
Q 419 519 350 1059 
z
M 2653 3081 
Q 2653 3566 2395 3850 
Q 2138 4134 1775 4134 
Q 1400 4134 1122 3828 
Q 844 3522 844 3034 
Q 844 2597 1108 2323 
Q 1372 2050 1759 2050 
Q 2150 2050 2401 2323 
Q 2653 2597 2653 3081 
z
" transform="scale(0.015625)"/>
       </defs>
       <use xlink:href="#ArialMT-31" transform="translate(0 0.99375)"/>
       <use xlink:href="#ArialMT-30" transform="translate(55.615234 0.99375)"/>
       <use xlink:href="#ArialMT-2212" transform="translate(112.972813 70.6875) scale(0.7)"/>
       <use xlink:href="#ArialMT-39" transform="translate(153.851719 70.6875) scale(0.7)"/>
      </g>
     </g>
    </g>
    <g id="ytick_10">
     <g id="line2d_67">
      <g>
       <use xlink:href="#ma9353d33e6" x="335.427067" y="60.346669" style="stroke: #000000; stroke-width: 0.8"/>
      </g>
     </g>
     <g id="text_24">
      <!-- $\mathdefault{10^{-8}}$ -->
      <g transform="translate(308.627067 65.502919) scale(0.1 -0.1)">
       <defs>
        <path id="ArialMT-38" d="M 1131 2484 
Q 781 2613 612 2850 
Q 444 3088 444 3419 
Q 444 3919 803 4259 
Q 1163 4600 1759 4600 
Q 2359 4600 2725 4251 
Q 3091 3903 3091 3403 
Q 3091 3084 2923 2848 
Q 2756 2613 2416 2484 
Q 2838 2347 3058 2040 
Q 3278 1734 3278 1309 
Q 3278 722 2862 322 
Q 2447 -78 1769 -78 
Q 1091 -78 675 323 
Q 259 725 259 1325 
Q 259 1772 486 2073 
Q 713 2375 1131 2484 
z
M 1019 3438 
Q 1019 3113 1228 2906 
Q 1438 2700 1772 2700 
Q 2097 2700 2305 2904 
Q 2513 3109 2513 3406 
Q 2513 3716 2298 3927 
Q 2084 4138 1766 4138 
Q 1444 4138 1231 3931 
Q 1019 3725 1019 3438 
z
M 838 1322 
Q 838 1081 952 856 
Q 1066 631 1291 507 
Q 1516 384 1775 384 
Q 2178 384 2440 643 
Q 2703 903 2703 1303 
Q 2703 1709 2433 1975 
Q 2163 2241 1756 2241 
Q 1359 2241 1098 1978 
Q 838 1716 838 1322 
z
" transform="scale(0.015625)"/>
       </defs>
       <use xlink:href="#ArialMT-31" transform="translate(0 0.99375)"/>
       <use xlink:href="#ArialMT-30" transform="translate(55.615234 0.99375)"/>
       <use xlink:href="#ArialMT-2212" transform="translate(112.972813 70.6875) scale(0.7)"/>
       <use xlink:href="#ArialMT-38" transform="translate(153.851719 70.6875) scale(0.7)"/>
      </g>
     </g>
    </g>
    <g id="ytick_11">
     <g id="line2d_68">
      <g>
       <use xlink:href="#ma9353d33e6" x="335.427067" y="36.715116" style="stroke: #000000; stroke-width: 0.8"/>
      </g>
     </g>
     <g id="text_25">
      <!-- $\mathdefault{10^{-7}}$ -->
      <g transform="translate(308.627067 41.821366) scale(0.1 -0.1)">
       <defs>
        <path id="ArialMT-37" d="M 303 3981 
L 303 4522 
L 3269 4522 
L 3269 4084 
Q 2831 3619 2401 2847 
Q 1972 2075 1738 1259 
Q 1569 684 1522 0 
L 944 0 
Q 953 541 1156 1306 
Q 1359 2072 1739 2783 
Q 2119 3494 2547 3981 
L 303 3981 
z
" transform="scale(0.015625)"/>
       </defs>
       <use xlink:href="#ArialMT-31" transform="translate(0 0.846875)"/>
       <use xlink:href="#ArialMT-30" transform="translate(55.615234 0.846875)"/>
       <use xlink:href="#ArialMT-2212" transform="translate(112.972813 70.540625) scale(0.7)"/>
       <use xlink:href="#ArialMT-37" transform="translate(153.851719 70.540625) scale(0.7)"/>
      </g>
     </g>
    </g>
    <g id="ytick_12">
     <g id="line2d_69">
      <defs>
       <path id="m4031117cba" d="M 0 0 
L -2 0 
" style="stroke: #000000; stroke-width: 0.6"/>
      </defs>
      <g>
       <use xlink:href="#m4031117cba" x="335.427067" y="171.390625" style="stroke: #000000; stroke-width: 0.6"/>
      </g>
     </g>
    </g>
    <g id="ytick_13">
     <g id="line2d_70">
      <g>
       <use xlink:href="#m4031117cba" x="335.427067" y="167.229315" style="stroke: #000000; stroke-width: 0.6"/>
      </g>
     </g>
    </g>
    <g id="ytick_14">
     <g id="line2d_71">
      <g>
       <use xlink:href="#m4031117cba" x="335.427067" y="164.276819" style="stroke: #000000; stroke-width: 0.6"/>
      </g>
     </g>
    </g>
    <g id="ytick_15">
     <g id="line2d_72">
      <g>
       <use xlink:href="#m4031117cba" x="335.427067" y="161.986685" style="stroke: #000000; stroke-width: 0.6"/>
      </g>
     </g>
    </g>
    <g id="ytick_16">
     <g id="line2d_73">
      <g>
       <use xlink:href="#m4031117cba" x="335.427067" y="160.115509" style="stroke: #000000; stroke-width: 0.6"/>
      </g>
     </g>
    </g>
    <g id="ytick_17">
     <g id="line2d_74">
      <g>
       <use xlink:href="#m4031117cba" x="335.427067" y="158.533452" style="stroke: #000000; stroke-width: 0.6"/>
      </g>
     </g>
    </g>
    <g id="ytick_18">
     <g id="line2d_75">
      <g>
       <use xlink:href="#m4031117cba" x="335.427067" y="157.163013" style="stroke: #000000; stroke-width: 0.6"/>
      </g>
     </g>
    </g>
    <g id="ytick_19">
     <g id="line2d_76">
      <g>
       <use xlink:href="#m4031117cba" x="335.427067" y="155.954199" style="stroke: #000000; stroke-width: 0.6"/>
      </g>
     </g>
    </g>
    <g id="ytick_20">
     <g id="line2d_77">
      <g>
       <use xlink:href="#m4031117cba" x="335.427067" y="147.759072" style="stroke: #000000; stroke-width: 0.6"/>
      </g>
     </g>
    </g>
    <g id="ytick_21">
     <g id="line2d_78">
      <g>
       <use xlink:href="#m4031117cba" x="335.427067" y="143.597763" style="stroke: #000000; stroke-width: 0.6"/>
      </g>
     </g>
    </g>
    <g id="ytick_22">
     <g id="line2d_79">
      <g>
       <use xlink:href="#m4031117cba" x="335.427067" y="140.645266" style="stroke: #000000; stroke-width: 0.6"/>
      </g>
     </g>
    </g>
    <g id="ytick_23">
     <g id="line2d_80">
      <g>
       <use xlink:href="#m4031117cba" x="335.427067" y="138.355132" style="stroke: #000000; stroke-width: 0.6"/>
      </g>
     </g>
    </g>
    <g id="ytick_24">
     <g id="line2d_81">
      <g>
       <use xlink:href="#m4031117cba" x="335.427067" y="136.483956" style="stroke: #000000; stroke-width: 0.6"/>
      </g>
     </g>
    </g>
    <g id="ytick_25">
     <g id="line2d_82">
      <g>
       <use xlink:href="#m4031117cba" x="335.427067" y="134.9019" style="stroke: #000000; stroke-width: 0.6"/>
      </g>
     </g>
    </g>
    <g id="ytick_26">
     <g id="line2d_83">
      <g>
       <use xlink:href="#m4031117cba" x="335.427067" y="133.53146" style="stroke: #000000; stroke-width: 0.6"/>
      </g>
     </g>
    </g>
    <g id="ytick_27">
     <g id="line2d_84">
      <g>
       <use xlink:href="#m4031117cba" x="335.427067" y="132.322647" style="stroke: #000000; stroke-width: 0.6"/>
      </g>
     </g>
    </g>
    <g id="ytick_28">
     <g id="line2d_85">
      <g>
       <use xlink:href="#m4031117cba" x="335.427067" y="124.12752" style="stroke: #000000; stroke-width: 0.6"/>
      </g>
     </g>
    </g>
    <g id="ytick_29">
     <g id="line2d_86">
      <g>
       <use xlink:href="#m4031117cba" x="335.427067" y="119.96621" style="stroke: #000000; stroke-width: 0.6"/>
      </g>
     </g>
    </g>
    <g id="ytick_30">
     <g id="line2d_87">
      <g>
       <use xlink:href="#m4031117cba" x="335.427067" y="117.013714" style="stroke: #000000; stroke-width: 0.6"/>
      </g>
     </g>
    </g>
    <g id="ytick_31">
     <g id="line2d_88">
      <g>
       <use xlink:href="#m4031117cba" x="335.427067" y="114.72358" style="stroke: #000000; stroke-width: 0.6"/>
      </g>
     </g>
    </g>
    <g id="ytick_32">
     <g id="line2d_89">
      <g>
       <use xlink:href="#m4031117cba" x="335.427067" y="112.852404" style="stroke: #000000; stroke-width: 0.6"/>
      </g>
     </g>
    </g>
    <g id="ytick_33">
     <g id="line2d_90">
      <g>
       <use xlink:href="#m4031117cba" x="335.427067" y="111.270347" style="stroke: #000000; stroke-width: 0.6"/>
      </g>
     </g>
    </g>
    <g id="ytick_34">
     <g id="line2d_91">
      <g>
       <use xlink:href="#m4031117cba" x="335.427067" y="109.899908" style="stroke: #000000; stroke-width: 0.6"/>
      </g>
     </g>
    </g>
    <g id="ytick_35">
     <g id="line2d_92">
      <g>
       <use xlink:href="#m4031117cba" x="335.427067" y="108.691094" style="stroke: #000000; stroke-width: 0.6"/>
      </g>
     </g>
    </g>
    <g id="ytick_36">
     <g id="line2d_93">
      <g>
       <use xlink:href="#m4031117cba" x="335.427067" y="100.495967" style="stroke: #000000; stroke-width: 0.6"/>
      </g>
     </g>
    </g>
    <g id="ytick_37">
     <g id="line2d_94">
      <g>
       <use xlink:href="#m4031117cba" x="335.427067" y="96.334658" style="stroke: #000000; stroke-width: 0.6"/>
      </g>
     </g>
    </g>
    <g id="ytick_38">
     <g id="line2d_95">
      <g>
       <use xlink:href="#m4031117cba" x="335.427067" y="93.382161" style="stroke: #000000; stroke-width: 0.6"/>
      </g>
     </g>
    </g>
    <g id="ytick_39">
     <g id="line2d_96">
      <g>
       <use xlink:href="#m4031117cba" x="335.427067" y="91.092027" style="stroke: #000000; stroke-width: 0.6"/>
      </g>
     </g>
    </g>
    <g id="ytick_40">
     <g id="line2d_97">
      <g>
       <use xlink:href="#m4031117cba" x="335.427067" y="89.220851" style="stroke: #000000; stroke-width: 0.6"/>
      </g>
     </g>
    </g>
    <g id="ytick_41">
     <g id="line2d_98">
      <g>
       <use xlink:href="#m4031117cba" x="335.427067" y="87.638795" style="stroke: #000000; stroke-width: 0.6"/>
      </g>
     </g>
    </g>
    <g id="ytick_42">
     <g id="line2d_99">
      <g>
       <use xlink:href="#m4031117cba" x="335.427067" y="86.268355" style="stroke: #000000; stroke-width: 0.6"/>
      </g>
     </g>
    </g>
    <g id="ytick_43">
     <g id="line2d_100">
      <g>
       <use xlink:href="#m4031117cba" x="335.427067" y="85.059542" style="stroke: #000000; stroke-width: 0.6"/>
      </g>
     </g>
    </g>
    <g id="ytick_44">
     <g id="line2d_101">
      <g>
       <use xlink:href="#m4031117cba" x="335.427067" y="76.864415" style="stroke: #000000; stroke-width: 0.6"/>
      </g>
     </g>
    </g>
    <g id="ytick_45">
     <g id="line2d_102">
      <g>
       <use xlink:href="#m4031117cba" x="335.427067" y="72.703105" style="stroke: #000000; stroke-width: 0.6"/>
      </g>
     </g>
    </g>
    <g id="ytick_46">
     <g id="line2d_103">
      <g>
       <use xlink:href="#m4031117cba" x="335.427067" y="69.750609" style="stroke: #000000; stroke-width: 0.6"/>
      </g>
     </g>
    </g>
    <g id="ytick_47">
     <g id="line2d_104">
      <g>
       <use xlink:href="#m4031117cba" x="335.427067" y="67.460475" style="stroke: #000000; stroke-width: 0.6"/>
      </g>
     </g>
    </g>
    <g id="ytick_48">
     <g id="line2d_105">
      <g>
       <use xlink:href="#m4031117cba" x="335.427067" y="65.589299" style="stroke: #000000; stroke-width: 0.6"/>
      </g>
     </g>
    </g>
    <g id="ytick_49">
     <g id="line2d_106">
      <g>
       <use xlink:href="#m4031117cba" x="335.427067" y="64.007242" style="stroke: #000000; stroke-width: 0.6"/>
      </g>
     </g>
    </g>
    <g id="ytick_50">
     <g id="line2d_107">
      <g>
       <use xlink:href="#m4031117cba" x="335.427067" y="62.636803" style="stroke: #000000; stroke-width: 0.6"/>
      </g>
     </g>
    </g>
    <g id="ytick_51">
     <g id="line2d_108">
      <g>
       <use xlink:href="#m4031117cba" x="335.427067" y="61.427989" style="stroke: #000000; stroke-width: 0.6"/>
      </g>
     </g>
    </g>
    <g id="ytick_52">
     <g id="line2d_109">
      <g>
       <use xlink:href="#m4031117cba" x="335.427067" y="53.232862" style="stroke: #000000; stroke-width: 0.6"/>
      </g>
     </g>
    </g>
    <g id="ytick_53">
     <g id="line2d_110">
      <g>
       <use xlink:href="#m4031117cba" x="335.427067" y="49.071553" style="stroke: #000000; stroke-width: 0.6"/>
      </g>
     </g>
    </g>
    <g id="ytick_54">
     <g id="line2d_111">
      <g>
       <use xlink:href="#m4031117cba" x="335.427067" y="46.119056" style="stroke: #000000; stroke-width: 0.6"/>
      </g>
     </g>
    </g>
    <g id="ytick_55">
     <g id="line2d_112">
      <g>
       <use xlink:href="#m4031117cba" x="335.427067" y="43.828922" style="stroke: #000000; stroke-width: 0.6"/>
      </g>
     </g>
    </g>
    <g id="ytick_56">
     <g id="line2d_113">
      <g>
       <use xlink:href="#m4031117cba" x="335.427067" y="41.957746" style="stroke: #000000; stroke-width: 0.6"/>
      </g>
     </g>
    </g>
    <g id="ytick_57">
     <g id="line2d_114">
      <g>
       <use xlink:href="#m4031117cba" x="335.427067" y="40.37569" style="stroke: #000000; stroke-width: 0.6"/>
      </g>
     </g>
    </g>
    <g id="ytick_58">
     <g id="line2d_115">
      <g>
       <use xlink:href="#m4031117cba" x="335.427067" y="39.00525" style="stroke: #000000; stroke-width: 0.6"/>
      </g>
     </g>
    </g>
    <g id="ytick_59">
     <g id="line2d_116">
      <g>
       <use xlink:href="#m4031117cba" x="335.427067" y="37.796437" style="stroke: #000000; stroke-width: 0.6"/>
      </g>
     </g>
    </g>
    <g id="ytick_60">
     <g id="line2d_117">
      <g>
       <use xlink:href="#m4031117cba" x="335.427067" y="29.60131" style="stroke: #000000; stroke-width: 0.6"/>
      </g>
     </g>
    </g>
    <g id="ytick_61">
     <g id="line2d_118">
      <g>
       <use xlink:href="#m4031117cba" x="335.427067" y="25.44" style="stroke: #000000; stroke-width: 0.6"/>
      </g>
     </g>
    </g>
    <g id="text_26">
     <!-- Log Power -->
     <g transform="translate(298.62238 122.317656) rotate(-90) scale(0.1 -0.1)">
      <defs>
       <path id="ArialMT-4c" d="M 469 0 
L 469 4581 
L 1075 4581 
L 1075 541 
L 3331 541 
L 3331 0 
L 469 0 
z
" transform="scale(0.015625)"/>
       <path id="ArialMT-67" d="M 319 -275 
L 866 -356 
Q 900 -609 1056 -725 
Q 1266 -881 1628 -881 
Q 2019 -881 2231 -725 
Q 2444 -569 2519 -288 
Q 2563 -116 2559 434 
Q 2191 0 1641 0 
Q 956 0 581 494 
Q 206 988 206 1678 
Q 206 2153 378 2554 
Q 550 2956 876 3175 
Q 1203 3394 1644 3394 
Q 2231 3394 2613 2919 
L 2613 3319 
L 3131 3319 
L 3131 450 
Q 3131 -325 2973 -648 
Q 2816 -972 2473 -1159 
Q 2131 -1347 1631 -1347 
Q 1038 -1347 672 -1080 
Q 306 -813 319 -275 
z
M 784 1719 
Q 784 1066 1043 766 
Q 1303 466 1694 466 
Q 2081 466 2343 764 
Q 2606 1063 2606 1700 
Q 2606 2309 2336 2618 
Q 2066 2928 1684 2928 
Q 1309 2928 1046 2623 
Q 784 2319 784 1719 
z
" transform="scale(0.015625)"/>
       <path id="ArialMT-50" d="M 494 0 
L 494 4581 
L 2222 4581 
Q 2678 4581 2919 4538 
Q 3256 4481 3484 4323 
Q 3713 4166 3852 3881 
Q 3991 3597 3991 3256 
Q 3991 2672 3619 2267 
Q 3247 1863 2275 1863 
L 1100 1863 
L 1100 0 
L 494 0 
z
M 1100 2403 
L 2284 2403 
Q 2872 2403 3119 2622 
Q 3366 2841 3366 3238 
Q 3366 3525 3220 3729 
Q 3075 3934 2838 4000 
Q 2684 4041 2272 4041 
L 1100 4041 
L 1100 2403 
z
" transform="scale(0.015625)"/>
       <path id="ArialMT-77" d="M 1034 0 
L 19 3319 
L 600 3319 
L 1128 1403 
L 1325 691 
Q 1338 744 1497 1375 
L 2025 3319 
L 2603 3319 
L 3100 1394 
L 3266 759 
L 3456 1400 
L 4025 3319 
L 4572 3319 
L 3534 0 
L 2950 0 
L 2422 1988 
L 2294 2553 
L 1622 0 
L 1034 0 
z
" transform="scale(0.015625)"/>
      </defs>
      <use xlink:href="#ArialMT-4c"/>
      <use xlink:href="#ArialMT-6f" x="55.615234"/>
      <use xlink:href="#ArialMT-67" x="111.230469"/>
      <use xlink:href="#ArialMT-20" x="166.845703"/>
      <use xlink:href="#ArialMT-50" x="194.628906"/>
      <use xlink:href="#ArialMT-6f" x="261.328125"/>
      <use xlink:href="#ArialMT-77" x="316.943359"/>
      <use xlink:href="#ArialMT-65" x="389.160156"/>
      <use xlink:href="#ArialMT-72" x="444.775391"/>
     </g>
    </g>
   </g>
   <g id="line2d_119">
    <path d="M -1 62.455568 
L 403.279279 62.363337 
L 415.452459 62.135067 
L 423.003792 61.77868 
L 428.492396 61.307849 
L 432.806729 60.739 
L 436.822289 59.991419 
L 440.554489 59.056843 
L 444.026635 57.940986 
L 447.263757 56.662789 
L 450.52277 55.133812 
L 453.925509 53.283727 
L 457.668684 50.97875 
L 462.043123 48.003335 
L 469.704902 42.45124 
L 474.837058 38.878013 
L 478.173645 36.816283 
L 480.883022 35.396419 
L 483.180269 34.437257 
L 485.201607 33.828631 
L 487.001236 33.51067 
L 488.689225 33.436697 
L 490.247345 33.588261 
L 491.754778 33.959627 
L 493.214192 34.550366 
L 494.654359 35.373558 
L 496.121282 36.470244 
L 497.670763 37.915995 
L 499.361186 39.811457 
L 501.509565 42.585719 
L 505.286283 47.49627 
L 509.76578 52.938381 
L 511.171627 55.256302 
L 516.320559 64.165615 
L 518.1035 67.480002 
L 519.558828 70.028005 
L 520.554563 71.312585 
L 521.876653 72.987894 
L 522.529904 74.26145 
L 523.226883 76.147866 
L 524.220219 79.580549 
L 526.658554 88.09048 
L 528.198548 93.155783 
L 528.771518 94.296712 
L 529.262287 94.815028 
L 530.304588 95.713357 
L 530.711372 96.563267 
L 531.218343 98.204051 
L 532.038851 101.750945 
L 532.974396 106.687818 
L 534.004522 112.132083 
L 534.388322 113.040006 
L 534.699664 113.290949 
L 534.999133 113.254197 
L 535.871866 112.985197 
L 536.113982 113.31848 
L 536.433481 114.205715 
L 538.24529 120.924125 
L 539.161046 124.906557 
L 539.548139 125.682154 
L 539.778591 125.755554 
L 540.014842 125.555801 
L 540.429986 125.236292 
L 540.615419 125.385308 
L 540.930554 126.019103 
L 541.277677 126.52103 
L 541.486773 126.480025 
L 541.827132 126.405344 
L 541.997727 126.67633 
L 542.234674 127.561204 
L 542.663644 130.237704 
L 543.193967 133.097185 
L 543.412676 133.378627 
L 543.575173 133.247665 
L 543.861647 133.053025 
L 543.866272 133.056779 
L 543.995341 133.310708 
L 544.194241 134.314775 
L 544.670895 137.005245 
L 544.699762 136.986066 
L 544.805994 136.689755 
L 545.234083 135.055416 
L 545.292352 135.115898 
L 545.429806 135.611711 
L 545.872291 137.640658 
L 545.924579 137.593074 
L 546.084782 137.120366 
L 546.313518 136.624388 
L 546.333999 136.635691 
L 546.434056 136.864763 
L 546.620593 137.993658 
L 547.053894 140.529137 
L 547.189752 140.50263 
L 547.410296 140.454968 
L 547.412237 140.457245 
L 547.559214 140.807544 
L 548.144179 142.488897 
L 548.155409 142.485075 
L 548.310113 142.301708 
L 548.537224 141.618665 
L 548.976763 140.254973 
L 548.991132 140.261246 
L 549.098573 140.458948 
L 549.338253 141.536947 
L 549.651742 142.512517 
L 549.831677 143.125135 
L 550.025389 144.848369 
L 550.392272 148.278409 
L 550.420735 148.250371 
L 550.52254 147.818199 
L 550.906761 146.190251 
L 551.06135 145.655101 
L 551.282228 143.730364 
L 551.562495 142.050807 
L 551.630384 142.101422 
L 551.644564 142.132065 
L 551.826454 142.855581 
L 552.292474 145.434674 
L 552.539618 150.315736 
L 552.707704 152.408822 
L 552.743541 152.302357 
L 552.850676 151.020028 
L 553.422787 143.488069 
L 553.575143 142.795176 
L 553.610909 142.848457 
L 553.705031 143.460076 
L 554.014248 147.074275 
L 554.110703 146.442705 
L 554.346405 144.074733 
L 554.402842 144.29704 
L 554.513881 146.09032 
L 554.755776 151.86497 
L 554.755776 151.86497 
" clip-path="url(#p61451e8f6c)" style="fill: none; stroke: #5e60ce; stroke-width: 1.5; stroke-linecap: square"/>
   </g>
   <g id="line2d_120">
    <path d="M -1 71.835907 
L 400.74316 71.738888 
L 412.653188 71.505159 
L 420.104212 71.142211 
L 425.539911 70.663781 
L 429.821561 70.086321 
L 433.887651 69.310895 
L 437.272585 68.451937 
L 440.554489 67.399781 
L 443.705002 66.163361 
L 446.989935 64.62432 
L 450.289866 62.821304 
L 453.728784 60.685129 
L 457.668684 57.959339 
L 462.432798 54.367184 
L 477.93561 42.43121 
L 481.088996 40.418383 
L 483.727321 38.992787 
L 485.98103 38.019627 
L 488.008972 37.382282 
L 489.819016 37.039705 
L 491.511199 36.941384 
L 493.10123 37.067312 
L 494.654359 37.412174 
L 496.194344 37.981872 
L 497.783457 38.80958 
L 499.506215 39.96719 
L 501.472128 41.568671 
L 503.922101 43.866886 
L 506.344618 46.429905 
L 508.134062 48.639725 
L 509.74088 50.985449 
L 511.676066 54.242101 
L 514.922912 59.71023 
L 520.554563 68.408744 
L 521.951801 70.466615 
L 523.033875 72.508917 
L 525.062124 76.958335 
L 526.226956 79.915455 
L 527.531389 83.97356 
L 528.585599 86.921681 
L 530.421648 91.607391 
L 532.530236 98.237302 
L 533.362489 100.59561 
L 535.654581 107.853693 
L 536.336483 109.81916 
L 538.129006 115.583365 
L 538.852474 117.470514 
L 540.104122 120.961827 
L 540.850216 122.706443 
L 541.952037 125.716446 
L 542.192027 125.745447 
L 542.834668 125.643772 
L 543.059675 126.023912 
L 543.391385 127.108294 
L 544.160087 129.693866 
L 544.850093 131.264208 
L 545.699834 134.04234 
L 545.926668 133.917579 
L 546.130323 133.922058 
L 546.288914 134.223005 
L 546.523484 135.253793 
L 547.882274 142.410071 
L 548.282242 143.225202 
L 548.617853 144.788729 
L 549.073554 146.560767 
L 549.354132 147.733652 
L 549.615214 150.06746 
L 550.003198 153.400081 
L 550.018564 153.390849 
L 550.093519 153.136266 
L 550.316734 151.270116 
L 550.509218 150.38519 
L 550.532526 150.403738 
L 550.615552 150.724246 
L 550.787164 152.50612 
L 551.056486 155.093325 
L 551.08727 155.048084 
L 551.182567 154.416985 
L 551.518165 151.831053 
L 551.556168 151.877527 
L 551.661883 152.410014 
L 551.975758 154.384468 
L 552.029919 154.300181 
L 552.304674 153.369121 
L 552.394426 153.596604 
L 552.586281 155.030214 
L 552.773358 155.873638 
L 552.798667 155.855066 
L 552.929178 155.501374 
L 553.013267 155.378577 
L 553.060323 155.459202 
L 553.164339 156.163967 
L 553.501982 160.40962 
L 553.60662 159.648075 
L 553.972167 155.643624 
L 554.012847 155.691058 
L 554.195594 156.194768 
L 554.262144 155.976478 
L 554.390467 154.428531 
L 554.755776 149.884655 
L 554.755776 149.884655 
" clip-path="url(#p61451e8f6c)" style="fill: none; stroke: #00c49a; stroke-width: 1.5; stroke-linecap: square"/>
   </g>
   <g id="line2d_121">
    <path d="M -1 71.202875 
L 407.560929 71.095049 
L 419.037518 70.857742 
L 426.319334 70.496138 
L 431.664877 70.02377 
L 436.361757 69.380005 
L 440.172166 68.64069 
L 443.705002 67.735883 
L 446.989935 66.672829 
L 450.289866 65.367507 
L 453.530131 63.845047 
L 457.006993 61.953111 
L 460.687266 59.689857 
L 465.082115 56.715208 
L 479.711145 46.573194 
L 482.665489 44.931125 
L 485.159743 43.789801 
L 487.38034 43.013121 
L 489.381436 42.54439 
L 491.233626 42.335038 
L 492.987635 42.358072 
L 494.680572 42.60034 
L 496.387897 43.072032 
L 498.161999 43.799601 
L 500.136294 44.85867 
L 503.005166 46.683938 
L 508.402 50.373773 
L 510.135657 51.903331 
L 514.777695 56.210527 
L 517.526444 58.423522 
L 520.0291 60.926127 
L 522.222739 63.2304 
L 523.201255 64.66433 
L 524.462633 66.958028 
L 526.663959 71.449835 
L 530.992647 81.437705 
L 532.187522 85.199976 
L 533.823151 91.056673 
L 534.8878 94.51166 
L 537.534198 102.261541 
L 538.248342 105.441908 
L 539.175624 109.414827 
L 539.750281 110.897951 
L 540.514732 112.189651 
L 541.053123 113.338965 
L 541.662824 115.240016 
L 543.170052 120.25318 
L 544.253305 121.989869 
L 545.288042 124.545621 
L 545.685044 127.239337 
L 546.368769 131.657295 
L 546.622612 132.201056 
L 546.747348 132.118006 
L 546.986612 131.557973 
L 547.258319 131.159767 
L 547.385045 131.292654 
L 547.599639 131.949771 
L 548.151666 133.63796 
L 548.428602 134.50078 
L 548.720009 136.341658 
L 549.712475 143.265063 
L 550.181746 145.217399 
L 550.291492 145.148073 
L 550.642049 144.607075 
L 550.708139 144.687956 
L 550.918192 145.300604 
L 551.217986 145.891785 
L 551.360647 146.304566 
L 551.51975 147.658328 
L 551.82177 152.810616 
L 551.98815 154.161908 
L 552.016006 154.127389 
L 552.122432 153.583584 
L 552.319914 152.77269 
L 552.351881 152.802851 
L 552.464127 153.21548 
L 552.620833 153.73352 
L 552.665813 153.655835 
L 552.779316 152.89962 
L 553.064729 150.904897 
L 553.098475 150.947558 
L 553.196461 151.471899 
L 553.537878 153.901134 
L 553.600901 153.825477 
L 553.723518 153.658336 
L 553.768955 153.738426 
L 553.870816 154.420523 
L 554.091169 157.89402 
L 554.221963 159.080647 
L 554.266296 158.923676 
L 554.384964 157.321406 
L 554.739559 152.948121 
L 554.755776 152.936896 
L 554.755776 152.936896 
" clip-path="url(#p61451e8f6c)" style="fill: none; stroke: #ffca3a; stroke-width: 1.5; stroke-linecap: square"/>
   </g>
   <g id="line2d_122">
    <path d="M -1 51.114802 
L 442.708284 51.005589 
L 454.881465 50.765073 
L 463.066053 50.386577 
L 469.972692 49.845233 
L 478.114398 48.962835 
L 489.718871 47.72914 
L 499.194158 46.86541 
L 501.264982 46.978645 
L 503.126395 47.300772 
L 504.894498 47.830172 
L 506.578954 48.565009 
L 508.228244 49.530918 
L 510.074477 50.884685 
L 517.695404 57.058098 
L 519.022299 58.51387 
L 520.415276 60.396585 
L 524.171387 65.666548 
L 525.892905 67.966094 
L 526.905694 69.756177 
L 528.338342 72.818656 
L 529.671692 75.477283 
L 530.957701 77.460499 
L 532.005664 79.248104 
L 532.974396 81.396999 
L 534.666924 85.193036 
L 535.469964 86.370185 
L 536.191798 87.51454 
L 536.892062 89.151484 
L 537.763599 91.040959 
L 539.710581 94.59257 
L 540.550166 96.443462 
L 541.143244 98.50991 
L 543.227402 106.135249 
L 544.24196 109.103226 
L 545.742033 116.044944 
L 546.29917 117.300029 
L 547.630385 120.497545 
L 547.959879 122.740908 
L 548.458117 125.838042 
L 548.661697 126.048373 
L 548.982153 126.140304 
L 549.153862 126.661411 
L 549.449141 128.448345 
L 549.979272 131.389098 
L 550.212197 131.756613 
L 550.338585 131.619927 
L 550.671816 131.09482 
L 550.719683 131.145797 
L 550.859334 131.583329 
L 551.238887 133.076308 
L 551.290244 133.023187 
L 551.446718 132.51184 
L 551.652438 132.023907 
L 551.679186 132.043465 
L 551.778005 132.337247 
L 551.961807 133.754213 
L 552.55167 138.609511 
L 552.874407 139.315005 
L 553.04416 139.326774 
L 553.195002 139.022072 
L 553.600901 137.860136 
L 553.668005 137.9495 
L 553.805797 138.565929 
L 554.371202 141.470878 
L 554.755776 142.13714 
L 554.755776 142.13714 
" clip-path="url(#p61451e8f6c)" style="fill: none; stroke: #d81159; stroke-width: 1.5; stroke-linecap: square"/>
   </g>
   <g id="line2d_123">
    <path d="M -1 56.448629 
L 427.79362 56.339799 
L 439.385174 56.106015 
L 446.712362 55.751975 
L 452.295485 55.268282 
L 456.838138 54.659868 
L 460.827008 53.90731 
L 464.50969 52.987028 
L 468.019289 51.879476 
L 471.509112 50.544379 
L 475.319521 48.839808 
L 480.464684 46.263393 
L 485.940747 43.577859 
L 488.689225 42.477144 
L 490.920686 41.814758 
L 492.902019 41.455895 
L 494.732896 41.348005 
L 496.531859 41.46492 
L 498.381411 41.809848 
L 500.394798 42.417202 
L 502.530654 43.295181 
L 504.52724 44.350966 
L 506.285608 45.530524 
L 507.957983 46.925374 
L 509.728418 48.703893 
L 511.979503 51.309266 
L 516.066878 56.425287 
L 517.50947 58.610398 
L 519.218339 61.657463 
L 523.739005 70.273065 
L 527.941419 79.319897 
L 530.245804 85.779528 
L 532.509998 91.647017 
L 533.571083 94.674899 
L 534.34028 97.638566 
L 536.255856 105.398659 
L 536.950695 107.099639 
L 537.857126 109.295696 
L 538.457767 111.443765 
L 539.134781 114.793751 
L 539.98966 118.817153 
L 540.536545 120.310271 
L 541.045152 121.129344 
L 541.419053 121.362326 
L 542.023067 121.620163 
L 542.252209 122.143596 
L 542.535657 123.435149 
L 543.713093 129.688338 
L 544.119026 130.909949 
L 544.581814 132.19722 
L 544.719723 132.153651 
L 544.894097 131.754381 
L 545.513111 130.015127 
L 545.547189 130.03678 
L 545.674473 130.313833 
L 545.872291 131.402126 
L 546.214922 134.828288 
L 546.64883 138.453321 
L 547.605408 142.115861 
L 547.817692 142.342923 
L 547.94476 142.174396 
L 548.132944 141.458175 
L 548.71637 138.593812 
L 548.776339 138.659029 
L 548.902963 139.164368 
L 549.134261 141.206074 
L 549.676057 145.945301 
L 550.124102 147.347879 
L 550.432443 147.822671 
L 550.645358 147.801107 
L 550.967109 147.758985 
L 551.129321 148.082211 
L 551.619347 149.181003 
L 551.774875 149.250049 
L 551.888798 149.734474 
L 552.05926 151.662771 
L 552.380761 155.939018 
L 552.432336 155.775875 
L 552.577258 154.181167 
L 552.786761 152.596702 
L 552.80908 152.618584 
L 552.889225 153.015364 
L 553.152645 155.204669 
L 553.229989 154.816108 
L 553.444416 151.653869 
L 553.605191 150.506229 
L 553.636622 150.554411 
L 553.727782 151.182745 
L 554.029656 154.355635 
L 554.110703 154.02829 
L 554.336753 152.5441 
L 554.397343 152.739549 
L 554.517982 154.239233 
L 554.755776 157.912044 
L 554.755776 157.912044 
" clip-path="url(#p61451e8f6c)" style="fill: none; stroke: #fe7f2d; stroke-width: 1.5; stroke-linecap: square"/>
   </g>
   <g id="line2d_124">
    <path d="M -1 47.775216 
L 414.101125 47.667783 
L 425.539911 47.437081 
L 432.806729 47.087922 
L 438.566375 46.588231 
L 443.046 45.985306 
L 446.989935 45.241675 
L 450.753029 44.301659 
L 454.31332 43.174886 
L 457.830785 41.821997 
L 461.511617 40.161886 
L 465.857278 37.941224 
L 477.079751 32.058508 
L 479.765908 30.990787 
L 481.990813 30.341915 
L 483.906438 30.009873 
L 485.615565 29.933264 
L 487.191675 30.081384 
L 488.689225 30.447687 
L 490.116513 31.029196 
L 491.511199 31.841943 
L 492.902019 32.916503 
L 494.310471 34.294153 
L 495.751967 36.021262 
L 497.282842 38.210485 
L 499.025742 41.113074 
L 503.788849 49.335316 
L 504.76751 50.400925 
L 505.701072 51.096201 
L 506.982631 51.740149 
L 508.281866 52.464074 
L 509.133908 53.208286 
L 509.976205 54.255576 
L 510.914619 55.805397 
L 512.212408 58.435991 
L 516.897497 68.716194 
L 519.551153 75.775748 
L 520.126336 76.542794 
L 520.663854 76.905574 
L 522.121561 77.661418 
L 522.582852 78.3498 
L 523.104858 79.562147 
L 523.78266 81.759136 
L 525.027002 86.711914 
L 525.9937 91.289456 
L 526.990954 97.320578 
L 527.727188 101.192074 
L 528.133315 102.312574 
L 528.407879 102.545935 
L 528.615069 102.453934 
L 528.888067 102.040694 
L 529.479784 100.603957 
L 529.940104 99.787672 
L 530.205007 99.684459 
L 530.430625 99.844495 
L 530.737908 100.386608 
L 532.667322 104.999868 
L 533.065224 107.511463 
L 534.206644 115.35295 
L 534.583014 116.177748 
L 534.909397 116.44748 
L 535.120541 116.369109 
L 535.378778 115.983198 
L 536.022251 114.956847 
L 536.232279 115.011796 
L 536.93768 115.400736 
L 537.534198 115.079076 
L 537.710408 115.482965 
L 537.962603 116.72449 
L 538.991178 122.59551 
L 539.476479 123.143108 
L 539.693543 123.153122 
L 539.913928 122.874057 
L 540.223477 122.570035 
L 540.344884 122.760338 
L 540.51746 123.543751 
L 540.777639 125.954791 
L 541.290809 130.638098 
L 541.353724 130.654539 
L 541.395559 130.598541 
L 541.598277 129.976021 
L 541.829689 129.605582 
L 541.959659 129.768067 
L 542.199559 130.11013 
L 542.23718 130.07152 
L 542.352117 129.675611 
L 542.577588 127.855318 
L 542.948693 125.349466 
L 543.013908 125.315171 
L 543.059675 125.380338 
L 543.189186 125.946253 
L 543.49291 128.611651 
L 543.745683 129.850352 
L 543.843138 129.777512 
L 544.071015 129.449668 
L 544.119026 129.514913 
L 544.23515 130.042504 
L 544.422725 132.167338 
L 544.863304 138.11423 
L 544.911671 138.008872 
L 545.053903 136.949285 
L 545.333256 135.39917 
L 545.40839 135.511936 
L 545.655432 136.310573 
L 545.729382 136.093219 
L 545.861818 134.688421 
L 546.393276 128.271867 
L 546.401439 128.273875 
L 546.468654 128.431664 
L 546.6105 129.506077 
L 547.089423 133.711296 
L 547.117014 133.697081 
L 547.340294 133.461747 
L 547.396703 133.585044 
L 547.52836 134.41668 
L 547.789135 137.906743 
L 548.06164 140.290538 
L 548.102951 140.28287 
L 548.138562 140.212692 
L 548.297111 139.460266 
L 548.605047 136.894029 
L 549.182339 131.595313 
L 549.184118 131.595501 
L 549.260446 131.720188 
L 549.424552 132.579496 
L 550.07821 137.740631 
L 550.477542 143.104556 
L 550.527534 142.992067 
L 550.673469 141.865291 
L 551.206723 135.815924 
L 551.541925 131.94977 
L 551.575142 131.932809 
L 551.619347 132.028565 
L 551.740417 132.893449 
L 552.073144 135.533746 
L 552.110121 135.496917 
L 552.306199 135.085022 
L 552.371645 135.247841 
L 552.497377 136.336625 
L 552.855128 140.473621 
L 552.923264 140.307911 
L 553.289618 139.1923 
L 553.373674 139.01259 
L 553.494795 138.023205 
L 553.925777 133.520006 
L 553.972167 133.586492 
L 554.091169 134.236096 
L 554.755776 138.825604 
L 554.755776 138.825604 
" clip-path="url(#p61451e8f6c)" style="fill: none; stroke: #7bdff2; stroke-width: 1.5; stroke-linecap: square"/>
   </g>
   <g id="line2d_125">
    <path d="M -1 58.713248 
L 435.408052 58.822445 
L 447.263757 59.063069 
L 454.693848 59.424744 
L 460.546553 59.928673 
L 465.748339 60.599713 
L 476.445505 62.096063 
L 478.525535 62.068299 
L 480.358736 61.822406 
L 482.088582 61.366032 
L 483.906438 60.649402 
L 486.021234 59.56205 
L 494.203474 55.077451 
L 497.004475 54.017457 
L 502.062967 52.372116 
L 503.788849 52.036452 
L 505.192944 51.987263 
L 506.59351 52.166164 
L 508.32199 52.629304 
L 513.149756 54.033746 
L 517.381711 55.052222 
L 519.535794 55.990086 
L 521.045362 56.839503 
L 522.16884 57.737921 
L 523.360903 58.989628 
L 524.618661 60.639789 
L 525.909739 62.710229 
L 527.202547 65.214295 
L 529.409118 70.111242 
L 532.823435 78.2479 
L 534.14323 81.879509 
L 537.051278 90.117889 
L 537.925439 92.851726 
L 539.645191 98.453645 
L 540.612704 101.097405 
L 541.549083 103.636533 
L 542.332174 105.657477 
L 542.939014 108.162302 
L 543.466987 109.902407 
L 544.770645 113.278533 
L 545.56208 115.074673 
L 545.90368 116.271637 
L 546.434056 119.191372 
L 547.071666 122.182237 
L 547.406413 122.911772 
L 547.726166 123.08718 
L 548.020243 123.336407 
L 548.295253 123.907527 
L 548.581243 125.083003 
L 549.309994 128.400259 
L 549.580364 128.972174 
L 549.854057 130.335722 
L 550.298226 132.275169 
L 550.841316 133.403106 
L 551.182567 133.97043 
L 551.745119 135.273789 
L 551.932324 135.405454 
L 552.105503 135.942761 
L 552.680784 137.92334 
L 552.89959 138.031715 
L 553.228532 137.831422 
L 553.273637 137.946813 
L 553.417015 138.813674 
L 553.793052 141.781633 
L 553.856699 141.666688 
L 554.755776 139.029629 
L 554.755776 139.029629 
" clip-path="url(#p61451e8f6c)" style="fill: none; stroke: #0496ff; stroke-width: 1.5; stroke-linecap: square"/>
   </g>
   <g id="patch_6">
    <path d="M 335.427067 167.229315 
L 335.427067 25.44 
" style="fill: none; stroke: #000000; stroke-width: 0.8; stroke-linejoin: miter; stroke-linecap: square"/>
   </g>
   <g id="patch_7">
    <path d="M 341.34917 171.390625 
L 560.584934 171.390625 
" style="fill: none; stroke: #000000; stroke-width: 0.8; stroke-linejoin: miter; stroke-linecap: square"/>
   </g>
   <g id="text_27">
    <!-- Mean Cluster Waveform PSDs -->
    <g transform="translate(368.853221 19.44) scale(0.12 -0.12)">
     <defs>
      <path id="ArialMT-53" d="M 288 1472 
L 859 1522 
Q 900 1178 1048 958 
Q 1197 738 1509 602 
Q 1822 466 2213 466 
Q 2559 466 2825 569 
Q 3091 672 3220 851 
Q 3350 1031 3350 1244 
Q 3350 1459 3225 1620 
Q 3100 1781 2813 1891 
Q 2628 1963 1997 2114 
Q 1366 2266 1113 2400 
Q 784 2572 623 2826 
Q 463 3081 463 3397 
Q 463 3744 659 4045 
Q 856 4347 1234 4503 
Q 1613 4659 2075 4659 
Q 2584 4659 2973 4495 
Q 3363 4331 3572 4012 
Q 3781 3694 3797 3291 
L 3216 3247 
Q 3169 3681 2898 3903 
Q 2628 4125 2100 4125 
Q 1550 4125 1298 3923 
Q 1047 3722 1047 3438 
Q 1047 3191 1225 3031 
Q 1400 2872 2139 2705 
Q 2878 2538 3153 2413 
Q 3553 2228 3743 1945 
Q 3934 1663 3934 1294 
Q 3934 928 3725 604 
Q 3516 281 3123 101 
Q 2731 -78 2241 -78 
Q 1619 -78 1198 103 
Q 778 284 539 648 
Q 300 1013 288 1472 
z
" transform="scale(0.015625)"/>
      <path id="ArialMT-44" d="M 494 0 
L 494 4581 
L 2072 4581 
Q 2606 4581 2888 4516 
Q 3281 4425 3559 4188 
Q 3922 3881 4101 3404 
Q 4281 2928 4281 2316 
Q 4281 1794 4159 1391 
Q 4038 988 3847 723 
Q 3656 459 3429 307 
Q 3203 156 2883 78 
Q 2563 0 2147 0 
L 494 0 
z
M 1100 541 
L 2078 541 
Q 2531 541 2789 625 
Q 3047 709 3200 863 
Q 3416 1078 3536 1442 
Q 3656 1806 3656 2325 
Q 3656 3044 3420 3430 
Q 3184 3816 2847 3947 
Q 2603 4041 2063 4041 
L 1100 4041 
L 1100 541 
z
" transform="scale(0.015625)"/>
     </defs>
     <use xlink:href="#ArialMT-4d"/>
     <use xlink:href="#ArialMT-65" x="83.300781"/>
     <use xlink:href="#ArialMT-61" x="138.916016"/>
     <use xlink:href="#ArialMT-6e" x="194.53125"/>
     <use xlink:href="#ArialMT-20" x="250.146484"/>
     <use xlink:href="#ArialMT-43" x="277.929688"/>
     <use xlink:href="#ArialMT-6c" x="350.146484"/>
     <use xlink:href="#ArialMT-75" x="372.363281"/>
     <use xlink:href="#ArialMT-73" x="427.978516"/>
     <use xlink:href="#ArialMT-74" x="477.978516"/>
     <use xlink:href="#ArialMT-65" x="505.761719"/>
     <use xlink:href="#ArialMT-72" x="561.376953"/>
     <use xlink:href="#ArialMT-20" x="594.677734"/>
     <use xlink:href="#ArialMT-57" x="622.460938"/>
     <use xlink:href="#ArialMT-61" x="713.095703"/>
     <use xlink:href="#ArialMT-76" x="768.710938"/>
     <use xlink:href="#ArialMT-65" x="818.710938"/>
     <use xlink:href="#ArialMT-66" x="874.326172"/>
     <use xlink:href="#ArialMT-6f" x="902.109375"/>
     <use xlink:href="#ArialMT-72" x="957.724609"/>
     <use xlink:href="#ArialMT-6d" x="991.025391"/>
     <use xlink:href="#ArialMT-20" x="1074.326172"/>
     <use xlink:href="#ArialMT-50" x="1102.109375"/>
     <use xlink:href="#ArialMT-53" x="1168.808594"/>
     <use xlink:href="#ArialMT-44" x="1235.507812"/>
     <use xlink:href="#ArialMT-73" x="1307.724609"/>
    </g>
   </g>
   <g id="legend_1">
    <g id="patch_8">
     <path d="M 340.285067 167.920625 
L 390.261742 167.920625 
Q 391.649742 167.920625 391.649742 166.532625 
L 391.649742 98.508697 
Q 391.649742 97.120697 390.261742 97.120697 
L 340.285067 97.120697 
Q 338.897067 97.120697 338.897067 98.508697 
L 338.897067 166.532625 
Q 338.897067 167.920625 340.285067 167.920625 
z
" style="fill: #ffffff; opacity: 0.8; stroke: #cccccc; stroke-linejoin: miter"/>
    </g>
    <g id="line2d_126">
     <path d="M 341.673067 102.435219 
L 348.613067 102.435219 
L 355.553067 102.435219 
" style="fill: none; stroke: #5e60ce; stroke-width: 1.5; stroke-linecap: square"/>
    </g>
    <g id="text_28">
     <!-- Cluster 1 -->
     <g transform="translate(361.105067 104.864219) scale(0.0694 -0.0694)">
      <use xlink:href="#ArialMT-43"/>
      <use xlink:href="#ArialMT-6c" x="72.216797"/>
      <use xlink:href="#ArialMT-75" x="94.433594"/>
      <use xlink:href="#ArialMT-73" x="150.048828"/>
      <use xlink:href="#ArialMT-74" x="200.048828"/>
      <use xlink:href="#ArialMT-65" x="227.832031"/>
      <use xlink:href="#ArialMT-72" x="283.447266"/>
      <use xlink:href="#ArialMT-20" x="316.748047"/>
      <use xlink:href="#ArialMT-31" x="344.53125"/>
     </g>
    </g>
    <g id="line2d_127">
     <path d="M 341.673067 112.252066 
L 348.613067 112.252066 
L 355.553067 112.252066 
" style="fill: none; stroke: #00c49a; stroke-width: 1.5; stroke-linecap: square"/>
    </g>
    <g id="text_29">
     <!-- Cluster 2 -->
     <g transform="translate(361.105067 114.681066) scale(0.0694 -0.0694)">
      <use xlink:href="#ArialMT-43"/>
      <use xlink:href="#ArialMT-6c" x="72.216797"/>
      <use xlink:href="#ArialMT-75" x="94.433594"/>
      <use xlink:href="#ArialMT-73" x="150.048828"/>
      <use xlink:href="#ArialMT-74" x="200.048828"/>
      <use xlink:href="#ArialMT-65" x="227.832031"/>
      <use xlink:href="#ArialMT-72" x="283.447266"/>
      <use xlink:href="#ArialMT-20" x="316.748047"/>
      <use xlink:href="#ArialMT-32" x="344.53125"/>
     </g>
    </g>
    <g id="line2d_128">
     <path d="M 341.673067 122.068913 
L 348.613067 122.068913 
L 355.553067 122.068913 
" style="fill: none; stroke: #ffca3a; stroke-width: 1.5; stroke-linecap: square"/>
    </g>
    <g id="text_30">
     <!-- Cluster 3 -->
     <g transform="translate(361.105067 124.497913) scale(0.0694 -0.0694)">
      <use xlink:href="#ArialMT-43"/>
      <use xlink:href="#ArialMT-6c" x="72.216797"/>
      <use xlink:href="#ArialMT-75" x="94.433594"/>
      <use xlink:href="#ArialMT-73" x="150.048828"/>
      <use xlink:href="#ArialMT-74" x="200.048828"/>
      <use xlink:href="#ArialMT-65" x="227.832031"/>
      <use xlink:href="#ArialMT-72" x="283.447266"/>
      <use xlink:href="#ArialMT-20" x="316.748047"/>
      <use xlink:href="#ArialMT-33" x="344.53125"/>
     </g>
    </g>
    <g id="line2d_129">
     <path d="M 341.673067 131.885759 
L 348.613067 131.885759 
L 355.553067 131.885759 
" style="fill: none; stroke: #d81159; stroke-width: 1.5; stroke-linecap: square"/>
    </g>
    <g id="text_31">
     <!-- Cluster 4 -->
     <g transform="translate(361.105067 134.314759) scale(0.0694 -0.0694)">
      <use xlink:href="#ArialMT-43"/>
      <use xlink:href="#ArialMT-6c" x="72.216797"/>
      <use xlink:href="#ArialMT-75" x="94.433594"/>
      <use xlink:href="#ArialMT-73" x="150.048828"/>
      <use xlink:href="#ArialMT-74" x="200.048828"/>
      <use xlink:href="#ArialMT-65" x="227.832031"/>
      <use xlink:href="#ArialMT-72" x="283.447266"/>
      <use xlink:href="#ArialMT-20" x="316.748047"/>
      <use xlink:href="#ArialMT-34" x="344.53125"/>
     </g>
    </g>
    <g id="line2d_130">
     <path d="M 341.673067 141.702606 
L 348.613067 141.702606 
L 355.553067 141.702606 
" style="fill: none; stroke: #fe7f2d; stroke-width: 1.5; stroke-linecap: square"/>
    </g>
    <g id="text_32">
     <!-- Cluster 5 -->
     <g transform="translate(361.105067 144.131606) scale(0.0694 -0.0694)">
      <use xlink:href="#ArialMT-43"/>
      <use xlink:href="#ArialMT-6c" x="72.216797"/>
      <use xlink:href="#ArialMT-75" x="94.433594"/>
      <use xlink:href="#ArialMT-73" x="150.048828"/>
      <use xlink:href="#ArialMT-74" x="200.048828"/>
      <use xlink:href="#ArialMT-65" x="227.832031"/>
      <use xlink:href="#ArialMT-72" x="283.447266"/>
      <use xlink:href="#ArialMT-20" x="316.748047"/>
      <use xlink:href="#ArialMT-35" x="344.53125"/>
     </g>
    </g>
    <g id="line2d_131">
     <path d="M 341.673067 151.519453 
L 348.613067 151.519453 
L 355.553067 151.519453 
" style="fill: none; stroke: #7bdff2; stroke-width: 1.5; stroke-linecap: square"/>
    </g>
    <g id="text_33">
     <!-- Cluster 6 -->
     <g transform="translate(361.105067 153.948453) scale(0.0694 -0.0694)">
      <defs>
       <path id="ArialMT-36" d="M 3184 3459 
L 2625 3416 
Q 2550 3747 2413 3897 
Q 2184 4138 1850 4138 
Q 1581 4138 1378 3988 
Q 1113 3794 959 3422 
Q 806 3050 800 2363 
Q 1003 2672 1297 2822 
Q 1591 2972 1913 2972 
Q 2475 2972 2870 2558 
Q 3266 2144 3266 1488 
Q 3266 1056 3080 686 
Q 2894 316 2569 119 
Q 2244 -78 1831 -78 
Q 1128 -78 684 439 
Q 241 956 241 2144 
Q 241 3472 731 4075 
Q 1159 4600 1884 4600 
Q 2425 4600 2770 4297 
Q 3116 3994 3184 3459 
z
M 888 1484 
Q 888 1194 1011 928 
Q 1134 663 1356 523 
Q 1578 384 1822 384 
Q 2178 384 2434 671 
Q 2691 959 2691 1453 
Q 2691 1928 2437 2201 
Q 2184 2475 1800 2475 
Q 1419 2475 1153 2201 
Q 888 1928 888 1484 
z
" transform="scale(0.015625)"/>
      </defs>
      <use xlink:href="#ArialMT-43"/>
      <use xlink:href="#ArialMT-6c" x="72.216797"/>
      <use xlink:href="#ArialMT-75" x="94.433594"/>
      <use xlink:href="#ArialMT-73" x="150.048828"/>
      <use xlink:href="#ArialMT-74" x="200.048828"/>
      <use xlink:href="#ArialMT-65" x="227.832031"/>
      <use xlink:href="#ArialMT-72" x="283.447266"/>
      <use xlink:href="#ArialMT-20" x="316.748047"/>
      <use xlink:href="#ArialMT-36" x="344.53125"/>
     </g>
    </g>
    <g id="line2d_132">
     <path d="M 341.673067 161.3363 
L 348.613067 161.3363 
L 355.553067 161.3363 
" style="fill: none; stroke: #0496ff; stroke-width: 1.5; stroke-linecap: square"/>
    </g>
    <g id="text_34">
     <!-- Cluster 7 -->
     <g transform="translate(361.105067 163.7653) scale(0.0694 -0.0694)">
      <use xlink:href="#ArialMT-43"/>
      <use xlink:href="#ArialMT-6c" x="72.216797"/>
      <use xlink:href="#ArialMT-75" x="94.433594"/>
      <use xlink:href="#ArialMT-73" x="150.048828"/>
      <use xlink:href="#ArialMT-74" x="200.048828"/>
      <use xlink:href="#ArialMT-65" x="227.832031"/>
      <use xlink:href="#ArialMT-72" x="283.447266"/>
      <use xlink:href="#ArialMT-20" x="316.748047"/>
      <use xlink:href="#ArialMT-37" x="344.53125"/>
     </g>
    </g>
   </g>
  </g>
 </g>
 <defs>
  <clipPath id="pedd379011f">
   <rect x="50.96" y="25.44" width="229.772933" height="145.950625"/>
  </clipPath>
  <clipPath id="p61451e8f6c">
   <rect x="335.427067" y="25.44" width="229.772933" height="145.950625"/>
  </clipPath>
 </defs>
</svg>
