<?xml version="1.0" encoding="utf-8" standalone="no"?>
<!DOCTYPE svg PUBLIC "-//W3C//DTD SVG 1.1//EN"
  "http://www.w3.org/Graphics/SVG/1.1/DTD/svg11.dtd">
<svg xmlns:xlink="http://www.w3.org/1999/xlink" width="216pt" height="129.6pt" viewBox="0 0 216 129.6" xmlns="http://www.w3.org/2000/svg" version="1.1">
 <metadata>
  <rdf:RDF xmlns:dc="http://purl.org/dc/elements/1.1/" xmlns:cc="http://creativecommons.org/ns#" xmlns:rdf="http://www.w3.org/1999/02/22-rdf-syntax-ns#">
   <cc:Work>
    <dc:type rdf:resource="http://purl.org/dc/dcmitype/StillImage"/>
    <dc:date>2025-05-21T13:30:33.098153</dc:date>
    <dc:format>image/svg+xml</dc:format>
    <dc:creator>
     <cc:Agent>
      <dc:title>Matplotlib v3.9.4, https://matplotlib.org/</dc:title>
     </cc:Agent>
    </dc:creator>
   </cc:Work>
  </rdf:RDF>
 </metadata>
 <defs>
  <style type="text/css">*{stroke-linejoin: round; stroke-linecap: butt}</style>
 </defs>
 <g id="figure_1">
  <g id="patch_1">
   <path d="M 0 129.6 
L 216 129.6 
L 216 0 
L 0 0 
z
" style="fill: #ffffff"/>
  </g>
  <g id="axes_1">
   <g id="patch_2">
    <path d="M 27 115.344 
L 194.4 115.344 
L 194.4 15.552 
L 27 15.552 
z
" style="fill: #ffffff"/>
   </g>
   <g id="matplotlib.axis_1"/>
   <g id="matplotlib.axis_2"/>
   <g id="line2d_1">
    <path d="M 34.609091 63.198641 
L 37.103875 63.064121 
L 39.598659 63.320648 
L 42.093443 63.189256 
L 44.588227 63.129817 
L 47.08301 63.372267 
L 49.577794 63.445784 
L 52.072578 63.461426 
L 54.567362 63.10479 
L 57.062146 62.979654 
L 59.55693 63.248695 
L 62.051714 63.115739 
L 64.546498 62.685586 
L 67.041282 62.508832 
L 69.536066 62.488497 
L 72.030849 61.514005 
L 74.525633 59.860652 
L 77.020417 56.719752 
L 79.515201 53.930795 
L 82.009985 64.43279 
L 84.504769 98.960798 
L 86.999553 110.808 
L 89.494337 97.742291 
L 91.989121 79.363017 
L 94.483905 63.874373 
L 96.978689 55.993966 
L 99.473472 53.847892 
L 101.968256 54.035596 
L 104.46304 54.547087 
L 106.957824 55.72336 
L 109.452608 56.54769 
L 111.947392 57.797481 
L 114.442176 58.022725 
L 116.93696 58.470084 
L 119.431744 59.16615 
L 121.926528 59.264695 
L 124.421311 59.85596 
L 126.916095 60.395606 
L 129.410879 60.542641 
L 131.905663 61.307531 
L 134.400447 61.71735 
L 136.895231 61.828408 
L 139.390015 61.682938 
L 141.884799 61.725171 
L 144.379583 62.080243 
L 146.874367 62.333642 
L 149.369151 62.646481 
L 151.863934 62.712177 
L 154.358718 62.748154 
L 156.853502 62.719998 
L 159.348286 62.860775 
L 161.84307 62.870161 
L 164.337854 62.543244 
L 166.832638 62.454085 
L 169.327422 62.565143 
L 171.822206 62.566707 
L 174.31699 62.42593 
L 176.811773 62.593298 
L 179.306557 62.865468 
L 181.801341 62.953063 
L 184.296125 62.901445 
L 186.790909 62.998425 
" clip-path="url(#p4101b8ec85)" style="fill: none; stroke: #0496ff; stroke-opacity: 0.3; stroke-width: 1.5; stroke-linecap: square"/>
   </g>
   <g id="line2d_2">
    <path d="M 34.609091 64.712599 
L 37.103875 64.8974 
L 39.598659 64.852659 
L 42.093443 65.053023 
L 44.588227 65.027734 
L 47.08301 64.605608 
L 49.577794 64.442204 
L 52.072578 64.498618 
L 54.567362 64.51418 
L 57.062146 64.977157 
L 59.55693 64.689255 
L 62.051714 65.34287 
L 64.546498 65.490711 
L 67.041282 65.560742 
L 69.536066 65.803902 
L 72.030849 65.677459 
L 74.525633 64.733997 
L 77.020417 62.277106 
L 79.515201 63.588226 
L 82.009985 73.108436 
L 84.504769 96.977045 
L 86.999553 110.808 
L 89.494337 100.2529 
L 91.989121 75.993289 
L 94.483905 54.920049 
L 96.978689 43.189999 
L 99.473472 39.291654 
L 101.968256 40.289584 
L 104.46304 42.404105 
L 106.957824 45.327864 
L 109.452608 48.453932 
L 111.947392 50.934167 
L 114.442176 53.081758 
L 116.93696 54.733302 
L 119.431744 56.968431 
L 121.926528 57.894385 
L 124.421311 59.184107 
L 126.916095 59.785199 
L 129.410879 60.695591 
L 131.905663 61.642944 
L 134.400447 62.074796 
L 136.895231 62.93072 
L 139.390015 63.20695 
L 141.884799 63.720505 
L 144.379583 64.095944 
L 146.874367 64.391627 
L 149.369151 64.267129 
L 151.863934 64.414971 
L 154.358718 64.883783 
L 156.853502 64.708708 
L 159.348286 64.957704 
L 161.84307 64.965485 
L 164.337854 64.644514 
L 166.832638 64.792355 
L 169.327422 64.998555 
L 171.822206 65.3098 
L 174.31699 64.68731 
L 176.811773 64.603663 
L 179.306557 64.922689 
L 181.801341 65.049132 
L 184.296125 64.934361 
L 186.790909 64.588101 
" clip-path="url(#p4101b8ec85)" style="fill: none; stroke: #0496ff; stroke-opacity: 0.3; stroke-width: 1.5; stroke-linecap: square"/>
   </g>
   <g id="line2d_3">
    <path d="M 34.609091 64.988248 
L 37.103875 64.602458 
L 39.598659 64.093138 
L 42.093443 64.119744 
L 44.588227 63.789067 
L 47.08301 63.294951 
L 49.577794 62.903459 
L 52.072578 62.880654 
L 54.567362 63.066897 
L 57.062146 63.234137 
L 59.55693 62.86545 
L 62.051714 63.412779 
L 64.546498 63.399475 
L 67.041282 63.616126 
L 69.536066 63.564814 
L 72.030849 64.423816 
L 74.525633 65.001551 
L 77.020417 66.685346 
L 79.515201 71.681619 
L 82.009985 82.951263 
L 84.504769 101.404593 
L 86.999553 110.808 
L 89.494337 102.983864 
L 91.989121 84.676868 
L 94.483905 65.115578 
L 96.978689 49.946219 
L 99.473472 41.282085 
L 101.968256 38.167255 
L 104.46304 38.834311 
L 106.957824 40.753762 
L 109.452608 43.975017 
L 111.947392 46.996726 
L 114.442176 50.045042 
L 116.93696 52.751277 
L 119.431744 54.38566 
L 121.926528 56.135971 
L 124.421311 57.74945 
L 126.916095 59.170983 
L 129.410879 59.762022 
L 131.905663 60.583015 
L 134.400447 61.151248 
L 136.895231 62.272511 
L 139.390015 62.223099 
L 141.884799 62.835043 
L 144.379583 63.0764 
L 146.874367 63.473593 
L 149.369151 64.110242 
L 151.863934 64.473227 
L 154.358718 64.233771 
L 156.853502 64.243273 
L 159.348286 64.364902 
L 161.84307 64.847615 
L 164.337854 65.012954 
L 166.832638 65.109877 
L 169.327422 65.248609 
L 171.822206 65.052863 
L 174.31699 65.214401 
L 176.811773 65.223904 
L 179.306557 65.16499 
L 181.801341 65.275216 
L 184.296125 65.558382 
L 186.790909 65.562183 
" clip-path="url(#p4101b8ec85)" style="fill: none; stroke: #0496ff; stroke-opacity: 0.3; stroke-width: 1.5; stroke-linecap: square"/>
   </g>
   <g id="line2d_4">
    <path d="M 34.609091 63.134221 
L 37.103875 63.494171 
L 39.598659 63.722482 
L 42.093443 63.374873 
L 44.588227 63.241178 
L 47.08301 63.224723 
L 49.577794 62.576814 
L 52.072578 62.02352 
L 54.567362 61.599808 
L 57.062146 60.464424 
L 59.55693 60.258739 
L 62.051714 59.717786 
L 64.546498 59.271448 
L 67.041282 59.111014 
L 69.536066 60.180578 
L 72.030849 61.348872 
L 74.525633 63.360475 
L 77.020417 65.655925 
L 79.515201 68.619853 
L 82.009985 75.91963 
L 84.504769 95.433011 
L 86.999553 110.808 
L 89.494337 96.492291 
L 91.989121 78.266502 
L 94.483905 64.650123 
L 96.978689 55.700748 
L 99.473472 50.509247 
L 101.968256 47.761289 
L 104.46304 47.127778 
L 106.957824 47.981373 
L 109.452608 49.351238 
L 111.947392 51.241487 
L 114.442176 52.911653 
L 116.93696 54.610615 
L 119.431744 56.688039 
L 121.926528 58.584459 
L 124.421311 59.018455 
L 126.916095 60.419173 
L 129.410879 60.939557 
L 131.905663 62.060543 
L 134.400447 62.525392 
L 136.895231 62.838034 
L 139.390015 63.335793 
L 141.884799 63.562047 
L 144.379583 63.961077 
L 146.874367 64.267548 
L 149.369151 64.28606 
L 151.863934 63.940508 
L 154.358718 64.401244 
L 156.853502 64.446495 
L 159.348286 64.557565 
L 161.84307 64.395073 
L 164.337854 64.487632 
L 166.832638 64.668635 
L 169.327422 65.1232 
L 171.822206 64.434154 
L 174.31699 64.604873 
L 176.811773 64.444438 
L 179.306557 64.744739 
L 181.801341 64.734454 
L 184.296125 64.711829 
L 186.790909 64.504087 
" clip-path="url(#p4101b8ec85)" style="fill: none; stroke: #0496ff; stroke-opacity: 0.3; stroke-width: 1.5; stroke-linecap: square"/>
   </g>
   <g id="line2d_5">
    <path d="M 34.609091 61.709724 
L 37.103875 61.727373 
L 39.598659 61.538272 
L 42.093443 61.692074 
L 44.588227 61.790407 
L 47.08301 61.697117 
L 49.577794 61.639126 
L 52.072578 61.810578 
L 54.567362 61.520623 
L 57.062146 61.941688 
L 59.55693 61.563485 
L 62.051714 60.978532 
L 64.546498 60.998703 
L 67.041282 60.501997 
L 69.536066 60.24734 
L 72.030849 59.062305 
L 74.525633 58.048722 
L 77.020417 54.004474 
L 79.515201 50.605692 
L 82.009985 61.689553 
L 84.504769 99.237518 
L 86.999553 110.808 
L 89.494337 99.134143 
L 91.989121 84.379194 
L 94.483905 70.554625 
L 96.978689 59.838881 
L 99.473472 54.765922 
L 101.968256 51.689873 
L 104.46304 50.867913 
L 106.957824 51.125091 
L 109.452608 52.700935 
L 111.947392 53.684262 
L 114.442176 55.635788 
L 116.93696 56.896464 
L 119.431744 57.781458 
L 121.926528 58.938759 
L 124.421311 59.657344 
L 126.916095 60.146486 
L 129.410879 61.066779 
L 131.905663 62.350147 
L 134.400447 62.955271 
L 136.895231 63.744454 
L 139.390015 64.08988 
L 141.884799 64.205862 
L 144.379583 64.563894 
L 146.874367 65.423675 
L 149.369151 65.80692 
L 151.863934 65.133719 
L 154.358718 65.786749 
L 156.853502 65.385854 
L 159.348286 65.320299 
L 161.84307 65.09842 
L 164.337854 65.285 
L 166.832638 64.793337 
L 169.327422 64.616842 
L 171.822206 64.667269 
L 174.31699 63.933556 
L 176.811773 63.724284 
L 179.306557 63.618387 
L 181.801341 63.593173 
L 184.296125 62.904844 
L 186.790909 63.151937 
" clip-path="url(#p4101b8ec85)" style="fill: none; stroke: #0496ff; stroke-opacity: 0.3; stroke-width: 1.5; stroke-linecap: square"/>
   </g>
   <g id="line2d_6">
    <path d="M 34.609091 63.250596 
L 37.103875 63.457873 
L 39.598659 63.302196 
L 42.093443 63.319688 
L 44.588227 63.42114 
L 47.08301 63.10454 
L 49.577794 63.191998 
L 52.072578 63.198995 
L 54.567362 63.180629 
L 57.062146 63.338929 
L 59.55693 63.162262 
L 62.051714 62.968104 
L 64.546498 62.655877 
L 67.041282 61.848633 
L 69.536066 61.008155 
L 72.030849 59.997133 
L 74.525633 60.075846 
L 77.020417 61.498798 
L 79.515201 64.25812 
L 82.009985 70.329501 
L 84.504769 97.641971 
L 86.999553 110.808 
L 89.494337 99.480352 
L 91.989121 83.888219 
L 94.483905 70.768543 
L 96.978689 60.805251 
L 99.473472 53.854035 
L 101.968256 50.615441 
L 104.46304 50.084567 
L 106.957824 50.961777 
L 109.452608 52.476561 
L 111.947392 54.104167 
L 114.442176 55.562103 
L 116.93696 56.845997 
L 119.431744 57.880633 
L 121.926528 58.686127 
L 124.421311 59.043833 
L 126.916095 59.702397 
L 129.410879 60.106456 
L 131.905663 60.275251 
L 134.400447 60.588354 
L 136.895231 60.765895 
L 139.390015 61.288023 
L 141.884799 61.229426 
L 144.379583 61.37898 
L 146.874367 61.628237 
L 149.369151 61.955333 
L 151.863934 62.194969 
L 154.358718 62.326157 
L 156.853502 62.250943 
L 159.348286 62.515068 
L 161.84307 62.766075 
L 164.337854 62.685613 
L 166.832638 62.697857 
L 169.327422 62.700481 
L 171.822206 62.872774 
L 174.31699 62.87015 
L 176.811773 63.074804 
L 179.306557 62.89114 
L 181.801341 62.982972 
L 184.296125 62.984721 
L 186.790909 63.022328 
" clip-path="url(#p4101b8ec85)" style="fill: none; stroke: #0496ff; stroke-opacity: 0.3; stroke-width: 1.5; stroke-linecap: square"/>
   </g>
   <g id="line2d_7">
    <path d="M 34.609091 64.664926 
L 37.103875 64.58062 
L 39.598659 64.789069 
L 42.093443 64.772393 
L 44.588227 64.571356 
L 47.08301 64.646397 
L 49.577794 64.559312 
L 52.072578 64.543563 
L 54.567362 64.629721 
L 57.062146 64.549121 
L 59.55693 64.642691 
L 62.051714 64.676043 
L 64.546498 64.807597 
L 67.041282 64.722365 
L 69.536066 64.618604 
L 72.030849 64.053477 
L 74.525633 63.238212 
L 77.020417 61.364029 
L 79.515201 61.011056 
L 82.009985 69.827962 
L 84.504769 95.244776 
L 86.999553 110.808 
L 89.494337 98.041691 
L 91.989121 72.429399 
L 94.483905 50.401494 
L 96.978689 39.889207 
L 99.473472 38.132681 
L 101.968256 40.565506 
L 104.46304 44.480631 
L 106.957824 47.926979 
L 109.452608 51.125968 
L 111.947392 53.780211 
L 114.442176 55.788728 
L 116.93696 57.630486 
L 119.431744 58.835781 
L 121.926528 59.887288 
L 124.421311 60.91378 
L 126.916095 61.468716 
L 129.410879 62.347906 
L 131.905663 62.897283 
L 134.400447 63.887645 
L 136.895231 64.478712 
L 139.390015 64.871521 
L 141.884799 64.984547 
L 144.379583 65.135556 
L 146.874367 65.230979 
L 149.369151 65.03828 
L 151.863934 65.045692 
L 154.358718 64.772393 
L 156.853502 64.663073 
L 159.348286 64.76776 
L 161.84307 64.626016 
L 164.337854 64.52874 
L 166.832638 64.321218 
L 169.327422 64.551901 
L 171.822206 64.508358 
L 174.31699 64.485197 
L 176.811773 64.396259 
L 179.306557 64.407376 
L 181.801341 64.426831 
L 184.296125 64.477786 
L 186.790909 64.360128 
" clip-path="url(#p4101b8ec85)" style="fill: none; stroke: #0496ff; stroke-opacity: 0.3; stroke-width: 1.5; stroke-linecap: square"/>
   </g>
   <g id="line2d_8">
    <path d="M 34.609091 62.934919 
L 37.103875 62.904541 
L 39.598659 63.039342 
L 42.093443 62.836192 
L 44.588227 63.160852 
L 47.08301 63.198824 
L 49.577794 63.263376 
L 52.072578 62.857076 
L 54.567362 63.263376 
L 57.062146 63.565253 
L 59.55693 63.348813 
L 62.051714 62.629245 
L 64.546498 62.870367 
L 67.041282 61.241372 
L 69.536066 59.718698 
L 72.030849 58.397276 
L 74.525633 57.759348 
L 77.020417 58.936477 
L 79.515201 62.405211 
L 82.009985 72.847485 
L 84.504769 100.388509 
L 86.999553 110.808 
L 89.494337 101.970039 
L 91.989121 88.490012 
L 94.483905 75.883339 
L 96.978689 67.024493 
L 99.473472 61.579322 
L 101.968256 58.12198 
L 104.46304 56.320213 
L 106.957824 55.484831 
L 109.452608 55.467743 
L 111.947392 55.082329 
L 114.442176 55.177258 
L 116.93696 55.473439 
L 119.431744 55.598747 
L 121.926528 55.953784 
L 124.421311 56.64867 
L 126.916095 57.252423 
L 129.410879 57.457471 
L 131.905663 58.177039 
L 134.400447 58.792184 
L 136.895231 59.037103 
L 139.390015 59.13583 
L 141.884799 59.342777 
L 144.379583 59.849701 
L 146.874367 59.885775 
L 149.369151 60.280683 
L 151.863934 60.252204 
L 154.358718 60.485731 
L 156.853502 60.795202 
L 159.348286 61.210994 
L 161.84307 61.32491 
L 164.337854 61.345795 
L 166.832638 61.807153 
L 169.327422 62.019796 
L 171.822206 61.983723 
L 174.31699 62.65013 
L 176.811773 62.807713 
L 179.306557 62.684304 
L 181.801341 62.684304 
L 184.296125 62.809612 
L 186.790909 63.107691 
" clip-path="url(#p4101b8ec85)" style="fill: none; stroke: #0496ff; stroke-opacity: 0.3; stroke-width: 1.5; stroke-linecap: square"/>
   </g>
   <g id="line2d_9">
    <path d="M 34.609091 64.772452 
L 37.103875 64.474683 
L 39.598659 64.183759 
L 42.093443 63.769621 
L 44.588227 63.559699 
L 47.08301 63.681773 
L 49.577794 63.280184 
L 52.072578 63.095362 
L 54.567362 62.87175 
L 57.062146 63.034896 
L 59.55693 63.233408 
L 62.051714 63.450175 
L 64.546498 63.229986 
L 67.041282 63.240254 
L 69.536066 62.984697 
L 72.030849 61.250563 
L 74.525633 55.637446 
L 77.020417 53.906735 
L 79.515201 60.356115 
L 82.009985 78.185749 
L 84.504769 102.135049 
L 86.999553 110.808 
L 89.494337 101.868084 
L 91.989121 85.956265 
L 94.483905 70.97084 
L 96.978689 59.161617 
L 99.473472 50.71456 
L 101.968256 46.129373 
L 104.46304 45.299955 
L 106.957824 45.860126 
L 109.452608 47.562315 
L 111.947392 49.346647 
L 114.442176 51.275871 
L 116.93696 53.376227 
L 119.431744 54.910707 
L 121.926528 56.440624 
L 124.421311 57.768605 
L 126.916095 59.170744 
L 129.410879 60.150757 
L 131.905663 60.874074 
L 134.400447 61.821002 
L 136.895231 62.239704 
L 139.390015 62.733704 
L 141.884799 63.344073 
L 144.379583 63.318974 
L 146.874367 63.410244 
L 149.369151 63.644124 
L 151.863934 63.601912 
L 154.358718 63.914512 
L 156.853502 63.952161 
L 159.348286 64.257916 
L 161.84307 64.172351 
L 164.337854 63.929344 
L 166.832638 63.802706 
L 169.327422 63.628152 
L 171.822206 63.878004 
L 174.31699 64.316101 
L 176.811773 64.217986 
L 179.306557 64.300129 
L 181.801341 64.3412 
L 184.296125 64.534009 
L 186.790909 64.492937 
" clip-path="url(#p4101b8ec85)" style="fill: none; stroke: #0496ff; stroke-opacity: 0.3; stroke-width: 1.5; stroke-linecap: square"/>
   </g>
   <g id="line2d_10">
    <path d="M 34.609091 64.033196 
L 37.103875 63.912088 
L 39.598659 63.843966 
L 42.093443 64.062526 
L 44.588227 64.36624 
L 47.08301 64.413548 
L 49.577794 64.392732 
L 52.072578 64.568716 
L 54.567362 64.538439 
L 57.062146 64.586693 
L 59.55693 64.569662 
L 62.051714 64.414494 
L 64.546498 64.038872 
L 67.041282 64.158087 
L 69.536066 64.300956 
L 72.030849 64.434363 
L 74.525633 64.236618 
L 77.020417 63.248837 
L 79.515201 63.442798 
L 82.009985 70.400783 
L 84.504769 94.10278 
L 86.999553 110.808 
L 89.494337 99.224289 
L 91.989121 72.388644 
L 94.483905 51.117305 
L 96.978689 41.013372 
L 99.473472 40.24226 
L 101.968256 42.772265 
L 104.46304 46.290996 
L 106.957824 49.421805 
L 109.452608 52.183616 
L 111.947392 54.345568 
L 114.442176 56.211376 
L 116.93696 57.551124 
L 119.431744 58.901279 
L 121.926528 59.838914 
L 124.421311 60.578803 
L 126.916095 61.180554 
L 129.410879 61.775682 
L 131.905663 62.200503 
L 134.400447 62.811716 
L 136.895231 62.867539 
L 139.390015 63.159899 
L 141.884799 63.669874 
L 144.379583 64.234725 
L 146.874367 64.605616 
L 149.369151 64.522355 
L 151.863934 64.620755 
L 154.358718 64.863915 
L 156.853502 64.710639 
L 159.348286 64.596155 
L 161.84307 64.635893 
L 164.337854 64.569662 
L 166.832638 64.347317 
L 169.327422 64.318933 
L 171.822206 64.141057 
L 174.31699 64.089965 
L 176.811773 64.146733 
L 179.306557 64.246079 
L 181.801341 64.141057 
L 184.296125 64.204449 
L 186.790909 64.21391 
" clip-path="url(#p4101b8ec85)" style="fill: none; stroke: #0496ff; stroke-opacity: 0.3; stroke-width: 1.5; stroke-linecap: square"/>
   </g>
   <g id="line2d_11">
    <path d="M 34.609091 61.622234 
L 37.103875 62.066875 
L 39.598659 62.347949 
L 42.093443 62.644255 
L 44.588227 62.774093 
L 47.08301 62.916987 
L 49.577794 63.129878 
L 52.072578 63.251737 
L 54.567362 63.409502 
L 57.062146 63.490016 
L 59.55693 63.646692 
L 62.051714 63.64234 
L 64.546498 63.575245 
L 67.041282 63.470794 
L 69.536066 63.525921 
L 72.030849 64.888132 
L 74.525633 68.798505 
L 77.020417 74.660076 
L 79.515201 81.021777 
L 82.009985 88.602432 
L 84.504769 100.075327 
L 86.999553 110.808 
L 89.494337 105.493708 
L 91.989121 87.885784 
L 94.483905 68.038336 
L 96.978689 53.035515 
L 99.473472 44.556874 
L 101.968256 40.332423 
L 104.46304 38.763486 
L 106.957824 38.982905 
L 109.452608 40.529719 
L 111.947392 42.949494 
L 114.442176 45.565839 
L 116.93696 48.100582 
L 119.431744 50.399223 
L 121.926528 52.419329 
L 124.421311 54.177945 
L 126.916095 55.72911 
L 129.410879 57.044174 
L 131.905663 58.158677 
L 134.400447 59.144068 
L 136.895231 60.019568 
L 139.390015 60.672748 
L 141.884799 61.155832 
L 144.379583 61.528301 
L 146.874367 61.838751 
L 149.369151 62.162984 
L 151.863934 62.401625 
L 154.358718 62.561202 
L 156.853502 62.89559 
L 159.348286 63.179928 
L 161.84307 63.234329 
L 164.337854 63.310854 
L 166.832638 63.564364 
L 169.327422 63.993773 
L 171.822206 64.650579 
L 174.31699 65.671875 
L 176.811773 67.168276 
L 179.306557 69.087558 
L 181.801341 71.178386 
L 184.296125 73.167664 
L 186.790909 74.710851 
" clip-path="url(#p4101b8ec85)" style="fill: none; stroke: #0496ff; stroke-opacity: 0.3; stroke-width: 1.5; stroke-linecap: square"/>
   </g>
   <g id="line2d_12">
    <path d="M 34.609091 65.430208 
L 37.103875 64.768379 
L 39.598659 64.380837 
L 42.093443 64.479934 
L 44.588227 64.313592 
L 47.08301 64.911716 
L 49.577794 64.575493 
L 52.072578 64.832084 
L 54.567362 65.33465 
L 57.062146 65.396586 
L 59.55693 65.660256 
L 62.051714 65.722192 
L 64.546498 65.877917 
L 67.041282 65.792976 
L 69.536066 66.145126 
L 72.030849 66.21414 
L 74.525633 66.525589 
L 77.020417 67.251124 
L 79.515201 70.324915 
L 82.009985 80.293059 
L 84.504769 100.846935 
L 86.999553 110.808 
L 89.494337 101.898076 
L 91.989121 81.706967 
L 94.483905 61.324742 
L 96.978689 49.133984 
L 99.473472 44.014538 
L 101.968256 43.002328 
L 104.46304 43.964989 
L 106.957824 45.469147 
L 109.452608 47.398009 
L 111.947392 49.443664 
L 114.442176 51.503475 
L 116.93696 52.887301 
L 119.431744 54.446316 
L 121.926528 56.023028 
L 124.421311 56.84766 
L 126.916095 58.045678 
L 129.410879 58.60841 
L 131.905663 59.801118 
L 134.400447 60.475335 
L 136.895231 61.167248 
L 139.390015 62.322795 
L 141.884799 62.135218 
L 144.379583 62.593543 
L 146.874367 62.321025 
L 149.369151 62.427201 
L 151.863934 62.209541 
L 154.358718 62.448436 
L 156.853502 62.883757 
L 159.348286 62.73865 
L 161.84307 62.604161 
L 164.337854 62.800586 
L 166.832638 63.078413 
L 169.327422 63.253603 
L 171.822206 63.274839 
L 174.31699 63.329696 
L 176.811773 63.57744 
L 179.306557 63.747321 
L 181.801341 63.580979 
L 184.296125 62.751038 
L 186.790909 62.705028 
" clip-path="url(#p4101b8ec85)" style="fill: none; stroke: #0496ff; stroke-opacity: 0.3; stroke-width: 1.5; stroke-linecap: square"/>
   </g>
   <g id="line2d_13">
    <path d="M 34.609091 65.361365 
L 37.103875 64.987654 
L 39.598659 65.392865 
L 42.093443 65.51314 
L 44.588227 65.253977 
L 47.08301 65.056383 
L 49.577794 65.367092 
L 52.072578 65.289773 
L 54.567362 65.712166 
L 57.062146 65.73078 
L 59.55693 66.041489 
L 62.051714 66.237652 
L 64.546498 66.332153 
L 67.041282 66.461019 
L 69.536066 66.790342 
L 72.030849 66.538338 
L 74.525633 67.400306 
L 77.020417 73.315242 
L 79.515201 88.210684 
L 82.009985 100.680588 
L 84.504769 109.327476 
L 86.999553 110.808 
L 89.494337 102.768212 
L 91.989121 87.113894 
L 94.483905 67.176939 
L 96.978689 47.766902 
L 99.473472 37.267211 
L 101.968256 35.066472 
L 104.46304 36.422425 
L 106.957824 39.140059 
L 109.452608 41.700191 
L 111.947392 45.143769 
L 114.442176 47.948746 
L 116.93696 50.669244 
L 119.431744 52.617979 
L 121.926528 54.486532 
L 124.421311 56.130285 
L 126.916095 57.371692 
L 129.410879 58.640303 
L 131.905663 59.286063 
L 134.400447 59.526612 
L 136.895231 59.871686 
L 139.390015 60.28692 
L 141.884799 60.689267 
L 144.379583 60.405763 
L 146.874367 60.042075 
L 149.369151 60.448718 
L 151.863934 60.886861 
L 154.358718 61.266299 
L 156.853502 61.429529 
L 159.348286 62.288634 
L 161.84307 62.029471 
L 164.337854 62.118245 
L 166.832638 61.843331 
L 169.327422 62.307248 
L 171.822206 62.509137 
L 174.31699 62.945849 
L 176.811773 63.217899 
L 179.306557 62.93869 
L 181.801341 62.434682 
L 184.296125 62.749687 
L 186.790909 63.068987 
" clip-path="url(#p4101b8ec85)" style="fill: none; stroke: #0496ff; stroke-opacity: 0.3; stroke-width: 1.5; stroke-linecap: square"/>
   </g>
   <g id="line2d_14">
    <path d="M 34.609091 64.421153 
L 37.103875 64.640877 
L 39.598659 64.572271 
L 42.093443 64.496248 
L 44.588227 64.427642 
L 47.08301 64.563927 
L 49.577794 64.625116 
L 52.072578 64.85133 
L 54.567362 64.879143 
L 57.062146 64.884706 
L 59.55693 64.903248 
L 62.051714 64.845767 
L 64.546498 64.854111 
L 67.041282 64.665909 
L 69.536066 65.050658 
L 72.030849 65.021918 
L 74.525633 65.290778 
L 77.020417 65.708904 
L 79.515201 66.946591 
L 82.009985 76.983446 
L 84.504769 99.933041 
L 86.999553 110.808 
L 89.494337 101.314429 
L 91.989121 83.956214 
L 94.483905 66.751898 
L 96.978689 52.929667 
L 99.473472 45.03721 
L 101.968256 43.225643 
L 104.46304 43.993288 
L 106.957824 45.31256 
L 109.452608 47.130616 
L 111.947392 49.226804 
L 114.442176 50.900231 
L 116.93696 52.819342 
L 119.431744 54.762557 
L 121.926528 56.155071 
L 124.421311 57.517917 
L 126.916095 58.482108 
L 129.410879 59.155188 
L 131.905663 59.936738 
L 134.400447 60.574588 
L 136.895231 61.12158 
L 139.390015 61.367264 
L 141.884799 61.922601 
L 144.379583 62.129345 
L 146.874367 62.235035 
L 149.369151 62.61793 
L 151.863934 62.715277 
L 154.358718 63.00268 
L 156.853502 63.077775 
L 159.348286 63.125985 
L 161.84307 63.34849 
L 164.337854 63.484775 
L 166.832638 63.445837 
L 169.327422 63.476431 
L 171.822206 63.412461 
L 174.31699 63.514442 
L 176.811773 63.762907 
L 179.306557 63.886212 
L 181.801341 63.954818 
L 184.296125 63.762907 
L 186.790909 63.90939 
" clip-path="url(#p4101b8ec85)" style="fill: none; stroke: #0496ff; stroke-opacity: 0.3; stroke-width: 1.5; stroke-linecap: square"/>
   </g>
   <g id="line2d_15">
    <path d="M 34.609091 64.458329 
L 37.103875 64.490782 
L 39.598659 64.527052 
L 42.093443 64.563322 
L 44.588227 64.905027 
L 47.08301 64.985204 
L 49.577794 65.1761 
L 52.072578 65.181827 
L 54.567362 65.057744 
L 57.062146 65.384177 
L 59.55693 65.086379 
L 62.051714 64.725584 
L 64.546498 64.280795 
L 67.041282 64.737038 
L 69.536066 64.618682 
L 72.030849 64.576685 
L 74.525633 63.627929 
L 77.020417 62.971245 
L 79.515201 67.946008 
L 82.009985 81.348852 
L 84.504769 102.439097 
L 86.999553 110.808 
L 89.494337 101.868317 
L 91.989121 84.202754 
L 94.483905 66.531465 
L 96.978689 54.062106 
L 99.473472 47.130654 
L 101.968256 44.2233 
L 104.46304 43.969408 
L 106.957824 45.044155 
L 109.452608 46.647686 
L 111.947392 48.092772 
L 114.442176 49.933014 
L 116.93696 52.057692 
L 119.431744 54.016291 
L 121.926528 55.379292 
L 124.421311 56.694568 
L 126.916095 57.482971 
L 129.410879 58.57299 
L 131.905663 59.806181 
L 134.400447 60.489591 
L 136.895231 60.91529 
L 139.390015 61.050827 
L 141.884799 61.575792 
L 144.379583 62.230567 
L 146.874367 62.425281 
L 149.369151 62.360377 
L 151.863934 62.524548 
L 154.358718 62.459643 
L 156.853502 62.856708 
L 159.348286 62.942611 
L 161.84307 63.557298 
L 164.337854 63.320586 
L 166.832638 63.42367 
L 169.327422 64.053629 
L 171.822206 63.918092 
L 174.31699 63.763466 
L 176.811773 63.727196 
L 179.306557 63.975361 
L 181.801341 63.543935 
L 184.296125 63.622203 
L 186.790909 63.482848 
" clip-path="url(#p4101b8ec85)" style="fill: none; stroke: #0496ff; stroke-opacity: 0.3; stroke-width: 1.5; stroke-linecap: square"/>
   </g>
   <g id="line2d_16">
    <path d="M 34.609091 63.70845 
L 37.103875 63.479977 
L 39.598659 63.524621 
L 42.093443 63.69138 
L 44.588227 63.415637 
L 47.08301 63.503612 
L 49.577794 63.624414 
L 52.072578 63.512804 
L 54.567362 63.508864 
L 57.062146 63.392002 
L 59.55693 63.250191 
L 62.051714 62.482049 
L 64.546498 60.503264 
L 67.041282 57.256061 
L 69.536066 53.790889 
L 72.030849 48.29047 
L 74.525633 44.088671 
L 77.020417 33.07339 
L 79.515201 37.59689 
L 82.009985 72.10811 
L 84.504769 103.503434 
L 86.999553 110.808 
L 89.494337 99.53142 
L 91.989121 83.743157 
L 94.483905 71.824489 
L 96.978689 65.158071 
L 99.473472 61.866223 
L 101.968256 60.076519 
L 104.46304 59.481702 
L 106.957824 59.018191 
L 109.452608 59.234846 
L 111.947392 59.624826 
L 114.442176 59.514528 
L 116.93696 59.900569 
L 119.431744 60.261661 
L 121.926528 60.66871 
L 124.421311 60.755372 
L 126.916095 60.809208 
L 129.410879 61.232014 
L 131.905663 61.308172 
L 134.400447 61.805822 
L 136.895231 62.0448 
L 139.390015 62.531946 
L 141.884799 62.526694 
L 144.379583 62.706583 
L 146.874367 62.736784 
L 149.369151 62.482049 
L 151.863934 63.09525 
L 154.358718 63.162216 
L 156.853502 63.019092 
L 159.348286 63.275139 
L 161.84307 63.521995 
L 164.337854 63.269887 
L 166.832638 63.118885 
L 169.327422 63.510177 
L 171.822206 63.658553 
L 174.31699 63.821373 
L 176.811773 63.753094 
L 179.306557 63.607344 
L 181.801341 63.154337 
L 184.296125 63.521995 
L 186.790909 63.384123 
" clip-path="url(#p4101b8ec85)" style="fill: none; stroke: #0496ff; stroke-opacity: 0.3; stroke-width: 1.5; stroke-linecap: square"/>
   </g>
   <g id="line2d_17">
    <path d="M 34.609091 63.30725 
L 37.103875 63.645 
L 39.598659 63.611828 
L 42.093443 63.32082 
L 44.588227 63.461047 
L 47.08301 63.533422 
L 49.577794 63.27257 
L 52.072578 63.335898 
L 54.567362 62.986085 
L 57.062146 63.102186 
L 59.55693 63.343437 
L 62.051714 63.388672 
L 64.546498 63.744516 
L 67.041282 63.848556 
L 69.536066 63.709837 
L 72.030849 63.519852 
L 74.525633 62.257809 
L 77.020417 58.522947 
L 79.515201 55.754596 
L 82.009985 57.847445 
L 84.504769 90.116231 
L 86.999553 110.808 
L 89.494337 92.536277 
L 91.989121 72.9618 
L 94.483905 57.868555 
L 96.978689 47.749596 
L 99.473472 44.283126 
L 101.968256 46.725789 
L 104.46304 50.664206 
L 106.957824 54.387006 
L 109.452608 57.895695 
L 111.947392 59.794037 
L 114.442176 60.942993 
L 116.93696 61.960769 
L 119.431744 62.366372 
L 121.926528 62.306059 
L 124.421311 63.011717 
L 126.916095 62.839826 
L 129.410879 63.269554 
L 131.905663 63.581672 
L 134.400447 63.590719 
L 136.895231 63.515328 
L 139.390015 63.703805 
L 141.884799 63.566594 
L 144.379583 63.160991 
L 146.874367 63.171546 
L 149.369151 63.51382 
L 151.863934 63.396211 
L 154.358718 63.361531 
L 156.853502 63.738485 
L 159.348286 63.480648 
L 161.84307 63.720391 
L 164.337854 63.200195 
L 166.832638 63.66611 
L 169.327422 63.957119 
L 171.822206 63.904345 
L 174.31699 63.402242 
L 176.811773 63.71436 
L 179.306557 63.317804 
L 181.801341 63.43843 
L 184.296125 63.516836 
L 186.790909 64.210432 
" clip-path="url(#p4101b8ec85)" style="fill: none; stroke: #0496ff; stroke-opacity: 0.3; stroke-width: 1.5; stroke-linecap: square"/>
   </g>
   <g id="line2d_18">
    <path d="M 34.609091 63.312772 
L 37.103875 63.190799 
L 39.598659 62.86377 
L 42.093443 62.248602 
L 44.588227 60.030107 
L 47.08301 52.570309 
L 49.577794 42.110682 
L 52.072578 37.382018 
L 54.567362 42.398821 
L 57.062146 52.119539 
L 59.55693 61.071297 
L 62.051714 67.507583 
L 64.546498 71.617543 
L 67.041282 73.037026 
L 69.536066 69.225811 
L 72.030849 62.041778 
L 74.525633 52.570309 
L 77.020417 46.904751 
L 79.515201 51.803117 
L 82.009985 74.54136 
L 84.504769 101.15092 
L 86.999553 110.808 
L 89.494337 103.383556 
L 91.989121 88.094505 
L 94.483905 73.623911 
L 96.978689 62.600379 
L 99.473472 57.067401 
L 101.968256 56.072172 
L 104.46304 56.162326 
L 106.957824 57.306044 
L 109.452608 58.331324 
L 111.947392 59.238167 
L 114.442176 59.745504 
L 116.93696 60.608153 
L 119.431744 61.129632 
L 121.926528 60.97584 
L 124.421311 61.142006 
L 126.916095 60.961698 
L 129.410879 61.324082 
L 131.905663 61.347062 
L 134.400447 62.036475 
L 136.895231 62.266279 
L 139.390015 62.409465 
L 141.884799 62.536741 
L 144.379583 62.72412 
L 146.874367 62.444819 
L 149.369151 62.890286 
L 151.863934 63.388784 
L 154.358718 63.305701 
L 156.853502 63.484242 
L 159.348286 63.562021 
L 161.84307 63.63273 
L 164.337854 63.468332 
L 166.832638 63.607982 
L 169.327422 63.728188 
L 171.822206 63.816574 
L 174.31699 63.577931 
L 176.811773 64.118855 
L 179.306557 64.072894 
L 181.801341 63.993346 
L 184.296125 64.376942 
L 186.790909 64.76761 
" clip-path="url(#p4101b8ec85)" style="fill: none; stroke: #0496ff; stroke-opacity: 0.3; stroke-width: 1.5; stroke-linecap: square"/>
   </g>
   <g id="line2d_19">
    <path d="M 34.609091 63.467585 
L 37.103875 63.598205 
L 39.598659 63.580322 
L 42.093443 63.574102 
L 44.588227 63.722605 
L 47.08301 63.647187 
L 49.577794 63.729602 
L 52.072578 63.93875 
L 54.567362 63.787137 
L 57.062146 63.729602 
L 59.55693 63.88588 
L 62.051714 63.595872 
L 64.546498 62.962987 
L 67.041282 60.574507 
L 69.536066 56.147423 
L 72.030849 48.816376 
L 74.525633 41.251302 
L 77.020417 42.451762 
L 79.515201 52.607466 
L 82.009985 73.559534 
L 84.504769 99.320439 
L 86.999553 110.808 
L 89.494337 104.432501 
L 91.989121 88.65314 
L 94.483905 71.285346 
L 96.978689 59.017953 
L 99.473472 53.653203 
L 101.968256 52.834496 
L 104.46304 53.922996 
L 106.957824 55.78122 
L 109.452608 57.207933 
L 111.947392 58.339973 
L 114.442176 59.181228 
L 116.93696 59.882532 
L 119.431744 60.124335 
L 121.926528 60.506087 
L 124.421311 60.976475 
L 126.916095 61.159965 
L 129.410879 61.262595 
L 131.905663 61.552602 
L 134.400447 61.69333 
L 136.895231 61.882262 
L 139.390015 61.887705 
L 141.884799 61.83328 
L 144.379583 62.140392 
L 146.874367 62.250797 
L 149.369151 62.38375 
L 151.863934 62.534585 
L 154.358718 62.659762 
L 156.853502 62.673757 
L 159.348286 62.796602 
L 161.84307 62.861135 
L 164.337854 62.973872 
L 166.832638 62.994865 
L 169.327422 63.13015 
L 171.822206 63.530562 
L 174.31699 63.536005 
L 176.811773 63.497907 
L 179.306557 63.536005 
L 181.801341 63.462142 
L 184.296125 63.359512 
L 186.790909 63.681397 
" clip-path="url(#p4101b8ec85)" style="fill: none; stroke: #0496ff; stroke-opacity: 0.3; stroke-width: 1.5; stroke-linecap: square"/>
   </g>
   <g id="line2d_20">
    <path d="M 34.609091 64.640875 
L 37.103875 64.615423 
L 39.598659 64.528816 
L 42.093443 64.476499 
L 44.588227 64.467308 
L 47.08301 64.436907 
L 49.577794 64.372217 
L 52.072578 64.364086 
L 54.567362 64.416404 
L 57.062146 64.464126 
L 59.55693 64.51609 
L 62.051714 64.634512 
L 64.546498 64.768134 
L 67.041282 64.821866 
L 69.536066 64.978818 
L 72.030849 64.997554 
L 74.525633 65.02442 
L 77.020417 64.996493 
L 79.515201 64.613656 
L 82.009985 70.192199 
L 84.504769 91.277971 
L 86.999553 110.808 
L 89.494337 98.82797 
L 91.989121 69.472478 
L 94.483905 46.802685 
L 96.978689 38.082609 
L 99.473472 38.892471 
L 101.968256 42.835736 
L 104.46304 46.938074 
L 106.957824 50.473049 
L 109.452608 53.364305 
L 111.947392 55.587097 
L 114.442176 57.317467 
L 116.93696 58.698582 
L 119.431744 59.901181 
L 121.926528 60.832293 
L 124.421311 61.490505 
L 126.916095 61.895967 
L 129.410879 62.27527 
L 131.905663 62.668359 
L 134.400447 62.940198 
L 136.895231 63.204261 
L 139.390015 63.404341 
L 141.884799 63.507915 
L 144.379583 63.675473 
L 146.874367 63.760313 
L 149.369151 63.8045 
L 151.863934 63.932819 
L 154.358718 64.004933 
L 156.853502 64.096842 
L 159.348286 64.149867 
L 161.84307 63.996802 
L 164.337854 64.140676 
L 166.832638 64.162593 
L 169.327422 64.275712 
L 171.822206 64.172844 
L 174.31699 64.165421 
L 176.811773 64.231525 
L 179.306557 64.289498 
L 181.801341 64.344997 
L 184.296125 64.348886 
L 186.790909 64.452107 
" clip-path="url(#p4101b8ec85)" style="fill: none; stroke: #0496ff; stroke-opacity: 0.3; stroke-width: 1.5; stroke-linecap: square"/>
   </g>
   <g id="line2d_21">
    <path d="M 34.609091 64.177286 
L 37.103875 64.273433 
L 39.598659 64.373452 
L 42.093443 64.543162 
L 44.588227 64.53929 
L 47.08301 64.585105 
L 49.577794 64.590913 
L 52.072578 64.750943 
L 54.567362 64.754814 
L 57.062146 64.823214 
L 59.55693 64.703837 
L 62.051714 64.921943 
L 64.546498 64.976146 
L 67.041282 64.88129 
L 69.536066 65.08778 
L 72.030849 65.293626 
L 74.525633 65.262652 
L 77.020417 65.280075 
L 79.515201 66.304784 
L 82.009985 75.759467 
L 84.504769 96.629847 
L 86.999553 110.808 
L 89.494337 101.629498 
L 91.989121 76.761591 
L 94.483905 52.909359 
L 96.978689 39.633311 
L 99.473472 37.117999 
L 101.968256 39.646217 
L 104.46304 43.521785 
L 106.957824 47.272814 
L 109.452608 50.477933 
L 111.947392 53.120366 
L 114.442176 55.309165 
L 116.93696 57.010776 
L 119.431744 58.231006 
L 121.926528 59.238937 
L 124.421311 60.163628 
L 126.916095 60.786971 
L 129.410879 61.231571 
L 131.905663 61.844589 
L 134.400447 62.413729 
L 136.895231 62.829936 
L 139.390015 63.247434 
L 141.884799 63.489415 
L 144.379583 63.638475 
L 146.874367 63.681709 
L 149.369151 63.608792 
L 151.863934 63.764305 
L 154.358718 64.053392 
L 156.853502 63.990154 
L 159.348286 63.914011 
L 161.84307 63.795924 
L 164.337854 63.703004 
L 166.832638 63.819154 
L 169.327422 63.999188 
L 171.822206 64.094045 
L 174.31699 64.053392 
L 176.811773 64.092754 
L 179.306557 64.228264 
L 181.801341 63.942403 
L 184.296125 64.110822 
L 186.790909 64.132117 
" clip-path="url(#p4101b8ec85)" style="fill: none; stroke: #0496ff; stroke-opacity: 0.3; stroke-width: 1.5; stroke-linecap: square"/>
   </g>
   <g id="line2d_22">
    <path d="M 34.609091 63.271515 
L 37.103875 63.355139 
L 39.598659 63.457647 
L 42.093443 63.430671 
L 44.588227 63.480127 
L 47.08301 63.141133 
L 49.577794 63.397401 
L 52.072578 63.691436 
L 54.567362 63.336256 
L 57.062146 63.445058 
L 59.55693 63.419881 
L 62.051714 63.320071 
L 64.546498 63.139334 
L 67.041282 62.616906 
L 69.536066 58.097586 
L 72.030849 45.87492 
L 74.525633 36.986444 
L 77.020417 20.088 
L 79.515201 26.331064 
L 82.009985 63.410889 
L 84.504769 98.461246 
L 86.999553 110.808 
L 89.494337 104.716899 
L 91.989121 87.841833 
L 94.483905 62.71222 
L 96.978689 43.009207 
L 99.473472 38.55283 
L 101.968256 47.593269 
L 104.46304 60.145037 
L 106.957824 69.343733 
L 109.452608 73.979948 
L 111.947392 74.257797 
L 114.442176 72.546642 
L 116.93696 70.25551 
L 119.431744 68.102853 
L 121.926528 66.668648 
L 124.421311 65.561747 
L 126.916095 64.657164 
L 129.410879 64.142828 
L 131.905663 63.580836 
L 134.400447 63.3992 
L 136.895231 63.160915 
L 139.390015 63.015246 
L 141.884799 63.11056 
L 144.379583 63.02244 
L 146.874367 62.921731 
L 149.369151 62.965791 
L 151.863934 62.80034 
L 154.358718 62.817425 
L 156.853502 62.848896 
L 159.348286 63.058407 
L 161.84307 63.073693 
L 164.337854 63.259825 
L 166.832638 63.309281 
L 169.327422 63.18879 
L 171.822206 63.273313 
L 174.31699 63.457647 
L 176.811773 63.549364 
L 179.306557 63.300289 
L 181.801341 63.43157 
L 184.296125 63.27691 
L 186.790909 63.359635 
" clip-path="url(#p4101b8ec85)" style="fill: none; stroke: #0496ff; stroke-opacity: 0.3; stroke-width: 1.5; stroke-linecap: square"/>
   </g>
   <g id="line2d_23">
    <path d="M 34.609091 64.931803 
L 37.103875 64.650992 
L 39.598659 65.093536 
L 42.093443 64.883816 
L 44.588227 64.212002 
L 47.08301 64.399506 
L 49.577794 64.495479 
L 52.072578 64.598562 
L 54.567362 64.531025 
L 57.062146 64.707865 
L 59.55693 65.034886 
L 62.051714 64.875818 
L 64.546498 64.866932 
L 67.041282 65.178846 
L 69.536066 65.480096 
L 72.030849 65.738691 
L 74.525633 65.933304 
L 77.020417 65.720029 
L 79.515201 68.63389 
L 82.009985 78.586692 
L 84.504769 98.426536 
L 86.999553 110.808 
L 89.494337 100.602823 
L 91.989121 77.169306 
L 94.483905 54.210325 
L 96.978689 40.712725 
L 99.473472 37.010639 
L 101.968256 39.339772 
L 104.46304 43.350218 
L 106.957824 47.378437 
L 109.452608 50.583772 
L 111.947392 53.608713 
L 114.442176 55.76545 
L 116.93696 56.697636 
L 119.431744 58.091917 
L 121.926528 59.571508 
L 124.421311 60.796058 
L 126.916095 61.368344 
L 129.410879 61.974399 
L 131.905663 62.154793 
L 134.400447 62.160125 
L 136.895231 62.510251 
L 139.390015 62.676427 
L 141.884799 62.656877 
L 144.379583 63.170512 
L 146.874367 62.914583 
L 149.369151 62.94302 
L 151.863934 63.44066 
L 154.358718 63.085203 
L 156.853502 62.971456 
L 159.348286 63.0932 
L 161.84307 63.14563 
L 164.337854 63.511751 
L 166.832638 63.457544 
L 169.327422 64.138245 
L 171.822206 63.677039 
L 174.31699 62.847046 
L 176.811773 63.076316 
L 179.306557 62.782175 
L 181.801341 62.510251 
L 184.296125 63.23094 
L 186.790909 63.6566 
" clip-path="url(#p4101b8ec85)" style="fill: none; stroke: #0496ff; stroke-opacity: 0.3; stroke-width: 1.5; stroke-linecap: square"/>
   </g>
   <g id="line2d_24">
    <path d="M 34.609091 63.891754 
L 37.103875 63.864298 
L 39.598659 63.866978 
L 42.093443 63.828493 
L 44.588227 63.698258 
L 47.08301 63.36918 
L 49.577794 62.876606 
L 52.072578 62.692163 
L 54.567362 62.887079 
L 57.062146 63.362687 
L 59.55693 63.745479 
L 62.051714 63.939384 
L 64.546498 63.954248 
L 67.041282 63.645748 
L 69.536066 62.937618 
L 72.030849 61.390076 
L 74.525633 59.868299 
L 77.020417 58.488762 
L 79.515201 61.651953 
L 82.009985 74.504662 
L 84.504769 98.827589 
L 86.999553 110.808 
L 89.494337 100.704071 
L 91.989121 81.538906 
L 94.483905 63.448545 
L 96.978689 51.541556 
L 99.473472 46.550871 
L 101.968256 46.135752 
L 104.46304 47.719891 
L 106.957824 49.803317 
L 109.452608 51.927261 
L 111.947392 53.727849 
L 114.442176 55.21246 
L 116.93696 56.516857 
L 119.431744 57.6334 
L 121.926528 58.558971 
L 124.421311 59.377604 
L 126.916095 60.012304 
L 129.410879 60.590358 
L 131.905663 61.191095 
L 134.400447 61.677163 
L 136.895231 62.06576 
L 139.390015 62.361068 
L 141.884799 62.579396 
L 144.379583 62.818348 
L 146.874367 62.930234 
L 149.369151 63.09421 
L 151.863934 63.194823 
L 154.358718 63.330645 
L 156.853502 63.384462 
L 159.348286 63.522385 
L 161.84307 63.574959 
L 164.337854 63.547612 
L 166.832638 63.577677 
L 169.327422 63.773211 
L 171.822206 63.795961 
L 174.31699 63.798435 
L 176.811773 63.94439 
L 179.306557 64.026727 
L 181.801341 64.050073 
L 184.296125 64.16599 
L 186.790909 64.32708 
" clip-path="url(#p4101b8ec85)" style="fill: none; stroke: #000000; stroke-width: 1.5; stroke-linecap: square"/>
   </g>
   <g id="patch_3">
    <path d="M 27 115.344 
L 27 15.552 
" style="fill: none; stroke: #000000; stroke-width: 0.8; stroke-linejoin: miter; stroke-linecap: square"/>
   </g>
   <g id="patch_4">
    <path d="M 27 115.344 
L 194.4 115.344 
" style="fill: none; stroke: #000000; stroke-width: 0.8; stroke-linejoin: miter; stroke-linecap: square"/>
   </g>
   <g id="text_1">
    <!-- 7 -->
    <g transform="translate(35.887879 38.822148) scale(0.12 -0.12)">
     <defs>
      <path id="ArialMT-37" d="M 303 3981 
L 303 4522 
L 3269 4522 
L 3269 4084 
Q 2831 3619 2401 2847 
Q 1972 2075 1738 1259 
Q 1569 684 1522 0 
L 944 0 
Q 953 541 1156 1306 
Q 1359 2072 1739 2783 
Q 2119 3494 2547 3981 
L 303 3981 
z
" transform="scale(0.015625)"/>
     </defs>
     <use xlink:href="#ArialMT-37"/>
    </g>
   </g>
   <g id="text_2">
    <!-- n = 23 (16.67%) -->
    <g transform="translate(134.400447 110.808) scale(0.1 -0.1)">
     <defs>
      <path id="ArialMT-6e" d="M 422 0 
L 422 3319 
L 928 3319 
L 928 2847 
Q 1294 3394 1984 3394 
Q 2284 3394 2536 3286 
Q 2788 3178 2913 3003 
Q 3038 2828 3088 2588 
Q 3119 2431 3119 2041 
L 3119 0 
L 2556 0 
L 2556 2019 
Q 2556 2363 2490 2533 
Q 2425 2703 2258 2804 
Q 2091 2906 1866 2906 
Q 1506 2906 1245 2678 
Q 984 2450 984 1813 
L 984 0 
L 422 0 
z
" transform="scale(0.015625)"/>
      <path id="ArialMT-20" transform="scale(0.015625)"/>
      <path id="ArialMT-3d" d="M 3381 2694 
L 356 2694 
L 356 3219 
L 3381 3219 
L 3381 2694 
z
M 3381 1303 
L 356 1303 
L 356 1828 
L 3381 1828 
L 3381 1303 
z
" transform="scale(0.015625)"/>
      <path id="ArialMT-32" d="M 3222 541 
L 3222 0 
L 194 0 
Q 188 203 259 391 
Q 375 700 629 1000 
Q 884 1300 1366 1694 
Q 2113 2306 2375 2664 
Q 2638 3022 2638 3341 
Q 2638 3675 2398 3904 
Q 2159 4134 1775 4134 
Q 1369 4134 1125 3890 
Q 881 3647 878 3216 
L 300 3275 
Q 359 3922 746 4261 
Q 1134 4600 1788 4600 
Q 2447 4600 2831 4234 
Q 3216 3869 3216 3328 
Q 3216 3053 3103 2787 
Q 2991 2522 2730 2228 
Q 2469 1934 1863 1422 
Q 1356 997 1212 845 
Q 1069 694 975 541 
L 3222 541 
z
" transform="scale(0.015625)"/>
      <path id="ArialMT-33" d="M 269 1209 
L 831 1284 
Q 928 806 1161 595 
Q 1394 384 1728 384 
Q 2125 384 2398 659 
Q 2672 934 2672 1341 
Q 2672 1728 2419 1979 
Q 2166 2231 1775 2231 
Q 1616 2231 1378 2169 
L 1441 2663 
Q 1497 2656 1531 2656 
Q 1891 2656 2178 2843 
Q 2466 3031 2466 3422 
Q 2466 3731 2256 3934 
Q 2047 4138 1716 4138 
Q 1388 4138 1169 3931 
Q 950 3725 888 3313 
L 325 3413 
Q 428 3978 793 4289 
Q 1159 4600 1703 4600 
Q 2078 4600 2393 4439 
Q 2709 4278 2876 4000 
Q 3044 3722 3044 3409 
Q 3044 3113 2884 2869 
Q 2725 2625 2413 2481 
Q 2819 2388 3044 2092 
Q 3269 1797 3269 1353 
Q 3269 753 2831 336 
Q 2394 -81 1725 -81 
Q 1122 -81 723 278 
Q 325 638 269 1209 
z
" transform="scale(0.015625)"/>
      <path id="ArialMT-28" d="M 1497 -1347 
Q 1031 -759 709 28 
Q 388 816 388 1659 
Q 388 2403 628 3084 
Q 909 3875 1497 4659 
L 1900 4659 
Q 1522 4009 1400 3731 
Q 1209 3300 1100 2831 
Q 966 2247 966 1656 
Q 966 153 1900 -1347 
L 1497 -1347 
z
" transform="scale(0.015625)"/>
      <path id="ArialMT-31" d="M 2384 0 
L 1822 0 
L 1822 3584 
Q 1619 3391 1289 3197 
Q 959 3003 697 2906 
L 697 3450 
Q 1169 3672 1522 3987 
Q 1875 4303 2022 4600 
L 2384 4600 
L 2384 0 
z
" transform="scale(0.015625)"/>
      <path id="ArialMT-36" d="M 3184 3459 
L 2625 3416 
Q 2550 3747 2413 3897 
Q 2184 4138 1850 4138 
Q 1581 4138 1378 3988 
Q 1113 3794 959 3422 
Q 806 3050 800 2363 
Q 1003 2672 1297 2822 
Q 1591 2972 1913 2972 
Q 2475 2972 2870 2558 
Q 3266 2144 3266 1488 
Q 3266 1056 3080 686 
Q 2894 316 2569 119 
Q 2244 -78 1831 -78 
Q 1128 -78 684 439 
Q 241 956 241 2144 
Q 241 3472 731 4075 
Q 1159 4600 1884 4600 
Q 2425 4600 2770 4297 
Q 3116 3994 3184 3459 
z
M 888 1484 
Q 888 1194 1011 928 
Q 1134 663 1356 523 
Q 1578 384 1822 384 
Q 2178 384 2434 671 
Q 2691 959 2691 1453 
Q 2691 1928 2437 2201 
Q 2184 2475 1800 2475 
Q 1419 2475 1153 2201 
Q 888 1928 888 1484 
z
" transform="scale(0.015625)"/>
      <path id="ArialMT-2e" d="M 581 0 
L 581 641 
L 1222 641 
L 1222 0 
L 581 0 
z
" transform="scale(0.015625)"/>
      <path id="ArialMT-25" d="M 372 3481 
Q 372 3972 619 4315 
Q 866 4659 1334 4659 
Q 1766 4659 2048 4351 
Q 2331 4044 2331 3447 
Q 2331 2866 2045 2552 
Q 1759 2238 1341 2238 
Q 925 2238 648 2547 
Q 372 2856 372 3481 
z
M 1350 4272 
Q 1141 4272 1002 4090 
Q 863 3909 863 3425 
Q 863 2984 1003 2804 
Q 1144 2625 1350 2625 
Q 1563 2625 1702 2806 
Q 1841 2988 1841 3469 
Q 1841 3913 1700 4092 
Q 1559 4272 1350 4272 
z
M 1353 -169 
L 3859 4659 
L 4316 4659 
L 1819 -169 
L 1353 -169 
z
M 3334 1075 
Q 3334 1569 3581 1911 
Q 3828 2253 4300 2253 
Q 4731 2253 5014 1945 
Q 5297 1638 5297 1041 
Q 5297 459 5011 145 
Q 4725 -169 4303 -169 
Q 3888 -169 3611 142 
Q 3334 453 3334 1075 
z
M 4316 1866 
Q 4103 1866 3964 1684 
Q 3825 1503 3825 1019 
Q 3825 581 3965 400 
Q 4106 219 4313 219 
Q 4528 219 4667 400 
Q 4806 581 4806 1063 
Q 4806 1506 4665 1686 
Q 4525 1866 4316 1866 
z
" transform="scale(0.015625)"/>
      <path id="ArialMT-29" d="M 791 -1347 
L 388 -1347 
Q 1322 153 1322 1656 
Q 1322 2244 1188 2822 
Q 1081 3291 891 3722 
Q 769 4003 388 4659 
L 791 4659 
Q 1378 3875 1659 3084 
Q 1900 2403 1900 1659 
Q 1900 816 1576 28 
Q 1253 -759 791 -1347 
z
" transform="scale(0.015625)"/>
     </defs>
     <use xlink:href="#ArialMT-6e"/>
     <use xlink:href="#ArialMT-20" x="55.615234"/>
     <use xlink:href="#ArialMT-3d" x="83.398438"/>
     <use xlink:href="#ArialMT-20" x="141.796875"/>
     <use xlink:href="#ArialMT-32" x="169.580078"/>
     <use xlink:href="#ArialMT-33" x="225.195312"/>
     <use xlink:href="#ArialMT-20" x="280.810547"/>
     <use xlink:href="#ArialMT-28" x="308.59375"/>
     <use xlink:href="#ArialMT-31" x="341.894531"/>
     <use xlink:href="#ArialMT-36" x="397.509766"/>
     <use xlink:href="#ArialMT-2e" x="453.125"/>
     <use xlink:href="#ArialMT-36" x="480.908203"/>
     <use xlink:href="#ArialMT-37" x="536.523438"/>
     <use xlink:href="#ArialMT-25" x="592.138672"/>
     <use xlink:href="#ArialMT-29" x="681.054688"/>
    </g>
   </g>
  </g>
 </g>
 <defs>
  <clipPath id="p4101b8ec85">
   <rect x="27" y="15.552" width="167.4" height="99.792"/>
  </clipPath>
 </defs>
</svg>
