<?xml version="1.0" encoding="utf-8" standalone="no"?>
<!DOCTYPE svg PUBLIC "-//W3C//DTD SVG 1.1//EN"
  "http://www.w3.org/Graphics/SVG/1.1/DTD/svg11.dtd">
<svg xmlns:xlink="http://www.w3.org/1999/xlink" width="216pt" height="129.6pt" viewBox="0 0 216 129.6" xmlns="http://www.w3.org/2000/svg" version="1.1">
 <metadata>
  <rdf:RDF xmlns:dc="http://purl.org/dc/elements/1.1/" xmlns:cc="http://creativecommons.org/ns#" xmlns:rdf="http://www.w3.org/1999/02/22-rdf-syntax-ns#">
   <cc:Work>
    <dc:type rdf:resource="http://purl.org/dc/dcmitype/StillImage"/>
    <dc:date>2025-05-21T13:30:32.864224</dc:date>
    <dc:format>image/svg+xml</dc:format>
    <dc:creator>
     <cc:Agent>
      <dc:title>Matplotlib v3.9.4, https://matplotlib.org/</dc:title>
     </cc:Agent>
    </dc:creator>
   </cc:Work>
  </rdf:RDF>
 </metadata>
 <defs>
  <style type="text/css">*{stroke-linejoin: round; stroke-linecap: butt}</style>
 </defs>
 <g id="figure_1">
  <g id="patch_1">
   <path d="M 0 129.6 
L 216 129.6 
L 216 0 
L 0 0 
z
" style="fill: #ffffff"/>
  </g>
  <g id="axes_1">
   <g id="patch_2">
    <path d="M 27 115.344 
L 194.4 115.344 
L 194.4 15.552 
L 27 15.552 
z
" style="fill: #ffffff"/>
   </g>
   <g id="matplotlib.axis_1"/>
   <g id="matplotlib.axis_2"/>
   <g id="line2d_1">
    <path d="M 34.609091 54.606714 
L 37.103875 54.598717 
L 39.598659 54.449437 
L 42.093443 54.337477 
L 44.588227 54.30149 
L 47.08301 54.308154 
L 49.577794 54.641368 
L 52.072578 54.819971 
L 54.567362 54.549401 
L 57.062146 54.612046 
L 59.55693 54.573393 
L 62.051714 54.733336 
L 64.546498 54.923934 
L 67.041282 54.857291 
L 69.536066 54.686686 
L 72.030849 54.755994 
L 74.525633 55.21583 
L 77.020417 59.325031 
L 79.515201 74.52361 
L 82.009985 90.611204 
L 84.504769 103.221373 
L 86.999553 110.808 
L 89.494337 100.285087 
L 91.989121 84.084199 
L 94.483905 72.443018 
L 96.978689 64.058009 
L 99.473472 57.287091 
L 101.968256 51.902346 
L 104.46304 47.59988 
L 106.957824 44.22775 
L 109.452608 41.366104 
L 111.947392 39.158891 
L 114.442176 37.422177 
L 116.93696 36.271921 
L 119.431744 35.786761 
L 121.926528 36.321237 
L 124.421311 36.913026 
L 126.916095 37.794045 
L 129.410879 38.944301 
L 131.905663 40.17986 
L 134.400447 41.099532 
L 136.895231 41.915241 
L 139.390015 42.986859 
L 141.884799 44.222418 
L 144.379583 44.85286 
L 146.874367 45.760536 
L 149.369151 46.68554 
L 151.863934 47.437272 
L 154.358718 48.374271 
L 156.853502 49.035368 
L 159.348286 49.405903 
L 161.84307 49.639153 
L 164.337854 50.108319 
L 166.832638 50.597478 
L 169.327422 51.097299 
L 171.822206 51.319887 
L 174.31699 51.297228 
L 176.811773 51.653101 
L 179.306557 51.948996 
L 181.801341 52.18891 
L 184.296125 52.386173 
L 186.790909 52.462146 
" clip-path="url(#p9a4b7b3274)" style="fill: none; stroke: #00c49a; stroke-opacity: 0.3; stroke-width: 1.5; stroke-linecap: square"/>
   </g>
   <g id="line2d_2">
    <path d="M 34.609091 54.487114 
L 37.103875 54.055969 
L 39.598659 53.980735 
L 42.093443 54.466859 
L 44.588227 54.74175 
L 47.08301 54.947195 
L 49.577794 54.753324 
L 52.072578 55.022428 
L 54.567362 55.013748 
L 57.062146 55.187363 
L 59.55693 55.219193 
L 62.051714 54.756218 
L 64.546498 54.59707 
L 67.041282 54.478433 
L 69.536066 54.18618 
L 72.030849 55.537488 
L 74.525633 58.772524 
L 77.020417 66.093314 
L 79.515201 76.087783 
L 82.009985 90.523916 
L 84.504769 103.686869 
L 86.999553 110.808 
L 89.494337 109.257034 
L 91.989121 100.920594 
L 94.483905 88.246659 
L 96.978689 74.635199 
L 99.473472 61.58799 
L 101.968256 52.088326 
L 104.46304 45.965484 
L 106.957824 41.338629 
L 109.452608 37.976275 
L 111.947392 35.855271 
L 114.442176 34.816471 
L 116.93696 34.593665 
L 119.431744 33.948394 
L 121.926528 33.835544 
L 124.421311 34.16252 
L 126.916095 34.692047 
L 129.410879 35.39519 
L 131.905663 36.28931 
L 134.400447 37.024283 
L 136.895231 38.725715 
L 139.390015 39.368093 
L 141.884799 40.632593 
L 144.379583 41.384927 
L 146.874367 42.799893 
L 149.369151 43.43359 
L 151.863934 44.677835 
L 154.358718 45.855527 
L 156.853502 47.25892 
L 159.348286 47.33994 
L 161.84307 47.927339 
L 164.337854 49.133968 
L 166.832638 49.353881 
L 169.327422 50.39268 
L 171.822206 50.57787 
L 174.31699 51.579053 
L 176.811773 51.512501 
L 179.306557 51.784498 
L 181.801341 52.562875 
L 184.296125 52.557088 
L 186.790909 53.089509 
" clip-path="url(#p9a4b7b3274)" style="fill: none; stroke: #00c49a; stroke-opacity: 0.3; stroke-width: 1.5; stroke-linecap: square"/>
   </g>
   <g id="line2d_3">
    <path d="M 34.609091 54.684178 
L 37.103875 54.763671 
L 39.598659 54.661537 
L 42.093443 54.678643 
L 44.588227 54.70229 
L 47.08301 54.815996 
L 49.577794 54.869327 
L 52.072578 54.88593 
L 54.567362 54.85373 
L 57.062146 54.949323 
L 59.55693 54.938758 
L 62.051714 54.955864 
L 64.546498 55.125919 
L 67.041282 55.17925 
L 69.536066 55.412699 
L 72.030849 55.860478 
L 74.525633 57.006088 
L 77.020417 66.279643 
L 79.515201 87.369533 
L 82.009985 101.888141 
L 84.504769 106.865532 
L 86.999553 110.043254 
L 89.494337 110.808 
L 91.989121 97.171367 
L 94.483905 79.853386 
L 96.978689 66.358633 
L 99.473472 56.393788 
L 101.968256 49.561384 
L 104.46304 45.144471 
L 106.957824 42.377297 
L 109.452608 40.329588 
L 111.947392 38.108302 
L 114.442176 35.588162 
L 116.93696 33.121352 
L 119.431744 31.484191 
L 121.926528 31.040437 
L 124.421311 31.415263 
L 126.916095 32.367674 
L 129.410879 33.848867 
L 131.905663 35.407038 
L 134.400447 36.988352 
L 136.895231 38.589791 
L 139.390015 40.04784 
L 141.884799 41.36904 
L 144.379583 42.603199 
L 146.874367 43.774972 
L 149.369151 44.683611 
L 151.863934 45.674259 
L 154.358718 46.485293 
L 156.853502 47.278214 
L 159.348286 47.952901 
L 161.84307 48.760916 
L 164.337854 49.407932 
L 166.832638 49.946776 
L 169.327422 50.403108 
L 171.822206 50.758312 
L 174.31699 51.152761 
L 176.811773 51.56029 
L 179.306557 51.896376 
L 181.801341 52.258624 
L 184.296125 52.436729 
L 186.790909 52.782374 
" clip-path="url(#p9a4b7b3274)" style="fill: none; stroke: #00c49a; stroke-opacity: 0.3; stroke-width: 1.5; stroke-linecap: square"/>
   </g>
   <g id="line2d_4">
    <path d="M 34.609091 54.757346 
L 37.103875 54.631241 
L 39.598659 54.478612 
L 42.093443 54.605648 
L 44.588227 54.70011 
L 47.08301 54.684289 
L 49.577794 54.870422 
L 52.072578 54.804345 
L 54.567362 54.794573 
L 57.062146 54.916024 
L 59.55693 55.042129 
L 62.051714 54.900203 
L 64.546498 54.807602 
L 67.041282 54.752693 
L 69.536066 54.618212 
L 72.030849 54.203601 
L 74.525633 57.697315 
L 77.020417 68.159377 
L 79.515201 79.109574 
L 82.009985 89.360376 
L 84.504769 102.497633 
L 86.999553 110.808 
L 89.494337 102.649331 
L 91.989121 89.306862 
L 94.483905 77.322698 
L 96.978689 67.323641 
L 99.473472 59.970462 
L 101.968256 54.890896 
L 104.46304 51.425102 
L 106.957824 48.008634 
L 109.452608 44.234325 
L 111.947392 39.939774 
L 114.442176 35.908602 
L 116.93696 32.786223 
L 119.431744 31.038435 
L 121.926528 30.650814 
L 124.421311 31.098929 
L 126.916095 32.239458 
L 129.410879 33.665701 
L 131.905663 35.366024 
L 134.400447 37.136613 
L 136.895231 38.751781 
L 139.390015 40.31204 
L 141.884799 41.755966 
L 144.379583 43.18407 
L 146.874367 44.392072 
L 149.369151 45.643816 
L 151.863934 46.699189 
L 154.358718 47.701049 
L 156.853502 48.406493 
L 159.348286 49.236645 
L 161.84307 49.878804 
L 164.337854 50.38462 
L 166.832638 51.070054 
L 169.327422 51.527941 
L 171.822206 51.851812 
L 174.31699 52.154743 
L 176.811773 52.520494 
L 179.306557 52.726636 
L 181.801341 52.970471 
L 184.296125 53.283174 
L 186.790909 53.366934 
" clip-path="url(#p9a4b7b3274)" style="fill: none; stroke: #00c49a; stroke-opacity: 0.3; stroke-width: 1.5; stroke-linecap: square"/>
   </g>
   <g id="line2d_5">
    <path d="M 34.609091 57.529697 
L 37.103875 57.30176 
L 39.598659 57.559887 
L 42.093443 57.42705 
L 44.588227 58.08067 
L 47.08301 58.030856 
L 49.577794 58.213507 
L 52.072578 58.011232 
L 54.567362 57.982551 
L 57.062146 57.658006 
L 59.55693 58.005194 
L 62.051714 58.536543 
L 64.546498 58.304078 
L 67.041282 58.737308 
L 69.536066 58.723723 
L 72.030849 58.704099 
L 74.525633 59.949448 
L 77.020417 65.111987 
L 79.515201 77.838701 
L 82.009985 94.438828 
L 84.504769 109.126401 
L 86.999553 110.808 
L 89.494337 100.241401 
L 91.989121 87.374302 
L 94.483905 75.699719 
L 96.978689 65.874291 
L 99.473472 56.913815 
L 101.968256 49.850798 
L 104.46304 44.324467 
L 106.957824 39.940838 
L 109.452608 36.165543 
L 111.947392 32.873293 
L 114.442176 29.719917 
L 116.93696 27.393756 
L 119.431744 26.131802 
L 121.926528 26.291811 
L 124.421311 26.872974 
L 126.916095 27.925105 
L 129.410879 29.917664 
L 131.905663 31.318493 
L 134.400447 33.392565 
L 136.895231 35.578342 
L 139.390015 37.641848 
L 141.884799 39.50006 
L 144.379583 41.507714 
L 146.874367 43.094213 
L 149.369151 44.996201 
L 151.863934 46.990269 
L 154.358718 48.351851 
L 156.853502 49.509648 
L 159.348286 50.924063 
L 161.84307 51.935438 
L 164.337854 52.747556 
L 166.832638 53.692512 
L 169.327422 54.148385 
L 171.822206 54.643506 
L 174.31699 55.069189 
L 176.811773 55.366563 
L 179.306557 55.784699 
L 181.801341 56.148492 
L 184.296125 56.925891 
L 186.790909 57.122128 
" clip-path="url(#p9a4b7b3274)" style="fill: none; stroke: #00c49a; stroke-opacity: 0.3; stroke-width: 1.5; stroke-linecap: square"/>
   </g>
   <g id="line2d_6">
    <path d="M 34.609091 55.939014 
L 37.103875 55.668229 
L 39.598659 55.724187 
L 42.093443 55.747342 
L 44.588227 55.784004 
L 47.08301 55.936441 
L 49.577794 56.130686 
L 52.072578 56.018127 
L 54.567362 56.005263 
L 57.062146 55.792365 
L 59.55693 56.064437 
L 62.051714 56.05093 
L 64.546498 56.158343 
L 67.041282 56.086948 
L 69.536066 56.183428 
L 72.030849 56.463217 
L 74.525633 58.406308 
L 77.020417 67.450907 
L 79.515201 87.598329 
L 82.009985 104.80378 
L 84.504769 110.808 
L 86.999553 108.242297 
L 89.494337 102.148674 
L 91.989121 97.035921 
L 94.483905 94.933319 
L 96.978689 88.284618 
L 99.473472 75.470899 
L 101.968256 61.627425 
L 104.46304 48.285 
L 106.957824 37.148089 
L 109.452608 29.21107 
L 111.947392 24.424417 
L 114.442176 21.779601 
L 116.93696 20.409597 
L 119.431744 20.088 
L 121.926528 21.111966 
L 124.421311 22.853736 
L 126.916095 25.24449 
L 129.410879 28.129217 
L 131.905663 30.756666 
L 134.400447 33.288922 
L 136.895231 35.655235 
L 139.390015 37.835664 
L 141.884799 39.790975 
L 144.379583 41.6646 
L 146.874367 43.362633 
L 149.369151 44.791168 
L 151.863934 46.118721 
L 154.358718 47.370378 
L 156.853502 48.39563 
L 159.348286 49.314111 
L 161.84307 50.300771 
L 164.337854 50.935604 
L 166.832638 51.693287 
L 169.327422 52.270233 
L 171.822206 52.973244 
L 174.31699 53.585565 
L 176.811773 54.012646 
L 179.306557 54.516268 
L 181.801341 54.98194 
L 184.296125 55.363355 
L 186.790909 55.754417 
" clip-path="url(#p9a4b7b3274)" style="fill: none; stroke: #00c49a; stroke-opacity: 0.3; stroke-width: 1.5; stroke-linecap: square"/>
   </g>
   <g id="line2d_7">
    <path d="M 34.609091 55.596735 
L 37.103875 55.536924 
L 39.598659 55.507019 
L 42.093443 55.422536 
L 44.588227 55.363473 
L 47.08301 55.735795 
L 49.577794 55.671498 
L 52.072578 55.838968 
L 54.567362 55.844201 
L 57.062146 55.812801 
L 59.55693 55.67075 
L 62.051714 55.657293 
L 64.546498 55.581034 
L 67.041282 54.961246 
L 69.536066 53.42112 
L 72.030849 54.951527 
L 74.525633 63.197181 
L 77.020417 73.121272 
L 79.515201 82.585569 
L 82.009985 93.721576 
L 84.504769 106.690033 
L 86.999553 110.808 
L 89.494337 102.070403 
L 91.989121 88.491129 
L 94.483905 75.573511 
L 96.978689 64.610208 
L 99.473472 55.75299 
L 101.968256 49.141664 
L 104.46304 43.890284 
L 106.957824 39.768578 
L 109.452608 36.607582 
L 111.947392 33.866009 
L 114.442176 31.758429 
L 116.93696 30.503152 
L 119.431744 30.255685 
L 121.926528 30.503899 
L 124.421311 31.51171 
L 126.916095 32.713905 
L 129.410879 34.342252 
L 131.905663 36.025175 
L 134.400447 37.826225 
L 136.895231 39.583913 
L 139.390015 41.004417 
L 141.884799 42.279133 
L 144.379583 43.571792 
L 146.874367 44.893608 
L 149.369151 46.055431 
L 151.863934 46.930163 
L 154.358718 47.812371 
L 156.853502 48.818686 
L 159.348286 49.588749 
L 161.84307 50.379746 
L 164.337854 50.985329 
L 166.832638 51.901181 
L 169.327422 52.423029 
L 171.822206 52.808808 
L 174.31699 53.243931 
L 176.811773 53.67382 
L 179.306557 54.179221 
L 181.801341 54.506685 
L 184.296125 54.668921 
L 186.790909 54.762375 
" clip-path="url(#p9a4b7b3274)" style="fill: none; stroke: #00c49a; stroke-opacity: 0.3; stroke-width: 1.5; stroke-linecap: square"/>
   </g>
   <g id="line2d_8">
    <path d="M 34.609091 54.843917 
L 37.103875 55.379936 
L 39.598659 55.106225 
L 42.093443 55.171801 
L 44.588227 54.88811 
L 47.08301 55.183206 
L 49.577794 55.290125 
L 52.072578 54.919473 
L 54.567362 55.203164 
L 57.062146 54.890962 
L 59.55693 54.647187 
L 62.051714 54.037038 
L 64.546498 52.628563 
L 67.041282 45.406563 
L 69.536066 38.17601 
L 72.030849 40.378534 
L 74.525633 49.612031 
L 77.020417 69.942259 
L 79.515201 95.605591 
L 82.009985 110.808 
L 84.504769 110.244895 
L 86.999553 101.849641 
L 89.494337 91.688091 
L 91.989121 81.177273 
L 94.483905 72.338663 
L 96.978689 65.483038 
L 99.473472 60.316728 
L 101.968256 55.861783 
L 104.46304 51.389732 
L 106.957824 47.590555 
L 109.452608 44.374441 
L 111.947392 41.618791 
L 114.442176 39.005699 
L 116.93696 37.115376 
L 119.431744 35.954953 
L 121.926528 35.039729 
L 124.421311 34.567861 
L 126.916095 35.072517 
L 129.410879 35.597131 
L 131.905663 36.24292 
L 134.400447 37.49173 
L 136.895231 38.741966 
L 139.390015 40.22172 
L 141.884799 42.134852 
L 144.379583 43.201187 
L 146.874367 44.484211 
L 149.369151 45.430798 
L 151.863934 46.328915 
L 154.358718 47.452273 
L 156.853502 48.232067 
L 159.348286 48.987626 
L 161.84307 50.142347 
L 164.337854 51.153085 
L 166.832638 51.498076 
L 169.327422 51.753255 
L 171.822206 52.068309 
L 174.31699 52.299253 
L 176.811773 52.915105 
L 179.306557 53.462528 
L 181.801341 53.918715 
L 184.296125 54.701359 
L 186.790909 54.712764 
" clip-path="url(#p9a4b7b3274)" style="fill: none; stroke: #00c49a; stroke-opacity: 0.3; stroke-width: 1.5; stroke-linecap: square"/>
   </g>
   <g id="line2d_9">
    <path d="M 34.609091 54.486632 
L 37.103875 54.21239 
L 39.598659 54.485157 
L 42.093443 54.331818 
L 44.588227 54.025138 
L 47.08301 54.020715 
L 49.577794 54.345088 
L 52.072578 54.703372 
L 54.567362 54.373102 
L 57.062146 54.852288 
L 59.55693 54.867032 
L 62.051714 55.294614 
L 64.546498 55.098516 
L 67.041282 54.915688 
L 69.536066 54.675358 
L 72.030849 54.827223 
L 74.525633 55.853419 
L 77.020417 62.948328 
L 79.515201 76.697294 
L 82.009985 89.515901 
L 84.504769 101.965903 
L 86.999553 110.808 
L 89.494337 103.903291 
L 91.989121 89.616162 
L 94.483905 76.21221 
L 96.978689 65.061172 
L 99.473472 56.176317 
L 101.968256 50.311075 
L 104.46304 46.773941 
L 106.957824 44.394227 
L 109.452608 42.299076 
L 111.947392 39.363506 
L 114.442176 36.158117 
L 116.93696 33.918473 
L 119.431744 31.994355 
L 121.926528 31.35888 
L 124.421311 31.294006 
L 126.916095 32.421937 
L 129.410879 33.479096 
L 131.905663 35.471038 
L 134.400447 37.660551 
L 136.895231 39.55813 
L 139.390015 41.115117 
L 141.884799 42.331514 
L 144.379583 44.214348 
L 146.874367 45.377665 
L 149.369151 46.604383 
L 151.863934 47.458072 
L 154.358718 48.891208 
L 156.853502 49.887916 
L 159.348286 50.368577 
L 161.84307 51.439006 
L 164.337854 52.230769 
L 166.832638 52.872142 
L 169.327422 53.184719 
L 171.822206 53.572492 
L 174.31699 53.812822 
L 176.811773 54.303804 
L 179.306557 54.331818 
L 181.801341 54.361306 
L 184.296125 55.045437 
L 186.790909 55.848996 
" clip-path="url(#p9a4b7b3274)" style="fill: none; stroke: #00c49a; stroke-opacity: 0.3; stroke-width: 1.5; stroke-linecap: square"/>
   </g>
   <g id="line2d_10">
    <path d="M 34.609091 54.078551 
L 37.103875 54.55028 
L 39.598659 54.600634 
L 42.093443 54.621835 
L 44.588227 54.468125 
L 47.08301 54.847099 
L 49.577794 55.888614 
L 52.072578 56.450449 
L 54.567362 55.854162 
L 57.062146 56.270238 
L 59.55693 56.103278 
L 62.051714 55.97607 
L 64.546498 56.408047 
L 67.041282 57.197796 
L 69.536066 57.531717 
L 72.030849 58.509628 
L 74.525633 61.223398 
L 77.020417 70.233962 
L 79.515201 84.401748 
L 82.009985 99.343383 
L 84.504769 109.490868 
L 86.999553 110.808 
L 89.494337 106.050952 
L 91.989121 98.532432 
L 94.483905 89.953845 
L 96.978689 78.971558 
L 99.473472 68.354994 
L 101.968256 57.847087 
L 104.46304 49.130691 
L 106.957824 40.687263 
L 109.452608 34.634284 
L 111.947392 30.441722 
L 114.442176 27.637847 
L 116.93696 26.41347 
L 119.431744 25.721777 
L 121.926528 26.299513 
L 124.421311 27.637847 
L 126.916095 29.363105 
L 129.410879 30.608683 
L 131.905663 32.015921 
L 134.400447 34.006195 
L 136.895231 35.893113 
L 139.390015 37.181094 
L 141.884799 38.588332 
L 144.379583 40.143979 
L 146.874367 41.643973 
L 149.369151 42.762343 
L 151.863934 43.82771 
L 154.358718 45.674875 
L 156.853502 46.379819 
L 159.348286 47.82416 
L 161.84307 49.154543 
L 164.337854 49.557368 
L 166.832638 50.498177 
L 169.327422 51.097114 
L 171.822206 51.635098 
L 174.31699 52.448699 
L 176.811773 52.732267 
L 179.306557 53.087389 
L 181.801341 53.802934 
L 184.296125 54.017597 
L 186.790909 54.863 
" clip-path="url(#p9a4b7b3274)" style="fill: none; stroke: #00c49a; stroke-opacity: 0.3; stroke-width: 1.5; stroke-linecap: square"/>
   </g>
   <g id="line2d_11">
    <path d="M 34.609091 55.543157 
L 37.103875 55.571311 
L 39.598659 55.472772 
L 42.093443 55.30129 
L 44.588227 55.168198 
L 47.08301 55.184835 
L 49.577794 54.971121 
L 52.072578 55.227066 
L 54.567362 55.261618 
L 57.062146 55.099093 
L 59.55693 54.990317 
L 62.051714 55.010792 
L 64.546498 55.269296 
L 67.041282 55.292332 
L 69.536066 55.511164 
L 72.030849 56.163823 
L 74.525633 57.005881 
L 77.020417 61.225128 
L 79.515201 74.977032 
L 82.009985 91.113061 
L 84.504769 105.192575 
L 86.999553 110.808 
L 89.494337 96.89485 
L 91.989121 79.74784 
L 94.483905 67.418988 
L 96.978689 58.469884 
L 99.473472 51.944576 
L 101.968256 47.324775 
L 104.46304 43.754348 
L 106.957824 41.993449 
L 109.452608 40.790509 
L 111.947392 39.212611 
L 114.442176 37.592481 
L 116.93696 35.736883 
L 119.431744 34.522425 
L 121.926528 33.885123 
L 124.421311 33.842892 
L 126.916095 34.503229 
L 129.410879 35.977471 
L 131.905663 37.264872 
L 134.400447 39.07696 
L 136.895231 40.809705 
L 139.390015 42.283946 
L 141.884799 43.691641 
L 144.379583 45.107015 
L 146.874367 46.752739 
L 149.369151 48.026064 
L 151.863934 48.989695 
L 154.358718 49.746012 
L 156.853502 50.520244 
L 159.348286 51.304714 
L 161.84307 51.735981 
L 164.337854 52.38736 
L 166.832638 53.179509 
L 169.327422 53.482803 
L 171.822206 53.649167 
L 174.31699 54.459232 
L 176.811773 54.452833 
L 179.306557 54.688302 
L 181.801341 54.803477 
L 184.296125 55.024869 
L 186.790909 55.571311 
" clip-path="url(#p9a4b7b3274)" style="fill: none; stroke: #00c49a; stroke-opacity: 0.3; stroke-width: 1.5; stroke-linecap: square"/>
   </g>
   <g id="line2d_12">
    <path d="M 34.609091 55.394741 
L 37.103875 55.523396 
L 39.598659 55.407077 
L 42.093443 55.620327 
L 44.588227 55.849439 
L 47.08301 55.583317 
L 49.577794 56.060926 
L 52.072578 56.226592 
L 54.567362 56.7183 
L 57.062146 56.445129 
L 59.55693 56.572021 
L 62.051714 56.245978 
L 64.546498 55.685536 
L 67.041282 55.717259 
L 69.536066 56.355247 
L 72.030849 56.127897 
L 74.525633 56.774697 
L 77.020417 58.641074 
L 79.515201 66.783344 
L 82.009985 89.014209 
L 84.504769 110.808 
L 86.999553 109.40337 
L 89.494337 95.344736 
L 91.989121 80.626966 
L 94.483905 68.21441 
L 96.978689 58.804977 
L 99.473472 52.195992 
L 101.968256 47.414611 
L 104.46304 43.69243 
L 106.957824 40.3897 
L 109.452608 37.825414 
L 111.947392 34.795855 
L 114.442176 31.923149 
L 116.93696 30.349329 
L 119.431744 30.044435 
L 121.926528 30.597827 
L 124.421311 32.094101 
L 126.916095 33.68202 
L 129.410879 36.052443 
L 131.905663 37.918821 
L 134.400447 39.764049 
L 136.895231 41.6692 
L 139.390015 43.838709 
L 141.884799 45.074149 
L 144.379583 46.475254 
L 146.874367 47.73008 
L 149.369151 48.667675 
L 151.863934 49.954224 
L 154.358718 50.810748 
L 156.853502 51.587965 
L 159.348286 52.329934 
L 161.84307 52.929148 
L 164.337854 53.468442 
L 166.832638 54.208648 
L 169.327422 55.19559 
L 171.822206 55.606228 
L 174.31699 56.304137 
L 176.811773 55.539257 
L 179.306557 55.986906 
L 181.801341 56.388732 
L 184.296125 56.912164 
L 186.790909 56.614319 
" clip-path="url(#p9a4b7b3274)" style="fill: none; stroke: #00c49a; stroke-opacity: 0.3; stroke-width: 1.5; stroke-linecap: square"/>
   </g>
   <g id="line2d_13">
    <path d="M 34.609091 54.375216 
L 37.103875 54.225867 
L 39.598659 54.469093 
L 42.093443 54.577905 
L 44.588227 54.379483 
L 47.08301 54.626977 
L 49.577794 54.522432 
L 52.072578 54.68245 
L 54.567362 54.409353 
L 57.062146 54.955546 
L 59.55693 55.821773 
L 62.051714 55.518807 
L 64.546498 55.772701 
L 67.041282 56.090602 
L 69.536066 55.932718 
L 72.030849 56.122606 
L 74.525633 56.848018 
L 77.020417 59.651522 
L 79.515201 68.367133 
L 82.009985 88.094071 
L 84.504769 105.591435 
L 86.999553 110.808 
L 89.494337 104.275025 
L 91.989121 91.898217 
L 94.483905 79.581148 
L 96.978689 68.791712 
L 99.473472 59.937419 
L 101.968256 53.142016 
L 104.46304 47.865711 
L 106.957824 43.92715 
L 109.452608 40.417437 
L 111.947392 37.695008 
L 114.442176 35.397159 
L 116.93696 34.313308 
L 119.431744 33.436413 
L 121.926528 33.280663 
L 124.421311 33.64977 
L 126.916095 34.304774 
L 129.410879 35.424895 
L 131.905663 36.899189 
L 134.400447 38.151591 
L 136.895231 40.084601 
L 139.390015 41.025503 
L 141.884799 42.365381 
L 144.379583 44.095702 
L 146.874367 45.060073 
L 149.369151 45.97964 
L 151.863934 47.244843 
L 154.358718 47.993725 
L 156.853502 49.169319 
L 159.348286 49.587497 
L 161.84307 49.986474 
L 164.337854 50.615875 
L 166.832638 50.692684 
L 169.327422 51.136465 
L 171.822206 51.825607 
L 174.31699 52.218182 
L 176.811773 52.489145 
L 179.306557 52.583022 
L 181.801341 52.903057 
L 184.296125 52.973464 
L 186.790909 53.718078 
" clip-path="url(#p9a4b7b3274)" style="fill: none; stroke: #00c49a; stroke-opacity: 0.3; stroke-width: 1.5; stroke-linecap: square"/>
   </g>
   <g id="line2d_14">
    <path d="M 34.609091 56.078701 
L 37.103875 56.257126 
L 39.598659 55.659874 
L 42.093443 55.295513 
L 44.588227 55.550941 
L 47.08301 55.203483 
L 49.577794 55.629823 
L 52.072578 56.074945 
L 54.567362 56.043016 
L 57.062146 56.033626 
L 59.55693 55.761294 
L 62.051714 55.449521 
L 64.546498 55.477693 
L 67.041282 57.485436 
L 69.536066 63.734042 
L 72.030849 70.643757 
L 74.525633 76.781552 
L 77.020417 82.325851 
L 79.515201 90.877069 
L 82.009985 103.364891 
L 84.504769 110.808 
L 86.999553 106.546477 
L 89.494337 94.370429 
L 91.989121 80.522827 
L 94.483905 68.746825 
L 96.978689 59.250897 
L 99.473472 51.458452 
L 101.968256 45.429589 
L 104.46304 41.000911 
L 106.957824 37.622119 
L 109.452608 35.272553 
L 111.947392 32.827201 
L 114.442176 31.484324 
L 116.93696 30.15835 
L 119.431744 29.803379 
L 121.926528 29.718862 
L 124.421311 31.153769 
L 126.916095 32.044012 
L 129.410879 33.418818 
L 131.905663 34.510024 
L 134.400447 35.879195 
L 136.895231 36.607918 
L 139.390015 38.519875 
L 141.884799 40.227113 
L 144.379583 41.928717 
L 146.874367 43.585246 
L 149.369151 45.140354 
L 151.863934 46.325467 
L 154.358718 47.181904 
L 156.853502 47.968849 
L 159.348286 48.808382 
L 161.84307 49.955931 
L 164.337854 50.551305 
L 166.832638 51.103481 
L 169.327422 51.539212 
L 171.822206 52.093266 
L 174.31699 52.773157 
L 176.811773 53.428631 
L 179.306557 53.516904 
L 181.801341 53.834312 
L 184.296125 54.581816 
L 186.790909 54.553643 
" clip-path="url(#p9a4b7b3274)" style="fill: none; stroke: #00c49a; stroke-opacity: 0.3; stroke-width: 1.5; stroke-linecap: square"/>
   </g>
   <g id="line2d_15">
    <path d="M 34.609091 53.373997 
L 37.103875 52.883418 
L 39.598659 52.986496 
L 42.093443 52.837605 
L 44.588227 53.30146 
L 47.08301 54.120364 
L 49.577794 54.208172 
L 52.072578 55.000352 
L 54.567362 55.422211 
L 57.062146 55.800167 
L 59.55693 55.790623 
L 62.051714 56.657249 
L 64.546498 57.777754 
L 67.041282 59.253308 
L 69.536066 60.925476 
L 72.030849 63.004233 
L 74.525633 68.589579 
L 77.020417 77.509716 
L 79.515201 88.23946 
L 82.009985 99.744204 
L 84.504769 108.137494 
L 86.999553 110.808 
L 89.494337 107.028442 
L 91.989121 98.131211 
L 94.483905 86.922342 
L 96.978689 74.526157 
L 99.473472 63.305834 
L 101.968256 53.074304 
L 104.46304 44.480583 
L 106.957824 37.310877 
L 109.452608 32.454718 
L 111.947392 29.240186 
L 114.442176 27.283596 
L 116.93696 25.943572 
L 119.431744 25.65915 
L 121.926528 26.418879 
L 124.421311 27.409582 
L 126.916095 29.070296 
L 129.410879 30.925716 
L 131.905663 32.599792 
L 134.400447 34.075347 
L 136.895231 35.90786 
L 139.390015 37.841542 
L 141.884799 39.286555 
L 144.379583 40.54259 
L 146.874367 42.182307 
L 149.369151 42.942036 
L 151.863934 44.209524 
L 154.358718 45.56482 
L 156.853502 46.591791 
L 159.348286 47.555769 
L 161.84307 48.81753 
L 164.337854 49.623072 
L 166.832638 50.611865 
L 169.327422 51.917531 
L 171.822206 52.824243 
L 174.31699 53.5038 
L 176.811773 54.210081 
L 179.306557 54.618578 
L 181.801341 54.908726 
L 184.296125 54.981263 
L 186.790909 55.107248 
" clip-path="url(#p9a4b7b3274)" style="fill: none; stroke: #00c49a; stroke-opacity: 0.3; stroke-width: 1.5; stroke-linecap: square"/>
   </g>
   <g id="line2d_16">
    <path d="M 34.609091 55.888422 
L 37.103875 55.641376 
L 39.598659 55.816467 
L 42.093443 56.266185 
L 44.588227 56.310557 
L 47.08301 56.046722 
L 49.577794 56.099489 
L 52.072578 56.136666 
L 54.567362 56.200226 
L 57.062146 56.554004 
L 59.55693 56.599576 
L 62.051714 56.645147 
L 64.546498 56.54561 
L 67.041282 56.693117 
L 69.536066 57.864783 
L 72.030849 63.919788 
L 74.525633 74.49476 
L 77.020417 83.710983 
L 79.515201 90.858504 
L 82.009985 98.179915 
L 84.504769 106.05418 
L 86.999553 110.808 
L 89.494337 108.736898 
L 91.989121 100.986156 
L 94.483905 89.847537 
L 96.978689 77.495279 
L 99.473472 65.679085 
L 101.968256 55.324775 
L 104.46304 46.053386 
L 106.957824 38.173125 
L 109.452608 31.701981 
L 111.947392 26.909784 
L 114.442176 24.500494 
L 116.93696 23.613051 
L 119.431744 24.228265 
L 121.926528 25.258419 
L 124.421311 26.859416 
L 126.916095 28.755427 
L 129.410879 30.656236 
L 131.905663 32.624203 
L 134.400447 34.496229 
L 136.895231 36.257925 
L 139.390015 37.629865 
L 141.884799 38.89867 
L 144.379583 40.300591 
L 146.874367 41.605374 
L 149.369151 42.905359 
L 151.863934 43.989479 
L 154.358718 44.990852 
L 156.853502 45.770363 
L 159.348286 46.597845 
L 161.84307 47.22745 
L 164.337854 48.149672 
L 166.832638 48.703725 
L 169.327422 49.311744 
L 171.822206 49.914965 
L 174.31699 50.219575 
L 176.811773 50.676488 
L 179.306557 51.159785 
L 181.801341 51.706643 
L 184.296125 52.115586 
L 186.790909 52.614474 
" clip-path="url(#p9a4b7b3274)" style="fill: none; stroke: #00c49a; stroke-opacity: 0.3; stroke-width: 1.5; stroke-linecap: square"/>
   </g>
   <g id="line2d_17">
    <path d="M 34.609091 54.94649 
L 37.103875 55.032851 
L 39.598659 55.184295 
L 42.093443 55.507208 
L 44.588227 55.588562 
L 47.08301 56.054158 
L 49.577794 56.566064 
L 52.072578 56.683714 
L 54.567362 57.046679 
L 57.062146 56.776333 
L 59.55693 56.676205 
L 62.051714 56.542283 
L 64.546498 55.89896 
L 67.041282 55.59482 
L 69.536066 55.367029 
L 72.030849 56.168054 
L 74.525633 59.511084 
L 77.020417 70.940715 
L 79.515201 86.506892 
L 82.009985 98.527279 
L 84.504769 107.424919 
L 86.999553 110.808 
L 89.494337 105.429865 
L 91.989121 95.763742 
L 94.483905 85.687092 
L 96.978689 75.710571 
L 99.473472 66.739086 
L 101.968256 58.400913 
L 104.46304 51.192935 
L 106.957824 44.763455 
L 109.452608 38.261381 
L 111.947392 32.676732 
L 114.442176 28.431298 
L 116.93696 26.812976 
L 119.431744 26.334864 
L 121.926528 27.025748 
L 124.421311 27.721639 
L 126.916095 29.569004 
L 129.410879 31.442653 
L 131.905663 33.204909 
L 134.400447 34.614213 
L 136.895231 35.982214 
L 139.390015 37.756986 
L 141.884799 39.140006 
L 144.379583 40.33779 
L 146.874367 41.541831 
L 149.369151 42.605693 
L 151.863934 44.468077 
L 154.358718 45.319166 
L 156.853502 46.349235 
L 159.348286 47.60334 
L 161.84307 48.135271 
L 164.337854 48.821149 
L 166.832638 50.003913 
L 169.327422 50.549612 
L 171.822206 51.243 
L 174.31699 51.630996 
L 176.811773 52.029006 
L 179.306557 52.781219 
L 181.801341 53.304388 
L 184.296125 53.370723 
L 186.790909 53.871364 
" clip-path="url(#p9a4b7b3274)" style="fill: none; stroke: #00c49a; stroke-opacity: 0.3; stroke-width: 1.5; stroke-linecap: square"/>
   </g>
   <g id="line2d_18">
    <path d="M 34.609091 55.212766 
L 37.103875 55.881373 
L 39.598659 56.297926 
L 42.093443 56.274047 
L 44.588227 56.122814 
L 47.08301 56.250168 
L 49.577794 56.385482 
L 52.072578 56.382828 
L 54.567362 56.725092 
L 57.062146 55.807083 
L 59.55693 55.836268 
L 62.051714 56.35099 
L 64.546498 56.037912 
L 67.041282 55.984848 
L 69.536066 55.754019 
L 72.030849 59.500343 
L 74.525633 69.192497 
L 77.020417 78.054198 
L 79.515201 88.085962 
L 82.009985 99.030428 
L 84.504769 107.831105 
L 86.999553 110.808 
L 89.494337 107.228828 
L 91.989121 98.401619 
L 94.483905 87.38021 
L 96.978689 76.584323 
L 99.473472 65.674348 
L 101.968256 56.741011 
L 104.46304 49.232444 
L 106.957824 41.487742 
L 109.452608 36.332567 
L 111.947392 32.572977 
L 114.442176 28.173965 
L 116.93696 25.475656 
L 119.431744 25.258094 
L 121.926528 24.99808 
L 124.421311 25.552599 
L 126.916095 26.83675 
L 129.410879 28.930128 
L 131.905663 30.649404 
L 134.400447 32.668492 
L 136.895231 34.403687 
L 139.390015 36.497065 
L 141.884799 37.935102 
L 144.379583 39.696829 
L 146.874367 41.397533 
L 149.369151 42.437589 
L 151.863934 43.952568 
L 154.358718 45.348153 
L 156.853502 46.300654 
L 159.348286 47.547659 
L 161.84307 48.21892 
L 164.337854 48.805278 
L 166.832638 49.229791 
L 169.327422 50.673134 
L 171.822206 51.500933 
L 174.31699 52.278322 
L 176.811773 52.320773 
L 179.306557 52.885906 
L 181.801341 52.742633 
L 184.296125 53.729625 
L 186.790909 54.093113 
" clip-path="url(#p9a4b7b3274)" style="fill: none; stroke: #00c49a; stroke-opacity: 0.3; stroke-width: 1.5; stroke-linecap: square"/>
   </g>
   <g id="line2d_19">
    <path d="M 34.609091 55.475792 
L 37.103875 55.034932 
L 39.598659 55.086798 
L 42.093443 55.513251 
L 44.588227 55.282736 
L 47.08301 55.147308 
L 49.577794 55.078154 
L 52.072578 55.173241 
L 54.567362 54.380847 
L 57.062146 54.715093 
L 59.55693 55.213581 
L 62.051714 55.81292 
L 64.546498 54.663227 
L 67.041282 53.199458 
L 69.536066 50.709898 
L 72.030849 49.079005 
L 74.525633 50.902954 
L 77.020417 61.261715 
L 79.515201 79.991046 
L 82.009985 98.118158 
L 84.504769 110.148151 
L 86.999553 110.808 
L 89.494337 103.993405 
L 91.989121 94.464497 
L 94.483905 84.932708 
L 96.978689 75.216507 
L 99.473472 66.523216 
L 101.968256 58.504181 
L 104.46304 52.349434 
L 106.957824 46.992846 
L 109.452608 42.048302 
L 111.947392 37.279526 
L 114.442176 33.896721 
L 116.93696 30.928842 
L 119.431744 30.14221 
L 121.926528 28.787935 
L 124.421311 28.989636 
L 126.916095 29.957798 
L 129.410879 30.874095 
L 131.905663 31.473433 
L 134.400447 33.317552 
L 136.895231 34.934038 
L 139.390015 36.660018 
L 141.884799 38.020055 
L 144.379583 40.469275 
L 146.874367 42.094405 
L 149.369151 43.878014 
L 151.863934 45.906544 
L 154.358718 47.597947 
L 156.853502 48.269322 
L 159.348286 49.505457 
L 161.84307 50.381414 
L 164.337854 50.781933 
L 166.832638 52.329264 
L 169.327422 53.193695 
L 171.822206 53.380988 
L 174.31699 53.50489 
L 176.811773 54.484578 
L 179.306557 54.231012 
L 181.801341 54.715093 
L 184.296125 54.885098 
L 186.790909 55.288499 
" clip-path="url(#p9a4b7b3274)" style="fill: none; stroke: #00c49a; stroke-opacity: 0.3; stroke-width: 1.5; stroke-linecap: square"/>
   </g>
   <g id="line2d_20">
    <path d="M 34.609091 56.294108 
L 37.103875 55.767526 
L 39.598659 56.756305 
L 42.093443 56.257316 
L 44.588227 56.666625 
L 47.08301 56.37459 
L 49.577794 56.183733 
L 52.072578 56.367692 
L 54.567362 56.142342 
L 57.062146 56.273413 
L 59.55693 55.903196 
L 62.051714 56.273413 
L 64.546498 56.137743 
L 67.041282 54.461419 
L 69.536066 52.09065 
L 72.030849 50.855826 
L 74.525633 54.523505 
L 77.020417 64.94937 
L 79.515201 82.080533 
L 82.009985 100.439622 
L 84.504769 110.525163 
L 86.999553 110.808 
L 89.494337 104.992602 
L 91.989121 96.238463 
L 94.483905 87.491222 
L 96.978689 78.392159 
L 99.473472 70.458936 
L 101.968256 61.534635 
L 104.46304 53.463442 
L 106.957824 44.953048 
L 109.452608 37.553305 
L 111.947392 31.324 
L 114.442176 26.467488 
L 116.93696 23.282701 
L 119.431744 21.431615 
L 121.926528 20.647491 
L 124.421311 21.668462 
L 126.916095 22.79521 
L 129.410879 25.481009 
L 131.905663 27.695413 
L 134.400447 30.268536 
L 136.895231 32.735884 
L 139.390015 35.350398 
L 141.884799 37.937319 
L 144.379583 40.425362 
L 146.874367 42.494898 
L 149.369151 44.923155 
L 151.863934 46.493703 
L 154.358718 48.554042 
L 156.853502 50.110793 
L 159.348286 50.954704 
L 161.84307 52.210223 
L 164.337854 53.104722 
L 166.832638 53.638203 
L 169.327422 54.730458 
L 171.822206 54.896021 
L 174.31699 56.211327 
L 176.811773 56.46427 
L 179.306557 56.719513 
L 181.801341 56.512559 
L 184.296125 56.728711 
L 186.790909 56.512559 
" clip-path="url(#p9a4b7b3274)" style="fill: none; stroke: #00c49a; stroke-opacity: 0.3; stroke-width: 1.5; stroke-linecap: square"/>
   </g>
   <g id="line2d_21">
    <path d="M 34.609091 55.179664 
L 37.103875 55.125915 
L 39.598659 55.184527 
L 42.093443 55.213083 
L 44.588227 55.263799 
L 47.08301 55.355083 
L 49.577794 55.518968 
L 52.072578 55.671492 
L 54.567362 55.641179 
L 57.062146 55.670045 
L 59.55693 55.71481 
L 62.051714 55.77026 
L 64.546498 55.644977 
L 67.041282 55.317291 
L 69.536066 55.093008 
L 72.030849 56.288856 
L 74.525633 60.077903 
L 77.020417 68.346818 
L 79.515201 81.929235 
L 82.009985 96.532047 
L 84.504769 107.355926 
L 86.999553 109.910252 
L 89.494337 102.869867 
L 91.989121 91.524589 
L 94.483905 80.439976 
L 96.978689 70.195142 
L 99.473472 61.107101 
L 101.968256 53.49868 
L 104.46304 47.350734 
L 106.957824 42.154769 
L 109.452608 37.992823 
L 111.947392 34.509193 
L 114.442176 31.747285 
L 116.93696 29.957083 
L 119.431744 29.16326 
L 121.926528 29.153643 
L 124.421311 29.863487 
L 126.916095 31.06764 
L 129.410879 32.655578 
L 131.905663 34.195625 
L 134.400447 35.911357 
L 136.895231 37.619313 
L 139.390015 39.25593 
L 141.884799 40.759044 
L 144.379583 42.28539 
L 146.874367 43.701413 
L 149.369151 44.929623 
L 151.863934 46.183826 
L 154.358718 47.353823 
L 156.853502 48.292065 
L 159.348286 49.136899 
L 161.84307 49.95782 
L 164.337854 50.647668 
L 166.832638 51.341232 
L 169.327422 52.0014 
L 171.822206 52.457188 
L 174.31699 52.987343 
L 176.811773 53.317283 
L 179.306557 53.644479 
L 181.801341 53.976028 
L 184.296125 54.334452 
L 186.790909 54.635463 
" clip-path="url(#p9a4b7b3274)" style="fill: none; stroke: #000000; stroke-width: 1.5; stroke-linecap: square"/>
   </g>
   <g id="patch_3">
    <path d="M 27 115.344 
L 27 15.552 
" style="fill: none; stroke: #000000; stroke-width: 0.8; stroke-linejoin: miter; stroke-linecap: square"/>
   </g>
   <g id="patch_4">
    <path d="M 27 115.344 
L 194.4 115.344 
" style="fill: none; stroke: #000000; stroke-width: 0.8; stroke-linejoin: miter; stroke-linecap: square"/>
   </g>
   <g id="text_1">
    <!-- 2 -->
    <g transform="translate(35.887879 24.165172) scale(0.12 -0.12)">
     <defs>
      <path id="ArialMT-32" d="M 3222 541 
L 3222 0 
L 194 0 
Q 188 203 259 391 
Q 375 700 629 1000 
Q 884 1300 1366 1694 
Q 2113 2306 2375 2664 
Q 2638 3022 2638 3341 
Q 2638 3675 2398 3904 
Q 2159 4134 1775 4134 
Q 1369 4134 1125 3890 
Q 881 3647 878 3216 
L 300 3275 
Q 359 3922 746 4261 
Q 1134 4600 1788 4600 
Q 2447 4600 2831 4234 
Q 3216 3869 3216 3328 
Q 3216 3053 3103 2787 
Q 2991 2522 2730 2228 
Q 2469 1934 1863 1422 
Q 1356 997 1212 845 
Q 1069 694 975 541 
L 3222 541 
z
" transform="scale(0.015625)"/>
     </defs>
     <use xlink:href="#ArialMT-32"/>
    </g>
   </g>
   <g id="text_2">
    <!-- n = 20 (14.49%) -->
    <g transform="translate(134.400447 110.808) scale(0.1 -0.1)">
     <defs>
      <path id="ArialMT-6e" d="M 422 0 
L 422 3319 
L 928 3319 
L 928 2847 
Q 1294 3394 1984 3394 
Q 2284 3394 2536 3286 
Q 2788 3178 2913 3003 
Q 3038 2828 3088 2588 
Q 3119 2431 3119 2041 
L 3119 0 
L 2556 0 
L 2556 2019 
Q 2556 2363 2490 2533 
Q 2425 2703 2258 2804 
Q 2091 2906 1866 2906 
Q 1506 2906 1245 2678 
Q 984 2450 984 1813 
L 984 0 
L 422 0 
z
" transform="scale(0.015625)"/>
      <path id="ArialMT-20" transform="scale(0.015625)"/>
      <path id="ArialMT-3d" d="M 3381 2694 
L 356 2694 
L 356 3219 
L 3381 3219 
L 3381 2694 
z
M 3381 1303 
L 356 1303 
L 356 1828 
L 3381 1828 
L 3381 1303 
z
" transform="scale(0.015625)"/>
      <path id="ArialMT-30" d="M 266 2259 
Q 266 3072 433 3567 
Q 600 4063 929 4331 
Q 1259 4600 1759 4600 
Q 2128 4600 2406 4451 
Q 2684 4303 2865 4023 
Q 3047 3744 3150 3342 
Q 3253 2941 3253 2259 
Q 3253 1453 3087 958 
Q 2922 463 2592 192 
Q 2263 -78 1759 -78 
Q 1097 -78 719 397 
Q 266 969 266 2259 
z
M 844 2259 
Q 844 1131 1108 757 
Q 1372 384 1759 384 
Q 2147 384 2411 759 
Q 2675 1134 2675 2259 
Q 2675 3391 2411 3762 
Q 2147 4134 1753 4134 
Q 1366 4134 1134 3806 
Q 844 3388 844 2259 
z
" transform="scale(0.015625)"/>
      <path id="ArialMT-28" d="M 1497 -1347 
Q 1031 -759 709 28 
Q 388 816 388 1659 
Q 388 2403 628 3084 
Q 909 3875 1497 4659 
L 1900 4659 
Q 1522 4009 1400 3731 
Q 1209 3300 1100 2831 
Q 966 2247 966 1656 
Q 966 153 1900 -1347 
L 1497 -1347 
z
" transform="scale(0.015625)"/>
      <path id="ArialMT-31" d="M 2384 0 
L 1822 0 
L 1822 3584 
Q 1619 3391 1289 3197 
Q 959 3003 697 2906 
L 697 3450 
Q 1169 3672 1522 3987 
Q 1875 4303 2022 4600 
L 2384 4600 
L 2384 0 
z
" transform="scale(0.015625)"/>
      <path id="ArialMT-34" d="M 2069 0 
L 2069 1097 
L 81 1097 
L 81 1613 
L 2172 4581 
L 2631 4581 
L 2631 1613 
L 3250 1613 
L 3250 1097 
L 2631 1097 
L 2631 0 
L 2069 0 
z
M 2069 1613 
L 2069 3678 
L 634 1613 
L 2069 1613 
z
" transform="scale(0.015625)"/>
      <path id="ArialMT-2e" d="M 581 0 
L 581 641 
L 1222 641 
L 1222 0 
L 581 0 
z
" transform="scale(0.015625)"/>
      <path id="ArialMT-39" d="M 350 1059 
L 891 1109 
Q 959 728 1153 556 
Q 1347 384 1650 384 
Q 1909 384 2104 503 
Q 2300 622 2425 820 
Q 2550 1019 2634 1356 
Q 2719 1694 2719 2044 
Q 2719 2081 2716 2156 
Q 2547 1888 2255 1720 
Q 1963 1553 1622 1553 
Q 1053 1553 659 1965 
Q 266 2378 266 3053 
Q 266 3750 677 4175 
Q 1088 4600 1706 4600 
Q 2153 4600 2523 4359 
Q 2894 4119 3086 3673 
Q 3278 3228 3278 2384 
Q 3278 1506 3087 986 
Q 2897 466 2520 194 
Q 2144 -78 1638 -78 
Q 1100 -78 759 220 
Q 419 519 350 1059 
z
M 2653 3081 
Q 2653 3566 2395 3850 
Q 2138 4134 1775 4134 
Q 1400 4134 1122 3828 
Q 844 3522 844 3034 
Q 844 2597 1108 2323 
Q 1372 2050 1759 2050 
Q 2150 2050 2401 2323 
Q 2653 2597 2653 3081 
z
" transform="scale(0.015625)"/>
      <path id="ArialMT-25" d="M 372 3481 
Q 372 3972 619 4315 
Q 866 4659 1334 4659 
Q 1766 4659 2048 4351 
Q 2331 4044 2331 3447 
Q 2331 2866 2045 2552 
Q 1759 2238 1341 2238 
Q 925 2238 648 2547 
Q 372 2856 372 3481 
z
M 1350 4272 
Q 1141 4272 1002 4090 
Q 863 3909 863 3425 
Q 863 2984 1003 2804 
Q 1144 2625 1350 2625 
Q 1563 2625 1702 2806 
Q 1841 2988 1841 3469 
Q 1841 3913 1700 4092 
Q 1559 4272 1350 4272 
z
M 1353 -169 
L 3859 4659 
L 4316 4659 
L 1819 -169 
L 1353 -169 
z
M 3334 1075 
Q 3334 1569 3581 1911 
Q 3828 2253 4300 2253 
Q 4731 2253 5014 1945 
Q 5297 1638 5297 1041 
Q 5297 459 5011 145 
Q 4725 -169 4303 -169 
Q 3888 -169 3611 142 
Q 3334 453 3334 1075 
z
M 4316 1866 
Q 4103 1866 3964 1684 
Q 3825 1503 3825 1019 
Q 3825 581 3965 400 
Q 4106 219 4313 219 
Q 4528 219 4667 400 
Q 4806 581 4806 1063 
Q 4806 1506 4665 1686 
Q 4525 1866 4316 1866 
z
" transform="scale(0.015625)"/>
      <path id="ArialMT-29" d="M 791 -1347 
L 388 -1347 
Q 1322 153 1322 1656 
Q 1322 2244 1188 2822 
Q 1081 3291 891 3722 
Q 769 4003 388 4659 
L 791 4659 
Q 1378 3875 1659 3084 
Q 1900 2403 1900 1659 
Q 1900 816 1576 28 
Q 1253 -759 791 -1347 
z
" transform="scale(0.015625)"/>
     </defs>
     <use xlink:href="#ArialMT-6e"/>
     <use xlink:href="#ArialMT-20" x="55.615234"/>
     <use xlink:href="#ArialMT-3d" x="83.398438"/>
     <use xlink:href="#ArialMT-20" x="141.796875"/>
     <use xlink:href="#ArialMT-32" x="169.580078"/>
     <use xlink:href="#ArialMT-30" x="225.195312"/>
     <use xlink:href="#ArialMT-20" x="280.810547"/>
     <use xlink:href="#ArialMT-28" x="308.59375"/>
     <use xlink:href="#ArialMT-31" x="341.894531"/>
     <use xlink:href="#ArialMT-34" x="397.509766"/>
     <use xlink:href="#ArialMT-2e" x="453.125"/>
     <use xlink:href="#ArialMT-34" x="480.908203"/>
     <use xlink:href="#ArialMT-39" x="536.523438"/>
     <use xlink:href="#ArialMT-25" x="592.138672"/>
     <use xlink:href="#ArialMT-29" x="681.054688"/>
    </g>
   </g>
  </g>
 </g>
 <defs>
  <clipPath id="p9a4b7b3274">
   <rect x="27" y="15.552" width="167.4" height="99.792"/>
  </clipPath>
 </defs>
</svg>
