<?xml version="1.0" encoding="utf-8" standalone="no"?>
<!DOCTYPE svg PUBLIC "-//W3C//DTD SVG 1.1//EN"
  "http://www.w3.org/Graphics/SVG/1.1/DTD/svg11.dtd">
<svg xmlns:xlink="http://www.w3.org/1999/xlink" width="216pt" height="129.6pt" viewBox="0 0 216 129.6" xmlns="http://www.w3.org/2000/svg" version="1.1">
 <metadata>
  <rdf:RDF xmlns:dc="http://purl.org/dc/elements/1.1/" xmlns:cc="http://creativecommons.org/ns#" xmlns:rdf="http://www.w3.org/1999/02/22-rdf-syntax-ns#">
   <cc:Work>
    <dc:type rdf:resource="http://purl.org/dc/dcmitype/StillImage"/>
    <dc:date>2025-05-21T13:30:32.911219</dc:date>
    <dc:format>image/svg+xml</dc:format>
    <dc:creator>
     <cc:Agent>
      <dc:title>Matplotlib v3.9.4, https://matplotlib.org/</dc:title>
     </cc:Agent>
    </dc:creator>
   </cc:Work>
  </rdf:RDF>
 </metadata>
 <defs>
  <style type="text/css">*{stroke-linejoin: round; stroke-linecap: butt}</style>
 </defs>
 <g id="figure_1">
  <g id="patch_1">
   <path d="M 0 129.6 
L 216 129.6 
L 216 0 
L 0 0 
z
" style="fill: #ffffff"/>
  </g>
  <g id="axes_1">
   <g id="patch_2">
    <path d="M 27 115.344 
L 194.4 115.344 
L 194.4 15.552 
L 27 15.552 
z
" style="fill: #ffffff"/>
   </g>
   <g id="matplotlib.axis_1"/>
   <g id="matplotlib.axis_2"/>
   <g id="line2d_1">
    <path d="M 34.609091 66.207251 
L 37.103875 66.107531 
L 39.598659 66.111158 
L 42.093443 66.125662 
L 44.588227 66.148326 
L 47.08301 66.151952 
L 49.577794 66.012345 
L 52.072578 65.945261 
L 54.567362 65.899028 
L 57.062146 65.850075 
L 59.55693 65.86186 
L 62.051714 65.800215 
L 64.546498 65.695963 
L 67.041282 64.922687 
L 69.536066 61.344582 
L 72.030849 57.678544 
L 74.525633 56.53268 
L 77.020417 58.294989 
L 79.515201 71.553104 
L 82.009985 96.789301 
L 84.504769 110.808 
L 86.999553 110.164358 
L 89.494337 103.689866 
L 91.989121 95.953473 
L 94.483905 88.577882 
L 96.978689 82.051717 
L 99.473472 76.931592 
L 101.968256 72.913817 
L 104.46304 69.751813 
L 106.957824 67.140984 
L 109.452608 64.805743 
L 111.947392 62.657249 
L 114.442176 60.826043 
L 116.93696 58.892398 
L 119.431744 56.760221 
L 121.926528 55.229079 
L 124.421311 53.523881 
L 126.916095 51.99002 
L 129.410879 51.099799 
L 131.905663 50.816053 
L 134.400447 50.766194 
L 136.895231 51.149659 
L 139.390015 51.72803 
L 141.884799 52.502213 
L 144.379583 53.18121 
L 146.874367 54.12129 
L 149.369151 55.015136 
L 151.863934 55.811983 
L 154.358718 56.803735 
L 156.853502 57.582451 
L 159.348286 58.277765 
L 161.84307 59.115406 
L 164.337854 59.970271 
L 166.832638 60.351923 
L 169.327422 60.848706 
L 171.822206 61.395348 
L 174.31699 62.022672 
L 176.811773 62.591072 
L 179.306557 62.90836 
L 181.801341 63.237433 
L 184.296125 63.504862 
L 186.790909 63.813084 
" clip-path="url(#pf1c0e0fbed)" style="fill: none; stroke: #ffca3a; stroke-opacity: 0.3; stroke-width: 1.5; stroke-linecap: square"/>
   </g>
   <g id="line2d_2">
    <path d="M 34.609091 66.220438 
L 37.103875 66.380485 
L 39.598659 66.62783 
L 42.093443 66.520526 
L 44.588227 66.584181 
L 47.08301 66.636924 
L 49.577794 66.789695 
L 52.072578 66.606005 
L 54.567362 66.567812 
L 57.062146 66.449596 
L 59.55693 66.529619 
L 62.051714 66.504158 
L 64.546498 66.353204 
L 67.041282 65.520234 
L 69.536066 62.966761 
L 72.030849 60.646084 
L 74.525633 60.569698 
L 77.020417 64.338071 
L 79.515201 78.547673 
L 82.009985 99.077303 
L 84.504769 110.522462 
L 86.999553 110.808 
L 89.494337 104.886271 
L 91.989121 96.762081 
L 94.483905 89.638184 
L 96.978689 82.796186 
L 99.473472 77.149083 
L 101.968256 72.282208 
L 104.46304 68.070069 
L 106.957824 64.901872 
L 109.452608 60.973452 
L 111.947392 57.865272 
L 114.442176 55.046267 
L 116.93696 52.552812 
L 119.431744 50.35217 
L 121.926528 49.222749 
L 124.421311 48.438884 
L 126.916095 48.036948 
L 129.410879 48.024217 
L 131.905663 48.666223 
L 134.400447 48.758977 
L 136.895231 49.422807 
L 139.390015 50.923245 
L 141.884799 51.979918 
L 144.379583 52.952929 
L 146.874367 54.162373 
L 149.369151 55.544594 
L 151.863934 56.41212 
L 154.358718 57.988944 
L 156.853502 58.698242 
L 159.348286 59.514844 
L 161.84307 60.409651 
L 164.337854 61.073481 
L 166.832638 61.735493 
L 169.327422 62.295656 
L 171.822206 63.323229 
L 174.31699 63.599673 
L 176.811773 64.019796 
L 179.306557 64.241679 
L 181.801341 65.01645 
L 184.296125 65.321994 
L 186.790909 65.487497 
" clip-path="url(#pf1c0e0fbed)" style="fill: none; stroke: #ffca3a; stroke-opacity: 0.3; stroke-width: 1.5; stroke-linecap: square"/>
   </g>
   <g id="line2d_3">
    <path d="M 34.609091 65.295236 
L 37.103875 64.994733 
L 39.598659 65.081879 
L 42.093443 65.060843 
L 44.588227 64.949657 
L 47.08301 65.089391 
L 49.577794 65.373367 
L 52.072578 65.603252 
L 54.567362 65.942821 
L 57.062146 65.520614 
L 59.55693 65.250161 
L 62.051714 65.050326 
L 64.546498 65.123949 
L 67.041282 64.347147 
L 69.536066 60.098027 
L 72.030849 52.391614 
L 74.525633 47.657181 
L 77.020417 48.48056 
L 79.515201 61.125749 
L 82.009985 84.135306 
L 84.504769 103.680056 
L 86.999553 110.808 
L 89.494337 108.46257 
L 91.989121 100.342964 
L 94.483905 91.499145 
L 96.978689 82.694391 
L 99.473472 73.742391 
L 101.968256 66.353009 
L 104.46304 60.563808 
L 106.957824 56.723373 
L 109.452608 54.271264 
L 111.947392 53.278099 
L 114.442176 52.842369 
L 116.93696 52.743203 
L 119.431744 53.028682 
L 121.926528 53.856569 
L 124.421311 54.81217 
L 126.916095 55.779791 
L 129.410879 56.938233 
L 131.905663 57.548255 
L 134.400447 58.015538 
L 136.895231 58.920053 
L 139.390015 59.928243 
L 141.884799 60.598366 
L 144.379583 61.37667 
L 146.874367 62.031768 
L 149.369151 62.147461 
L 151.863934 62.132436 
L 154.358718 62.299216 
L 156.853502 62.472005 
L 159.348286 62.985866 
L 161.84307 63.484702 
L 164.337854 63.737125 
L 166.832638 63.90691 
L 169.327422 63.932453 
L 171.822206 63.794221 
L 174.31699 63.989548 
L 176.811773 64.214926 
L 179.306557 64.525947 
L 181.801341 64.943647 
L 184.296125 65.197572 
L 186.790909 65.140477 
" clip-path="url(#pf1c0e0fbed)" style="fill: none; stroke: #ffca3a; stroke-opacity: 0.3; stroke-width: 1.5; stroke-linecap: square"/>
   </g>
   <g id="line2d_4">
    <path d="M 34.609091 66.925004 
L 37.103875 67.099901 
L 39.598659 67.039642 
L 42.093443 66.970565 
L 44.588227 67.255692 
L 47.08301 67.31595 
L 49.577794 66.866215 
L 52.072578 66.8912 
L 54.567362 67.066097 
L 57.062146 66.994081 
L 59.55693 66.94852 
L 62.051714 66.825063 
L 64.546498 66.888261 
L 67.041282 66.419419 
L 69.536066 64.685146 
L 72.030849 59.158987 
L 74.525633 54.940881 
L 77.020417 59.422067 
L 79.515201 72.899429 
L 82.009985 93.269793 
L 84.504769 107.903827 
L 86.999553 110.808 
L 89.494337 106.635456 
L 91.989121 99.061972 
L 94.483905 90.907948 
L 96.978689 83.396192 
L 99.473472 77.636347 
L 101.968256 72.903838 
L 104.46304 69.211893 
L 106.957824 65.437644 
L 109.452608 61.761866 
L 111.947392 57.75981 
L 114.442176 53.875332 
L 116.93696 50.843293 
L 119.431744 48.291853 
L 121.926528 46.907374 
L 124.421311 46.219543 
L 126.916095 46.198967 
L 129.410879 47.265986 
L 131.905663 48.249231 
L 134.400447 49.480859 
L 136.895231 50.658107 
L 139.390015 51.791264 
L 141.884799 53.333004 
L 144.379583 54.616072 
L 146.874367 55.950581 
L 149.369151 57.042585 
L 151.863934 57.777447 
L 154.358718 59.042878 
L 156.853502 59.823301 
L 159.348286 60.755106 
L 161.84307 61.403254 
L 164.337854 62.340937 
L 166.832638 62.789203 
L 169.327422 63.338879 
L 171.822206 63.81507 
L 174.31699 63.944405 
L 176.811773 64.401489 
L 179.306557 64.642524 
L 181.801341 65.026122 
L 184.296125 65.683088 
L 186.790909 65.500842 
" clip-path="url(#pf1c0e0fbed)" style="fill: none; stroke: #ffca3a; stroke-opacity: 0.3; stroke-width: 1.5; stroke-linecap: square"/>
   </g>
   <g id="line2d_5">
    <path d="M 34.609091 66.170993 
L 37.103875 66.284059 
L 39.598659 66.265299 
L 42.093443 66.238427 
L 44.588227 66.406758 
L 47.08301 66.387998 
L 49.577794 66.186204 
L 52.072578 66.18012 
L 54.567362 66.233864 
L 57.062146 66.286594 
L 59.55693 66.148685 
L 62.051714 66.244004 
L 64.546498 66.42501 
L 67.041282 66.408786 
L 69.536066 66.321071 
L 72.030849 66.282538 
L 74.525633 66.286087 
L 77.020417 66.769277 
L 79.515201 75.667981 
L 82.009985 89.615588 
L 84.504769 102.660192 
L 86.999553 110.808 
L 89.494337 106.515064 
L 91.989121 96.157157 
L 94.483905 86.346324 
L 96.978689 78.360256 
L 99.473472 72.445363 
L 101.968256 68.354728 
L 104.46304 65.401845 
L 106.957824 62.89666 
L 109.452608 60.294634 
L 111.947392 57.851813 
L 114.442176 55.632081 
L 116.93696 53.548736 
L 119.431744 51.629666 
L 121.926528 50.166407 
L 124.421311 49.345035 
L 126.916095 49.158959 
L 129.410879 49.485987 
L 131.905663 50.219645 
L 134.400447 51.122647 
L 136.895231 52.286257 
L 139.390015 53.430094 
L 141.884799 54.47354 
L 144.379583 55.431301 
L 146.874367 56.350528 
L 149.369151 57.235277 
L 151.863934 58.161095 
L 154.358718 58.815658 
L 156.853502 59.518894 
L 159.348286 60.17802 
L 161.84307 60.762614 
L 164.337854 61.320335 
L 166.832638 61.914563 
L 169.327422 62.287729 
L 171.822206 62.768384 
L 174.31699 63.27084 
L 176.811773 63.732735 
L 179.306557 63.965457 
L 181.801341 64.17435 
L 184.296125 64.333554 
L 186.790909 64.693538 
" clip-path="url(#pf1c0e0fbed)" style="fill: none; stroke: #ffca3a; stroke-opacity: 0.3; stroke-width: 1.5; stroke-linecap: square"/>
   </g>
   <g id="line2d_6">
    <path d="M 34.609091 66.182807 
L 37.103875 66.073573 
L 39.598659 66.146181 
L 42.093443 66.121765 
L 44.588227 66.341517 
L 47.08301 66.442398 
L 49.577794 66.57155 
L 52.072578 66.553559 
L 54.567362 66.416053 
L 57.062146 66.527214 
L 59.55693 66.630023 
L 62.051714 66.757248 
L 64.546498 66.541993 
L 67.041282 66.712912 
L 69.536066 66.822146 
L 72.030849 67.065672 
L 74.525633 67.217957 
L 77.020417 67.526382 
L 79.515201 69.852418 
L 82.009985 79.711726 
L 84.504769 96.061446 
L 86.999553 110.808 
L 89.494337 106.714305 
L 91.989121 89.322367 
L 94.483905 77.076623 
L 96.978689 70.365816 
L 99.473472 66.539423 
L 101.968256 64.018694 
L 104.46304 61.919479 
L 106.957824 60.304747 
L 109.452608 59.197631 
L 111.947392 58.037826 
L 114.442176 57.404913 
L 116.93696 56.421166 
L 119.431744 55.320476 
L 121.926528 54.585397 
L 124.421311 53.7096 
L 126.916095 53.234112 
L 129.410879 53.038133 
L 131.905663 53.296439 
L 134.400447 54.011599 
L 136.895231 54.720975 
L 139.390015 55.752913 
L 141.884799 56.544536 
L 144.379583 57.490372 
L 146.874367 58.435565 
L 149.369151 59.202129 
L 151.863934 59.912148 
L 154.358718 60.443538 
L 156.853502 61.034043 
L 159.348286 61.706794 
L 161.84307 62.260031 
L 164.337854 62.721383 
L 166.832638 63.03302 
L 169.327422 63.237351 
L 171.822206 63.41341 
L 174.31699 63.845848 
L 176.811773 64.167123 
L 179.306557 64.34254 
L 181.801341 64.641969 
L 184.296125 64.832164 
L 186.790909 64.974168 
" clip-path="url(#pf1c0e0fbed)" style="fill: none; stroke: #ffca3a; stroke-opacity: 0.3; stroke-width: 1.5; stroke-linecap: square"/>
   </g>
   <g id="line2d_7">
    <path d="M 34.609091 66.26229 
L 37.103875 66.341649 
L 39.598659 65.760972 
L 42.093443 64.899633 
L 44.588227 64.504773 
L 47.08301 64.61123 
L 49.577794 65.135776 
L 52.072578 65.205457 
L 54.567362 65.259654 
L 57.062146 64.944152 
L 59.55693 64.146688 
L 62.051714 63.428584 
L 64.546498 63.498265 
L 67.041282 63.355031 
L 69.536066 63.176957 
L 72.030849 62.213032 
L 74.525633 60.592942 
L 77.020417 60.918121 
L 79.515201 67.135242 
L 82.009985 82.664495 
L 84.504769 102.668836 
L 86.999553 110.808 
L 89.494337 105.425119 
L 91.989121 95.580699 
L 94.483905 85.174958 
L 96.978689 76.561574 
L 99.473472 69.186969 
L 101.968256 63.809895 
L 104.46304 59.538044 
L 106.957824 56.388836 
L 109.452608 53.237693 
L 111.947392 51.141447 
L 114.442176 50.444634 
L 116.93696 49.596845 
L 119.431744 49.974285 
L 121.926528 50.376888 
L 124.421311 51.168545 
L 126.916095 52.842832 
L 129.410879 53.872567 
L 131.905663 55.353295 
L 134.400447 56.479809 
L 136.895231 57.666327 
L 139.390015 58.440564 
L 141.884799 59.919356 
L 144.379583 60.44003 
L 146.874367 61.365243 
L 149.369151 62.33691 
L 151.863934 63.519556 
L 154.358718 64.158302 
L 156.853502 64.423478 
L 159.348286 64.245403 
L 161.84307 64.278308 
L 164.337854 64.65962 
L 166.832638 65.325464 
L 169.327422 66.093894 
L 171.822206 66.331971 
L 174.31699 66.361005 
L 176.811773 66.523595 
L 179.306557 66.5565 
L 181.801341 66.554564 
L 184.296125 66.664893 
L 186.790909 66.763608 
" clip-path="url(#pf1c0e0fbed)" style="fill: none; stroke: #ffca3a; stroke-opacity: 0.3; stroke-width: 1.5; stroke-linecap: square"/>
   </g>
   <g id="line2d_8">
    <path d="M 34.609091 65.830229 
L 37.103875 65.584403 
L 39.598659 65.943906 
L 42.093443 66.22952 
L 44.588227 66.381563 
L 47.08301 66.024901 
L 49.577794 66.013534 
L 52.072578 65.985114 
L 54.567362 65.608559 
L 57.062146 65.852965 
L 59.55693 65.996482 
L 62.051714 65.830229 
L 64.546498 65.895594 
L 67.041282 65.469304 
L 69.536066 63.109083 
L 72.030849 56.473182 
L 74.525633 51.967305 
L 77.020417 54.382944 
L 79.515201 65.310156 
L 82.009985 87.494245 
L 84.504769 106.361804 
L 86.999553 110.808 
L 89.494337 105.304607 
L 91.989121 97.067279 
L 94.483905 88.584124 
L 96.978689 81.401152 
L 99.473472 75.227064 
L 101.968256 70.368788 
L 104.46304 66.422771 
L 106.957824 62.667164 
L 109.452608 59.465732 
L 111.947392 56.828423 
L 114.442176 54.55346 
L 116.93696 52.954875 
L 119.431744 51.471389 
L 121.926528 50.658598 
L 124.421311 50.384352 
L 126.916095 50.540658 
L 129.410879 51.639063 
L 131.905663 51.93036 
L 134.400447 53.023082 
L 136.895231 54.358788 
L 139.390015 55.70444 
L 141.884799 56.862526 
L 144.379583 57.624163 
L 146.874367 58.557736 
L 149.369151 59.273902 
L 151.863934 59.828078 
L 154.358718 60.625238 
L 156.853502 61.283145 
L 159.348286 61.972312 
L 161.84307 62.954198 
L 164.337854 63.583685 
L 166.832638 63.643366 
L 169.327422 64.399319 
L 171.822206 64.478893 
L 174.31699 64.677828 
L 176.811773 65.067172 
L 179.306557 65.314419 
L 181.801341 65.598612 
L 184.296125 65.673923 
L 186.790909 65.7876 
" clip-path="url(#pf1c0e0fbed)" style="fill: none; stroke: #ffca3a; stroke-opacity: 0.3; stroke-width: 1.5; stroke-linecap: square"/>
   </g>
   <g id="line2d_9">
    <path d="M 34.609091 65.954671 
L 37.103875 65.874138 
L 39.598659 65.737061 
L 42.093443 65.483468 
L 44.588227 65.163051 
L 47.08301 64.743252 
L 49.577794 64.972856 
L 52.072578 64.870048 
L 54.567362 65.032827 
L 57.062146 65.029401 
L 59.55693 64.767241 
L 62.051714 64.390279 
L 64.546498 63.536974 
L 67.041282 63.365628 
L 69.536066 63.033216 
L 72.030849 62.351257 
L 74.525633 62.198759 
L 77.020417 65.603411 
L 79.515201 75.949302 
L 82.009985 92.345433 
L 84.504769 106.603161 
L 86.999553 110.808 
L 89.494337 105.669324 
L 91.989121 97.910762 
L 94.483905 90.2413 
L 96.978689 84.211622 
L 99.473472 78.524638 
L 101.968256 73.507617 
L 104.46304 69.064607 
L 106.957824 64.426261 
L 109.452608 60.812567 
L 111.947392 57.925382 
L 114.442176 55.298642 
L 116.93696 53.290463 
L 119.431744 51.779189 
L 121.926528 50.444401 
L 124.421311 49.6425 
L 126.916095 49.313515 
L 129.410879 49.466013 
L 131.905663 49.208994 
L 134.400447 50.081147 
L 136.895231 51.201752 
L 139.390015 51.943681 
L 141.884799 52.802126 
L 144.379583 53.727396 
L 146.874367 55.166706 
L 149.369151 56.825338 
L 151.863934 57.627239 
L 154.358718 58.643323 
L 156.853502 59.865022 
L 159.348286 60.644648 
L 161.84307 61.571632 
L 164.337854 61.940026 
L 166.832638 62.366679 
L 169.327422 62.820746 
L 171.822206 63.231977 
L 174.31699 63.829976 
L 176.811773 64.356009 
L 179.306557 64.506794 
L 181.801341 64.595894 
L 184.296125 64.75696 
L 186.790909 65.259005 
" clip-path="url(#pf1c0e0fbed)" style="fill: none; stroke: #ffca3a; stroke-opacity: 0.3; stroke-width: 1.5; stroke-linecap: square"/>
   </g>
   <g id="line2d_10">
    <path d="M 34.609091 65.478407 
L 37.103875 65.533911 
L 39.598659 65.773583 
L 42.093443 65.402722 
L 44.588227 65.329558 
L 47.08301 65.137821 
L 49.577794 65.483453 
L 52.072578 65.542741 
L 54.567362 65.653747 
L 57.062146 65.644917 
L 59.55693 65.560401 
L 62.051714 65.473362 
L 64.546498 65.314421 
L 67.041282 65.33965 
L 69.536066 65.271532 
L 72.030849 64.904456 
L 74.525633 64.201837 
L 77.020417 65.583106 
L 79.515201 74.123007 
L 82.009985 93.542767 
L 84.504769 107.812097 
L 86.999553 110.808 
L 89.494337 105.624772 
L 91.989121 93.917413 
L 94.483905 81.619703 
L 96.978689 71.974787 
L 99.473472 65.902249 
L 101.968256 63.504265 
L 104.46304 63.282253 
L 106.957824 62.637661 
L 109.452608 60.534852 
L 111.947392 57.552824 
L 114.442176 55.340271 
L 116.93696 53.713023 
L 119.431744 52.025225 
L 121.926528 51.225477 
L 124.421311 50.457264 
L 126.916095 50.286971 
L 129.410879 50.865968 
L 131.905663 52.28508 
L 134.400447 53.469566 
L 136.895231 54.058655 
L 139.390015 55.467676 
L 141.884799 57.015454 
L 144.379583 58.382847 
L 146.874367 59.658156 
L 149.369151 60.317885 
L 151.863934 60.976353 
L 154.358718 61.065915 
L 156.853502 61.291712 
L 159.348286 61.455698 
L 161.84307 61.421639 
L 164.337854 61.861879 
L 166.832638 62.254185 
L 169.327422 62.9013 
L 171.822206 63.154848 
L 174.31699 63.673297 
L 176.811773 64.073171 
L 179.306557 64.267432 
L 181.801341 64.53864 
L 184.296125 64.667306 
L 186.790909 64.676136 
" clip-path="url(#pf1c0e0fbed)" style="fill: none; stroke: #ffca3a; stroke-opacity: 0.3; stroke-width: 1.5; stroke-linecap: square"/>
   </g>
   <g id="line2d_11">
    <path d="M 34.609091 66.83555 
L 37.103875 66.866146 
L 39.598659 66.670548 
L 42.093443 66.168986 
L 44.588227 66.229086 
L 47.08301 66.037859 
L 49.577794 66.19849 
L 52.072578 66.173357 
L 54.567362 66.108886 
L 57.062146 66.143853 
L 59.55693 66.348193 
L 62.051714 66.249848 
L 64.546498 66.346008 
L 67.041282 66.431241 
L 69.536066 66.165708 
L 72.030849 65.549409 
L 74.525633 63.107163 
L 77.020417 60.505379 
L 79.515201 72.339619 
L 82.009985 89.503091 
L 84.504769 105.140022 
L 86.999553 110.808 
L 89.494337 104.37402 
L 91.989121 94.485928 
L 94.483905 84.291873 
L 96.978689 75.107498 
L 99.473472 68.503052 
L 101.968256 63.875351 
L 104.46304 60.659454 
L 106.957824 57.673029 
L 109.452608 54.636339 
L 111.947392 51.48382 
L 114.442176 48.814287 
L 116.93696 46.815688 
L 119.431744 45.8071 
L 121.926528 45.936042 
L 124.421311 46.955557 
L 126.916095 48.601205 
L 129.410879 50.424967 
L 131.905663 51.953693 
L 134.400447 53.640864 
L 136.895231 55.334592 
L 139.390015 56.590136 
L 141.884799 57.822733 
L 144.379583 59.166788 
L 146.874367 60.298853 
L 149.369151 61.368634 
L 151.863934 61.982747 
L 154.358718 62.641661 
L 156.853502 63.57048 
L 159.348286 64.057836 
L 161.84307 64.452311 
L 164.337854 65.011787 
L 166.832638 65.599675 
L 169.327422 65.937328 
L 171.822206 66.261868 
L 174.31699 66.372233 
L 176.811773 66.663992 
L 179.306557 66.769986 
L 181.801341 66.762337 
L 184.296125 66.865053 
L 186.790909 66.818066 
" clip-path="url(#pf1c0e0fbed)" style="fill: none; stroke: #ffca3a; stroke-opacity: 0.3; stroke-width: 1.5; stroke-linecap: square"/>
   </g>
   <g id="line2d_12">
    <path d="M 34.609091 65.982686 
L 37.103875 66.021553 
L 39.598659 66.087685 
L 42.093443 66.009951 
L 44.588227 65.987907 
L 47.08301 66.196165 
L 49.577794 66.217629 
L 52.072578 66.38818 
L 54.567362 66.425307 
L 57.062146 66.345832 
L 59.55693 66.192685 
L 62.051714 66.11205 
L 64.546498 65.761666 
L 67.041282 65.529044 
L 69.536066 64.451209 
L 72.030849 60.530277 
L 74.525633 57.154064 
L 77.020417 57.95345 
L 79.515201 63.422102 
L 82.009985 79.99861 
L 84.504769 103.199339 
L 86.999553 110.808 
L 89.494337 105.291199 
L 91.989121 96.485781 
L 94.483905 88.621294 
L 96.978689 82.104392 
L 99.473472 76.353228 
L 101.968256 71.094574 
L 104.46304 66.559891 
L 106.957824 62.891305 
L 109.452608 59.850974 
L 111.947392 57.320555 
L 114.442176 55.352258 
L 116.93696 53.843984 
L 119.431744 53.044019 
L 121.926528 52.261457 
L 124.421311 52.06016 
L 126.916095 52.173281 
L 129.410879 52.605459 
L 131.905663 53.197166 
L 134.400447 53.828321 
L 136.895231 54.520967 
L 139.390015 55.406787 
L 141.884799 56.267084 
L 144.379583 57.035143 
L 146.874367 57.892538 
L 149.369151 58.778939 
L 151.863934 59.526695 
L 154.358718 60.363787 
L 156.853502 60.951434 
L 159.348286 61.54082 
L 161.84307 61.960817 
L 164.337854 62.279294 
L 166.832638 62.562966 
L 169.327422 62.886085 
L 171.822206 62.97078 
L 174.31699 63.289258 
L 176.811773 63.449947 
L 179.306557 63.867043 
L 181.801341 64.063118 
L 184.296125 64.433225 
L 186.790909 64.553887 
" clip-path="url(#pf1c0e0fbed)" style="fill: none; stroke: #ffca3a; stroke-opacity: 0.3; stroke-width: 1.5; stroke-linecap: square"/>
   </g>
   <g id="line2d_13">
    <path d="M 34.609091 66.451748 
L 37.103875 66.416515 
L 39.598659 66.480787 
L 42.093443 66.472269 
L 44.588227 66.530733 
L 47.08301 66.626753 
L 49.577794 66.668181 
L 52.072578 66.734775 
L 54.567362 66.813373 
L 57.062146 66.779688 
L 59.55693 66.727806 
L 62.051714 66.604684 
L 64.546498 66.522215 
L 67.041282 65.932156 
L 69.536066 63.068976 
L 72.030849 58.315207 
L 74.525633 57.204006 
L 77.020417 60.225929 
L 79.515201 65.143475 
L 82.009985 73.919634 
L 84.504769 90.402181 
L 86.999553 106.632287 
L 89.494337 110.808 
L 91.989121 105.691445 
L 94.483905 97.228513 
L 96.978689 88.192944 
L 99.473472 79.476023 
L 101.968256 71.820356 
L 104.46304 65.37462 
L 106.957824 60.042794 
L 109.452608 55.798551 
L 111.947392 52.564842 
L 114.442176 50.273911 
L 116.93696 48.592398 
L 119.431744 47.766935 
L 121.926528 47.665881 
L 124.421311 48.104166 
L 126.916095 49.210721 
L 129.410879 50.454723 
L 131.905663 51.684787 
L 134.400447 53.029842 
L 136.895231 54.335406 
L 139.390015 55.548434 
L 141.884799 56.740167 
L 144.379583 57.852142 
L 146.874367 58.724067 
L 149.369151 59.654842 
L 151.863934 60.412162 
L 154.358718 61.202779 
L 156.853502 61.938804 
L 159.348286 62.560224 
L 161.84307 63.234688 
L 164.337854 63.750796 
L 166.832638 64.246771 
L 169.327422 64.631626 
L 171.822206 65.06449 
L 174.31699 65.270082 
L 176.811773 65.549624 
L 179.306557 65.929446 
L 181.801341 66.202406 
L 184.296125 66.435487 
L 186.790909 66.576033 
" clip-path="url(#pf1c0e0fbed)" style="fill: none; stroke: #ffca3a; stroke-opacity: 0.3; stroke-width: 1.5; stroke-linecap: square"/>
   </g>
   <g id="line2d_14">
    <path d="M 34.609091 66.516269 
L 37.103875 66.322022 
L 39.598659 66.176996 
L 42.093443 65.861456 
L 44.588227 65.901008 
L 47.08301 66.023181 
L 49.577794 66.302685 
L 52.072578 66.726336 
L 54.567362 66.927614 
L 57.062146 67.293255 
L 59.55693 67.224697 
L 62.051714 67.050666 
L 64.546498 66.922341 
L 67.041282 66.749189 
L 69.536066 65.881671 
L 72.030849 63.212319 
L 74.525633 60.375968 
L 77.020417 60.265221 
L 79.515201 64.955265 
L 82.009985 83.521193 
L 84.504769 108.285432 
L 86.999553 110.808 
L 89.494337 101.451644 
L 91.989121 91.523975 
L 94.483905 83.550198 
L 96.978689 77.830911 
L 99.473472 74.000474 
L 101.968256 71.429564 
L 104.46304 69.204078 
L 106.957824 67.411912 
L 109.452608 65.698851 
L 111.947392 63.694859 
L 114.442176 61.043965 
L 116.93696 58.522276 
L 119.431744 56.345132 
L 121.926528 54.20842 
L 124.421311 52.618411 
L 126.916095 51.103991 
L 129.410879 50.093205 
L 131.905663 49.75657 
L 134.400447 49.695044 
L 136.895231 50.137153 
L 139.390015 51.06268 
L 141.884799 52.12796 
L 144.379583 53.352329 
L 146.874367 54.742818 
L 149.369151 56.235264 
L 151.863934 57.329549 
L 154.358718 58.691912 
L 156.853502 59.685997 
L 159.348286 60.353115 
L 161.84307 60.808408 
L 164.337854 61.43949 
L 166.832638 61.840288 
L 169.327422 62.356228 
L 171.822206 63.018073 
L 174.31699 63.454029 
L 176.811773 63.743201 
L 179.306557 64.056105 
L 181.801341 64.139605 
L 184.296125 64.422625 
L 186.790909 64.832212 
" clip-path="url(#pf1c0e0fbed)" style="fill: none; stroke: #ffca3a; stroke-opacity: 0.3; stroke-width: 1.5; stroke-linecap: square"/>
   </g>
   <g id="line2d_15">
    <path d="M 34.609091 65.473886 
L 37.103875 65.4112 
L 39.598659 65.431434 
L 42.093443 65.47944 
L 44.588227 65.588942 
L 47.08301 65.718678 
L 49.577794 65.790092 
L 52.072578 65.784934 
L 54.567362 65.666307 
L 57.062146 65.61354 
L 59.55693 65.54292 
L 62.051714 65.559583 
L 64.546498 65.498484 
L 67.041282 64.683966 
L 69.536066 61.370348 
L 72.030849 56.57806 
L 74.525633 53.761565 
L 77.020417 51.091071 
L 79.515201 55.140255 
L 82.009985 80.465308 
L 84.504769 104.335495 
L 86.999553 110.808 
L 89.494337 106.125214 
L 91.989121 96.654901 
L 94.483905 86.441881 
L 96.978689 77.525424 
L 99.473472 70.391942 
L 101.968256 64.564942 
L 104.46304 59.85359 
L 106.957824 56.421743 
L 109.452608 54.37533 
L 111.947392 53.431472 
L 114.442176 53.232306 
L 116.93696 53.675471 
L 119.431744 54.282888 
L 121.926528 55.013296 
L 124.421311 55.847255 
L 126.916095 56.619322 
L 129.410879 57.245783 
L 131.905663 57.93493 
L 134.400447 58.515368 
L 136.895231 59.109693 
L 139.390015 59.690925 
L 141.884799 60.149166 
L 144.379583 60.631608 
L 146.874367 61.202922 
L 149.369151 61.693696 
L 151.863934 62.230492 
L 154.358718 62.62208 
L 156.853502 62.953759 
L 159.348286 63.434614 
L 161.84307 63.746853 
L 164.337854 64.027352 
L 166.832638 64.355461 
L 169.327422 64.647465 
L 171.822206 64.785929 
L 174.31699 64.927171 
L 176.811773 65.151332 
L 179.306557 65.270752 
L 181.801341 65.448891 
L 184.296125 65.598464 
L 186.790909 65.690112 
" clip-path="url(#pf1c0e0fbed)" style="fill: none; stroke: #ffca3a; stroke-opacity: 0.3; stroke-width: 1.5; stroke-linecap: square"/>
   </g>
   <g id="line2d_16">
    <path d="M 34.609091 66.198538 
L 37.103875 66.253454 
L 39.598659 66.332649 
L 42.093443 66.427452 
L 44.588227 66.550581 
L 47.08301 66.535551 
L 49.577794 66.504335 
L 52.072578 66.398549 
L 54.567362 66.332071 
L 57.062146 66.266172 
L 59.55693 66.23669 
L 62.051714 65.981762 
L 64.546498 65.827418 
L 67.041282 65.77597 
L 69.536066 65.510059 
L 72.030849 63.586251 
L 74.525633 63.136515 
L 77.020417 67.329816 
L 79.515201 76.462125 
L 82.009985 92.9567 
L 84.504769 108.170856 
L 86.999553 110.808 
L 89.494337 104.902463 
L 91.989121 96.421058 
L 94.483905 87.660447 
L 96.978689 79.921858 
L 99.473472 73.247492 
L 101.968256 67.840827 
L 104.46304 63.270048 
L 106.957824 59.373296 
L 109.452608 55.910094 
L 111.947392 53.005883 
L 114.442176 50.632338 
L 116.93696 48.829346 
L 119.431744 48.062251 
L 121.926528 48.099825 
L 124.421311 48.40042 
L 126.916095 49.399321 
L 129.410879 50.449669 
L 131.905663 51.648581 
L 134.400447 52.793732 
L 136.895231 53.896107 
L 139.390015 54.864948 
L 141.884799 55.744189 
L 144.379583 56.688751 
L 146.874367 57.604409 
L 149.369151 58.443763 
L 151.863934 59.302193 
L 154.358718 60.051369 
L 156.853502 60.543882 
L 159.348286 61.05316 
L 161.84307 61.81274 
L 164.337854 62.360748 
L 166.832638 62.954423 
L 169.327422 63.264268 
L 171.822206 63.729612 
L 174.31699 64.159694 
L 176.811773 64.537172 
L 179.306557 64.684001 
L 181.801341 64.847594 
L 184.296125 65.079977 
L 186.790909 65.241836 
" clip-path="url(#pf1c0e0fbed)" style="fill: none; stroke: #ffca3a; stroke-opacity: 0.3; stroke-width: 1.5; stroke-linecap: square"/>
   </g>
   <g id="line2d_17">
    <path d="M 34.609091 65.878532 
L 37.103875 65.915967 
L 39.598659 66.094231 
L 42.093443 66.056795 
L 44.588227 65.769791 
L 47.08301 65.17261 
L 49.577794 65.076347 
L 52.072578 65.28135 
L 54.567362 65.081695 
L 57.062146 65.07813 
L 59.55693 64.573645 
L 62.051714 63.625285 
L 64.546498 61.024424 
L 67.041282 57.23633 
L 69.536066 52.717357 
L 72.030849 49.373138 
L 74.525633 48.647607 
L 77.020417 50.749331 
L 79.515201 61.700042 
L 82.009985 85.940277 
L 84.504769 107.278388 
L 86.999553 110.808 
L 89.494337 103.951996 
L 91.989121 94.981789 
L 94.483905 87.585647 
L 96.978689 81.528262 
L 99.473472 77.002158 
L 101.968256 73.274674 
L 104.46304 70.598943 
L 106.957824 68.231607 
L 109.452608 66.636151 
L 111.947392 65.186871 
L 114.442176 63.919419 
L 116.93696 63.163583 
L 119.431744 62.530748 
L 121.926528 61.537822 
L 124.421311 61.477213 
L 126.916095 61.115338 
L 129.410879 60.867552 
L 131.905663 60.386241 
L 134.400447 59.462838 
L 136.895231 59.01718 
L 139.390015 58.840699 
L 141.884799 58.985092 
L 144.379583 58.969049 
L 146.874367 58.152603 
L 149.369151 58.024254 
L 151.863934 58.067037 
L 154.358718 57.760424 
L 156.853502 57.80499 
L 159.348286 57.562552 
L 161.84307 57.441333 
L 164.337854 58.330866 
L 166.832638 58.086646 
L 169.327422 58.573304 
L 171.822206 58.838917 
L 174.31699 58.935179 
L 176.811773 59.115225 
L 179.306557 59.703493 
L 181.801341 60.224022 
L 184.296125 60.487852 
L 186.790909 60.876465 
" clip-path="url(#pf1c0e0fbed)" style="fill: none; stroke: #ffca3a; stroke-opacity: 0.3; stroke-width: 1.5; stroke-linecap: square"/>
   </g>
   <g id="line2d_18">
    <path d="M 34.609091 65.854613 
L 37.103875 65.812522 
L 39.598659 65.570676 
L 42.093443 65.634883 
L 44.588227 65.717638 
L 47.08301 65.888857 
L 49.577794 66.177074 
L 52.072578 66.28908 
L 54.567362 66.451737 
L 57.062146 66.747089 
L 59.55693 67.033166 
L 62.051714 67.531126 
L 64.546498 67.642418 
L 67.041282 67.533267 
L 69.536066 66.813436 
L 72.030849 63.768602 
L 74.525633 58.258937 
L 77.020417 55.785545 
L 79.515201 57.686069 
L 82.009985 65.127648 
L 84.504769 84.960445 
L 86.999553 105.597967 
L 89.494337 110.808 
L 91.989121 105.943258 
L 94.483905 97.213974 
L 96.978689 88.020973 
L 99.473472 79.665516 
L 101.968256 72.90453 
L 104.46304 67.241482 
L 106.957824 62.120625 
L 109.452608 57.516991 
L 111.947392 53.689547 
L 114.442176 50.988577 
L 116.93696 49.588866 
L 119.431744 49.2236 
L 121.926528 49.665915 
L 124.421311 50.21738 
L 126.916095 51.075613 
L 129.410879 52.04371 
L 131.905663 53.100983 
L 134.400447 54.075501 
L 136.895231 54.864533 
L 139.390015 55.712064 
L 141.884799 56.663753 
L 144.379583 57.56693 
L 146.874367 58.408753 
L 149.369151 59.2199 
L 151.863934 59.87053 
L 154.358718 60.556831 
L 156.853502 61.45002 
L 159.348286 62.068546 
L 161.84307 62.829755 
L 164.337854 63.441147 
L 166.832638 63.847077 
L 169.327422 64.501274 
L 171.822206 64.867254 
L 174.31699 65.401598 
L 176.811773 65.879582 
L 179.306557 66.128562 
L 181.801341 66.413926 
L 184.296125 66.858381 
L 186.790909 66.777052 
" clip-path="url(#pf1c0e0fbed)" style="fill: none; stroke: #ffca3a; stroke-opacity: 0.3; stroke-width: 1.5; stroke-linecap: square"/>
   </g>
   <g id="line2d_19">
    <path d="M 34.609091 66.620177 
L 37.103875 66.728995 
L 39.598659 66.823391 
L 42.093443 66.941386 
L 44.588227 67.101335 
L 47.08301 67.088224 
L 49.577794 66.898121 
L 52.072578 67.038404 
L 54.567362 67.037093 
L 57.062146 66.584779 
L 59.55693 66.57429 
L 62.051714 67.096091 
L 64.546498 67.098713 
L 67.041282 66.957119 
L 69.536066 66.318635 
L 72.030849 64.788632 
L 74.525633 61.736495 
L 77.020417 62.498218 
L 79.515201 69.732624 
L 82.009985 85.684239 
L 84.504769 103.987888 
L 86.999553 110.808 
L 89.494337 107.327147 
L 91.989121 100.281533 
L 94.483905 92.057281 
L 96.978689 84.738968 
L 99.473472 78.186311 
L 101.968256 73.41669 
L 104.46304 69.399616 
L 106.957824 66.003981 
L 109.452608 63.002975 
L 111.947392 60.198626 
L 114.442176 57.177954 
L 116.93696 54.14286 
L 119.431744 51.626944 
L 121.926528 49.453213 
L 124.421311 47.877324 
L 126.916095 47.122156 
L 129.410879 46.861256 
L 131.905663 47.537761 
L 134.400447 48.519742 
L 136.895231 49.763934 
L 139.390015 50.821956 
L 141.884799 51.921931 
L 144.379583 53.06255 
L 146.874367 54.410315 
L 149.369151 55.581088 
L 151.863934 56.726951 
L 154.358718 57.585692 
L 156.853502 58.669935 
L 159.348286 58.987211 
L 161.84307 59.784333 
L 164.337854 60.670606 
L 166.832638 61.429708 
L 169.327422 61.969863 
L 171.822206 62.416933 
L 174.31699 62.807627 
L 176.811773 63.507731 
L 179.306557 64.155393 
L 181.801341 64.632617 
L 184.296125 64.960381 
L 186.790909 65.373363 
" clip-path="url(#pf1c0e0fbed)" style="fill: none; stroke: #ffca3a; stroke-opacity: 0.3; stroke-width: 1.5; stroke-linecap: square"/>
   </g>
   <g id="line2d_20">
    <path d="M 34.609091 65.065252 
L 37.103875 64.799938 
L 39.598659 65.069601 
L 42.093443 65.013059 
L 44.588227 64.765143 
L 47.08301 64.939119 
L 49.577794 65.158764 
L 52.072578 65.241403 
L 54.567362 65.511066 
L 57.062146 65.59588 
L 59.55693 65.737236 
L 62.051714 65.604579 
L 64.546498 65.245752 
L 67.041282 64.554196 
L 69.536066 58.25625 
L 72.030849 37.218152 
L 74.525633 20.088 
L 77.020417 30.907158 
L 79.515201 55.022464 
L 82.009985 80.527406 
L 84.504769 101.134911 
L 86.999553 110.808 
L 89.494337 109.759792 
L 91.989121 102.441909 
L 94.483905 92.229494 
L 96.978689 82.271519 
L 99.473472 73.383499 
L 101.968256 67.605308 
L 104.46304 64.086635 
L 106.957824 61.627043 
L 109.452608 59.985141 
L 111.947392 59.458862 
L 114.442176 59.526278 
L 116.93696 59.315331 
L 119.431744 59.639363 
L 121.926528 59.913375 
L 124.421311 60.35919 
L 126.916095 60.154768 
L 129.410879 61.109463 
L 131.905663 61.137734 
L 134.400447 61.457416 
L 136.895231 61.898881 
L 139.390015 62.151147 
L 141.884799 62.16637 
L 144.379583 62.549118 
L 146.874367 62.375142 
L 149.369151 62.838354 
L 151.863934 62.805733 
L 154.358718 62.951438 
L 156.853502 63.445097 
L 159.348286 63.395078 
L 161.84307 63.358108 
L 164.337854 63.475542 
L 166.832638 63.292867 
L 169.327422 63.071047 
L 171.822206 63.255897 
L 174.31699 63.547308 
L 176.811773 63.536434 
L 179.306557 63.347235 
L 181.801341 63.560356 
L 184.296125 63.595151 
L 186.790909 63.97355 
" clip-path="url(#pf1c0e0fbed)" style="fill: none; stroke: #ffca3a; stroke-opacity: 0.3; stroke-width: 1.5; stroke-linecap: square"/>
   </g>
   <g id="line2d_21">
    <path d="M 34.609091 66.070229 
L 37.103875 66.041135 
L 39.598659 66.061275 
L 42.093443 65.95594 
L 44.588227 65.960362 
L 47.08301 65.938441 
L 49.577794 66.019836 
L 52.072578 66.071956 
L 54.567362 66.101781 
L 57.062146 66.077391 
L 59.55693 66.00155 
L 62.051714 65.885957 
L 64.546498 65.658154 
L 67.041282 65.162164 
L 69.536066 63.369109 
L 72.030849 59.604271 
L 74.525633 56.781782 
L 77.020417 58.431502 
L 79.515201 67.688405 
L 82.009985 85.814503 
L 84.504769 103.598842 
L 86.999553 110.306531 
L 89.494337 106.186341 
L 91.989121 97.349387 
L 94.483905 88.32734 
L 96.978689 80.552822 
L 99.473472 74.174741 
L 101.968256 69.292184 
L 104.46304 65.473747 
L 106.957824 62.266127 
L 109.452608 59.438342 
L 111.947392 57.046674 
L 114.442176 55.111265 
L 116.93696 53.552331 
L 119.431744 52.448107 
L 121.926528 51.821409 
L 124.421311 51.580943 
L 126.916095 51.697924 
L 129.410879 52.192588 
L 131.905663 52.795601 
L 134.400447 53.511404 
L 136.895231 54.366091 
L 139.390015 55.289996 
L 141.884799 56.230974 
L 144.379583 57.10487 
L 146.874367 57.980618 
L 149.369151 58.838998 
L 151.863934 59.520627 
L 154.358718 60.215736 
L 156.853502 60.850335 
L 159.348286 61.337481 
L 161.84307 61.854539 
L 164.337854 62.399819 
L 166.832638 62.776834 
L 169.327422 63.199726 
L 171.822206 63.545855 
L 174.31699 63.868964 
L 176.811773 64.214066 
L 179.306557 64.459183 
L 181.801341 64.731128 
L 184.296125 64.968646 
L 186.790909 65.140427 
" clip-path="url(#pf1c0e0fbed)" style="fill: none; stroke: #000000; stroke-width: 1.5; stroke-linecap: square"/>
   </g>
   <g id="patch_3">
    <path d="M 27 115.344 
L 27 15.552 
" style="fill: none; stroke: #000000; stroke-width: 0.8; stroke-linejoin: miter; stroke-linecap: square"/>
   </g>
   <g id="patch_4">
    <path d="M 27 115.344 
L 194.4 115.344 
" style="fill: none; stroke: #000000; stroke-width: 0.8; stroke-linejoin: miter; stroke-linecap: square"/>
   </g>
   <g id="text_1">
    <!-- 3 -->
    <g transform="translate(35.887879 41.579828) scale(0.12 -0.12)">
     <defs>
      <path id="ArialMT-33" d="M 269 1209 
L 831 1284 
Q 928 806 1161 595 
Q 1394 384 1728 384 
Q 2125 384 2398 659 
Q 2672 934 2672 1341 
Q 2672 1728 2419 1979 
Q 2166 2231 1775 2231 
Q 1616 2231 1378 2169 
L 1441 2663 
Q 1497 2656 1531 2656 
Q 1891 2656 2178 2843 
Q 2466 3031 2466 3422 
Q 2466 3731 2256 3934 
Q 2047 4138 1716 4138 
Q 1388 4138 1169 3931 
Q 950 3725 888 3313 
L 325 3413 
Q 428 3978 793 4289 
Q 1159 4600 1703 4600 
Q 2078 4600 2393 4439 
Q 2709 4278 2876 4000 
Q 3044 3722 3044 3409 
Q 3044 3113 2884 2869 
Q 2725 2625 2413 2481 
Q 2819 2388 3044 2092 
Q 3269 1797 3269 1353 
Q 3269 753 2831 336 
Q 2394 -81 1725 -81 
Q 1122 -81 723 278 
Q 325 638 269 1209 
z
" transform="scale(0.015625)"/>
     </defs>
     <use xlink:href="#ArialMT-33"/>
    </g>
   </g>
   <g id="text_2">
    <!-- n = 20 (14.49%) -->
    <g transform="translate(134.400447 110.808) scale(0.1 -0.1)">
     <defs>
      <path id="ArialMT-6e" d="M 422 0 
L 422 3319 
L 928 3319 
L 928 2847 
Q 1294 3394 1984 3394 
Q 2284 3394 2536 3286 
Q 2788 3178 2913 3003 
Q 3038 2828 3088 2588 
Q 3119 2431 3119 2041 
L 3119 0 
L 2556 0 
L 2556 2019 
Q 2556 2363 2490 2533 
Q 2425 2703 2258 2804 
Q 2091 2906 1866 2906 
Q 1506 2906 1245 2678 
Q 984 2450 984 1813 
L 984 0 
L 422 0 
z
" transform="scale(0.015625)"/>
      <path id="ArialMT-20" transform="scale(0.015625)"/>
      <path id="ArialMT-3d" d="M 3381 2694 
L 356 2694 
L 356 3219 
L 3381 3219 
L 3381 2694 
z
M 3381 1303 
L 356 1303 
L 356 1828 
L 3381 1828 
L 3381 1303 
z
" transform="scale(0.015625)"/>
      <path id="ArialMT-32" d="M 3222 541 
L 3222 0 
L 194 0 
Q 188 203 259 391 
Q 375 700 629 1000 
Q 884 1300 1366 1694 
Q 2113 2306 2375 2664 
Q 2638 3022 2638 3341 
Q 2638 3675 2398 3904 
Q 2159 4134 1775 4134 
Q 1369 4134 1125 3890 
Q 881 3647 878 3216 
L 300 3275 
Q 359 3922 746 4261 
Q 1134 4600 1788 4600 
Q 2447 4600 2831 4234 
Q 3216 3869 3216 3328 
Q 3216 3053 3103 2787 
Q 2991 2522 2730 2228 
Q 2469 1934 1863 1422 
Q 1356 997 1212 845 
Q 1069 694 975 541 
L 3222 541 
z
" transform="scale(0.015625)"/>
      <path id="ArialMT-30" d="M 266 2259 
Q 266 3072 433 3567 
Q 600 4063 929 4331 
Q 1259 4600 1759 4600 
Q 2128 4600 2406 4451 
Q 2684 4303 2865 4023 
Q 3047 3744 3150 3342 
Q 3253 2941 3253 2259 
Q 3253 1453 3087 958 
Q 2922 463 2592 192 
Q 2263 -78 1759 -78 
Q 1097 -78 719 397 
Q 266 969 266 2259 
z
M 844 2259 
Q 844 1131 1108 757 
Q 1372 384 1759 384 
Q 2147 384 2411 759 
Q 2675 1134 2675 2259 
Q 2675 3391 2411 3762 
Q 2147 4134 1753 4134 
Q 1366 4134 1134 3806 
Q 844 3388 844 2259 
z
" transform="scale(0.015625)"/>
      <path id="ArialMT-28" d="M 1497 -1347 
Q 1031 -759 709 28 
Q 388 816 388 1659 
Q 388 2403 628 3084 
Q 909 3875 1497 4659 
L 1900 4659 
Q 1522 4009 1400 3731 
Q 1209 3300 1100 2831 
Q 966 2247 966 1656 
Q 966 153 1900 -1347 
L 1497 -1347 
z
" transform="scale(0.015625)"/>
      <path id="ArialMT-31" d="M 2384 0 
L 1822 0 
L 1822 3584 
Q 1619 3391 1289 3197 
Q 959 3003 697 2906 
L 697 3450 
Q 1169 3672 1522 3987 
Q 1875 4303 2022 4600 
L 2384 4600 
L 2384 0 
z
" transform="scale(0.015625)"/>
      <path id="ArialMT-34" d="M 2069 0 
L 2069 1097 
L 81 1097 
L 81 1613 
L 2172 4581 
L 2631 4581 
L 2631 1613 
L 3250 1613 
L 3250 1097 
L 2631 1097 
L 2631 0 
L 2069 0 
z
M 2069 1613 
L 2069 3678 
L 634 1613 
L 2069 1613 
z
" transform="scale(0.015625)"/>
      <path id="ArialMT-2e" d="M 581 0 
L 581 641 
L 1222 641 
L 1222 0 
L 581 0 
z
" transform="scale(0.015625)"/>
      <path id="ArialMT-39" d="M 350 1059 
L 891 1109 
Q 959 728 1153 556 
Q 1347 384 1650 384 
Q 1909 384 2104 503 
Q 2300 622 2425 820 
Q 2550 1019 2634 1356 
Q 2719 1694 2719 2044 
Q 2719 2081 2716 2156 
Q 2547 1888 2255 1720 
Q 1963 1553 1622 1553 
Q 1053 1553 659 1965 
Q 266 2378 266 3053 
Q 266 3750 677 4175 
Q 1088 4600 1706 4600 
Q 2153 4600 2523 4359 
Q 2894 4119 3086 3673 
Q 3278 3228 3278 2384 
Q 3278 1506 3087 986 
Q 2897 466 2520 194 
Q 2144 -78 1638 -78 
Q 1100 -78 759 220 
Q 419 519 350 1059 
z
M 2653 3081 
Q 2653 3566 2395 3850 
Q 2138 4134 1775 4134 
Q 1400 4134 1122 3828 
Q 844 3522 844 3034 
Q 844 2597 1108 2323 
Q 1372 2050 1759 2050 
Q 2150 2050 2401 2323 
Q 2653 2597 2653 3081 
z
" transform="scale(0.015625)"/>
      <path id="ArialMT-25" d="M 372 3481 
Q 372 3972 619 4315 
Q 866 4659 1334 4659 
Q 1766 4659 2048 4351 
Q 2331 4044 2331 3447 
Q 2331 2866 2045 2552 
Q 1759 2238 1341 2238 
Q 925 2238 648 2547 
Q 372 2856 372 3481 
z
M 1350 4272 
Q 1141 4272 1002 4090 
Q 863 3909 863 3425 
Q 863 2984 1003 2804 
Q 1144 2625 1350 2625 
Q 1563 2625 1702 2806 
Q 1841 2988 1841 3469 
Q 1841 3913 1700 4092 
Q 1559 4272 1350 4272 
z
M 1353 -169 
L 3859 4659 
L 4316 4659 
L 1819 -169 
L 1353 -169 
z
M 3334 1075 
Q 3334 1569 3581 1911 
Q 3828 2253 4300 2253 
Q 4731 2253 5014 1945 
Q 5297 1638 5297 1041 
Q 5297 459 5011 145 
Q 4725 -169 4303 -169 
Q 3888 -169 3611 142 
Q 3334 453 3334 1075 
z
M 4316 1866 
Q 4103 1866 3964 1684 
Q 3825 1503 3825 1019 
Q 3825 581 3965 400 
Q 4106 219 4313 219 
Q 4528 219 4667 400 
Q 4806 581 4806 1063 
Q 4806 1506 4665 1686 
Q 4525 1866 4316 1866 
z
" transform="scale(0.015625)"/>
      <path id="ArialMT-29" d="M 791 -1347 
L 388 -1347 
Q 1322 153 1322 1656 
Q 1322 2244 1188 2822 
Q 1081 3291 891 3722 
Q 769 4003 388 4659 
L 791 4659 
Q 1378 3875 1659 3084 
Q 1900 2403 1900 1659 
Q 1900 816 1576 28 
Q 1253 -759 791 -1347 
z
" transform="scale(0.015625)"/>
     </defs>
     <use xlink:href="#ArialMT-6e"/>
     <use xlink:href="#ArialMT-20" x="55.615234"/>
     <use xlink:href="#ArialMT-3d" x="83.398438"/>
     <use xlink:href="#ArialMT-20" x="141.796875"/>
     <use xlink:href="#ArialMT-32" x="169.580078"/>
     <use xlink:href="#ArialMT-30" x="225.195312"/>
     <use xlink:href="#ArialMT-20" x="280.810547"/>
     <use xlink:href="#ArialMT-28" x="308.59375"/>
     <use xlink:href="#ArialMT-31" x="341.894531"/>
     <use xlink:href="#ArialMT-34" x="397.509766"/>
     <use xlink:href="#ArialMT-2e" x="453.125"/>
     <use xlink:href="#ArialMT-34" x="480.908203"/>
     <use xlink:href="#ArialMT-39" x="536.523438"/>
     <use xlink:href="#ArialMT-25" x="592.138672"/>
     <use xlink:href="#ArialMT-29" x="681.054688"/>
    </g>
   </g>
  </g>
 </g>
 <defs>
  <clipPath id="pf1c0e0fbed">
   <rect x="27" y="15.552" width="167.4" height="99.792"/>
  </clipPath>
 </defs>
</svg>
