<?xml version="1.0" encoding="utf-8" standalone="no"?>
<!DOCTYPE svg PUBLIC "-//W3C//DTD SVG 1.1//EN"
  "http://www.w3.org/Graphics/SVG/1.1/DTD/svg11.dtd">
<svg xmlns:xlink="http://www.w3.org/1999/xlink" width="216pt" height="129.6pt" viewBox="0 0 216 129.6" xmlns="http://www.w3.org/2000/svg" version="1.1">
 <metadata>
  <rdf:RDF xmlns:dc="http://purl.org/dc/elements/1.1/" xmlns:cc="http://creativecommons.org/ns#" xmlns:rdf="http://www.w3.org/1999/02/22-rdf-syntax-ns#">
   <cc:Work>
    <dc:type rdf:resource="http://purl.org/dc/dcmitype/StillImage"/>
    <dc:date>2025-05-21T13:30:33.002689</dc:date>
    <dc:format>image/svg+xml</dc:format>
    <dc:creator>
     <cc:Agent>
      <dc:title>Matplotlib v3.9.4, https://matplotlib.org/</dc:title>
     </cc:Agent>
    </dc:creator>
   </cc:Work>
  </rdf:RDF>
 </metadata>
 <defs>
  <style type="text/css">*{stroke-linejoin: round; stroke-linecap: butt}</style>
 </defs>
 <g id="figure_1">
  <g id="patch_1">
   <path d="M 0 129.6 
L 216 129.6 
L 216 0 
L 0 0 
z
" style="fill: #ffffff"/>
  </g>
  <g id="axes_1">
   <g id="patch_2">
    <path d="M 27 115.344 
L 194.4 115.344 
L 194.4 15.552 
L 27 15.552 
z
" style="fill: #ffffff"/>
   </g>
   <g id="matplotlib.axis_1"/>
   <g id="matplotlib.axis_2"/>
   <g id="line2d_1">
    <path d="M 34.609091 56.843791 
L 37.103875 57.283797 
L 39.598659 57.057448 
L 42.093443 57.4763 
L 44.588227 57.639186 
L 47.08301 57.207642 
L 49.577794 57.838035 
L 52.072578 58.432467 
L 54.567362 58.011499 
L 57.062146 58.110924 
L 59.55693 58.377466 
L 62.051714 58.013615 
L 64.546498 58.462082 
L 67.041282 58.316119 
L 69.536066 58.792087 
L 72.030849 58.618623 
L 74.525633 58.6017 
L 77.020417 60.323647 
L 79.515201 68.525106 
L 82.009985 91.697351 
L 84.504769 108.789895 
L 86.999553 110.808 
L 89.494337 106.342361 
L 91.989121 91.020418 
L 94.483905 71.598803 
L 96.978689 57.96496 
L 99.473472 47.961168 
L 101.968256 40.153175 
L 104.46304 36.521009 
L 106.957824 35.797538 
L 109.452608 35.875808 
L 111.947392 35.505611 
L 114.442176 35.355416 
L 116.93696 35.334262 
L 119.431744 36.184658 
L 121.926528 37.951029 
L 124.421311 39.474127 
L 126.916095 41.63608 
L 129.410879 43.846688 
L 131.905663 45.558057 
L 134.400447 46.894999 
L 136.895231 48.011938 
L 139.390015 49.257916 
L 141.884799 49.829078 
L 144.379583 50.768322 
L 146.874367 51.034864 
L 149.369151 51.75622 
L 151.863934 52.293535 
L 154.358718 52.655271 
L 156.853502 52.868928 
L 159.348286 52.892198 
L 161.84307 53.46759 
L 164.337854 53.871634 
L 166.832638 54.049329 
L 169.327422 53.662208 
L 171.822206 53.514129 
L 174.31699 54.275678 
L 176.811773 54.573952 
L 179.306557 54.675491 
L 181.801341 54.495681 
L 184.296125 54.787608 
L 186.790909 54.872225 
" clip-path="url(#pfdf44be2bb)" style="fill: none; stroke: #fe7f2d; stroke-opacity: 0.3; stroke-width: 1.5; stroke-linecap: square"/>
   </g>
   <g id="line2d_2">
    <path d="M 34.609091 58.251105 
L 37.103875 57.793238 
L 39.598659 57.478455 
L 42.093443 57.60723 
L 44.588227 57.34968 
L 47.08301 57.368758 
L 49.577794 57.497533 
L 52.072578 58.51104 
L 54.567362 57.90532 
L 57.062146 57.697849 
L 59.55693 58.296415 
L 62.051714 57.569074 
L 64.546498 57.705004 
L 67.041282 57.712158 
L 69.536066 57.037281 
L 72.030849 57.273369 
L 74.525633 59.960951 
L 77.020417 66.671559 
L 79.515201 75.807431 
L 82.009985 87.721503 
L 84.504769 103.472594 
L 86.999553 110.808 
L 89.494337 103.556059 
L 91.989121 90.480627 
L 94.483905 77.049871 
L 96.978689 63.709734 
L 99.473472 52.515848 
L 101.968256 43.804457 
L 104.46304 37.46825 
L 106.957824 34.244105 
L 109.452608 31.856998 
L 111.947392 31.439672 
L 114.442176 32.298172 
L 116.93696 33.693235 
L 119.431744 34.935675 
L 121.926528 36.514361 
L 124.421311 38.033429 
L 126.916095 39.678888 
L 129.410879 41.498431 
L 131.905663 42.848184 
L 134.400447 44.631956 
L 136.895231 46.587428 
L 139.390015 47.808406 
L 141.884799 48.831452 
L 144.379583 50.014274 
L 146.874367 50.581838 
L 149.369151 51.280562 
L 151.863934 52.294069 
L 154.358718 52.62316 
L 156.853502 53.262266 
L 159.348286 53.61759 
L 161.84307 54.228078 
L 164.337854 54.786103 
L 166.832638 54.666867 
L 169.327422 54.585787 
L 171.822206 54.995959 
L 174.31699 55.608833 
L 176.811773 55.71853 
L 179.306557 56.076238 
L 181.801341 55.928385 
L 184.296125 56.112009 
L 186.790909 56.455409 
" clip-path="url(#pfdf44be2bb)" style="fill: none; stroke: #fe7f2d; stroke-opacity: 0.3; stroke-width: 1.5; stroke-linecap: square"/>
   </g>
   <g id="line2d_3">
    <path d="M 34.609091 56.919694 
L 37.103875 56.695083 
L 39.598659 56.626042 
L 42.093443 56.784375 
L 44.588227 56.796342 
L 47.08301 56.82672 
L 49.577794 56.714414 
L 52.072578 56.829481 
L 54.567362 56.755838 
L 57.062146 56.808309 
L 59.55693 56.811991 
L 62.051714 56.817514 
L 64.546498 56.872747 
L 67.041282 56.82764 
L 69.536066 56.813832 
L 72.030849 56.068196 
L 74.525633 52.093312 
L 77.020417 44.984916 
L 79.515201 49.264498 
L 82.009985 72.860654 
L 84.504769 100.891963 
L 86.999553 110.808 
L 89.494337 102.212014 
L 91.989121 85.779487 
L 94.483905 70.415705 
L 96.978689 59.055343 
L 99.473472 50.625054 
L 101.968256 44.157353 
L 104.46304 39.296911 
L 106.957824 36.719404 
L 109.452608 36.37144 
L 111.947392 36.929287 
L 114.442176 38.154523 
L 116.93696 39.67249 
L 119.431744 41.213471 
L 121.926528 42.83546 
L 124.421311 44.51268 
L 126.916095 45.990144 
L 129.410879 47.398568 
L 131.905663 48.414842 
L 134.400447 49.636396 
L 136.895231 50.473165 
L 139.390015 51.26759 
L 141.884799 52.186287 
L 144.379583 52.899704 
L 146.874367 53.446503 
L 149.369151 53.991462 
L 151.863934 54.625713 
L 154.358718 54.954345 
L 156.853502 55.324401 
L 159.348286 55.547172 
L 161.84307 55.955891 
L 164.337854 56.230211 
L 166.832638 56.575413 
L 169.327422 56.545035 
L 171.822206 56.531227 
L 174.31699 56.329629 
L 176.811773 56.216403 
L 179.306557 56.503611 
L 181.801341 56.626042 
L 184.296125 56.672069 
L 186.790909 56.652738 
" clip-path="url(#pfdf44be2bb)" style="fill: none; stroke: #fe7f2d; stroke-opacity: 0.3; stroke-width: 1.5; stroke-linecap: square"/>
   </g>
   <g id="line2d_4">
    <path d="M 34.609091 56.201606 
L 37.103875 56.005379 
L 39.598659 55.754013 
L 42.093443 55.643736 
L 44.588227 55.517243 
L 47.08301 55.580489 
L 49.577794 56.097817 
L 52.072578 56.128629 
L 54.567362 56.138359 
L 57.062146 56.321613 
L 59.55693 56.446485 
L 62.051714 56.368643 
L 64.546498 56.444864 
L 67.041282 56.388104 
L 69.536066 56.075113 
L 72.030849 55.220469 
L 74.525633 57.521683 
L 77.020417 64.152876 
L 79.515201 74.337247 
L 82.009985 90.890094 
L 84.504769 106.186112 
L 86.999553 110.808 
L 89.494337 103.356219 
L 91.989121 90.390606 
L 94.483905 76.477911 
L 96.978689 64.276126 
L 99.473472 53.949044 
L 101.968256 45.478826 
L 104.46304 38.64654 
L 106.957824 34.649012 
L 109.452608 33.181359 
L 111.947392 32.762957 
L 114.442176 32.994862 
L 116.93696 34.037625 
L 119.431744 35.643123 
L 121.926528 37.399441 
L 124.421311 39.026021 
L 126.916095 40.869911 
L 129.410879 42.658663 
L 131.905663 44.043608 
L 134.400447 45.653971 
L 136.895231 47.274064 
L 139.390015 48.42386 
L 141.884799 49.583387 
L 144.379583 49.953138 
L 146.874367 50.835351 
L 149.369151 51.582962 
L 151.863934 52.291651 
L 154.358718 52.91439 
L 156.853502 53.457664 
L 159.348286 54.237709 
L 161.84307 54.390151 
L 164.337854 54.845852 
L 166.832638 55.423183 
L 169.327422 55.603193 
L 171.822206 55.950241 
L 174.31699 56.587575 
L 176.811773 56.696229 
L 179.306557 56.812993 
L 181.801341 56.913539 
L 184.296125 57.229774 
L 186.790909 57.085441 
" clip-path="url(#pfdf44be2bb)" style="fill: none; stroke: #fe7f2d; stroke-opacity: 0.3; stroke-width: 1.5; stroke-linecap: square"/>
   </g>
   <g id="line2d_5">
    <path d="M 34.609091 58.022941 
L 37.103875 57.898417 
L 39.598659 58.110966 
L 42.093443 57.567786 
L 44.588227 57.969267 
L 47.08301 58.518888 
L 49.577794 58.78511 
L 52.072578 58.611207 
L 54.567362 58.780816 
L 57.062146 59.139358 
L 59.55693 59.326143 
L 62.051714 59.669656 
L 64.546498 59.834972 
L 67.041282 60.667991 
L 69.536066 60.959977 
L 72.030849 61.621239 
L 74.525633 63.044671 
L 77.020417 63.959274 
L 79.515201 67.038009 
L 82.009985 74.728405 
L 84.504769 87.826983 
L 86.999553 105.006925 
L 89.494337 110.808 
L 91.989121 98.400742 
L 94.483905 76.012285 
L 96.978689 52.915333 
L 99.473472 34.41716 
L 101.968256 25.655433 
L 104.46304 22.881566 
L 106.957824 24.09889 
L 109.452608 26.655914 
L 111.947392 29.758266 
L 114.442176 33.386621 
L 116.93696 36.308628 
L 119.431744 38.588696 
L 121.926528 40.806501 
L 124.421311 42.511184 
L 126.916095 44.939391 
L 129.410879 46.734246 
L 131.905663 48.490456 
L 134.400447 50.34972 
L 136.895231 51.283646 
L 139.390015 51.962084 
L 141.884799 52.823014 
L 144.379583 53.477835 
L 146.874367 54.474023 
L 149.369151 54.480464 
L 151.863934 54.705894 
L 154.358718 55.012909 
L 156.853502 55.78796 
L 159.348286 55.498121 
L 161.84307 55.826605 
L 164.337854 55.558235 
L 166.832638 55.893161 
L 169.327422 55.98548 
L 171.822206 56.180853 
L 174.31699 56.799176 
L 176.811773 56.964492 
L 179.306557 57.475467 
L 181.801341 57.726661 
L 184.296125 57.688016 
L 186.790909 57.404618 
" clip-path="url(#pfdf44be2bb)" style="fill: none; stroke: #fe7f2d; stroke-opacity: 0.3; stroke-width: 1.5; stroke-linecap: square"/>
   </g>
   <g id="line2d_6">
    <path d="M 34.609091 59.059751 
L 37.103875 58.950039 
L 39.598659 59.090608 
L 42.093443 59.258605 
L 44.588227 59.601456 
L 47.08301 59.709454 
L 49.577794 59.568885 
L 52.072578 59.606599 
L 54.567362 59.580885 
L 57.062146 59.654598 
L 59.55693 59.635741 
L 62.051714 59.743739 
L 64.546498 59.836309 
L 67.041282 59.560314 
L 69.536066 59.666598 
L 72.030849 59.678598 
L 74.525633 60.462013 
L 77.020417 64.781938 
L 79.515201 76.0926 
L 82.009985 90.072358 
L 84.504769 104.751533 
L 86.999553 110.808 
L 89.494337 104.180686 
L 91.989121 92.288891 
L 94.483905 78.686269 
L 96.978689 65.3065 
L 99.473472 53.515847 
L 101.968256 44.500574 
L 104.46304 37.825261 
L 106.957824 32.2625 
L 109.452608 27.616866 
L 111.947392 24.719773 
L 114.442176 24.154069 
L 116.93696 24.342637 
L 119.431744 25.396904 
L 121.926528 27.757435 
L 124.421311 30.37339 
L 126.916095 32.605351 
L 129.410879 35.301876 
L 131.905663 37.665835 
L 134.400447 40.271504 
L 136.895231 42.512037 
L 139.390015 44.552002 
L 141.884799 46.643394 
L 144.379583 48.523933 
L 146.874367 50.229618 
L 149.369151 51.791305 
L 151.863934 52.895286 
L 154.358718 54.256406 
L 156.853502 55.593525 
L 159.348286 56.529509 
L 161.84307 57.103785 
L 164.337854 57.828915 
L 166.832638 58.483761 
L 169.327422 58.840327 
L 171.822206 58.891754 
L 174.31699 59.598028 
L 176.811773 59.89288 
L 179.306557 60.408871 
L 181.801341 60.328301 
L 184.296125 60.240874 
L 186.790909 60.729437 
" clip-path="url(#pfdf44be2bb)" style="fill: none; stroke: #fe7f2d; stroke-opacity: 0.3; stroke-width: 1.5; stroke-linecap: square"/>
   </g>
   <g id="line2d_7">
    <path d="M 34.609091 57.085635 
L 37.103875 57.307906 
L 39.598659 57.531211 
L 42.093443 57.605646 
L 44.588227 58.009869 
L 47.08301 58.219734 
L 49.577794 57.789665 
L 52.072578 57.599443 
L 54.567362 57.177645 
L 57.062146 56.732069 
L 59.55693 56.590436 
L 62.051714 56.375402 
L 64.546498 56.511866 
L 67.041282 55.883304 
L 69.536066 54.267447 
L 72.030849 49.971932 
L 74.525633 47.981832 
L 77.020417 51.76664 
L 79.515201 60.626463 
L 82.009985 76.588616 
L 84.504769 99.660338 
L 86.999553 110.808 
L 89.494337 104.873883 
L 91.989121 89.482397 
L 94.483905 72.028444 
L 96.978689 57.672844 
L 99.473472 47.444246 
L 101.968256 40.561084 
L 104.46304 35.676293 
L 106.957824 32.653409 
L 109.452608 31.516209 
L 111.947392 31.938006 
L 114.442176 33.596251 
L 116.93696 35.874786 
L 119.431744 38.329071 
L 121.926528 40.811268 
L 124.421311 42.937832 
L 126.916095 45.177083 
L 129.410879 47.330526 
L 131.905663 49.210008 
L 134.400447 50.623237 
L 136.895231 51.774911 
L 139.390015 52.662961 
L 141.884799 53.498286 
L 144.379583 54.128915 
L 146.874367 54.355321 
L 149.369151 55.03454 
L 151.863934 55.657932 
L 154.358718 56.138658 
L 156.853502 56.678311 
L 159.348286 56.751712 
L 161.84307 56.784794 
L 164.337854 57.104244 
L 166.832638 57.033944 
L 169.327422 57.113548 
L 171.822206 57.192118 
L 174.31699 57.08977 
L 176.811773 57.052553 
L 179.306557 57.04635 
L 181.801341 56.666939 
L 184.296125 56.959509 
L 186.790909 57.263452 
" clip-path="url(#pfdf44be2bb)" style="fill: none; stroke: #fe7f2d; stroke-opacity: 0.3; stroke-width: 1.5; stroke-linecap: square"/>
   </g>
   <g id="line2d_8">
    <path d="M 34.609091 57.030379 
L 37.103875 56.918993 
L 39.598659 56.998978 
L 42.093443 57.038081 
L 44.588227 57.033934 
L 47.08301 57.276258 
L 49.577794 57.354466 
L 52.072578 57.261446 
L 54.567362 57.110364 
L 57.062146 57.080147 
L 59.55693 56.767318 
L 62.051714 56.873964 
L 64.546498 57.062965 
L 67.041282 57.030379 
L 69.536066 56.719327 
L 72.030849 56.531511 
L 74.525633 53.380703 
L 77.020417 51.320058 
L 79.515201 58.768715 
L 82.009985 73.138129 
L 84.504769 95.831294 
L 86.999553 110.808 
L 89.494337 107.273858 
L 91.989121 91.392434 
L 94.483905 72.972828 
L 96.978689 58.307173 
L 99.473472 48.043644 
L 101.968256 40.897744 
L 104.46304 35.389459 
L 106.957824 32.475643 
L 109.452608 31.603513 
L 111.947392 32.678271 
L 114.442176 34.580724 
L 116.93696 36.700617 
L 119.431744 38.794441 
L 121.926528 40.910779 
L 124.421311 42.871295 
L 126.916095 44.635108 
L 129.410879 46.295236 
L 131.905663 47.972547 
L 134.400447 49.394498 
L 136.895231 50.565239 
L 139.390015 51.442701 
L 141.884799 52.313054 
L 144.379583 53.09098 
L 146.874367 53.640209 
L 149.369151 54.296677 
L 151.863934 54.791398 
L 154.358718 55.287896 
L 156.853502 55.815203 
L 159.348286 56.234679 
L 161.84307 56.413015 
L 164.337854 56.524401 
L 166.832638 56.852635 
L 169.327422 56.91603 
L 171.822206 57.122213 
L 174.31699 57.273296 
L 176.811773 57.276851 
L 179.306557 57.2099 
L 181.801341 57.312992 
L 184.296125 57.424971 
L 186.790909 57.487181 
" clip-path="url(#pfdf44be2bb)" style="fill: none; stroke: #fe7f2d; stroke-opacity: 0.3; stroke-width: 1.5; stroke-linecap: square"/>
   </g>
   <g id="line2d_9">
    <path d="M 34.609091 57.001564 
L 37.103875 57.273193 
L 39.598659 57.161271 
L 42.093443 57.147439 
L 44.588227 57.019169 
L 47.08301 57.141151 
L 49.577794 57.645425 
L 52.072578 57.616502 
L 54.567362 57.313434 
L 57.062146 57.198998 
L 59.55693 57.349903 
L 62.051714 57.232951 
L 64.546498 57.236724 
L 67.041282 57.02923 
L 69.536066 56.463336 
L 72.030849 53.660275 
L 74.525633 49.755608 
L 77.020417 51.195494 
L 79.515201 59.97062 
L 82.009985 78.603615 
L 84.504769 100.702395 
L 86.999553 110.808 
L 89.494337 106.361333 
L 91.989121 92.992407 
L 94.483905 77.972329 
L 96.978689 65.64339 
L 99.473472 55.901215 
L 101.968256 48.095653 
L 104.46304 41.917351 
L 106.957824 37.158813 
L 109.452608 34.667623 
L 111.947392 33.452838 
L 114.442176 33.910583 
L 116.93696 35.200821 
L 119.431744 36.45962 
L 121.926528 38.427673 
L 124.421311 40.405786 
L 126.916095 42.079574 
L 129.410879 43.865283 
L 131.905663 45.190732 
L 134.400447 46.526241 
L 136.895231 47.865523 
L 139.390015 48.877844 
L 141.884799 50.159279 
L 144.379583 51.162798 
L 146.874367 51.868278 
L 149.369151 52.622804 
L 151.863934 53.383616 
L 154.358718 53.779742 
L 156.853502 54.124308 
L 159.348286 54.426118 
L 161.84307 55.15172 
L 164.337854 55.375562 
L 166.832638 55.726416 
L 169.327422 55.794324 
L 171.822206 56.117512 
L 174.31699 55.896185 
L 176.811773 56.111224 
L 179.306557 56.508607 
L 181.801341 56.50735 
L 184.296125 56.757601 
L 186.790909 56.844371 
" clip-path="url(#pfdf44be2bb)" style="fill: none; stroke: #fe7f2d; stroke-opacity: 0.3; stroke-width: 1.5; stroke-linecap: square"/>
   </g>
   <g id="line2d_10">
    <path d="M 34.609091 56.031962 
L 37.103875 56.133884 
L 39.598659 55.994347 
L 42.093443 55.985854 
L 44.588227 56.105977 
L 47.08301 56.474839 
L 49.577794 56.721151 
L 52.072578 57.035412 
L 54.567362 57.443102 
L 57.062146 57.487997 
L 59.55693 57.684561 
L 62.051714 57.753723 
L 64.546498 57.336326 
L 67.041282 57.437035 
L 69.536066 57.238044 
L 72.030849 56.958971 
L 74.525633 57.150682 
L 77.020417 61.387744 
L 79.515201 77.802112 
L 82.009985 96.981734 
L 84.504769 106.472656 
L 86.999553 110.808 
L 89.494337 108.713736 
L 91.989121 99.489754 
L 94.483905 86.419413 
L 96.978689 72.089601 
L 99.473472 58.799641 
L 101.968256 47.294538 
L 104.46304 38.142144 
L 106.957824 31.792618 
L 109.452608 29.268824 
L 111.947392 29.09774 
L 114.442176 30.062363 
L 116.93696 31.668855 
L 119.431744 33.553207 
L 121.926528 35.642617 
L 124.421311 37.715041 
L 126.916095 39.931854 
L 129.410879 41.725204 
L 131.905663 43.855868 
L 134.400447 45.713527 
L 136.895231 47.202322 
L 139.390015 48.852495 
L 141.884799 49.863226 
L 144.379583 50.359492 
L 146.874367 50.748981 
L 149.369151 51.126337 
L 151.863934 51.449091 
L 154.358718 52.095813 
L 156.853502 52.251124 
L 159.348286 52.604212 
L 161.84307 53.1842 
L 164.337854 52.992488 
L 166.832638 53.18784 
L 169.327422 53.05801 
L 171.822206 52.922113 
L 174.31699 53.107758 
L 176.811773 53.315243 
L 179.306557 53.440219 
L 181.801341 53.669545 
L 184.296125 53.517874 
L 186.790909 53.4657 
" clip-path="url(#pfdf44be2bb)" style="fill: none; stroke: #fe7f2d; stroke-opacity: 0.3; stroke-width: 1.5; stroke-linecap: square"/>
   </g>
   <g id="line2d_11">
    <path d="M 34.609091 54.292758 
L 37.103875 54.972211 
L 39.598659 55.614471 
L 42.093443 55.586349 
L 44.588227 55.697021 
L 47.08301 55.926529 
L 49.577794 56.026315 
L 52.072578 56.194137 
L 54.567362 56.329302 
L 57.062146 56.322045 
L 59.55693 56.082558 
L 62.051714 55.76415 
L 64.546498 55.774129 
L 67.041282 56.089816 
L 69.536066 55.991844 
L 72.030849 56.035387 
L 74.525633 56.317509 
L 77.020417 58.071024 
L 79.515201 64.022814 
L 82.009985 77.457657 
L 84.504769 99.22555 
L 86.999553 110.808 
L 89.494337 105.545642 
L 91.989121 89.899175 
L 94.483905 71.789804 
L 96.978689 56.946162 
L 99.473472 46.187402 
L 101.968256 38.097467 
L 104.46304 32.319849 
L 106.957824 29.559402 
L 109.452608 29.157536 
L 111.947392 30.305984 
L 114.442176 32.213713 
L 116.93696 34.647588 
L 119.431744 37.210278 
L 121.926528 39.795646 
L 124.421311 42.374664 
L 126.916095 44.834846 
L 129.410879 47.429286 
L 131.905663 50.154354 
L 134.400447 52.600022 
L 136.895231 54.430644 
L 139.390015 55.391313 
L 141.884799 55.749636 
L 144.379583 55.221676 
L 146.874367 54.789874 
L 149.369151 54.571252 
L 151.863934 54.150336 
L 154.358718 53.676805 
L 156.853502 53.298525 
L 159.348286 53.549805 
L 161.84307 53.552526 
L 164.337854 53.609676 
L 166.832638 53.740306 
L 169.327422 54.503216 
L 171.822206 55.56367 
L 174.31699 57.22647 
L 176.811773 58.940978 
L 179.306557 61.100894 
L 181.801341 62.684772 
L 184.296125 63.940264 
L 186.790909 64.453709 
" clip-path="url(#pfdf44be2bb)" style="fill: none; stroke: #fe7f2d; stroke-opacity: 0.3; stroke-width: 1.5; stroke-linecap: square"/>
   </g>
   <g id="line2d_12">
    <path d="M 34.609091 57.048632 
L 37.103875 57.315769 
L 39.598659 57.477671 
L 42.093443 57.148471 
L 44.588227 57.434497 
L 47.08301 57.504654 
L 49.577794 57.456084 
L 52.072578 57.064822 
L 54.567362 57.723221 
L 57.062146 57.666556 
L 59.55693 57.793379 
L 62.051714 58.176545 
L 64.546498 58.233211 
L 67.041282 58.424794 
L 69.536066 57.690841 
L 72.030849 57.62608 
L 74.525633 59.660642 
L 77.020417 62.286143 
L 79.515201 68.826961 
L 82.009985 82.343031 
L 84.504769 101.19915 
L 86.999553 110.808 
L 89.494337 104.512733 
L 91.989121 91.277292 
L 94.483905 77.340277 
L 96.978689 63.659607 
L 99.473472 52.860782 
L 101.968256 44.285403 
L 104.46304 37.569192 
L 106.957824 33.359755 
L 109.452608 31.090437 
L 111.947392 29.922048 
L 114.442176 30.129822 
L 116.93696 31.128214 
L 119.431744 32.868654 
L 121.926528 34.544334 
L 124.421311 36.676036 
L 126.916095 38.786151 
L 129.410879 40.95563 
L 131.905663 43.052254 
L 134.400447 44.282705 
L 136.895231 46.201237 
L 139.390015 47.893107 
L 141.884799 49.846717 
L 144.379583 51.554777 
L 146.874367 52.928241 
L 149.369151 53.386962 
L 151.863934 53.99679 
L 154.358718 54.968199 
L 156.853502 55.356762 
L 159.348286 55.440411 
L 161.84307 56.133889 
L 164.337854 56.419915 
L 166.832638 56.622292 
L 169.327422 57.52894 
L 171.822206 57.909408 
L 174.31699 57.464179 
L 176.811773 57.134979 
L 179.306557 56.598006 
L 181.801341 56.80578 
L 184.296125 56.889429 
L 186.790909 57.526241 
" clip-path="url(#pfdf44be2bb)" style="fill: none; stroke: #fe7f2d; stroke-opacity: 0.3; stroke-width: 1.5; stroke-linecap: square"/>
   </g>
   <g id="line2d_13">
    <path d="M 34.609091 57.076509 
L 37.103875 57.278703 
L 39.598659 57.316533 
L 42.093443 57.496551 
L 44.588227 57.140428 
L 47.08301 57.0739 
L 49.577794 57.398715 
L 52.072578 57.587865 
L 54.567362 57.732662 
L 57.062146 57.814844 
L 59.55693 58.124005 
L 62.051714 58.199665 
L 64.546498 58.297501 
L 67.041282 58.791899 
L 69.536066 58.667973 
L 72.030849 58.442298 
L 74.525633 58.707108 
L 77.020417 59.511971 
L 79.515201 62.371389 
L 82.009985 75.709687 
L 84.504769 99.644268 
L 86.999553 110.808 
L 89.494337 97.214024 
L 91.989121 79.744441 
L 94.483905 66.116548 
L 96.978689 56.13337 
L 99.473472 49.043527 
L 101.968256 44.535247 
L 104.46304 42.465039 
L 106.957824 40.350479 
L 109.452608 38.254181 
L 111.947392 36.369209 
L 114.442176 34.914715 
L 116.93696 34.772526 
L 119.431744 35.773062 
L 121.926528 37.381484 
L 124.421311 39.443866 
L 126.916095 41.550599 
L 129.410879 43.134237 
L 131.905663 44.618734 
L 134.400447 46.801127 
L 136.895231 48.050818 
L 139.390015 49.566623 
L 141.884799 50.760221 
L 144.379583 52.011217 
L 146.874367 52.726071 
L 149.369151 53.615726 
L 151.863934 54.187088 
L 154.358718 54.783235 
L 156.853502 55.162838 
L 159.348286 55.744636 
L 161.84307 56.070755 
L 164.337854 56.102063 
L 166.832638 56.407311 
L 169.327422 56.739953 
L 171.822206 57.043897 
L 174.31699 57.110425 
L 176.811773 56.926494 
L 179.306557 57.580038 
L 181.801341 57.733966 
L 184.296125 57.852674 
L 186.790909 57.831802 
" clip-path="url(#pfdf44be2bb)" style="fill: none; stroke: #fe7f2d; stroke-opacity: 0.3; stroke-width: 1.5; stroke-linecap: square"/>
   </g>
   <g id="line2d_14">
    <path d="M 34.609091 57.420931 
L 37.103875 57.507401 
L 39.598659 57.468908 
L 42.093443 57.515211 
L 44.588227 57.632922 
L 47.08301 57.799725 
L 49.577794 57.762906 
L 52.072578 57.881174 
L 54.567362 58.023989 
L 57.062146 58.125521 
L 59.55693 58.272241 
L 62.051714 58.237095 
L 64.546498 58.161783 
L 67.041282 58.128311 
L 69.536066 58.295114 
L 72.030849 58.507104 
L 74.525633 59.313227 
L 77.020417 64.136015 
L 79.515201 78.800751 
L 82.009985 95.973114 
L 84.504769 107.66217 
L 86.999553 110.808 
L 89.494337 104.163765 
L 91.989121 93.024769 
L 94.483905 79.598506 
L 96.978689 66.857307 
L 99.473472 56.319137 
L 101.968256 47.217484 
L 104.46304 38.775791 
L 106.957824 32.832799 
L 109.452608 30.275522 
L 111.947392 30.09254 
L 114.442176 31.230596 
L 116.93696 33.022475 
L 119.431744 34.869583 
L 121.926528 36.376391 
L 124.421311 37.899377 
L 126.916095 39.27118 
L 129.410879 40.499052 
L 131.905663 41.783827 
L 134.400447 42.992174 
L 136.895231 44.227857 
L 139.390015 45.270517 
L 141.884799 46.437023 
L 144.379583 47.61915 
L 146.874367 48.736565 
L 149.369151 49.515351 
L 151.863934 50.177543 
L 154.358718 50.923974 
L 156.853502 51.646416 
L 159.348286 52.151846 
L 161.84307 52.843048 
L 164.337854 53.429927 
L 166.832638 54.075383 
L 169.327422 54.421263 
L 171.822206 54.976344 
L 174.31699 55.367968 
L 176.811773 55.673123 
L 179.306557 56.066422 
L 181.801341 56.411186 
L 184.296125 56.517181 
L 186.790909 56.792769 
" clip-path="url(#pfdf44be2bb)" style="fill: none; stroke: #fe7f2d; stroke-opacity: 0.3; stroke-width: 1.5; stroke-linecap: square"/>
   </g>
   <g id="line2d_15">
    <path d="M 34.609091 55.962537 
L 37.103875 56.217888 
L 39.598659 56.571451 
L 42.093443 56.634307 
L 44.588227 56.710257 
L 47.08301 56.758709 
L 49.577794 56.845135 
L 52.072578 56.770494 
L 54.567362 56.930252 
L 57.062146 57.024536 
L 59.55693 56.915848 
L 62.051714 57.143699 
L 64.546498 57.338814 
L 67.041282 57.261554 
L 69.536066 58.124509 
L 72.030849 61.179554 
L 74.525633 68.967105 
L 77.020417 76.644657 
L 79.515201 82.869983 
L 82.009985 92.042976 
L 84.504769 104.896952 
L 86.999553 110.808 
L 89.494337 105.291109 
L 91.989121 92.012858 
L 94.483905 75.517185 
L 96.978689 58.720328 
L 99.473472 44.45341 
L 101.968256 35.157325 
L 104.46304 30.653981 
L 106.957824 29.279014 
L 109.452608 29.878762 
L 111.947392 31.103137 
L 114.442176 32.777978 
L 116.93696 34.979234 
L 119.431744 36.748358 
L 121.926528 38.592123 
L 124.421311 40.293153 
L 126.916095 41.890734 
L 129.410879 43.517123 
L 131.905663 44.829234 
L 134.400447 46.200273 
L 136.895231 47.34215 
L 139.390015 48.241771 
L 141.884799 49.085084 
L 144.379583 50.009586 
L 146.874367 50.693141 
L 149.369151 51.171105 
L 151.863934 51.431694 
L 154.358718 52.026204 
L 156.853502 52.08775 
L 159.348286 52.891778 
L 161.84307 53.416884 
L 164.337854 53.714139 
L 166.832638 54.17639 
L 169.327422 54.58888 
L 171.822206 54.988275 
L 174.31699 55.512072 
L 176.811773 55.756947 
L 179.306557 56.064678 
L 181.801341 55.776589 
L 184.296125 56.08432 
L 186.790909 56.242769 
" clip-path="url(#pfdf44be2bb)" style="fill: none; stroke: #fe7f2d; stroke-opacity: 0.3; stroke-width: 1.5; stroke-linecap: square"/>
   </g>
   <g id="line2d_16">
    <path d="M 34.609091 58.981167 
L 37.103875 59.131266 
L 39.598659 59.125707 
L 42.093443 58.794006 
L 44.588227 58.806978 
L 47.08301 58.964489 
L 49.577794 58.642054 
L 52.072578 59.138678 
L 54.567362 59.268394 
L 57.062146 59.203536 
L 59.55693 59.68163 
L 62.051714 59.878056 
L 64.546498 60.146752 
L 67.041282 60.424713 
L 69.536066 61.286394 
L 72.030849 64.14569 
L 74.525633 70.090358 
L 77.020417 76.255543 
L 79.515201 82.192798 
L 82.009985 92.406954 
L 84.504769 105.254331 
L 86.999553 110.808 
L 89.494337 104.003504 
L 91.989121 89.653283 
L 94.483905 73.362891 
L 96.978689 58.171373 
L 99.473472 46.026312 
L 101.968256 36.953651 
L 104.46304 30.21216 
L 106.957824 26.018649 
L 109.452608 24.072919 
L 111.947392 23.933938 
L 114.442176 24.49542 
L 116.93696 25.870403 
L 119.431744 27.734597 
L 121.926528 29.821161 
L 124.421311 32.209776 
L 126.916095 35.165433 
L 129.410879 37.17602 
L 131.905663 39.638758 
L 134.400447 41.643787 
L 136.895231 43.493157 
L 139.390015 45.216518 
L 141.884799 47.075153 
L 144.379583 49.093153 
L 146.874367 50.679386 
L 149.369151 51.852383 
L 151.863934 53.377465 
L 154.358718 54.617173 
L 156.853502 55.454763 
L 159.348286 56.594405 
L 161.84307 57.035437 
L 164.337854 57.897117 
L 166.832638 58.234377 
L 169.327422 58.784741 
L 171.822206 58.83848 
L 174.31699 59.275806 
L 176.811773 59.233185 
L 179.306557 59.362901 
L 181.801341 59.527824 
L 184.296125 59.398109 
L 186.790909 59.983681 
" clip-path="url(#pfdf44be2bb)" style="fill: none; stroke: #fe7f2d; stroke-opacity: 0.3; stroke-width: 1.5; stroke-linecap: square"/>
   </g>
   <g id="line2d_17">
    <path d="M 34.609091 56.222609 
L 37.103875 56.481652 
L 39.598659 55.93857 
L 42.093443 56.386215 
L 44.588227 56.386215 
L 47.08301 56.411211 
L 49.577794 56.279417 
L 52.072578 56.270327 
L 54.567362 56.720244 
L 57.062146 56.917935 
L 59.55693 57.18834 
L 62.051714 58.156343 
L 64.546498 57.647346 
L 67.041282 57.783685 
L 69.536066 57.597356 
L 72.030849 59.203878 
L 74.525633 62.984999 
L 77.020417 68.740756 
L 79.515201 77.016503 
L 82.009985 88.509838 
L 84.504769 103.554792 
L 86.999553 110.808 
L 89.494337 106.499703 
L 91.989121 94.690517 
L 94.483905 79.26836 
L 96.978689 63.850748 
L 99.473472 49.926043 
L 101.968256 40.243737 
L 104.46304 35.090141 
L 106.957824 32.002074 
L 109.452608 30.665957 
L 111.947392 30.952268 
L 114.442176 31.883914 
L 116.93696 33.433629 
L 119.431744 35.053784 
L 121.926528 36.646673 
L 124.421311 39.421161 
L 126.916095 40.85726 
L 129.410879 42.184288 
L 131.905663 44.258906 
L 134.400447 45.51322 
L 136.895231 46.247175 
L 139.390015 46.994765 
L 141.884799 48.610376 
L 144.379583 49.417045 
L 146.874367 50.21917 
L 149.369151 51.214441 
L 151.863934 52.091552 
L 154.358718 52.546014 
L 156.853502 53.636722 
L 159.348286 53.813962 
L 161.84307 54.10709 
L 164.337854 55.152352 
L 166.832638 55.452296 
L 169.327422 55.320503 
L 171.822206 55.365949 
L 174.31699 55.472747 
L 176.811773 55.695433 
L 179.306557 56.14535 
L 181.801341 56.874761 
L 184.296125 56.511192 
L 186.790909 57.279232 
" clip-path="url(#pfdf44be2bb)" style="fill: none; stroke: #fe7f2d; stroke-opacity: 0.3; stroke-width: 1.5; stroke-linecap: square"/>
   </g>
   <g id="line2d_18">
    <path d="M 34.609091 57.241756 
L 37.103875 57.828644 
L 39.598659 57.752754 
L 42.093443 58.187861 
L 44.588227 58.079084 
L 47.08301 57.86659 
L 49.577794 57.909594 
L 52.072578 58.084143 
L 54.567362 57.831174 
L 57.062146 58.471186 
L 59.55693 58.536958 
L 62.051714 58.615379 
L 64.546498 58.617908 
L 67.041282 58.615379 
L 69.536066 55.941493 
L 72.030849 54.545103 
L 74.525633 54.600756 
L 77.020417 59.771448 
L 79.515201 74.102158 
L 82.009985 93.583322 
L 84.504769 107.820433 
L 86.999553 110.808 
L 89.494337 103.40106 
L 91.989121 93.416362 
L 94.483905 82.39955 
L 96.978689 72.126468 
L 99.473472 62.920916 
L 101.968256 53.687537 
L 104.46304 46.116167 
L 106.957824 38.992552 
L 109.452608 33.614425 
L 111.947392 30.050088 
L 114.442176 27.963091 
L 116.93696 27.044813 
L 119.431744 27.775894 
L 121.926528 29.29118 
L 124.421311 30.171513 
L 126.916095 32.053605 
L 129.410879 34.330328 
L 131.905663 36.748714 
L 134.400447 38.777528 
L 136.895231 41.2288 
L 139.390015 44.211308 
L 141.884799 46.523447 
L 144.379583 48.038733 
L 146.874367 49.440183 
L 149.369151 50.45712 
L 151.863934 51.537298 
L 154.358718 53.09053 
L 156.853502 53.988571 
L 159.348286 55.06622 
L 161.84307 55.883311 
L 164.337854 56.343715 
L 166.832638 56.584035 
L 169.327422 57.418834 
L 171.822206 57.980426 
L 174.31699 58.289048 
L 176.811773 58.326994 
L 179.306557 58.289048 
L 181.801341 58.175212 
L 184.296125 58.85064 
L 186.790909 58.400355 
" clip-path="url(#pfdf44be2bb)" style="fill: none; stroke: #fe7f2d; stroke-opacity: 0.3; stroke-width: 1.5; stroke-linecap: square"/>
   </g>
   <g id="line2d_19">
    <path d="M 34.609091 59.422057 
L 37.103875 58.995686 
L 39.598659 59.214409 
L 42.093443 58.848949 
L 44.588227 58.860023 
L 47.08301 59.147962 
L 49.577794 59.153499 
L 52.072578 59.056596 
L 54.567362 59.147962 
L 57.062146 59.635242 
L 59.55693 59.513422 
L 62.051714 59.668466 
L 64.546498 60.35232 
L 67.041282 60.629184 
L 69.536066 63.414435 
L 72.030849 66.756182 
L 74.525633 71.756344 
L 77.020417 78.306945 
L 79.515201 86.806667 
L 82.009985 98.25499 
L 84.504769 109.193883 
L 86.999553 110.808 
L 89.494337 103.770119 
L 91.989121 91.900963 
L 94.483905 79.004642 
L 96.978689 66.767257 
L 99.473472 54.7569 
L 101.968256 45.877874 
L 104.46304 38.361019 
L 106.957824 32.56072 
L 109.452608 27.782048 
L 111.947392 24.191123 
L 114.442176 21.765795 
L 116.93696 20.088 
L 119.431744 20.539288 
L 121.926528 21.555379 
L 124.421311 23.28301 
L 126.916095 26.040574 
L 129.410879 28.701236 
L 131.905663 31.70521 
L 134.400447 34.897451 
L 136.895231 37.248026 
L 139.390015 40.238156 
L 141.884799 43.438703 
L 144.379583 45.526257 
L 146.874367 48.28659 
L 149.369151 50.418442 
L 151.863934 52.309423 
L 154.358718 53.610683 
L 156.853502 55.781296 
L 159.348286 56.407009 
L 161.84307 56.7697 
L 164.337854 57.982364 
L 166.832638 58.51948 
L 169.327422 59.671234 
L 171.822206 59.579869 
L 174.31699 60.100373 
L 176.811773 61.000181 
L 179.306557 61.271508 
L 181.801341 61.318575 
L 184.296125 61.850153 
L 186.790909 61.996891 
" clip-path="url(#pfdf44be2bb)" style="fill: none; stroke: #fe7f2d; stroke-opacity: 0.3; stroke-width: 1.5; stroke-linecap: square"/>
   </g>
   <g id="line2d_20">
    <path d="M 34.609091 57.164073 
L 37.103875 57.262587 
L 39.598659 57.278095 
L 42.093443 57.300683 
L 44.588227 57.357345 
L 47.08301 57.461984 
L 49.577794 57.551906 
L 52.072578 57.667393 
L 54.567362 57.680235 
L 57.062146 57.758593 
L 59.55693 57.862886 
L 62.051714 57.908299 
L 64.546498 57.993349 
L 67.041282 58.052716 
L 69.536066 57.949632 
L 72.030849 58.00234 
L 74.525633 59.071116 
L 77.020417 62.329929 
L 79.515201 70.802254 
L 82.009985 85.766528 
L 84.504769 102.791436 
L 86.999553 110.50268 
L 89.494337 104.846306 
L 91.989121 91.438812 
L 94.483905 76.001664 
L 96.978689 62.114401 
L 99.473472 50.824594 
L 101.968256 42.455503 
L 104.46304 36.596217 
L 106.957824 32.989862 
L 109.452608 31.231913 
L 111.947392 30.800145 
L 114.442176 31.361507 
L 116.93696 32.516886 
L 119.431744 34.088019 
L 121.926528 35.950576 
L 124.421311 37.875439 
L 126.916095 39.894409 
L 129.410879 41.820101 
L 131.905663 43.686323 
L 134.400447 45.442334 
L 136.895231 46.948428 
L 139.390015 48.322733 
L 141.884799 49.645096 
L 144.379583 50.67742 
L 146.874367 51.563906 
L 149.369151 52.324532 
L 151.863934 53.034072 
L 154.358718 53.682179 
L 156.853502 54.293544 
L 159.348286 54.736794 
L 161.84307 55.174656 
L 164.337854 55.566785 
L 166.832638 55.87918 
L 169.327422 56.162184 
L 171.822206 56.403391 
L 174.31699 56.757106 
L 176.811773 56.974035 
L 179.306557 57.296663 
L 181.801341 57.446532 
L 184.296125 57.64654 
L 186.790909 57.829896 
" clip-path="url(#pfdf44be2bb)" style="fill: none; stroke: #000000; stroke-width: 1.5; stroke-linecap: square"/>
   </g>
   <g id="patch_3">
    <path d="M 27 115.344 
L 27 15.552 
" style="fill: none; stroke: #000000; stroke-width: 0.8; stroke-linejoin: miter; stroke-linecap: square"/>
   </g>
   <g id="patch_4">
    <path d="M 27 115.344 
L 194.4 115.344 
" style="fill: none; stroke: #000000; stroke-width: 0.8; stroke-linejoin: miter; stroke-linecap: square"/>
   </g>
   <g id="text_1">
    <!-- 5 -->
    <g transform="translate(35.887879 27.054057) scale(0.12 -0.12)">
     <defs>
      <path id="ArialMT-35" d="M 266 1200 
L 856 1250 
Q 922 819 1161 601 
Q 1400 384 1738 384 
Q 2144 384 2425 690 
Q 2706 997 2706 1503 
Q 2706 1984 2436 2262 
Q 2166 2541 1728 2541 
Q 1456 2541 1237 2417 
Q 1019 2294 894 2097 
L 366 2166 
L 809 4519 
L 3088 4519 
L 3088 3981 
L 1259 3981 
L 1013 2750 
Q 1425 3038 1878 3038 
Q 2478 3038 2890 2622 
Q 3303 2206 3303 1553 
Q 3303 931 2941 478 
Q 2500 -78 1738 -78 
Q 1113 -78 717 272 
Q 322 622 266 1200 
z
" transform="scale(0.015625)"/>
     </defs>
     <use xlink:href="#ArialMT-35"/>
    </g>
   </g>
   <g id="text_2">
    <!-- n = 19 (13.77%) -->
    <g transform="translate(134.400447 110.808) scale(0.1 -0.1)">
     <defs>
      <path id="ArialMT-6e" d="M 422 0 
L 422 3319 
L 928 3319 
L 928 2847 
Q 1294 3394 1984 3394 
Q 2284 3394 2536 3286 
Q 2788 3178 2913 3003 
Q 3038 2828 3088 2588 
Q 3119 2431 3119 2041 
L 3119 0 
L 2556 0 
L 2556 2019 
Q 2556 2363 2490 2533 
Q 2425 2703 2258 2804 
Q 2091 2906 1866 2906 
Q 1506 2906 1245 2678 
Q 984 2450 984 1813 
L 984 0 
L 422 0 
z
" transform="scale(0.015625)"/>
      <path id="ArialMT-20" transform="scale(0.015625)"/>
      <path id="ArialMT-3d" d="M 3381 2694 
L 356 2694 
L 356 3219 
L 3381 3219 
L 3381 2694 
z
M 3381 1303 
L 356 1303 
L 356 1828 
L 3381 1828 
L 3381 1303 
z
" transform="scale(0.015625)"/>
      <path id="ArialMT-31" d="M 2384 0 
L 1822 0 
L 1822 3584 
Q 1619 3391 1289 3197 
Q 959 3003 697 2906 
L 697 3450 
Q 1169 3672 1522 3987 
Q 1875 4303 2022 4600 
L 2384 4600 
L 2384 0 
z
" transform="scale(0.015625)"/>
      <path id="ArialMT-39" d="M 350 1059 
L 891 1109 
Q 959 728 1153 556 
Q 1347 384 1650 384 
Q 1909 384 2104 503 
Q 2300 622 2425 820 
Q 2550 1019 2634 1356 
Q 2719 1694 2719 2044 
Q 2719 2081 2716 2156 
Q 2547 1888 2255 1720 
Q 1963 1553 1622 1553 
Q 1053 1553 659 1965 
Q 266 2378 266 3053 
Q 266 3750 677 4175 
Q 1088 4600 1706 4600 
Q 2153 4600 2523 4359 
Q 2894 4119 3086 3673 
Q 3278 3228 3278 2384 
Q 3278 1506 3087 986 
Q 2897 466 2520 194 
Q 2144 -78 1638 -78 
Q 1100 -78 759 220 
Q 419 519 350 1059 
z
M 2653 3081 
Q 2653 3566 2395 3850 
Q 2138 4134 1775 4134 
Q 1400 4134 1122 3828 
Q 844 3522 844 3034 
Q 844 2597 1108 2323 
Q 1372 2050 1759 2050 
Q 2150 2050 2401 2323 
Q 2653 2597 2653 3081 
z
" transform="scale(0.015625)"/>
      <path id="ArialMT-28" d="M 1497 -1347 
Q 1031 -759 709 28 
Q 388 816 388 1659 
Q 388 2403 628 3084 
Q 909 3875 1497 4659 
L 1900 4659 
Q 1522 4009 1400 3731 
Q 1209 3300 1100 2831 
Q 966 2247 966 1656 
Q 966 153 1900 -1347 
L 1497 -1347 
z
" transform="scale(0.015625)"/>
      <path id="ArialMT-33" d="M 269 1209 
L 831 1284 
Q 928 806 1161 595 
Q 1394 384 1728 384 
Q 2125 384 2398 659 
Q 2672 934 2672 1341 
Q 2672 1728 2419 1979 
Q 2166 2231 1775 2231 
Q 1616 2231 1378 2169 
L 1441 2663 
Q 1497 2656 1531 2656 
Q 1891 2656 2178 2843 
Q 2466 3031 2466 3422 
Q 2466 3731 2256 3934 
Q 2047 4138 1716 4138 
Q 1388 4138 1169 3931 
Q 950 3725 888 3313 
L 325 3413 
Q 428 3978 793 4289 
Q 1159 4600 1703 4600 
Q 2078 4600 2393 4439 
Q 2709 4278 2876 4000 
Q 3044 3722 3044 3409 
Q 3044 3113 2884 2869 
Q 2725 2625 2413 2481 
Q 2819 2388 3044 2092 
Q 3269 1797 3269 1353 
Q 3269 753 2831 336 
Q 2394 -81 1725 -81 
Q 1122 -81 723 278 
Q 325 638 269 1209 
z
" transform="scale(0.015625)"/>
      <path id="ArialMT-2e" d="M 581 0 
L 581 641 
L 1222 641 
L 1222 0 
L 581 0 
z
" transform="scale(0.015625)"/>
      <path id="ArialMT-37" d="M 303 3981 
L 303 4522 
L 3269 4522 
L 3269 4084 
Q 2831 3619 2401 2847 
Q 1972 2075 1738 1259 
Q 1569 684 1522 0 
L 944 0 
Q 953 541 1156 1306 
Q 1359 2072 1739 2783 
Q 2119 3494 2547 3981 
L 303 3981 
z
" transform="scale(0.015625)"/>
      <path id="ArialMT-25" d="M 372 3481 
Q 372 3972 619 4315 
Q 866 4659 1334 4659 
Q 1766 4659 2048 4351 
Q 2331 4044 2331 3447 
Q 2331 2866 2045 2552 
Q 1759 2238 1341 2238 
Q 925 2238 648 2547 
Q 372 2856 372 3481 
z
M 1350 4272 
Q 1141 4272 1002 4090 
Q 863 3909 863 3425 
Q 863 2984 1003 2804 
Q 1144 2625 1350 2625 
Q 1563 2625 1702 2806 
Q 1841 2988 1841 3469 
Q 1841 3913 1700 4092 
Q 1559 4272 1350 4272 
z
M 1353 -169 
L 3859 4659 
L 4316 4659 
L 1819 -169 
L 1353 -169 
z
M 3334 1075 
Q 3334 1569 3581 1911 
Q 3828 2253 4300 2253 
Q 4731 2253 5014 1945 
Q 5297 1638 5297 1041 
Q 5297 459 5011 145 
Q 4725 -169 4303 -169 
Q 3888 -169 3611 142 
Q 3334 453 3334 1075 
z
M 4316 1866 
Q 4103 1866 3964 1684 
Q 3825 1503 3825 1019 
Q 3825 581 3965 400 
Q 4106 219 4313 219 
Q 4528 219 4667 400 
Q 4806 581 4806 1063 
Q 4806 1506 4665 1686 
Q 4525 1866 4316 1866 
z
" transform="scale(0.015625)"/>
      <path id="ArialMT-29" d="M 791 -1347 
L 388 -1347 
Q 1322 153 1322 1656 
Q 1322 2244 1188 2822 
Q 1081 3291 891 3722 
Q 769 4003 388 4659 
L 791 4659 
Q 1378 3875 1659 3084 
Q 1900 2403 1900 1659 
Q 1900 816 1576 28 
Q 1253 -759 791 -1347 
z
" transform="scale(0.015625)"/>
     </defs>
     <use xlink:href="#ArialMT-6e"/>
     <use xlink:href="#ArialMT-20" x="55.615234"/>
     <use xlink:href="#ArialMT-3d" x="83.398438"/>
     <use xlink:href="#ArialMT-20" x="141.796875"/>
     <use xlink:href="#ArialMT-31" x="169.580078"/>
     <use xlink:href="#ArialMT-39" x="225.195312"/>
     <use xlink:href="#ArialMT-20" x="280.810547"/>
     <use xlink:href="#ArialMT-28" x="308.59375"/>
     <use xlink:href="#ArialMT-31" x="341.894531"/>
     <use xlink:href="#ArialMT-33" x="397.509766"/>
     <use xlink:href="#ArialMT-2e" x="453.125"/>
     <use xlink:href="#ArialMT-37" x="480.908203"/>
     <use xlink:href="#ArialMT-37" x="536.523438"/>
     <use xlink:href="#ArialMT-25" x="592.138672"/>
     <use xlink:href="#ArialMT-29" x="681.054688"/>
    </g>
   </g>
  </g>
 </g>
 <defs>
  <clipPath id="pfdf44be2bb">
   <rect x="27" y="15.552" width="167.4" height="99.792"/>
  </clipPath>
 </defs>
</svg>
