<?xml version="1.0" encoding="utf-8" standalone="no"?>
<!DOCTYPE svg PUBLIC "-//W3C//DTD SVG 1.1//EN"
  "http://www.w3.org/Graphics/SVG/1.1/DTD/svg11.dtd">
<svg xmlns:xlink="http://www.w3.org/1999/xlink" width="216pt" height="129.6pt" viewBox="0 0 216 129.6" xmlns="http://www.w3.org/2000/svg" version="1.1">
 <metadata>
  <rdf:RDF xmlns:dc="http://purl.org/dc/elements/1.1/" xmlns:cc="http://creativecommons.org/ns#" xmlns:rdf="http://www.w3.org/1999/02/22-rdf-syntax-ns#">
   <cc:Work>
    <dc:type rdf:resource="http://purl.org/dc/dcmitype/StillImage"/>
    <dc:date>2025-05-21T13:30:32.955680</dc:date>
    <dc:format>image/svg+xml</dc:format>
    <dc:creator>
     <cc:Agent>
      <dc:title>Matplotlib v3.9.4, https://matplotlib.org/</dc:title>
     </cc:Agent>
    </dc:creator>
   </cc:Work>
  </rdf:RDF>
 </metadata>
 <defs>
  <style type="text/css">*{stroke-linejoin: round; stroke-linecap: butt}</style>
 </defs>
 <g id="figure_1">
  <g id="patch_1">
   <path d="M 0 129.6 
L 216 129.6 
L 216 0 
L 0 0 
z
" style="fill: #ffffff"/>
  </g>
  <g id="axes_1">
   <g id="patch_2">
    <path d="M 27 115.344 
L 194.4 115.344 
L 194.4 15.552 
L 27 15.552 
z
" style="fill: #ffffff"/>
   </g>
   <g id="matplotlib.axis_1"/>
   <g id="matplotlib.axis_2"/>
   <g id="line2d_1">
    <path d="M 34.609091 65.272506 
L 37.103875 65.206109 
L 39.598659 65.077598 
L 42.093443 65.163272 
L 44.588227 64.745611 
L 47.08301 65.349613 
L 49.577794 65.488833 
L 52.072578 65.206109 
L 54.567362 65.345329 
L 57.062146 65.032619 
L 59.55693 65.013342 
L 62.051714 64.816292 
L 64.546498 65.129002 
L 67.041282 65.051896 
L 69.536066 64.767029 
L 72.030849 64.786306 
L 74.525633 63.439081 
L 77.020417 59.260328 
L 79.515201 51.575364 
L 82.009985 41.110276 
L 84.504769 28.618996 
L 86.999553 20.088 
L 89.494337 26.582095 
L 91.989121 45.588888 
L 94.483905 65.026193 
L 96.978689 80.211923 
L 99.473472 91.120374 
L 101.968256 95.971669 
L 104.46304 95.519738 
L 106.957824 92.703203 
L 109.452608 88.108931 
L 111.947392 83.853071 
L 114.442176 79.4687 
L 116.93696 75.739736 
L 119.431744 73.193074 
L 121.926528 70.719236 
L 124.421311 69.106421 
L 126.916095 67.87914 
L 129.410879 66.64115 
L 131.905663 66.056424 
L 134.400447 65.606635 
L 136.895231 65.034761 
L 139.390015 64.769171 
L 141.884799 64.934094 
L 144.379583 64.529284 
L 146.874367 64.762746 
L 149.369151 64.133041 
L 151.863934 64.225141 
L 154.358718 64.355794 
L 156.853502 64.396489 
L 159.348286 63.678969 
L 161.84307 63.591153 
L 164.337854 63.955267 
L 166.832638 64.308673 
L 169.327422 64.252985 
L 171.822206 64.105197 
L 174.31699 64.651369 
L 176.811773 64.64066 
L 179.306557 64.614958 
L 181.801341 64.709199 
L 184.296125 64.854845 
L 186.790909 64.632093 
" clip-path="url(#p63b2348b2e)" style="fill: none; stroke: #d81159; stroke-opacity: 0.3; stroke-width: 1.5; stroke-linecap: square"/>
   </g>
   <g id="line2d_2">
    <path d="M 34.609091 65.503684 
L 37.103875 65.226842 
L 39.598659 65.38969 
L 42.093443 65.724433 
L 44.588227 65.876425 
L 47.08301 66.301639 
L 49.577794 66.368587 
L 52.072578 66.790183 
L 54.567362 66.706949 
L 57.062146 66.58029 
L 59.55693 66.48439 
L 62.051714 66.889701 
L 64.546498 65.804048 
L 67.041282 65.096563 
L 69.536066 64.318512 
L 72.030849 63.715974 
L 74.525633 62.556135 
L 77.020417 60.880609 
L 79.515201 56.731604 
L 82.009985 50.595853 
L 84.504769 46.099438 
L 86.999553 43.774331 
L 89.494337 49.678476 
L 91.989121 70.323985 
L 94.483905 94.380255 
L 96.978689 108.627646 
L 99.473472 110.808 
L 101.968256 106.070932 
L 104.46304 98.303082 
L 106.957824 90.473712 
L 109.452608 83.65219 
L 111.947392 77.156363 
L 114.442176 71.304692 
L 116.93696 65.706339 
L 119.431744 61.278682 
L 121.926528 58.267804 
L 124.421311 56.042214 
L 126.916095 54.744858 
L 129.410879 54.567535 
L 131.905663 54.348595 
L 134.400447 54.305169 
L 136.895231 54.744858 
L 139.390015 55.387203 
L 141.884799 56.029548 
L 144.379583 57.489752 
L 146.874367 58.030769 
L 149.369151 58.917386 
L 151.863934 59.804003 
L 154.358718 60.205695 
L 156.853502 60.211123 
L 159.348286 60.638147 
L 161.84307 60.768425 
L 164.337854 61.566381 
L 166.832638 61.859507 
L 169.327422 62.301006 
L 171.822206 62.244914 
L 174.31699 62.478329 
L 176.811773 62.141777 
L 179.306557 61.997023 
L 181.801341 62.264818 
L 184.296125 62.53985 
L 186.790909 62.699079 
" clip-path="url(#p63b2348b2e)" style="fill: none; stroke: #d81159; stroke-opacity: 0.3; stroke-width: 1.5; stroke-linecap: square"/>
   </g>
   <g id="line2d_3">
    <path d="M 34.609091 64.993596 
L 37.103875 65.397158 
L 39.598659 65.230986 
L 42.093443 65.478549 
L 44.588227 65.605722 
L 47.08301 65.325941 
L 49.577794 65.648113 
L 52.072578 65.710851 
L 54.567362 65.736286 
L 57.062146 65.297116 
L 59.55693 65.220812 
L 62.051714 65.119073 
L 64.546498 65.364941 
L 67.041282 65.497201 
L 69.536066 65.578592 
L 72.030849 65.502288 
L 74.525633 65.142812 
L 77.020417 64.893554 
L 79.515201 63.243697 
L 82.009985 54.017728 
L 84.504769 29.141014 
L 86.999553 20.088 
L 89.494337 31.796384 
L 91.989121 46.127921 
L 94.483905 57.67522 
L 96.978689 66.156804 
L 99.473472 70.066947 
L 101.968256 69.666776 
L 104.46304 68.018615 
L 106.957824 67.638792 
L 109.452608 69.407343 
L 111.947392 71.219981 
L 114.442176 73.115705 
L 116.93696 73.866873 
L 119.431744 73.963524 
L 121.926528 74.334869 
L 124.421311 74.570563 
L 126.916095 74.289087 
L 129.410879 74.11274 
L 131.905663 74.255174 
L 134.400447 73.885525 
L 136.895231 72.93088 
L 139.390015 72.461188 
L 141.884799 71.618456 
L 144.379583 70.72655 
L 146.874367 69.663385 
L 149.369151 68.969869 
L 151.863934 68.951217 
L 154.358718 68.471351 
L 156.853502 68.42896 
L 159.348286 67.833791 
L 161.84307 67.487881 
L 164.337854 67.335273 
L 166.832638 67.31323 
L 169.327422 66.751973 
L 171.822206 66.385715 
L 174.31699 66.190717 
L 176.811773 66.228021 
L 179.306557 65.710851 
L 181.801341 65.646417 
L 184.296125 65.446332 
L 186.790909 65.821068 
" clip-path="url(#p63b2348b2e)" style="fill: none; stroke: #d81159; stroke-opacity: 0.3; stroke-width: 1.5; stroke-linecap: square"/>
   </g>
   <g id="line2d_4">
    <path d="M 34.609091 65.923035 
L 37.103875 66.281795 
L 39.598659 66.201728 
L 42.093443 66.215586 
L 44.588227 66.278716 
L 47.08301 66.689827 
L 49.577794 66.267937 
L 52.072578 65.959989 
L 54.567362 65.946131 
L 57.062146 65.83373 
L 59.55693 65.641262 
L 62.051714 65.053081 
L 64.546498 65.730567 
L 67.041282 65.872224 
L 69.536066 65.65512 
L 72.030849 65.319456 
L 74.525633 63.573389 
L 77.020417 58.810968 
L 79.515201 43.336562 
L 82.009985 25.078303 
L 84.504769 20.088 
L 86.999553 26.442515 
L 89.494337 35.208265 
L 91.989121 42.780715 
L 94.483905 50.782754 
L 96.978689 59.908804 
L 99.473472 68.217251 
L 101.968256 73.968186 
L 104.46304 77.534228 
L 106.957824 79.287994 
L 109.452608 80.413546 
L 111.947392 80.384291 
L 114.442176 79.485081 
L 116.93696 78.511965 
L 119.431744 77.76519 
L 121.926528 76.718165 
L 124.421311 75.644965 
L 126.916095 74.999813 
L 129.410879 73.872722 
L 131.905663 72.925781 
L 134.400447 72.296027 
L 136.895231 71.827945 
L 139.390015 71.332148 
L 141.884799 70.971849 
L 144.379583 70.280505 
L 146.874367 69.418249 
L 149.369151 69.385915 
L 151.863934 68.940929 
L 154.358718 68.622203 
L 156.853502 68.560613 
L 159.348286 68.335811 
L 161.84307 67.964733 
L 164.337854 67.732232 
L 166.832638 67.26569 
L 169.327422 67.151749 
L 171.822206 66.979298 
L 174.31699 66.377259 
L 176.811773 67.102477 
L 179.306557 66.811466 
L 181.801341 66.771433 
L 184.296125 66.634396 
L 186.790909 66.403435 
" clip-path="url(#p63b2348b2e)" style="fill: none; stroke: #d81159; stroke-opacity: 0.3; stroke-width: 1.5; stroke-linecap: square"/>
   </g>
   <g id="line2d_5">
    <path d="M 34.609091 64.745789 
L 37.103875 65.321867 
L 39.598659 65.237856 
L 42.093443 65.403478 
L 44.588227 65.710719 
L 47.08301 65.384275 
L 49.577794 65.761126 
L 52.072578 64.961818 
L 54.567362 64.820199 
L 57.062146 64.258523 
L 59.55693 64.548963 
L 62.051714 64.479353 
L 64.546498 63.903276 
L 67.041282 63.932079 
L 69.536066 63.207182 
L 72.030849 61.466947 
L 74.525633 59.880333 
L 77.020417 56.851125 
L 79.515201 53.080216 
L 82.009985 49.774971 
L 84.504769 42.480387 
L 86.999553 36.510782 
L 89.494337 42.432381 
L 91.989121 60.494816 
L 94.483905 83.077061 
L 96.978689 101.041083 
L 99.473472 110.056699 
L 101.968256 110.808 
L 104.46304 106.943479 
L 106.957824 100.988276 
L 109.452608 94.543407 
L 111.947392 89.025063 
L 114.442176 84.450046 
L 116.93696 79.502979 
L 119.431744 74.971168 
L 121.926528 71.86995 
L 124.421311 69.731261 
L 126.916095 67.503761 
L 129.410879 65.281061 
L 131.905663 63.435212 
L 134.400447 62.00702 
L 136.895231 60.386801 
L 139.390015 59.001815 
L 141.884799 57.914468 
L 144.379583 57.355193 
L 146.874367 56.639896 
L 149.369151 56.37346 
L 151.863934 54.928465 
L 154.358718 54.96207 
L 156.853502 54.899662 
L 159.348286 54.479605 
L 161.84307 54.870858 
L 164.337854 54.998075 
L 166.832638 55.26211 
L 169.327422 55.598156 
L 171.822206 55.487741 
L 174.31699 55.864592 
L 176.811773 56.385462 
L 179.306557 57.148765 
L 181.801341 57.638431 
L 184.296125 58.180904 
L 186.790909 59.515484 
" clip-path="url(#p63b2348b2e)" style="fill: none; stroke: #d81159; stroke-opacity: 0.3; stroke-width: 1.5; stroke-linecap: square"/>
   </g>
   <g id="line2d_6">
    <path d="M 34.609091 63.262254 
L 37.103875 63.426847 
L 39.598659 63.448586 
L 42.093443 62.998284 
L 44.588227 63.03555 
L 47.08301 62.951701 
L 49.577794 63.106977 
L 52.072578 62.898906 
L 54.567362 62.998284 
L 57.062146 63.032444 
L 59.55693 63.190827 
L 62.051714 62.933067 
L 64.546498 63.172194 
L 67.041282 62.883379 
L 69.536066 62.054201 
L 72.030849 61.669114 
L 74.525633 58.532524 
L 77.020417 55.249973 
L 79.515201 51.569914 
L 82.009985 47.411602 
L 84.504769 40.613585 
L 86.999553 37.629166 
L 89.494337 43.017269 
L 91.989121 60.485906 
L 94.483905 83.376806 
L 96.978689 100.873392 
L 99.473472 109.261443 
L 101.968256 110.808 
L 104.46304 108.590648 
L 106.957824 105.463374 
L 109.452608 99.867199 
L 111.947392 92.954277 
L 114.442176 86.976122 
L 116.93696 81.910994 
L 119.431744 78.025969 
L 121.926528 74.019828 
L 124.421311 70.522996 
L 126.916095 68.075834 
L 129.410879 65.175264 
L 131.905663 63.110083 
L 134.400447 61.933085 
L 136.895231 60.420689 
L 139.390015 60.041814 
L 141.884799 59.594617 
L 144.379583 58.805811 
L 146.874367 58.42383 
L 149.369151 58.110171 
L 151.863934 57.414531 
L 154.358718 56.721997 
L 156.853502 57.253043 
L 159.348286 56.930068 
L 161.84307 56.91454 
L 164.337854 55.861763 
L 166.832638 55.023269 
L 169.327422 54.858676 
L 171.822206 55.249973 
L 174.31699 55.144385 
L 176.811773 55.548104 
L 179.306557 55.557421 
L 181.801341 55.771703 
L 184.296125 55.895924 
L 186.790909 55.715803 
" clip-path="url(#p63b2348b2e)" style="fill: none; stroke: #d81159; stroke-opacity: 0.3; stroke-width: 1.5; stroke-linecap: square"/>
   </g>
   <g id="line2d_7">
    <path d="M 34.609091 65.968559 
L 37.103875 66.329329 
L 39.598659 66.335409 
L 42.093443 66.534035 
L 44.588227 66.402294 
L 47.08301 65.877354 
L 49.577794 66.598893 
L 52.072578 66.491473 
L 54.567362 66.408374 
L 57.062146 65.585495 
L 59.55693 65.834791 
L 62.051714 66.302981 
L 64.546498 66.288793 
L 67.041282 65.972613 
L 69.536066 65.236886 
L 72.030849 59.965193 
L 74.525633 34.439736 
L 77.020417 27.799955 
L 79.515201 45.390509 
L 82.009985 47.575394 
L 84.504769 34.61404 
L 86.999553 20.408234 
L 89.494337 20.088 
L 91.989121 29.386936 
L 94.483905 42.08886 
L 96.978689 53.708476 
L 99.473472 63.662067 
L 101.968256 70.34441 
L 104.46304 74.60676 
L 106.957824 77.707756 
L 109.452608 78.417135 
L 111.947392 79.440666 
L 114.442176 79.458907 
L 116.93696 79.237987 
L 119.431744 78.986664 
L 121.926528 78.996798 
L 124.421311 78.45159 
L 126.916095 77.788828 
L 129.410879 77.018646 
L 131.905663 76.720707 
L 134.400447 75.703256 
L 136.895231 74.760796 
L 139.390015 74.444616 
L 141.884799 74.168972 
L 144.379583 74.07574 
L 146.874367 73.842658 
L 149.369151 73.421085 
L 151.863934 73.084637 
L 154.358718 72.23541 
L 156.853502 72.24149 
L 159.348286 71.947605 
L 161.84307 71.465228 
L 164.337854 71.228093 
L 166.832638 70.699099 
L 169.327422 70.393053 
L 171.822206 70.247124 
L 174.31699 69.831631 
L 176.811773 69.582335 
L 179.306557 69.391816 
L 181.801341 69.440459 
L 184.296125 68.82026 
L 186.790909 68.279106 
" clip-path="url(#p63b2348b2e)" style="fill: none; stroke: #d81159; stroke-opacity: 0.3; stroke-width: 1.5; stroke-linecap: square"/>
   </g>
   <g id="line2d_8">
    <path d="M 34.609091 65.431907 
L 37.103875 65.627125 
L 39.598659 65.213026 
L 42.093443 65.013863 
L 44.588227 64.931043 
L 47.08301 65.323452 
L 49.577794 65.345143 
L 52.072578 64.808785 
L 54.567362 65.039498 
L 57.062146 65.004004 
L 59.55693 65.15584 
L 62.051714 64.881746 
L 64.546498 65.023723 
L 67.041282 64.518916 
L 69.536066 64.069322 
L 72.030849 63.90171 
L 74.525633 64.071294 
L 77.020417 63.718323 
L 79.515201 57.98403 
L 82.009985 39.962809 
L 84.504769 20.088 
L 86.999553 20.117579 
L 89.494337 27.32094 
L 91.989121 34.926569 
L 94.483905 51.742957 
L 96.978689 69.048377 
L 99.473472 82.100402 
L 101.968256 88.71022 
L 104.46304 89.840121 
L 106.957824 86.998609 
L 109.452608 83.695671 
L 111.947392 80.438088 
L 114.442176 77.667564 
L 116.93696 75.729184 
L 119.431744 74.352795 
L 121.926528 73.295855 
L 124.421311 72.382864 
L 126.916095 71.363391 
L 129.410879 70.661393 
L 131.905663 69.799672 
L 134.400447 69.188382 
L 136.895231 69.054292 
L 139.390015 69.139084 
L 141.884799 68.429199 
L 144.379583 67.656213 
L 146.874367 67.441276 
L 149.369151 67.080418 
L 151.863934 66.991682 
L 154.358718 66.835902 
L 156.853502 66.987738 
L 159.348286 66.889143 
L 161.84307 66.861536 
L 164.337854 66.784632 
L 166.832638 66.206865 
L 169.327422 66.258134 
L 171.822206 65.782905 
L 174.31699 66.126017 
L 176.811773 66.058972 
L 179.306557 65.897276 
L 181.801341 65.855866 
L 184.296125 65.72572 
L 186.790909 65.218941 
" clip-path="url(#p63b2348b2e)" style="fill: none; stroke: #d81159; stroke-opacity: 0.3; stroke-width: 1.5; stroke-linecap: square"/>
   </g>
   <g id="line2d_9">
    <path d="M 34.609091 65.523906 
L 37.103875 65.78358 
L 39.598659 66.185542 
L 42.093443 66.270914 
L 44.588227 66.146413 
L 47.08301 65.605721 
L 49.577794 65.625285 
L 52.072578 65.877845 
L 54.567362 65.780023 
L 57.062146 65.742672 
L 59.55693 65.819152 
L 62.051714 66.034362 
L 64.546498 66.607068 
L 67.041282 66.329608 
L 69.536066 66.381187 
L 72.030849 66.416759 
L 74.525633 66.461224 
L 77.020417 66.046812 
L 79.515201 65.605721 
L 82.009985 58.185436 
L 84.504769 29.847133 
L 86.999553 20.088 
L 89.494337 28.671484 
L 91.989121 42.373755 
L 94.483905 54.768761 
L 96.978689 61.283743 
L 99.473472 65.120165 
L 101.968256 69.025953 
L 104.46304 71.898379 
L 106.957824 73.194972 
L 109.452608 73.340817 
L 111.947392 73.630727 
L 114.442176 73.426189 
L 116.93696 72.572465 
L 119.431744 72.394606 
L 121.926528 71.711627 
L 124.421311 71.731191 
L 126.916095 71.361244 
L 129.410879 70.763637 
L 131.905663 70.674708 
L 134.400447 70.852567 
L 136.895231 70.384797 
L 139.390015 70.331439 
L 141.884799 70.110894 
L 144.379583 69.570202 
L 146.874367 69.02951 
L 149.369151 68.823193 
L 151.863934 68.953031 
L 154.358718 68.695135 
L 156.853502 68.428346 
L 159.348286 68.150886 
L 161.84307 67.626201 
L 164.337854 67.661773 
L 166.832638 67.860975 
L 169.327422 67.828961 
L 171.822206 67.926783 
L 174.31699 68.154443 
L 176.811773 67.962355 
L 179.306557 67.491028 
L 181.801341 67.428778 
L 184.296125 67.240247 
L 186.790909 66.955672 
" clip-path="url(#p63b2348b2e)" style="fill: none; stroke: #d81159; stroke-opacity: 0.3; stroke-width: 1.5; stroke-linecap: square"/>
   </g>
   <g id="line2d_10">
    <path d="M 34.609091 65.816107 
L 37.103875 65.588209 
L 39.598659 65.985304 
L 42.093443 65.615833 
L 44.588227 65.583029 
L 47.08301 65.279165 
L 49.577794 65.40002 
L 52.072578 65.182481 
L 54.567362 65.059899 
L 57.062146 64.88207 
L 59.55693 64.989113 
L 62.051714 65.36549 
L 64.546498 65.324054 
L 67.041282 65.077164 
L 69.536066 65.059899 
L 72.030849 65.507063 
L 74.525633 65.564038 
L 77.020417 65.481166 
L 79.515201 64.66971 
L 82.009985 56.732985 
L 84.504769 28.653172 
L 86.999553 20.088 
L 89.494337 31.551967 
L 91.989121 47.511743 
L 94.483905 61.434247 
L 96.978689 71.658586 
L 99.473472 77.930965 
L 101.968256 80.819401 
L 104.46304 80.268647 
L 106.957824 78.968592 
L 109.452608 77.276621 
L 111.947392 75.99383 
L 114.442176 74.383005 
L 116.93696 74.274235 
L 119.431744 73.452421 
L 121.926528 72.45105 
L 124.421311 71.724193 
L 126.916095 71.145815 
L 129.410879 69.88547 
L 131.905663 68.533619 
L 134.400447 68.248747 
L 136.895231 67.710078 
L 139.390015 66.883084 
L 141.884799 66.587853 
L 144.379583 66.51016 
L 146.874367 66.223561 
L 149.369151 65.78503 
L 151.863934 65.954227 
L 154.358718 65.9525 
L 156.853502 66.100979 
L 159.348286 65.892073 
L 161.84307 65.489798 
L 164.337854 65.446636 
L 166.832638 65.462174 
L 169.327422 65.453542 
L 171.822206 65.398293 
L 174.31699 65.265353 
L 176.811773 65.151404 
L 179.306557 65.64691 
L 181.801341 65.669354 
L 184.296125 65.496704 
L 186.790909 65.279165 
" clip-path="url(#p63b2348b2e)" style="fill: none; stroke: #d81159; stroke-opacity: 0.3; stroke-width: 1.5; stroke-linecap: square"/>
   </g>
   <g id="line2d_11">
    <path d="M 34.609091 66.379824 
L 37.103875 66.474387 
L 39.598659 66.497451 
L 42.093443 66.377518 
L 44.588227 65.883947 
L 47.08301 66.38905 
L 49.577794 66.176861 
L 52.072578 66.202231 
L 54.567362 65.803223 
L 57.062146 65.648694 
L 59.55693 65.710967 
L 62.051714 65.729418 
L 64.546498 66.282955 
L 67.041282 65.547213 
L 69.536066 65.687903 
L 72.030849 66.026944 
L 74.525633 65.842432 
L 77.020417 65.867803 
L 79.515201 64.350189 
L 82.009985 57.788471 
L 84.504769 42.416292 
L 86.999553 20.088 
L 89.494337 25.964716 
L 91.989121 64.4263 
L 94.483905 85.428411 
L 96.978689 72.971525 
L 99.473472 60.807553 
L 101.968256 59.031623 
L 104.46304 60.281693 
L 106.957824 61.16274 
L 109.452608 62.482002 
L 111.947392 64.705375 
L 114.442176 67.468447 
L 116.93696 69.378149 
L 119.431744 70.59593 
L 121.926528 71.020308 
L 124.421311 71.011082 
L 126.916095 71.20482 
L 129.410879 71.207127 
L 131.905663 70.533657 
L 134.400447 70.722782 
L 136.895231 70.725088 
L 139.390015 70.155407 
L 141.884799 70.183084 
L 144.379583 70.245356 
L 146.874367 69.103687 
L 149.369151 69.011431 
L 151.863934 68.843063 
L 154.358718 68.213415 
L 156.853502 68.321816 
L 159.348286 68.543231 
L 161.84307 68.236479 
L 164.337854 67.772892 
L 166.832638 67.61375 
L 169.327422 67.526107 
L 171.822206 67.58146 
L 174.31699 67.027924 
L 176.811773 67.470753 
L 179.306557 67.078664 
L 181.801341 67.122486 
L 184.296125 66.928748 
L 186.790909 66.495144 
" clip-path="url(#p63b2348b2e)" style="fill: none; stroke: #d81159; stroke-opacity: 0.3; stroke-width: 1.5; stroke-linecap: square"/>
   </g>
   <g id="line2d_12">
    <path d="M 34.609091 65.841123 
L 37.103875 65.720168 
L 39.598659 65.938737 
L 42.093443 65.531307 
L 44.588227 64.850135 
L 47.08301 65.902662 
L 49.577794 66.184893 
L 52.072578 66.494709 
L 54.567362 66.155184 
L 57.062146 65.853856 
L 59.55693 66.375875 
L 62.051714 65.872954 
L 64.546498 65.911151 
L 67.041282 66.16155 
L 69.536066 65.951469 
L 72.030849 66.032106 
L 74.525633 66.006642 
L 77.020417 65.321226 
L 79.515201 63.08036 
L 82.009985 53.140764 
L 84.504769 30.388341 
L 86.999553 20.088 
L 89.494337 33.923646 
L 91.989121 52.610256 
L 94.483905 70.619939 
L 96.978689 82.8004 
L 99.473472 86.825894 
L 101.968256 81.531425 
L 104.46304 70.772725 
L 106.957824 66.089401 
L 109.452608 66.167916 
L 111.947392 68.014084 
L 114.442176 68.122307 
L 116.93696 68.487297 
L 119.431744 68.648571 
L 121.926528 67.982253 
L 124.421311 67.587555 
L 126.916095 68.016206 
L 129.410879 67.494186 
L 131.905663 66.611421 
L 134.400447 67.006119 
L 136.895231 67.381718 
L 139.390015 67.163149 
L 141.884799 67.368986 
L 144.379583 67.481454 
L 146.874367 67.782782 
L 149.369151 67.349888 
L 151.863934 66.713278 
L 154.358718 67.082512 
L 156.853502 67.305325 
L 159.348286 67.653338 
L 161.84307 67.506918 
L 164.337854 67.75944 
L 166.832638 67.326546 
L 169.327422 67.184369 
L 171.822206 67.77005 
L 174.31699 67.891006 
L 176.811773 67.61302 
L 179.306557 67.366864 
L 181.801341 67.453867 
L 184.296125 67.245908 
L 186.790909 67.260763 
" clip-path="url(#p63b2348b2e)" style="fill: none; stroke: #d81159; stroke-opacity: 0.3; stroke-width: 1.5; stroke-linecap: square"/>
   </g>
   <g id="line2d_13">
    <path d="M 34.609091 65.953392 
L 37.103875 66.194061 
L 39.598659 66.067094 
L 42.093443 66.048144 
L 44.588227 66.425254 
L 47.08301 66.254702 
L 49.577794 66.042458 
L 52.072578 66.17511 
L 54.567362 66.396829 
L 57.062146 65.945812 
L 59.55693 66.533271 
L 62.051714 65.769574 
L 64.546498 65.1878 
L 67.041282 64.761419 
L 69.536066 64.954712 
L 72.030849 64.803109 
L 74.525633 63.527755 
L 77.020417 59.66758 
L 79.515201 53.216901 
L 82.009985 45.977889 
L 84.504769 30.13355 
L 86.999553 20.088 
L 89.494337 30.268097 
L 91.989121 48.558919 
L 94.483905 66.790995 
L 96.978689 79.305768 
L 99.473472 84.340861 
L 101.968256 82.271489 
L 104.46304 78.46248 
L 106.957824 74.812654 
L 109.452608 72.235414 
L 111.947392 71.069971 
L 114.442176 71.259474 
L 116.93696 71.735126 
L 119.431744 72.241099 
L 121.926528 72.085707 
L 124.421311 72.589784 
L 126.916095 72.63337 
L 129.410879 72.201303 
L 131.905663 71.64227 
L 134.400447 70.963849 
L 136.895231 70.378285 
L 139.390015 69.970854 
L 141.884799 69.286748 
L 144.379583 68.437775 
L 146.874367 67.636178 
L 149.369151 67.1321 
L 151.863934 66.897117 
L 154.358718 66.669713 
L 156.853502 66.393039 
L 159.348286 66.057619 
L 161.84307 65.923072 
L 164.337854 65.005877 
L 166.832638 65.087364 
L 169.327422 65.807475 
L 171.822206 64.962292 
L 174.31699 65.093049 
L 176.811773 65.034303 
L 179.306557 65.032408 
L 181.801341 65.075994 
L 184.296125 65.005877 
L 186.790909 65.295817 
" clip-path="url(#p63b2348b2e)" style="fill: none; stroke: #d81159; stroke-opacity: 0.3; stroke-width: 1.5; stroke-linecap: square"/>
   </g>
   <g id="line2d_14">
    <path d="M 34.609091 65.431976 
L 37.103875 65.582883 
L 39.598659 65.600693 
L 42.093443 65.567324 
L 44.588227 65.498066 
L 47.08301 65.587315 
L 49.577794 65.693471 
L 52.072578 65.596961 
L 54.567362 65.553555 
L 57.062146 65.28441 
L 59.55693 65.424508 
L 62.051714 65.326699 
L 64.546498 65.363813 
L 67.041282 65.13091 
L 69.536066 64.840155 
L 72.030849 64.239459 
L 74.525633 61.464415 
L 77.020417 59.219186 
L 79.515201 56.448829 
L 82.009985 48.257883 
L 84.504769 32.552458 
L 86.999553 25.038354 
L 89.494337 32.807978 
L 91.989121 49.661285 
L 94.483905 66.707112 
L 96.978689 77.507425 
L 99.473472 83.101432 
L 101.968256 84.540622 
L 104.46304 83.156969 
L 106.957824 81.191544 
L 109.452608 79.20063 
L 111.947392 77.529676 
L 114.442176 75.891249 
L 116.93696 74.357948 
L 119.431744 73.0669 
L 121.926528 71.80565 
L 124.421311 70.853591 
L 126.916095 70.077398 
L 129.410879 69.144787 
L 131.905663 68.357486 
L 134.400447 67.901474 
L 136.895231 67.364692 
L 139.390015 67.006229 
L 141.884799 66.707598 
L 144.379583 66.39723 
L 146.874367 65.999887 
L 149.369151 65.73023 
L 151.863934 65.515486 
L 154.358718 65.309515 
L 156.853502 65.348356 
L 159.348286 65.156176 
L 161.84307 64.977448 
L 164.337854 64.854487 
L 166.832638 64.714558 
L 169.327422 64.720476 
L 171.822206 64.62475 
L 174.31699 64.622775 
L 176.811773 64.686126 
L 179.306557 64.595804 
L 181.801341 64.680677 
L 184.296125 64.616594 
L 186.790909 64.582428 
" clip-path="url(#p63b2348b2e)" style="fill: none; stroke: #000000; stroke-width: 1.5; stroke-linecap: square"/>
   </g>
   <g id="patch_3">
    <path d="M 27 115.344 
L 27 15.552 
" style="fill: none; stroke: #000000; stroke-width: 0.8; stroke-linejoin: miter; stroke-linecap: square"/>
   </g>
   <g id="patch_4">
    <path d="M 27 115.344 
L 194.4 115.344 
" style="fill: none; stroke: #000000; stroke-width: 0.8; stroke-linejoin: miter; stroke-linecap: square"/>
   </g>
   <g id="text_1">
    <!-- 4 -->
    <g transform="translate(35.887879 41.8608) scale(0.12 -0.12)">
     <defs>
      <path id="ArialMT-34" d="M 2069 0 
L 2069 1097 
L 81 1097 
L 81 1613 
L 2172 4581 
L 2631 4581 
L 2631 1613 
L 3250 1613 
L 3250 1097 
L 2631 1097 
L 2631 0 
L 2069 0 
z
M 2069 1613 
L 2069 3678 
L 634 1613 
L 2069 1613 
z
" transform="scale(0.015625)"/>
     </defs>
     <use xlink:href="#ArialMT-34"/>
    </g>
   </g>
   <g id="text_2">
    <!-- n = 13 (9.42%) -->
    <g transform="translate(134.400447 110.808) scale(0.1 -0.1)">
     <defs>
      <path id="ArialMT-6e" d="M 422 0 
L 422 3319 
L 928 3319 
L 928 2847 
Q 1294 3394 1984 3394 
Q 2284 3394 2536 3286 
Q 2788 3178 2913 3003 
Q 3038 2828 3088 2588 
Q 3119 2431 3119 2041 
L 3119 0 
L 2556 0 
L 2556 2019 
Q 2556 2363 2490 2533 
Q 2425 2703 2258 2804 
Q 2091 2906 1866 2906 
Q 1506 2906 1245 2678 
Q 984 2450 984 1813 
L 984 0 
L 422 0 
z
" transform="scale(0.015625)"/>
      <path id="ArialMT-20" transform="scale(0.015625)"/>
      <path id="ArialMT-3d" d="M 3381 2694 
L 356 2694 
L 356 3219 
L 3381 3219 
L 3381 2694 
z
M 3381 1303 
L 356 1303 
L 356 1828 
L 3381 1828 
L 3381 1303 
z
" transform="scale(0.015625)"/>
      <path id="ArialMT-31" d="M 2384 0 
L 1822 0 
L 1822 3584 
Q 1619 3391 1289 3197 
Q 959 3003 697 2906 
L 697 3450 
Q 1169 3672 1522 3987 
Q 1875 4303 2022 4600 
L 2384 4600 
L 2384 0 
z
" transform="scale(0.015625)"/>
      <path id="ArialMT-33" d="M 269 1209 
L 831 1284 
Q 928 806 1161 595 
Q 1394 384 1728 384 
Q 2125 384 2398 659 
Q 2672 934 2672 1341 
Q 2672 1728 2419 1979 
Q 2166 2231 1775 2231 
Q 1616 2231 1378 2169 
L 1441 2663 
Q 1497 2656 1531 2656 
Q 1891 2656 2178 2843 
Q 2466 3031 2466 3422 
Q 2466 3731 2256 3934 
Q 2047 4138 1716 4138 
Q 1388 4138 1169 3931 
Q 950 3725 888 3313 
L 325 3413 
Q 428 3978 793 4289 
Q 1159 4600 1703 4600 
Q 2078 4600 2393 4439 
Q 2709 4278 2876 4000 
Q 3044 3722 3044 3409 
Q 3044 3113 2884 2869 
Q 2725 2625 2413 2481 
Q 2819 2388 3044 2092 
Q 3269 1797 3269 1353 
Q 3269 753 2831 336 
Q 2394 -81 1725 -81 
Q 1122 -81 723 278 
Q 325 638 269 1209 
z
" transform="scale(0.015625)"/>
      <path id="ArialMT-28" d="M 1497 -1347 
Q 1031 -759 709 28 
Q 388 816 388 1659 
Q 388 2403 628 3084 
Q 909 3875 1497 4659 
L 1900 4659 
Q 1522 4009 1400 3731 
Q 1209 3300 1100 2831 
Q 966 2247 966 1656 
Q 966 153 1900 -1347 
L 1497 -1347 
z
" transform="scale(0.015625)"/>
      <path id="ArialMT-39" d="M 350 1059 
L 891 1109 
Q 959 728 1153 556 
Q 1347 384 1650 384 
Q 1909 384 2104 503 
Q 2300 622 2425 820 
Q 2550 1019 2634 1356 
Q 2719 1694 2719 2044 
Q 2719 2081 2716 2156 
Q 2547 1888 2255 1720 
Q 1963 1553 1622 1553 
Q 1053 1553 659 1965 
Q 266 2378 266 3053 
Q 266 3750 677 4175 
Q 1088 4600 1706 4600 
Q 2153 4600 2523 4359 
Q 2894 4119 3086 3673 
Q 3278 3228 3278 2384 
Q 3278 1506 3087 986 
Q 2897 466 2520 194 
Q 2144 -78 1638 -78 
Q 1100 -78 759 220 
Q 419 519 350 1059 
z
M 2653 3081 
Q 2653 3566 2395 3850 
Q 2138 4134 1775 4134 
Q 1400 4134 1122 3828 
Q 844 3522 844 3034 
Q 844 2597 1108 2323 
Q 1372 2050 1759 2050 
Q 2150 2050 2401 2323 
Q 2653 2597 2653 3081 
z
" transform="scale(0.015625)"/>
      <path id="ArialMT-2e" d="M 581 0 
L 581 641 
L 1222 641 
L 1222 0 
L 581 0 
z
" transform="scale(0.015625)"/>
      <path id="ArialMT-32" d="M 3222 541 
L 3222 0 
L 194 0 
Q 188 203 259 391 
Q 375 700 629 1000 
Q 884 1300 1366 1694 
Q 2113 2306 2375 2664 
Q 2638 3022 2638 3341 
Q 2638 3675 2398 3904 
Q 2159 4134 1775 4134 
Q 1369 4134 1125 3890 
Q 881 3647 878 3216 
L 300 3275 
Q 359 3922 746 4261 
Q 1134 4600 1788 4600 
Q 2447 4600 2831 4234 
Q 3216 3869 3216 3328 
Q 3216 3053 3103 2787 
Q 2991 2522 2730 2228 
Q 2469 1934 1863 1422 
Q 1356 997 1212 845 
Q 1069 694 975 541 
L 3222 541 
z
" transform="scale(0.015625)"/>
      <path id="ArialMT-25" d="M 372 3481 
Q 372 3972 619 4315 
Q 866 4659 1334 4659 
Q 1766 4659 2048 4351 
Q 2331 4044 2331 3447 
Q 2331 2866 2045 2552 
Q 1759 2238 1341 2238 
Q 925 2238 648 2547 
Q 372 2856 372 3481 
z
M 1350 4272 
Q 1141 4272 1002 4090 
Q 863 3909 863 3425 
Q 863 2984 1003 2804 
Q 1144 2625 1350 2625 
Q 1563 2625 1702 2806 
Q 1841 2988 1841 3469 
Q 1841 3913 1700 4092 
Q 1559 4272 1350 4272 
z
M 1353 -169 
L 3859 4659 
L 4316 4659 
L 1819 -169 
L 1353 -169 
z
M 3334 1075 
Q 3334 1569 3581 1911 
Q 3828 2253 4300 2253 
Q 4731 2253 5014 1945 
Q 5297 1638 5297 1041 
Q 5297 459 5011 145 
Q 4725 -169 4303 -169 
Q 3888 -169 3611 142 
Q 3334 453 3334 1075 
z
M 4316 1866 
Q 4103 1866 3964 1684 
Q 3825 1503 3825 1019 
Q 3825 581 3965 400 
Q 4106 219 4313 219 
Q 4528 219 4667 400 
Q 4806 581 4806 1063 
Q 4806 1506 4665 1686 
Q 4525 1866 4316 1866 
z
" transform="scale(0.015625)"/>
      <path id="ArialMT-29" d="M 791 -1347 
L 388 -1347 
Q 1322 153 1322 1656 
Q 1322 2244 1188 2822 
Q 1081 3291 891 3722 
Q 769 4003 388 4659 
L 791 4659 
Q 1378 3875 1659 3084 
Q 1900 2403 1900 1659 
Q 1900 816 1576 28 
Q 1253 -759 791 -1347 
z
" transform="scale(0.015625)"/>
     </defs>
     <use xlink:href="#ArialMT-6e"/>
     <use xlink:href="#ArialMT-20" x="55.615234"/>
     <use xlink:href="#ArialMT-3d" x="83.398438"/>
     <use xlink:href="#ArialMT-20" x="141.796875"/>
     <use xlink:href="#ArialMT-31" x="169.580078"/>
     <use xlink:href="#ArialMT-33" x="225.195312"/>
     <use xlink:href="#ArialMT-20" x="280.810547"/>
     <use xlink:href="#ArialMT-28" x="308.59375"/>
     <use xlink:href="#ArialMT-39" x="341.894531"/>
     <use xlink:href="#ArialMT-2e" x="397.509766"/>
     <use xlink:href="#ArialMT-34" x="425.292969"/>
     <use xlink:href="#ArialMT-32" x="480.908203"/>
     <use xlink:href="#ArialMT-25" x="536.523438"/>
     <use xlink:href="#ArialMT-29" x="625.439453"/>
    </g>
   </g>
  </g>
 </g>
 <defs>
  <clipPath id="p63b2348b2e">
   <rect x="27" y="15.552" width="167.4" height="99.792"/>
  </clipPath>
 </defs>
</svg>
