<?xml version="1.0" encoding="utf-8" standalone="no"?>
<!DOCTYPE svg PUBLIC "-//W3C//DTD SVG 1.1//EN"
  "http://www.w3.org/Graphics/SVG/1.1/DTD/svg11.dtd">
<svg xmlns:xlink="http://www.w3.org/1999/xlink" width="216pt" height="129.6pt" viewBox="0 0 216 129.6" xmlns="http://www.w3.org/2000/svg" version="1.1">
 <metadata>
  <rdf:RDF xmlns:dc="http://purl.org/dc/elements/1.1/" xmlns:cc="http://creativecommons.org/ns#" xmlns:rdf="http://www.w3.org/1999/02/22-rdf-syntax-ns#">
   <cc:Work>
    <dc:type rdf:resource="http://purl.org/dc/dcmitype/StillImage"/>
    <dc:date>2025-05-21T13:30:32.810533</dc:date>
    <dc:format>image/svg+xml</dc:format>
    <dc:creator>
     <cc:Agent>
      <dc:title>Matplotlib v3.9.4, https://matplotlib.org/</dc:title>
     </cc:Agent>
    </dc:creator>
   </cc:Work>
  </rdf:RDF>
 </metadata>
 <defs>
  <style type="text/css">*{stroke-linejoin: round; stroke-linecap: butt}</style>
 </defs>
 <g id="figure_1">
  <g id="patch_1">
   <path d="M 0 129.6 
L 216 129.6 
L 216 0 
L 0 0 
z
" style="fill: #ffffff"/>
  </g>
  <g id="axes_1">
   <g id="patch_2">
    <path d="M 27 115.344 
L 194.4 115.344 
L 194.4 15.552 
L 27 15.552 
z
" style="fill: #ffffff"/>
   </g>
   <g id="matplotlib.axis_1"/>
   <g id="matplotlib.axis_2"/>
   <g id="line2d_1">
    <path d="M 34.609091 54.571688 
L 37.103875 54.375089 
L 39.598659 54.428707 
L 42.093443 54.838289 
L 44.588227 55.027441 
L 47.08301 54.631264 
L 49.577794 54.570199 
L 52.072578 54.71467 
L 54.567362 54.677435 
L 57.062146 54.361685 
L 59.55693 54.56871 
L 62.051714 54.745947 
L 64.546498 54.704244 
L 67.041282 54.546369 
L 69.536066 54.768288 
L 72.030849 54.783181 
L 74.525633 55.134677 
L 77.020417 56.460232 
L 79.515201 62.166078 
L 82.009985 77.829971 
L 84.504769 92.854917 
L 86.999553 102.440618 
L 89.494337 108.582854 
L 91.989121 110.808 
L 94.483905 105.885573 
L 96.978689 97.419891 
L 99.473472 88.026321 
L 101.968256 78.556793 
L 104.46304 69.763446 
L 106.957824 62.480339 
L 109.452608 56.24725 
L 111.947392 51.199714 
L 114.442176 47.236453 
L 116.93696 43.067656 
L 119.431744 39.481209 
L 121.926528 36.419028 
L 124.421311 33.173651 
L 126.916095 30.254451 
L 129.410879 27.807386 
L 131.905663 26.316509 
L 134.400447 26.221188 
L 136.895231 26.77524 
L 139.390015 27.658447 
L 141.884799 28.708466 
L 144.379583 30.3036 
L 146.874367 31.982141 
L 149.369151 33.773874 
L 151.863934 35.385392 
L 154.358718 36.842014 
L 156.853502 38.411829 
L 159.348286 39.637595 
L 161.84307 41.213367 
L 164.337854 42.553817 
L 166.832638 43.413194 
L 169.327422 44.39619 
L 171.822206 45.298759 
L 174.31699 45.964515 
L 176.811773 46.844743 
L 179.306557 47.556671 
L 181.801341 48.381792 
L 184.296125 49.056485 
L 186.790909 49.586707 
" clip-path="url(#p7ce81e1d77)" style="fill: none; stroke: #5e60ce; stroke-opacity: 0.3; stroke-width: 1.5; stroke-linecap: square"/>
   </g>
   <g id="line2d_2">
    <path d="M 34.609091 55.307029 
L 37.103875 54.062743 
L 39.598659 53.479871 
L 42.093443 53.570816 
L 44.588227 53.33932 
L 47.08301 53.732035 
L 49.577794 53.479871 
L 52.072578 53.694831 
L 54.567362 53.14503 
L 57.062146 53.860185 
L 59.55693 53.583217 
L 62.051714 54.36038 
L 64.546498 54.513332 
L 67.041282 54.302506 
L 69.536066 54.612544 
L 72.030849 55.459982 
L 74.525633 57.692257 
L 77.020417 63.85995 
L 79.515201 73.694361 
L 82.009985 86.600218 
L 84.504769 99.708633 
L 86.999553 109.514107 
L 89.494337 110.808 
L 91.989121 107.405848 
L 94.483905 100.580873 
L 96.978689 91.064768 
L 99.473472 81.300632 
L 101.968256 71.524094 
L 104.46304 62.793418 
L 106.957824 55.013527 
L 109.452608 49.540319 
L 111.947392 44.244867 
L 114.442176 40.586416 
L 116.93696 36.948635 
L 119.431744 34.402188 
L 121.926528 32.376605 
L 124.421311 31.23153 
L 126.916095 29.507718 
L 129.410879 29.383703 
L 131.905663 28.51973 
L 134.400447 27.961661 
L 136.895231 28.486659 
L 139.390015 29.383703 
L 141.884799 30.425431 
L 144.379583 31.711056 
L 146.874367 33.827583 
L 149.369151 35.849032 
L 151.863934 37.692726 
L 154.358718 39.490948 
L 156.853502 40.094489 
L 159.348286 41.495861 
L 161.84307 43.64546 
L 164.337854 44.674786 
L 166.832638 45.852931 
L 169.327422 47.258438 
L 171.822206 47.543673 
L 174.31699 48.134813 
L 176.811773 48.039734 
L 179.306557 49.379099 
L 181.801341 49.436973 
L 184.296125 50.119057 
L 186.790909 50.582047 
" clip-path="url(#p7ce81e1d77)" style="fill: none; stroke: #5e60ce; stroke-opacity: 0.3; stroke-width: 1.5; stroke-linecap: square"/>
   </g>
   <g id="line2d_3">
    <path d="M 34.609091 54.080606 
L 37.103875 53.351698 
L 39.598659 53.778511 
L 42.093443 54.130494 
L 44.588227 54.274613 
L 47.08301 54.418731 
L 49.577794 54.227497 
L 52.072578 53.83117 
L 54.567362 53.312896 
L 57.062146 53.321211 
L 59.55693 53.551247 
L 62.051714 53.700909 
L 64.546498 53.215893 
L 67.041282 53.55679 
L 69.536066 54.016862 
L 72.030849 54.779029 
L 74.525633 59.218997 
L 77.020417 69.005221 
L 79.515201 82.835087 
L 82.009985 95.356797 
L 84.504769 105.844214 
L 86.999553 110.808 
L 89.494337 106.36526 
L 91.989121 98.156029 
L 94.483905 88.089882 
L 96.978689 78.7277 
L 99.473472 70.715247 
L 101.968256 63.118521 
L 104.46304 56.816093 
L 106.957824 51.092912 
L 109.452608 46.916237 
L 111.947392 43.626447 
L 114.442176 41.453579 
L 116.93696 39.058989 
L 119.431744 37.337877 
L 121.926528 36.589568 
L 124.421311 35.176094 
L 126.916095 33.621274 
L 129.410879 33.163974 
L 131.905663 32.631843 
L 134.400447 32.507124 
L 136.895231 32.529297 
L 139.390015 32.734389 
L 141.884799 33.554757 
L 144.379583 34.668907 
L 146.874367 35.77197 
L 149.369151 36.736458 
L 151.863934 37.980869 
L 154.358718 39.397114 
L 156.853502 40.976878 
L 159.348286 42.5899 
L 161.84307 43.498958 
L 164.337854 44.58262 
L 166.832638 45.488906 
L 169.327422 45.682912 
L 171.822206 46.536539 
L 174.31699 47.28762 
L 176.811773 47.661775 
L 179.306557 48.507087 
L 181.801341 49.011503 
L 184.296125 49.338542 
L 186.790909 49.574121 
" clip-path="url(#p7ce81e1d77)" style="fill: none; stroke: #5e60ce; stroke-opacity: 0.3; stroke-width: 1.5; stroke-linecap: square"/>
   </g>
   <g id="line2d_4">
    <path d="M 34.609091 51.673162 
L 37.103875 51.167736 
L 39.598659 51.406601 
L 42.093443 51.867024 
L 44.588227 51.908566 
L 47.08301 50.496142 
L 49.577794 51.340827 
L 52.072578 51.565845 
L 54.567362 51.981264 
L 57.062146 52.008958 
L 59.55693 52.337831 
L 62.051714 51.842791 
L 64.546498 51.808173 
L 67.041282 52.382835 
L 69.536066 53.230981 
L 72.030849 55.879275 
L 74.525633 61.490888 
L 77.020417 70.183522 
L 79.515201 83.12035 
L 82.009985 96.17488 
L 84.504769 106.162235 
L 86.999553 110.808 
L 89.494337 107.474266 
L 91.989121 101.332994 
L 94.483905 94.232798 
L 96.978689 86.246375 
L 99.473472 78.114556 
L 101.968256 71.54748 
L 104.46304 64.014556 
L 106.957824 58.053299 
L 109.452608 52.351679 
L 111.947392 48.079791 
L 114.442176 43.697124 
L 116.93696 40.301077 
L 119.431744 36.122659 
L 121.926528 32.809695 
L 124.421311 30.382958 
L 126.916095 29.244019 
L 129.410879 28.838986 
L 131.905663 28.40972 
L 134.400447 28.437414 
L 136.895231 28.6382 
L 139.390015 29.244019 
L 141.884799 30.216791 
L 144.379583 31.123788 
L 146.874367 32.5916 
L 149.369151 34.412519 
L 151.863934 36.652317 
L 154.358718 38.227446 
L 156.853502 39.937586 
L 159.348286 41.457326 
L 161.84307 42.897444 
L 164.337854 44.469111 
L 166.832638 45.338028 
L 169.327422 46.791993 
L 171.822206 47.363194 
L 174.31699 48.529828 
L 176.811773 50.645001 
L 179.306557 51.084652 
L 181.801341 51.095037 
L 184.296125 51.150427 
L 186.790909 51.496609 
" clip-path="url(#p7ce81e1d77)" style="fill: none; stroke: #5e60ce; stroke-opacity: 0.3; stroke-width: 1.5; stroke-linecap: square"/>
   </g>
   <g id="line2d_5">
    <path d="M 34.609091 53.233877 
L 37.103875 53.31416 
L 39.598659 53.305855 
L 42.093443 53.424896 
L 44.588227 53.848459 
L 47.08301 54.296937 
L 49.577794 53.89829 
L 52.072578 54.222191 
L 54.567362 54.144676 
L 57.062146 53.433201 
L 59.55693 53.339076 
L 62.051714 53.427664 
L 64.546498 54.294169 
L 67.041282 53.660209 
L 69.536066 53.098226 
L 72.030849 53.336307 
L 74.525633 57.378151 
L 77.020417 64.08595 
L 79.515201 75.117968 
L 82.009985 91.191217 
L 84.504769 106.013156 
L 86.999553 110.808 
L 89.494337 104.471165 
L 91.989121 94.374861 
L 94.483905 84.018329 
L 96.978689 74.733163 
L 99.473472 67.283436 
L 101.968256 61.040726 
L 104.46304 55.966274 
L 106.957824 52.057313 
L 109.452608 49.618365 
L 111.947392 48.012701 
L 114.442176 46.401501 
L 116.93696 44.192329 
L 119.431744 42.736158 
L 121.926528 40.839813 
L 124.421311 38.600189 
L 126.916095 37.094187 
L 129.410879 35.928697 
L 131.905663 35.488523 
L 134.400447 35.189537 
L 136.895231 35.30581 
L 139.390015 35.242137 
L 141.884799 34.55004 
L 144.379583 34.400547 
L 146.874367 36.238756 
L 149.369151 37.423625 
L 151.863934 37.874872 
L 154.358718 39.106804 
L 156.853502 39.981614 
L 159.348286 40.814898 
L 161.84307 41.87519 
L 164.337854 43.098816 
L 166.832638 43.536221 
L 169.327422 44.325211 
L 171.822206 45.961327 
L 174.31699 46.600824 
L 176.811773 47.924113 
L 179.306557 49.144971 
L 181.801341 49.474409 
L 184.296125 49.574071 
L 186.790909 50.518091 
" clip-path="url(#p7ce81e1d77)" style="fill: none; stroke: #5e60ce; stroke-opacity: 0.3; stroke-width: 1.5; stroke-linecap: square"/>
   </g>
   <g id="line2d_6">
    <path d="M 34.609091 52.049599 
L 37.103875 51.333758 
L 39.598659 50.777339 
L 42.093443 51.30875 
L 44.588227 51.264987 
L 47.08301 51.430662 
L 49.577794 51.652604 
L 52.072578 52.502861 
L 54.567362 52.752937 
L 57.062146 53.121799 
L 59.55693 52.94362 
L 62.051714 52.95925 
L 64.546498 52.577884 
L 67.041282 51.346262 
L 69.536066 50.433485 
L 72.030849 51.321254 
L 74.525633 54.587867 
L 77.020417 61.840061 
L 79.515201 73.237259 
L 82.009985 88.01673 
L 84.504769 102.633652 
L 86.999553 110.808 
L 89.494337 108.948062 
L 91.989121 103.640207 
L 94.483905 96.228589 
L 96.978689 88.054241 
L 99.473472 81.608542 
L 101.968256 74.756469 
L 104.46304 69.001603 
L 106.957824 63.971956 
L 109.452608 58.20146 
L 111.947392 53.540675 
L 114.442176 48.323472 
L 116.93696 43.40636 
L 119.431744 39.208215 
L 121.926528 34.850646 
L 124.421311 32.162333 
L 126.916095 29.914778 
L 129.410879 28.542488 
L 131.905663 27.882913 
L 134.400447 27.257724 
L 136.895231 27.801639 
L 139.390015 29.236448 
L 141.884799 30.568101 
L 144.379583 32.537446 
L 146.874367 33.068857 
L 149.369151 35.444576 
L 151.863934 36.523027 
L 154.358718 38.295438 
L 156.853502 39.645847 
L 159.348286 40.949366 
L 161.84307 42.409183 
L 164.337854 43.50639 
L 166.832638 45.069363 
L 169.327422 46.100925 
L 171.822206 46.988693 
L 174.31699 47.166872 
L 176.811773 48.239072 
L 179.306557 49.086203 
L 181.801341 49.995853 
L 184.296125 50.042742 
L 186.790909 50.814851 
" clip-path="url(#p7ce81e1d77)" style="fill: none; stroke: #5e60ce; stroke-opacity: 0.3; stroke-width: 1.5; stroke-linecap: square"/>
   </g>
   <g id="line2d_7">
    <path d="M 34.609091 55.106974 
L 37.103875 55.36644 
L 39.598659 55.271879 
L 42.093443 55.23959 
L 44.588227 55.13465 
L 47.08301 55.282258 
L 49.577794 54.980124 
L 52.072578 55.047009 
L 54.567362 55.073532 
L 57.062146 55.219986 
L 59.55693 55.175012 
L 62.051714 55.116199 
L 64.546498 55.292636 
L 67.041282 55.557868 
L 69.536066 55.793118 
L 72.030849 55.653583 
L 74.525633 56.36279 
L 77.020417 57.487143 
L 79.515201 62.976292 
L 82.009985 80.330537 
L 84.504769 99.516036 
L 86.999553 110.808 
L 89.494337 107.650586 
L 91.989121 96.945592 
L 94.483905 86.15065 
L 96.978689 77.557133 
L 99.473472 70.528485 
L 101.968256 64.55154 
L 104.46304 59.584782 
L 106.957824 55.530192 
L 109.452608 52.40968 
L 111.947392 49.886516 
L 114.442176 47.784265 
L 116.93696 46.144439 
L 119.431744 44.593408 
L 121.926528 43.017008 
L 124.421311 41.74966 
L 126.916095 40.694498 
L 129.410879 39.271471 
L 131.905663 38.133279 
L 134.400447 36.666431 
L 136.895231 34.898602 
L 139.390015 34.062545 
L 141.884799 33.261083 
L 144.379583 33.071961 
L 146.874367 33.468656 
L 149.369151 33.778862 
L 151.863934 34.876692 
L 154.358718 36.148652 
L 156.853502 37.331817 
L 159.348286 38.486153 
L 161.84307 39.863053 
L 164.337854 41.081967 
L 166.832638 42.126751 
L 169.327422 43.219968 
L 171.822206 44.114837 
L 174.31699 45.202289 
L 176.811773 46.054491 
L 179.306557 46.900927 
L 181.801341 47.79695 
L 184.296125 48.470408 
L 186.790909 49.034314 
" clip-path="url(#p7ce81e1d77)" style="fill: none; stroke: #5e60ce; stroke-opacity: 0.3; stroke-width: 1.5; stroke-linecap: square"/>
   </g>
   <g id="line2d_8">
    <path d="M 34.609091 55.0544 
L 37.103875 53.588687 
L 39.598659 54.429561 
L 42.093443 54.040698 
L 44.588227 53.738249 
L 47.08301 53.854576 
L 49.577794 53.947637 
L 52.072578 53.778133 
L 54.567362 53.794751 
L 57.062146 54.343147 
L 59.55693 54.366412 
L 62.051714 54.037374 
L 64.546498 53.804722 
L 67.041282 54.781864 
L 69.536066 54.828394 
L 72.030849 55.805536 
L 74.525633 58.38466 
L 77.020417 66.08547 
L 79.515201 76.335491 
L 82.009985 87.469593 
L 84.504769 100.973431 
L 86.999553 110.808 
L 89.494337 108.983337 
L 91.989121 99.673898 
L 94.483905 89.713031 
L 96.978689 80.413563 
L 99.473472 71.855261 
L 101.968256 65.33101 
L 104.46304 59.936787 
L 106.957824 55.027811 
L 109.452608 51.803907 
L 111.947392 48.403851 
L 114.442176 45.994232 
L 116.93696 43.002981 
L 119.431744 41.427589 
L 121.926528 38.243568 
L 124.421311 35.80736 
L 126.916095 33.956108 
L 129.410879 32.460482 
L 131.905663 32.247771 
L 134.400447 32.104855 
L 136.895231 31.692727 
L 139.390015 32.015118 
L 141.884799 33.121881 
L 144.379583 34.238615 
L 146.874367 35.09943 
L 149.369151 36.282636 
L 151.863934 37.133481 
L 154.358718 38.649048 
L 156.853502 39.805666 
L 159.348286 40.49033 
L 161.84307 41.553886 
L 164.337854 43.11266 
L 166.832638 43.30543 
L 169.327422 44.681405 
L 171.822206 45.435865 
L 174.31699 45.84467 
L 176.811773 46.665602 
L 179.306557 45.997556 
L 181.801341 47.516447 
L 184.296125 47.905309 
L 186.790909 48.7063 
" clip-path="url(#p7ce81e1d77)" style="fill: none; stroke: #5e60ce; stroke-opacity: 0.3; stroke-width: 1.5; stroke-linecap: square"/>
   </g>
   <g id="line2d_9">
    <path d="M 34.609091 53.77982 
L 37.103875 53.57534 
L 39.598659 53.438295 
L 42.093443 53.346931 
L 44.588227 53.170731 
L 47.08301 53.10112 
L 49.577794 52.672582 
L 52.072578 53.127224 
L 54.567362 54.136572 
L 57.062146 54.201832 
L 59.55693 53.442645 
L 62.051714 51.621903 
L 64.546498 47.401783 
L 67.041282 43.860362 
L 69.536066 40.982415 
L 72.030849 39.875177 
L 74.525633 43.775525 
L 77.020417 56.40108 
L 79.515201 76.035515 
L 82.009985 96.927285 
L 84.504769 108.980731 
L 86.999553 110.808 
L 89.494337 106.033173 
L 91.989121 98.72845 
L 94.483905 91.00389 
L 96.978689 83.296732 
L 99.473472 76.363989 
L 101.968256 70.38186 
L 104.46304 65.145865 
L 106.957824 60.014286 
L 109.452608 55.158973 
L 111.947392 51.467455 
L 114.442176 48.358923 
L 116.93696 45.876884 
L 119.431744 43.501435 
L 121.926528 40.888876 
L 124.421311 38.254564 
L 126.916095 36.235867 
L 129.410879 34.536942 
L 131.905663 33.853892 
L 134.400447 33.192595 
L 136.895231 33.956132 
L 139.390015 33.790808 
L 141.884799 33.77123 
L 144.379583 34.82626 
L 146.874367 36.366386 
L 149.369151 36.831905 
L 151.863934 37.869532 
L 154.358718 38.765764 
L 156.853502 39.644593 
L 159.348286 41.269557 
L 161.84307 42.5878 
L 164.337854 43.281727 
L 166.832638 44.108349 
L 169.327422 45.087243 
L 171.822206 45.835553 
L 174.31699 46.311948 
L 176.811773 47.197303 
L 179.306557 48.021749 
L 181.801341 48.274086 
L 184.296125 49.218175 
L 186.790909 49.918628 
" clip-path="url(#p7ce81e1d77)" style="fill: none; stroke: #5e60ce; stroke-opacity: 0.3; stroke-width: 1.5; stroke-linecap: square"/>
   </g>
   <g id="line2d_10">
    <path d="M 34.609091 53.725838 
L 37.103875 53.614657 
L 39.598659 53.3645 
L 42.093443 53.19464 
L 44.588227 53.4973 
L 47.08301 53.179199 
L 49.577794 53.052576 
L 52.072578 52.641824 
L 54.567362 52.836391 
L 57.062146 53.166845 
L 59.55693 53.664071 
L 62.051714 53.830843 
L 64.546498 54.229241 
L 67.041282 52.768447 
L 69.536066 50.618948 
L 72.030849 50.164959 
L 74.525633 54.383659 
L 77.020417 62.953859 
L 79.515201 76.604411 
L 82.009985 93.976437 
L 84.504769 106.879606 
L 86.999553 110.808 
L 89.494337 106.96608 
L 91.989121 100.514495 
L 94.483905 91.5984 
L 96.978689 82.422881 
L 99.473472 73.494432 
L 101.968256 65.989717 
L 104.46304 59.325035 
L 106.957824 53.867903 
L 109.452608 49.751119 
L 111.947392 45.467563 
L 114.442176 41.418723 
L 116.93696 38.379777 
L 119.431744 35.575546 
L 121.926528 33.02456 
L 124.421311 31.83863 
L 126.916095 31.088158 
L 129.410879 32.014666 
L 131.905663 32.193791 
L 134.400447 32.789845 
L 136.895231 33.08015 
L 139.390015 33.395163 
L 141.884799 35.025817 
L 144.379583 35.822614 
L 146.874367 37.230907 
L 149.369151 38.426102 
L 151.863934 39.340257 
L 154.358718 40.853553 
L 156.853502 42.311259 
L 159.348286 41.949921 
L 161.84307 42.879517 
L 164.337854 44.680031 
L 166.832638 45.381089 
L 169.327422 46.672024 
L 171.822206 46.835707 
L 174.31699 47.722066 
L 176.811773 48.877113 
L 179.306557 50.081573 
L 181.801341 51.06676 
L 184.296125 50.798073 
L 186.790909 50.584976 
" clip-path="url(#p7ce81e1d77)" style="fill: none; stroke: #5e60ce; stroke-opacity: 0.3; stroke-width: 1.5; stroke-linecap: square"/>
   </g>
   <g id="line2d_11">
    <path d="M 34.609091 55.183759 
L 37.103875 55.248724 
L 39.598659 55.489569 
L 42.093443 55.118794 
L 44.588227 55.35964 
L 47.08301 55.540274 
L 49.577794 55.644851 
L 52.072578 55.89362 
L 54.567362 55.906296 
L 57.062146 55.838162 
L 59.55693 55.918972 
L 62.051714 56.183585 
L 64.546498 55.752598 
L 67.041282 55.861929 
L 69.536066 56.080592 
L 72.030849 56.175662 
L 74.525633 57.131122 
L 77.020417 59.089577 
L 79.515201 71.729218 
L 82.009985 94.760078 
L 84.504769 108.852714 
L 86.999553 110.808 
L 89.494337 105.377883 
L 91.989121 96.235257 
L 94.483905 85.466924 
L 96.978689 74.571829 
L 99.473472 64.749449 
L 101.968256 55.831824 
L 104.46304 49.715613 
L 106.957824 44.770356 
L 109.452608 41.672638 
L 111.947392 39.638126 
L 114.442176 38.780906 
L 116.93696 38.259602 
L 119.431744 37.459424 
L 121.926528 36.814529 
L 124.421311 36.023858 
L 126.916095 35.225265 
L 129.410879 34.249206 
L 131.905663 34.05748 
L 134.400447 33.829311 
L 136.895231 33.959241 
L 139.390015 34.959067 
L 141.884799 36.225091 
L 144.379583 36.996747 
L 146.874367 37.771573 
L 149.369151 39.211893 
L 151.863934 39.785486 
L 154.358718 41.379503 
L 156.853502 42.450633 
L 159.348286 43.68972 
L 161.84307 44.844828 
L 164.337854 45.752752 
L 166.832638 46.52124 
L 169.327422 47.009269 
L 171.822206 47.600292 
L 174.31699 48.711034 
L 176.811773 49.349591 
L 179.306557 49.720367 
L 181.801341 50.317727 
L 184.296125 50.27653 
L 186.790909 51.062447 
" clip-path="url(#p7ce81e1d77)" style="fill: none; stroke: #5e60ce; stroke-opacity: 0.3; stroke-width: 1.5; stroke-linecap: square"/>
   </g>
   <g id="line2d_12">
    <path d="M 34.609091 55.093393 
L 37.103875 55.174584 
L 39.598659 55.297166 
L 42.093443 54.93101 
L 44.588227 55.015385 
L 47.08301 54.717685 
L 49.577794 54.533015 
L 52.072578 54.466151 
L 54.567362 54.59351 
L 57.062146 54.840267 
L 59.55693 54.728829 
L 62.051714 54.851411 
L 64.546498 55.222343 
L 67.041282 55.305126 
L 69.536066 55.056777 
L 72.030849 55.615563 
L 74.525633 60.224352 
L 77.020417 67.998002 
L 79.515201 80.643118 
L 82.009985 98.298202 
L 84.504769 110.548507 
L 86.999553 110.808 
L 89.494337 103.890837 
L 91.989121 93.897963 
L 94.483905 84.463876 
L 96.978689 75.60927 
L 99.473472 68.013922 
L 101.968256 61.814742 
L 104.46304 56.201412 
L 106.957824 51.804357 
L 109.452608 47.622219 
L 111.947392 44.094386 
L 114.442176 41.332297 
L 116.93696 38.783533 
L 119.431744 36.588189 
L 121.926528 34.470853 
L 124.421311 33.200451 
L 126.916095 32.15611 
L 129.410879 31.699211 
L 131.905663 31.100626 
L 134.400447 31.396735 
L 136.895231 32.071735 
L 139.390015 31.918905 
L 141.884799 32.719672 
L 144.379583 33.413776 
L 146.874367 34.289367 
L 149.369151 35.612304 
L 151.863934 36.819027 
L 154.358718 38.648215 
L 156.853502 40.316612 
L 159.348286 41.614078 
L 161.84307 43.186956 
L 164.337854 44.761427 
L 166.832638 45.638609 
L 169.327422 46.705237 
L 171.822206 47.805297 
L 174.31699 48.553529 
L 176.811773 49.413199 
L 179.306557 50.140735 
L 181.801341 50.670865 
L 184.296125 51.489144 
L 186.790909 52.000171 
" clip-path="url(#p7ce81e1d77)" style="fill: none; stroke: #5e60ce; stroke-opacity: 0.3; stroke-width: 1.5; stroke-linecap: square"/>
   </g>
   <g id="line2d_13">
    <path d="M 34.609091 55.250492 
L 37.103875 54.042647 
L 39.598659 54.459842 
L 42.093443 55.028437 
L 44.588227 54.863578 
L 47.08301 54.419468 
L 49.577794 53.955171 
L 52.072578 54.338721 
L 54.567362 53.998909 
L 57.062146 53.635546 
L 59.55693 53.749938 
L 62.051714 54.08975 
L 64.546498 53.998909 
L 67.041282 54.846756 
L 69.536066 56.653477 
L 72.030849 59.059074 
L 74.525633 64.943533 
L 77.020417 71.790231 
L 79.515201 82.193175 
L 82.009985 94.032748 
L 84.504769 104.44915 
L 86.999553 110.808 
L 89.494337 109.351184 
L 91.989121 102.931774 
L 94.483905 94.87723 
L 96.978689 85.978205 
L 99.473472 77.163291 
L 101.968256 68.274359 
L 104.46304 60.41832 
L 106.957824 53.736481 
L 109.452608 47.562677 
L 111.947392 42.431858 
L 114.442176 37.462535 
L 116.93696 33.448721 
L 119.431744 30.020325 
L 121.926528 27.611364 
L 124.421311 26.393426 
L 126.916095 26.36651 
L 129.410879 26.332865 
L 131.905663 27.570991 
L 134.400447 28.725004 
L 136.895231 29.673785 
L 139.390015 31.086863 
L 141.884799 31.944803 
L 144.379583 33.707785 
L 146.874367 35.7803 
L 149.369151 36.705529 
L 151.863934 37.936925 
L 154.358718 38.764585 
L 156.853502 40.618409 
L 159.348286 41.607563 
L 161.84307 43.269612 
L 164.337854 44.433719 
L 166.832638 46.028478 
L 169.327422 46.798942 
L 171.822206 47.7309 
L 174.31699 48.164917 
L 176.811773 48.366785 
L 179.306557 48.787344 
L 181.801341 49.874068 
L 184.296125 50.025469 
L 186.790909 51.32079 
" clip-path="url(#p7ce81e1d77)" style="fill: none; stroke: #5e60ce; stroke-opacity: 0.3; stroke-width: 1.5; stroke-linecap: square"/>
   </g>
   <g id="line2d_14">
    <path d="M 34.609091 55.055589 
L 37.103875 54.946953 
L 39.598659 54.711824 
L 42.093443 54.897844 
L 44.588227 55.220775 
L 47.08301 54.929096 
L 49.577794 54.835341 
L 52.072578 54.784744 
L 54.567362 54.743076 
L 57.062146 55.28923 
L 59.55693 55.007968 
L 62.051714 54.891892 
L 64.546498 55.244585 
L 67.041282 55.632995 
L 69.536066 55.827944 
L 72.030849 56.173197 
L 74.525633 57.588437 
L 77.020417 63.886328 
L 79.515201 79.873627 
L 82.009985 93.195631 
L 84.504769 101.995119 
L 86.999553 110.808 
L 89.494337 110.19339 
L 91.989121 98.718191 
L 94.483905 86.681957 
L 96.978689 76.635391 
L 99.473472 68.109725 
L 101.968256 60.603448 
L 104.46304 54.882963 
L 106.957824 50.177402 
L 109.452608 46.430216 
L 111.947392 43.034236 
L 114.442176 40.20078 
L 116.93696 37.545903 
L 119.431744 34.819595 
L 121.926528 31.975722 
L 124.421311 29.750923 
L 126.916095 28.942853 
L 129.410879 29.206257 
L 131.905663 29.627406 
L 134.400447 30.523278 
L 136.895231 31.692972 
L 139.390015 33.289767 
L 141.884799 34.649945 
L 144.379583 36.47294 
L 146.874367 38.309329 
L 149.369151 39.541525 
L 151.863934 40.618953 
L 154.358718 41.97169 
L 156.853502 43.342285 
L 159.348286 44.150356 
L 161.84307 44.7858 
L 164.337854 45.730781 
L 166.832638 46.388548 
L 169.327422 47.068637 
L 171.822206 47.666877 
L 174.31699 48.479412 
L 176.811773 49.567257 
L 179.306557 50.117876 
L 181.801341 50.387232 
L 184.296125 50.924458 
L 186.790909 51.135777 
" clip-path="url(#p7ce81e1d77)" style="fill: none; stroke: #5e60ce; stroke-opacity: 0.3; stroke-width: 1.5; stroke-linecap: square"/>
   </g>
   <g id="line2d_15">
    <path d="M 34.609091 52.926174 
L 37.103875 52.748353 
L 39.598659 52.676425 
L 42.093443 53.225873 
L 44.588227 52.260843 
L 47.08301 51.771335 
L 49.577794 51.821284 
L 52.072578 52.172931 
L 54.567362 52.350752 
L 57.062146 52.570531 
L 59.55693 52.136967 
L 62.051714 51.987118 
L 64.546498 49.911204 
L 67.041282 46.234899 
L 69.536066 44.069076 
L 72.030849 44.526616 
L 74.525633 46.682449 
L 77.020417 52.750351 
L 79.515201 66.432599 
L 82.009985 86.66027 
L 84.504769 103.595249 
L 86.999553 110.808 
L 89.494337 109.109707 
L 91.989121 102.508342 
L 94.483905 94.324567 
L 96.978689 85.559376 
L 99.473472 77.673302 
L 101.968256 69.459557 
L 104.46304 62.444607 
L 106.957824 57.183895 
L 109.452608 52.474628 
L 111.947392 48.646475 
L 114.442176 45.559578 
L 116.93696 42.844307 
L 119.431744 40.380783 
L 121.926528 38.456716 
L 124.421311 36.784397 
L 126.916095 35.531656 
L 129.410879 34.208985 
L 131.905663 34.344849 
L 134.400447 34.198996 
L 136.895231 35.391797 
L 139.390015 35.819367 
L 141.884799 36.636546 
L 144.379583 37.269909 
L 146.874367 38.648524 
L 149.369151 39.873293 
L 151.863934 40.834327 
L 154.358718 41.609548 
L 156.853502 42.446706 
L 159.348286 43.521626 
L 161.84307 44.224919 
L 164.337854 45.096043 
L 166.832638 45.665471 
L 169.327422 45.793343 
L 171.822206 46.017118 
L 174.31699 47.281847 
L 176.811773 47.87525 
L 179.306557 48.644477 
L 181.801341 49.259859 
L 184.296125 49.997118 
L 186.790909 49.971144 
" clip-path="url(#p7ce81e1d77)" style="fill: none; stroke: #5e60ce; stroke-opacity: 0.3; stroke-width: 1.5; stroke-linecap: square"/>
   </g>
   <g id="line2d_16">
    <path d="M 34.609091 54.845594 
L 37.103875 54.950769 
L 39.598659 54.911329 
L 42.093443 54.59017 
L 44.588227 54.152567 
L 47.08301 54.31972 
L 49.577794 54.387332 
L 52.072578 54.237083 
L 54.567362 54.253986 
L 57.062146 54.445554 
L 59.55693 54.507532 
L 62.051714 54.648391 
L 64.546498 54.663416 
L 67.041282 54.768591 
L 69.536066 55.219341 
L 72.030849 55.876683 
L 74.525633 56.316164 
L 77.020417 58.789651 
L 79.515201 70.725117 
L 82.009985 93.886119 
L 84.504769 107.709098 
L 86.999553 110.808 
L 89.494337 108.304463 
L 91.989121 101.475611 
L 94.483905 92.111294 
L 96.978689 84.760324 
L 99.473472 78.151212 
L 101.968256 71.339263 
L 104.46304 64.290671 
L 106.957824 57.191369 
L 109.452608 51.726033 
L 111.947392 47.066412 
L 114.442176 43.43788 
L 116.93696 40.506132 
L 119.431744 38.736941 
L 121.926528 37.294543 
L 124.421311 36.14701 
L 126.916095 35.808948 
L 129.410879 35.514083 
L 131.905663 35.031406 
L 134.400447 34.462335 
L 136.895231 33.804992 
L 139.390015 32.952324 
L 141.884799 32.527869 
L 144.379583 32.154122 
L 146.874367 32.832125 
L 149.369151 33.83692 
L 151.863934 34.714003 
L 154.358718 35.576061 
L 156.853502 36.802475 
L 159.348286 37.829808 
L 161.84307 39.210227 
L 164.337854 40.119239 
L 166.832638 41.516561 
L 169.327422 42.372985 
L 171.822206 43.54869 
L 174.31699 44.033245 
L 176.811773 44.743175 
L 179.306557 45.871927 
L 181.801341 46.717082 
L 184.296125 48.07872 
L 186.790909 48.281557 
" clip-path="url(#p7ce81e1d77)" style="fill: none; stroke: #5e60ce; stroke-opacity: 0.3; stroke-width: 1.5; stroke-linecap: square"/>
   </g>
   <g id="line2d_17">
    <path d="M 34.609091 54.693885 
L 37.103875 54.604252 
L 39.598659 54.337774 
L 42.093443 54.697519 
L 44.588227 55.115404 
L 47.08301 55.079066 
L 49.577794 55.209883 
L 52.072578 55.219573 
L 54.567362 55.109348 
L 57.062146 55.059686 
L 59.55693 54.902222 
L 62.051714 54.852561 
L 64.546498 54.622421 
L 67.041282 54.776251 
L 69.536066 54.62121 
L 72.030849 55.097235 
L 74.525633 56.85841 
L 77.020417 66.98819 
L 79.515201 82.757605 
L 82.009985 94.28397 
L 84.504769 102.369141 
L 86.999553 109.182487 
L 89.494337 110.808 
L 91.989121 104.301103 
L 94.483905 93.671071 
L 96.978689 82.287635 
L 99.473472 71.863518 
L 101.968256 62.673677 
L 104.46304 55.03425 
L 106.957824 48.728422 
L 109.452608 43.549068 
L 111.947392 38.901457 
L 114.442176 35.052068 
L 116.93696 31.648423 
L 119.431744 28.847986 
L 121.926528 26.834869 
L 124.421311 25.678114 
L 126.916095 25.775015 
L 129.410879 25.871916 
L 131.905663 26.822757 
L 134.400447 28.278693 
L 136.895231 30.326936 
L 139.390015 32.377602 
L 141.884799 34.293818 
L 144.379583 35.907218 
L 146.874367 38.023292 
L 149.369151 39.341145 
L 151.863934 40.806771 
L 154.358718 42.353552 
L 156.853502 43.853094 
L 159.348286 45.055877 
L 161.84307 46.156914 
L 164.337854 47.271274 
L 166.832638 48.402593 
L 169.327422 49.327997 
L 171.822206 50.383005 
L 174.31699 51.081903 
L 176.811773 51.675421 
L 179.306557 52.350094 
L 181.801341 52.495446 
L 184.296125 52.646853 
L 186.790909 52.695304 
" clip-path="url(#p7ce81e1d77)" style="fill: none; stroke: #5e60ce; stroke-opacity: 0.3; stroke-width: 1.5; stroke-linecap: square"/>
   </g>
   <g id="line2d_18">
    <path d="M 34.609091 54.954477 
L 37.103875 54.927519 
L 39.598659 55.068848 
L 42.093443 55.151358 
L 44.588227 55.162795 
L 47.08301 55.210994 
L 49.577794 55.361309 
L 52.072578 55.378464 
L 54.567362 55.489567 
L 57.062146 55.612923 
L 59.55693 55.707687 
L 62.051714 55.968288 
L 64.546498 56.227255 
L 67.041282 56.393909 
L 69.536066 56.777866 
L 72.030849 57.795761 
L 74.525633 61.24239 
L 77.020417 68.493463 
L 79.515201 82.550382 
L 82.009985 97.585984 
L 84.504769 106.885918 
L 86.999553 110.808 
L 89.494337 109.916729 
L 91.989121 103.95804 
L 94.483905 94.587033 
L 96.978689 84.257766 
L 99.473472 74.658836 
L 101.968256 65.371155 
L 104.46304 57.26639 
L 106.957824 49.923821 
L 109.452608 43.171075 
L 111.947392 36.580899 
L 114.442176 30.888529 
L 116.93696 26.446062 
L 119.431744 23.698725 
L 121.926528 22.794383 
L 124.421311 22.833596 
L 126.916095 23.515733 
L 129.410879 24.848146 
L 131.905663 26.823484 
L 134.400447 28.803723 
L 136.895231 30.606688 
L 139.390015 32.502783 
L 141.884799 34.44626 
L 144.379583 36.198575 
L 146.874367 37.85531 
L 149.369151 39.19916 
L 151.863934 40.382892 
L 154.358718 41.944046 
L 156.853502 43.180878 
L 159.348286 44.23962 
L 161.84307 45.262417 
L 164.337854 46.33668 
L 166.832638 47.381534 
L 169.327422 48.284242 
L 171.822206 48.941871 
L 174.31699 49.977738 
L 176.811773 50.692552 
L 179.306557 51.136145 
L 181.801341 51.60588 
L 184.296125 51.974316 
L 186.790909 52.643382 
" clip-path="url(#p7ce81e1d77)" style="fill: none; stroke: #5e60ce; stroke-opacity: 0.3; stroke-width: 1.5; stroke-linecap: square"/>
   </g>
   <g id="line2d_19">
    <path d="M 34.609091 54.379124 
L 37.103875 54.377088 
L 39.598659 54.522638 
L 42.093443 54.442229 
L 44.588227 54.692615 
L 47.08301 54.89618 
L 49.577794 54.948598 
L 52.072578 55.016793 
L 54.567362 54.981678 
L 57.062146 55.051399 
L 59.55693 54.972517 
L 62.051714 55.011704 
L 64.546498 54.852923 
L 67.041282 54.792362 
L 69.536066 55.313999 
L 72.030849 58.385294 
L 74.525633 69.579363 
L 77.020417 84.059488 
L 79.515201 93.025023 
L 82.009985 96.974704 
L 84.504769 99.447516 
L 86.999553 103.57379 
L 89.494337 109.157083 
L 91.989121 110.808 
L 94.483905 105.261348 
L 96.978689 94.623013 
L 99.473472 82.33427 
L 101.968256 70.141712 
L 104.46304 59.161387 
L 106.957824 49.688465 
L 109.452608 41.844576 
L 111.947392 35.216991 
L 114.442176 29.558378 
L 116.93696 24.748633 
L 119.431744 21.557743 
L 121.926528 20.088 
L 124.421311 20.199452 
L 126.916095 21.226949 
L 129.410879 22.792877 
L 131.905663 24.528273 
L 134.400447 26.564947 
L 136.895231 28.765999 
L 139.390015 30.732951 
L 141.884799 32.750285 
L 144.379583 34.546242 
L 146.874367 36.178838 
L 149.369151 37.809907 
L 151.863934 39.276088 
L 154.358718 40.644048 
L 156.853502 42.017607 
L 159.348286 43.170296 
L 161.84307 44.520954 
L 164.337854 45.5627 
L 166.832638 46.274671 
L 169.327422 47.080281 
L 171.822206 47.869098 
L 174.31699 48.609568 
L 176.811773 49.116955 
L 179.306557 49.72358 
L 181.801341 50.379061 
L 184.296125 50.743443 
L 186.790909 51.320552 
" clip-path="url(#p7ce81e1d77)" style="fill: none; stroke: #5e60ce; stroke-opacity: 0.3; stroke-width: 1.5; stroke-linecap: square"/>
   </g>
   <g id="line2d_20">
    <path d="M 34.609091 54.232767 
L 37.103875 54.075749 
L 39.598659 54.144331 
L 42.093443 54.353689 
L 44.588227 54.409638 
L 47.08301 54.42949 
L 49.577794 54.628019 
L 52.072578 54.606361 
L 54.567362 55.2218 
L 57.062146 55.247067 
L 59.55693 55.133365 
L 62.051714 55.461839 
L 64.546498 55.326479 
L 67.041282 55.393257 
L 69.536066 55.543055 
L 72.030849 56.281221 
L 74.525633 58.127537 
L 77.020417 66.081314 
L 79.515201 85.549749 
L 82.009985 103.792722 
L 84.504769 110.808 
L 86.999553 109.945303 
L 89.494337 105.465776 
L 91.989121 100.441198 
L 94.483905 94.90947 
L 96.978689 88.256957 
L 99.473472 81.97082 
L 101.968256 75.973452 
L 104.46304 69.943597 
L 106.957824 62.179325 
L 109.452608 52.372012 
L 111.947392 42.216373 
L 114.442176 33.907049 
L 116.93696 27.772515 
L 119.431744 24.074469 
L 121.926528 22.381562 
L 124.421311 22.529556 
L 126.916095 22.614382 
L 129.410879 23.866917 
L 131.905663 25.08516 
L 134.400447 26.904404 
L 136.895231 29.035879 
L 139.390015 30.497772 
L 141.884799 32.188874 
L 144.379583 33.717544 
L 146.874367 35.453767 
L 149.369151 37.345203 
L 151.863934 39.018258 
L 154.358718 40.426006 
L 156.853502 41.532351 
L 159.348286 42.469045 
L 161.84307 43.203601 
L 164.337854 44.340629 
L 166.832638 45.093232 
L 169.327422 46.047974 
L 171.822206 46.667023 
L 174.31699 47.347434 
L 176.811773 47.61635 
L 179.306557 48.574702 
L 181.801341 48.782255 
L 184.296125 49.161264 
L 186.790909 49.715339 
" clip-path="url(#p7ce81e1d77)" style="fill: none; stroke: #5e60ce; stroke-opacity: 0.3; stroke-width: 1.5; stroke-linecap: square"/>
   </g>
   <g id="line2d_21">
    <path d="M 34.609091 52.731302 
L 37.103875 52.506822 
L 39.598659 52.731302 
L 42.093443 52.204743 
L 44.588227 52.786729 
L 47.08301 53.061094 
L 49.577794 53.177492 
L 52.072578 52.418138 
L 54.567362 52.64539 
L 57.062146 52.977954 
L 59.55693 52.634304 
L 62.051714 52.071718 
L 64.546498 52.007976 
L 67.041282 51.89435 
L 69.536066 51.905436 
L 72.030849 52.955783 
L 74.525633 55.43061 
L 77.020417 63.633847 
L 79.515201 78.277733 
L 82.009985 95.720696 
L 84.504769 108.236174 
L 86.999553 110.808 
L 89.494337 105.944257 
L 91.989121 98.281436 
L 94.483905 89.041709 
L 96.978689 80.880043 
L 99.473472 72.912373 
L 101.968256 65.343778 
L 104.46304 59.343776 
L 106.957824 53.401972 
L 109.452608 48.227836 
L 111.947392 42.865247 
L 114.442176 38.916054 
L 116.93696 35.338224 
L 119.431744 32.195497 
L 121.926528 29.612586 
L 124.421311 28.088336 
L 126.916095 27.946997 
L 129.410879 28.21859 
L 131.905663 29.820438 
L 134.400447 31.050924 
L 136.895231 31.574712 
L 139.390015 32.597345 
L 141.884799 34.642611 
L 144.379583 36.723905 
L 146.874367 37.109125 
L 149.369151 38.985338 
L 151.863934 40.237995 
L 154.358718 41.939612 
L 156.853502 43.436148 
L 159.348286 45.159937 
L 161.84307 47.166404 
L 164.337854 47.778875 
L 166.832638 48.685111 
L 169.327422 49.497121 
L 171.822206 50.741463 
L 174.31699 51.861094 
L 176.811773 52.512364 
L 179.306557 52.786729 
L 181.801341 52.778415 
L 184.296125 53.324374 
L 186.790909 54.105899 
" clip-path="url(#p7ce81e1d77)" style="fill: none; stroke: #5e60ce; stroke-opacity: 0.3; stroke-width: 1.5; stroke-linecap: square"/>
   </g>
   <g id="line2d_22">
    <path d="M 34.609091 53.976472 
L 37.103875 53.527802 
L 39.598659 53.441617 
L 42.093443 53.550616 
L 44.588227 53.65201 
L 47.08301 53.943519 
L 49.577794 54.45049 
L 52.072578 54.202074 
L 54.567362 54.158982 
L 57.062146 54.45049 
L 59.55693 54.622861 
L 62.051714 54.980276 
L 64.546498 54.27812 
L 67.041282 53.966332 
L 69.536066 54.138703 
L 72.030849 54.840859 
L 74.525633 57.748341 
L 77.020417 65.061408 
L 79.515201 78.752179 
L 82.009985 94.559557 
L 84.504769 106.942341 
L 86.999553 110.808 
L 89.494337 106.14386 
L 91.989121 98.676167 
L 94.483905 88.807963 
L 96.978689 79.614031 
L 99.473472 71.180557 
L 101.968256 64.077883 
L 104.46304 58.245174 
L 106.957824 52.947319 
L 109.452608 47.700162 
L 111.947392 42.688747 
L 114.442176 38.513835 
L 116.93696 34.909266 
L 119.431744 31.231186 
L 121.926528 28.959953 
L 124.421311 27.124716 
L 126.916095 25.469453 
L 129.410879 25.471988 
L 131.905663 25.134852 
L 134.400447 27.094297 
L 136.895231 29.568319 
L 139.390015 30.529031 
L 141.884799 32.726753 
L 144.379583 35.19824 
L 146.874367 37.61903 
L 149.369151 39.046155 
L 151.863934 41.117135 
L 154.358718 42.554399 
L 156.853502 44.483427 
L 159.348286 46.480895 
L 161.84307 47.819301 
L 164.337854 48.703966 
L 166.832638 49.16531 
L 169.327422 50.006883 
L 171.822206 50.60004 
L 174.31699 51.715378 
L 176.811773 51.730587 
L 179.306557 51.892818 
L 181.801341 52.645671 
L 184.296125 53.160247 
L 186.790909 53.084202 
" clip-path="url(#p7ce81e1d77)" style="fill: none; stroke: #5e60ce; stroke-opacity: 0.3; stroke-width: 1.5; stroke-linecap: square"/>
   </g>
   <g id="line2d_23">
    <path d="M 34.609091 54.631402 
L 37.103875 54.614744 
L 39.598659 54.428729 
L 42.093443 54.947906 
L 44.588227 55.200554 
L 47.08301 54.736904 
L 49.577794 54.07058 
L 52.072578 54.065028 
L 54.567362 54.542559 
L 57.062146 54.428729 
L 59.55693 53.548627 
L 62.051714 54.07058 
L 64.546498 54.761891 
L 67.041282 54.99788 
L 69.536066 54.439835 
L 72.030849 55.836337 
L 74.525633 59.68713 
L 77.020417 66.836222 
L 79.515201 80.509729 
L 82.009985 97.156704 
L 84.504769 107.526358 
L 86.999553 110.808 
L 89.494337 106.585177 
L 91.989121 100.171816 
L 94.483905 93.075474 
L 96.978689 84.801961 
L 99.473472 76.922689 
L 101.968256 69.146143 
L 104.46304 62.013708 
L 106.957824 55.283844 
L 109.452608 49.520148 
L 111.947392 45.363957 
L 114.442176 40.660826 
L 116.93696 35.941037 
L 119.431744 31.393381 
L 121.926528 28.897446 
L 124.421311 27.678629 
L 126.916095 25.757398 
L 129.410879 25.529737 
L 131.905663 25.821254 
L 134.400447 26.445932 
L 136.895231 27.226085 
L 139.390015 28.447677 
L 141.884799 30.224539 
L 144.379583 32.118008 
L 146.874367 34.116977 
L 149.369151 35.846641 
L 151.863934 36.718414 
L 154.358718 38.592448 
L 156.853502 40.366534 
L 159.348286 42.412701 
L 161.84307 44.450539 
L 164.337854 45.952543 
L 166.832638 47.126938 
L 169.327422 47.862669 
L 171.822206 48.256911 
L 174.31699 49.85331 
L 176.811773 50.133721 
L 179.306557 50.389145 
L 181.801341 50.869453 
L 184.296125 52.935055 
L 186.790909 53.134952 
" clip-path="url(#p7ce81e1d77)" style="fill: none; stroke: #5e60ce; stroke-opacity: 0.3; stroke-width: 1.5; stroke-linecap: square"/>
   </g>
   <g id="line2d_24">
    <path d="M 34.609091 55.28875 
L 37.103875 55.717517 
L 39.598659 55.39492 
L 42.093443 55.004946 
L 44.588227 55.249956 
L 47.08301 55.49905 
L 49.577794 55.415338 
L 52.072578 55.605221 
L 54.567362 55.390837 
L 57.062146 55.270374 
L 59.55693 54.941652 
L 62.051714 55.027406 
L 64.546498 54.680308 
L 67.041282 55.345918 
L 69.536066 56.103408 
L 72.030849 57.289664 
L 74.525633 60.683052 
L 77.020417 67.50862 
L 79.515201 76.767954 
L 82.009985 88.171124 
L 84.504769 101.722215 
L 86.999553 110.808 
L 89.494337 109.983133 
L 91.989121 103.586332 
L 94.483905 95.027319 
L 96.978689 86.110999 
L 99.473472 77.251848 
L 101.968256 69.35232 
L 104.46304 62.937143 
L 106.957824 56.673056 
L 109.452608 51.26242 
L 111.947392 47.374929 
L 114.442176 43.765116 
L 116.93696 40.659615 
L 119.431744 37.952255 
L 121.926528 35.322482 
L 124.421311 33.135768 
L 126.916095 31.751462 
L 129.410879 30.344697 
L 131.905663 29.191108 
L 134.400447 28.662295 
L 136.895231 28.833802 
L 139.390015 28.85422 
L 141.884799 29.55454 
L 144.379583 30.118063 
L 146.874367 30.736713 
L 149.369151 32.061808 
L 151.863934 33.868756 
L 154.358718 35.349025 
L 156.853502 36.676162 
L 159.348286 38.419816 
L 161.84307 40.375812 
L 164.337854 41.100633 
L 166.832638 42.695239 
L 169.327422 44.369474 
L 171.822206 45.026917 
L 174.31699 45.868118 
L 176.811773 47.299384 
L 179.306557 48.875615 
L 181.801341 49.567768 
L 184.296125 50.004702 
L 186.790909 51.005159 
" clip-path="url(#p7ce81e1d77)" style="fill: none; stroke: #5e60ce; stroke-opacity: 0.3; stroke-width: 1.5; stroke-linecap: square"/>
   </g>
   <g id="line2d_25">
    <path d="M 34.609091 53.557494 
L 37.103875 52.291022 
L 39.598659 52.5503 
L 42.093443 52.164707 
L 44.588227 52.929244 
L 47.08301 53.527577 
L 49.577794 53.567466 
L 52.072578 53.537549 
L 54.567362 53.504308 
L 57.062146 53.255003 
L 59.55693 54.152503 
L 62.051714 53.670512 
L 64.546498 53.820095 
L 67.041282 55.063299 
L 69.536066 55.452215 
L 72.030849 59.155232 
L 74.525633 67.611674 
L 77.020417 77.916299 
L 79.515201 90.571045 
L 82.009985 100.792569 
L 84.504769 108.308297 
L 86.999553 110.808 
L 89.494337 105.462891 
L 91.989121 98.322782 
L 94.483905 90.959961 
L 96.978689 84.730649 
L 99.473472 76.141244 
L 101.968256 69.243793 
L 104.46304 62.854925 
L 106.957824 56.243344 
L 109.452608 51.646152 
L 111.947392 45.942043 
L 114.442176 41.996368 
L 116.93696 38.346536 
L 119.431744 33.839094 
L 121.926528 31.595344 
L 124.421311 29.305058 
L 126.916095 27.024744 
L 129.410879 25.934448 
L 131.905663 25.459106 
L 134.400447 24.003162 
L 136.895231 25.080162 
L 139.390015 25.47905 
L 141.884799 26.140541 
L 144.379583 28.105068 
L 146.874367 29.923336 
L 149.369151 32.173733 
L 151.863934 34.450723 
L 154.358718 36.794194 
L 156.853502 39.210795 
L 159.348286 40.766461 
L 161.84307 42.654535 
L 164.337854 43.136525 
L 166.832638 45.363654 
L 169.327422 47.208515 
L 171.822206 48.807394 
L 174.31699 49.352542 
L 176.811773 50.569152 
L 179.306557 51.755846 
L 181.801341 52.590188 
L 184.296125 53.231735 
L 186.790909 53.84004 
" clip-path="url(#p7ce81e1d77)" style="fill: none; stroke: #5e60ce; stroke-opacity: 0.3; stroke-width: 1.5; stroke-linecap: square"/>
   </g>
   <g id="line2d_26">
    <path d="M 34.609091 55.242739 
L 37.103875 53.870423 
L 39.598659 53.501993 
L 42.093443 54.14083 
L 44.588227 53.988726 
L 47.08301 53.228206 
L 49.577794 53.779161 
L 52.072578 53.37017 
L 54.567362 54.056328 
L 57.062146 53.667618 
L 59.55693 54.296314 
L 62.051714 54.211812 
L 64.546498 54.965571 
L 67.041282 55.361042 
L 69.536066 57.017285 
L 72.030849 60.197947 
L 74.525633 65.643268 
L 77.020417 73.525633 
L 79.515201 85.633107 
L 82.009985 98.325336 
L 84.504769 107.502274 
L 86.999553 110.808 
L 89.494337 105.328878 
L 91.989121 96.692754 
L 94.483905 89.063896 
L 96.978689 81.952191 
L 99.473472 74.644442 
L 101.968256 68.114112 
L 104.46304 60.985508 
L 106.957824 55.665249 
L 109.452608 50.27063 
L 111.947392 45.636529 
L 114.442176 41.076791 
L 116.93696 37.754165 
L 119.431744 33.924525 
L 121.926528 32.775296 
L 124.421311 30.463316 
L 126.916095 28.796932 
L 129.410879 28.611028 
L 131.905663 27.830227 
L 134.400447 27.509119 
L 136.895231 28.181757 
L 139.390015 28.421743 
L 141.884799 30.206429 
L 144.379583 30.889207 
L 146.874367 32.325744 
L 149.369151 33.72172 
L 151.863934 35.841035 
L 154.358718 37.605441 
L 156.853502 39.1062 
L 159.348286 40.792864 
L 161.84307 42.749934 
L 164.337854 44.034368 
L 166.832638 44.916571 
L 169.327422 45.798774 
L 171.822206 47.786265 
L 174.31699 48.009351 
L 176.811773 48.141174 
L 179.306557 49.368146 
L 181.801341 50.395693 
L 184.296125 50.983828 
L 186.790909 51.186633 
" clip-path="url(#p7ce81e1d77)" style="fill: none; stroke: #5e60ce; stroke-opacity: 0.3; stroke-width: 1.5; stroke-linecap: square"/>
   </g>
   <g id="line2d_27">
    <path d="M 34.609091 54.453148 
L 37.103875 52.915999 
L 39.598659 53.123133 
L 42.093443 53.493793 
L 44.588227 54.006176 
L 47.08301 54.231479 
L 49.577794 54.605773 
L 52.072578 54.689353 
L 54.567362 54.627576 
L 57.062146 54.990968 
L 59.55693 55.648708 
L 62.051714 54.838344 
L 64.546498 55.626905 
L 67.041282 55.401602 
L 69.536066 56.015734 
L 72.030849 59.024621 
L 74.525633 65.220457 
L 77.020417 73.404048 
L 79.515201 82.179968 
L 82.009985 91.788056 
L 84.504769 102.297356 
L 86.999553 110.808 
L 89.494337 110.281081 
L 91.989121 105.120913 
L 94.483905 97.475143 
L 96.978689 88.601107 
L 99.473472 79.639857 
L 101.968256 71.249132 
L 104.46304 64.918841 
L 106.957824 56.75342 
L 109.452608 50.499442 
L 111.947392 46.091495 
L 114.442176 41.581799 
L 116.93696 37.304673 
L 119.431744 34.506554 
L 121.926528 31.515837 
L 124.421311 28.873976 
L 126.916095 27.151497 
L 129.410879 25.948669 
L 131.905663 26.159437 
L 134.400447 26.322963 
L 136.895231 25.091064 
L 139.390015 25.977741 
L 141.884799 27.860112 
L 144.379583 29.956884 
L 146.874367 30.821758 
L 149.369151 32.689593 
L 151.863934 34.21584 
L 154.358718 36.090944 
L 156.853502 37.540878 
L 159.348286 39.862954 
L 161.84307 41.792566 
L 164.337854 42.243172 
L 166.832638 44.052865 
L 169.327422 45.313836 
L 171.822206 46.349504 
L 174.31699 47.486921 
L 176.811773 48.856909 
L 179.306557 49.892577 
L 181.801341 50.612093 
L 184.296125 51.360681 
L 186.790909 52.436322 
" clip-path="url(#p7ce81e1d77)" style="fill: none; stroke: #5e60ce; stroke-opacity: 0.3; stroke-width: 1.5; stroke-linecap: square"/>
   </g>
   <g id="line2d_28">
    <path d="M 34.609091 55.498021 
L 37.103875 55.738764 
L 39.598659 55.648887 
L 42.093443 54.990855 
L 44.588227 55.350365 
L 47.08301 56.018026 
L 49.577794 55.761233 
L 52.072578 55.475551 
L 54.567362 55.748394 
L 57.062146 55.228388 
L 59.55693 55.748394 
L 62.051714 55.16419 
L 64.546498 56.326178 
L 67.041282 56.104694 
L 69.536066 54.679493 
L 72.030849 54.621715 
L 74.525633 57.764218 
L 77.020417 65.137384 
L 79.515201 79.72001 
L 82.009985 96.3634 
L 84.504769 107.588459 
L 86.999553 110.808 
L 89.494337 105.871157 
L 91.989121 97.727612 
L 94.483905 87.362809 
L 96.978689 77.113563 
L 99.473472 68.013464 
L 101.968256 59.401273 
L 104.46304 53.793558 
L 106.957824 49.434499 
L 109.452608 45.653223 
L 111.947392 44.661361 
L 114.442176 43.316408 
L 116.93696 41.030951 
L 119.431744 40.286252 
L 121.926528 38.649197 
L 124.421311 37.320294 
L 126.916095 36.870906 
L 129.410879 36.264233 
L 131.905663 35.29163 
L 134.400447 35.111875 
L 136.895231 34.691377 
L 139.390015 34.701006 
L 141.884799 34.415324 
L 144.379583 34.120012 
L 146.874367 34.771624 
L 149.369151 35.018788 
L 151.863934 34.627178 
L 154.358718 35.021997 
L 156.853502 37.782521 
L 159.348286 38.514381 
L 161.84307 40.193164 
L 164.337854 40.815887 
L 166.832638 42.231458 
L 169.327422 43.25221 
L 171.822206 44.812227 
L 174.31699 45.081859 
L 176.811773 47.441144 
L 179.306557 47.672257 
L 181.801341 48.975481 
L 184.296125 50.48414 
L 186.790909 50.609326 
" clip-path="url(#p7ce81e1d77)" style="fill: none; stroke: #5e60ce; stroke-opacity: 0.3; stroke-width: 1.5; stroke-linecap: square"/>
   </g>
   <g id="line2d_29">
    <path d="M 34.609091 54.306342 
L 37.103875 53.929644 
L 39.598659 53.93292 
L 42.093443 53.996337 
L 44.588227 54.093618 
L 47.08301 54.070789 
L 49.577794 54.070519 
L 52.072578 54.092974 
L 54.567362 54.184956 
L 57.062146 54.246384 
L 59.55693 54.261829 
L 62.051714 54.20088 
L 64.546498 54.076116 
L 67.041282 53.889454 
L 69.536066 53.832097 
L 72.030849 54.855955 
L 74.525633 58.460428 
L 77.020417 65.761162 
L 79.515201 78.214791 
L 82.009985 93.222198 
L 84.504769 104.869661 
L 86.999553 110.115725 
L 89.494337 107.62351 
L 91.989121 100.908417 
L 94.483905 92.309681 
L 96.978689 83.438599 
L 99.473472 75.02449 
L 101.968256 67.293208 
L 104.46304 60.599989 
L 106.957824 54.603433 
L 109.452608 49.471577 
L 111.947392 45.085039 
L 114.442176 41.330782 
L 116.93696 37.988122 
L 119.431744 35.210686 
L 121.926528 33.039645 
L 124.421311 31.42528 
L 126.916095 30.340852 
L 129.410879 29.887952 
L 131.905663 29.834945 
L 134.400447 30.079156 
L 136.895231 30.669348 
L 139.390015 31.353857 
L 141.884799 32.405629 
L 144.379583 33.582823 
L 146.874367 34.936179 
L 149.369151 36.320723 
L 151.863934 37.59282 
L 154.358718 39.037218 
L 156.853502 40.475189 
L 159.348286 41.746389 
L 161.84307 43.153298 
L 164.337854 44.221898 
L 166.832638 45.241727 
L 169.327422 46.214811 
L 171.822206 47.09018 
L 174.31699 47.865523 
L 176.811773 48.687497 
L 179.306557 49.409317 
L 181.801341 50.034787 
L 184.296125 50.588406 
L 186.790909 51.084487 
" clip-path="url(#p7ce81e1d77)" style="fill: none; stroke: #000000; stroke-width: 1.5; stroke-linecap: square"/>
   </g>
   <g id="patch_3">
    <path d="M 27 115.344 
L 27 15.552 
" style="fill: none; stroke: #000000; stroke-width: 0.8; stroke-linejoin: miter; stroke-linecap: square"/>
   </g>
   <g id="patch_4">
    <path d="M 27 115.344 
L 194.4 115.344 
" style="fill: none; stroke: #000000; stroke-width: 0.8; stroke-linejoin: miter; stroke-linecap: square"/>
   </g>
   <g id="text_1">
    <!-- 1 -->
    <g transform="translate(35.887879 23.133327) scale(0.12 -0.12)">
     <defs>
      <path id="ArialMT-31" d="M 2384 0 
L 1822 0 
L 1822 3584 
Q 1619 3391 1289 3197 
Q 959 3003 697 2906 
L 697 3450 
Q 1169 3672 1522 3987 
Q 1875 4303 2022 4600 
L 2384 4600 
L 2384 0 
z
" transform="scale(0.015625)"/>
     </defs>
     <use xlink:href="#ArialMT-31"/>
    </g>
   </g>
   <g id="text_2">
    <!-- n = 28 (20.29%) -->
    <g transform="translate(134.400447 110.808) scale(0.1 -0.1)">
     <defs>
      <path id="ArialMT-6e" d="M 422 0 
L 422 3319 
L 928 3319 
L 928 2847 
Q 1294 3394 1984 3394 
Q 2284 3394 2536 3286 
Q 2788 3178 2913 3003 
Q 3038 2828 3088 2588 
Q 3119 2431 3119 2041 
L 3119 0 
L 2556 0 
L 2556 2019 
Q 2556 2363 2490 2533 
Q 2425 2703 2258 2804 
Q 2091 2906 1866 2906 
Q 1506 2906 1245 2678 
Q 984 2450 984 1813 
L 984 0 
L 422 0 
z
" transform="scale(0.015625)"/>
      <path id="ArialMT-20" transform="scale(0.015625)"/>
      <path id="ArialMT-3d" d="M 3381 2694 
L 356 2694 
L 356 3219 
L 3381 3219 
L 3381 2694 
z
M 3381 1303 
L 356 1303 
L 356 1828 
L 3381 1828 
L 3381 1303 
z
" transform="scale(0.015625)"/>
      <path id="ArialMT-32" d="M 3222 541 
L 3222 0 
L 194 0 
Q 188 203 259 391 
Q 375 700 629 1000 
Q 884 1300 1366 1694 
Q 2113 2306 2375 2664 
Q 2638 3022 2638 3341 
Q 2638 3675 2398 3904 
Q 2159 4134 1775 4134 
Q 1369 4134 1125 3890 
Q 881 3647 878 3216 
L 300 3275 
Q 359 3922 746 4261 
Q 1134 4600 1788 4600 
Q 2447 4600 2831 4234 
Q 3216 3869 3216 3328 
Q 3216 3053 3103 2787 
Q 2991 2522 2730 2228 
Q 2469 1934 1863 1422 
Q 1356 997 1212 845 
Q 1069 694 975 541 
L 3222 541 
z
" transform="scale(0.015625)"/>
      <path id="ArialMT-38" d="M 1131 2484 
Q 781 2613 612 2850 
Q 444 3088 444 3419 
Q 444 3919 803 4259 
Q 1163 4600 1759 4600 
Q 2359 4600 2725 4251 
Q 3091 3903 3091 3403 
Q 3091 3084 2923 2848 
Q 2756 2613 2416 2484 
Q 2838 2347 3058 2040 
Q 3278 1734 3278 1309 
Q 3278 722 2862 322 
Q 2447 -78 1769 -78 
Q 1091 -78 675 323 
Q 259 725 259 1325 
Q 259 1772 486 2073 
Q 713 2375 1131 2484 
z
M 1019 3438 
Q 1019 3113 1228 2906 
Q 1438 2700 1772 2700 
Q 2097 2700 2305 2904 
Q 2513 3109 2513 3406 
Q 2513 3716 2298 3927 
Q 2084 4138 1766 4138 
Q 1444 4138 1231 3931 
Q 1019 3725 1019 3438 
z
M 838 1322 
Q 838 1081 952 856 
Q 1066 631 1291 507 
Q 1516 384 1775 384 
Q 2178 384 2440 643 
Q 2703 903 2703 1303 
Q 2703 1709 2433 1975 
Q 2163 2241 1756 2241 
Q 1359 2241 1098 1978 
Q 838 1716 838 1322 
z
" transform="scale(0.015625)"/>
      <path id="ArialMT-28" d="M 1497 -1347 
Q 1031 -759 709 28 
Q 388 816 388 1659 
Q 388 2403 628 3084 
Q 909 3875 1497 4659 
L 1900 4659 
Q 1522 4009 1400 3731 
Q 1209 3300 1100 2831 
Q 966 2247 966 1656 
Q 966 153 1900 -1347 
L 1497 -1347 
z
" transform="scale(0.015625)"/>
      <path id="ArialMT-30" d="M 266 2259 
Q 266 3072 433 3567 
Q 600 4063 929 4331 
Q 1259 4600 1759 4600 
Q 2128 4600 2406 4451 
Q 2684 4303 2865 4023 
Q 3047 3744 3150 3342 
Q 3253 2941 3253 2259 
Q 3253 1453 3087 958 
Q 2922 463 2592 192 
Q 2263 -78 1759 -78 
Q 1097 -78 719 397 
Q 266 969 266 2259 
z
M 844 2259 
Q 844 1131 1108 757 
Q 1372 384 1759 384 
Q 2147 384 2411 759 
Q 2675 1134 2675 2259 
Q 2675 3391 2411 3762 
Q 2147 4134 1753 4134 
Q 1366 4134 1134 3806 
Q 844 3388 844 2259 
z
" transform="scale(0.015625)"/>
      <path id="ArialMT-2e" d="M 581 0 
L 581 641 
L 1222 641 
L 1222 0 
L 581 0 
z
" transform="scale(0.015625)"/>
      <path id="ArialMT-39" d="M 350 1059 
L 891 1109 
Q 959 728 1153 556 
Q 1347 384 1650 384 
Q 1909 384 2104 503 
Q 2300 622 2425 820 
Q 2550 1019 2634 1356 
Q 2719 1694 2719 2044 
Q 2719 2081 2716 2156 
Q 2547 1888 2255 1720 
Q 1963 1553 1622 1553 
Q 1053 1553 659 1965 
Q 266 2378 266 3053 
Q 266 3750 677 4175 
Q 1088 4600 1706 4600 
Q 2153 4600 2523 4359 
Q 2894 4119 3086 3673 
Q 3278 3228 3278 2384 
Q 3278 1506 3087 986 
Q 2897 466 2520 194 
Q 2144 -78 1638 -78 
Q 1100 -78 759 220 
Q 419 519 350 1059 
z
M 2653 3081 
Q 2653 3566 2395 3850 
Q 2138 4134 1775 4134 
Q 1400 4134 1122 3828 
Q 844 3522 844 3034 
Q 844 2597 1108 2323 
Q 1372 2050 1759 2050 
Q 2150 2050 2401 2323 
Q 2653 2597 2653 3081 
z
" transform="scale(0.015625)"/>
      <path id="ArialMT-25" d="M 372 3481 
Q 372 3972 619 4315 
Q 866 4659 1334 4659 
Q 1766 4659 2048 4351 
Q 2331 4044 2331 3447 
Q 2331 2866 2045 2552 
Q 1759 2238 1341 2238 
Q 925 2238 648 2547 
Q 372 2856 372 3481 
z
M 1350 4272 
Q 1141 4272 1002 4090 
Q 863 3909 863 3425 
Q 863 2984 1003 2804 
Q 1144 2625 1350 2625 
Q 1563 2625 1702 2806 
Q 1841 2988 1841 3469 
Q 1841 3913 1700 4092 
Q 1559 4272 1350 4272 
z
M 1353 -169 
L 3859 4659 
L 4316 4659 
L 1819 -169 
L 1353 -169 
z
M 3334 1075 
Q 3334 1569 3581 1911 
Q 3828 2253 4300 2253 
Q 4731 2253 5014 1945 
Q 5297 1638 5297 1041 
Q 5297 459 5011 145 
Q 4725 -169 4303 -169 
Q 3888 -169 3611 142 
Q 3334 453 3334 1075 
z
M 4316 1866 
Q 4103 1866 3964 1684 
Q 3825 1503 3825 1019 
Q 3825 581 3965 400 
Q 4106 219 4313 219 
Q 4528 219 4667 400 
Q 4806 581 4806 1063 
Q 4806 1506 4665 1686 
Q 4525 1866 4316 1866 
z
" transform="scale(0.015625)"/>
      <path id="ArialMT-29" d="M 791 -1347 
L 388 -1347 
Q 1322 153 1322 1656 
Q 1322 2244 1188 2822 
Q 1081 3291 891 3722 
Q 769 4003 388 4659 
L 791 4659 
Q 1378 3875 1659 3084 
Q 1900 2403 1900 1659 
Q 1900 816 1576 28 
Q 1253 -759 791 -1347 
z
" transform="scale(0.015625)"/>
     </defs>
     <use xlink:href="#ArialMT-6e"/>
     <use xlink:href="#ArialMT-20" x="55.615234"/>
     <use xlink:href="#ArialMT-3d" x="83.398438"/>
     <use xlink:href="#ArialMT-20" x="141.796875"/>
     <use xlink:href="#ArialMT-32" x="169.580078"/>
     <use xlink:href="#ArialMT-38" x="225.195312"/>
     <use xlink:href="#ArialMT-20" x="280.810547"/>
     <use xlink:href="#ArialMT-28" x="308.59375"/>
     <use xlink:href="#ArialMT-32" x="341.894531"/>
     <use xlink:href="#ArialMT-30" x="397.509766"/>
     <use xlink:href="#ArialMT-2e" x="453.125"/>
     <use xlink:href="#ArialMT-32" x="480.908203"/>
     <use xlink:href="#ArialMT-39" x="536.523438"/>
     <use xlink:href="#ArialMT-25" x="592.138672"/>
     <use xlink:href="#ArialMT-29" x="681.054688"/>
    </g>
   </g>
  </g>
 </g>
 <defs>
  <clipPath id="p7ce81e1d77">
   <rect x="27" y="15.552" width="167.4" height="99.792"/>
  </clipPath>
 </defs>
</svg>
