<?xml version="1.0" encoding="utf-8" standalone="no"?>
<!DOCTYPE svg PUBLIC "-//W3C//DTD SVG 1.1//EN"
  "http://www.w3.org/Graphics/SVG/1.1/DTD/svg11.dtd">
<svg xmlns:xlink="http://www.w3.org/1999/xlink" width="216pt" height="129.6pt" viewBox="0 0 216 129.6" xmlns="http://www.w3.org/2000/svg" version="1.1">
 <metadata>
  <rdf:RDF xmlns:dc="http://purl.org/dc/elements/1.1/" xmlns:cc="http://creativecommons.org/ns#" xmlns:rdf="http://www.w3.org/1999/02/22-rdf-syntax-ns#">
   <cc:Work>
    <dc:type rdf:resource="http://purl.org/dc/dcmitype/StillImage"/>
    <dc:date>2025-05-21T13:30:33.048437</dc:date>
    <dc:format>image/svg+xml</dc:format>
    <dc:creator>
     <cc:Agent>
      <dc:title>Matplotlib v3.9.4, https://matplotlib.org/</dc:title>
     </cc:Agent>
    </dc:creator>
   </cc:Work>
  </rdf:RDF>
 </metadata>
 <defs>
  <style type="text/css">*{stroke-linejoin: round; stroke-linecap: butt}</style>
 </defs>
 <g id="figure_1">
  <g id="patch_1">
   <path d="M 0 129.6 
L 216 129.6 
L 216 0 
L 0 0 
z
" style="fill: #ffffff"/>
  </g>
  <g id="axes_1">
   <g id="patch_2">
    <path d="M 27 115.344 
L 194.4 115.344 
L 194.4 15.552 
L 27 15.552 
z
" style="fill: #ffffff"/>
   </g>
   <g id="matplotlib.axis_1"/>
   <g id="matplotlib.axis_2"/>
   <g id="line2d_1">
    <path d="M 34.609091 51.902578 
L 37.103875 52.017204 
L 39.598659 52.184735 
L 42.093443 51.957246 
L 44.588227 52.075399 
L 47.08301 52.262328 
L 49.577794 52.20766 
L 52.072578 52.712014 
L 54.567362 52.754338 
L 57.062146 52.713778 
L 59.55693 52.69967 
L 62.051714 52.838985 
L 64.546498 52.701434 
L 67.041282 52.743757 
L 69.536066 53.163464 
L 72.030849 53.56201 
L 74.525633 54.967501 
L 77.020417 62.698585 
L 79.515201 76.822272 
L 82.009985 88.455929 
L 84.504769 96.16056 
L 86.999553 103.283244 
L 89.494337 109.333733 
L 91.989121 110.808 
L 94.483905 107.672538 
L 96.978689 101.410431 
L 99.473472 93.889202 
L 101.968256 86.098161 
L 104.46304 78.390003 
L 106.957824 71.027486 
L 109.452608 64.571397 
L 111.947392 58.602027 
L 114.442176 53.205788 
L 116.93696 48.590769 
L 119.431744 44.178549 
L 121.926528 40.302427 
L 124.421311 37.226923 
L 126.916095 34.146129 
L 129.410879 31.848318 
L 131.905663 29.57696 
L 134.400447 27.57894 
L 136.895231 25.353433 
L 139.390015 24.22128 
L 141.884799 22.424297 
L 144.379583 21.412061 
L 146.874367 21.038204 
L 149.369151 21.151067 
L 151.863934 22.150958 
L 154.358718 22.836951 
L 156.853502 24.129579 
L 159.348286 25.473349 
L 161.84307 26.369195 
L 164.337854 27.919292 
L 166.832638 29.241899 
L 169.327422 31.023011 
L 171.822206 32.714185 
L 174.31699 33.867499 
L 176.811773 34.939693 
L 179.306557 36.022468 
L 181.801341 37.255139 
L 184.296125 38.285009 
L 186.790909 39.512389 
" clip-path="url(#pa95da7db66)" style="fill: none; stroke: #7bdff2; stroke-opacity: 0.3; stroke-width: 1.5; stroke-linecap: square"/>
   </g>
   <g id="line2d_2">
    <path d="M 34.609091 52.045426 
L 37.103875 51.198763 
L 39.598659 51.942593 
L 42.093443 52.292227 
L 44.588227 51.747209 
L 47.08301 51.740353 
L 49.577794 51.774631 
L 52.072578 52.374494 
L 54.567362 52.028287 
L 57.062146 51.805481 
L 59.55693 51.870609 
L 62.051714 52.288799 
L 64.546498 52.590445 
L 67.041282 52.559595 
L 69.536066 53.077191 
L 72.030849 54.139805 
L 74.525633 59.038114 
L 77.020417 69.534002 
L 79.515201 86.271892 
L 82.009985 100.514352 
L 84.504769 109.015267 
L 86.999553 110.808 
L 89.494337 105.501784 
L 91.989121 98.536518 
L 94.483905 90.539488 
L 96.978689 84.372897 
L 99.473472 76.68094 
L 101.968256 70.270976 
L 104.46304 63.80274 
L 106.957824 58.640491 
L 109.452608 52.552739 
L 111.947392 48.137748 
L 114.442176 43.349128 
L 116.93696 39.962473 
L 119.431744 36.267317 
L 121.926528 33.072619 
L 124.421311 30.059593 
L 126.916095 27.540168 
L 129.410879 25.665168 
L 131.905663 24.194647 
L 134.400447 23.916996 
L 136.895231 23.234866 
L 139.390015 24.139802 
L 141.884799 24.993322 
L 144.379583 25.267545 
L 146.874367 27.070561 
L 149.369151 29.247207 
L 151.863934 30.210415 
L 154.358718 31.742637 
L 156.853502 33.172024 
L 159.348286 34.430023 
L 161.84307 36.133633 
L 164.337854 37.940078 
L 166.832638 38.334274 
L 169.327422 39.715672 
L 171.822206 41.645517 
L 174.31699 41.748351 
L 176.811773 42.821248 
L 179.306557 44.065535 
L 181.801341 45.3441 
L 184.296125 46.797483 
L 186.790909 46.907172 
" clip-path="url(#pa95da7db66)" style="fill: none; stroke: #7bdff2; stroke-opacity: 0.3; stroke-width: 1.5; stroke-linecap: square"/>
   </g>
   <g id="line2d_3">
    <path d="M 34.609091 50.112885 
L 37.103875 48.960514 
L 39.598659 48.91072 
L 42.093443 49.113452 
L 44.588227 49.494019 
L 47.08301 49.323298 
L 49.577794 49.675411 
L 52.072578 49.785669 
L 54.567362 50.504123 
L 57.062146 50.834896 
L 59.55693 51.108762 
L 62.051714 50.742422 
L 64.546498 50.24804 
L 67.041282 50.319174 
L 69.536066 51.361288 
L 72.030849 52.595463 
L 74.525633 56.856392 
L 77.020417 71.453096 
L 79.515201 89.979955 
L 82.009985 103.527432 
L 84.504769 109.598721 
L 86.999553 110.808 
L 89.494337 106.070473 
L 91.989121 99.526142 
L 94.483905 93.984801 
L 96.978689 87.269748 
L 99.473472 80.341293 
L 101.968256 74.152632 
L 104.46304 68.020878 
L 106.957824 61.810877 
L 109.452608 56.258866 
L 111.947392 52.303814 
L 114.442176 48.323864 
L 116.93696 43.927781 
L 119.431744 40.609378 
L 121.926528 37.287419 
L 124.421311 35.726027 
L 126.916095 33.876542 
L 129.410879 31.223243 
L 131.905663 30.437211 
L 134.400447 29.548036 
L 136.895231 27.943964 
L 139.390015 26.951644 
L 141.884799 26.756025 
L 144.379583 26.930304 
L 146.874367 26.581747 
L 149.369151 26.777365 
L 151.863934 27.94752 
L 154.358718 29.025201 
L 156.853502 29.195923 
L 159.348286 30.045974 
L 161.84307 30.803552 
L 164.337854 31.874119 
L 166.832638 33.65247 
L 169.327422 35.050254 
L 171.822206 36.899738 
L 174.31699 37.877831 
L 176.811773 39.834017 
L 179.306557 40.40309 
L 181.801341 41.41675 
L 184.296125 42.874997 
L 186.790909 43.828193 
" clip-path="url(#pa95da7db66)" style="fill: none; stroke: #7bdff2; stroke-opacity: 0.3; stroke-width: 1.5; stroke-linecap: square"/>
   </g>
   <g id="line2d_4">
    <path d="M 34.609091 53.378772 
L 37.103875 53.091455 
L 39.598659 53.179446 
L 42.093443 53.276415 
L 44.588227 52.929839 
L 47.08301 52.644318 
L 49.577794 52.753858 
L 52.072578 52.506047 
L 54.567362 52.434218 
L 57.062146 52.922656 
L 59.55693 53.251275 
L 62.051714 53.382363 
L 64.546498 53.942631 
L 67.041282 54.339487 
L 69.536066 58.724659 
L 72.030849 67.020929 
L 74.525633 76.14144 
L 77.020417 82.602475 
L 79.515201 88.418843 
L 82.009985 95.357542 
L 84.504769 104.81565 
L 86.999553 110.808 
L 89.494337 109.163112 
L 91.989121 101.649779 
L 94.483905 92.382019 
L 96.978689 82.588109 
L 99.473472 73.756711 
L 101.968256 65.817791 
L 104.46304 59.360347 
L 106.957824 53.48472 
L 109.452608 48.483613 
L 111.947392 44.511459 
L 114.442176 40.8356 
L 116.93696 38.621466 
L 119.431744 35.956603 
L 121.926528 33.345612 
L 124.421311 30.504768 
L 126.916095 28.062576 
L 129.410879 26.460785 
L 131.905663 24.636324 
L 134.400447 23.724093 
L 136.895231 22.998618 
L 139.390015 23.068652 
L 141.884799 23.878526 
L 144.379583 24.451363 
L 146.874367 25.467746 
L 149.369151 26.886373 
L 151.863934 28.008704 
L 154.358718 29.463245 
L 156.853502 30.968066 
L 159.348286 32.217894 
L 161.84307 33.826868 
L 164.337854 35.216762 
L 166.832638 36.770068 
L 169.327422 38.107887 
L 171.822206 39.106313 
L 174.31699 40.392055 
L 176.811773 41.59699 
L 179.306557 42.493059 
L 181.801341 43.338847 
L 184.296125 43.956578 
L 186.790909 45.201019 
" clip-path="url(#pa95da7db66)" style="fill: none; stroke: #7bdff2; stroke-opacity: 0.3; stroke-width: 1.5; stroke-linecap: square"/>
   </g>
   <g id="line2d_5">
    <path d="M 34.609091 53.349906 
L 37.103875 53.186537 
L 39.598659 52.475254 
L 42.093443 52.362152 
L 44.588227 52.749211 
L 47.08301 52.756751 
L 49.577794 52.231457 
L 52.072578 52.477767 
L 54.567362 52.578302 
L 57.062146 52.794451 
L 59.55693 52.982954 
L 62.051714 52.698943 
L 64.546498 52.616002 
L 67.041282 53.392633 
L 69.536066 55.478728 
L 72.030849 61.133805 
L 74.525633 68.666367 
L 77.020417 78.978714 
L 79.515201 92.719294 
L 82.009985 104.258164 
L 84.504769 109.855434 
L 86.999553 110.808 
L 89.494337 107.168644 
L 91.989121 102.081588 
L 94.483905 95.551859 
L 96.978689 87.805661 
L 99.473472 80.858713 
L 101.968256 73.338717 
L 104.46304 66.788882 
L 106.957824 60.668832 
L 109.452608 55.141937 
L 111.947392 50.100121 
L 114.442176 44.62098 
L 116.93696 40.780555 
L 119.431744 36.206226 
L 121.926528 32.167244 
L 124.421311 29.063235 
L 126.916095 25.810938 
L 129.410879 23.405645 
L 131.905663 21.766929 
L 134.400447 20.924951 
L 136.895231 20.113134 
L 139.390015 20.088 
L 141.884799 20.645968 
L 144.379583 22.025806 
L 146.874367 23.176929 
L 149.369151 24.647249 
L 151.863934 25.911473 
L 154.358718 27.484841 
L 156.853502 29.16377 
L 159.348286 30.588849 
L 161.84307 32.639757 
L 164.337854 34.182965 
L 166.832638 35.444675 
L 169.327422 36.922536 
L 171.822206 38.676866 
L 174.31699 39.73248 
L 176.811773 40.282908 
L 179.306557 41.682854 
L 181.801341 42.539912 
L 184.296125 43.497505 
L 186.790909 44.432478 
" clip-path="url(#pa95da7db66)" style="fill: none; stroke: #7bdff2; stroke-opacity: 0.3; stroke-width: 1.5; stroke-linecap: square"/>
   </g>
   <g id="line2d_6">
    <path d="M 34.609091 50.182877 
L 37.103875 49.633209 
L 39.598659 49.988876 
L 42.093443 50.364752 
L 44.588227 50.26371 
L 47.08301 50.785086 
L 49.577794 50.958878 
L 52.072578 51.569171 
L 54.567362 51.678296 
L 57.062146 51.932922 
L 59.55693 52.130964 
L 62.051714 52.179464 
L 64.546498 51.334754 
L 67.041282 51.496421 
L 69.536066 53.998218 
L 72.030849 56.059472 
L 74.525633 62.138151 
L 77.020417 70.876252 
L 79.515201 84.314821 
L 82.009985 98.662767 
L 84.504769 106.972451 
L 86.999553 110.808 
L 89.494337 106.034782 
L 91.989121 99.980353 
L 94.483905 93.562173 
L 96.978689 86.214408 
L 99.473472 79.202102 
L 101.968256 71.745212 
L 104.46304 65.141115 
L 106.957824 59.612104 
L 109.452608 54.543844 
L 111.947392 49.261375 
L 114.442176 45.842118 
L 116.93696 42.232902 
L 119.431744 38.296311 
L 121.926528 35.653056 
L 124.421311 32.589466 
L 126.916095 30.111919 
L 129.410879 28.846875 
L 131.905663 26.603745 
L 134.400447 24.465699 
L 136.895231 24.00899 
L 139.390015 24.041324 
L 141.884799 23.871573 
L 144.379583 24.78095 
L 146.874367 25.391243 
L 149.369151 27.137247 
L 151.863934 29.129792 
L 154.358718 30.168503 
L 156.853502 30.980879 
L 159.348286 33.203801 
L 161.84307 34.185928 
L 164.337854 35.737931 
L 166.832638 36.922141 
L 169.327422 38.474145 
L 171.822206 39.42798 
L 174.31699 41.105275 
L 176.811773 42.439028 
L 179.306557 43.445405 
L 181.801341 44.330532 
L 184.296125 45.878493 
L 186.790909 45.753201 
" clip-path="url(#pa95da7db66)" style="fill: none; stroke: #7bdff2; stroke-opacity: 0.3; stroke-width: 1.5; stroke-linecap: square"/>
   </g>
   <g id="line2d_7">
    <path d="M 34.609091 54.126868 
L 37.103875 53.327243 
L 39.598659 53.470766 
L 42.093443 53.509209 
L 44.588227 53.214475 
L 47.08301 53.337495 
L 49.577794 52.888987 
L 52.072578 52.435353 
L 54.567362 52.522492 
L 57.062146 53.193972 
L 59.55693 53.391316 
L 62.051714 53.416945 
L 64.546498 54.357529 
L 67.041282 54.483112 
L 69.536066 55.897833 
L 72.030849 58.186504 
L 74.525633 65.190915 
L 77.020417 75.709063 
L 79.515201 87.249809 
L 82.009985 96.935014 
L 84.504769 105.041471 
L 86.999553 110.808 
L 89.494337 109.729018 
L 91.989121 104.733923 
L 94.483905 96.314791 
L 96.978689 87.606052 
L 99.473472 78.897312 
L 101.968256 70.178321 
L 104.46304 63.604478 
L 106.957824 56.948623 
L 109.452608 50.426038 
L 111.947392 45.108018 
L 114.442176 40.715204 
L 116.93696 37.129705 
L 119.431744 33.180274 
L 121.926528 30.27138 
L 124.421311 28.682381 
L 126.916095 26.001586 
L 129.410879 24.981551 
L 131.905663 23.474565 
L 134.400447 21.285847 
L 136.895231 21.09363 
L 139.390015 20.552857 
L 141.884799 21.990645 
L 144.379583 22.964548 
L 146.874367 24.361329 
L 149.369151 25.824746 
L 151.863934 27.55983 
L 154.358718 29.428186 
L 156.853502 31.327296 
L 159.348286 33.528828 
L 161.84307 34.976868 
L 164.337854 36.245504 
L 166.832638 37.901138 
L 169.327422 39.782308 
L 171.822206 40.218001 
L 174.31699 41.791623 
L 176.811773 43.639475 
L 179.306557 44.431412 
L 181.801341 45.725677 
L 184.296125 46.550931 
L 186.790909 46.825162 
" clip-path="url(#pa95da7db66)" style="fill: none; stroke: #7bdff2; stroke-opacity: 0.3; stroke-width: 1.5; stroke-linecap: square"/>
   </g>
   <g id="line2d_8">
    <path d="M 34.609091 51.32498 
L 37.103875 51.207962 
L 39.598659 51.201356 
L 42.093443 51.111705 
L 44.588227 51.100381 
L 47.08301 51.265527 
L 49.577794 51.454266 
L 52.072578 51.341023 
L 54.567362 51.266471 
L 57.062146 51.363672 
L 59.55693 51.874211 
L 62.051714 52.078049 
L 64.546498 52.011047 
L 67.041282 51.909128 
L 69.536066 51.95065 
L 72.030849 52.276225 
L 74.525633 53.070817 
L 77.020417 57.813831 
L 79.515201 74.856029 
L 82.009985 96.044826 
L 84.504769 108.014661 
L 86.999553 110.808 
L 89.494337 108.760181 
L 91.989121 104.923114 
L 94.483905 99.091076 
L 96.978689 89.857014 
L 99.473472 78.649686 
L 101.968256 68.864506 
L 104.46304 60.886504 
L 106.957824 54.785512 
L 109.452608 49.643315 
L 111.947392 45.914773 
L 114.442176 43.09218 
L 116.93696 40.390379 
L 119.431744 38.057564 
L 121.926528 36.366461 
L 124.421311 34.933932 
L 126.916095 33.642012 
L 129.410879 32.591679 
L 131.905663 31.643265 
L 134.400447 30.241877 
L 136.895231 29.068864 
L 139.390015 28.157254 
L 141.884799 27.645771 
L 144.379583 27.484399 
L 146.874367 28.200664 
L 149.369151 28.530013 
L 151.863934 29.33876 
L 154.358718 30.950593 
L 156.853502 32.633202 
L 159.348286 33.733551 
L 161.84307 35.057556 
L 164.337854 36.435351 
L 166.832638 37.692354 
L 169.327422 39.052219 
L 171.822206 39.838317 
L 174.31699 40.875439 
L 176.811773 41.717215 
L 179.306557 42.327786 
L 181.801341 43.205423 
L 184.296125 44.241601 
L 186.790909 44.817255 
" clip-path="url(#pa95da7db66)" style="fill: none; stroke: #7bdff2; stroke-opacity: 0.3; stroke-width: 1.5; stroke-linecap: square"/>
   </g>
   <g id="line2d_9">
    <path d="M 34.609091 51.42779 
L 37.103875 50.440216 
L 39.598659 50.991334 
L 42.093443 51.128189 
L 44.588227 51.627524 
L 47.08301 51.57944 
L 49.577794 52.023294 
L 52.072578 52.026992 
L 54.567362 52.137956 
L 57.062146 51.786572 
L 59.55693 50.111025 
L 62.051714 49.693062 
L 64.546498 49.696761 
L 67.041282 52.382075 
L 69.536066 55.563026 
L 72.030849 60.726522 
L 74.525633 69.03768 
L 77.020417 76.546203 
L 79.515201 88.016119 
L 82.009985 99.271506 
L 84.504769 107.268268 
L 86.999553 110.808 
L 89.494337 105.045301 
L 91.989121 96.549204 
L 94.483905 88.323118 
L 96.978689 81.791073 
L 99.473472 74.619139 
L 101.968256 68.320117 
L 104.46304 62.394672 
L 106.957824 57.785993 
L 109.452608 52.759351 
L 111.947392 48.42808 
L 114.442176 44.292844 
L 116.93696 40.926955 
L 119.431744 38.507953 
L 121.926528 35.068087 
L 124.421311 32.234822 
L 126.916095 30.762708 
L 129.410879 28.499055 
L 131.905663 27.689022 
L 134.400447 25.895114 
L 136.895231 24.186277 
L 139.390015 24.397108 
L 141.884799 24.260253 
L 144.379583 24.99631 
L 146.874367 25.554826 
L 149.369151 27.060229 
L 151.863934 27.35983 
L 154.358718 29.556906 
L 156.853502 30.99943 
L 159.348286 32.78594 
L 161.84307 34.602041 
L 164.337854 36.140734 
L 166.832638 36.795418 
L 169.327422 38.027111 
L 171.822206 39.769236 
L 174.31699 41.444784 
L 176.811773 43.220198 
L 179.306557 44.614638 
L 181.801341 44.977118 
L 184.296125 46.097849 
L 186.790909 47.655035 
" clip-path="url(#pa95da7db66)" style="fill: none; stroke: #7bdff2; stroke-opacity: 0.3; stroke-width: 1.5; stroke-linecap: square"/>
   </g>
   <g id="line2d_10">
    <path d="M 34.609091 54.115302 
L 37.103875 53.313454 
L 39.598659 53.313454 
L 42.093443 53.098833 
L 44.588227 53.796351 
L 47.08301 54.368674 
L 49.577794 55.125808 
L 52.072578 53.972221 
L 54.567362 53.29855 
L 57.062146 53.626443 
L 59.55693 52.73517 
L 62.051714 52.949791 
L 64.546498 53.182297 
L 67.041282 53.635386 
L 69.536066 54.428291 
L 72.030849 56.133334 
L 74.525633 62.089063 
L 77.020417 71.729117 
L 79.515201 84.657043 
L 82.009985 98.312296 
L 84.504769 107.156464 
L 86.999553 110.808 
L 89.494337 105.218915 
L 91.989121 98.32422 
L 94.483905 90.070259 
L 96.978689 82.173999 
L 99.473472 73.967732 
L 101.968256 66.932937 
L 104.46304 60.708932 
L 106.957824 57.10509 
L 109.452608 51.960151 
L 111.947392 47.280223 
L 114.442176 43.753883 
L 116.93696 40.048692 
L 119.431744 36.68928 
L 121.926528 34.349316 
L 124.421311 32.504173 
L 126.916095 30.331136 
L 129.410879 28.393587 
L 131.905663 26.459018 
L 134.400447 25.588611 
L 136.895231 24.429063 
L 139.390015 23.975974 
L 141.884799 23.895491 
L 144.379583 24.166748 
L 146.874367 24.601952 
L 149.369151 25.93439 
L 151.863934 27.108843 
L 154.358718 28.778116 
L 156.853502 30.700761 
L 159.348286 32.200127 
L 161.84307 34.027385 
L 164.337854 35.407516 
L 166.832638 36.778705 
L 169.327422 39.249826 
L 171.822206 40.647842 
L 174.31699 41.774602 
L 176.811773 43.005691 
L 179.306557 45.023723 
L 181.801341 45.616912 
L 184.296125 46.49328 
L 186.790909 47.160989 
" clip-path="url(#pa95da7db66)" style="fill: none; stroke: #7bdff2; stroke-opacity: 0.3; stroke-width: 1.5; stroke-linecap: square"/>
   </g>
   <g id="line2d_11">
    <path d="M 34.609091 51.46137 
L 37.103875 52.107238 
L 39.598659 52.426843 
L 42.093443 52.207115 
L 44.588227 52.303662 
L 47.08301 52.213773 
L 49.577794 52.65323 
L 52.072578 52.130543 
L 54.567362 52.113897 
L 57.062146 52.050641 
L 59.55693 51.747683 
L 62.051714 51.627831 
L 64.546498 51.93079 
L 67.041282 52.340283 
L 69.536066 53.069382 
L 72.030849 54.860501 
L 74.525633 59.215117 
L 77.020417 68.81991 
L 79.515201 82.895841 
L 82.009985 98.493225 
L 84.504769 108.400976 
L 86.999553 110.808 
L 89.494337 102.990997 
L 91.989121 93.143172 
L 94.483905 84.890042 
L 96.978689 77.639007 
L 99.473472 72.528658 
L 101.968256 66.952219 
L 104.46304 62.244705 
L 106.957824 57.88676 
L 109.452608 53.855077 
L 111.947392 50.69565 
L 114.442176 46.787149 
L 116.93696 42.958549 
L 119.431744 39.256459 
L 121.926528 36.156957 
L 124.421311 34.492349 
L 126.916095 33.586802 
L 129.410879 32.544757 
L 131.905663 30.720345 
L 134.400447 29.445255 
L 136.895231 28.709498 
L 139.390015 29.218868 
L 141.884799 28.576329 
L 144.379583 27.860548 
L 146.874367 28.689523 
L 149.369151 29.59507 
L 151.863934 30.31751 
L 154.358718 30.813563 
L 156.853502 31.316275 
L 159.348286 32.178543 
L 161.84307 32.900983 
L 164.337854 34.8286 
L 166.832638 36.200237 
L 169.327422 37.475328 
L 171.822206 37.695056 
L 174.31699 39.522796 
L 176.811773 42.076306 
L 179.306557 43.331421 
L 181.801341 43.085059 
L 184.296125 44.386783 
L 186.790909 45.252379 
" clip-path="url(#pa95da7db66)" style="fill: none; stroke: #7bdff2; stroke-opacity: 0.3; stroke-width: 1.5; stroke-linecap: square"/>
   </g>
   <g id="line2d_12">
    <path d="M 34.609091 53.541893 
L 37.103875 53.307402 
L 39.598659 53.471546 
L 42.093443 53.324151 
L 44.588227 53.156658 
L 47.08301 53.052812 
L 49.577794 54.108022 
L 52.072578 53.742886 
L 54.567362 53.156658 
L 57.062146 53.856782 
L 59.55693 54.17167 
L 62.051714 53.967327 
L 64.546498 53.267204 
L 67.041282 53.156658 
L 69.536066 54.96894 
L 72.030849 57.407649 
L 74.525633 63.926505 
L 77.020417 74.096724 
L 79.515201 85.308754 
L 82.009985 95.478974 
L 84.504769 105.47165 
L 86.999553 110.808 
L 89.494337 108.000805 
L 91.989121 102.986043 
L 94.483905 96.296343 
L 96.978689 88.018803 
L 99.473472 78.032827 
L 101.968256 67.983203 
L 104.46304 60.131097 
L 106.957824 53.026013 
L 109.452608 46.034824 
L 111.947392 40.594628 
L 114.442176 37.586441 
L 116.93696 34.474407 
L 119.431744 32.380735 
L 121.926528 30.364111 
L 124.421311 30.213366 
L 126.916095 28.819819 
L 129.410879 28.367586 
L 131.905663 27.061134 
L 134.400447 27.687561 
L 136.895231 27.19178 
L 139.390015 26.886941 
L 141.884799 26.92379 
L 144.379583 26.860142 
L 146.874367 27.205179 
L 149.369151 27.72106 
L 151.863934 28.769571 
L 154.358718 29.992275 
L 156.853502 31.315475 
L 159.348286 32.347237 
L 161.84307 34.032224 
L 164.337854 34.313613 
L 166.832638 35.496119 
L 169.327422 37.954927 
L 171.822206 39.663363 
L 174.31699 41.261253 
L 176.811773 43.328126 
L 179.306557 43.967952 
L 181.801341 45.177256 
L 184.296125 46.520556 
L 186.790909 46.94599 
" clip-path="url(#pa95da7db66)" style="fill: none; stroke: #7bdff2; stroke-opacity: 0.3; stroke-width: 1.5; stroke-linecap: square"/>
   </g>
   <g id="line2d_13">
    <path d="M 34.609091 56.001274 
L 37.103875 55.921079 
L 39.598659 55.950625 
L 42.093443 55.511665 
L 44.588227 55.3766 
L 47.08301 55.798677 
L 49.577794 55.490561 
L 52.072578 56.554195 
L 54.567362 57.45322 
L 57.062146 56.583741 
L 59.55693 56.727247 
L 62.051714 56.904519 
L 64.546498 57.309713 
L 67.041282 57.377246 
L 69.536066 59.158412 
L 72.030849 62.535029 
L 74.525633 66.620737 
L 77.020417 72.97722 
L 79.515201 81.165517 
L 82.009985 92.308356 
L 84.504769 104.063206 
L 86.999553 110.808 
L 89.494337 102.666131 
L 91.989121 91.447318 
L 94.483905 83.001553 
L 96.978689 76.09637 
L 99.473472 68.418786 
L 101.968256 62.298666 
L 104.46304 57.45744 
L 106.957824 52.856799 
L 109.452608 47.766548 
L 111.947392 43.904541 
L 114.442176 40.633443 
L 116.93696 37.193514 
L 119.431744 35.378582 
L 121.926528 33.500338 
L 124.421311 30.908784 
L 126.916095 31.204238 
L 129.410879 30.372746 
L 131.905663 29.055865 
L 134.400447 27.105868 
L 136.895231 27.101647 
L 139.390015 27.22405 
L 141.884799 26.742882 
L 144.379583 26.379895 
L 146.874367 26.962362 
L 149.369151 27.029894 
L 151.863934 28.604242 
L 154.358718 30.246123 
L 156.853502 30.524694 
L 159.348286 31.782484 
L 161.84307 32.6393 
L 164.337854 33.555208 
L 166.832638 35.256179 
L 169.327422 37.223059 
L 171.822206 38.755199 
L 174.31699 41.232792 
L 176.811773 42.431492 
L 179.306557 44.723371 
L 181.801341 45.833434 
L 184.296125 46.46655 
L 186.790909 48.104209 
" clip-path="url(#pa95da7db66)" style="fill: none; stroke: #7bdff2; stroke-opacity: 0.3; stroke-width: 1.5; stroke-linecap: square"/>
   </g>
   <g id="line2d_14">
    <path d="M 34.609091 50.327026 
L 37.103875 48.418736 
L 39.598659 48.574014 
L 42.093443 48.569928 
L 44.588227 49.113402 
L 47.08301 49.350406 
L 49.577794 50.004211 
L 52.072578 50.653929 
L 54.567362 50.899105 
L 57.062146 50.60898 
L 59.55693 51.422149 
L 62.051714 51.695929 
L 64.546498 51.458925 
L 67.041282 50.756085 
L 69.536066 50.151317 
L 72.030849 50.99309 
L 74.525633 54.93226 
L 77.020417 62.532733 
L 79.515201 76.994065 
L 82.009985 93.588432 
L 84.504769 106.349873 
L 86.999553 110.808 
L 89.494337 106.505151 
L 91.989121 99.979368 
L 94.483905 92.664934 
L 96.978689 85.648798 
L 99.473472 78.154567 
L 101.968256 72.09462 
L 104.46304 66.561802 
L 106.957824 62.557251 
L 109.452608 57.326818 
L 111.947392 52.929984 
L 114.442176 49.73043 
L 116.93696 44.107714 
L 119.431744 39.845728 
L 121.926528 36.106785 
L 124.421311 32.15127 
L 126.916095 29.617779 
L 129.410879 28.297912 
L 131.905663 26.761472 
L 134.400447 25.960562 
L 136.895231 25.506985 
L 139.390015 24.836836 
L 141.884799 25.768507 
L 144.379583 26.720609 
L 146.874367 27.746264 
L 149.369151 28.547175 
L 151.863934 29.703591 
L 154.358718 30.749677 
L 156.853502 33.736745 
L 159.348286 34.69702 
L 161.84307 35.036181 
L 164.337854 37.013939 
L 166.832638 39.122457 
L 169.327422 40.810089 
L 171.822206 41.721329 
L 174.31699 42.105439 
L 176.811773 43.42122 
L 179.306557 45.100679 
L 181.801341 46.465496 
L 184.296125 47.033488 
L 186.790909 47.63417 
" clip-path="url(#pa95da7db66)" style="fill: none; stroke: #7bdff2; stroke-opacity: 0.3; stroke-width: 1.5; stroke-linecap: square"/>
   </g>
   <g id="line2d_15">
    <path d="M 34.609091 50.820472 
L 37.103875 50.854249 
L 39.598659 51.780697 
L 42.093443 51.187191 
L 44.588227 50.49718 
L 47.08301 50.260743 
L 49.577794 50.68054 
L 52.072578 50.656414 
L 54.567362 51.245094 
L 57.062146 52.099164 
L 59.55693 52.079863 
L 62.051714 51.35125 
L 64.546498 51.698668 
L 67.041282 52.075038 
L 69.536066 53.266875 
L 72.030849 57.537222 
L 74.525633 64.688245 
L 77.020417 74.488331 
L 79.515201 86.440479 
L 82.009985 98.600113 
L 84.504769 106.561779 
L 86.999553 110.808 
L 89.494337 104.612377 
L 91.989121 97.697791 
L 94.483905 90.29103 
L 96.978689 83.825193 
L 99.473472 73.730767 
L 101.968256 66.637647 
L 104.46304 59.708586 
L 106.957824 54.256051 
L 109.452608 49.971228 
L 111.947392 45.141151 
L 114.442176 41.227872 
L 116.93696 37.686137 
L 119.431744 34.704132 
L 121.926528 32.325283 
L 124.421311 28.92348 
L 126.916095 29.589365 
L 129.410879 27.307021 
L 131.905663 25.594057 
L 134.400447 25.772591 
L 136.895231 25.917349 
L 139.390015 25.261114 
L 141.884799 26.756942 
L 144.379583 27.485555 
L 146.874367 28.021158 
L 149.369151 28.817325 
L 151.863934 31.181698 
L 154.358718 32.426613 
L 156.853502 33.845237 
L 159.348286 34.342238 
L 161.84307 36.648708 
L 164.337854 38.385799 
L 166.832638 40.605415 
L 169.327422 41.927533 
L 171.822206 42.689923 
L 174.31699 43.785255 
L 176.811773 44.591072 
L 179.306557 46.313687 
L 181.801341 45.860114 
L 184.296125 46.926494 
L 186.790909 48.214836 
" clip-path="url(#pa95da7db66)" style="fill: none; stroke: #7bdff2; stroke-opacity: 0.3; stroke-width: 1.5; stroke-linecap: square"/>
   </g>
   <g id="line2d_16">
    <path d="M 34.609091 52.274628 
L 37.103875 51.799017 
L 39.598659 51.990817 
L 42.093443 51.934282 
L 44.588227 51.963041 
L 47.08301 52.049312 
L 49.577794 52.268721 
L 52.072578 52.329248 
L 54.567362 52.404734 
L 57.062146 52.544943 
L 59.55693 52.553638 
L 62.051714 52.521045 
L 64.546498 52.556416 
L 67.041282 52.864405 
L 69.536066 54.283885 
L 72.030849 57.011171 
L 74.525633 62.43862 
L 77.020417 71.390417 
L 79.515201 84.407382 
L 82.009985 97.320595 
L 84.504769 106.316429 
L 86.999553 110.30635 
L 89.494337 106.453427 
L 91.989121 100.157769 
L 94.483905 92.975735 
L 96.978689 85.487838 
L 99.473472 77.448562 
L 101.968256 70.112382 
L 104.46304 63.680145 
L 106.957824 58.163507 
L 109.452608 52.75305 
L 111.947392 48.19424 
L 114.442176 44.266462 
L 116.93696 40.602133 
L 119.431744 37.301006 
L 121.926528 34.422473 
L 124.421311 32.014305 
L 126.916095 30.206914 
L 129.410879 28.587062 
L 131.905663 27.044971 
L 134.400447 25.9428 
L 136.895231 25.123873 
L 139.390015 24.868114 
L 141.884799 25.008688 
L 144.379583 25.319119 
L 146.874367 26.004646 
L 149.369151 26.993761 
L 151.863934 28.220183 
L 154.358718 29.577562 
L 156.853502 30.933957 
L 159.348286 32.237057 
L 161.84307 33.592012 
L 164.337854 35.013161 
L 166.832638 36.414237 
L 169.327422 38.05306 
L 171.822206 39.297924 
L 174.31699 40.567832 
L 176.811773 41.956312 
L 179.306557 43.196472 
L 181.801341 44.011451 
L 184.296125 45.067173 
L 186.790909 45.882965 
" clip-path="url(#pa95da7db66)" style="fill: none; stroke: #000000; stroke-width: 1.5; stroke-linecap: square"/>
   </g>
   <g id="patch_3">
    <path d="M 27 115.344 
L 27 15.552 
" style="fill: none; stroke: #000000; stroke-width: 0.8; stroke-linejoin: miter; stroke-linecap: square"/>
   </g>
   <g id="patch_4">
    <path d="M 27 115.344 
L 194.4 115.344 
" style="fill: none; stroke: #000000; stroke-width: 0.8; stroke-linejoin: miter; stroke-linecap: square"/>
   </g>
   <g id="text_1">
    <!-- 6 -->
    <g transform="translate(35.887879 19.573369) scale(0.12 -0.12)">
     <defs>
      <path id="ArialMT-36" d="M 3184 3459 
L 2625 3416 
Q 2550 3747 2413 3897 
Q 2184 4138 1850 4138 
Q 1581 4138 1378 3988 
Q 1113 3794 959 3422 
Q 806 3050 800 2363 
Q 1003 2672 1297 2822 
Q 1591 2972 1913 2972 
Q 2475 2972 2870 2558 
Q 3266 2144 3266 1488 
Q 3266 1056 3080 686 
Q 2894 316 2569 119 
Q 2244 -78 1831 -78 
Q 1128 -78 684 439 
Q 241 956 241 2144 
Q 241 3472 731 4075 
Q 1159 4600 1884 4600 
Q 2425 4600 2770 4297 
Q 3116 3994 3184 3459 
z
M 888 1484 
Q 888 1194 1011 928 
Q 1134 663 1356 523 
Q 1578 384 1822 384 
Q 2178 384 2434 671 
Q 2691 959 2691 1453 
Q 2691 1928 2437 2201 
Q 2184 2475 1800 2475 
Q 1419 2475 1153 2201 
Q 888 1928 888 1484 
z
" transform="scale(0.015625)"/>
     </defs>
     <use xlink:href="#ArialMT-36"/>
    </g>
   </g>
   <g id="text_2">
    <!-- n = 15 (10.87%) -->
    <g transform="translate(134.400447 110.808) scale(0.1 -0.1)">
     <defs>
      <path id="ArialMT-6e" d="M 422 0 
L 422 3319 
L 928 3319 
L 928 2847 
Q 1294 3394 1984 3394 
Q 2284 3394 2536 3286 
Q 2788 3178 2913 3003 
Q 3038 2828 3088 2588 
Q 3119 2431 3119 2041 
L 3119 0 
L 2556 0 
L 2556 2019 
Q 2556 2363 2490 2533 
Q 2425 2703 2258 2804 
Q 2091 2906 1866 2906 
Q 1506 2906 1245 2678 
Q 984 2450 984 1813 
L 984 0 
L 422 0 
z
" transform="scale(0.015625)"/>
      <path id="ArialMT-20" transform="scale(0.015625)"/>
      <path id="ArialMT-3d" d="M 3381 2694 
L 356 2694 
L 356 3219 
L 3381 3219 
L 3381 2694 
z
M 3381 1303 
L 356 1303 
L 356 1828 
L 3381 1828 
L 3381 1303 
z
" transform="scale(0.015625)"/>
      <path id="ArialMT-31" d="M 2384 0 
L 1822 0 
L 1822 3584 
Q 1619 3391 1289 3197 
Q 959 3003 697 2906 
L 697 3450 
Q 1169 3672 1522 3987 
Q 1875 4303 2022 4600 
L 2384 4600 
L 2384 0 
z
" transform="scale(0.015625)"/>
      <path id="ArialMT-35" d="M 266 1200 
L 856 1250 
Q 922 819 1161 601 
Q 1400 384 1738 384 
Q 2144 384 2425 690 
Q 2706 997 2706 1503 
Q 2706 1984 2436 2262 
Q 2166 2541 1728 2541 
Q 1456 2541 1237 2417 
Q 1019 2294 894 2097 
L 366 2166 
L 809 4519 
L 3088 4519 
L 3088 3981 
L 1259 3981 
L 1013 2750 
Q 1425 3038 1878 3038 
Q 2478 3038 2890 2622 
Q 3303 2206 3303 1553 
Q 3303 931 2941 478 
Q 2500 -78 1738 -78 
Q 1113 -78 717 272 
Q 322 622 266 1200 
z
" transform="scale(0.015625)"/>
      <path id="ArialMT-28" d="M 1497 -1347 
Q 1031 -759 709 28 
Q 388 816 388 1659 
Q 388 2403 628 3084 
Q 909 3875 1497 4659 
L 1900 4659 
Q 1522 4009 1400 3731 
Q 1209 3300 1100 2831 
Q 966 2247 966 1656 
Q 966 153 1900 -1347 
L 1497 -1347 
z
" transform="scale(0.015625)"/>
      <path id="ArialMT-30" d="M 266 2259 
Q 266 3072 433 3567 
Q 600 4063 929 4331 
Q 1259 4600 1759 4600 
Q 2128 4600 2406 4451 
Q 2684 4303 2865 4023 
Q 3047 3744 3150 3342 
Q 3253 2941 3253 2259 
Q 3253 1453 3087 958 
Q 2922 463 2592 192 
Q 2263 -78 1759 -78 
Q 1097 -78 719 397 
Q 266 969 266 2259 
z
M 844 2259 
Q 844 1131 1108 757 
Q 1372 384 1759 384 
Q 2147 384 2411 759 
Q 2675 1134 2675 2259 
Q 2675 3391 2411 3762 
Q 2147 4134 1753 4134 
Q 1366 4134 1134 3806 
Q 844 3388 844 2259 
z
" transform="scale(0.015625)"/>
      <path id="ArialMT-2e" d="M 581 0 
L 581 641 
L 1222 641 
L 1222 0 
L 581 0 
z
" transform="scale(0.015625)"/>
      <path id="ArialMT-38" d="M 1131 2484 
Q 781 2613 612 2850 
Q 444 3088 444 3419 
Q 444 3919 803 4259 
Q 1163 4600 1759 4600 
Q 2359 4600 2725 4251 
Q 3091 3903 3091 3403 
Q 3091 3084 2923 2848 
Q 2756 2613 2416 2484 
Q 2838 2347 3058 2040 
Q 3278 1734 3278 1309 
Q 3278 722 2862 322 
Q 2447 -78 1769 -78 
Q 1091 -78 675 323 
Q 259 725 259 1325 
Q 259 1772 486 2073 
Q 713 2375 1131 2484 
z
M 1019 3438 
Q 1019 3113 1228 2906 
Q 1438 2700 1772 2700 
Q 2097 2700 2305 2904 
Q 2513 3109 2513 3406 
Q 2513 3716 2298 3927 
Q 2084 4138 1766 4138 
Q 1444 4138 1231 3931 
Q 1019 3725 1019 3438 
z
M 838 1322 
Q 838 1081 952 856 
Q 1066 631 1291 507 
Q 1516 384 1775 384 
Q 2178 384 2440 643 
Q 2703 903 2703 1303 
Q 2703 1709 2433 1975 
Q 2163 2241 1756 2241 
Q 1359 2241 1098 1978 
Q 838 1716 838 1322 
z
" transform="scale(0.015625)"/>
      <path id="ArialMT-37" d="M 303 3981 
L 303 4522 
L 3269 4522 
L 3269 4084 
Q 2831 3619 2401 2847 
Q 1972 2075 1738 1259 
Q 1569 684 1522 0 
L 944 0 
Q 953 541 1156 1306 
Q 1359 2072 1739 2783 
Q 2119 3494 2547 3981 
L 303 3981 
z
" transform="scale(0.015625)"/>
      <path id="ArialMT-25" d="M 372 3481 
Q 372 3972 619 4315 
Q 866 4659 1334 4659 
Q 1766 4659 2048 4351 
Q 2331 4044 2331 3447 
Q 2331 2866 2045 2552 
Q 1759 2238 1341 2238 
Q 925 2238 648 2547 
Q 372 2856 372 3481 
z
M 1350 4272 
Q 1141 4272 1002 4090 
Q 863 3909 863 3425 
Q 863 2984 1003 2804 
Q 1144 2625 1350 2625 
Q 1563 2625 1702 2806 
Q 1841 2988 1841 3469 
Q 1841 3913 1700 4092 
Q 1559 4272 1350 4272 
z
M 1353 -169 
L 3859 4659 
L 4316 4659 
L 1819 -169 
L 1353 -169 
z
M 3334 1075 
Q 3334 1569 3581 1911 
Q 3828 2253 4300 2253 
Q 4731 2253 5014 1945 
Q 5297 1638 5297 1041 
Q 5297 459 5011 145 
Q 4725 -169 4303 -169 
Q 3888 -169 3611 142 
Q 3334 453 3334 1075 
z
M 4316 1866 
Q 4103 1866 3964 1684 
Q 3825 1503 3825 1019 
Q 3825 581 3965 400 
Q 4106 219 4313 219 
Q 4528 219 4667 400 
Q 4806 581 4806 1063 
Q 4806 1506 4665 1686 
Q 4525 1866 4316 1866 
z
" transform="scale(0.015625)"/>
      <path id="ArialMT-29" d="M 791 -1347 
L 388 -1347 
Q 1322 153 1322 1656 
Q 1322 2244 1188 2822 
Q 1081 3291 891 3722 
Q 769 4003 388 4659 
L 791 4659 
Q 1378 3875 1659 3084 
Q 1900 2403 1900 1659 
Q 1900 816 1576 28 
Q 1253 -759 791 -1347 
z
" transform="scale(0.015625)"/>
     </defs>
     <use xlink:href="#ArialMT-6e"/>
     <use xlink:href="#ArialMT-20" x="55.615234"/>
     <use xlink:href="#ArialMT-3d" x="83.398438"/>
     <use xlink:href="#ArialMT-20" x="141.796875"/>
     <use xlink:href="#ArialMT-31" x="169.580078"/>
     <use xlink:href="#ArialMT-35" x="225.195312"/>
     <use xlink:href="#ArialMT-20" x="280.810547"/>
     <use xlink:href="#ArialMT-28" x="308.59375"/>
     <use xlink:href="#ArialMT-31" x="341.894531"/>
     <use xlink:href="#ArialMT-30" x="397.509766"/>
     <use xlink:href="#ArialMT-2e" x="453.125"/>
     <use xlink:href="#ArialMT-38" x="480.908203"/>
     <use xlink:href="#ArialMT-37" x="536.523438"/>
     <use xlink:href="#ArialMT-25" x="592.138672"/>
     <use xlink:href="#ArialMT-29" x="681.054688"/>
    </g>
   </g>
  </g>
 </g>
 <defs>
  <clipPath id="pa95da7db66">
   <rect x="27" y="15.552" width="167.4" height="99.792"/>
  </clipPath>
 </defs>
</svg>
